<?xml version="1.0" encoding="utf-8"?>
<!-- Generator: Adobe Illustrator 24.0.2, SVG Export Plug-In . SVG Version: 6.00 Build 0)  -->
<svg version="1.1" id="Capa_1" xmlns="http://www.w3.org/2000/svg" xmlns:xlink="http://www.w3.org/1999/xlink" x="0px" y="0px"
	 viewBox="0 0 31.2 31.2" style="enable-background:new 0 0 31.2 31.2;" xml:space="preserve">
<style type="text/css">
	.st0{fill:#1F466B;}
</style>
<path class="st0" d="M20.9,20.2c0,2.9-2.4,5.3-5.3,5.3s-5.3-2.4-5.3-5.3V14h4.4v5.1h1.8V14h4.4V20.2z M14.1,6.4h3
	c0.7,0.7,2.3,2.2,5.5,2.2l-1.3,3.5h-5.7L9.7,12l-1-3.3C11.8,8.6,13.5,7.1,14.1,6.4z M24.9,12.2h-1.8l1.1-2.9
	c0.2-0.6,0.1-1.2-0.2-1.7c-0.3-0.4-0.8-0.7-1.4-0.7c-1.3,0-2.4-0.3-3.3-0.9c-0.6-0.4-0.9-0.9-1-0.9l-0.2-0.5h-4.4h-0.5L12.9,5
	c0,0-0.3,0.5-1,0.9c-0.8,0.7-2,1-3.3,1C8,6.9,7.5,7.1,7.2,7.6C6.9,8,6.8,8.6,7,9.2l0.9,3H6.3V14h2.1h0.1v6.2c0,3.9,3.2,7.1,7.1,7.1
	s7.1-3.2,7.1-7.1V14h2.2V12.2z"/>
</svg>
