<?xml version="1.0" encoding="utf-8"?>
<!-- Generator: Adobe Illustrator 24.0.2, SVG Export Plug-In . SVG Version: 6.00 Build 0)  -->
<svg version="1.1" id="Capa_1" xmlns="http://www.w3.org/2000/svg" xmlns:xlink="http://www.w3.org/1999/xlink" x="0px" y="0px"
	 viewBox="0 0 31.2 31.2" style="enable-background:new 0 0 31.2 31.2;" xml:space="preserve">
<style type="text/css">
	.st0{fill:#1F466B;}
</style>
<path class="st0" d="M19.8,10.3c0.9,0.1,1.8,0.3,2.6,0.7l3.8,2.1h-6.5V10.3z M18.4,18.7h-4.2v-4.2h4.2
	C18.4,14.5,18.4,18.7,18.4,18.7z M9.9,14.5h2.9v4.2H9.9V14.5z M9.9,11.6c0-0.8,0.6-1.4,1.4-1.4h1.4v2.9H9.9V11.6z M18.4,13.1h-4.2
	v-2.8h4.2C18.4,10.3,18.4,13.1,18.4,13.1z M29.1,13l-6-3.3c-1.1-0.6-2.4-0.9-3.6-0.9h-8.2c-1.5,0-2.8,1.3-2.8,2.8v1.4H0v5.7h1.4
	v-4.2h7.1v4.2H7.1H2.8H1.4v1.4h1.4c0,1.2,1,2.2,2.2,2.2s2.2-1,2.2-2.2h18.3c0,1.2,1,2.2,2.2,2.2s2.2-1,2.2-2.2v-1.4h-1.4h-2.9h-5.7
	v-4.2h9c0.4,0.3,0.7,0.9,0.9,1.4h-1.8c-0.4,0-0.7,0.3-0.7,0.7s0.3,0.7,0.7,0.7h1.8v1.4h1.4v-2.4C31.2,15,30.4,13.7,29.1,13z"/>
</svg>
