<?xml version="1.0" encoding="utf-8"?>
<!-- Generator: Adobe Illustrator 24.0.2, SVG Export Plug-In . SVG Version: 6.00 Build 0)  -->
<svg version="1.1" id="Capa_1" xmlns="http://www.w3.org/2000/svg" xmlns:xlink="http://www.w3.org/1999/xlink" x="0px" y="0px"
	 viewBox="0 0 31.2 31.2" style="enable-background:new 0 0 31.2 31.2;" xml:space="preserve">
<style type="text/css">
	.st0{clip-path:url(#SVGID_2_);}
	.st1{fill:#1F466B;}
</style>
<g>
	<g>
		<defs>
			<rect id="SVGID_1_" x="5" y="3.5" width="21.1" height="24.2"/>
		</defs>
		<clipPath id="SVGID_2_">
			<use xlink:href="#SVGID_1_"  style="overflow:visible;"/>
		</clipPath>
		<g class="st0">
			<path class="st1" d="M24.1,24.1c0,1-0.8,1.7-1.7,1.7H8.7c-1,0-1.7-0.8-1.7-1.7V7.2c0-1,0.8-1.7,1.7-1.7h13.8c1,0,1.7,0.8,1.7,1.7
				v16.9H24.1z M22.4,3.5H8.7C6.6,3.5,5,5.1,5,7.2v16.9c0,2,1.6,3.7,3.7,3.7h13.8c2,0,3.7-1.6,3.7-3.7V7.2
				C26.1,5.1,24.4,3.5,22.4,3.5z"/>
			<path class="st1" d="M17.1,20.6H14c-0.3,0-0.4-0.3-0.4-0.6l1.1-4.5c0.1-0.4,0-0.8-0.3-1.1c-0.3-0.4-0.5-0.8-0.4-1.3
				c0-0.8,0.7-1.5,1.5-1.5h0.1c0.9,0,1.6,0.7,1.6,1.6c0,0.4-0.2,0.8-0.5,1.1c-0.3,0.3-0.4,0.7-0.3,1.1l1.1,4.5
				C17.5,20.3,17.3,20.6,17.1,20.6z M18.3,15.3c0.5-0.6,0.7-1.3,0.7-2.1c0-1.9-1.6-3.5-3.5-3.5c-0.1,0-0.1,0-0.2,0
				c-0.9,0.1-1.7,0.4-2.3,1.1c-0.6,0.6-1,1.4-1,2.3c0,0.8,0.2,1.6,0.7,2.3l-1,4.2c-0.2,0.7,0,1.5,0.4,2.1c0.5,0.4,1.2,0.8,1.9,0.8
				h3.1c0.7,0,1.4-0.3,1.8-0.9c0.4-0.6,0.6-1.4,0.4-2.1L18.3,15.3z"/>
		</g>
	</g>
</g>
</svg>
