<?xml version="1.0" encoding="utf-8"?>
<!-- Generator: Adobe Illustrator 24.0.2, SVG Export Plug-In . SVG Version: 6.00 Build 0)  -->
<svg version="1.1" id="Capa_1" xmlns="http://www.w3.org/2000/svg" xmlns:xlink="http://www.w3.org/1999/xlink" x="0px" y="0px"
	 viewBox="0 0 31.2 31.2" style="enable-background:new 0 0 31.2 31.2;" xml:space="preserve">
<style type="text/css">
	.st0{clip-path:url(#SVGID_2_);}
	.st1{fill:#1F466B;}
</style>
<g>
	<g>
		<defs>
			<rect id="SVGID_1_" x="6" y="6" width="19.2" height="19.1"/>
		</defs>
		<clipPath id="SVGID_2_">
			<use xlink:href="#SVGID_1_"  style="overflow:visible;"/>
		</clipPath>
		<g class="st0">
			<path class="st1" d="M6,9.2V10h1.6V9.2c0-0.9,0.7-1.6,1.6-1.6H10V6H9.2C7.4,6,6,7.4,6,9.2z"/>
			<path class="st1" d="M18,23.6h-4.8v1.6H18V23.6z"/>
			<path class="st1" d="M7.6,22v-0.8H6V22c0,1.8,1.4,3.2,3.2,3.2H10v-1.6H9.2C8.3,23.6,7.6,22.8,7.6,22z"/>
			<path class="st1" d="M7.6,13.2H6V18h1.6V13.2z"/>
			<path class="st1" d="M22,6h-0.8v1.6H22c0.9,0,1.6,0.7,1.6,1.6V10h1.6V9.2C25.1,7.4,23.7,6,22,6z"/>
			<path class="st1" d="M23.6,22c0,0.9-0.7,1.6-1.6,1.6h-0.8v1.6H22c1.8,0,3.2-1.4,3.2-3.2v-0.8h-1.6V22z"/>
			<path class="st1" d="M25.2,13.2h-1.6V18h1.6V13.2z"/>
			<path class="st1" d="M18,6h-4.8v1.6H18V6z"/>
			<path class="st1" d="M14.2,18h2.7c0.6,0,1.1-0.5,1.1-1.1v-2.7c0-0.6-0.5-1.1-1.1-1.1h-2.7c-0.6,0-1.1,0.5-1.1,1.1v2.7
				C13.2,17.5,13.7,18,14.2,18z"/>
		</g>
	</g>
</g>
</svg>
