<?xml version="1.0" encoding="utf-8"?>
<!-- Generator: Adobe Illustrator 24.0.2, SVG Export Plug-In . SVG Version: 6.00 Build 0)  -->
<svg version="1.1" id="Capa_1" xmlns="http://www.w3.org/2000/svg" xmlns:xlink="http://www.w3.org/1999/xlink" x="0px" y="0px"
	 viewBox="0 0 31.2 31.2" style="enable-background:new 0 0 31.2 31.2;" xml:space="preserve">
<style type="text/css">
	.st0{fill:#1F466B;}
</style>
<path class="st0" d="M26.1,19.1l-1.5-0.6v-5.8l1.5-0.6V19.1z M21.4,13.8l1.6-0.6v4.7l-1.6-0.5V13.8z M19.8,20.3
	c0,0.4-0.4,0.8-0.8,0.8H5.8c-0.4,0-0.8-0.4-0.8-0.8v-9.4c0-0.4,0.4-0.8,0.8-0.8h13.4c0.4,0,0.8,0.4,0.8,0.8v1.9v5.7L19.8,20.3
	C19.9,20.3,19.8,20.3,19.8,20.3z M27.7,9.7l-6.3,2.4v-1.2c0-1.3-1.1-2.4-2.4-2.4H5.8c-1.3,0-2.4,1.1-2.4,2.4v9.5
	c0,1.2,1.1,2.3,2.4,2.3h13.4c1.3,0,2.4-1.1,2.4-2.4V19l6.3,2.4L27.7,9.7L27.7,9.7z"/>
</svg>
