<?xml version="1.0" encoding="utf-8"?>
<!-- Generator: Adobe Illustrator 24.0.2, SVG Export Plug-In . SVG Version: 6.00 Build 0)  -->
<svg version="1.1" id="Capa_1" xmlns="http://www.w3.org/2000/svg" xmlns:xlink="http://www.w3.org/1999/xlink" x="0px" y="0px"
	 viewBox="0 0 31.2 31.2" style="enable-background:new 0 0 31.2 31.2;" xml:space="preserve">
<style type="text/css">
	.st0{clip-path:url(#SVGID_2_);}
	.st1{fill:#1F466B;}
</style>
<g>
	<g>
		<defs>
			<rect id="SVGID_1_" x="5.1" y="4.3" width="21" height="22.7"/>
		</defs>
		<clipPath id="SVGID_2_">
			<use xlink:href="#SVGID_1_"  style="overflow:visible;"/>
		</clipPath>
		<g class="st0">
			<path class="st1" d="M16.3,18.5c0.4-0.4,0.8-0.8,0.8-1.8c0-0.8-0.4-1.2-0.8-1.8c-0.3-0.4-0.5-0.7-0.7-1.1
				c-0.2,0.4-0.4,0.8-0.7,1.1c-0.4,0.5-0.8,1.1-0.8,1.8c0,1,0.4,1.3,0.8,1.8c0.4,0.4,0.7,0.7,0.7,1.3C15.6,19.1,16,18.8,16.3,18.5z"
				/>
			<path class="st1" d="M15.5,21.9c-0.1-1.3-0.9-2-1.6-2.7c-1-0.9-1.9-1.8-1.9-4.1c0-1.8,0.9-3,1.8-4.3c0.6-0.8,1.2-1.6,1.7-2.5
				c0.4,1,1.1,1.8,1.7,2.5c1.1,1.2,1.9,2.4,1.9,4.2c0,2.3-1,3.3-1.9,4.1C16.5,19.8,15.7,20.6,15.5,21.9
				C15.6,21.9,15.6,21.9,15.5,21.9z M24.4,13c0,4.2-3,7.8-7,8.6c0.2-0.4,0.5-0.8,1.1-1.3c1.1-1,2.4-2.3,2.4-5.4
				c0-2.5-1.1-3.9-2.2-5.4c-1.1-1.5-2.2-2.9-2.2-5.4h-1.7c0,2.5-1.1,4-2.2,5.4c-1.1,1.5-2.2,3-2.2,5.4c0,3.1,1.4,4.4,2.4,5.4
				c0.5,0.5,0.9,0.9,1.1,1.3c-4-0.8-7-4.4-7-8.6H5.1c0,5.8,4.7,10.5,10.5,10.5S26.2,18.8,26.2,13H24.4z"/>
			<path class="st1" d="M22.3,25.3H8.9v1.7h13.4V25.3z"/>
		</g>
	</g>
</g>
</svg>
