<?xml version="1.0" encoding="utf-8"?>
<!-- Generator: Adobe Illustrator 24.0.2, SVG Export Plug-In . SVG Version: 6.00 Build 0)  -->
<svg version="1.1" id="Capa_1" xmlns="http://www.w3.org/2000/svg" xmlns:xlink="http://www.w3.org/1999/xlink" x="0px" y="0px"
	 viewBox="0 0 31.2 31.2" style="enable-background:new 0 0 31.2 31.2;" xml:space="preserve">
<style type="text/css">
	.st0{clip-path:url(#SVGID_2_);}
	.st1{fill:#1F466B;}
</style>
<g>
	<g>
		<defs>
			<rect id="SVGID_1_" y="4.3" width="31.2" height="22.5"/>
		</defs>
		<clipPath id="SVGID_2_">
			<use xlink:href="#SVGID_1_"  style="overflow:visible;"/>
		</clipPath>
		<g class="st0">
			<path class="st1" d="M9,7.3c0.2-0.7,0.9-1.3,1.8-1.3h9.4c0.9,0,1.6,0.5,1.8,1.3l1.1,4.8H8L9,7.3z M26.8,12.1v-0.9h1.7V9.5h-3.4
				v2.6H25L23.9,7c-0.4-1.5-1.8-2.6-3.5-2.6h-9.5C9.1,4.3,7.7,5.4,7.3,7l-1.1,5.2H6.1V9.5H2.6v1.7h1.7v0.9c-2.4,0-4.3,2-4.3,4.3v5.2
				h1.7v-5.2c0-1.4,1.2-2.5,2.5-2.5h22.5c1.4,0,2.5,1.2,2.5,2.5v5.2H31v-5.2C31.2,14.1,29.2,12.1,26.8,12.1z"/>
			<path class="st1" d="M5.2,14.7c-1,0-1.7,0.8-1.7,1.7c0,1,0.8,1.7,1.7,1.7c1,0,1.7-0.8,1.7-1.7C7,15.5,6.1,14.7,5.2,14.7z"/>
			<path class="st1" d="M25.9,14.7c-1,0-1.7,0.8-1.7,1.7c0,1,0.8,1.7,1.7,1.7c1,0,1.7-0.8,1.7-1.7C27.7,15.5,26.9,14.7,25.9,14.7z"
				/>
			<path class="st1" d="M22.5,16H8.7v1.7h13.8C22.5,17.7,22.5,16,22.5,16z"/>
			<path class="st1" d="M27.7,21.6v-1.7H3.4v1.7H2.5H1.6v2.9c0,1.3,1,2.3,2.3,2.3h2.4c1.3,0,2.3-1,2.3-2.3v-2.9h13.8v2.9
				c0,1.3,1,2.3,2.3,2.3h2.4c1.3,0,2.3-1,2.3-2.3v-2.9h-0.9H27.7z"/>
		</g>
	</g>
</g>
</svg>
