<?xml version="1.0" encoding="utf-8"?>
<!-- Generator: Adobe Illustrator 24.0.2, SVG Export Plug-In . SVG Version: 6.00 Build 0)  -->
<svg version="1.1" id="Capa_1" xmlns="http://www.w3.org/2000/svg" xmlns:xlink="http://www.w3.org/1999/xlink" x="0px" y="0px"
	 viewBox="0 0 31.2 31.2" style="enable-background:new 0 0 31.2 31.2;" xml:space="preserve">
<style type="text/css">
	.st0{clip-path:url(#SVGID_2_);}
	.st1{fill:#1F466B;}
</style>
<g>
	<g>
		<defs>
			<rect id="SVGID_1_" y="1.2" width="31.2" height="28.7"/>
		</defs>
		<clipPath id="SVGID_2_">
			<use xlink:href="#SVGID_1_"  style="overflow:visible;"/>
		</clipPath>
		<g class="st0">
			<path class="st1" d="M29.3,23.8c-0.7,2.7-3.2,4.6-6,4.6H7.8c-2.9,0-5.4-1.9-6-4.6h13h1.5H29.3z M20.1,19.1h11.1v-1.5
				c-2.4,0-6.1-2.3-9.3-5.6c-3.5-3.7-5.6-7.6-5.6-10.7h-1.5v20.9H1.5H1H0C0,26.5,3.5,30,7.8,30h15.5c4.3,0,7.8-3.5,7.8-7.8h-0.9
				h-0.6H16.3V6.9c0.1,0.2,0.2,0.2,0.2,0.4c1.1,1.9,2.5,3.9,4.2,5.7c1.7,1.7,3.5,3.2,5.3,4.3c0.1,0.1,0.2,0.2,0.3,0.2h-6.3V19.1z"/>
		</g>
	</g>
</g>
</svg>
