<?xml version="1.0" encoding="utf-8"?>
<!-- Generator: Adobe Illustrator 24.0.2, SVG Export Plug-In . SVG Version: 6.00 Build 0)  -->
<svg version="1.1" id="Capa_1" xmlns="http://www.w3.org/2000/svg" xmlns:xlink="http://www.w3.org/1999/xlink" x="0px" y="0px"
	 viewBox="0 0 31.2 36.9" style="enable-background:new 0 0 31.2 36.9;" xml:space="preserve">
<style type="text/css">
	.st0{clip-path:url(#SVGID_2_);}
	.st1{fill:#1F466B;}
</style>
<g>
	<g>
		<g>
			<defs>
				<rect id="SVGID_1_" x="2.7" y="0" width="25.7" height="36.9"/>
			</defs>
			<clipPath id="SVGID_2_">
				<use xlink:href="#SVGID_1_"  style="overflow:visible;"/>
			</clipPath>
			<g class="st0">
				<path class="st1" d="M15.6,0C8.5,0,2.7,5.8,2.7,12.9c0,6.4,4.6,11.6,10.6,12.6V24C8.2,23,4.3,18.4,4.3,12.9
					c0-6.3,5.1-11.3,11.3-11.3s11.3,5.1,11.3,11.3c0,5.4-3.9,10-9,11.1v1.7c5.9-1.1,10.5-6.4,10.5-12.6C28.5,5.8,22.7,0,15.6,0z"/>
				<path class="st1" d="M13.4,11.6c0-0.4-0.4-0.7-0.7-0.7c-0.4,0-0.7,0.4-0.7,0.7s0.4,0.7,0.7,0.7C13.1,12.3,13.4,11.9,13.4,11.6z"
					/>
				<path class="st1" d="M18.1,16.1c0,0.4,0.4,0.7,0.7,0.7c0.4,0,0.7-0.4,0.7-0.7c0-0.4-0.4-0.7-0.7-0.7
					C18.3,15.4,18.1,15.7,18.1,16.1z"/>
				<path class="st1" d="M16.5,27.6v-1.9v-1.5v-1.1V23v-8.6c0.1-2.8,2.8-5.2,6.1-5.2V7.7c-2.5,0-4.7,1.1-6.1,2.8V4.6H15v9.8
					c0,0.1,0,0.2,0,0.4v2.1c-0.1-0.1-0.1-0.1-0.1-0.2c-1.1-1.9-2.7-2.8-4.5-2.8v1.5c1.2,0,2.4,0.7,3.1,2.1c0.9,1.5,1.4,3.4,1.4,5.6
					v1.1v1.5v9.6h-3.1v1.7h7.7v-1.7h-3.1v-7.6H16.5z"/>
			</g>
		</g>
	</g>
</g>
</svg>
