<?xml version="1.0" encoding="utf-8"?>
<!-- Generator: Adobe Illustrator 24.0.2, SVG Export Plug-In . SVG Version: 6.00 Build 0)  -->
<svg version="1.1" id="Capa_1" xmlns="http://www.w3.org/2000/svg" xmlns:xlink="http://www.w3.org/1999/xlink" x="0px" y="0px"
	 viewBox="0 0 31.2 31.2" style="enable-background:new 0 0 31.2 31.2;" xml:space="preserve">
<style type="text/css">
	.st0{clip-path:url(#SVGID_2_);}
	.st1{fill:#1F466B;}
</style>
<g>
	<g>
		<defs>
			<rect id="SVGID_1_" y="6.5" width="31.2" height="18.2"/>
		</defs>
		<clipPath id="SVGID_2_">
			<use xlink:href="#SVGID_1_"  style="overflow:visible;"/>
		</clipPath>
		<g class="st0">
			<path class="st1" d="M16.9,20.5h-3.5v1.7h3.5V20.5z"/>
			<path class="st1" d="M25.2,22.9c-2.3,0-4.1-1.8-4.1-4.1c0-2,1.4-3.7,3.3-4v4.6h1.7v-4.7c1.8,0.4,3.3,2.1,3.3,4
				C29.4,21.1,27.5,22.9,25.2,22.9z M6,22.9c-2.3,0-4.1-1.8-4.1-4.1s1.8-4.1,4.1-4.1c0.8,0,1.7,0.3,2.3,0.6l-2.8,2.8
				c-0.3,0.3-0.4,0.6-0.2,0.9c0.1,0.4,0.5,0.6,0.8,0.6h4C9.6,21.6,7.9,22.9,6,22.9z M9.4,16.5c0.3,0.5,0.5,0.9,0.6,1.4H8.1L9.4,16.5
				z M13.4,17.9h-1.6c-0.2-1-0.6-1.8-1.1-2.7l1.1-1.1L13.4,17.9z M26.1,12.9V8.3h0.6c0.3,0,0.6,0.1,0.6,0.4c0.2,0.3,0.2,0.6,0.1,0.7
				l-0.5,1.1l1.7,0.7l0.5-1.1c0.4-0.9,0.3-1.8-0.2-2.5c-0.6-0.7-1.3-1.2-2.2-1.2h-1.6h-4.7v1.7h2.8L21.7,10h-7.1v1.7H20l-5,5.4
				l-2-4.8V10h1.7V8.3H9.4V10h1.7v2.3L9.4,14c-1-0.7-2.2-1.2-3.5-1.2c-3.3,0-6,2.7-6,5.9c0,3.3,2.7,6,6,6c2.9,0,5.4-2.2,5.9-5h2.8
				c0.3,0,0.5-0.1,0.6-0.3l9-9.7v3.3c-2.8,0.5-5,2.9-5,5.9c0,3.3,2.7,6,6,6s6-2.7,6-6C31.2,15.8,29,13.3,26.1,12.9z"/>
		</g>
	</g>
</g>
</svg>
