<?xml version="1.0" encoding="utf-8"?>
<!-- Generator: Adobe Illustrator 24.0.2, SVG Export Plug-In . SVG Version: 6.00 Build 0)  -->
<svg version="1.1" id="Capa_1" xmlns="http://www.w3.org/2000/svg" xmlns:xlink="http://www.w3.org/1999/xlink" x="0px" y="0px"
	 viewBox="0 0 31.2 31.2" style="enable-background:new 0 0 31.2 31.2;" xml:space="preserve">
<style type="text/css">
	.st0{clip-path:url(#SVGID_2_);}
	.st1{fill:#1F466B;}
</style>
<g>
	<g>
		<defs>
			<rect id="SVGID_1_" x="9.7" y="4.3" width="11.8" height="22.7"/>
		</defs>
		<clipPath id="SVGID_2_">
			<use xlink:href="#SVGID_1_"  style="overflow:visible;"/>
		</clipPath>
		<g class="st0">
			<path class="st1" d="M15.4,8.3c1.1,0,2-0.9,2-2s-0.9-2-2-2s-2,0.9-2,2C13.4,7.3,14.3,8.3,15.4,8.3z"/>
			<path class="st1" d="M18.4,21c0-0.5-0.2-1-0.5-1.4l-1.9-2.6v-6.4c0-0.5-0.3-1-0.8-1.2c-0.4-0.2-1-0.1-1.4,0.3l-2.2,2.8
				c-0.1,0.2-0.2,0.4-0.2,0.7v3.3h1.6v-3.1l1.5-1.9v6.1l2.1,3c0.1,0.1,0.2,0.3,0.2,0.5V27h2.3v-1.6h-0.7V21z"/>
			<path class="st1" d="M12.8,22.4c-0.1,0.2-0.2,0.3-0.3,0.4l-2.9,2v2h1.6v-1.2l2.2-1.4c0.4-0.2,0.8-0.6,0.9-1.2l0.8-2.5L13.9,19
				L12.8,22.4z"/>
			<path class="st1" d="M19.5,12.5l-2-1.8v2.2l1.1,1c0.2,0.2,0.5,0.2,0.8,0.2h2v-1.6H19.5z"/>
		</g>
	</g>
</g>
</svg>
