<?xml version="1.0" encoding="utf-8"?>
<!-- Generator: Adobe Illustrator 24.0.2, SVG Export Plug-In . SVG Version: 6.00 Build 0)  -->
<svg version="1.1" id="Capa_1" xmlns="http://www.w3.org/2000/svg" xmlns:xlink="http://www.w3.org/1999/xlink" x="0px" y="0px"
	 viewBox="0 0 31.2 31.2" style="enable-background:new 0 0 31.2 31.2;" xml:space="preserve">
<style type="text/css">
	.st0{clip-path:url(#SVGID_2_);}
	.st1{fill:#1F466B;}
</style>
<g>
	<g>
		<defs>
			<rect id="SVGID_1_" y="5.5" width="31.2" height="20.2"/>
		</defs>
		<clipPath id="SVGID_2_">
			<use xlink:href="#SVGID_1_"  style="overflow:visible;"/>
		</clipPath>
		<g class="st0">
			<path class="st1" d="M26.6,7.4c1.2,0,2,0.9,2,2s-0.9,2-2,2c-1.2,0-2-0.9-2-2S25.4,7.4,26.6,7.4z M26.6,13.4
				c2.2,0,3.8-1.8,3.8-3.8c0-2.2-1.8-3.8-3.8-3.8c-2.2,0-3.8,1.8-3.8,3.8S24.4,13.4,26.6,13.4z"/>
			<path class="st1" d="M16,8.2l8.8,9.5c0.4-0.1,0.6-0.3,1-0.5c0.3-0.1,0.5-0.3,0.8-0.4l-9.2-9.8c-1-0.9-2.2-1.4-3.5-1.4H3.7v1.8
				h10.2C14.7,7.3,15.5,7.7,16,8.2z"/>
			<path class="st1" d="M13,11.4l0.9,1l-3.7,4.1c0.4-0.1,0.8-0.1,1.2-0.1c0.5,0,0.9,0,1.3,0.1l3.7-4.2l-2-2.3
				c-0.5-0.5-1.3-0.9-2-0.9H3.6v1.8h8.7C12.5,11,12.8,11.1,13,11.4z"/>
			<path class="st1" d="M30.8,19.7c-0.5-0.4-1.3-0.8-2.6-0.8s-2,0.4-2.6,0.8c-0.5,0.3-0.9,0.5-1.7,0.5c-0.8,0-1.2-0.3-1.7-0.5
				c-0.5-0.4-1.3-0.8-2.6-0.8s-2,0.4-2.6,0.8c-0.5,0.3-0.9,0.5-1.7,0.5s-1.2-0.3-1.7-0.5c-0.5-0.4-1.3-0.8-2.6-0.8s-2,0.4-2.6,0.8
				c-0.5,0.3-0.9,0.5-1.7,0.5S6,19.9,5.5,19.7c-0.5-0.4-1.3-0.8-2.6-0.8s-2,0.4-2.6,0.8c-0.1,0.1-0.3,0.1-0.4,0.3v1.9
				c0.5-0.1,0.9-0.4,1.3-0.6c0.5-0.3,0.9-0.5,1.7-0.5s1.2,0.3,1.7,0.5C5.1,21.6,5.9,22,7.2,22s2-0.4,2.6-0.8
				c0.5-0.3,0.9-0.5,1.7-0.5c0.8,0,1.2,0.3,1.7,0.5c0.5,0.4,1.3,0.8,2.6,0.8s2-0.4,2.6-0.8c0.5-0.3,0.9-0.5,1.7-0.5s1.2,0.3,1.7,0.5
				C22,21.6,22.7,22,24,22s2-0.4,2.6-0.8c0.5-0.3,0.9-0.5,1.7-0.5s1.2,0.3,1.7,0.5c0.4,0.3,0.8,0.4,1.3,0.6v-2
				C31.1,19.8,30.9,19.7,30.8,19.7z"/>
			<path class="st1" d="M28.2,22.6c-1.3,0-2,0.4-2.6,0.8c-0.5,0.3-0.9,0.5-1.7,0.5c-0.8,0-1.2-0.3-1.7-0.5c-0.5-0.4-1.3-0.8-2.6-0.8
				s-2,0.4-2.6,0.8c-0.5,0.3-0.9,0.5-1.7,0.5s-1.2-0.3-1.7-0.5c-0.5-0.4-1.3-0.8-2.6-0.8s-2,0.4-2.6,0.8c-0.5,0.3-0.9,0.5-1.7,0.5
				S6,23.6,5.5,23.4C5,23,4.2,22.6,2.9,22.6s-2,0.4-2.6,0.8c-0.1,0-0.3,0.1-0.4,0.1v1.9c0.5-0.1,0.9-0.4,1.3-0.6
				c0.5-0.3,0.9-0.5,1.7-0.5s1.2,0.3,1.7,0.5c0.5,0.4,1.3,0.8,2.6,0.8s2-0.4,2.6-0.8c0.5-0.1,0.9-0.4,1.7-0.4s1.2,0.3,1.7,0.5
				c0.5,0.4,1.3,0.8,2.6,0.8s2-0.4,2.6-0.8c0.5-0.3,0.9-0.5,1.7-0.5c0.8,0,1.2,0.3,1.7,0.5c0.5,0.4,1.3,0.8,2.6,0.8s2-0.4,2.6-0.8
				c0.5-0.3,0.9-0.5,1.7-0.5s1.2,0.3,1.7,0.5c0.4,0.3,0.8,0.4,1.3,0.6v-2c-0.1,0-0.3-0.1-0.4-0.1C30.3,23,29.5,22.6,28.2,22.6z"/>
		</g>
	</g>
</g>
</svg>
