<?xml version="1.0" encoding="utf-8"?>
<!-- Generator: Adobe Illustrator 24.0.2, SVG Export Plug-In . SVG Version: 6.00 Build 0)  -->
<svg version="1.1" id="Capa_1" xmlns="http://www.w3.org/2000/svg" xmlns:xlink="http://www.w3.org/1999/xlink" x="0px" y="0px"
	 viewBox="0 0 31.2 31.2" style="enable-background:new 0 0 31.2 31.2;" xml:space="preserve">
<style type="text/css">
	.st0{clip-path:url(#SVGID_2_);}
	.st1{fill:#1F466B;}
</style>
<g>
	<g>
		<defs>
			<rect id="SVGID_1_" y="2.6" width="31.2" height="26"/>
		</defs>
		<clipPath id="SVGID_2_">
			<use xlink:href="#SVGID_1_"  style="overflow:visible;"/>
		</clipPath>
		<g class="st0">
			<path class="st1" d="M18.6,23.9c0,1.6-1.3,2.8-2.8,2.8h-1.1c-0.4,0-0.8-0.1-1.1-0.2l-10-4.4c-1.1-0.5-1.7-1.5-1.7-2.5v-3
				c0-1,0.5-1.8,1.3-2.3l3.4-2.2c0.5-0.3,0.8-0.7,1.2-1.1l4.1-5.4c0.5-0.7,1.4-1.1,2.2-1.1c1.6,0,2.8,1.3,2.8,2.8v5
				c0,0.5,0.1,1,0.2,1.5l1.4,4.4c0.1,0.3,0.1,0.6,0.1,0.9V23.9z M18.7,13.1c-0.1-0.3-0.1-0.6-0.1-0.9v-5c-0.1-2.6-2.1-4.7-4.7-4.7
				c-1.5,0-2.8,0.7-3.7,1.8L6.1,9.9c-0.2,0.3-0.4,0.5-0.7,0.7L2,12.8c-1.3,0.9-2,2.3-2,3.9v3c0,1.8,1.1,3.5,2.8,4.3l10.1,4.3
				c0.6,0.3,1.2,0.4,1.8,0.4h1.1c2.5,0,4.7-2,4.7-4.7v-5c0-0.5-0.1-1-0.2-1.5L18.7,13.1z"/>
			<path class="st1" d="M7,19.3c-0.8,0-1.4-0.6-1.4-1.4c0-0.8,0.6-1.4,1.4-1.4s1.4,0.6,1.4,1.4C8.4,18.7,7.8,19.3,7,19.3z M7,14.6
				c-1.7,0-3.2,1.5-3.2,3.3c0,1.7,1.5,3.3,3.2,3.3s3.2-1.5,3.2-3.3C10.2,16.1,8.7,14.6,7,14.6z"/>
			<path class="st1" d="M29.2,3.5v1.8c0,1.2-0.8,2.2-1.8,2.6V3.5h-1.8V8c-1.1-0.4-1.8-1.5-1.8-2.6V3.5h-1.8v1.8
				c0,2.2,1.6,4.1,3.7,4.6v17.8h1.8V10c2.1-0.4,3.7-2.3,3.7-4.6V3.5H29.2z"/>
		</g>
	</g>
</g>
</svg>
