<?xml version="1.0" encoding="utf-8"?>
<!-- Generator: Adobe Illustrator 24.0.2, SVG Export Plug-In . SVG Version: 6.00 Build 0)  -->
<svg version="1.1" id="Capa_1" xmlns="http://www.w3.org/2000/svg" xmlns:xlink="http://www.w3.org/1999/xlink" x="0px" y="0px"
	 viewBox="0 0 31.2 31.2" style="enable-background:new 0 0 31.2 31.2;" xml:space="preserve">
<style type="text/css">
	.st0{clip-path:url(#SVGID_2_);}
	.st1{fill:#1F466B;}
</style>
<g>
	<g>
		<defs>
			<rect id="SVGID_1_" x="0.7" y="5" width="29.8" height="21.1"/>
		</defs>
		<clipPath id="SVGID_2_">
			<use xlink:href="#SVGID_1_"  style="overflow:visible;"/>
		</clipPath>
		<g class="st0">
			<path class="st1" d="M14.2,24.7l1.4,1.4l1.4-1.4C16.2,24,15,24,14.2,24.7z"/>
			<path class="st1" d="M11.5,22l1.4,1.4c0.7-0.7,1.7-1.1,2.7-1.1s2,0.4,2.7,1.1l1.4-1.4c-1.1-1.1-2.5-1.7-4.1-1.7
				C14.1,20.3,12.6,20.9,11.5,22z"/>
			<path class="st1" d="M8.8,19.3l1.4,1.4c1.4-1.4,3.4-2.2,5.4-2.2s4,0.8,5.4,2.2l1.4-1.4c-1.8-1.8-4.2-2.8-6.8-2.8
				S10.6,17.5,8.8,19.3z"/>
			<path class="st1" d="M6.1,16.6L7.5,18c2.2-2.2,5.1-3.4,8.1-3.4c3.1,0,6,1.2,8.1,3.4l1.4-1.4c-2.5-2.5-5.9-3.9-9.5-3.9
				S8.6,14.1,6.1,16.6z"/>
			<path class="st1" d="M3.4,13.9l1.4,1.4c2.9-3,6.7-4.6,10.8-4.6s7.9,1.6,10.8,4.5l1.4-1.4c-3.3-3.3-7.6-5-12.2-5
				S6.7,10.6,3.4,13.9z"/>
			<path class="st1" d="M15.6,5C10,5,4.7,7.2,0.7,11.2l1.4,1.4c3.6-3.7,8.4-5.7,13.5-5.7s9.9,2,13.5,5.6l1.4-1.4
				C26.5,7.2,21.2,5,15.6,5z"/>
		</g>
	</g>
</g>
</svg>
