<?xml version="1.0" encoding="utf-8"?>
<!-- Generator: Adobe Illustrator 24.0.2, SVG Export Plug-In . SVG Version: 6.00 Build 0)  -->
<svg version="1.1" id="Capa_1" xmlns="http://www.w3.org/2000/svg" xmlns:xlink="http://www.w3.org/1999/xlink" x="0px" y="0px"
	 viewBox="0 0 120 28.3" style="enable-background:new 0 0 120 28.3;" xml:space="preserve">
<style type="text/css">
	.st0{clip-path:url(#SVGID_2_);}
	.st1{clip-path:url(#SVGID_4_);fill:#989898;}
	.st2{clip-path:url(#SVGID_6_);}
	.st3{clip-path:url(#SVGID_8_);fill:#989898;}
	.st4{clip-path:url(#SVGID_10_);}
	.st5{clip-path:url(#SVGID_12_);fill:#989898;}
	.st6{clip-path:url(#SVGID_14_);}
	.st7{clip-path:url(#SVGID_16_);fill:#989898;}
	.st8{clip-path:url(#SVGID_18_);}
	.st9{clip-path:url(#SVGID_20_);enable-background:new    ;}
	.st10{clip-path:url(#SVGID_22_);}
	.st11{clip-path:url(#SVGID_24_);}
	.st12{clip-path:url(#SVGID_26_);fill:#989898;}
</style>
<g>
	<g>
		<g>
			<g>
				<g>
					<defs>
						<path id="SVGID_1_" d="M54.2,14.5c1.2-0.2,2.8-0.8,2.8-3.2c0-2.3-1.9-3-4-3h-6.5v10.6h1.8v-4.3H52l3,4.3h2.3L54.2,14.5z
							 M48.3,12.8v-2.7h4.8c1.4,0,2.1,0.1,2.1,1.3c0,1-0.9,1.4-2,1.4C53.2,12.7,48.3,12.7,48.3,12.8z"/>
					</defs>
					<clipPath id="SVGID_2_">
						<use xlink:href="#SVGID_1_"  style="overflow:visible;"/>
					</clipPath>
					<g class="st0">
						<g>
							<g>
								<g>
									<defs>
										<rect id="SVGID_3_" x="-719.8" y="-958.8" width="1440" height="1124"/>
									</defs>
									<clipPath id="SVGID_4_">
										<use xlink:href="#SVGID_3_"  style="overflow:visible;"/>
									</clipPath>
									<rect x="41.5" y="3.3" class="st1" width="20.8" height="20.6"/>
								</g>
							</g>
						</g>
					</g>
				</g>
			</g>
		</g>
	</g>
	<g>
		<g>
			<g>
				<g>
					<defs>
						<polygon id="SVGID_5_" points="61.2,8.3 61.2,18.9 70.8,18.9 70.8,17 63,17 63,14.4 67.2,14.4 67.2,12.6 63,12.6 63,10.1 
							70.5,10.1 70.5,8.3 						"/>
					</defs>
					<clipPath id="SVGID_6_">
						<use xlink:href="#SVGID_5_"  style="overflow:visible;"/>
					</clipPath>
					<g class="st2">
						<g>
							<g>
								<g>
									<defs>
										<rect id="SVGID_7_" x="-719.8" y="-958.8" width="1440" height="1124"/>
									</defs>
									<clipPath id="SVGID_8_">
										<use xlink:href="#SVGID_7_"  style="overflow:visible;"/>
									</clipPath>
									<rect x="56.2" y="3.3" class="st3" width="19.5" height="20.6"/>
								</g>
							</g>
						</g>
					</g>
				</g>
			</g>
		</g>
	</g>
	<g>
		<g>
			<g>
				<g>
					<defs>
						<rect id="SVGID_9_" x="75.5" y="8.3" width="1.8" height="10.6"/>
					</defs>
					<clipPath id="SVGID_10_">
						<use xlink:href="#SVGID_9_"  style="overflow:visible;"/>
					</clipPath>
					<g class="st4">
						<g>
							<g>
								<g>
									<defs>
										<rect id="SVGID_11_" x="-719.8" y="-958.8" width="1440" height="1124"/>
									</defs>
									<clipPath id="SVGID_12_">
										<use xlink:href="#SVGID_11_"  style="overflow:visible;"/>
									</clipPath>
									<rect x="70.5" y="3.3" class="st5" width="11.8" height="20.6"/>
								</g>
							</g>
						</g>
					</g>
				</g>
			</g>
		</g>
	</g>
	<g>
		<g>
			<g>
				<g>
					<defs>
						<path id="SVGID_13_" d="M87.3,10.4l2.3,4.3H85L87.3,10.4z M86.4,8.3l-5.7,10.6h2l1.3-2.5h6.4l1.3,2.5h2.1L88,8.3H86.4z"/>
					</defs>
					<clipPath id="SVGID_14_">
						<use xlink:href="#SVGID_13_"  style="overflow:visible;"/>
					</clipPath>
					<g class="st6">
						<g>
							<g>
								<g>
									<defs>
										<rect id="SVGID_15_" x="-719.8" y="-958.8" width="1440" height="1124"/>
									</defs>
									<clipPath id="SVGID_16_">
										<use xlink:href="#SVGID_15_"  style="overflow:visible;"/>
									</clipPath>
									<rect x="75.7" y="3.3" class="st7" width="23.3" height="20.6"/>
								</g>
							</g>
						</g>
					</g>
				</g>
			</g>
		</g>
	</g>
	<g>
		<g>
			<g>
				<g>
					<defs>
						<rect id="SVGID_17_" x="26.2" y="8.3" width="17.1" height="13.3"/>
					</defs>
					<clipPath id="SVGID_18_">
						<use xlink:href="#SVGID_17_"  style="overflow:visible;"/>
					</clipPath>
					<g class="st8">
						<g>
							<g>
								<g>
									<defs>
										<rect id="SVGID_19_" x="-719.8" y="-958.8" width="1440" height="1124"/>
									</defs>
									<clipPath id="SVGID_20_">
										<use xlink:href="#SVGID_19_"  style="overflow:visible;"/>
									</clipPath>
									<g class="st9">
										<g>
											<g>
												<g>
													<g>
														<defs>
															<rect id="SVGID_21_" x="26.2" y="8.3" width="18" height="14"/>
														</defs>
														<clipPath id="SVGID_22_">
															<use xlink:href="#SVGID_21_"  style="overflow:visible;"/>
														</clipPath>
														<g class="st10">
															<g>
																<g>
																	<g>
																		<defs>
																			<path id="SVGID_23_" d="M37.6,8.3h-1.8L31.7,16l-0.9,1.6C30,19,29.1,20,27.1,20h-0.8l-0.1,1.5h1.2
																				c2.5,0,4.1-1.5,5.2-3.5l0.8-1.5l0.1-0.2h6.4l1.3,2.5h2.1L37.6,8.3z M39,14.7h-4.6l2.3-4.3L39,14.7z"/>
																		</defs>
																		<clipPath id="SVGID_24_">
																			<use xlink:href="#SVGID_23_"  style="overflow:visible;"/>
																		</clipPath>
																		<g class="st11">
																			<g>
																				<g>
																					<g>
																						<defs>
																							<rect id="SVGID_25_" x="26.2" y="8.3" width="18" height="14"/>
																						</defs>
																						<clipPath id="SVGID_26_">
																							<use xlink:href="#SVGID_25_"  style="overflow:visible;"/>
																						</clipPath>
																						<rect x="21.2" y="3.3" class="st12" width="27.1" height="23.3"/>
																					</g>
																				</g>
																			</g>
																		</g>
																	</g>
																</g>
															</g>
														</g>
													</g>
												</g>
											</g>
										</g>
									</g>
								</g>
							</g>
						</g>
					</g>
				</g>
			</g>
		</g>
	</g>
</g>
</svg>
