<?xml version="1.0" encoding="utf-8"?>
<!-- Generator: Adobe Illustrator 24.0.2, SVG Export Plug-In . SVG Version: 6.00 Build 0)  -->
<svg version="1.1" id="Capa_1" xmlns="http://www.w3.org/2000/svg" xmlns:xlink="http://www.w3.org/1999/xlink" x="0px" y="0px"
	 viewBox="0 0 120 45.4" style="enable-background:new 0 0 120 45.4;" xml:space="preserve">
<style type="text/css">
	.st0{clip-path:url(#SVGID_2_);}
	.st1{clip-path:url(#SVGID_4_);fill:#989898;}
	.st2{clip-path:url(#SVGID_6_);}
	.st3{clip-path:url(#SVGID_8_);fill:#989898;}
	.st4{clip-path:url(#SVGID_10_);}
	.st5{clip-path:url(#SVGID_12_);fill:#989898;}
	.st6{clip-path:url(#SVGID_14_);}
	.st7{clip-path:url(#SVGID_16_);fill:#989898;}
	.st8{clip-path:url(#SVGID_18_);}
	.st9{clip-path:url(#SVGID_20_);fill:#989898;}
	.st10{clip-path:url(#SVGID_22_);}
	.st11{clip-path:url(#SVGID_24_);fill:#989898;}
	.st12{clip-path:url(#SVGID_26_);}
	.st13{clip-path:url(#SVGID_28_);fill:#989898;}
	.st14{clip-path:url(#SVGID_30_);}
	.st15{clip-path:url(#SVGID_32_);fill:#989898;}
	.st16{clip-path:url(#SVGID_34_);}
	.st17{clip-path:url(#SVGID_36_);fill:#989898;}
	.st18{clip-path:url(#SVGID_38_);}
	.st19{clip-path:url(#SVGID_40_);fill:#989898;}
	.st20{clip-path:url(#SVGID_42_);}
	.st21{clip-path:url(#SVGID_44_);fill:#989898;}
	.st22{clip-path:url(#SVGID_46_);}
	.st23{clip-path:url(#SVGID_48_);fill:#989898;}
	.st24{clip-path:url(#SVGID_50_);}
	.st25{clip-path:url(#SVGID_52_);fill:#989898;}
	.st26{clip-path:url(#SVGID_54_);}
	.st27{clip-path:url(#SVGID_56_);fill:#989898;}
	.st28{clip-path:url(#SVGID_58_);}
	.st29{clip-path:url(#SVGID_60_);fill:#989898;}
	.st30{clip-path:url(#SVGID_62_);}
	.st31{clip-path:url(#SVGID_64_);fill:#989898;}
	.st32{clip-path:url(#SVGID_66_);}
	.st33{clip-path:url(#SVGID_68_);fill:#989898;}
	.st34{clip-path:url(#SVGID_70_);}
	.st35{clip-path:url(#SVGID_72_);fill:#989898;}
	.st36{clip-path:url(#SVGID_74_);}
	.st37{clip-path:url(#SVGID_76_);fill:#989898;}
	.st38{clip-path:url(#SVGID_78_);}
	.st39{clip-path:url(#SVGID_80_);fill:#989898;}
	.st40{clip-path:url(#SVGID_82_);}
	.st41{clip-path:url(#SVGID_84_);fill:#989898;}
</style>
<g>
	<g>
		<g>
			<g>
				<g>
					<defs>
						<rect id="SVGID_1_" x="26.3" y="11.8" width="1.6" height="12.4"/>
					</defs>
					<clipPath id="SVGID_2_">
						<use xlink:href="#SVGID_1_"  style="overflow:visible;"/>
					</clipPath>
					<g class="st0">
						<g>
							<g>
								<g>
									<defs>
										<rect id="SVGID_3_" x="-1064.8" y="-885.4" width="1440" height="1124"/>
									</defs>
									<clipPath id="SVGID_4_">
										<use xlink:href="#SVGID_3_"  style="overflow:visible;"/>
									</clipPath>
									<rect x="21.3" y="6.8" class="st1" width="11.6" height="22.4"/>
								</g>
							</g>
						</g>
					</g>
				</g>
			</g>
		</g>
	</g>
	<g>
		<g>
			<g>
				<g>
					<defs>
						<path id="SVGID_5_" d="M34.3,18.9c-0.4-0.6-0.9-1-1.6-1.3c0.4-0.3,0.7-0.7,1-1.1c0.2-0.4,0.4-0.9,0.4-1.5
							c0-0.4-0.1-0.8-0.2-1.2c-0.2-0.4-0.4-0.7-0.7-1s-0.6-0.5-1-0.7c-0.4-0.2-0.8-0.2-1.2-0.2h-2.1v1.4h1.8c0.3,0,0.5,0.1,0.8,0.2
							c0.2,0.1,0.4,0.2,0.6,0.4c0.2,0.2,0.3,0.4,0.4,0.6c0.1,0.2,0.2,0.5,0.2,0.8s-0.1,0.5-0.2,0.8c-0.1,0.2-0.2,0.4-0.4,0.6
							s-0.4,0.3-0.6,0.4s-0.5,0.2-0.8,0.2h-1.8v1.4h2.3c0.3,0,0.6,0.1,0.8,0.2c0.3,0.1,0.5,0.3,0.7,0.5s0.3,0.4,0.5,0.7
							c0.1,0.3,0.2,0.5,0.2,0.8s-0.1,0.5-0.2,0.8s-0.3,0.5-0.5,0.7s-0.4,0.3-0.7,0.5c-0.3,0.1-0.5,0.2-0.8,0.2h-2.4v1.5h2.4
							c0.5,0,1-0.1,1.4-0.3s0.8-0.4,1.2-0.8c0.3-0.3,0.6-0.7,0.8-1.1c0.2-0.4,0.3-0.9,0.3-1.3C34.9,20.1,34.7,19.4,34.3,18.9"/>
					</defs>
					<clipPath id="SVGID_6_">
						<use xlink:href="#SVGID_5_"  style="overflow:visible;"/>
					</clipPath>
					<g class="st2">
						<g>
							<g>
								<g>
									<defs>
										<rect id="SVGID_7_" x="-1064.8" y="-885.4" width="1440" height="1124"/>
									</defs>
									<clipPath id="SVGID_8_">
										<use xlink:href="#SVGID_7_"  style="overflow:visible;"/>
									</clipPath>
									<rect x="23.8" y="6.8" class="st3" width="16.1" height="22.4"/>
								</g>
							</g>
						</g>
					</g>
				</g>
			</g>
		</g>
	</g>
	<g>
		<g>
			<g>
				<g>
					<defs>
						<polygon id="SVGID_9_" points="38.1,24.2 36.4,24.2 36.4,11.8 38.1,11.9 						"/>
					</defs>
					<clipPath id="SVGID_10_">
						<use xlink:href="#SVGID_9_"  style="overflow:visible;"/>
					</clipPath>
					<g class="st4">
						<g>
							<g>
								<g>
									<defs>
										<rect id="SVGID_11_" x="-1064.8" y="-885.4" width="1440" height="1124"/>
									</defs>
									<clipPath id="SVGID_12_">
										<use xlink:href="#SVGID_11_"  style="overflow:visible;"/>
									</clipPath>
									<rect x="31.4" y="6.8" class="st5" width="11.6" height="22.4"/>
								</g>
							</g>
						</g>
					</g>
				</g>
			</g>
		</g>
	</g>
	<g>
		<g>
			<g>
				<g>
					<defs>
						<polygon id="SVGID_13_" points="73.6,24.2 72,24.2 72,11.8 73.6,11.9 						"/>
					</defs>
					<clipPath id="SVGID_14_">
						<use xlink:href="#SVGID_13_"  style="overflow:visible;"/>
					</clipPath>
					<g class="st6">
						<g>
							<g>
								<g>
									<defs>
										<rect id="SVGID_15_" x="-1064.8" y="-885.4" width="1440" height="1124"/>
									</defs>
									<clipPath id="SVGID_16_">
										<use xlink:href="#SVGID_15_"  style="overflow:visible;"/>
									</clipPath>
									<rect x="67" y="6.8" class="st7" width="11.6" height="22.4"/>
								</g>
							</g>
						</g>
					</g>
				</g>
			</g>
		</g>
	</g>
	<g>
		<g>
			<g>
				<g>
					<defs>
						<rect id="SVGID_17_" x="52.2" y="11.8" width="1.6" height="12.4"/>
					</defs>
					<clipPath id="SVGID_18_">
						<use xlink:href="#SVGID_17_"  style="overflow:visible;"/>
					</clipPath>
					<g class="st8">
						<g>
							<g>
								<g>
									<defs>
										<rect id="SVGID_19_" x="-1064.8" y="-885.4" width="1440" height="1124"/>
									</defs>
									<clipPath id="SVGID_20_">
										<use xlink:href="#SVGID_19_"  style="overflow:visible;"/>
									</clipPath>
									<rect x="47.2" y="6.8" class="st9" width="11.6" height="22.4"/>
								</g>
							</g>
						</g>
					</g>
				</g>
			</g>
		</g>
	</g>
	<g>
		<g>
			<g>
				<g>
					<defs>
						<path id="SVGID_21_" d="M57,18.8c0.4-0.1,0.8-0.2,1.2-0.4c0.4-0.2,0.7-0.5,0.9-0.8c0.3-0.3,0.5-0.7,0.6-1
							c0.1-0.4,0.2-0.8,0.2-1.2c0-0.5-0.1-0.9-0.3-1.4c-0.2-0.4-0.4-0.8-0.7-1.1c-0.3-0.3-0.7-0.6-1.1-0.7c-0.4-0.2-0.9-0.3-1.4-0.3
							h-1.7v1.4h1.6c0.3,0,0.5,0.1,0.8,0.2c0.2,0.1,0.5,0.3,0.6,0.4c0.2,0.2,0.3,0.4,0.4,0.7c0.1,0.2,0.2,0.5,0.2,0.8s0,0.5-0.1,0.8
							c-0.1,0.2-0.2,0.5-0.4,0.6c-0.2,0.2-0.4,0.3-0.6,0.5c-0.2,0.1-0.5,0.2-0.7,0.2h-1.7v1.4h0.4l4.2,5.4h1.8L57,18.8z"/>
					</defs>
					<clipPath id="SVGID_22_">
						<use xlink:href="#SVGID_21_"  style="overflow:visible;"/>
					</clipPath>
					<g class="st10">
						<g>
							<g>
								<g>
									<defs>
										<rect id="SVGID_23_" x="-1064.8" y="-885.4" width="1440" height="1124"/>
									</defs>
									<clipPath id="SVGID_24_">
										<use xlink:href="#SVGID_23_"  style="overflow:visible;"/>
									</clipPath>
									<rect x="49.8" y="6.8" class="st11" width="16.5" height="22.4"/>
								</g>
							</g>
						</g>
					</g>
				</g>
			</g>
		</g>
	</g>
	<g>
		<g>
			<g>
				<g>
					<defs>
						<path id="SVGID_25_" d="M66.9,18.8c0.4-0.1,0.8-0.2,1.2-0.4c0.4-0.2,0.7-0.5,0.9-0.8c0.3-0.3,0.5-0.7,0.6-1
							c0.1-0.4,0.2-0.8,0.2-1.2c0-0.5-0.1-0.9-0.3-1.4c-0.2-0.4-0.4-0.8-0.7-1.1c-0.3-0.3-0.7-0.6-1.1-0.7c-0.4-0.2-0.9-0.3-1.4-0.3
							h-1.7v1.4h1.6c0.3,0,0.5,0.1,0.8,0.2c0.2,0.1,0.5,0.3,0.6,0.4c0.2,0.2,0.3,0.4,0.4,0.7c0.1,0.2,0.2,0.5,0.2,0.8
							s-0.1,0.5-0.1,0.8c-0.1,0.2-0.2,0.5-0.4,0.6c-0.2,0.2-0.4,0.3-0.6,0.5c-0.2,0.1-0.5,0.2-0.7,0.2h-1.7v1.4h0.4l4.2,5.4h1.9
							L66.9,18.8z"/>
					</defs>
					<clipPath id="SVGID_26_">
						<use xlink:href="#SVGID_25_"  style="overflow:visible;"/>
					</clipPath>
					<g class="st12">
						<g>
							<g>
								<g>
									<defs>
										<rect id="SVGID_27_" x="-1064.8" y="-885.4" width="1440" height="1124"/>
									</defs>
									<clipPath id="SVGID_28_">
										<use xlink:href="#SVGID_27_"  style="overflow:visible;"/>
									</clipPath>
									<rect x="59.7" y="6.8" class="st13" width="16.5" height="22.4"/>
								</g>
							</g>
						</g>
					</g>
				</g>
			</g>
		</g>
	</g>
	<g>
		<g>
			<g>
				<g>
					<defs>
						<rect id="SVGID_29_" x="62.1" y="11.8" width="1.6" height="12.4"/>
					</defs>
					<clipPath id="SVGID_30_">
						<use xlink:href="#SVGID_29_"  style="overflow:visible;"/>
					</clipPath>
					<g class="st14">
						<g>
							<g>
								<g>
									<defs>
										<rect id="SVGID_31_" x="-1064.8" y="-885.4" width="1440" height="1124"/>
									</defs>
									<clipPath id="SVGID_32_">
										<use xlink:href="#SVGID_31_"  style="overflow:visible;"/>
									</clipPath>
									<rect x="57.1" y="6.8" class="st15" width="11.6" height="22.4"/>
								</g>
							</g>
						</g>
					</g>
				</g>
			</g>
		</g>
	</g>
	<g>
		<g>
			<g>
				<g>
					<defs>
						<rect id="SVGID_33_" x="78.6" y="14.3" width="1.6" height="10"/>
					</defs>
					<clipPath id="SVGID_34_">
						<use xlink:href="#SVGID_33_"  style="overflow:visible;"/>
					</clipPath>
					<g class="st16">
						<g>
							<g>
								<g>
									<defs>
										<rect id="SVGID_35_" x="-1064.8" y="-885.4" width="1440" height="1124"/>
									</defs>
									<clipPath id="SVGID_36_">
										<use xlink:href="#SVGID_35_"  style="overflow:visible;"/>
									</clipPath>
									<rect x="73.6" y="9.3" class="st17" width="11.6" height="20"/>
								</g>
							</g>
						</g>
					</g>
				</g>
			</g>
		</g>
	</g>
	<g>
		<g>
			<g>
				<g>
					<defs>
						<polygon id="SVGID_37_" points="75.1,11.8 75.1,13.3 83.3,13.3 83.3,13.3 83.7,13.3 83.7,11.8 						"/>
					</defs>
					<clipPath id="SVGID_38_">
						<use xlink:href="#SVGID_37_"  style="overflow:visible;"/>
					</clipPath>
					<g class="st18">
						<g>
							<g>
								<g>
									<defs>
										<rect id="SVGID_39_" x="-1064.8" y="-885.4" width="1440" height="1124"/>
									</defs>
									<clipPath id="SVGID_40_">
										<use xlink:href="#SVGID_39_"  style="overflow:visible;"/>
									</clipPath>
									<rect x="70.1" y="6.8" class="st19" width="18.6" height="11.5"/>
								</g>
							</g>
						</g>
					</g>
				</g>
			</g>
		</g>
	</g>
	<g>
		<g>
			<g>
				<g>
					<defs>
						<polygon id="SVGID_41_" points="84.9,11.9 84.9,13.3 91.1,13.3 88.4,17.6 90.1,17.6 93.7,11.9 						"/>
					</defs>
					<clipPath id="SVGID_42_">
						<use xlink:href="#SVGID_41_"  style="overflow:visible;"/>
					</clipPath>
					<g class="st20">
						<g>
							<g>
								<g>
									<defs>
										<rect id="SVGID_43_" x="-1064.8" y="-885.4" width="1440" height="1124"/>
									</defs>
									<clipPath id="SVGID_44_">
										<use xlink:href="#SVGID_43_"  style="overflow:visible;"/>
									</clipPath>
									<rect x="79.9" y="6.9" class="st21" width="18.9" height="15.7"/>
								</g>
							</g>
						</g>
					</g>
				</g>
			</g>
		</g>
	</g>
	<g>
		<g>
			<g>
				<g>
					<defs>
						<polygon id="SVGID_45_" points="87.7,18.5 84.1,24.2 93.8,24.2 93.8,22.7 86.8,22.7 89.5,18.5 						"/>
					</defs>
					<clipPath id="SVGID_46_">
						<use xlink:href="#SVGID_45_"  style="overflow:visible;"/>
					</clipPath>
					<g class="st22">
						<g>
							<g>
								<g>
									<defs>
										<rect id="SVGID_47_" x="-1064.8" y="-885.4" width="1440" height="1124"/>
									</defs>
									<clipPath id="SVGID_48_">
										<use xlink:href="#SVGID_47_"  style="overflow:visible;"/>
									</clipPath>
									<rect x="79.1" y="13.5" class="st23" width="19.7" height="15.7"/>
								</g>
							</g>
						</g>
					</g>
				</g>
			</g>
		</g>
	</g>
	<g>
		<g>
			<g>
				<g>
					<defs>
						<polygon id="SVGID_49_" points="45.1,11.6 39,24.2 40.7,24.2 45.9,13.3 						"/>
					</defs>
					<clipPath id="SVGID_50_">
						<use xlink:href="#SVGID_49_"  style="overflow:visible;"/>
					</clipPath>
					<g class="st24">
						<g>
							<g>
								<g>
									<defs>
										<rect id="SVGID_51_" x="-1064.8" y="-885.4" width="1440" height="1124"/>
									</defs>
									<clipPath id="SVGID_52_">
										<use xlink:href="#SVGID_51_"  style="overflow:visible;"/>
									</clipPath>
									<rect x="34" y="6.6" class="st25" width="16.9" height="22.6"/>
								</g>
							</g>
						</g>
					</g>
				</g>
			</g>
		</g>
	</g>
	<g>
		<g>
			<g>
				<g>
					<defs>
						<polygon id="SVGID_53_" points="46.4,14.5 45.6,16.2 47.1,19.5 44,19.5 43.3,21 47.9,21 49.4,24.2 51.1,24.2 						"/>
					</defs>
					<clipPath id="SVGID_54_">
						<use xlink:href="#SVGID_53_"  style="overflow:visible;"/>
					</clipPath>
					<g class="st26">
						<g>
							<g>
								<g>
									<defs>
										<rect id="SVGID_55_" x="-1064.8" y="-885.4" width="1440" height="1124"/>
									</defs>
									<clipPath id="SVGID_56_">
										<use xlink:href="#SVGID_55_"  style="overflow:visible;"/>
									</clipPath>
									<rect x="38.3" y="9.5" class="st27" width="17.8" height="19.8"/>
								</g>
							</g>
						</g>
					</g>
				</g>
			</g>
		</g>
	</g>
	<g>
		<g>
			<g>
				<g>
					<defs>
						<polygon id="SVGID_57_" points="29.9,28.9 28.4,32.3 26.9,28.9 26.2,28.9 28.4,33.8 30.6,28.9 						"/>
					</defs>
					<clipPath id="SVGID_58_">
						<use xlink:href="#SVGID_57_"  style="overflow:visible;"/>
					</clipPath>
					<g class="st28">
						<g>
							<g>
								<g>
									<defs>
										<rect id="SVGID_59_" x="-1064.8" y="-885.4" width="1440" height="1124"/>
									</defs>
									<clipPath id="SVGID_60_">
										<use xlink:href="#SVGID_59_"  style="overflow:visible;"/>
									</clipPath>
									<rect x="21.2" y="23.9" class="st29" width="14.4" height="14.8"/>
								</g>
							</g>
						</g>
					</g>
				</g>
			</g>
		</g>
	</g>
	<g>
		<g>
			<g>
				<g>
					<defs>
						<rect id="SVGID_61_" x="31" y="28.9" width="0.6" height="4.7"/>
					</defs>
					<clipPath id="SVGID_62_">
						<use xlink:href="#SVGID_61_"  style="overflow:visible;"/>
					</clipPath>
					<g class="st30">
						<g>
							<g>
								<g>
									<defs>
										<rect id="SVGID_63_" x="-1064.8" y="-885.4" width="1440" height="1124"/>
									</defs>
									<clipPath id="SVGID_64_">
										<use xlink:href="#SVGID_63_"  style="overflow:visible;"/>
									</clipPath>
									<rect x="26" y="23.9" class="st31" width="10.6" height="14.7"/>
								</g>
							</g>
						</g>
					</g>
				</g>
			</g>
		</g>
	</g>
	<g>
		<g>
			<g>
				<g>
					<defs>
						<polygon id="SVGID_65_" points="32.5,28.9 32.5,33.7 35.2,33.7 35.2,33.1 33.1,33.1 33.1,28.9 						"/>
					</defs>
					<clipPath id="SVGID_66_">
						<use xlink:href="#SVGID_65_"  style="overflow:visible;"/>
					</clipPath>
					<g class="st32">
						<g>
							<g>
								<g>
									<defs>
										<rect id="SVGID_67_" x="-1064.8" y="-885.4" width="1440" height="1124"/>
									</defs>
									<clipPath id="SVGID_68_">
										<use xlink:href="#SVGID_67_"  style="overflow:visible;"/>
									</clipPath>
									<rect x="27.5" y="23.9" class="st33" width="12.7" height="14.7"/>
								</g>
							</g>
						</g>
					</g>
				</g>
			</g>
		</g>
	</g>
	<g>
		<g>
			<g>
				<g>
					<defs>
						<polygon id="SVGID_69_" points="35.7,28.9 35.7,33.7 38.4,33.7 38.4,33.1 36.3,33.1 36.3,28.9 						"/>
					</defs>
					<clipPath id="SVGID_70_">
						<use xlink:href="#SVGID_69_"  style="overflow:visible;"/>
					</clipPath>
					<g class="st34">
						<g>
							<g>
								<g>
									<defs>
										<rect id="SVGID_71_" x="-1064.8" y="-885.4" width="1440" height="1124"/>
									</defs>
									<clipPath id="SVGID_72_">
										<use xlink:href="#SVGID_71_"  style="overflow:visible;"/>
									</clipPath>
									<rect x="30.7" y="23.9" class="st35" width="12.7" height="14.7"/>
								</g>
							</g>
						</g>
					</g>
				</g>
			</g>
		</g>
	</g>
	<g>
		<g>
			<g>
				<g>
					<defs>
						<path id="SVGID_73_" d="M40.8,30.2l0.8,1.7H40L40.8,30.2z M38.5,33.7h0.7l0.6-1.2h2.1l0.6,1.2h0.7l-2.3-4.8L38.5,33.7z"/>
					</defs>
					<clipPath id="SVGID_74_">
						<use xlink:href="#SVGID_73_"  style="overflow:visible;"/>
					</clipPath>
					<g class="st36">
						<g>
							<g>
								<g>
									<defs>
										<rect id="SVGID_75_" x="-1064.8" y="-885.4" width="1440" height="1124"/>
									</defs>
									<clipPath id="SVGID_76_">
										<use xlink:href="#SVGID_75_"  style="overflow:visible;"/>
									</clipPath>
									<rect x="33.5" y="23.8" class="st37" width="14.6" height="14.8"/>
								</g>
							</g>
						</g>
					</g>
				</g>
			</g>
		</g>
	</g>
	<g>
		<g>
			<g>
				<g>
					<defs>
						<path id="SVGID_77_" d="M47.4,31v2.2c-0.1,0.1-0.2,0.2-0.3,0.2c-0.1,0.1-0.3,0.1-0.4,0.2c-0.1,0.1-0.4,0.1-0.5,0.1
							c-0.2,0-0.3,0-0.4,0c-0.3,0-0.7-0.1-0.9-0.2c-0.3-0.1-0.6-0.3-0.8-0.5s-0.4-0.5-0.5-0.8s-0.2-0.6-0.2-1c0-0.3,0.1-0.7,0.2-0.9
							c0.1-0.3,0.3-0.6,0.5-0.8s0.5-0.4,0.8-0.5s0.6-0.2,0.9-0.2c0.3,0,0.6,0,0.8,0.1c0.3,0.1,0.5,0.2,0.7,0.4l-0.4,0.5
							c-0.2-0.1-0.3-0.2-0.5-0.3s-0.4-0.1-0.6-0.1c-0.3,0-0.5,0-0.7,0.1s-0.4,0.2-0.6,0.4s-0.3,0.4-0.4,0.6C44,30.7,44,31,44,31.2
							s0,0.5,0.1,0.7s0.2,0.4,0.4,0.6c0.2,0.2,0.4,0.3,0.6,0.4c0.2,0.1,0.5,0.1,0.7,0.1s0.4,0,0.6-0.1c0.2,0,0.3-0.1,0.5-0.2v-1.4
							h-1.3v-0.6h1.8C47.4,30.7,47.4,31,47.4,31z"/>
					</defs>
					<clipPath id="SVGID_78_">
						<use xlink:href="#SVGID_77_"  style="overflow:visible;"/>
					</clipPath>
					<g class="st38">
						<g>
							<g>
								<g>
									<defs>
										<rect id="SVGID_79_" x="-1064.8" y="-885.4" width="1440" height="1124"/>
									</defs>
									<clipPath id="SVGID_80_">
										<use xlink:href="#SVGID_79_"  style="overflow:visible;"/>
									</clipPath>
									<rect x="38.3" y="23.8" class="st39" width="14.1" height="14.9"/>
								</g>
							</g>
						</g>
					</g>
				</g>
			</g>
		</g>
	</g>
	<g>
		<g>
			<g>
				<g>
					<defs>
						<polygon id="SVGID_81_" points="48.1,28.9 48.1,33.7 50.9,33.7 50.9,33.1 48.7,33.1 48.7,31.5 50.5,31.5 50.5,30.9 48.7,30.9 
							48.7,29.5 50.9,29.5 50.9,28.9 						"/>
					</defs>
					<clipPath id="SVGID_82_">
						<use xlink:href="#SVGID_81_"  style="overflow:visible;"/>
					</clipPath>
					<g class="st40">
						<g>
							<g>
								<g>
									<defs>
										<rect id="SVGID_83_" x="-1064.8" y="-885.4" width="1440" height="1124"/>
									</defs>
									<clipPath id="SVGID_84_">
										<use xlink:href="#SVGID_83_"  style="overflow:visible;"/>
									</clipPath>
									<rect x="43.1" y="23.9" class="st41" width="12.7" height="14.7"/>
								</g>
							</g>
						</g>
					</g>
				</g>
			</g>
		</g>
	</g>
</g>
</svg>
