<?xml version="1.0" encoding="utf-8"?>
<!-- Generator: Adobe Illustrator 24.0.2, SVG Export Plug-In . SVG Version: 6.00 Build 0)  -->
<svg version="1.1" id="Capa_1" xmlns="http://www.w3.org/2000/svg" xmlns:xlink="http://www.w3.org/1999/xlink" x="0px" y="0px"
	 viewBox="0 0 120 39.7" style="enable-background:new 0 0 120 39.7;" xml:space="preserve">
<style type="text/css">
	.st0{clip-path:url(#SVGID_2_);}
	.st1{clip-path:url(#SVGID_4_);fill:#989898;}
	.st2{clip-path:url(#SVGID_6_);}
	.st3{clip-path:url(#SVGID_8_);fill:#989898;}
	.st4{clip-path:url(#SVGID_10_);}
	.st5{clip-path:url(#SVGID_12_);fill:#989898;}
	.st6{clip-path:url(#SVGID_14_);}
	.st7{clip-path:url(#SVGID_16_);fill:#989898;}
	.st8{clip-path:url(#SVGID_18_);}
	.st9{clip-path:url(#SVGID_20_);fill:#989898;}
	.st10{clip-path:url(#SVGID_22_);}
	.st11{clip-path:url(#SVGID_24_);enable-background:new    ;}
	.st12{clip-path:url(#SVGID_26_);}
	.st13{clip-path:url(#SVGID_28_);}
	.st14{clip-path:url(#SVGID_30_);fill:#989898;}
	.st15{clip-path:url(#SVGID_32_);}
	.st16{clip-path:url(#SVGID_34_);fill:#989898;}
	.st17{clip-path:url(#SVGID_36_);}
	.st18{clip-path:url(#SVGID_38_);fill:#989898;}
	.st19{clip-path:url(#SVGID_40_);}
	.st20{clip-path:url(#SVGID_42_);enable-background:new    ;}
	.st21{clip-path:url(#SVGID_44_);}
	.st22{clip-path:url(#SVGID_46_);}
	.st23{clip-path:url(#SVGID_48_);fill:#989898;}
	.st24{clip-path:url(#SVGID_50_);}
	.st25{clip-path:url(#SVGID_52_);fill:#989898;}
	.st26{clip-path:url(#SVGID_54_);}
	.st27{clip-path:url(#SVGID_56_);fill:#989898;}
	.st28{clip-path:url(#SVGID_58_);}
	.st29{clip-path:url(#SVGID_60_);enable-background:new    ;}
	.st30{clip-path:url(#SVGID_62_);}
	.st31{clip-path:url(#SVGID_64_);}
	.st32{clip-path:url(#SVGID_66_);fill:#989898;}
	.st33{clip-path:url(#SVGID_68_);}
	.st34{clip-path:url(#SVGID_70_);enable-background:new    ;}
	.st35{clip-path:url(#SVGID_72_);}
	.st36{clip-path:url(#SVGID_74_);}
	.st37{clip-path:url(#SVGID_76_);fill:#989898;}
	.st38{clip-path:url(#SVGID_78_);}
	.st39{clip-path:url(#SVGID_80_);fill:#989898;}
	.st40{clip-path:url(#SVGID_82_);}
	.st41{clip-path:url(#SVGID_84_);fill:#989898;}
	.st42{clip-path:url(#SVGID_86_);}
	.st43{clip-path:url(#SVGID_88_);fill:#989898;}
	.st44{clip-path:url(#SVGID_90_);}
	.st45{clip-path:url(#SVGID_92_);fill:#989898;}
</style>
<g>
	<g>
		<g>
			<g>
				<g>
					<g>
						<defs>
							<polygon id="SVGID_1_" points="54.7,14.5 54.7,25.1 56.3,25.1 56.3,23.5 56.3,16 56.3,14.5 							"/>
						</defs>
						<clipPath id="SVGID_2_">
							<use xlink:href="#SVGID_1_"  style="overflow:visible;"/>
						</clipPath>
						<g class="st0">
							<g>
								<g>
									<g>
										<g>
											<defs>
												<rect id="SVGID_3_" x="-600.8" y="-954.5" width="1440" height="1124"/>
											</defs>
											<clipPath id="SVGID_4_">
												<use xlink:href="#SVGID_3_"  style="overflow:visible;"/>
											</clipPath>
											<rect x="49.7" y="9.5" class="st1" width="11.6" height="20.5"/>
										</g>
									</g>
								</g>
							</g>
						</g>
					</g>
				</g>
			</g>
		</g>
	</g>
	<g>
		<g>
			<g>
				<g>
					<g>
						<defs>
							<polygon id="SVGID_5_" points="45.2,14.5 45.2,25.1 46.8,25.1 46.8,20.6 46.8,19.1 46.8,16 46.8,14.5 							"/>
						</defs>
						<clipPath id="SVGID_6_">
							<use xlink:href="#SVGID_5_"  style="overflow:visible;"/>
						</clipPath>
						<g class="st2">
							<g>
								<g>
									<g>
										<g>
											<defs>
												<rect id="SVGID_7_" x="-600.8" y="-954.5" width="1440" height="1124"/>
											</defs>
											<clipPath id="SVGID_8_">
												<use xlink:href="#SVGID_7_"  style="overflow:visible;"/>
											</clipPath>
											<rect x="40.2" y="9.5" class="st3" width="11.6" height="20.5"/>
										</g>
									</g>
								</g>
							</g>
						</g>
					</g>
				</g>
			</g>
		</g>
	</g>
	<g>
		<g>
			<g>
				<g>
					<g>
						<defs>
							<path id="SVGID_9_" d="M52.5,17.5c0-1-0.4-1.7-1.1-2.2c-0.6-0.5-1.3-0.7-2.2-0.7h-2V16h2c0.5,0,0.9,0.1,1.2,0.3
								c0.3,0.2,0.5,0.6,0.5,1.2c0,0.5-0.1,0.8-0.4,1.2c-0.3,0.3-0.8,0.5-1.4,0.5h-1.9v1.4h1.5l2.2,4.5h1.9l-2.5-4.7
								C51.8,19.9,52.5,18.9,52.5,17.5"/>
						</defs>
						<clipPath id="SVGID_10_">
							<use xlink:href="#SVGID_9_"  style="overflow:visible;"/>
						</clipPath>
						<g class="st4">
							<g>
								<g>
									<g>
										<g>
											<defs>
												<rect id="SVGID_11_" x="-600.8" y="-954.5" width="1440" height="1124"/>
											</defs>
											<clipPath id="SVGID_12_">
												<use xlink:href="#SVGID_11_"  style="overflow:visible;"/>
											</clipPath>
											<rect x="42.3" y="9.5" class="st5" width="15.7" height="20.5"/>
										</g>
									</g>
								</g>
							</g>
						</g>
					</g>
				</g>
			</g>
		</g>
	</g>
	<g>
		<g>
			<g>
				<g>
					<g>
						<defs>
							<path id="SVGID_13_" d="M32,19.6L32,19.6c0.3-0.2,0.6-0.3,0.8-0.5s0.4-0.3,0.5-0.5c0.2-0.4,0.3-0.8,0.3-1.2
								c0-0.8-0.3-1.5-0.8-2s-1.3-0.8-2.4-0.8h-2V16h1.8c0.6,0,1,0.2,1.3,0.4c0.3,0.3,0.4,0.7,0.4,1.1s-0.1,0.8-0.4,1.1
								c-0.3,0.2-0.7,0.4-1.3,0.4h-1.8v1.4h1.9c0.6,0,1,0.2,1.3,0.5S32,21.6,32,22s-0.1,0.8-0.4,1.1s-0.7,0.5-1.3,0.5h-1.9v1.5h2.3
								c0.8,0,1.5-0.3,2.1-0.8c0.6-0.5,0.9-1.2,0.9-2.2c0-0.5-0.1-1.1-0.4-1.5C33,20.1,32.7,19.8,32,19.6"/>
						</defs>
						<clipPath id="SVGID_14_">
							<use xlink:href="#SVGID_13_"  style="overflow:visible;"/>
						</clipPath>
						<g class="st6">
							<g>
								<g>
									<g>
										<g>
											<defs>
												<rect id="SVGID_15_" x="-600.8" y="-954.5" width="1440" height="1124"/>
											</defs>
											<clipPath id="SVGID_16_">
												<use xlink:href="#SVGID_15_"  style="overflow:visible;"/>
											</clipPath>
											<rect x="23.5" y="9.5" class="st7" width="15.3" height="20.5"/>
										</g>
									</g>
								</g>
							</g>
						</g>
					</g>
				</g>
			</g>
		</g>
	</g>
	<g>
		<g>
			<g>
				<g>
					<g>
						<defs>
							<polygon id="SVGID_17_" points="26.3,14.5 26.3,25.1 27.9,25.1 27.9,23.5 27.9,20.4 27.9,19 27.9,16 27.9,14.5 							"/>
						</defs>
						<clipPath id="SVGID_18_">
							<use xlink:href="#SVGID_17_"  style="overflow:visible;"/>
						</clipPath>
						<g class="st8">
							<g>
								<g>
									<g>
										<g>
											<defs>
												<rect id="SVGID_19_" x="-600.8" y="-954.5" width="1440" height="1124"/>
											</defs>
											<clipPath id="SVGID_20_">
												<use xlink:href="#SVGID_19_"  style="overflow:visible;"/>
											</clipPath>
											<rect x="21.3" y="9.5" class="st9" width="11.6" height="20.5"/>
										</g>
									</g>
								</g>
							</g>
						</g>
					</g>
				</g>
			</g>
		</g>
	</g>
	<g>
		<g>
			<g>
				<g>
					<g>
						<defs>
							<rect id="SVGID_21_" x="35.5" y="14.5" width="3.6" height="10.6"/>
						</defs>
						<clipPath id="SVGID_22_">
							<use xlink:href="#SVGID_21_"  style="overflow:visible;"/>
						</clipPath>
						<g class="st10">
							<g>
								<g>
									<g>
										<g>
											<defs>
												<rect id="SVGID_23_" x="-600.8" y="-954.5" width="1440" height="1124"/>
											</defs>
											<clipPath id="SVGID_24_">
												<use xlink:href="#SVGID_23_"  style="overflow:visible;"/>
											</clipPath>
											<g class="st11">
												<g>
													<g>
														<g>
															<g>
																<g>
																	<defs>
																		<rect id="SVGID_25_" x="35.3" y="14.5" width="4" height="11"/>
																	</defs>
																	<clipPath id="SVGID_26_">
																		<use xlink:href="#SVGID_25_"  style="overflow:visible;"/>
																	</clipPath>
																	<g class="st12">
																		<g>
																			<g>
																				<g>
																					<g>
																						<defs>
																							<path id="SVGID_27_" d="M39,23.5c-0.3,0-0.5-0.1-0.7-0.2c-0.3-0.1-0.5-0.3-0.7-0.5s-0.4-0.5-0.4-0.9
																								C37,21.5,37,20.8,37,19.8s0-1.7,0.1-2.1s0.2-0.6,0.4-0.9c0.2-0.2,0.4-0.4,0.7-0.5c0.2-0.1,0.4-0.2,0.7-0.2
																								v-1.6c-0.7,0-1.3,0.2-1.8,0.6c-0.6,0.4-1,0.8-1.3,1.3c-0.2,0.3-0.3,0.6-0.4,1c-0.1,0.4-0.1,1.2-0.1,2.5
																								c0,1.2,0,2,0.1,2.4c0,0.2,0.1,0.4,0.1,0.6c0.1,0.1,0.1,0.3,0.2,0.5c0.3,0.5,0.7,0.9,1.3,1.3
																								c0.5,0.3,1.1,0.5,1.8,0.6v-1.8H39z"/>
																						</defs>
																						<clipPath id="SVGID_28_">
																							<use xlink:href="#SVGID_27_"  style="overflow:visible;"/>
																						</clipPath>
																						<g class="st13">
																							<g>
																								<g>
																									<g>
																										<g>
																											<defs>
																												<rect id="SVGID_29_" x="35.3" y="14.5" width="4" height="11"/>
																											</defs>
																											<clipPath id="SVGID_30_">
																												<use xlink:href="#SVGID_29_"  style="overflow:visible;"/>
																											</clipPath>
																											<rect x="30.5" y="9.5" class="st14" width="13.6" height="20.6"/>
																										</g>
																									</g>
																								</g>
																							</g>
																						</g>
																					</g>
																				</g>
																			</g>
																		</g>
																	</g>
																</g>
															</g>
														</g>
													</g>
												</g>
											</g>
										</g>
									</g>
								</g>
							</g>
						</g>
					</g>
				</g>
			</g>
		</g>
	</g>
	<g>
		<g>
			<g>
				<g>
					<g>
						<defs>
							<rect id="SVGID_31_" x="66.4" y="19" width="3.9" height="1.4"/>
						</defs>
						<clipPath id="SVGID_32_">
							<use xlink:href="#SVGID_31_"  style="overflow:visible;"/>
						</clipPath>
						<g class="st15">
							<g>
								<g>
									<g>
										<g>
											<defs>
												<rect id="SVGID_33_" x="-600.8" y="-954.5" width="1440" height="1124"/>
											</defs>
											<clipPath id="SVGID_34_">
												<use xlink:href="#SVGID_33_"  style="overflow:visible;"/>
											</clipPath>
											<rect x="61.5" y="14" class="st16" width="13.9" height="11.4"/>
										</g>
									</g>
								</g>
							</g>
						</g>
					</g>
				</g>
			</g>
		</g>
	</g>
	<g>
		<g>
			<g>
				<g>
					<g>
						<defs>
							<path id="SVGID_35_" d="M61.7,16.3c-0.7-1.2-1.8-1.8-3.3-1.8h-1.6V16h1.5c0.8,0,1.5,0.3,1.9,0.9c0.2,0.2,0.4,0.6,0.4,1
								s0.1,1,0.1,2c0,0.9,0,1.6-0.1,1.9c0,0.3-0.2,0.6-0.3,0.9c-0.4,0.6-1.1,0.9-2,0.9h-1.4v1.5h1.5c0.8,0,1.5-0.2,2-0.5
								c0.6-0.3,1-0.7,1.3-1.2c0.1-0.2,0.2-0.4,0.3-0.5c0.1-0.2,0.1-0.4,0.2-0.6c0.1-0.6,0.1-1.4,0.1-2.5s0-1.8-0.1-2.2
								C62.2,17.1,62,16.7,61.7,16.3"/>
						</defs>
						<clipPath id="SVGID_36_">
							<use xlink:href="#SVGID_35_"  style="overflow:visible;"/>
						</clipPath>
						<g class="st17">
							<g>
								<g>
									<g>
										<g>
											<defs>
												<rect id="SVGID_37_" x="-600.8" y="-954.5" width="1440" height="1124"/>
											</defs>
											<clipPath id="SVGID_38_">
												<use xlink:href="#SVGID_37_"  style="overflow:visible;"/>
											</clipPath>
											<rect x="51.8" y="9.5" class="st18" width="15.4" height="20.5"/>
										</g>
									</g>
								</g>
							</g>
						</g>
					</g>
				</g>
			</g>
		</g>
	</g>
	<g>
		<g>
			<g>
				<g>
					<g>
						<defs>
							<rect id="SVGID_39_" x="39.5" y="14.5" width="3.5" height="10.6"/>
						</defs>
						<clipPath id="SVGID_40_">
							<use xlink:href="#SVGID_39_"  style="overflow:visible;"/>
						</clipPath>
						<g class="st19">
							<g>
								<g>
									<g>
										<g>
											<defs>
												<rect id="SVGID_41_" x="-600.8" y="-954.5" width="1440" height="1124"/>
											</defs>
											<clipPath id="SVGID_42_">
												<use xlink:href="#SVGID_41_"  style="overflow:visible;"/>
											</clipPath>
											<g class="st20">
												<g>
													<g>
														<g>
															<g>
																<g>
																	<defs>
																		<rect id="SVGID_43_" x="39.3" y="14.5" width="4" height="11"/>
																	</defs>
																	<clipPath id="SVGID_44_">
																		<use xlink:href="#SVGID_43_"  style="overflow:visible;"/>
																	</clipPath>
																	<g class="st21">
																		<g>
																			<g>
																				<g>
																					<g>
																						<defs>
																							<path id="SVGID_45_" d="M42.7,16.3c-0.3-0.5-0.7-0.9-1.2-1.3c-0.5-0.3-1.1-0.5-1.9-0.6V16
																								c0.3,0,0.5,0.1,0.7,0.2c0.3,0.1,0.5,0.3,0.6,0.5c0.2,0.2,0.4,0.5,0.4,0.9c0.1,0.4,0.1,1.1,0.1,2.1
																								s0,1.7-0.1,2.1s-0.2,0.7-0.4,0.9s-0.4,0.4-0.6,0.5s-0.5,0.2-0.7,0.2V25c0.7-0.1,1.3-0.2,1.9-0.6
																								c0.6-0.4,1-0.8,1.2-1.3c0.2-0.3,0.3-0.6,0.4-1s0.1-1.2,0.1-2.4s0-2-0.1-2.5C43,16.9,42.8,16.6,42.7,16.3"/>
																						</defs>
																						<clipPath id="SVGID_46_">
																							<use xlink:href="#SVGID_45_"  style="overflow:visible;"/>
																						</clipPath>
																						<g class="st22">
																							<g>
																								<g>
																									<g>
																										<g>
																											<defs>
																												<rect id="SVGID_47_" x="39.3" y="14.5" width="4" height="11"/>
																											</defs>
																											<clipPath id="SVGID_48_">
																												<use xlink:href="#SVGID_47_"  style="overflow:visible;"/>
																											</clipPath>
																											<rect x="34.5" y="9.5" class="st23" width="13.5" height="20.6"/>
																										</g>
																									</g>
																								</g>
																							</g>
																						</g>
																					</g>
																				</g>
																			</g>
																		</g>
																	</g>
																</g>
															</g>
														</g>
													</g>
												</g>
											</g>
										</g>
									</g>
								</g>
							</g>
						</g>
					</g>
				</g>
			</g>
		</g>
	</g>
	<g>
		<g>
			<g>
				<g>
					<g>
						<defs>
							<rect id="SVGID_49_" x="64.3" y="14.5" width="1.6" height="10.5"/>
						</defs>
						<clipPath id="SVGID_50_">
							<use xlink:href="#SVGID_49_"  style="overflow:visible;"/>
						</clipPath>
						<g class="st24">
							<g>
								<g>
									<g>
										<g>
											<defs>
												<rect id="SVGID_51_" x="-600.8" y="-954.5" width="1440" height="1124"/>
											</defs>
											<clipPath id="SVGID_52_">
												<use xlink:href="#SVGID_51_"  style="overflow:visible;"/>
											</clipPath>
											<rect x="59.3" y="9.5" class="st25" width="11.6" height="20.5"/>
										</g>
									</g>
								</g>
							</g>
						</g>
					</g>
				</g>
			</g>
		</g>
	</g>
	<g>
		<g>
			<g>
				<g>
					<g>
						<defs>
							<rect id="SVGID_53_" x="82.4" y="14.5" width="1.6" height="10.5"/>
						</defs>
						<clipPath id="SVGID_54_">
							<use xlink:href="#SVGID_53_"  style="overflow:visible;"/>
						</clipPath>
						<g class="st26">
							<g>
								<g>
									<g>
										<g>
											<defs>
												<rect id="SVGID_55_" x="-600.8" y="-954.5" width="1440" height="1124"/>
											</defs>
											<clipPath id="SVGID_56_">
												<use xlink:href="#SVGID_55_"  style="overflow:visible;"/>
											</clipPath>
											<rect x="77.4" y="9.5" class="st27" width="11.6" height="20.5"/>
										</g>
									</g>
								</g>
							</g>
						</g>
					</g>
				</g>
			</g>
		</g>
	</g>
	<g>
		<g>
			<g>
				<g>
					<g>
						<defs>
							<rect id="SVGID_57_" x="86.2" y="14.5" width="3.6" height="10.6"/>
						</defs>
						<clipPath id="SVGID_58_">
							<use xlink:href="#SVGID_57_"  style="overflow:visible;"/>
						</clipPath>
						<g class="st28">
							<g>
								<g>
									<g>
										<g>
											<defs>
												<rect id="SVGID_59_" x="-600.8" y="-954.5" width="1440" height="1124"/>
											</defs>
											<clipPath id="SVGID_60_">
												<use xlink:href="#SVGID_59_"  style="overflow:visible;"/>
											</clipPath>
											<g class="st29">
												<g>
													<g>
														<g>
															<g>
																<g>
																	<defs>
																		<rect id="SVGID_61_" x="85.3" y="14.5" width="5" height="11"/>
																	</defs>
																	<clipPath id="SVGID_62_">
																		<use xlink:href="#SVGID_61_"  style="overflow:visible;"/>
																	</clipPath>
																	<g class="st30">
																		<g>
																			<g>
																				<g>
																					<g>
																						<defs>
																							<path id="SVGID_63_" d="M89.8,23.5c-0.3,0-0.5-0.1-0.7-0.2c-0.3-0.1-0.5-0.3-0.7-0.5S88,22.3,88,21.9
																								c-0.1-0.4-0.1-1.1-0.1-2.1s0-1.7,0.1-2.1s0.2-0.6,0.4-0.9c0.2-0.2,0.4-0.4,0.7-0.5c0.2-0.1,0.4-0.2,0.7-0.2
																								v-1.6c-0.7,0-1.3,0.2-1.8,0.6c-0.6,0.4-1,0.8-1.3,1.3c-0.2,0.3-0.3,0.6-0.4,1c0,0.4-0.1,1.2-0.1,2.4
																								s0,2,0.1,2.4c0,0.2,0.1,0.4,0.1,0.6c0.1,0.1,0.1,0.3,0.2,0.5c0.3,0.5,0.7,0.9,1.3,1.3
																								c0.5,0.3,1.1,0.5,1.8,0.6L89.8,23.5L89.8,23.5z"/>
																						</defs>
																						<clipPath id="SVGID_64_">
																							<use xlink:href="#SVGID_63_"  style="overflow:visible;"/>
																						</clipPath>
																						<g class="st31">
																							<g>
																								<g>
																									<g>
																										<g>
																											<defs>
																												<rect id="SVGID_65_" x="85.3" y="14.5" width="5" height="11"/>
																											</defs>
																											<clipPath id="SVGID_66_">
																												<use xlink:href="#SVGID_65_"  style="overflow:visible;"/>
																											</clipPath>
																											<rect x="81.2" y="9.5" class="st32" width="13.6" height="20.6"/>
																										</g>
																									</g>
																								</g>
																							</g>
																						</g>
																					</g>
																				</g>
																			</g>
																		</g>
																	</g>
																</g>
															</g>
														</g>
													</g>
												</g>
											</g>
										</g>
									</g>
								</g>
							</g>
						</g>
					</g>
				</g>
			</g>
		</g>
	</g>
	<g>
		<g>
			<g>
				<g>
					<g>
						<defs>
							<rect id="SVGID_67_" x="90.3" y="14.5" width="3.5" height="10.6"/>
						</defs>
						<clipPath id="SVGID_68_">
							<use xlink:href="#SVGID_67_"  style="overflow:visible;"/>
						</clipPath>
						<g class="st33">
							<g>
								<g>
									<g>
										<g>
											<defs>
												<rect id="SVGID_69_" x="-600.8" y="-954.5" width="1440" height="1124"/>
											</defs>
											<clipPath id="SVGID_70_">
												<use xlink:href="#SVGID_69_"  style="overflow:visible;"/>
											</clipPath>
											<g class="st34">
												<g>
													<g>
														<g>
															<g>
																<g>
																	<defs>
																		<rect id="SVGID_71_" x="90.3" y="14.5" width="4" height="11"/>
																	</defs>
																	<clipPath id="SVGID_72_">
																		<use xlink:href="#SVGID_71_"  style="overflow:visible;"/>
																	</clipPath>
																	<g class="st35">
																		<g>
																			<g>
																				<g>
																					<g>
																						<defs>
																							<path id="SVGID_73_" d="M93.8,17.3c-0.1-0.4-0.2-0.7-0.4-1c-0.3-0.5-0.7-0.9-1.2-1.3
																								c-0.5-0.3-1.1-0.5-1.9-0.6V16c0.3,0,0.5,0.1,0.7,0.2c0.3,0.1,0.5,0.3,0.6,0.5c0.2,0.2,0.4,0.5,0.4,0.9
																								c0.1,0.4,0.1,1.1,0.1,2.1s0,1.7-0.1,2.1s-0.2,0.7-0.4,0.9c-0.2,0.2-0.4,0.4-0.6,0.5s-0.5,0.2-0.7,0.2V25
																								c0.7-0.1,1.3-0.2,1.9-0.6s1-0.8,1.2-1.3c0.2-0.3,0.3-0.6,0.4-1s0.1-1.2,0.1-2.4
																								C93.8,18.6,93.8,17.8,93.8,17.3"/>
																						</defs>
																						<clipPath id="SVGID_74_">
																							<use xlink:href="#SVGID_73_"  style="overflow:visible;"/>
																						</clipPath>
																						<g class="st36">
																							<g>
																								<g>
																									<g>
																										<g>
																											<defs>
																												<rect id="SVGID_75_" x="90.3" y="14.5" width="4" height="11"/>
																											</defs>
																											<clipPath id="SVGID_76_">
																												<use xlink:href="#SVGID_75_"  style="overflow:visible;"/>
																											</clipPath>
																											<rect x="85.3" y="9.5" class="st37" width="13.5" height="20.6"/>
																										</g>
																									</g>
																								</g>
																							</g>
																						</g>
																					</g>
																				</g>
																			</g>
																		</g>
																	</g>
																</g>
															</g>
														</g>
													</g>
												</g>
											</g>
										</g>
									</g>
								</g>
							</g>
						</g>
					</g>
				</g>
			</g>
		</g>
	</g>
	<g>
		<g>
			<g>
				<g>
					<g>
						<defs>
							<path id="SVGID_77_" d="M80.3,17.5c0-1-0.4-1.7-1.1-2.2c-0.6-0.5-1.3-0.7-2.2-0.7h-2V16h2c0.5,0,0.9,0.1,1.2,0.3
								c0.3,0.2,0.5,0.6,0.5,1.2c0,0.5-0.2,0.8-0.4,1.2c-0.3,0.3-0.8,0.5-1.4,0.5H75v1.4h1.5l2.2,4.5h1.9l-2.5-4.7
								C79.7,19.9,80.3,18.9,80.3,17.5"/>
						</defs>
						<clipPath id="SVGID_78_">
							<use xlink:href="#SVGID_77_"  style="overflow:visible;"/>
						</clipPath>
						<g class="st38">
							<g>
								<g>
									<g>
										<g>
											<defs>
												<rect id="SVGID_79_" x="-600.8" y="-954.5" width="1440" height="1124"/>
											</defs>
											<clipPath id="SVGID_80_">
												<use xlink:href="#SVGID_79_"  style="overflow:visible;"/>
											</clipPath>
											<rect x="70.2" y="9.5" class="st39" width="15.7" height="20.5"/>
										</g>
									</g>
								</g>
							</g>
						</g>
					</g>
				</g>
			</g>
		</g>
	</g>
	<g>
		<g>
			<g>
				<g>
					<g>
						<defs>
							<rect id="SVGID_81_" x="66.4" y="23.5" width="4.7" height="1.5"/>
						</defs>
						<clipPath id="SVGID_82_">
							<use xlink:href="#SVGID_81_"  style="overflow:visible;"/>
						</clipPath>
						<g class="st40">
							<g>
								<g>
									<g>
										<g>
											<defs>
												<rect id="SVGID_83_" x="-600.8" y="-954.5" width="1440" height="1124"/>
											</defs>
											<clipPath id="SVGID_84_">
												<use xlink:href="#SVGID_83_"  style="overflow:visible;"/>
											</clipPath>
											<rect x="61.5" y="18.5" class="st41" width="14.7" height="11.5"/>
										</g>
									</g>
								</g>
							</g>
						</g>
					</g>
				</g>
			</g>
		</g>
	</g>
	<g>
		<g>
			<g>
				<g>
					<g>
						<defs>
							<rect id="SVGID_85_" x="66.4" y="14.5" width="4.7" height="1.5"/>
						</defs>
						<clipPath id="SVGID_86_">
							<use xlink:href="#SVGID_85_"  style="overflow:visible;"/>
						</clipPath>
						<g class="st42">
							<g>
								<g>
									<g>
										<g>
											<defs>
												<rect id="SVGID_87_" x="-600.8" y="-954.5" width="1440" height="1124"/>
											</defs>
											<clipPath id="SVGID_88_">
												<use xlink:href="#SVGID_87_"  style="overflow:visible;"/>
											</clipPath>
											<rect x="61.5" y="9.5" class="st43" width="14.7" height="11.5"/>
										</g>
									</g>
								</g>
							</g>
						</g>
					</g>
				</g>
			</g>
		</g>
	</g>
	<g>
		<g>
			<g>
				<g>
					<g>
						<defs>
							<polygon id="SVGID_89_" points="72.9,14.5 72.9,25.1 74.6,25.1 74.6,20.6 74.6,19.1 74.6,16 74.6,14.5 							"/>
						</defs>
						<clipPath id="SVGID_90_">
							<use xlink:href="#SVGID_89_"  style="overflow:visible;"/>
						</clipPath>
						<g class="st44">
							<g>
								<g>
									<g>
										<g>
											<defs>
												<rect id="SVGID_91_" x="-600.8" y="-954.5" width="1440" height="1124"/>
											</defs>
											<clipPath id="SVGID_92_">
												<use xlink:href="#SVGID_91_"  style="overflow:visible;"/>
											</clipPath>
											<rect x="67.9" y="9.5" class="st45" width="11.6" height="20.5"/>
										</g>
									</g>
								</g>
							</g>
						</g>
					</g>
				</g>
			</g>
		</g>
	</g>
</g>
</svg>
