<?xml version="1.0" encoding="utf-8"?>
<!-- Generator: Adobe Illustrator 23.0.0, SVG Export Plug-In . SVG Version: 6.00 Build 0)  -->
<svg version="1.1" id="Capa_1" xmlns="http://www.w3.org/2000/svg" xmlns:xlink="http://www.w3.org/1999/xlink" x="0px" y="0px"
	 viewBox="0 0 127.6 68" style="enable-background:new 0 0 127.6 68;" xml:space="preserve">
<style type="text/css">
	.st0{clip-path:url(#SVGID_2_);}
	.st1{clip-path:url(#SVGID_4_);fill:#989898;}
	.st2{clip-path:url(#SVGID_6_);}
	.st3{clip-path:url(#SVGID_8_);fill:#989898;}
	.st4{clip-path:url(#SVGID_10_);}
	.st5{clip-path:url(#SVGID_12_);fill:#989898;}
	.st6{clip-path:url(#SVGID_14_);}
	.st7{clip-path:url(#SVGID_16_);fill:#989898;}
	.st8{clip-path:url(#SVGID_18_);}
	.st9{clip-path:url(#SVGID_20_);fill:#989898;}
	.st10{clip-path:url(#SVGID_22_);}
	.st11{clip-path:url(#SVGID_24_);fill:#989898;}
	.st12{clip-path:url(#SVGID_26_);}
	.st13{clip-path:url(#SVGID_28_);fill:#989898;}
	.st14{clip-path:url(#SVGID_30_);}
	.st15{clip-path:url(#SVGID_32_);fill:#989898;}
	.st16{clip-path:url(#SVGID_34_);}
	.st17{clip-path:url(#SVGID_36_);fill:#989898;}
	.st18{clip-path:url(#SVGID_38_);}
	.st19{clip-path:url(#SVGID_40_);fill:#989898;}
	.st20{clip-path:url(#SVGID_42_);}
	.st21{clip-path:url(#SVGID_44_);enable-background:new    ;}
	.st22{clip-path:url(#SVGID_46_);}
	.st23{clip-path:url(#SVGID_48_);}
	.st24{clip-path:url(#SVGID_50_);fill:#989898;}
</style>
<g>
	<g>
		<g>
			<g>
				<g>
					<g>
						<defs>
							<polygon id="SVGID_1_" points="42.5,18.6 42.5,26.9 47.3,26.9 47.3,25.7 43.6,25.7 43.6,22.8 46.7,22.8 46.7,21.6 43.6,21.6 
								43.6,19.6 47.3,19.6 47.3,18.6 							"/>
						</defs>
						<clipPath id="SVGID_2_">
							<use xlink:href="#SVGID_1_"  style="overflow:visible;"/>
						</clipPath>
						<g class="st0">
							<g>
								<g>
									<g>
										<g>
											<defs>
												<rect id="SVGID_3_" x="-1441.9" y="-1312.1" width="2140.7" height="1671"/>
											</defs>
											<clipPath id="SVGID_4_">
												<use xlink:href="#SVGID_3_"  style="overflow:visible;"/>
											</clipPath>
											<rect x="35" y="11.1" class="st1" width="19.6" height="23.2"/>
										</g>
									</g>
								</g>
							</g>
						</g>
					</g>
				</g>
			</g>
		</g>
	</g>
	<g>
		<g>
			<g>
				<g>
					<g>
						<defs>
							<polygon id="SVGID_5_" points="49.3,18.6 49.3,26.9 52.7,26.9 52.7,25.7 50.6,25.7 50.6,18.6 							"/>
						</defs>
						<clipPath id="SVGID_6_">
							<use xlink:href="#SVGID_5_"  style="overflow:visible;"/>
						</clipPath>
						<g class="st2">
							<g>
								<g>
									<g>
										<g>
											<defs>
												<rect id="SVGID_7_" x="-1441.9" y="-1312.1" width="2140.7" height="1671"/>
											</defs>
											<clipPath id="SVGID_8_">
												<use xlink:href="#SVGID_7_"  style="overflow:visible;"/>
											</clipPath>
											<rect x="41.9" y="11.1" class="st3" width="18.1" height="23.2"/>
										</g>
									</g>
								</g>
							</g>
						</g>
					</g>
				</g>
			</g>
		</g>
	</g>
	<g>
		<g>
			<g>
				<g>
					<g>
						<defs>
							<polygon id="SVGID_9_" points="57.8,28.9 50.4,44.6 44.1,28.9 42.5,28.9 39.1,49.4 41.1,49.4 43.5,33.6 49.3,48.5 50.9,48.5 
								57.7,33.6 60,49.4 62,49.4 59.3,28.9 							"/>
						</defs>
						<clipPath id="SVGID_10_">
							<use xlink:href="#SVGID_9_"  style="overflow:visible;"/>
						</clipPath>
						<g class="st4">
							<g>
								<g>
									<g>
										<g>
											<defs>
												<rect id="SVGID_11_" x="-1441.9" y="-1312.1" width="2140.7" height="1671"/>
											</defs>
											<clipPath id="SVGID_12_">
												<use xlink:href="#SVGID_11_"  style="overflow:visible;"/>
											</clipPath>
											<rect x="31.6" y="21.6" class="st5" width="37.7" height="35.2"/>
										</g>
									</g>
								</g>
							</g>
						</g>
					</g>
				</g>
			</g>
		</g>
	</g>
	<g>
		<g>
			<g>
				<g>
					<g>
						<defs>
							<polygon id="SVGID_13_" points="85,28.9 85,49.4 94.5,49.4 94.5,47.6 86.7,47.6 86.7,39.3 93.6,39.3 93.6,37.3 86.7,37.3 
								86.7,31 94.5,31 94.5,28.9 							"/>
						</defs>
						<clipPath id="SVGID_14_">
							<use xlink:href="#SVGID_13_"  style="overflow:visible;"/>
						</clipPath>
						<g class="st6">
							<g>
								<g>
									<g>
										<g>
											<defs>
												<rect id="SVGID_15_" x="-1441.9" y="-1312.1" width="2140.7" height="1671"/>
											</defs>
											<clipPath id="SVGID_16_">
												<use xlink:href="#SVGID_15_"  style="overflow:visible;"/>
											</clipPath>
											<rect x="77.5" y="21.6" class="st7" width="24.4" height="35.2"/>
										</g>
									</g>
								</g>
							</g>
						</g>
					</g>
				</g>
			</g>
		</g>
	</g>
	<g>
		<g>
			<g>
				<g>
					<g>
						<defs>
							<polygon id="SVGID_17_" points="108.8,28.9 108.8,49.4 113.8,49.4 113.8,47.6 110.6,47.6 110.6,31 110.6,28.9 							"/>
						</defs>
						<clipPath id="SVGID_18_">
							<use xlink:href="#SVGID_17_"  style="overflow:visible;"/>
						</clipPath>
						<g class="st8">
							<g>
								<g>
									<g>
										<g>
											<defs>
												<rect id="SVGID_19_" x="-1441.9" y="-1312.1" width="2140.7" height="1671"/>
											</defs>
											<clipPath id="SVGID_20_">
												<use xlink:href="#SVGID_19_"  style="overflow:visible;"/>
											</clipPath>
											<rect x="101.4" y="21.6" class="st9" width="19.6" height="35.2"/>
										</g>
									</g>
								</g>
							</g>
						</g>
					</g>
				</g>
			</g>
		</g>
	</g>
	<g>
		<g>
			<g>
				<g>
					<g>
						<defs>
							<polygon id="SVGID_21_" points="99.3,28.9 99.3,49.4 104,49.4 104,47.6 101.1,47.6 101.1,31 101.1,28.9 							"/>
						</defs>
						<clipPath id="SVGID_22_">
							<use xlink:href="#SVGID_21_"  style="overflow:visible;"/>
						</clipPath>
						<g class="st10">
							<g>
								<g>
									<g>
										<g>
											<defs>
												<rect id="SVGID_23_" x="-1441.9" y="-1312.1" width="2140.7" height="1671"/>
											</defs>
											<clipPath id="SVGID_24_">
												<use xlink:href="#SVGID_23_"  style="overflow:visible;"/>
											</clipPath>
											<rect x="91.9" y="21.6" class="st11" width="19.6" height="35.2"/>
										</g>
									</g>
								</g>
							</g>
						</g>
					</g>
				</g>
			</g>
		</g>
	</g>
	<g>
		<g>
			<g>
				<g>
					<g>
						<defs>
							<polygon id="SVGID_25_" points="116.4,28.9 116.4,49.4 125.9,49.4 125.9,47.6 118.2,47.6 118.2,39.3 125.2,39.3 125.2,37.3 
								118.2,37.3 118.2,31 125.9,31 125.9,28.9 							"/>
						</defs>
						<clipPath id="SVGID_26_">
							<use xlink:href="#SVGID_25_"  style="overflow:visible;"/>
						</clipPath>
						<g class="st12">
							<g>
								<g>
									<g>
										<g>
											<defs>
												<rect id="SVGID_27_" x="-1441.9" y="-1312.1" width="2140.7" height="1671"/>
											</defs>
											<clipPath id="SVGID_28_">
												<use xlink:href="#SVGID_27_"  style="overflow:visible;"/>
											</clipPath>
											<rect x="109" y="21.6" class="st13" width="24.4" height="35.2"/>
										</g>
									</g>
								</g>
							</g>
						</g>
					</g>
				</g>
			</g>
		</g>
	</g>
	<g>
		<g>
			<g>
				<g>
					<g>
						<defs>
							<path id="SVGID_29_" d="M79.1,28.9v12.6c0,2.3-1.2,6.3-6.3,6.3c-5.1,0-6.3-3.8-6.3-6.3V28.9h-2v12.6c0,5.1,3.7,7.7,8.2,7.9
								l0,0h0.1H73l0,0c4.7-0.1,8.2-2.6,8.2-7.9V28.9C81.2,28.9,79.1,28.9,79.1,28.9z"/>
						</defs>
						<clipPath id="SVGID_30_">
							<use xlink:href="#SVGID_29_"  style="overflow:visible;"/>
						</clipPath>
						<g class="st14">
							<g>
								<g>
									<g>
										<g>
											<defs>
												<rect id="SVGID_31_" x="-1441.9" y="-1312.1" width="2140.7" height="1671"/>
											</defs>
											<clipPath id="SVGID_32_">
												<use xlink:href="#SVGID_31_"  style="overflow:visible;"/>
											</clipPath>
											<rect x="57.1" y="21.6" class="st15" width="31.6" height="35.4"/>
										</g>
									</g>
								</g>
							</g>
						</g>
					</g>
				</g>
			</g>
		</g>
	</g>
	<g>
		<g>
			<g>
				<g>
					<g>
						<defs>
							<path id="SVGID_33_" d="M10.6,47.8c1.9,0.9,3.9,1.3,6.3,1.3c2.2,0,4.2-0.4,6.3-1.3H10.6z"/>
						</defs>
						<clipPath id="SVGID_34_">
							<use xlink:href="#SVGID_33_"  style="overflow:visible;"/>
						</clipPath>
						<g class="st16">
							<g>
								<g>
									<g>
										<g>
											<defs>
												<rect id="SVGID_35_" x="-1441.9" y="-1312.1" width="2140.7" height="1671"/>
											</defs>
											<clipPath id="SVGID_36_">
												<use xlink:href="#SVGID_35_"  style="overflow:visible;"/>
											</clipPath>
											<rect x="3.2" y="40.3" class="st17" width="27.5" height="16.2"/>
										</g>
									</g>
								</g>
							</g>
						</g>
					</g>
				</g>
			</g>
		</g>
	</g>
	<g>
		<g>
			<g>
				<g>
					<g>
						<defs>
							<path id="SVGID_37_" d="M4.5,42.5c1,1.3,2.2,2.6,3.5,3.5h17.8c1.3-1,2.5-2.2,3.5-3.5H4.5z"/>
						</defs>
						<clipPath id="SVGID_38_">
							<use xlink:href="#SVGID_37_"  style="overflow:visible;"/>
						</clipPath>
						<g class="st18">
							<g>
								<g>
									<g>
										<g>
											<defs>
												<rect id="SVGID_39_" x="-1441.9" y="-1312.1" width="2140.7" height="1671"/>
											</defs>
											<clipPath id="SVGID_40_">
												<use xlink:href="#SVGID_39_"  style="overflow:visible;"/>
											</clipPath>
											<rect x="-3" y="35.1" class="st19" width="39.9" height="18.4"/>
										</g>
									</g>
								</g>
							</g>
						</g>
					</g>
				</g>
			</g>
		</g>
	</g>
	<g>
		<g>
			<g>
				<g>
					<g>
						<defs>
							<rect id="SVGID_41_" x="1.7" y="18.4" width="30.7" height="22.7"/>
						</defs>
						<clipPath id="SVGID_42_">
							<use xlink:href="#SVGID_41_"  style="overflow:visible;"/>
						</clipPath>
						<g class="st20">
							<g>
								<g>
									<g>
										<g>
											<defs>
												<rect id="SVGID_43_" x="-1441.9" y="-1312.1" width="2140.7" height="1671"/>
											</defs>
											<clipPath id="SVGID_44_">
												<use xlink:href="#SVGID_43_"  style="overflow:visible;"/>
											</clipPath>
											<g class="st21">
												<g>
													<g>
														<g>
															<g>
																<g>
																	<defs>
																		<rect id="SVGID_45_" x="1.7" y="18.4" width="31.3" height="23.8"/>
																	</defs>
																	<clipPath id="SVGID_46_">
																		<use xlink:href="#SVGID_45_"  style="overflow:visible;"/>
																	</clipPath>
																	<g class="st22">
																		<g>
																			<g>
																				<g>
																					<g>
																						<defs>
																							<path id="SVGID_47_" d="M16.9,18.4c-8.5,0-15.3,6.9-15.3,15.3c0,2.6,0.7,5.3,1.9,7.3c0.1,0,0.1,0,0.3,0H30
																								c0.1,0,0.1,0,0.3,0c1.2-2.2,1.9-4.7,1.9-7.3C32.2,25.3,25.4,18.4,16.9,18.4 M16.7,28.1H17
																								c0.1,0,0.1,0.1,0.1,0.1c0,0.1-0.1,0.1-0.1,0.1h-0.3c-0.1,0-0.1-0.1-0.1-0.1C16.4,28.2,16.6,28.1,16.7,28.1
																								 M15.7,29.2h2.3c0.1,0,0.3,0.1,0.3,0.3c0,0.1-0.1,0.3-0.3,0.3h-2.3c-0.1,0-0.3-0.1-0.3-0.3
																								C15.4,29.4,15.6,29.2,15.7,29.2 M13.1,31.1h7.7c0.1,0,0.4,0.1,0.4,0.4c0,0.1-0.1,0.4-0.4,0.4h-7.7
																								c-0.1,0-0.4-0.1-0.4-0.4S12.8,31.1,13.1,31.1 M10.5,33.5h13.2c0.1,0,0.4,0.1,0.4,0.4c0,0.1-0.1,0.4-0.4,0.4
																								H10.5c-0.1,0-0.4-0.1-0.4-0.4C10,33.6,10.2,33.5,10.5,33.5 M27,38.3H7c-0.3,0-0.6-0.3-0.6-0.6
																								c0-0.3,0.3-0.6,0.6-0.6h19.9c0.3,0,0.6,0.3,0.6,0.6C27.4,38,27.3,38.3,27,38.3"/>
																						</defs>
																						<clipPath id="SVGID_48_">
																							<use xlink:href="#SVGID_47_"  style="overflow:visible;"/>
																						</clipPath>
																						<g class="st23">
																							<g>
																								<g>
																									<g>
																										<g>
																											<defs>
																												<rect id="SVGID_49_" x="1.7" y="18.4" width="31.3" height="23.8"/>
																											</defs>
																											<clipPath id="SVGID_50_">
																												<use xlink:href="#SVGID_49_"  style="overflow:visible;"/>
																											</clipPath>
																											<rect x="-5.8" y="11" class="st24" width="45.5" height="37.4"/>
																										</g>
																									</g>
																								</g>
																							</g>
																						</g>
																					</g>
																				</g>
																			</g>
																		</g>
																	</g>
																</g>
															</g>
														</g>
													</g>
												</g>
											</g>
										</g>
									</g>
								</g>
							</g>
						</g>
					</g>
				</g>
			</g>
		</g>
	</g>
</g>
</svg>
