<?xml version="1.0" encoding="utf-8"?>
<!-- Generator: Adobe Illustrator 24.0.2, SVG Export Plug-In . SVG Version: 6.00 Build 0)  -->
<svg version="1.1" id="Capa_1" xmlns="http://www.w3.org/2000/svg" xmlns:xlink="http://www.w3.org/1999/xlink" x="0px" y="0px"
	 viewBox="0 0 120 39.7" style="enable-background:new 0 0 120 39.7;" xml:space="preserve">
<style type="text/css">
	.st0{clip-path:url(#SVGID_2_);}
	.st1{clip-path:url(#SVGID_4_);fill:#989898;}
	.st2{clip-path:url(#SVGID_6_);}
	.st3{clip-path:url(#SVGID_8_);fill:#989898;}
	.st4{clip-path:url(#SVGID_10_);}
	.st5{clip-path:url(#SVGID_12_);fill:#989898;}
	.st6{clip-path:url(#SVGID_14_);}
	.st7{clip-path:url(#SVGID_16_);fill:#989898;}
	.st8{clip-path:url(#SVGID_18_);}
	.st9{clip-path:url(#SVGID_20_);fill:#989898;}
	.st10{clip-path:url(#SVGID_22_);}
	.st11{clip-path:url(#SVGID_24_);fill:#989898;}
</style>
<g>
	<g>
		<g>
			<g>
				<g>
					<g>
						<defs>
							<polygon id="SVGID_1_" points="31.7,14 31.7,25.6 32.9,25.6 32.9,19.8 36.8,19.8 36.8,18.6 32.9,18.6 32.9,15.2 36.9,15.2 
								36.9,14 							"/>
						</defs>
						<clipPath id="SVGID_2_">
							<use xlink:href="#SVGID_1_"  style="overflow:visible;"/>
						</clipPath>
						<g class="st0">
							<g>
								<g>
									<g>
										<g>
											<defs>
												<rect id="SVGID_3_" x="-1118.3" y="-833.6" width="1358.4" height="1060.3"/>
											</defs>
											<clipPath id="SVGID_4_">
												<use xlink:href="#SVGID_3_"  style="overflow:visible;"/>
											</clipPath>
											<rect x="27" y="9.2" class="st1" width="14.7" height="21.1"/>
										</g>
									</g>
								</g>
							</g>
						</g>
					</g>
				</g>
			</g>
		</g>
	</g>
	<g>
		<g>
			<g>
				<g>
					<g>
						<defs>
							<path id="SVGID_5_" d="M40.4,19.3h0.4c1.5,0,2.9-0.3,2.9-2.1c0-1.9-1.4-2.1-2.9-2.1h-0.4V19.3z M40.4,25.6h-1.3V14h1.7
								c2.2,0,4.2,0.6,4.2,3.2c0,1.8-1.1,3-2.9,3.2l3.7,5.2h-1.6l-3.5-5.1h-0.3C40.4,20.5,40.4,25.6,40.4,25.6z"/>
						</defs>
						<clipPath id="SVGID_6_">
							<use xlink:href="#SVGID_5_"  style="overflow:visible;"/>
						</clipPath>
						<g class="st2">
							<g>
								<g>
									<g>
										<g>
											<defs>
												<rect id="SVGID_7_" x="-1118.3" y="-833.6" width="1358.4" height="1060.3"/>
											</defs>
											<clipPath id="SVGID_8_">
												<use xlink:href="#SVGID_7_"  style="overflow:visible;"/>
											</clipPath>
											<rect x="34.3" y="9.2" class="st3" width="16.2" height="21.1"/>
										</g>
									</g>
								</g>
							</g>
						</g>
					</g>
				</g>
			</g>
		</g>
	</g>
	<g>
		<g>
			<g>
				<g>
					<g>
						<defs>
							<polygon id="SVGID_9_" points="47.5,14 47.5,25.6 53.5,25.6 53.5,24.4 48.8,24.4 48.8,19.8 53.4,19.8 53.4,18.6 48.8,18.6 
								48.8,15.2 53.5,15.2 53.5,14 							"/>
						</defs>
						<clipPath id="SVGID_10_">
							<use xlink:href="#SVGID_9_"  style="overflow:visible;"/>
						</clipPath>
						<g class="st4">
							<g>
								<g>
									<g>
										<g>
											<defs>
												<rect id="SVGID_11_" x="-1118.3" y="-833.6" width="1358.4" height="1060.3"/>
											</defs>
											<clipPath id="SVGID_12_">
												<use xlink:href="#SVGID_11_"  style="overflow:visible;"/>
											</clipPath>
											<rect x="42.7" y="9.2" class="st5" width="15.5" height="21.1"/>
										</g>
									</g>
								</g>
							</g>
						</g>
					</g>
				</g>
			</g>
		</g>
	</g>
	<g>
		<g>
			<g>
				<g>
					<g>
						<defs>
							<polygon id="SVGID_13_" points="55.8,13.5 55.8,25.6 57,25.6 57,16.6 66.2,26.1 66.2,14 64.9,14 64.9,23 							"/>
						</defs>
						<clipPath id="SVGID_14_">
							<use xlink:href="#SVGID_13_"  style="overflow:visible;"/>
						</clipPath>
						<g class="st6">
							<g>
								<g>
									<g>
										<g>
											<defs>
												<rect id="SVGID_15_" x="-1118.3" y="-833.6" width="1358.4" height="1060.3"/>
											</defs>
											<clipPath id="SVGID_16_">
												<use xlink:href="#SVGID_15_"  style="overflow:visible;"/>
											</clipPath>
											<rect x="51" y="8.8" class="st7" width="19.8" height="22.2"/>
										</g>
									</g>
								</g>
							</g>
						</g>
					</g>
				</g>
			</g>
		</g>
	</g>
	<g>
		<g>
			<g>
				<g>
					<g>
						<defs>
							<path id="SVGID_17_" d="M77.5,16.5c-0.9-0.9-2.2-1.5-3.6-1.5c-2.6,0-4.7,2.3-4.7,4.8s2.1,4.8,4.7,4.8c1.3,0,2.6-0.7,3.5-1.5
								v1.6c-1,0.8-2.3,1.1-3.5,1.1c-3.3,0-6-2.6-6-5.9s2.7-6,6-6c1.3,0,2.5,0.4,3.5,1.1L77.5,16.5C77.4,16.5,77.5,16.5,77.5,16.5z"
								/>
						</defs>
						<clipPath id="SVGID_18_">
							<use xlink:href="#SVGID_17_"  style="overflow:visible;"/>
						</clipPath>
						<g class="st8">
							<g>
								<g>
									<g>
										<g>
											<defs>
												<rect id="SVGID_19_" x="-1118.3" y="-833.6" width="1358.4" height="1060.3"/>
											</defs>
											<clipPath id="SVGID_20_">
												<use xlink:href="#SVGID_19_"  style="overflow:visible;"/>
											</clipPath>
											<rect x="63.2" y="9" class="st9" width="19" height="21.5"/>
										</g>
									</g>
								</g>
							</g>
						</g>
					</g>
				</g>
			</g>
		</g>
	</g>
	<g>
		<g>
			<g>
				<g>
					<g>
						<defs>
							<polygon id="SVGID_21_" points="87.1,14 87.1,18.7 81.1,18.7 81.1,14 79.7,14 79.7,25.6 81.1,25.6 81.1,19.9 87.1,19.9 
								87.1,25.6 88.4,25.6 88.4,14 							"/>
						</defs>
						<clipPath id="SVGID_22_">
							<use xlink:href="#SVGID_21_"  style="overflow:visible;"/>
						</clipPath>
						<g class="st10">
							<g>
								<g>
									<g>
										<g>
											<defs>
												<rect id="SVGID_23_" x="-1118.3" y="-833.6" width="1358.4" height="1060.3"/>
											</defs>
											<clipPath id="SVGID_24_">
												<use xlink:href="#SVGID_23_"  style="overflow:visible;"/>
											</clipPath>
											<rect x="75" y="9.2" class="st11" width="18" height="21.1"/>
										</g>
									</g>
								</g>
							</g>
						</g>
					</g>
				</g>
			</g>
		</g>
	</g>
</g>
</svg>
