<?xml version="1.0" encoding="utf-8"?>
<!-- Generator: Adobe Illustrator 24.0.2, SVG Export Plug-In . SVG Version: 6.00 Build 0)  -->
<svg version="1.1" id="Capa_1" xmlns="http://www.w3.org/2000/svg" xmlns:xlink="http://www.w3.org/1999/xlink" x="0px" y="0px"
	 viewBox="0 0 120 39.7" style="enable-background:new 0 0 120 39.7;" xml:space="preserve">
<style type="text/css">
	.st0{clip-path:url(#SVGID_2_);}
	.st1{clip-path:url(#SVGID_4_);fill:#989898;}
	.st2{clip-path:url(#SVGID_6_);}
	.st3{clip-path:url(#SVGID_8_);fill:#989898;}
	.st4{clip-path:url(#SVGID_10_);}
	.st5{clip-path:url(#SVGID_12_);enable-background:new    ;}
	.st6{clip-path:url(#SVGID_14_);}
	.st7{clip-path:url(#SVGID_16_);}
	.st8{clip-path:url(#SVGID_18_);fill:#989898;}
	.st9{clip-path:url(#SVGID_20_);}
	.st10{clip-path:url(#SVGID_22_);fill:#989898;}
	.st11{clip-path:url(#SVGID_24_);}
	.st12{clip-path:url(#SVGID_26_);fill:#989898;}
	.st13{clip-path:url(#SVGID_28_);}
	.st14{clip-path:url(#SVGID_30_);enable-background:new    ;}
	.st15{clip-path:url(#SVGID_32_);}
	.st16{clip-path:url(#SVGID_34_);}
	.st17{clip-path:url(#SVGID_36_);fill:#989898;}
	.st18{clip-path:url(#SVGID_38_);}
	.st19{clip-path:url(#SVGID_40_);fill:#989898;}
	.st20{clip-path:url(#SVGID_42_);}
	.st21{clip-path:url(#SVGID_44_);fill:#989898;}
	.st22{clip-path:url(#SVGID_46_);}
	.st23{clip-path:url(#SVGID_48_);fill:#989898;}
</style>
<g>
	<g>
		<g>
			<g>
				<g>
					<g>
						<defs>
							<rect id="SVGID_1_" x="23.1" y="13.4" width="1.7" height="12.7"/>
						</defs>
						<clipPath id="SVGID_2_">
							<use xlink:href="#SVGID_1_"  style="overflow:visible;"/>
						</clipPath>
						<g class="st0">
							<g>
								<g>
									<g>
										<g>
											<defs>
												<rect id="SVGID_3_" x="-1045.4" y="-1181" width="1774.7" height="1385.3"/>
											</defs>
											<clipPath id="SVGID_4_">
												<use xlink:href="#SVGID_3_"  style="overflow:visible;"/>
											</clipPath>
											<rect x="17" y="7.2" class="st1" width="14" height="25"/>
										</g>
									</g>
								</g>
							</g>
						</g>
					</g>
				</g>
			</g>
		</g>
	</g>
	<g>
		<g>
			<g>
				<g>
					<g>
						<defs>
							<polygon id="SVGID_5_" points="40,13.4 40,26.2 47.7,26.2 47.7,24.7 41.8,24.7 41.8,20.2 47.1,20.2 47.1,18.8 41.8,18.8 
								41.8,14.8 47.3,14.8 47.3,13.4 							"/>
						</defs>
						<clipPath id="SVGID_6_">
							<use xlink:href="#SVGID_5_"  style="overflow:visible;"/>
						</clipPath>
						<g class="st2">
							<g>
								<g>
									<g>
										<g>
											<defs>
												<rect id="SVGID_7_" x="-1045.4" y="-1181" width="1774.7" height="1385.3"/>
											</defs>
											<clipPath id="SVGID_8_">
												<use xlink:href="#SVGID_7_"  style="overflow:visible;"/>
											</clipPath>
											<rect x="33.9" y="7.2" class="st3" width="20" height="25"/>
										</g>
									</g>
								</g>
							</g>
						</g>
					</g>
				</g>
			</g>
		</g>
	</g>
	<g>
		<g>
			<g>
				<g>
					<g>
						<defs>
							<rect id="SVGID_9_" x="49.9" y="13.3" width="8.6" height="12.9"/>
						</defs>
						<clipPath id="SVGID_10_">
							<use xlink:href="#SVGID_9_"  style="overflow:visible;"/>
						</clipPath>
						<g class="st4">
							<g>
								<g>
									<g>
										<g>
											<defs>
												<rect id="SVGID_11_" x="-1045.4" y="-1181" width="1774.7" height="1385.3"/>
											</defs>
											<clipPath id="SVGID_12_">
												<use xlink:href="#SVGID_11_"  style="overflow:visible;"/>
											</clipPath>
											<g class="st5">
												<g>
													<g>
														<g>
															<g>
																<g>
																	<defs>
																		<rect id="SVGID_13_" x="49" y="13.3" width="9.9" height="13.6"/>
																	</defs>
																	<clipPath id="SVGID_14_">
																		<use xlink:href="#SVGID_13_"  style="overflow:visible;"/>
																	</clipPath>
																	<g class="st6">
																		<g>
																			<g>
																				<g>
																					<g>
																						<defs>
																							<path id="SVGID_15_" d="M51.7,24.9c0.4,0,0.9,0.1,1.5,0.1c1.8,0,3.5-0.6,3.5-2.5c0-1.7-1.6-2.5-3.6-2.5h-1.5
																								v4.8h0.1V24.9z M51.7,18.8h1.6c1.8,0,3-0.9,3-2.1c0-1.5-1.2-2.1-3-2.1c-0.9,0-1.2,0-1.6,0.1V18.8z
																								 M49.9,13.5c0.7-0.1,2-0.2,3.2-0.2c1.7,0,2.8,0.2,3.7,1c0.7,0.5,1.1,1.2,1.1,2.2c0,1.2-0.9,2.3-2.3,2.8l0,0
																								c1.2,0.2,2.8,1.4,2.8,3.2c0,1.1-0.5,2-1.1,2.6c-1,0.9-2.5,1.2-4.7,1.2c-1.2,0-2.1-0.1-2.7-0.1V13.5z"/>
																						</defs>
																						<clipPath id="SVGID_16_">
																							<use xlink:href="#SVGID_15_"  style="overflow:visible;"/>
																						</clipPath>
																						<g class="st7">
																							<g>
																								<g>
																									<g>
																										<g>
																											<defs>
																												<rect id="SVGID_17_" x="49" y="13.3" width="9.9" height="13.6"/>
																											</defs>
																											<clipPath id="SVGID_18_">
																												<use xlink:href="#SVGID_17_"  style="overflow:visible;"/>
																											</clipPath>
																											<rect x="43.7" y="7.1" class="st8" width="21" height="25.3"/>
																										</g>
																									</g>
																								</g>
																							</g>
																						</g>
																					</g>
																				</g>
																			</g>
																		</g>
																	</g>
																</g>
															</g>
														</g>
													</g>
												</g>
											</g>
										</g>
									</g>
								</g>
							</g>
						</g>
					</g>
				</g>
			</g>
		</g>
	</g>
	<g>
		<g>
			<g>
				<g>
					<g>
						<defs>
							<path id="SVGID_19_" d="M67.5,20.9l-1.4-3.7c-0.2-0.9-0.5-1.6-0.7-2.3l0,0c-0.2,0.7-0.4,1.5-0.7,2.3l-1.4,3.7H67.5z
								 M63.1,22.2l-1.4,4.1h-1.8l4.7-12.7h2.1l4.7,12.7h-1.8L68,22.2H63.1z"/>
						</defs>
						<clipPath id="SVGID_20_">
							<use xlink:href="#SVGID_19_"  style="overflow:visible;"/>
						</clipPath>
						<g class="st9">
							<g>
								<g>
									<g>
										<g>
											<defs>
												<rect id="SVGID_21_" x="-1045.4" y="-1181" width="1774.7" height="1385.3"/>
											</defs>
											<clipPath id="SVGID_22_">
												<use xlink:href="#SVGID_21_"  style="overflow:visible;"/>
											</clipPath>
											<rect x="53.7" y="7.2" class="st10" width="23.7" height="25"/>
										</g>
									</g>
								</g>
							</g>
						</g>
					</g>
				</g>
			</g>
		</g>
	</g>
	<g>
		<g>
			<g>
				<g>
					<g>
						<defs>
							<path id="SVGID_23_" d="M73.2,26.2V13.4h2l4.3,6.4c1,1.5,1.8,2.8,2.5,4.2l0,0c-0.1-1.7-0.2-3.2-0.2-5.3v-5.3h1.6v12.7h-1.7
								l-4.3-6.5c-1-1.4-1.8-2.8-2.6-4.3l0,0c0.1,1.6,0.1,3.1,0.1,5.3V26h-1.6v0.2H73.2z"/>
						</defs>
						<clipPath id="SVGID_24_">
							<use xlink:href="#SVGID_23_"  style="overflow:visible;"/>
						</clipPath>
						<g class="st11">
							<g>
								<g>
									<g>
										<g>
											<defs>
												<rect id="SVGID_25_" x="-1045.4" y="-1181" width="1774.7" height="1385.3"/>
											</defs>
											<clipPath id="SVGID_26_">
												<use xlink:href="#SVGID_25_"  style="overflow:visible;"/>
											</clipPath>
											<rect x="67" y="7.2" class="st12" width="22.6" height="25"/>
										</g>
									</g>
								</g>
							</g>
						</g>
					</g>
				</g>
			</g>
		</g>
	</g>
	<g>
		<g>
			<g>
				<g>
					<g>
						<defs>
							<rect id="SVGID_27_" x="85.5" y="13.4" width="11.3" height="12.7"/>
						</defs>
						<clipPath id="SVGID_28_">
							<use xlink:href="#SVGID_27_"  style="overflow:visible;"/>
						</clipPath>
						<g class="st13">
							<g>
								<g>
									<g>
										<g>
											<defs>
												<rect id="SVGID_29_" x="-1045.4" y="-1181" width="1774.7" height="1385.3"/>
											</defs>
											<clipPath id="SVGID_30_">
												<use xlink:href="#SVGID_29_"  style="overflow:visible;"/>
											</clipPath>
											<g class="st14">
												<g>
													<g>
														<g>
															<g>
																<g>
																	<defs>
																		<rect id="SVGID_31_" x="84.8" y="13.3" width="12.3" height="13.6"/>
																	</defs>
																	<clipPath id="SVGID_32_">
																		<use xlink:href="#SVGID_31_"  style="overflow:visible;"/>
																	</clipPath>
																	<g class="st15">
																		<g>
																			<g>
																				<g>
																					<g>
																						<defs>
																							<path id="SVGID_33_" d="M93.2,20.9l-1.4-3.7c-0.2-0.9-0.5-1.6-0.7-2.3l0,0c-0.2,0.7-0.4,1.5-0.7,2.3L89,20.9
																								H93.2z M88.7,22.2l-1.4,4.1h-1.8l4.7-12.7h2.1L97,26.2h-1.8l-1.6-4.1L88.7,22.2L88.7,22.2z"/>
																						</defs>
																						<clipPath id="SVGID_34_">
																							<use xlink:href="#SVGID_33_"  style="overflow:visible;"/>
																						</clipPath>
																						<g class="st16">
																							<g>
																								<g>
																									<g>
																										<g>
																											<defs>
																												<rect id="SVGID_35_" x="84.8" y="13.3" width="12.3" height="13.6"/>
																											</defs>
																											<clipPath id="SVGID_36_">
																												<use xlink:href="#SVGID_35_"  style="overflow:visible;"/>
																											</clipPath>
																											<rect x="79.3" y="7.2" class="st17" width="23.7" height="25"/>
																										</g>
																									</g>
																								</g>
																							</g>
																						</g>
																					</g>
																				</g>
																			</g>
																		</g>
																	</g>
																</g>
															</g>
														</g>
													</g>
												</g>
											</g>
										</g>
									</g>
								</g>
							</g>
						</g>
					</g>
				</g>
			</g>
		</g>
	</g>
	<g>
		<g>
			<g>
				<g>
					<g>
						<defs>
							<rect id="SVGID_37_" x="26.8" y="13.4" width="1.7" height="12.7"/>
						</defs>
						<clipPath id="SVGID_38_">
							<use xlink:href="#SVGID_37_"  style="overflow:visible;"/>
						</clipPath>
						<g class="st18">
							<g>
								<g>
									<g>
										<g>
											<defs>
												<rect id="SVGID_39_" x="-1045.4" y="-1181" width="1774.7" height="1385.3"/>
											</defs>
											<clipPath id="SVGID_40_">
												<use xlink:href="#SVGID_39_"  style="overflow:visible;"/>
											</clipPath>
											<rect x="20.7" y="7.2" class="st19" width="14" height="25"/>
										</g>
									</g>
								</g>
							</g>
						</g>
					</g>
				</g>
			</g>
		</g>
	</g>
	<g>
		<g>
			<g>
				<g>
					<g>
						<defs>
							<path id="SVGID_41_" d="M28.3,19.4c0,0,3.2-5.2,7-5.9c0.4,0,1.8,0,2.1,0c0.2,0.1,0.4,0.7-0.4,1c-0.7,0.4-1.8,0.2-4.2,1.8
								c-0.4,0.2-3.3,2.2-3.8,3c-0.5,0.7-1,0.4-1,0.4L28.3,19.4z"/>
						</defs>
						<clipPath id="SVGID_42_">
							<use xlink:href="#SVGID_41_"  style="overflow:visible;"/>
						</clipPath>
						<g class="st20">
							<g>
								<g>
									<g>
										<g>
											<defs>
												<rect id="SVGID_43_" x="-1045.4" y="-1181" width="1774.7" height="1385.3"/>
											</defs>
											<clipPath id="SVGID_44_">
												<use xlink:href="#SVGID_43_"  style="overflow:visible;"/>
											</clipPath>
											<rect x="21.8" y="7.4" class="st21" width="21.9" height="18.9"/>
										</g>
									</g>
								</g>
							</g>
						</g>
					</g>
				</g>
			</g>
		</g>
	</g>
	<g>
		<g>
			<g>
				<g>
					<g>
						<defs>
							<path id="SVGID_45_" d="M30.5,19.8c0,0,0.4,1.1,1.4,2.2c1,1.1,2.5,2.6,4.6,3.2c0.6,0.1,1.2,0.7,0.6,0.9
								c-0.7,0.1-1.7,0-1.8-0.1c-0.7-0.2-1.8-0.7-2.7-1.8c-0.9-1-2.1-3.1-2.2-3.6C30.2,20.1,30.3,19.4,30.5,19.8"/>
						</defs>
						<clipPath id="SVGID_46_">
							<use xlink:href="#SVGID_45_"  style="overflow:visible;"/>
						</clipPath>
						<g class="st22">
							<g>
								<g>
									<g>
										<g>
											<defs>
												<rect id="SVGID_47_" x="-1045.4" y="-1181" width="1774.7" height="1385.3"/>
											</defs>
											<clipPath id="SVGID_48_">
												<use xlink:href="#SVGID_47_"  style="overflow:visible;"/>
											</clipPath>
											<rect x="24.1" y="13.5" class="st23" width="19.5" height="18.7"/>
										</g>
									</g>
								</g>
							</g>
						</g>
					</g>
				</g>
			</g>
		</g>
	</g>
</g>
</svg>
