<?xml version="1.0" encoding="utf-8"?>
<!-- Generator: Adobe Illustrator 24.0.2, SVG Export Plug-In . SVG Version: 6.00 Build 0)  -->
<svg version="1.1" id="Capa_1" xmlns="http://www.w3.org/2000/svg" xmlns:xlink="http://www.w3.org/1999/xlink" x="0px" y="0px"
	 viewBox="0 0 120 39.7" style="enable-background:new 0 0 120 39.7;" xml:space="preserve">
<style type="text/css">
	.st0{clip-path:url(#SVGID_2_);}
	.st1{clip-path:url(#SVGID_4_);fill:#989898;}
	.st2{clip-path:url(#SVGID_6_);}
	.st3{clip-path:url(#SVGID_8_);fill:#989898;}
	.st4{clip-path:url(#SVGID_10_);}
	.st5{clip-path:url(#SVGID_12_);fill:#989898;}
	.st6{clip-path:url(#SVGID_14_);}
	.st7{clip-path:url(#SVGID_16_);fill:#989898;}
	.st8{clip-path:url(#SVGID_18_);}
	.st9{clip-path:url(#SVGID_20_);fill:#989898;}
	.st10{clip-path:url(#SVGID_22_);}
	.st11{clip-path:url(#SVGID_24_);fill:#989898;}
	.st12{clip-path:url(#SVGID_26_);}
	.st13{clip-path:url(#SVGID_28_);fill:#989898;}
	.st14{clip-path:url(#SVGID_30_);}
	.st15{clip-path:url(#SVGID_32_);fill:#989898;}
	.st16{clip-path:url(#SVGID_34_);}
	.st17{clip-path:url(#SVGID_36_);fill:#989898;}
	.st18{clip-path:url(#SVGID_38_);}
	.st19{clip-path:url(#SVGID_40_);fill:#989898;}
	.st20{clip-path:url(#SVGID_42_);}
	.st21{clip-path:url(#SVGID_44_);fill:#989898;}
	.st22{clip-path:url(#SVGID_46_);}
	.st23{clip-path:url(#SVGID_48_);fill:#989898;}
	.st24{clip-path:url(#SVGID_50_);}
	.st25{clip-path:url(#SVGID_52_);fill:#989898;}
	.st26{clip-path:url(#SVGID_54_);}
	.st27{clip-path:url(#SVGID_56_);fill:#989898;}
	.st28{clip-path:url(#SVGID_58_);}
	.st29{clip-path:url(#SVGID_60_);fill:#989898;}
</style>
<g>
	<g>
		<g>
			<g>
				<g>
					<g>
						<defs>
							<path id="SVGID_1_" d="M44.7,31.6h-0.9v1.5h0.9c0.5,0,0.9-0.4,0.9-0.8C45.7,31.9,45.3,31.6,44.7,31.6 M44.7,33.9h-0.9v1.4H43
								v-4.4h1.7c1,0,1.6,0.5,1.6,1.4C46.5,33.3,45.7,33.9,44.7,33.9"/>
						</defs>
						<clipPath id="SVGID_2_">
							<use xlink:href="#SVGID_1_"  style="overflow:visible;"/>
						</clipPath>
						<g class="st0">
							<g>
								<g>
									<g>
										<g>
											<defs>
												<rect id="SVGID_3_" x="-643.2" y="-794.2" width="1299.1" height="1014"/>
											</defs>
											<clipPath id="SVGID_4_">
												<use xlink:href="#SVGID_3_"  style="overflow:visible;"/>
											</clipPath>
											<rect x="38.5" y="26.4" class="st1" width="12.4" height="13.4"/>
										</g>
									</g>
								</g>
							</g>
						</g>
					</g>
				</g>
			</g>
		</g>
	</g>
	<g>
		<g>
			<g>
				<g>
					<g>
						<defs>
							<path id="SVGID_5_" d="M49.3,31.8l0.7,1.7h-1.5L49.3,31.8z M49,30.8l-1.9,4.4h0.8l0.5-1.1h2.1l0.5,1.1h0.8l-2-4.4H49z"/>
						</defs>
						<clipPath id="SVGID_6_">
							<use xlink:href="#SVGID_5_"  style="overflow:visible;"/>
						</clipPath>
						<g class="st2">
							<g>
								<g>
									<g>
										<g>
											<defs>
												<rect id="SVGID_7_" x="-643.2" y="-794.2" width="1299.1" height="1014"/>
											</defs>
											<clipPath id="SVGID_8_">
												<use xlink:href="#SVGID_7_"  style="overflow:visible;"/>
											</clipPath>
											<rect x="42.5" y="26.3" class="st3" width="13.6" height="13.4"/>
										</g>
									</g>
								</g>
							</g>
						</g>
					</g>
				</g>
			</g>
		</g>
	</g>
	<g>
		<g>
			<g>
				<g>
					<g>
						<defs>
							<path id="SVGID_9_" d="M54.9,31.6h-1.1V33h1.1c0.5,0,0.9-0.3,0.9-0.7C55.8,31.8,55.4,31.6,54.9,31.6z M55.8,35.2l-1.1-1.5h-1
								v1.5H53v-4.4h2c1,0,1.6,0.5,1.6,1.4c0,0.7-0.5,1.2-1.1,1.4l1.2,1.6H55.8C55.8,35.1,55.8,35.2,55.8,35.2z"/>
						</defs>
						<clipPath id="SVGID_10_">
							<use xlink:href="#SVGID_9_"  style="overflow:visible;"/>
						</clipPath>
						<g class="st4">
							<g>
								<g>
									<g>
										<g>
											<defs>
												<rect id="SVGID_11_" x="-643.2" y="-794.2" width="1299.1" height="1014"/>
											</defs>
											<clipPath id="SVGID_12_">
												<use xlink:href="#SVGID_11_"  style="overflow:visible;"/>
											</clipPath>
											<rect x="48.5" y="26.4" class="st5" width="12.7" height="13.4"/>
										</g>
									</g>
								</g>
							</g>
						</g>
					</g>
				</g>
			</g>
		</g>
	</g>
	<g>
		<g>
			<g>
				<g>
					<g>
						<defs>
							<path id="SVGID_13_" d="M60.2,33.8l0.5-0.5l0.7,0.7c0.2-0.3,0.2-0.5,0.2-0.8c0-0.9-0.6-1.5-1.5-1.5s-1.4,0.7-1.4,1.5
								c0,0.9,0.6,1.5,1.5,1.5c0.3,0,0.5-0.1,0.7-0.2L60.2,33.8z M62.5,34.9L62,35.4l-0.5-0.5c-0.4,0.3-0.8,0.5-1.4,0.5
								c-1.4,0-2.3-1-2.3-2.3c0-1.3,1-2.3,2.3-2.3c1.4,0,2.3,1,2.3,2.3c0,0.5-0.2,1-0.5,1.4L62.5,34.9z"/>
						</defs>
						<clipPath id="SVGID_14_">
							<use xlink:href="#SVGID_13_"  style="overflow:visible;"/>
						</clipPath>
						<g class="st6">
							<g>
								<g>
									<g>
										<g>
											<defs>
												<rect id="SVGID_15_" x="-643.2" y="-794.2" width="1299.1" height="1014"/>
											</defs>
											<clipPath id="SVGID_16_">
												<use xlink:href="#SVGID_15_"  style="overflow:visible;"/>
											</clipPath>
											<rect x="53.4" y="26.3" class="st7" width="13.6" height="13.6"/>
										</g>
									</g>
								</g>
							</g>
						</g>
					</g>
				</g>
			</g>
		</g>
	</g>
	<g>
		<g>
			<g>
				<g>
					<g>
						<defs>
							<path id="SVGID_17_" d="M67.8,33.3c0,1.3-0.7,2-1.9,2S64,34.7,64,33.4v-2.5h0.8v2.4c0,0.8,0.5,1.3,1.1,1.3
								c0.7,0,1.1-0.5,1.1-1.3v-2.5h0.8V33.3z"/>
						</defs>
						<clipPath id="SVGID_18_">
							<use xlink:href="#SVGID_17_"  style="overflow:visible;"/>
						</clipPath>
						<g class="st8">
							<g>
								<g>
									<g>
										<g>
											<defs>
												<rect id="SVGID_19_" x="-643.2" y="-794.2" width="1299.1" height="1014"/>
											</defs>
											<clipPath id="SVGID_20_">
												<use xlink:href="#SVGID_19_"  style="overflow:visible;"/>
											</clipPath>
											<rect x="59.5" y="26.4" class="st9" width="12.8" height="13.4"/>
										</g>
									</g>
								</g>
							</g>
						</g>
					</g>
				</g>
			</g>
		</g>
	</g>
	<g>
		<g>
			<g>
				<g>
					<g>
						<defs>
							<polygon id="SVGID_21_" points="69.5,30.9 69.5,35.2 72.7,35.2 72.7,34.6 70.2,34.6 70.2,33.4 72.4,33.4 72.4,32.7 
								70.2,32.7 70.2,31.5 72.7,31.5 72.7,30.9 							"/>
						</defs>
						<clipPath id="SVGID_22_">
							<use xlink:href="#SVGID_21_"  style="overflow:visible;"/>
						</clipPath>
						<g class="st10">
							<g>
								<g>
									<g>
										<g>
											<defs>
												<rect id="SVGID_23_" x="-643.2" y="-794.2" width="1299.1" height="1014"/>
											</defs>
											<clipPath id="SVGID_24_">
												<use xlink:href="#SVGID_23_"  style="overflow:visible;"/>
											</clipPath>
											<rect x="65" y="26.4" class="st11" width="12.3" height="13.4"/>
										</g>
									</g>
								</g>
							</g>
						</g>
					</g>
				</g>
			</g>
		</g>
	</g>
	<g>
		<g>
			<g>
				<g>
					<g>
						<defs>
							<path id="SVGID_25_" d="M76,32.7c0.9,0.3,1.4,0.5,1.4,1.3s-0.6,1.4-1.5,1.4c-0.6,0-1.3-0.3-1.8-0.7l0.5-0.5
								c0.5,0.4,0.8,0.5,1.4,0.5c0.5,0,0.8-0.2,0.8-0.5c0-0.4-0.2-0.5-1-0.6c-0.9-0.3-1.4-0.5-1.4-1.4c0-0.7,0.6-1.3,1.5-1.3
								c0.6,0,1.2,0.2,1.6,0.5L77,31.9c-0.5-0.3-0.9-0.4-1.4-0.4s-0.7,0.3-0.7,0.5C74.9,32.3,75.1,32.5,76,32.7"/>
						</defs>
						<clipPath id="SVGID_26_">
							<use xlink:href="#SVGID_25_"  style="overflow:visible;"/>
						</clipPath>
						<g class="st12">
							<g>
								<g>
									<g>
										<g>
											<defs>
												<rect id="SVGID_27_" x="-643.2" y="-794.2" width="1299.1" height="1014"/>
											</defs>
											<clipPath id="SVGID_28_">
												<use xlink:href="#SVGID_27_"  style="overflow:visible;"/>
											</clipPath>
											<rect x="69.5" y="26.3" class="st13" width="12.4" height="13.5"/>
										</g>
									</g>
								</g>
							</g>
						</g>
					</g>
				</g>
			</g>
		</g>
	</g>
	<g>
		<g>
			<g>
				<g>
					<g>
						<defs>
							<rect id="SVGID_29_" x="28.1" y="17.9" width="1.9" height="8.8"/>
						</defs>
						<clipPath id="SVGID_30_">
							<use xlink:href="#SVGID_29_"  style="overflow:visible;"/>
						</clipPath>
						<g class="st14">
							<g>
								<g>
									<g>
										<g>
											<defs>
												<rect id="SVGID_31_" x="-643.2" y="-794.2" width="1299.1" height="1014"/>
											</defs>
											<clipPath id="SVGID_32_">
												<use xlink:href="#SVGID_31_"  style="overflow:visible;"/>
											</clipPath>
											<rect x="23.6" y="13.4" class="st15" width="10.9" height="17.8"/>
										</g>
									</g>
								</g>
							</g>
						</g>
					</g>
				</g>
			</g>
		</g>
	</g>
	<g>
		<g>
			<g>
				<g>
					<g>
						<defs>
							<polygon id="SVGID_33_" points="39.5,26.7 35.3,21.1 35.3,26.7 33.4,26.7 33.4,17.9 35.2,17.9 39.3,23.2 39.3,17.9 
								41.1,17.9 41.1,26.7 							"/>
						</defs>
						<clipPath id="SVGID_34_">
							<use xlink:href="#SVGID_33_"  style="overflow:visible;"/>
						</clipPath>
						<g class="st16">
							<g>
								<g>
									<g>
										<g>
											<defs>
												<rect id="SVGID_35_" x="-643.2" y="-794.2" width="1299.1" height="1014"/>
											</defs>
											<clipPath id="SVGID_36_">
												<use xlink:href="#SVGID_35_"  style="overflow:visible;"/>
											</clipPath>
											<rect x="28.9" y="13.4" class="st17" width="16.8" height="17.8"/>
										</g>
									</g>
								</g>
							</g>
						</g>
					</g>
				</g>
			</g>
		</g>
	</g>
	<g>
		<g>
			<g>
				<g>
					<g>
						<defs>
							<path id="SVGID_37_" d="M50.5,22.2c0-1.5-1.1-2.6-2.6-2.6h-1.4v5.2h1.4C49.4,24.9,50.5,23.9,50.5,22.2L50.5,22.2z M47.9,26.7
								h-3.4v-8.8h3.4c2.7,0,4.6,1.9,4.6,4.3l0,0C52.5,24.8,50.6,26.7,47.9,26.7z"/>
						</defs>
						<clipPath id="SVGID_38_">
							<use xlink:href="#SVGID_37_"  style="overflow:visible;"/>
						</clipPath>
						<g class="st18">
							<g>
								<g>
									<g>
										<g>
											<defs>
												<rect id="SVGID_39_" x="-643.2" y="-794.2" width="1299.1" height="1014"/>
											</defs>
											<clipPath id="SVGID_40_">
												<use xlink:href="#SVGID_39_"  style="overflow:visible;"/>
											</clipPath>
											<rect x="40" y="13.4" class="st19" width="17.1" height="17.8"/>
										</g>
									</g>
								</g>
							</g>
						</g>
					</g>
				</g>
			</g>
		</g>
	</g>
	<g>
		<g>
			<g>
				<g>
					<g>
						<defs>
							<rect id="SVGID_41_" x="55.6" y="17.9" width="1.9" height="8.8"/>
						</defs>
						<clipPath id="SVGID_42_">
							<use xlink:href="#SVGID_41_"  style="overflow:visible;"/>
						</clipPath>
						<g class="st20">
							<g>
								<g>
									<g>
										<g>
											<defs>
												<rect id="SVGID_43_" x="-643.2" y="-794.2" width="1299.1" height="1014"/>
											</defs>
											<clipPath id="SVGID_44_">
												<use xlink:href="#SVGID_43_"  style="overflow:visible;"/>
											</clipPath>
											<rect x="51.1" y="13.4" class="st21" width="10.9" height="17.8"/>
										</g>
									</g>
								</g>
							</g>
						</g>
					</g>
				</g>
			</g>
		</g>
	</g>
	<g>
		<g>
			<g>
				<g>
					<g>
						<defs>
							<path id="SVGID_45_" d="M64.8,20.2L63.6,23H66L64.8,20.2z M67.4,26.7l-0.8-2h-3.7l-0.8,2h-1.9l3.7-8.8h1.8l3.7,8.8H67.4z"/>
						</defs>
						<clipPath id="SVGID_46_">
							<use xlink:href="#SVGID_45_"  style="overflow:visible;"/>
						</clipPath>
						<g class="st22">
							<g>
								<g>
									<g>
										<g>
											<defs>
												<rect id="SVGID_47_" x="-643.2" y="-794.2" width="1299.1" height="1014"/>
											</defs>
											<clipPath id="SVGID_48_">
												<use xlink:href="#SVGID_47_"  style="overflow:visible;"/>
											</clipPath>
											<rect x="55.7" y="13.3" class="st23" width="18.2" height="17.8"/>
										</g>
									</g>
								</g>
							</g>
						</g>
					</g>
				</g>
			</g>
		</g>
	</g>
	<g>
		<g>
			<g>
				<g>
					<g>
						<defs>
							<polygon id="SVGID_49_" points="78.1,26.7 73.9,21.1 73.9,26.7 72,26.7 72,17.9 73.8,17.9 77.9,23.2 77.9,17.9 79.8,17.9 
								79.8,26.7 							"/>
						</defs>
						<clipPath id="SVGID_50_">
							<use xlink:href="#SVGID_49_"  style="overflow:visible;"/>
						</clipPath>
						<g class="st24">
							<g>
								<g>
									<g>
										<g>
											<defs>
												<rect id="SVGID_51_" x="-643.2" y="-794.2" width="1299.1" height="1014"/>
											</defs>
											<clipPath id="SVGID_52_">
												<use xlink:href="#SVGID_51_"  style="overflow:visible;"/>
											</clipPath>
											<rect x="67.5" y="13.4" class="st25" width="16.8" height="17.8"/>
										</g>
									</g>
								</g>
							</g>
						</g>
					</g>
				</g>
			</g>
		</g>
	</g>
	<g>
		<g>
			<g>
				<g>
					<g>
						<defs>
							<path id="SVGID_53_" d="M90,22.2c0-1.5-1.1-2.7-2.6-2.7s-2.6,1.3-2.6,2.7l0,0c0,1.5,1.1,2.7,2.6,2.7
								C88.9,24.9,90,23.8,90,22.2L90,22.2z M87.3,26.7c-2.7,0-4.6-2-4.6-4.5l0,0c0-2.4,2-4.5,4.7-4.5s4.6,2,4.6,4.5l0,0
								C91.9,24.8,90,26.7,87.3,26.7z"/>
						</defs>
						<clipPath id="SVGID_54_">
							<use xlink:href="#SVGID_53_"  style="overflow:visible;"/>
						</clipPath>
						<g class="st26">
							<g>
								<g>
									<g>
										<g>
											<defs>
												<rect id="SVGID_55_" x="-643.2" y="-794.2" width="1299.1" height="1014"/>
											</defs>
											<clipPath id="SVGID_56_">
												<use xlink:href="#SVGID_55_"  style="overflow:visible;"/>
											</clipPath>
											<rect x="78.2" y="13.2" class="st27" width="18.3" height="18"/>
										</g>
									</g>
								</g>
							</g>
						</g>
					</g>
				</g>
			</g>
		</g>
	</g>
	<g>
		<g>
			<g>
				<g>
					<g>
						<defs>
							<path id="SVGID_57_" d="M63.3,10.2c-0.8,0.1-1.4,0.5-2.3,1.2c0.5-1,1.7-1.6,3.2-1.6c3,0,4.5-2.2,3.7-4.8v0.1
								c0.4,1.2-0.4,2.4-1.3,3.2C67,7.2,67.3,6.7,67.1,6c-0.2-1.2-1.3-1.9-2-1.6c0.3,0.3,0.4,0.5,0.4,0.6c-0.1,0.7-0.1,1.1,0.5,1.5
								c0.8,0.7,0.6,2-0.1,2.3C65.7,8.9,65.5,9,65.4,9c0.7-1.4,0-2.2-0.4-2.4c-0.6-0.4-1.2-0.1-1.4,0.2c-0.2,0.2-0.3,0.5-0.2,0.7
								c0.4,0.6,1.3,0.4,1-0.4c1.2,0.1,1.4,2-0.3,2c-1.5,0-2.9,1-3.5,2.2V8.8c0-0.5,0.7-0.7,0.7-1.4c0-0.7-0.7-1.1-0.7-1.4l0,0
								c0-0.1-0.1-0.1-0.1-0.1c-0.1,0-0.1,0-0.1,0.1l0,0c0,0.5-0.6,0.7-0.7,1.4c0,0.7,0.7,1.1,0.7,1.4v2.6c-0.5-1.3-1.9-2.3-3.5-2.3
								s-1.4-1.9-0.3-2c-0.2,0.7,0.7,1,1,0.4c0.1-0.3,0-0.5-0.2-0.7c-0.3-0.3-0.8-0.6-1.4-0.2c-0.5,0.3-1.2,1.1-0.4,2.4
								c-0.2-0.1-0.4-0.1-0.5-0.2c-0.7-0.4-0.9-1.6-0.1-2.3C55.5,6,55.5,5.6,55.5,5c0-0.1,0-0.3,0.4-0.6c-0.7-0.3-1.8,0.5-2,1.6
								c-0.1,0.7,0.2,1.3,0.5,2.3c-0.9-0.7-1.6-2-1.3-3.2V5c-0.8,2.5,0.9,4.8,3.7,4.8c1.4,0,2.6,0.6,3.2,1.6c-1.1-0.6-1.5-1-2.3-1.2
								c-1.3-0.2-2.3,0.5-2.3,1.3c0.4-0.2,0.6-0.2,0.7-0.1c0.7,0.3,1.1,0.4,1.8,0c1-0.5,2.3,0,2.4,0.7c0,0.2,0.1,0.4,0.1,0.5
								c-1.2-1-2.3-0.6-2.7-0.4c-0.6,0.4-0.5,1-0.2,1.3c0.2,0.2,0.5,0.4,0.8,0.4c0.7-0.1,0.7-1-0.1-1c0.6-1,2.5-0.5,2,0.9l0,0
								c0.2-0.2,0.3-0.5,0.4-0.6c0.1,0.3,0.2,0.5,0.4,0.6l0,0c-0.5-1.4,1.4-1.9,2-0.9c-0.8,0-0.8,0.9-0.1,1c0.3,0,0.6-0.1,0.8-0.4
								c0.3-0.3,0.5-0.9-0.2-1.3c-0.5-0.3-1.5-0.7-2.7,0.4c0-0.2,0-0.4,0.1-0.5c0.2-0.7,1.5-1.3,3.7-0.7
								C65.7,10.8,64.5,10.1,63.3,10.2"/>
						</defs>
						<clipPath id="SVGID_58_">
							<use xlink:href="#SVGID_57_"  style="overflow:visible;"/>
						</clipPath>
						<g class="st28">
							<g>
								<g>
									<g>
										<g>
											<defs>
												<rect id="SVGID_59_" x="-643.2" y="-794.2" width="1299.1" height="1014"/>
											</defs>
											<clipPath id="SVGID_60_">
												<use xlink:href="#SVGID_59_"  style="overflow:visible;"/>
											</clipPath>
											<rect x="48.4" y="-0.3" class="st29" width="24.1" height="18.7"/>
										</g>
									</g>
								</g>
							</g>
						</g>
					</g>
				</g>
			</g>
		</g>
	</g>
</g>
</svg>
