<?xml version="1.0" encoding="utf-8"?>
<!-- Generator: Adobe Illustrator 24.0.2, SVG Export Plug-In . SVG Version: 6.00 Build 0)  -->
<svg version="1.1" id="Capa_1" xmlns="http://www.w3.org/2000/svg" xmlns:xlink="http://www.w3.org/1999/xlink" x="0px" y="0px"
	 viewBox="0 0 120 45.4" style="enable-background:new 0 0 120 45.4;" xml:space="preserve">
<style type="text/css">
	.st0{fill:none;}
	.st1{clip-path:url(#SVGID_2_);}
	.st2{clip-path:url(#SVGID_4_);enable-background:new    ;}
	.st3{clip-path:url(#SVGID_6_);}
	.st4{clip-path:url(#SVGID_8_);}
	.st5{fill:#636469;}
	.st6{font-family:'TimesNewRomanPSMT';}
	.st7{font-size:12px;}
	.st8{clip-path:url(#SVGID_10_);}
	.st9{clip-path:url(#SVGID_12_);}
	.st10{clip-path:url(#SVGID_14_);fill:#989898;}
	.st11{clip-path:url(#SVGID_16_);}
	.st12{clip-path:url(#SVGID_18_);}
	.st13{clip-path:url(#SVGID_20_);fill:#989898;}
	.st14{clip-path:url(#SVGID_22_);}
	.st15{clip-path:url(#SVGID_24_);}
	.st16{clip-path:url(#SVGID_26_);fill:#989898;}
	.st17{clip-path:url(#SVGID_28_);}
	.st18{clip-path:url(#SVGID_30_);}
	.st19{clip-path:url(#SVGID_32_);fill:#989898;}
	.st20{clip-path:url(#SVGID_34_);}
	.st21{clip-path:url(#SVGID_36_);}
	.st22{clip-path:url(#SVGID_38_);fill:#989898;}
	.st23{clip-path:url(#SVGID_40_);}
	.st24{clip-path:url(#SVGID_42_);}
	.st25{clip-path:url(#SVGID_44_);fill:#989898;}
	.st26{clip-path:url(#SVGID_46_);}
	.st27{clip-path:url(#SVGID_48_);}
	.st28{clip-path:url(#SVGID_50_);fill:#989898;}
	.st29{clip-path:url(#SVGID_52_);}
	.st30{clip-path:url(#SVGID_54_);}
	.st31{clip-path:url(#SVGID_56_);fill:#989898;}
	.st32{clip-path:url(#SVGID_58_);}
	.st33{clip-path:url(#SVGID_60_);}
	.st34{clip-path:url(#SVGID_62_);fill:#989898;}
	.st35{clip-path:url(#SVGID_64_);}
	.st36{clip-path:url(#SVGID_66_);}
	.st37{clip-path:url(#SVGID_68_);fill:#989898;}
	.st38{clip-path:url(#SVGID_70_);}
	.st39{clip-path:url(#SVGID_72_);}
	.st40{clip-path:url(#SVGID_74_);fill:#989898;}
	.st41{clip-path:url(#SVGID_76_);}
	.st42{clip-path:url(#SVGID_78_);}
	.st43{clip-path:url(#SVGID_80_);fill:#989898;}
	.st44{clip-path:url(#SVGID_82_);}
	.st45{clip-path:url(#SVGID_84_);}
	.st46{clip-path:url(#SVGID_86_);fill:#989898;}
	.st47{clip-path:url(#SVGID_88_);}
	.st48{clip-path:url(#SVGID_90_);}
	.st49{clip-path:url(#SVGID_92_);fill:#989898;}
	.st50{clip-path:url(#SVGID_94_);}
	.st51{clip-path:url(#SVGID_96_);}
	.st52{clip-path:url(#SVGID_98_);fill:#989898;}
	.st53{clip-path:url(#SVGID_100_);}
	.st54{clip-path:url(#SVGID_102_);}
	.st55{clip-path:url(#SVGID_104_);fill:#989898;}
</style>
<rect x="-952.6" y="-951.1" class="st0" width="1440" height="1124"/>
<g>
	<g>
		<g>
			<g>
				<g>
					<defs>
						<rect id="SVGID_1_" x="26.2" y="9.5" width="67.6" height="26.5"/>
					</defs>
					<clipPath id="SVGID_2_">
						<use xlink:href="#SVGID_1_"  style="overflow:visible;"/>
					</clipPath>
					<g class="st1">
						<g>
							<g>
								<g>
									<defs>
										<rect id="SVGID_3_" x="-1064.8" y="-950.5" width="1440" height="1124"/>
									</defs>
									<clipPath id="SVGID_4_">
										<use xlink:href="#SVGID_3_"  style="overflow:visible;"/>
									</clipPath>
									<g class="st2">
										<g>
											<g>
												<g>
													<g>
														<defs>
															<rect id="SVGID_5_" x="26.2" y="9.5" width="92" height="28"/>
														</defs>
														<clipPath id="SVGID_6_">
															<use xlink:href="#SVGID_5_"  style="overflow:visible;"/>
														</clipPath>
														<g class="st3">
															<g>
																<g>
																	<g>
																		<defs>
																			<rect id="SVGID_7_" x="26.2" y="9.5" width="68" height="27"/>
																		</defs>
																		<clipPath id="SVGID_8_">
																			<use xlink:href="#SVGID_7_"  style="overflow:visible;"/>
																		</clipPath>
																		<g class="st4">
																			<text transform="matrix(1 0 0 1 93.6471 33.4787)" class="st5 st6 st7"> </text>
																		</g>
																	</g>
																</g>
															</g>
														</g>
													</g>
												</g>
											</g>
											<g>
												<g>
													<g>
														<defs>
															<rect id="SVGID_9_" x="26.2" y="9.5" width="92" height="28"/>
														</defs>
														<clipPath id="SVGID_10_">
															<use xlink:href="#SVGID_9_"  style="overflow:visible;"/>
														</clipPath>
														<g class="st8">
															<g>
																<g>
																	<g>
																		<defs>
																			<path id="SVGID_11_" d="M56.3,27.1c1.2,1.6,2.9,2.6,4.5,1.5c-0.4-0.4-0.8-0.8-1.2-1.2c-0.1-0.1-0.4-0.3-0.5-0.3
																				C58.2,27,57.3,27.1,56.3,27.1z M58.6,26.3c-1.2-2-3-2.5-4.4-1.4c0.4,0.4,0.8,0.8,1.3,1.3
																				c0.1,0.1,0.3,0.2,0.4,0.2C56.8,26.3,57.7,26.3,58.6,26.3z M65.9,28.4c-0.4-0.4-0.8-0.8-1.2-1.2
																				c-0.1-0.1-0.3-0.2-0.4-0.2c-1,0-2,0-3,0c0,0,0,0.1-0.1,0.1c0.4,0.4,0.8,0.8,1.2,1.1
																				C63.6,29.2,64.5,29.3,65.9,28.4z M59,24.8c0.5,0.5,0.9,0.9,1.3,1.3c0.1,0.1,0.2,0.1,0.3,0.1c1,0,2,0,3.1,0
																				c-0.5-0.5-0.9-1-1.5-1.4C61.2,24.2,60.2,24.2,59,24.8z M53.9,26.3c-0.6-0.8-1.2-1.5-2.1-1.8
																				c-1.4-0.6-3,0.3-3.1,1.8H53.9z M66.4,27c0,0.1,0,0.1-0.1,0.2c0.4,0.4,0.7,0.8,1.2,1.1c0.4,0.3,0.8,0.5,1.2,0.6
																				c1.3,0.3,2.6-0.7,2.6-1.9C71.3,27,66.4,27,66.4,27z M65.2,25.8c0.2,0.4,0.5,0.5,0.9,0.5c1.6,0,3.2,0,4.8,0
																				c0.1,0,0.3,0,0.4,0c-0.3-0.9-1-1.6-1.9-1.8C67.8,24.2,66.4,24.7,65.2,25.8z M48.6,26.9c0.5,1.3,1.4,1.8,2.5,2
																				c1.5,0.2,2.7-0.3,3.8-1.4c-0.3-0.2-0.5-0.4-0.7-0.4C52.4,27,50.6,27,48.6,26.9z M93.8,26.8c-2.5,0-5,0-7.5,0.1
																				c-4.6,0-9.2,0.1-13.9,0.1c-0.1,0-0.3,0-0.5,0c-0.3,1.2-1,2.2-2.3,2.6c-1.2,0.4-2.3,0-3.4-0.8
																				c-0.8,0.4-1.6,0.9-2.5,0.9s-1.8-0.3-2.5-0.8c-2.8,1.2-3.9,1-6.1-1c-0.3,0.3-0.7,0.6-1,0.9
																				c-0.9,0.6-1.8,1-2.9,0.9c-1.4-0.1-2.4-0.8-2.9-2c-0.1-0.2-0.2-0.4-0.3-0.7c-0.7,0-1.4,0-2,0c-3.1,0-6.2,0-9.3,0
																				c-3.5,0-7-0.1-10.5-0.1v-0.1c0.3,0,0.7-0.1,1-0.1c4.6,0,9.2,0,13.9-0.1c2.2,0,4.4-0.1,6.6-0.1c0.1,0,0.2,0,0.4,0
																				c0.3-1.3,1.1-2.2,2.4-2.6c1.3-0.4,2.4,0.1,3.4,0.8c2.2-1.2,2.7-1.2,4.9,0c2.3-1.6,4.4-1,6.2,1
																				c0.3-0.2,0.5-0.5,0.7-0.7c1.1-0.9,2.4-1.5,3.9-1.1c1.1,0.3,1.8,0.9,2.2,1.9c0.1,0.2,0.1,0.4,0.3,0.7
																				c0.9,0,1.8,0,2.7,0c6.1,0,12.2,0.1,18.2,0.1C93.3,26.6,93.6,26.7,93.8,26.8L93.8,26.8L93.8,26.8z"/>
																		</defs>
																		<clipPath id="SVGID_12_">
																			<use xlink:href="#SVGID_11_"  style="overflow:visible;"/>
																		</clipPath>
																		<g class="st9">
																			<g>
																				<g>
																					<g>
																						<defs>
																							<rect id="SVGID_13_" x="26.2" y="9.5" width="68" height="27"/>
																						</defs>
																						<clipPath id="SVGID_14_">
																							<use xlink:href="#SVGID_13_"  style="overflow:visible;"/>
																						</clipPath>
																						<rect x="21.2" y="18.6" class="st10" width="77.6" height="16.1"/>
																					</g>
																				</g>
																			</g>
																		</g>
																	</g>
																</g>
															</g>
														</g>
													</g>
												</g>
											</g>
											<g>
												<g>
													<g>
														<defs>
															<rect id="SVGID_15_" x="26.2" y="9.5" width="92" height="28"/>
														</defs>
														<clipPath id="SVGID_16_">
															<use xlink:href="#SVGID_15_"  style="overflow:visible;"/>
														</clipPath>
														<g class="st11">
															<g>
																<g>
																	<g>
																		<defs>
																			<path id="SVGID_17_" d="M55.6,9.5c0.5,0.1,1,0.2,1.4,0.3c2.6,0.6,2.8,2.6,1.7,4.2c-1,1.4-2.4,1.9-4.1,2.2
																				c-0.1-0.3,0-0.4,0.2-0.5c0.5-0.2,1.1-0.4,1.6-0.6c1.1-0.6,1.6-1.8,1.3-2.9c-0.2-0.8-0.7-1.2-1.4-1.6
																				c-0.6-0.3-1.6-0.5-2.5-0.4c0,3.5,0,7,0,10.5c0.7,0.3,1.4,0.1,2,0.5c0,0.1,0,0.1,0,0.2h-5.3
																				c0.2-0.5,0.6-0.3,0.8-0.4c0.3-0.1,0.6-0.1,0.9-0.2c0.2-3.5,0.2-6.9,0-10.5c-0.4-0.1-0.8-0.1-1.2-0.2
																				c-0.3,0-0.6-0.1-0.6-0.5L55.6,9.5L55.6,9.5z"/>
																		</defs>
																		<clipPath id="SVGID_18_">
																			<use xlink:href="#SVGID_17_"  style="overflow:visible;"/>
																		</clipPath>
																		<g class="st12">
																			<g>
																				<g>
																					<g>
																						<defs>
																							<rect id="SVGID_19_" x="26.2" y="9.5" width="68" height="27"/>
																						</defs>
																						<clipPath id="SVGID_20_">
																							<use xlink:href="#SVGID_19_"  style="overflow:visible;"/>
																						</clipPath>
																						<rect x="45.4" y="4.5" class="st13" width="18.8" height="21.6"/>
																					</g>
																				</g>
																			</g>
																		</g>
																	</g>
																</g>
															</g>
														</g>
													</g>
												</g>
											</g>
											<g>
												<g>
													<g>
														<defs>
															<rect id="SVGID_21_" x="26.2" y="9.5" width="92" height="28"/>
														</defs>
														<clipPath id="SVGID_22_">
															<use xlink:href="#SVGID_21_"  style="overflow:visible;"/>
														</clipPath>
														<g class="st14">
															<g>
																<g>
																	<g>
																		<defs>
																			<path id="SVGID_23_" d="M32.4,9.5c0,0.3-0.3,0.4-0.6,0.4c-0.5,0-0.9,0.1-1.4,0.2c-0.3,1.1-0.3,9,0,10.5
																				c1.2,0,2.4,0,3.5-0.5c0.2-0.1,0.4-0.3,0.4-0.5c0.2-0.4,0.3-0.8,0.4-1.2c0.1-0.2,0.1-0.4,0.5-0.4
																				c-0.3,1.7-0.6,3.5-0.9,5.2C33.9,23,33.9,23,34,21.3c-1.2-0.1-2.3-0.2-3.5-0.1c-1.2,0-2.3,0-3.5-0.1
																				c0.5-0.5,1.2-0.2,1.7-0.5c0.2-0.5,0.2-9.4,0-10.4c-0.4-0.1-0.8-0.1-1.3-0.2c-0.3,0-0.5-0.1-0.5-0.4h5.5
																				C32.4,9.6,32.4,9.5,32.4,9.5z"/>
																		</defs>
																		<clipPath id="SVGID_24_">
																			<use xlink:href="#SVGID_23_"  style="overflow:visible;"/>
																		</clipPath>
																		<g class="st15">
																			<g>
																				<g>
																					<g>
																						<defs>
																							<rect id="SVGID_25_" x="26.2" y="9.5" width="68" height="27"/>
																						</defs>
																						<clipPath id="SVGID_26_">
																							<use xlink:href="#SVGID_25_"  style="overflow:visible;"/>
																						</clipPath>
																						<rect x="22" y="4.5" class="st16" width="18.2" height="23.7"/>
																					</g>
																				</g>
																			</g>
																		</g>
																	</g>
																</g>
															</g>
														</g>
													</g>
												</g>
											</g>
											<g>
												<g>
													<g>
														<defs>
															<rect id="SVGID_27_" x="26.2" y="9.5" width="92" height="28"/>
														</defs>
														<clipPath id="SVGID_28_">
															<use xlink:href="#SVGID_27_"  style="overflow:visible;"/>
														</clipPath>
														<g class="st17">
															<g>
																<g>
																	<g>
																		<defs>
																			<path id="SVGID_29_" d="M71.2,35.9v-1.5c0.1,0,0.1,0,0.2,0c0.1,0.1,0.1,0.3,0.2,0.4c0.1,0.3,0.4,0.5,0.7,0.5
																				s0.5-0.2,0.6-0.5s-0.1-0.5-0.3-0.7c-0.2-0.2-0.5-0.3-0.7-0.5c-0.3-0.3-0.5-0.6-0.4-1s0.5-0.6,1-0.6
																				c0.3,0,0.5,0,0.8,0c0,0.3,0,0.6-0.1,1h-0.1c-0.1-0.1-0.1-0.2-0.2-0.3c-0.1-0.3-0.4-0.4-0.7-0.3
																				c-0.1,0-0.4,0.1-0.4,0.2c0,0.1,0,0.4,0.1,0.5c0.2,0.2,0.5,0.3,0.7,0.5c0.6,0.4,0.7,0.8,0.6,1.3
																				c-0.1,0.4-0.6,0.7-1.2,0.7c-0.2,0-0.3,0-0.5,0c0,0.2-0.1,0.3-0.1,0.4h-0.2C71.2,36,71.2,35.9,71.2,35.9z"/>
																		</defs>
																		<clipPath id="SVGID_30_">
																			<use xlink:href="#SVGID_29_"  style="overflow:visible;"/>
																		</clipPath>
																		<g class="st18">
																			<g>
																				<g>
																					<g>
																						<defs>
																							<rect id="SVGID_31_" x="26.2" y="9.5" width="68" height="27"/>
																						</defs>
																						<clipPath id="SVGID_32_">
																							<use xlink:href="#SVGID_31_"  style="overflow:visible;"/>
																						</clipPath>
																						<rect x="66.2" y="26.9" class="st19" width="12.1" height="14"/>
																					</g>
																				</g>
																			</g>
																		</g>
																	</g>
																</g>
															</g>
														</g>
													</g>
												</g>
											</g>
											<g>
												<g>
													<g>
														<defs>
															<rect id="SVGID_33_" x="26.2" y="9.5" width="92" height="28"/>
														</defs>
														<clipPath id="SVGID_34_">
															<use xlink:href="#SVGID_33_"  style="overflow:visible;"/>
														</clipPath>
														<g class="st20">
															<g>
																<g>
																	<g>
																		<defs>
																			<path id="SVGID_35_" d="M73,16.4c-0.4-1.2-0.8-2.3-1.2-3.4h-0.1c-0.4,1.1-0.8,2.2-1.3,3.4
																				C71.3,16.5,72.1,16.7,73,16.4 M67,20.9c0.1-0.1,0.3-0.2,0.4-0.1c0.6,0,0.8-0.3,1-0.8c0.9-2.3,1.8-4.6,2.7-6.9
																				c0-0.1,0-0.2,0.1-0.4c-0.3-0.1-0.6-0.2-0.9-0.3c0.6-0.2,2.9-0.2,3.6,0c-0.4,0.1-0.7,0.2-1,0.3
																				c0,0.2,0.1,0.3,0.1,0.4c0.8,2.2,1.6,4.4,2.4,6.6c0.2,0.7,0.5,1.2,1.4,1.2c0.1,0,0.1,0.1,0.2,0.3h-1.8h-2
																				c0.3-0.5,0.8-0.2,1.1-0.4c0-0.5-0.7-2.7-1.2-3.7c-0.4,0-0.9,0.1-1.4,0.1s-1,0-1.5,0c-0.4,1.2-0.8,2.4-1,3.6
																				c0.2,0,0.4,0.1,0.5,0.1s0.3,0.1,0.4,0.2C69.7,21.1,67.7,21.2,67,20.9"/>
																		</defs>
																		<clipPath id="SVGID_36_">
																			<use xlink:href="#SVGID_35_"  style="overflow:visible;"/>
																		</clipPath>
																		<g class="st21">
																			<g>
																				<g>
																					<g>
																						<defs>
																							<rect id="SVGID_37_" x="26.2" y="9.5" width="68" height="27"/>
																						</defs>
																						<clipPath id="SVGID_38_">
																							<use xlink:href="#SVGID_37_"  style="overflow:visible;"/>
																						</clipPath>
																						<rect x="62" y="7.2" class="st22" width="20" height="18.9"/>
																					</g>
																				</g>
																			</g>
																		</g>
																	</g>
																</g>
															</g>
														</g>
													</g>
												</g>
											</g>
											<g>
												<g>
													<g>
														<defs>
															<rect id="SVGID_39_" x="26.2" y="9.5" width="92" height="28"/>
														</defs>
														<clipPath id="SVGID_40_">
															<use xlink:href="#SVGID_39_"  style="overflow:visible;"/>
														</clipPath>
														<g class="st23">
															<g>
																<g>
																	<g>
																		<defs>
																			<path id="SVGID_41_" d="M41,16.6c-0.5-1.3-0.9-2.4-1.3-3.7c-0.5,1.3-0.9,2.4-1.4,3.6
																				C39.3,16.5,40.1,16.5,41,16.6 M41.1,16.9c-1,0.1-1.9,0.1-2.9,0.2c-0.4,1.2-0.8,2.3-1,3.5
																				c0.3,0.1,0.6,0.2,0.9,0.3V21h-3c0.1-0.3,0.3-0.3,0.6-0.3c0.4,0,0.6-0.2,0.7-0.5c1-2.5,2-5,3-7.6
																				c-0.4-0.1-0.7-0.2-1-0.3c0.5-0.2,2.6-0.3,3.5-0.1c-0.1,0.4-0.6,0.1-0.9,0.5c0.1,0.2,0.2,0.6,0.3,0.9
																				c0.8,2.1,1.6,4.2,2.4,6.3c0.2,0.5,0.4,1,1.1,0.9c0.1,0,0.2,0.1,0.3,0.3h-3.7c0.2-0.2,0.2-0.2,1-0.4
																				C42.4,20.1,41.7,18.1,41.1,16.9"/>
																		</defs>
																		<clipPath id="SVGID_42_">
																			<use xlink:href="#SVGID_41_"  style="overflow:visible;"/>
																		</clipPath>
																		<g class="st24">
																			<g>
																				<g>
																					<g>
																						<defs>
																							<rect id="SVGID_43_" x="26.2" y="9.5" width="68" height="27"/>
																						</defs>
																						<clipPath id="SVGID_44_">
																							<use xlink:href="#SVGID_43_"  style="overflow:visible;"/>
																						</clipPath>
																						<rect x="30" y="7.1" class="st25" width="20" height="18.9"/>
																					</g>
																				</g>
																			</g>
																		</g>
																	</g>
																</g>
															</g>
														</g>
													</g>
												</g>
											</g>
											<g>
												<g>
													<g>
														<defs>
															<rect id="SVGID_45_" x="26.2" y="9.5" width="92" height="28"/>
														</defs>
														<clipPath id="SVGID_46_">
															<use xlink:href="#SVGID_45_"  style="overflow:visible;"/>
														</clipPath>
														<g class="st26">
															<g>
																<g>
																	<g>
																		<defs>
																			<path id="SVGID_47_" d="M92.1,17.7c0-0.3-0.1-0.6-0.1-0.9c-0.8-0.3-1.6-0.2-2.4-0.2c-0.1,1.4,0.1,2.7,0.1,4
																				c0.8,0.2,2.3,0,3.1-0.3c0.1-0.4,0.3-0.8,0.4-1.3c0.2,0.6,0,2.2-0.3,3c-0.3-0.1-0.1-0.5-0.3-0.7
																				c-1.8-0.2-3.6-0.2-5.6-0.1c0.4-0.5,1-0.3,1.5-0.6c0.1-2.6,0-5.2,0-7.9c-0.5-0.1-0.9-0.2-1.3-0.3
																				c0-0.1,0-0.1,0-0.2c0.4-0.1,0.9,0,1.3,0c0.5,0,1,0,1.5,0s0.9,0,1.4,0s0.9,0,1.4,0c0.1-0.3,0.2-0.5,0.4-0.8
																				c0.3,0.5,0,1,0,1.4s0.1,0.9-0.2,1.4c-0.5-0.3-0.1-0.8-0.4-1.1c-0.8-0.3-1.7-0.4-2.7-0.3c0,1.2-0.1,2.3-0.1,3.4
																				c0.9,0.2,1.8,0,2.6-0.1c0.1-0.2,0.2-0.3,0.3-0.5c0.1,0,0.1,0,0.1,0.1c0,0.7-0.1,1.5-0.3,2.2
																				C92.2,17.7,92.2,17.7,92.1,17.7"/>
																		</defs>
																		<clipPath id="SVGID_48_">
																			<use xlink:href="#SVGID_47_"  style="overflow:visible;"/>
																		</clipPath>
																		<g class="st27">
																			<g>
																				<g>
																					<g>
																						<defs>
																							<rect id="SVGID_49_" x="26.2" y="9.5" width="68" height="27"/>
																						</defs>
																						<clipPath id="SVGID_50_">
																							<use xlink:href="#SVGID_49_"  style="overflow:visible;"/>
																						</clipPath>
																						<rect x="81.9" y="6.4" class="st28" width="16.3" height="20.6"/>
																					</g>
																				</g>
																			</g>
																		</g>
																	</g>
																</g>
															</g>
														</g>
													</g>
												</g>
											</g>
											<g>
												<g>
													<g>
														<defs>
															<rect id="SVGID_51_" x="26.2" y="9.5" width="92" height="28"/>
														</defs>
														<clipPath id="SVGID_52_">
															<use xlink:href="#SVGID_51_"  style="overflow:visible;"/>
														</clipPath>
														<g class="st29">
															<g>
																<g>
																	<g>
																		<defs>
																			<path id="SVGID_53_" d="M85,12.1c0.1-0.4,0.3-0.7,0.4-1.1c0.2,0.3,0.2,0.7,0.1,1.9c-0.1,0.6-0.1,1.3-0.2,2
																				C84.9,14.6,85,14.3,85,14c0-0.7-0.3-1.1-0.9-1.3c-1.2-0.4-2.5-0.5-3.7,0c-1.9,0.8-2.6,2.8-1.9,4.9
																				c0.5,1.7,2.2,2.8,3.9,2.9c1.1,0.1,2.2,0,3.3-0.5c0.1,0,0.1,0,0.2,0c0.1,0.3-0.1,0.5-0.4,0.6
																				c-0.5,0.2-0.9,0.3-1.4,0.4c-1.2,0.3-2.5,0.3-3.7,0c-3.3-0.9-4.3-4.3-2.6-6.8c1.2-1.7,2.9-2.4,5-2.3
																				C83.5,12,84.2,12.1,85,12.1"/>
																		</defs>
																		<clipPath id="SVGID_54_">
																			<use xlink:href="#SVGID_53_"  style="overflow:visible;"/>
																		</clipPath>
																		<g class="st30">
																			<g>
																				<g>
																					<g>
																						<defs>
																							<rect id="SVGID_55_" x="26.2" y="9.5" width="68" height="27"/>
																						</defs>
																						<clipPath id="SVGID_56_">
																							<use xlink:href="#SVGID_55_"  style="overflow:visible;"/>
																						</clipPath>
																						<rect x="72" y="6" class="st31" width="18.9" height="20.3"/>
																					</g>
																				</g>
																			</g>
																		</g>
																	</g>
																</g>
															</g>
														</g>
													</g>
												</g>
											</g>
											<g>
												<g>
													<g>
														<defs>
															<rect id="SVGID_57_" x="26.2" y="9.5" width="92" height="28"/>
														</defs>
														<clipPath id="SVGID_58_">
															<use xlink:href="#SVGID_57_"  style="overflow:visible;"/>
														</clipPath>
														<g class="st32">
															<g>
																<g>
																	<g>
																		<defs>
																			<path id="SVGID_59_" d="M60.7,20.9c0.4-0.1,0.8-0.2,1.3-0.3c0.2-2.6,0.2-5.3,0-8c-0.4-0.1-0.9-0.2-1.5-0.3
																				c0.6-0.2,3.5-0.2,4.2-0.1c-0.1,0.3-0.5,0.2-0.7,0.3c-0.2,0.1-0.5,0.1-0.8,0.2v7.9c0.9,0.1,1.8,0.1,2.6-0.3
																				c0.2-0.1,0.4-0.4,0.5-0.7c0.2-0.3,0.2-0.7,0.4-1c0.3,0.5,0,0.9-0.1,1.3c0,0.4-0.1,0.9-0.2,1.3
																				c-0.1,0.5-0.1,0.9-0.2,1.5c-0.5-0.5,0-1-0.3-1.5c-1.7-0.2-3.5-0.1-5.2-0.1V20.9z"/>
																		</defs>
																		<clipPath id="SVGID_60_">
																			<use xlink:href="#SVGID_59_"  style="overflow:visible;"/>
																		</clipPath>
																		<g class="st33">
																			<g>
																				<g>
																					<g>
																						<defs>
																							<rect id="SVGID_61_" x="26.2" y="9.5" width="68" height="27"/>
																						</defs>
																						<clipPath id="SVGID_62_">
																							<use xlink:href="#SVGID_61_"  style="overflow:visible;"/>
																						</clipPath>
																						<rect x="55.5" y="7.2" class="st34" width="16.4" height="20.6"/>
																					</g>
																				</g>
																			</g>
																		</g>
																	</g>
																</g>
															</g>
														</g>
													</g>
												</g>
											</g>
											<g>
												<g>
													<g>
														<defs>
															<rect id="SVGID_63_" x="26.2" y="9.5" width="92" height="28"/>
														</defs>
														<clipPath id="SVGID_64_">
															<use xlink:href="#SVGID_63_"  style="overflow:visible;"/>
														</clipPath>
														<g class="st35">
															<g>
																<g>
																	<g>
																		<defs>
																			<path id="SVGID_65_" d="M90.6,33.8c0-0.9-0.7-1.6-1.6-1.6c-0.8,0-1.4,0.6-1.4,1.3c0,0.9,0.7,1.6,1.6,1.6
																				C90.1,35.2,90.6,34.7,90.6,33.8 M89,35.5c-1.1,0-1.9-0.7-2-1.7c0-1,0.9-1.9,2-1.9c1.2,0,2,0.6,2,1.6
																				C91.1,34.7,90.2,35.5,89,35.5"/>
																		</defs>
																		<clipPath id="SVGID_66_">
																			<use xlink:href="#SVGID_65_"  style="overflow:visible;"/>
																		</clipPath>
																		<g class="st36">
																			<g>
																				<g>
																					<g>
																						<defs>
																							<rect id="SVGID_67_" x="26.2" y="9.5" width="68" height="27"/>
																						</defs>
																						<clipPath id="SVGID_68_">
																							<use xlink:href="#SVGID_67_"  style="overflow:visible;"/>
																						</clipPath>
																						<rect x="82.1" y="26.9" class="st37" width="14" height="13.6"/>
																					</g>
																				</g>
																			</g>
																		</g>
																	</g>
																</g>
															</g>
														</g>
													</g>
												</g>
											</g>
											<g>
												<g>
													<g>
														<defs>
															<rect id="SVGID_69_" x="26.2" y="9.5" width="92" height="28"/>
														</defs>
														<clipPath id="SVGID_70_">
															<use xlink:href="#SVGID_69_"  style="overflow:visible;"/>
														</clipPath>
														<g class="st38">
															<g>
																<g>
																	<g>
																		<defs>
																			<path id="SVGID_71_" d="M55.6,33.6c0.5,0.1,0.8,0,1-0.3c0.1-0.2,0.1-0.5,0-0.6c-0.2-0.3-0.6-0.4-1-0.4V33.6z
																				 M56,35.5h-1.5c0.2-0.2,0.4-0.3,0.5-0.4v-0.5v-2.1c-0.2-0.1-0.3-0.2-0.6-0.3c0.7,0,1.3,0,1.9,0
																				c0.3,0,0.7,0.1,0.8,0.5c0.1,0.3-0.1,0.6-0.3,0.8c-0.1,0.1-0.2,0.2-0.3,0.3c0.4,0.6,0.8,1.1,1.2,1.7l-0.1,0.1
																				c-0.1-0.1-0.3-0.1-0.4-0.3c-0.3-0.3-0.6-0.7-1-1.1C56,34,56,34,55.5,34C55.6,34.5,55.4,35,56,35.5z"/>
																		</defs>
																		<clipPath id="SVGID_72_">
																			<use xlink:href="#SVGID_71_"  style="overflow:visible;"/>
																		</clipPath>
																		<g class="st39">
																			<g>
																				<g>
																					<g>
																						<defs>
																							<rect id="SVGID_73_" x="26.2" y="9.5" width="68" height="27"/>
																						</defs>
																						<clipPath id="SVGID_74_">
																							<use xlink:href="#SVGID_73_"  style="overflow:visible;"/>
																						</clipPath>
																						<rect x="49.5" y="27" class="st40" width="13.3" height="13.5"/>
																					</g>
																				</g>
																			</g>
																		</g>
																	</g>
																</g>
															</g>
														</g>
													</g>
												</g>
											</g>
											<g>
												<g>
													<g>
														<defs>
															<rect id="SVGID_75_" x="26.2" y="9.5" width="92" height="28"/>
														</defs>
														<clipPath id="SVGID_76_">
															<use xlink:href="#SVGID_75_"  style="overflow:visible;"/>
														</clipPath>
														<g class="st41">
															<g>
																<g>
																	<g>
																		<defs>
																			<path id="SVGID_77_" d="M47.3,32.3v1.3c0.7,0.1,1.1-0.1,1.1-0.6S48.1,32.3,47.3,32.3 M47.3,34
																				c0.1,0.5-0.3,1,0.3,1.4h-1.4c0.2-0.1,0.4-0.2,0.5-0.4v-2v-0.7c-0.2-0.1-0.3-0.1-0.4-0.2V32c0.6,0,1.1,0,1.7,0
																				c0.4,0,0.7,0.1,0.9,0.5s-0.1,0.6-0.3,0.9c-0.1,0.1-0.1,0.2-0.3,0.3c0.4,0.6,0.8,1.1,1.1,1.7l-0.1,0.1
																				c-0.1-0.1-0.3-0.1-0.4-0.2c-0.3-0.4-0.7-0.7-1-1.1C47.9,34,47.7,33.9,47.3,34"/>
																		</defs>
																		<clipPath id="SVGID_78_">
																			<use xlink:href="#SVGID_77_"  style="overflow:visible;"/>
																		</clipPath>
																		<g class="st42">
																			<g>
																				<g>
																					<g>
																						<defs>
																							<rect id="SVGID_79_" x="26.2" y="9.5" width="68" height="27"/>
																						</defs>
																						<clipPath id="SVGID_80_">
																							<use xlink:href="#SVGID_79_"  style="overflow:visible;"/>
																						</clipPath>
																						<rect x="41.2" y="27" class="st43" width="13.3" height="13.5"/>
																					</g>
																				</g>
																			</g>
																		</g>
																	</g>
																</g>
															</g>
														</g>
													</g>
												</g>
											</g>
											<g>
												<g>
													<g>
														<defs>
															<rect id="SVGID_81_" x="26.2" y="9.5" width="92" height="28"/>
														</defs>
														<clipPath id="SVGID_82_">
															<use xlink:href="#SVGID_81_"  style="overflow:visible;"/>
														</clipPath>
														<g class="st44">
															<g>
																<g>
																	<g>
																		<defs>
																			<path id="SVGID_83_" d="M64.6,33.6c-0.2-0.4-0.3-0.7-0.4-1h-0.1c-0.1,0.3-0.2,0.6-0.3,1H64.6z M63.8,32.1h1.1
																				c-0.2,0.6,0.6,2.7,1.3,3.4h-1.3c0.1-0.1,0.2-0.2,0.3-0.4c-0.1-0.4-0.3-0.7-0.4-1.1h-1c-0.2,0.5-0.5,0.9-0.2,1.5
																				h-1.1c0.7-0.4,0.8-1.1,1-1.7C63.6,33.2,64,32.7,63.8,32.1z"/>
																		</defs>
																		<clipPath id="SVGID_84_">
																			<use xlink:href="#SVGID_83_"  style="overflow:visible;"/>
																		</clipPath>
																		<g class="st45">
																			<g>
																				<g>
																					<g>
																						<defs>
																							<rect id="SVGID_85_" x="26.2" y="9.5" width="68" height="27"/>
																						</defs>
																						<clipPath id="SVGID_86_">
																							<use xlink:href="#SVGID_85_"  style="overflow:visible;"/>
																						</clipPath>
																						<rect x="57.4" y="27.1" class="st46" width="13.7" height="13.4"/>
																					</g>
																				</g>
																			</g>
																		</g>
																	</g>
																</g>
															</g>
														</g>
													</g>
												</g>
											</g>
											<g>
												<g>
													<g>
														<defs>
															<rect id="SVGID_87_" x="26.2" y="9.5" width="92" height="28"/>
														</defs>
														<clipPath id="SVGID_88_">
															<use xlink:href="#SVGID_87_"  style="overflow:visible;"/>
														</clipPath>
														<g class="st47">
															<g>
																<g>
																	<g>
																		<defs>
																			<path id="SVGID_89_" d="M39.4,32.7L39.4,32.7c-0.2,0.3-0.3,0.6-0.4,0.9h0.8C39.6,33.2,39.5,33,39.4,32.7
																				 M40.3,35.1c-0.1-0.3-0.3-0.7-0.4-1.1h-1c-0.2,0.5-0.5,0.9-0.2,1.5h-1c0.6-0.6,1.5-2.8,1.3-3.4h1
																				c-0.1,0.7,0.8,2.9,1.4,3.4H40C40.1,35.3,40.2,35.2,40.3,35.1"/>
																		</defs>
																		<clipPath id="SVGID_90_">
																			<use xlink:href="#SVGID_89_"  style="overflow:visible;"/>
																		</clipPath>
																		<g class="st48">
																			<g>
																				<g>
																					<g>
																						<defs>
																							<rect id="SVGID_91_" x="26.2" y="9.5" width="68" height="27"/>
																						</defs>
																						<clipPath id="SVGID_92_">
																							<use xlink:href="#SVGID_91_"  style="overflow:visible;"/>
																						</clipPath>
																						<rect x="32.6" y="27.1" class="st49" width="13.7" height="13.4"/>
																					</g>
																				</g>
																			</g>
																		</g>
																	</g>
																</g>
															</g>
														</g>
													</g>
												</g>
											</g>
											<g>
												<g>
													<g>
														<defs>
															<rect id="SVGID_93_" x="26.2" y="9.5" width="92" height="28"/>
														</defs>
														<clipPath id="SVGID_94_">
															<use xlink:href="#SVGID_93_"  style="overflow:visible;"/>
														</clipPath>
														<g class="st50">
															<g>
																<g>
																	<g>
																		<defs>
																			<path id="SVGID_95_" d="M82.1,35.1c-0.6,0.6-1.3,0.5-1.9,0.4c-0.9-0.1-1.5-0.7-1.5-1.5c-0.1-0.9,0.4-1.6,1.2-1.9
																				c0.4-0.1,0.9-0.1,1.3-0.2c0.2,0,0.5-0.1,0.8-0.1c0,0.3-0.1,0.7-0.1,1.1c-0.4-0.6-0.7-0.8-1.5-0.7
																				c-0.6,0.1-1.1,0.6-1.2,1.2c-0.1,0.9,0.6,1.7,1.6,1.8C81.1,35.2,81.5,35.1,82.1,35.1"/>
																		</defs>
																		<clipPath id="SVGID_96_">
																			<use xlink:href="#SVGID_95_"  style="overflow:visible;"/>
																		</clipPath>
																		<g class="st51">
																			<g>
																				<g>
																					<g>
																						<defs>
																							<rect id="SVGID_97_" x="26.2" y="9.5" width="68" height="27"/>
																						</defs>
																						<clipPath id="SVGID_98_">
																							<use xlink:href="#SVGID_97_"  style="overflow:visible;"/>
																						</clipPath>
																						<rect x="73.6" y="26.8" class="st52" width="13.5" height="13.7"/>
																					</g>
																				</g>
																			</g>
																		</g>
																	</g>
																</g>
															</g>
														</g>
													</g>
												</g>
											</g>
											<g>
												<g>
													<g>
														<defs>
															<rect id="SVGID_99_" x="26.2" y="9.5" width="92" height="28"/>
														</defs>
														<clipPath id="SVGID_100_">
															<use xlink:href="#SVGID_99_"  style="overflow:visible;"/>
														</clipPath>
														<g class="st53">
															<g>
																<g>
																	<g>
																		<defs>
																			<path id="SVGID_101_" d="M32.6,35.1c-0.6,0.5-1.2,0.5-1.8,0.4c-0.8-0.2-1.4-0.8-1.5-1.6c0-1,0.5-1.6,1.3-1.8
																				c0.5-0.1,1-0.1,1.5-0.2c0,0.1,0.1,0.1,0.1,0.2c0.1-0.1,0.1-0.3,0.2-0.5l0.1,0.1c0,0.4-0.1,0.8-0.1,1.2
																				c-0.2-0.3-0.3-0.7-0.7-0.7c-0.4,0-0.8,0-1.2,0.1c-0.7,0.3-0.9,1.2-0.6,1.9s1,1,1.9,0.9
																				C32.1,35.2,32.4,35.1,32.6,35.1"/>
																		</defs>
																		<clipPath id="SVGID_102_">
																			<use xlink:href="#SVGID_101_"  style="overflow:visible;"/>
																		</clipPath>
																		<g class="st54">
																			<g>
																				<g>
																					<g>
																						<defs>
																							<rect id="SVGID_103_" x="26.2" y="9.5" width="68" height="27"/>
																						</defs>
																						<clipPath id="SVGID_104_">
																							<use xlink:href="#SVGID_103_"  style="overflow:visible;"/>
																						</clipPath>
																						<rect x="24.3" y="26.6" class="st55" width="13.3" height="13.9"/>
																					</g>
																				</g>
																			</g>
																		</g>
																	</g>
																</g>
															</g>
														</g>
													</g>
												</g>
											</g>
										</g>
									</g>
								</g>
							</g>
						</g>
					</g>
				</g>
			</g>
		</g>
	</g>
</g>
</svg>
