<?xml version="1.0" encoding="utf-8"?>
<!-- Generator: Adobe Illustrator 24.0.2, SVG Export Plug-In . SVG Version: 6.00 Build 0)  -->
<svg version="1.1" id="Capa_1" xmlns="http://www.w3.org/2000/svg" xmlns:xlink="http://www.w3.org/1999/xlink" x="0px" y="0px"
	 viewBox="0 0 120 45.4" style="enable-background:new 0 0 120 45.4;" xml:space="preserve">
<style type="text/css">
	.st0{fill:#999999;}
</style>
<g id="Capa_2_1_">
</g>
<g id="Capa_1_1_">
	<g>
		<path class="st0" d="M29.6,32.4h1.5c0.3,0,0.5,0,0.7,0.2c0.3,0,0.4,0.2,0.5,0.3c0.2,0.2,0.3,0.3,0.4,0.4c0.2,0.2,0.2,0.4,0.2,0.7
			c0,0.3,0,0.4-0.2,0.7c0,0.2-0.2,0.3-0.4,0.3c-0.2,0.2-0.4,0.2-0.5,0.3c-0.3,0-0.4,0.2-0.7,0.2h-0.8v2.2h-0.7
			C29.6,37.6,29.6,32.4,29.6,32.4z M30.2,34.7h0.7c0.2,0,0.3,0,0.4,0c0.2,0,0.3-0.2,0.4-0.2c0.2,0,0.2-0.2,0.3-0.3
			c0-0.2,0.2-0.3,0.2-0.4c0-0.2,0-0.3-0.2-0.4c0-0.2-0.2-0.2-0.3-0.3c-0.2,0-0.3-0.2-0.4-0.2c-0.2,0-0.3,0-0.4,0h-0.8L30.2,34.7z
			 M33.8,37.5H33l2.2-5h0.7l2.2,5h-0.8l-0.5-1.2h-2.4L33.8,37.5z M34.7,35.5h1.9l-1-2.3L34.7,35.5z M39.8,37.5h-0.7v-5h1.7
			c0.3,0,0.4,0,0.7,0.2c0.3,0,0.4,0.2,0.5,0.3c0.2,0.2,0.3,0.3,0.4,0.4c0.2,0.2,0.2,0.4,0.2,0.7c0,0.4-0.2,0.7-0.3,1
			c-0.3,0.3-0.5,0.4-0.8,0.4l1.4,2.3h-0.8l-1.4-2.3H40v2H39.8z M39.8,34.6h0.8c0.2,0,0.3,0,0.4,0c0.2,0,0.3-0.2,0.4-0.2
			c0.2,0,0.2-0.2,0.3-0.3c0-0.2,0.2-0.3,0.2-0.4s0-0.3-0.2-0.4c0-0.2-0.2-0.2-0.3-0.3c-0.2,0-0.3-0.2-0.4-0.2c-0.2,0-0.3,0-0.4,0
			h-0.8V34.6z M49,37.5h-3.1c-0.4,0-0.7,0-1.1-0.2c-0.3-0.2-0.5-0.3-0.8-0.5c-0.3-0.3-0.4-0.5-0.5-0.8c-0.2-0.3-0.2-0.7-0.2-1.1
			s0-0.7,0.2-1.1c0.2-0.3,0.3-0.5,0.5-0.8c0.3-0.3,0.5-0.4,0.8-0.5c0.3-0.2,0.7-0.2,1.1-0.2s0.7,0,1.1,0.2c0.3,0.2,0.5,0.3,0.8,0.5
			c0.3,0.3,0.4,0.5,0.5,0.8c0.2,0.3,0.2,0.7,0.2,1.1c0,0.4-0.2,0.8-0.3,1.2c-0.2,0.3-0.4,0.5-0.7,0.8H49V37.5z M44.2,34.8
			c0,0.3,0,0.5,0.2,0.8c0.2,0.3,0.3,0.4,0.4,0.7c0.2,0.2,0.4,0.3,0.5,0.4c0.3,0.2,0.5,0.2,0.8,0.2s0.5,0,0.8-0.2
			c0.3-0.2,0.4-0.3,0.5-0.4c0.2-0.2,0.3-0.4,0.4-0.7c0-0.3,0-0.5,0-0.8c0-0.3,0-0.5-0.2-0.8c-0.2-0.3-0.3-0.4-0.4-0.7
			c-0.2-0.2-0.4-0.3-0.5-0.4c-0.3-0.1-0.5-0.1-0.8-0.1c-0.3,0-0.5,0-0.8,0.2c-0.3,0.2-0.4,0.3-0.5,0.4c-0.2,0.2-0.3,0.4-0.4,0.7
			C44.2,34.3,44.2,34.6,44.2,34.8z M51.8,37.6c-0.3,0-0.7,0-0.8-0.2c-0.3-0.2-0.4-0.3-0.5-0.4c-0.2-0.2-0.3-0.4-0.4-0.7
			c-0.2-0.3-0.2-0.5-0.2-0.7v-3.2h0.7v3.2c0,0.2,0,0.3,0,0.5c0,0.2,0.2,0.3,0.3,0.4c0.2,0.2,0.3,0.3,0.4,0.3
			c0.2,0.2,0.4,0.2,0.5,0.2c0.3,0,0.4,0,0.5-0.2c0.2-0.2,0.3-0.2,0.4-0.3c0.2-0.2,0.2-0.3,0.3-0.4c0-0.2,0-0.3,0-0.5v-3.2h0.7v3.2
			c0,0.3,0,0.5-0.2,0.7c-0.2,0.3-0.2,0.4-0.4,0.7c-0.2,0.2-0.4,0.3-0.5,0.4C52.5,37.6,52.3,37.6,51.8,37.6z M56,36.8h2.6v0.7h-3.3
			v-5h3.2v0.7H56v1.4h2.4v0.5H56V36.8z M65.3,36.2l1.1,1.2h-1l-0.7-0.7c-0.2,0.3-0.4,0.4-0.7,0.5c-0.3,0.2-0.5,0.2-0.8,0.2
			c-0.3,0-0.4,0-0.7-0.2c-0.2,0-0.4-0.2-0.5-0.3c-0.2-0.2-0.3-0.3-0.4-0.4c-0.2-0.2-0.2-0.4-0.2-0.5c0-0.1,0-0.4,0.2-0.5
			c0-0.2,0.2-0.3,0.3-0.4c0.2-0.2,0.3-0.3,0.4-0.3c0.2-0.2,0.3-0.2,0.4-0.3c-0.2-0.2-0.3-0.4-0.4-0.5c-0.2-0.2-0.2-0.4-0.2-0.7
			c0-0.2,0-0.4,0.2-0.5c0.2-0.2,0.2-0.3,0.3-0.4c0.2-0.2,0.3-0.2,0.4-0.3c0.2,0,0.3-0.2,0.5-0.2c0.2,0,0.3,0,0.5,0.2
			c0.2,0,0.3,0.2,0.4,0.3c0.2,0.2,0.3,0.3,0.3,0.4c0.2,0.2,0.2,0.3,0.2,0.5c0,0.2,0,0.3-0.2,0.4c0,0.2-0.2,0.3-0.3,0.4
			c-0.2,0.2-0.3,0.3-0.4,0.3c-0.2,0.2-0.3,0.2-0.4,0.3l1,1.1l0.7-1.1h0.8L65.3,36.2z M63.2,35.1c-0.3,0.2-0.4,0.3-0.5,0.4
			c-0.2,0.2-0.3,0.4-0.3,0.7c0,0.2,0,0.3,0.2,0.4c0,0.2,0.2,0.2,0.3,0.3c0.2,0.2,0.2,0.2,0.3,0.2c0.2,0,0.3,0,0.4,0
			c0.3,0,0.4,0,0.5-0.2c0.2-0.2,0.3-0.3,0.4-0.4L63.2,35.1z M64.3,33.5c0-0.2,0-0.3-0.2-0.4c-0.2-0.2-0.3-0.2-0.4-0.2
			s-0.4,0-0.5,0.2C63,33.2,63,33.3,63,33.6c0,0.2,0,0.2,0,0.3c0,0.1,0.2,0.2,0.2,0.3c0,0.2,0.2,0.2,0.2,0.3l0.2,0.2
			c0.2,0,0.2-0.2,0.3-0.2c0.2,0,0.2-0.2,0.3-0.2c0.2-0.2,0.2-0.2,0.2-0.3C64.3,33.8,64.3,33.6,64.3,33.5z M70.2,36.8h2.2v0.7h-2.9
			v-5h0.7V36.8z M73.6,37.5h-0.8l2.2-5h0.7l2.2,5h-0.8l-0.5-1.2h-2.6L73.6,37.5z M74.3,35.5h1.9l-1-2.3L74.3,35.5z M82.5,33.5
			c-0.2-0.2-0.4-0.3-0.5-0.4c-0.3-0.2-0.5-0.2-0.8-0.2s-0.5,0-0.8,0.2c-0.3,0.2-0.4,0.3-0.5,0.4c-0.2,0.2-0.3,0.4-0.4,0.7
			c-0.2,0.3-0.2,0.5-0.2,0.8s0,0.5,0.2,0.8c0.2,0.3,0.3,0.4,0.4,0.7c0.2,0.2,0.4,0.3,0.5,0.4c0.3,0.2,0.5,0.2,0.8,0.2s0.4,0,0.7,0
			c0.2,0,0.4-0.2,0.5-0.2v-1.4h-1.1V35h1.8v2.5c-0.3,0.2-0.5,0.3-0.8,0.3s-0.7-0.2-1.1-0.2s-0.7,0-1.1-0.2c-0.3-0.2-0.5-0.3-0.8-0.5
			c-0.3-0.3-0.4-0.5-0.5-0.8c-0.2-0.3-0.2-0.6-0.2-1.1c0-0.4,0-0.7,0.2-1.1c0.2-0.3,0.3-0.5,0.5-0.8s0.5-0.4,0.8-0.5
			c0.3-0.2,0.7-0.2,1.1-0.2s0.8,0,1.1,0.2c0.3,0.2,0.5,0.3,0.8,0.4L82.5,33.5z M89.6,35c0,0.4,0,0.7-0.2,1.1
			c-0.2,0.3-0.3,0.5-0.5,0.8c-0.3,0.3-0.5,0.4-0.8,0.5c-0.3,0.2-0.7,0.2-1.1,0.2s-0.7,0-1.1-0.2c-0.3-0.2-0.5-0.3-0.8-0.5
			c-0.3-0.3-0.4-0.5-0.5-0.8c-0.2-0.3-0.2-0.7-0.2-1.1c0-0.4,0-0.7,0.2-1.1c0.2-0.3,0.3-0.5,0.5-0.8c0.3-0.3,0.5-0.4,0.8-0.5
			c0.3-0.2,0.7-0.2,1.1-0.2s0.7,0,1.1,0.2c0.3,0.2,0.5,0.3,0.8,0.5c0.3,0.3,0.4,0.5,0.5,0.8C89.6,34.2,89.6,34.6,89.6,35z M88.9,35
			c0-0.3,0-0.5-0.2-0.8c-0.2-0.3-0.3-0.4-0.4-0.7c-0.2-0.2-0.4-0.3-0.5-0.4c-0.3-0.2-0.5-0.2-0.8-0.2c-0.3,0-0.5,0-0.8,0.2
			c-0.3,0.2-0.4,0.3-0.5,0.4c-0.2,0.2-0.3,0.4-0.4,0.7C85,34.5,85,34.7,85,35s0,0.5,0.2,0.8c0.2,0.3,0.3,0.4,0.4,0.7
			c0.2,0.2,0.4,0.3,0.5,0.4c0.3,0.2,0.5,0.2,0.8,0.2c0.3,0,0.5,0,0.8-0.2s0.4-0.3,0.5-0.4c0.2-0.2,0.3-0.4,0.4-0.7
			C88.9,35.5,88.9,35.3,88.9,35z M7.6,24.8h3.9v-1.2H9.1V11.7h2.4v-1.4H7.6V24.8z M20,21.2h-3.2v-7.7h1.4v-1.4h-4.1v1.4h1.2v7.7
			h-1.2v1.4h7.3v-2.9H20V21.2z M28.7,13.4h1.1v-1.2H25v1.2h1.1L23,21.2h-1v1.4h3.7v-1.4h-1.1l0.8-2.2h3.9l0.8,2.2h-1.1v1.2h3.8V21
			h-1L28.7,13.4z M27.3,13.7l1.5,4.1h-3L27.3,13.7z M37.1,16.5c-1.2-0.4-2.1-0.8-2.1-1.8c0-0.8,0.7-1.4,1.8-1.4
			c0.5,0,1.5,0.4,1.8,0.5l0.2,0.2l0.2-0.2c0.2-0.3,0.4-0.5,0.7-0.8v-0.2l-0.2-0.2c-0.5-0.4-1.7-1-2.6-1c-1.9,0-3.3,1.1-3.3,2.9
			c0,1.8,1.4,2.5,3.2,3.2c1.1,0.4,1.9,0.8,1.9,1.8c0,1-0.7,1.7-1.9,1.7c-0.8,0-1.8-0.4-2.1-0.7l0-0.1l-0.2,0.2
			c-0.2,0.2-0.2,0.2-0.3,0.3c-0.2,0.2-0.3,0.3-0.4,0.4l-0.2,0.2l0.2,0.2c0.5,0.5,1.8,1.1,3,1.1c2.1,0,3.4-1.2,3.4-3
			C40.1,17.8,38.8,17.2,37.1,16.5z M102.8,16.5c-1.2-0.4-2.1-0.8-2.1-1.8c0-0.8,0.7-1.4,1.8-1.4c0.5,0,1.5,0.4,1.8,0.5l0.2,0.2
			l0.2-0.2c0.2-0.3,0.4-0.5,0.7-0.8l0.2-0.2l-0.2-0.2c-0.5-0.4-1.7-1-2.6-1c-1.9,0-3.3,1.1-3.3,2.9c0,1.8,1.4,2.5,3.2,3.2
			c1.1,0.4,1.9,0.8,1.9,1.8c0,1-0.7,1.7-1.9,1.7c-0.8,0-1.8-0.4-2.1-0.7l-0.2-0.2l-0.2,0.2c-0.2,0.2-0.3,0.2-0.3,0.3
			c-0.2,0.2-0.3,0.3-0.4,0.4l-0.2,0.2l0.2,0.2c0.5,0.5,1.8,1.1,3,1.1c2.1,0,3.4-1.2,3.4-3C105.8,17.8,104.4,17.2,102.8,16.5z
			 M53.4,20.1c-1,0.8-1.9,1.2-3.1,1.2c-2.4,0-3.9-2-3.9-4c0-2.2,1.7-4,3.7-4c1.2,0,2.1,0.5,2.4,1l0.2,0.2l0.2-0.2h1v-2.2h-1.2v0.4
			c-0.5-0.3-1.2-0.7-2.2-0.7c-2.9,0-5.3,2.3-5.3,5.4c0,3,2.4,5.4,5.3,5.4c1.5,0,2.9-0.5,3.9-1.5l0.2-0.2L53.4,20.1z M60.7,11.9
			c-3,0-5.3,2.3-5.3,5.4c0,3,2.2,5.4,5.3,5.4c3.1,0,5.3-2.3,5.3-5.4C65.9,14.2,63.7,11.9,60.7,11.9z M60.7,21.4
			c-2.2,0-3.7-1.7-3.7-4s1.5-4,3.7-4c2.2,0,3.7,1.7,3.7,4C64.4,19.6,62.9,21.4,60.7,21.4z M73.9,13.4h1.4v6l-5.5-7.2h-2.6v1.4h1.2
			v7.7h-1.2v1.4h4v-1.4h-1.4v-6.4l5.9,7.7h0.8v-9.1h1.2v-1.4h-4L73.9,13.4z M82.8,12.2h-3.9v1.4h1.2v7.7h-1.2v1.4h3.9
			c3.7,0,5.9-2,5.9-5.2C88.7,14.1,86.3,12.2,82.8,12.2z M81.6,13.4h1.1c2.7,0,4.6,1.4,4.6,3.7c0,2.5-1.7,4-4.4,4h-1.2L81.6,13.4
			L81.6,13.4z M96.2,21.2h-3.4v-3.3h3.3v-1.2h-3.3v-3.2h3.4V15h1.4v-2.7h-7.7v1.4h1.2v7.5h-1.2v1.4h7.6v-2.7h-1.4L96.2,21.2
			L96.2,21.2z M108.6,10.3v1.2h2.5v11.9h-2.5v1.2h3.9V10.3H108.6z"/>
	</g>
</g>
</svg>
