<?xml version="1.0" encoding="utf-8"?>
<!-- Generator: Adobe Illustrator 24.0.2, SVG Export Plug-In . SVG Version: 6.00 Build 0)  -->
<svg version="1.1" id="Capa_1" xmlns="http://www.w3.org/2000/svg" xmlns:xlink="http://www.w3.org/1999/xlink" x="0px" y="0px"
	 viewBox="0 0 245 102.4" style="enable-background:new 0 0 245 102.4;" xml:space="preserve">
<style type="text/css">
	.st0{fill:#FFFFFF;}
</style>
<path class="st0" d="M141.4,84.9l-10-23.7H95.5l-9.3,23.7H73.3L107,2.1h13.6l33.7,82.8L141.4,84.9L141.4,84.9z M127.1,50.3
	l-11.5-30.9c-0.6-1.7-0.7-2.9-0.7-3.7c0-0.2,0-0.4,0-0.6h-2.1c0,0.2,0,0.3,0,0.6c0,0.8-0.2,2.1-0.7,3.7L99.8,50.3H127.1z M217,82.7
	c-5,2.9-11.5,4.3-17.9,4.3c-23.7,0-40.9-18-40.9-43.2S175.3,0.7,199,0.7c24.4,0,40.9,18,40.9,43.2c0,15.1-7.2,29.5-18.7,36.7
	l1.5,1.5c3.1-3.1,7.7-2.4,10.1,0L244,93.2l-8.4,8.2L217,82.7z M199,12.2c-17.2,0-28,12.2-28,31.7c0,19.4,10.8,31.7,28,31.7
	c17.2,0,28-12.2,28-31.7C227,24.4,216.2,12.2,199,12.2z M1.4,84.9V2.1h12.9v79.2h2.1c0-3.5,2.7-7.2,7.2-7.2h35.2v10.8L1.4,84.9
	L1.4,84.9z"/>
</svg>
