<?xml version="1.0" encoding="utf-8"?>
<!-- Generator: Adobe Illustrator 24.0.2, SVG Export Plug-In . SVG Version: 6.00 Build 0)  -->
<svg version="1.1" id="Capa_1" xmlns="http://www.w3.org/2000/svg" xmlns:xlink="http://www.w3.org/1999/xlink" x="0px" y="0px"
	 viewBox="0 0 120 39.7" style="enable-background:new 0 0 120 39.7;" xml:space="preserve">
<style type="text/css">
	.st0{clip-path:url(#SVGID_2_);}
	.st1{clip-path:url(#SVGID_4_);fill:#989898;}
	.st2{clip-path:url(#SVGID_6_);}
	.st3{clip-path:url(#SVGID_8_);fill:#989898;}
	.st4{clip-path:url(#SVGID_10_);}
	.st5{clip-path:url(#SVGID_12_);fill:#989898;}
	.st6{clip-path:url(#SVGID_14_);}
	.st7{clip-path:url(#SVGID_16_);fill:#989898;}
	.st8{clip-path:url(#SVGID_18_);}
	.st9{clip-path:url(#SVGID_20_);fill:#989898;}
	.st10{clip-path:url(#SVGID_22_);}
	.st11{clip-path:url(#SVGID_24_);fill:#989898;}
	.st12{clip-path:url(#SVGID_26_);}
	.st13{clip-path:url(#SVGID_28_);fill:#989898;}
	.st14{clip-path:url(#SVGID_30_);}
	.st15{clip-path:url(#SVGID_32_);fill:#989898;}
	.st16{clip-path:url(#SVGID_34_);}
	.st17{clip-path:url(#SVGID_36_);fill:#989898;}
	.st18{clip-path:url(#SVGID_38_);}
	.st19{clip-path:url(#SVGID_40_);fill:#989898;}
	.st20{clip-path:url(#SVGID_42_);}
	.st21{clip-path:url(#SVGID_44_);fill:#989898;}
	.st22{clip-path:url(#SVGID_46_);}
	.st23{clip-path:url(#SVGID_48_);fill:#989898;}
	.st24{clip-path:url(#SVGID_50_);}
	.st25{clip-path:url(#SVGID_52_);fill:#989898;}
</style>
<g>
	<g>
		<g>
			<g>
				<g>
					<g>
						<defs>
							<polygon id="SVGID_1_" points="40.4,16.2 35.6,24 30.9,16.2 29.9,16.2 29.9,25.8 31.2,25.8 31.2,19.4 35.3,25.8 36,25.8 
								40,19.4 40,25.8 41.3,25.8 41.3,16.2 							"/>
						</defs>
						<clipPath id="SVGID_2_">
							<use xlink:href="#SVGID_1_"  style="overflow:visible;"/>
						</clipPath>
						<g class="st0">
							<g>
								<g>
									<g>
										<g>
											<defs>
												<rect id="SVGID_3_" x="-500.9" y="-746.6" width="1223" height="954.6"/>
											</defs>
											<clipPath id="SVGID_4_">
												<use xlink:href="#SVGID_3_"  style="overflow:visible;"/>
											</clipPath>
											<rect x="25.7" y="12" class="st1" width="20" height="18.1"/>
										</g>
									</g>
								</g>
							</g>
						</g>
					</g>
				</g>
			</g>
		</g>
	</g>
	<g>
		<g>
			<g>
				<g>
					<g>
						<defs>
							<path id="SVGID_5_" d="M59.2,18.3c-0.6-0.5-1.4-0.8-2.6-0.8h-2v7h2c1.3,0,2.1-0.3,2.6-0.8c0.7-0.7,1.1-1.6,1.1-2.7
								C60.3,20,59.8,18.9,59.2,18.3z M53.2,25.8v-9.6h3.3c1.4,0,2.5,0.3,3.2,0.9c1.2,0.8,1.9,2.3,1.9,3.9c0,1.6-0.7,3.1-1.9,3.9
								c-0.8,0.6-1.7,0.9-3.2,0.9L53.2,25.8L53.2,25.8z"/>
						</defs>
						<clipPath id="SVGID_6_">
							<use xlink:href="#SVGID_5_"  style="overflow:visible;"/>
						</clipPath>
						<g class="st2">
							<g>
								<g>
									<g>
										<g>
											<defs>
												<rect id="SVGID_7_" x="-500.9" y="-746.6" width="1223" height="954.6"/>
											</defs>
											<clipPath id="SVGID_8_">
												<use xlink:href="#SVGID_7_"  style="overflow:visible;"/>
											</clipPath>
											<rect x="49" y="12" class="st3" width="16.9" height="18.1"/>
										</g>
									</g>
								</g>
							</g>
						</g>
					</g>
				</g>
			</g>
		</g>
	</g>
	<g>
		<g>
			<g>
				<g>
					<g>
						<defs>
							<path id="SVGID_9_" d="M85.4,24.6c1.9,0,3.3-1.5,3.3-3.7c0-2-1.4-3.7-3.3-3.7c-1.9,0-3.3,1.5-3.3,3.7S83.5,24.6,85.4,24.6
								 M85.4,16.1c2.6,0,4.7,2.1,4.7,4.9s-2,4.9-4.7,4.9c-2.6,0-4.7-2.1-4.7-4.9C80.7,18.3,82.8,16.1,85.4,16.1"/>
						</defs>
						<clipPath id="SVGID_10_">
							<use xlink:href="#SVGID_9_"  style="overflow:visible;"/>
						</clipPath>
						<g class="st4">
							<g>
								<g>
									<g>
										<g>
											<defs>
												<rect id="SVGID_11_" x="-500.9" y="-746.6" width="1223" height="954.6"/>
											</defs>
											<clipPath id="SVGID_12_">
												<use xlink:href="#SVGID_11_"  style="overflow:visible;"/>
											</clipPath>
											<rect x="76.5" y="11.8" class="st5" width="17.8" height="18.3"/>
										</g>
									</g>
								</g>
							</g>
						</g>
					</g>
				</g>
			</g>
		</g>
	</g>
	<g>
		<g>
			<g>
				<g>
					<g>
						<defs>
							<path id="SVGID_13_" d="M76.5,20c0.6,0,0.9-0.2,1.1-0.3c0.3-0.3,0.3-0.5,0.3-0.8c0-0.3-0.2-0.7-0.3-0.8
								c-0.3-0.3-0.5-0.3-1.1-0.3h-3.1V20L76.5,20L76.5,20z M73.3,21.3v4.5H72v-9.6h4.5c0.8,0,1.4,0.2,1.8,0.6
								c0.6,0.4,0.9,1.2,0.9,2s-0.3,1.5-0.9,2c-0.3,0.3-0.6,0.4-1.1,0.5l2,4.6h-1.4l-2-4.5C75.7,21.3,73.3,21.3,73.3,21.3z"/>
						</defs>
						<clipPath id="SVGID_14_">
							<use xlink:href="#SVGID_13_"  style="overflow:visible;"/>
						</clipPath>
						<g class="st6">
							<g>
								<g>
									<g>
										<g>
											<defs>
												<rect id="SVGID_15_" x="-500.9" y="-746.6" width="1223" height="954.6"/>
											</defs>
											<clipPath id="SVGID_16_">
												<use xlink:href="#SVGID_15_"  style="overflow:visible;"/>
											</clipPath>
											<rect x="67.7" y="12" class="st7" width="15.8" height="18.1"/>
										</g>
									</g>
								</g>
							</g>
						</g>
					</g>
				</g>
			</g>
		</g>
	</g>
	<g>
		<g>
			<g>
				<g>
					<g>
						<defs>
							<polygon id="SVGID_17_" points="68.2,20 68.2,21.3 64.8,21.3 64.8,24.5 70.1,24.5 70.1,25.8 63.5,25.8 63.5,16.2 70,16.2 
								70,17.5 64.8,17.5 64.8,20 							"/>
						</defs>
						<clipPath id="SVGID_18_">
							<use xlink:href="#SVGID_17_"  style="overflow:visible;"/>
						</clipPath>
						<g class="st8">
							<g>
								<g>
									<g>
										<g>
											<defs>
												<rect id="SVGID_19_" x="-500.9" y="-746.6" width="1223" height="954.6"/>
											</defs>
											<clipPath id="SVGID_20_">
												<use xlink:href="#SVGID_19_"  style="overflow:visible;"/>
											</clipPath>
											<rect x="59.2" y="12" class="st9" width="15.1" height="18.1"/>
										</g>
									</g>
								</g>
							</g>
						</g>
					</g>
				</g>
			</g>
		</g>
	</g>
	<g>
		<g>
			<g>
				<g>
					<g>
						<defs>
							<path id="SVGID_21_" d="M45.6,22.7l1.7-4.2l1.7,4.2H45.6z M50.2,25.8h1.4l-3.9-9.6h-0.9l-3.9,9.6h1.4L45,24h4.4L50.2,25.8z"
								/>
						</defs>
						<clipPath id="SVGID_22_">
							<use xlink:href="#SVGID_21_"  style="overflow:visible;"/>
						</clipPath>
						<g class="st10">
							<g>
								<g>
									<g>
										<g>
											<defs>
												<rect id="SVGID_23_" x="-500.9" y="-746.6" width="1223" height="954.6"/>
											</defs>
											<clipPath id="SVGID_24_">
												<use xlink:href="#SVGID_23_"  style="overflow:visible;"/>
											</clipPath>
											<rect x="38.7" y="12" class="st11" width="17.2" height="18.1"/>
										</g>
									</g>
								</g>
							</g>
						</g>
					</g>
				</g>
			</g>
		</g>
	</g>
	<g>
		<g>
			<g>
				<g>
					<g>
						<defs>
							<rect id="SVGID_25_" x="52.1" y="29.8" width="15.4" height="1.3"/>
						</defs>
						<clipPath id="SVGID_26_">
							<use xlink:href="#SVGID_25_"  style="overflow:visible;"/>
						</clipPath>
						<g class="st12">
							<g>
								<g>
									<g>
										<g>
											<defs>
												<rect id="SVGID_27_" x="-500.9" y="-746.6" width="1223" height="954.6"/>
											</defs>
											<clipPath id="SVGID_28_">
												<use xlink:href="#SVGID_27_"  style="overflow:visible;"/>
											</clipPath>
											<rect x="47.9" y="25.6" class="st13" width="23.9" height="9.8"/>
										</g>
									</g>
								</g>
							</g>
						</g>
					</g>
				</g>
			</g>
		</g>
	</g>
	<g>
		<g>
			<g>
				<g>
					<g>
						<defs>
							<path id="SVGID_29_" d="M57.6,10c0.3,0,0.3-0.1,0.4-0.2c0.1-0.1,0.2-0.3,0.2-0.3c0-0.2-0.1-0.3-0.2-0.3C58,9.1,57.8,9,57.6,9
								h-1.3v1H57.6z M56.3,10.6v1.9h-0.6v-4h1.9c0.3,0,0.6,0.1,0.8,0.3c0.3,0.2,0.3,0.5,0.3,0.8s-0.2,0.6-0.3,0.8
								c-0.1,0.1-0.3,0.2-0.4,0.2l0.8,1.9h-0.6l-0.8-1.9H56.3z"/>
						</defs>
						<clipPath id="SVGID_30_">
							<use xlink:href="#SVGID_29_"  style="overflow:visible;"/>
						</clipPath>
						<g class="st14">
							<g>
								<g>
									<g>
										<g>
											<defs>
												<rect id="SVGID_31_" x="-500.9" y="-746.6" width="1223" height="954.6"/>
											</defs>
											<clipPath id="SVGID_32_">
												<use xlink:href="#SVGID_31_"  style="overflow:visible;"/>
											</clipPath>
											<rect x="51.5" y="4.2" class="st15" width="11.5" height="12.5"/>
										</g>
									</g>
								</g>
							</g>
						</g>
					</g>
				</g>
			</g>
		</g>
	</g>
	<g>
		<g>
			<g>
				<g>
					<g>
						<defs>
							<polygon id="SVGID_33_" points="68.1,8.5 68.1,12.5 70.8,12.5 70.8,12 68.6,12 68.6,10.6 70,10.6 70,10 68.6,10 68.6,9 
								70.8,9 70.8,8.5 							"/>
						</defs>
						<clipPath id="SVGID_34_">
							<use xlink:href="#SVGID_33_"  style="overflow:visible;"/>
						</clipPath>
						<g class="st16">
							<g>
								<g>
									<g>
										<g>
											<defs>
												<rect id="SVGID_35_" x="-500.9" y="-746.6" width="1223" height="954.6"/>
											</defs>
											<clipPath id="SVGID_36_">
												<use xlink:href="#SVGID_35_"  style="overflow:visible;"/>
											</clipPath>
											<rect x="63.8" y="4.2" class="st17" width="11.2" height="12.5"/>
										</g>
									</g>
								</g>
							</g>
						</g>
					</g>
				</g>
			</g>
		</g>
	</g>
	<g>
		<g>
			<g>
				<g>
					<g>
						<defs>
							<path id="SVGID_37_" d="M53.4,9.4l0.7,1.7h-1.4L53.4,9.4z M53.1,8.5l-1.6,4h0.6l0.3-0.8h1.8l0.3,0.8h0.6l-1.6-4H53.1z"/>
						</defs>
						<clipPath id="SVGID_38_">
							<use xlink:href="#SVGID_37_"  style="overflow:visible;"/>
						</clipPath>
						<g class="st18">
							<g>
								<g>
									<g>
										<g>
											<defs>
												<rect id="SVGID_39_" x="-500.9" y="-746.6" width="1223" height="954.6"/>
											</defs>
											<clipPath id="SVGID_40_">
												<use xlink:href="#SVGID_39_"  style="overflow:visible;"/>
											</clipPath>
											<rect x="47.3" y="4.2" class="st19" width="12.1" height="12.5"/>
										</g>
									</g>
								</g>
							</g>
						</g>
					</g>
				</g>
			</g>
		</g>
	</g>
	<g>
		<g>
			<g>
				<g>
					<g>
						<defs>
							<path id="SVGID_41_" d="M61.3,12c0.3,0,0.5-0.1,0.8-0.3l-0.9-1l0.4-0.3l0.9,1c0.2-0.3,0.3-0.6,0.3-0.9c0-0.8-0.6-1.5-1.4-1.5
								S60,9.6,60,10.4C59.9,11.4,60.5,12,61.3,12 M61.3,8.4c1.1,0,2,0.8,2,2c0,0.5-0.2,1-0.4,1.4l0.6,0.7l-0.3,0.3l-0.7-0.7
								c-0.3,0.3-0.7,0.3-1.1,0.3c-1.1,0-2-0.8-2-2C59.4,9.3,60.2,8.4,61.3,8.4"/>
						</defs>
						<clipPath id="SVGID_42_">
							<use xlink:href="#SVGID_41_"  style="overflow:visible;"/>
						</clipPath>
						<g class="st20">
							<g>
								<g>
									<g>
										<g>
											<defs>
												<rect id="SVGID_43_" x="-500.9" y="-746.6" width="1223" height="954.6"/>
											</defs>
											<clipPath id="SVGID_44_">
												<use xlink:href="#SVGID_43_"  style="overflow:visible;"/>
											</clipPath>
											<rect x="55.2" y="4.2" class="st21" width="12.5" height="12.8"/>
										</g>
									</g>
								</g>
							</g>
						</g>
					</g>
				</g>
			</g>
		</g>
	</g>
	<g>
		<g>
			<g>
				<g>
					<g>
						<defs>
							<path id="SVGID_45_" d="M64.3,12c-0.3-0.3-0.4-0.7-0.4-1.2V8.4h0.5v2.4c0,0.3,0.1,0.6,0.3,0.8c0.2,0.3,0.5,0.3,0.8,0.3
								c0.3,0,0.6-0.2,0.8-0.3c0.2-0.2,0.3-0.4,0.3-0.8V8.4H67v2.4c0,0.5-0.2,0.9-0.4,1.2c-0.3,0.3-0.8,0.5-1.2,0.5
								C65,12.6,64.6,12.3,64.3,12"/>
						</defs>
						<clipPath id="SVGID_46_">
							<use xlink:href="#SVGID_45_"  style="overflow:visible;"/>
						</clipPath>
						<g class="st22">
							<g>
								<g>
									<g>
										<g>
											<defs>
												<rect id="SVGID_47_" x="-500.9" y="-746.6" width="1223" height="954.6"/>
											</defs>
											<clipPath id="SVGID_48_">
												<use xlink:href="#SVGID_47_"  style="overflow:visible;"/>
											</clipPath>
											<rect x="59.7" y="4.2" class="st23" width="11.7" height="12.6"/>
										</g>
									</g>
								</g>
							</g>
						</g>
					</g>
				</g>
			</g>
		</g>
	</g>
	<g>
		<g>
			<g>
				<g>
					<g>
						<defs>
							<path id="SVGID_49_" d="M51,9.9c-0.1,0.1-0.3,0.2-0.4,0.2h-1.3v-1h1.3c0.3,0,0.3,0.1,0.4,0.2c0.1,0.1,0.2,0.3,0.2,0.3
								S51.1,9.9,51,9.9 M51.3,8.8c-0.2-0.2-0.4-0.3-0.8-0.3h-1.9v4h0.6v-1.9h1.4c0.3,0,0.6-0.1,0.8-0.3c0.3-0.2,0.3-0.5,0.3-0.8
								C51.7,9.2,51.6,8.9,51.3,8.8"/>
						</defs>
						<clipPath id="SVGID_50_">
							<use xlink:href="#SVGID_49_"  style="overflow:visible;"/>
						</clipPath>
						<g class="st24">
							<g>
								<g>
									<g>
										<g>
											<defs>
												<rect id="SVGID_51_" x="-500.9" y="-746.6" width="1223" height="954.6"/>
											</defs>
											<clipPath id="SVGID_52_">
												<use xlink:href="#SVGID_51_"  style="overflow:visible;"/>
											</clipPath>
											<rect x="44.5" y="4.2" class="st25" width="11.5" height="12.5"/>
										</g>
									</g>
								</g>
							</g>
						</g>
					</g>
				</g>
			</g>
		</g>
	</g>
</g>
</svg>
