<?xml version="1.0" encoding="utf-8"?>
<!-- Generator: Adobe Illustrator 24.0.2, SVG Export Plug-In . SVG Version: 6.00 Build 0)  -->
<svg version="1.1" id="Capa_1" xmlns="http://www.w3.org/2000/svg" xmlns:xlink="http://www.w3.org/1999/xlink" x="0px" y="0px"
	 viewBox="0 0 92 28.3" style="enable-background:new 0 0 92 28.3;" xml:space="preserve">
<style type="text/css">
	.st0{enable-background:new    ;}
	.st1{clip-path:url(#SVGID_2_);}
	.st2{clip-path:url(#SVGID_4_);}
	.st3{clip-path:url(#SVGID_6_);fill:#989898;}
	.st4{fill:none;}
	.st5{clip-path:url(#SVGID_8_);}
	.st6{clip-path:url(#SVGID_10_);fill:#989898;}
	.st7{clip-path:url(#SVGID_12_);}
	.st8{clip-path:url(#SVGID_14_);fill:#989898;}
	.st9{clip-path:url(#SVGID_16_);}
	.st10{clip-path:url(#SVGID_18_);fill:#989898;}
	.st11{clip-path:url(#SVGID_20_);}
	.st12{clip-path:url(#SVGID_22_);enable-background:new    ;}
	.st13{clip-path:url(#SVGID_24_);}
	.st14{clip-path:url(#SVGID_26_);}
	.st15{clip-path:url(#SVGID_28_);fill:#989898;}
	.st16{clip-path:url(#SVGID_30_);}
	.st17{clip-path:url(#SVGID_32_);fill:#989898;}
	.st18{clip-path:url(#SVGID_34_);}
	.st19{clip-path:url(#SVGID_36_);fill:#989898;}
	.st20{clip-path:url(#SVGID_38_);}
	.st21{clip-path:url(#SVGID_40_);fill:#989898;}
	.st22{clip-path:url(#SVGID_42_);}
	.st23{clip-path:url(#SVGID_44_);fill:#989898;}
	.st24{clip-path:url(#SVGID_46_);}
	.st25{clip-path:url(#SVGID_48_);fill:#989898;}
	.st26{clip-path:url(#SVGID_50_);}
	.st27{clip-path:url(#SVGID_52_);fill:#989898;}
	.st28{clip-path:url(#SVGID_54_);}
	.st29{clip-path:url(#SVGID_56_);fill:#989898;}
	.st30{clip-path:url(#SVGID_58_);}
	.st31{clip-path:url(#SVGID_60_);fill:#989898;}
</style>
<g>
	<g class="st0">
		<g>
			<g>
				<g>
					<g>
						<g>
							<defs>
								<rect id="SVGID_1_" y="9.2" width="92" height="10"/>
							</defs>
							<clipPath id="SVGID_2_">
								<use xlink:href="#SVGID_1_"  style="overflow:visible;"/>
							</clipPath>
							<g class="st1">
								<g>
									<g>
										<g>
											<g>
												<defs>
													<path id="SVGID_3_" d="M2.7,10.4v3.7c0.7,0,1.3,0,1.7-0.1s0.7-0.3,1-0.6c0.2-0.3,0.4-0.8,0.4-1.4
														c0-0.4-0.1-0.8-0.2-1.1c-0.2-0.3-0.4-0.6-0.7-0.7C4.6,10,4.3,9.9,3.8,9.9c-0.1,0-0.2,0-0.2,0c-0.1,0-0.2,0-0.4,0
														s-0.3,0-0.3,0C2.8,9.9,2.7,10.1,2.7,10.4 M4.8,14.2l3,3.4c0.2,0.3,0.5,0.5,0.6,0.6c0.2,0.1,0.4,0.2,0.7,0.2h82.1v0.3
														c0,0-82.1,0-82.2,0c-0.2,0-0.4,0-0.5,0c-0.2,0-0.4,0-0.7,0c-0.2,0-0.4,0-0.6,0c-0.1,0-0.3,0-0.5,0L6,17.9L3.9,15
														c-0.1-0.1-0.2-0.2-0.2-0.3c-0.1-0.1-0.2-0.2-0.2-0.2c-0.1,0-0.1-0.1-0.2-0.1s-0.2,0-0.4,0v1.7c0,1,0,1.6,0.1,1.9
														c0.1,0.2,0.2,0.4,0.4,0.4c0.2,0.1,0.5,0.1,0.8,0.1v0.3c-0.3,0-0.6,0-0.9,0s-0.6,0-1.1,0c-0.2,0-0.5,0-0.7,0
														s-0.5,0-0.7,0s-0.5,0-0.7,0v-0.3c0.3,0,0.6,0,0.8-0.1s0.3-0.2,0.4-0.4c0.1-0.3,0.1-0.9,0.1-1.9v-4c0-1,0-1.6-0.1-1.9
														C1.2,10,1.1,9.9,0.9,9.8C0.7,9.7,0.4,9.7,0.1,9.7V9.4c0.3,0,0.5,0,0.8,0s0.5,0,0.8,0s0.5,0,0.8,0s0.6,0,0.8,0
														s0.6,0,1,0c0.6,0,1.1,0.1,1.6,0.2C6.4,9.7,6.8,10,7,10.3c0.3,0.3,0.4,0.8,0.4,1.4c0,0.5-0.1,0.9-0.3,1.3
														c-0.2,0.4-0.5,0.6-0.9,0.8C5.7,14,5.3,14.1,4.8,14.2"/>
												</defs>
												<clipPath id="SVGID_4_">
													<use xlink:href="#SVGID_3_"  style="overflow:visible;"/>
												</clipPath>
												<g class="st2">
													<g>
														<g>
															<g>
																<g>
																	<defs>
																		<rect id="SVGID_5_" y="9.2" width="92" height="10"/>
																	</defs>
																	<clipPath id="SVGID_6_">
																		<use xlink:href="#SVGID_5_"  style="overflow:visible;"/>
																	</clipPath>
																	<rect x="-5" y="4.4" class="st3" width="101.3" height="19.3"/>
																</g>
															</g>
														</g>
													</g>
												</g>
											</g>
										</g>
									</g>
								</g>
							</g>
						</g>
					</g>
				</g>
			</g>
		</g>
	</g>
	<rect y="9.4" class="st4" width="91.3" height="9.3"/>
	<g>
		<g>
			<g>
				<g>
					<g>
						<defs>
							<path id="SVGID_7_" d="M11.1,13.2v3c0,0.4,0,0.6,0,0.7s0.1,0.3,0.2,0.3c0.1,0.1,0.4,0.1,0.7,0.1v0.2c-0.7,0-1.2,0-1.5,0
								s-0.8,0-1.5,0v-0.2c0.3,0,0.5,0,0.7-0.1c0.1-0.1,0.2-0.2,0.2-0.3s0-0.4,0-0.7v-3c0-0.4,0-0.6,0-0.7c0-0.1-0.1-0.3-0.2-0.3
								c-0.1-0.1-0.4-0.1-0.7-0.1v-0.3c0.7,0,1.2,0,1.5,0s0.8,0,1.5,0v0.3c-0.3,0-0.5,0-0.7,0.1c-0.1,0.1-0.2,0.2-0.2,0.3
								S11.1,12.9,11.1,13.2"/>
						</defs>
						<clipPath id="SVGID_8_">
							<use xlink:href="#SVGID_7_"  style="overflow:visible;"/>
						</clipPath>
						<g class="st5">
							<g>
								<g>
									<g>
										<g>
											<defs>
												<rect id="SVGID_9_" x="-967" y="-959.8" width="1440" height="1124"/>
											</defs>
											<clipPath id="SVGID_10_">
												<use xlink:href="#SVGID_9_"  style="overflow:visible;"/>
											</clipPath>
											<rect x="4.1" y="6.8" class="st6" width="13" height="15.8"/>
										</g>
									</g>
								</g>
							</g>
						</g>
					</g>
				</g>
			</g>
		</g>
	</g>
	<g>
		<g>
			<g>
				<g>
					<g>
						<defs>
							<path id="SVGID_11_" d="M18.4,13.2v4.5H18l-4-4.8l0,0v3.3c0,0.3,0,0.6,0.1,0.7c0.1,0.2,0.2,0.3,0.3,0.3
								c0.1,0.1,0.4,0.1,0.6,0.1v0.2c-0.5,0-0.9,0-1.2,0s-0.6,0-1.2,0v-0.2c0.3,0,0.5,0,0.6-0.1s0.2-0.2,0.3-0.3
								c0.1-0.2,0.1-0.4,0.1-0.7v-3.7c-0.2-0.3-0.5-0.4-1-0.4v-0.3c0.3,0,0.5,0,0.8,0c0.2,0,0.5,0,1,0l3.6,4.4l0,0v-3
								c0-0.3,0-0.6-0.1-0.7c-0.1-0.2-0.2-0.3-0.3-0.3c-0.1-0.1-0.4-0.1-0.6-0.1v-0.3c0.5,0,0.9,0,1.2,0s0.7,0,1.2,0v0.3
								c-0.3,0-0.5,0-0.6,0.1c-0.1,0.1-0.2,0.2-0.3,0.3S18.4,12.9,18.4,13.2"/>
						</defs>
						<clipPath id="SVGID_12_">
							<use xlink:href="#SVGID_11_"  style="overflow:visible;"/>
						</clipPath>
						<g class="st7">
							<g>
								<g>
									<g>
										<g>
											<defs>
												<rect id="SVGID_13_" x="-967" y="-959.8" width="1440" height="1124"/>
											</defs>
											<clipPath id="SVGID_14_">
												<use xlink:href="#SVGID_13_"  style="overflow:visible;"/>
											</clipPath>
											<rect x="7.7" y="6.8" class="st8" width="16.8" height="15.9"/>
										</g>
									</g>
								</g>
							</g>
						</g>
					</g>
				</g>
			</g>
		</g>
	</g>
	<g>
		<g>
			<g>
				<g>
					<g>
						<defs>
							<path id="SVGID_15_" d="M25.6,15.6v2h-0.1l-0.2-0.5c-0.3,0.2-0.7,0.4-1,0.5s-0.7,0.2-1.1,0.2c-0.7,0-1.2-0.1-1.7-0.4
								s-0.8-0.6-1-1c-0.2-0.4-0.3-1-0.3-1.6s0.1-1.1,0.4-1.6s0.6-0.8,1.1-1.1c0.5-0.3,1-0.4,1.7-0.4c0.6,0,1.2,0.2,1.9,0.5l0.2-0.3
								h0.1l0.1,1.7h-0.2c-0.1-0.3-0.2-0.6-0.4-0.9c-0.2-0.2-0.4-0.4-0.7-0.6c-0.3-0.1-0.6-0.2-0.9-0.2c-0.5,0-0.9,0.1-1.2,0.4
								c-0.3,0.3-0.5,0.6-0.7,1c-0.1,0.4-0.2,0.9-0.2,1.4s0.1,1,0.2,1.4s0.3,0.7,0.6,1c0.3,0.3,0.7,0.4,1.2,0.4c0.4,0,0.7-0.1,1-0.3
								c0.3-0.2,0.5-0.4,0.7-0.7C25.3,16.2,25.4,15.9,25.6,15.6L25.6,15.6L25.6,15.6z"/>
						</defs>
						<clipPath id="SVGID_16_">
							<use xlink:href="#SVGID_15_"  style="overflow:visible;"/>
						</clipPath>
						<g class="st9">
							<g>
								<g>
									<g>
										<g>
											<defs>
												<rect id="SVGID_17_" x="-967" y="-959.8" width="1440" height="1124"/>
											</defs>
											<clipPath id="SVGID_18_">
												<use xlink:href="#SVGID_17_"  style="overflow:visible;"/>
											</clipPath>
											<rect x="15" y="6.7" class="st10" width="15.5" height="16.1"/>
										</g>
									</g>
								</g>
							</g>
						</g>
					</g>
				</g>
			</g>
		</g>
	</g>
	<g>
		<g>
			<g>
				<g>
					<g>
						<defs>
							<rect id="SVGID_19_" x="26.5" y="9.2" width="6.4" height="8.5"/>
						</defs>
						<clipPath id="SVGID_20_">
							<use xlink:href="#SVGID_19_"  style="overflow:visible;"/>
						</clipPath>
						<g class="st11">
							<g>
								<g>
									<g>
										<g>
											<defs>
												<rect id="SVGID_21_" x="-967" y="-959.8" width="1440" height="1124"/>
											</defs>
											<clipPath id="SVGID_22_">
												<use xlink:href="#SVGID_21_"  style="overflow:visible;"/>
											</clipPath>
											<g class="st12">
												<g>
													<g>
														<g>
															<g>
																<g>
																	<defs>
																		<rect id="SVGID_23_" x="26" y="9.2" width="7" height="9"/>
																	</defs>
																	<clipPath id="SVGID_24_">
																		<use xlink:href="#SVGID_23_"  style="overflow:visible;"/>
																	</clipPath>
																	<g class="st13">
																		<g>
																			<g>
																				<g>
																					<g>
																						<defs>
																							<path id="SVGID_25_" d="M28.8,11h-0.5l1.9-1.5c0.2-0.2,0.4-0.3,0.5-0.3s0.2,0,0.3,0.1
																								c0.1,0.1,0.1,0.2,0.1,0.3c0,0.2-0.1,0.3-0.2,0.4c-0.1,0.1-0.3,0.2-0.6,0.3L28.8,11z M31.6,14.7
																								c0-0.5-0.1-1-0.2-1.4c-0.1-0.4-0.3-0.8-0.6-1c-0.3-0.3-0.7-0.4-1.1-0.4c-0.7,0-1.1,0.3-1.5,0.8
																								c-0.3,0.5-0.5,1.2-0.5,2s0.2,1.4,0.5,2c0.3,0.5,0.8,0.8,1.5,0.8c0.5,0,0.8-0.1,1.1-0.4
																								c0.3-0.3,0.5-0.6,0.6-1C31.6,15.7,31.6,15.2,31.6,14.7z M32.9,14.7c0,0.6-0.1,1.1-0.4,1.6
																								c-0.3,0.5-0.6,0.8-1.1,1.1c-0.5,0.3-1,0.4-1.7,0.4c-0.6,0-1.2-0.1-1.7-0.4s-0.9-0.6-1.1-1.1
																								c-0.3-0.5-0.4-1-0.4-1.6s0.1-1.1,0.4-1.6s0.6-0.8,1.1-1.1c0.5-0.3,1.1-0.4,1.7-0.4s1.2,0.1,1.7,0.4
																								s0.9,0.6,1.1,1.1C32.8,13.6,32.9,14.1,32.9,14.7z"/>
																						</defs>
																						<clipPath id="SVGID_26_">
																							<use xlink:href="#SVGID_25_"  style="overflow:visible;"/>
																						</clipPath>
																						<g class="st14">
																							<g>
																								<g>
																									<g>
																										<g>
																											<defs>
																												<rect id="SVGID_27_" x="26" y="9.2" width="7" height="9"/>
																											</defs>
																											<clipPath id="SVGID_28_">
																												<use xlink:href="#SVGID_27_"  style="overflow:visible;"/>
																											</clipPath>
																											<rect x="21.5" y="4.2" class="st15" width="16.4" height="18.5"/>
																										</g>
																									</g>
																								</g>
																							</g>
																						</g>
																					</g>
																				</g>
																			</g>
																		</g>
																	</g>
																</g>
															</g>
														</g>
													</g>
												</g>
											</g>
										</g>
									</g>
								</g>
							</g>
						</g>
					</g>
				</g>
			</g>
		</g>
	</g>
	<g>
		<g>
			<g>
				<g>
					<g>
						<defs>
							<path id="SVGID_29_" d="M39.2,13.2v4.5h-0.4l-4-4.8l0,0v3.3c0,0.3,0,0.6,0.1,0.7c0.1,0.2,0.2,0.3,0.3,0.3
								c0.1,0.1,0.4,0.1,0.6,0.1v0.2c-0.5,0-0.9,0-1.2,0s-0.6,0-1.2,0v-0.2c0.3,0,0.5,0,0.6-0.1s0.2-0.2,0.3-0.3
								c0.1-0.2,0.1-0.4,0.1-0.7v-3.7c-0.2-0.3-0.5-0.4-1-0.4v-0.3c0.3,0,0.5,0,0.8,0c0.2,0,0.5,0,1,0l3.6,4.4l0,0v-3
								c0-0.3,0-0.6-0.1-0.7c-0.1-0.2-0.2-0.3-0.3-0.3c-0.1-0.1-0.4-0.1-0.6-0.1v-0.3c0.5,0,0.9,0,1.2,0s0.7,0,1.2,0v0.3
								c-0.3,0-0.5,0-0.6,0.1c-0.1,0.1-0.2,0.2-0.3,0.3C39.3,12.6,39.2,12.9,39.2,13.2"/>
						</defs>
						<clipPath id="SVGID_30_">
							<use xlink:href="#SVGID_29_"  style="overflow:visible;"/>
						</clipPath>
						<g class="st16">
							<g>
								<g>
									<g>
										<g>
											<defs>
												<rect id="SVGID_31_" x="-967" y="-959.8" width="1440" height="1124"/>
											</defs>
											<clipPath id="SVGID_32_">
												<use xlink:href="#SVGID_31_"  style="overflow:visible;"/>
											</clipPath>
											<rect x="28.5" y="6.8" class="st17" width="16.8" height="15.9"/>
										</g>
									</g>
								</g>
							</g>
						</g>
					</g>
				</g>
			</g>
		</g>
	</g>
	<g>
		<g>
			<g>
				<g>
					<g>
						<defs>
							<path id="SVGID_33_" d="M45.7,12.4v4.2c0,0.3,0.1,0.5,0.3,0.6s0.5,0.2,0.8,0.2c0.8,0,1.3-0.2,1.6-0.6s0.4-1,0.4-1.8
								c0-0.6-0.1-1-0.2-1.5c-0.2-0.4-0.4-0.8-0.8-1c-0.3-0.2-0.8-0.4-1.4-0.4c-0.4,0-0.6,0-0.7,0C45.7,12.1,45.7,12.2,45.7,12.4
								 M44.6,16.2v-3c0-0.3,0-0.6-0.1-0.7c0-0.2-0.1-0.3-0.3-0.3c-0.1-0.1-0.4-0.1-0.7-0.1v-0.3c0.6,0,1.1,0,1.4,0
								c0.2,0,0.5,0,0.9,0s0.7,0,0.8,0c0.5,0,1,0.1,1.4,0.2c0.4,0.1,0.8,0.3,1.1,0.6c0.3,0.3,0.5,0.6,0.7,0.9
								c0.2,0.4,0.2,0.8,0.2,1.2c0,0.9-0.3,1.6-0.9,2.1s-1.4,0.8-2.4,0.8c-0.2,0-0.3,0-0.4,0s-0.2,0-0.3,0s-0.2,0-0.4,0
								c-0.1,0-0.3,0-0.5,0c-0.3,0-0.8,0-1.5,0v-0.2c0.3,0,0.5,0,0.7-0.1c0.1-0.1,0.2-0.2,0.3-0.3C44.6,16.8,44.6,16.5,44.6,16.2"/>
						</defs>
						<clipPath id="SVGID_34_">
							<use xlink:href="#SVGID_33_"  style="overflow:visible;"/>
						</clipPath>
						<g class="st18">
							<g>
								<g>
									<g>
										<g>
											<defs>
												<rect id="SVGID_35_" x="-967" y="-959.8" width="1440" height="1124"/>
											</defs>
											<clipPath id="SVGID_36_">
												<use xlink:href="#SVGID_35_"  style="overflow:visible;"/>
											</clipPath>
											<rect x="38.6" y="6.8" class="st19" width="16.5" height="15.8"/>
										</g>
									</g>
								</g>
							</g>
						</g>
					</g>
				</g>
			</g>
		</g>
	</g>
	<g>
		<g>
			<g>
				<g>
					<g>
						<defs>
							<path id="SVGID_37_" d="M51.7,16.2v-3c0-0.4,0-0.6,0-0.7c0-0.1-0.1-0.3-0.2-0.3c-0.1-0.1-0.4-0.1-0.7-0.1v-0.3
								c0.7,0,1.2,0,1.5,0c0.8,0,1.9,0,3.4,0v1.5h-0.2c0-0.3-0.1-0.6-0.2-0.8c-0.1-0.2-0.2-0.3-0.4-0.4C54.7,12,54.5,12,54.1,12H53
								c-0.1,0-0.2,0.1-0.2,0.2v2.2c0.4,0,0.7,0,0.9-0.1s0.3-0.2,0.4-0.4s0.1-0.5,0.2-0.8h0.2c0,0.6,0,1,0,1.3s0,0.7,0,1.3h-0.2
								c0-0.3-0.1-0.5-0.2-0.7c-0.1-0.1-0.2-0.2-0.4-0.3c-0.2,0-0.5-0.1-0.9-0.1v1.8c0,0.3,0.1,0.5,0.3,0.7c0.2,0.1,0.5,0.2,0.9,0.2
								s0.8,0,1-0.1s0.4-0.2,0.6-0.4c0.1-0.2,0.2-0.5,0.3-0.9h0.2L56,17.5c-1.7,0-2.9,0-3.8,0c-0.3,0-0.8,0-1.5,0v-0.2
								c0.3,0,0.5,0,0.7-0.1c0.1-0.1,0.2-0.2,0.2-0.3C51.6,16.8,51.7,16.5,51.7,16.2"/>
						</defs>
						<clipPath id="SVGID_38_">
							<use xlink:href="#SVGID_37_"  style="overflow:visible;"/>
						</clipPath>
						<g class="st20">
							<g>
								<g>
									<g>
										<g>
											<defs>
												<rect id="SVGID_39_" x="-967" y="-959.8" width="1440" height="1124"/>
											</defs>
											<clipPath id="SVGID_40_">
												<use xlink:href="#SVGID_39_"  style="overflow:visible;"/>
											</clipPath>
											<rect x="45.7" y="6.8" class="st21" width="15.4" height="15.8"/>
										</g>
									</g>
								</g>
							</g>
						</g>
					</g>
				</g>
			</g>
		</g>
	</g>
	<g>
		<g>
			<g>
				<g>
					<g>
						<defs>
							<path id="SVGID_41_" d="M58.6,13.2V16c0,0.3,0,0.5,0,0.6c0,0.2,0.1,0.3,0.2,0.4c0.1,0.1,0.2,0.2,0.4,0.2s0.4,0.1,0.8,0.1
								s0.8-0.1,1-0.2c0.2-0.1,0.4-0.3,0.5-0.5c0.1-0.2,0.2-0.5,0.2-0.8h0.2l-0.1,1.7c-0.9,0-1.7,0-2.5,0s-1.4,0-1.8,0s-0.8,0-1.1,0
								v-0.2c0.3,0,0.5,0,0.7-0.1c0.1-0.1,0.2-0.2,0.2-0.3s0-0.4,0-0.7v-3c0-0.4,0-0.6,0-0.7c0-0.1-0.1-0.3-0.2-0.3
								c-0.1-0.1-0.4-0.1-0.7-0.1v-0.3c0.7,0,1.2,0,1.5,0s0.8,0,1.5,0v0.3c-0.3,0-0.5,0-0.7,0.1c-0.1,0.1-0.2,0.2-0.2,0.3
								C58.7,12.6,58.6,12.9,58.6,13.2"/>
						</defs>
						<clipPath id="SVGID_42_">
							<use xlink:href="#SVGID_41_"  style="overflow:visible;"/>
						</clipPath>
						<g class="st22">
							<g>
								<g>
									<g>
										<g>
											<defs>
												<rect id="SVGID_43_" x="-967" y="-959.8" width="1440" height="1124"/>
											</defs>
											<clipPath id="SVGID_44_">
												<use xlink:href="#SVGID_43_"  style="overflow:visible;"/>
											</clipPath>
											<rect x="51.6" y="6.8" class="st23" width="15.5" height="15.8"/>
										</g>
									</g>
								</g>
							</g>
						</g>
					</g>
				</g>
			</g>
		</g>
	</g>
	<g>
		<g>
			<g>
				<g>
					<g>
						<defs>
							<path id="SVGID_45_" d="M67.3,13.2V16c0,0.3,0,0.5,0,0.6c0,0.2,0.1,0.3,0.2,0.4s0.2,0.2,0.4,0.2s0.4,0.1,0.8,0.1
								s0.8-0.1,1-0.2c0.2-0.1,0.4-0.3,0.5-0.5c0.1-0.2,0.2-0.5,0.2-0.8h0.4l-0.1,1.7c-0.9,0-1.7,0-2.5,0s-1.4,0-1.8,0s-0.8,0-1.1,0
								v-0.2c0.3,0,0.5,0,0.7-0.1c0.1-0.1,0.2-0.2,0.2-0.3s0-0.4,0-0.7v-3c0-0.4,0-0.6,0-0.7c0-0.1-0.1-0.3-0.2-0.3
								c-0.1-0.1-0.4-0.1-0.7-0.1v-0.3c0.7,0,1.2,0,1.5,0s0.8,0,1.5,0v0.3c-0.3,0-0.5,0-0.7,0.1c-0.1,0.1-0.2,0.2-0.2,0.3
								S67.3,12.9,67.3,13.2"/>
						</defs>
						<clipPath id="SVGID_46_">
							<use xlink:href="#SVGID_45_"  style="overflow:visible;"/>
						</clipPath>
						<g class="st24">
							<g>
								<g>
									<g>
										<g>
											<defs>
												<rect id="SVGID_47_" x="-967" y="-959.8" width="1440" height="1124"/>
											</defs>
											<clipPath id="SVGID_48_">
												<use xlink:href="#SVGID_47_"  style="overflow:visible;"/>
											</clipPath>
											<rect x="60.3" y="6.8" class="st25" width="15.5" height="15.8"/>
										</g>
									</g>
								</g>
							</g>
						</g>
					</g>
				</g>
			</g>
		</g>
	</g>
	<g>
		<g>
			<g>
				<g>
					<g>
						<defs>
							<path id="SVGID_49_" d="M72.7,15.2h1.8l-0.9-2.3L72.7,15.2z M73.8,11.7h0.4l1.9,4.6c0.1,0.3,0.2,0.6,0.3,0.7
								c0.1,0.1,0.1,0.2,0.3,0.3c0.1,0.1,0.3,0.1,0.5,0.1v0.2c-0.6,0-1.1,0-1.4,0s-0.8,0-1.4,0v-0.2c0.3,0,0.5,0,0.6,0
								s0.2-0.1,0.2-0.2c0-0.1,0-0.3-0.1-0.4l-0.4-1.1h-2.2L72.3,16c-0.1,0.3-0.2,0.5-0.2,0.6S72,16.9,72,17c0,0.2,0.1,0.3,0.2,0.4
								c0.1,0,0.3,0.1,0.6,0.1v0.2c-0.5,0-0.8,0-1.1,0c-0.2,0-0.6,0-1.1,0v-0.2c0.3,0,0.5-0.1,0.7-0.3c0.2-0.2,0.3-0.4,0.4-0.7
								c0.1-0.3,0.3-0.7,0.4-1.1L73.8,11.7z"/>
						</defs>
						<clipPath id="SVGID_50_">
							<use xlink:href="#SVGID_49_"  style="overflow:visible;"/>
						</clipPath>
						<g class="st26">
							<g>
								<g>
									<g>
										<g>
											<defs>
												<rect id="SVGID_51_" x="-967" y="-959.8" width="1440" height="1124"/>
											</defs>
											<clipPath id="SVGID_52_">
												<use xlink:href="#SVGID_51_"  style="overflow:visible;"/>
											</clipPath>
											<rect x="65.7" y="6.7" class="st27" width="16.4" height="15.9"/>
										</g>
									</g>
								</g>
							</g>
						</g>
					</g>
				</g>
			</g>
		</g>
	</g>
	<g>
		<g>
			<g>
				<g>
					<g>
						<defs>
							<path id="SVGID_53_" d="M82.8,12.2l0.2-0.3h0.1l0.1,1.7H83c-0.1-0.3-0.2-0.6-0.4-0.9c-0.2-0.2-0.4-0.4-0.7-0.6
								c-0.3-0.1-0.6-0.2-0.9-0.2c-0.5,0-0.9,0.1-1.2,0.4c-0.3,0.3-0.5,0.6-0.7,1c-0.1,0.4-0.2,0.9-0.2,1.4s0.1,1,0.2,1.4
								s0.3,0.7,0.6,1c0.3,0.3,0.7,0.4,1.2,0.4s0.9-0.1,1.1-0.4s0.4-0.6,0.4-0.9c0-0.3-0.1-0.5-0.2-0.6s-0.4-0.2-0.7-0.2v-0.2h2.8
								v0.2c-0.3,0-0.5,0-0.6,0.1s-0.2,0.2-0.2,0.5v1c-0.2,0-0.5,0-0.6,0.1c-0.2,0.1-0.4,0.1-0.7,0.3c-0.3,0.1-0.5,0.2-0.7,0.2
								c-0.2,0.1-0.5,0.1-0.8,0.1c-0.7,0-1.2-0.1-1.7-0.4c-0.5-0.2-0.8-0.6-1-1c-0.2-0.5-0.3-1-0.3-1.6s0.1-1.1,0.4-1.6
								s0.6-0.8,1.1-1.1c0.5-0.3,1-0.4,1.7-0.4C81.6,11.7,82.2,11.8,82.8,12.2"/>
						</defs>
						<clipPath id="SVGID_54_">
							<use xlink:href="#SVGID_53_"  style="overflow:visible;"/>
						</clipPath>
						<g class="st28">
							<g>
								<g>
									<g>
										<g>
											<defs>
												<rect id="SVGID_55_" x="-967" y="-959.8" width="1440" height="1124"/>
											</defs>
											<clipPath id="SVGID_56_">
												<use xlink:href="#SVGID_55_"  style="overflow:visible;"/>
											</clipPath>
											<rect x="72.8" y="6.7" class="st29" width="16.6" height="16.1"/>
										</g>
									</g>
								</g>
							</g>
						</g>
					</g>
				</g>
			</g>
		</g>
	</g>
	<g>
		<g>
			<g>
				<g>
					<g>
						<defs>
							<path id="SVGID_57_" d="M90,14.7c0-0.5-0.1-1-0.2-1.4c-0.1-0.4-0.3-0.8-0.6-1c-0.3-0.3-0.7-0.4-1.1-0.4
								c-0.7,0-1.1,0.3-1.5,0.8c-0.3,0.5-0.5,1.2-0.5,2s0.2,1.4,0.5,2c0.3,0.5,0.8,0.8,1.5,0.8c0.5,0,0.8-0.1,1.1-0.4
								c0.3-0.3,0.5-0.6,0.6-1C89.9,15.7,90,15.2,90,14.7 M91.2,14.7c0,0.6-0.1,1.1-0.4,1.6s-0.6,0.8-1.1,1.1
								c-0.5,0.3-1,0.4-1.7,0.4c-0.6,0-1.2-0.1-1.7-0.4s-0.9-0.6-1.1-1.1c-0.3-0.5-0.4-1-0.4-1.6s0.1-1.1,0.4-1.6s0.6-0.8,1.1-1.1
								c0.5-0.3,1.1-0.4,1.7-0.4s1.2,0.1,1.7,0.4s0.9,0.6,1.1,1.1C91.1,13.6,91.2,14.1,91.2,14.7"/>
						</defs>
						<clipPath id="SVGID_58_">
							<use xlink:href="#SVGID_57_"  style="overflow:visible;"/>
						</clipPath>
						<g class="st30">
							<g>
								<g>
									<g>
										<g>
											<defs>
												<rect id="SVGID_59_" x="-967" y="-959.8" width="1440" height="1124"/>
											</defs>
											<clipPath id="SVGID_60_">
												<use xlink:href="#SVGID_59_"  style="overflow:visible;"/>
											</clipPath>
											<rect x="79.9" y="6.7" class="st31" width="16.4" height="16.1"/>
										</g>
									</g>
								</g>
							</g>
						</g>
					</g>
				</g>
			</g>
		</g>
	</g>
</g>
</svg>
