<?xml version="1.0" encoding="utf-8"?>
<!-- Generator: Adobe Illustrator 24.0.2, SVG Export Plug-In . SVG Version: 6.00 Build 0)  -->
<svg version="1.1" id="Capa_1" xmlns="http://www.w3.org/2000/svg" xmlns:xlink="http://www.w3.org/1999/xlink" x="0px" y="0px"
	 viewBox="0 0 127.6 45.4" style="enable-background:new 0 0 127.6 45.4;" xml:space="preserve">
<style type="text/css">
	.st0{fill:none;}
	.st1{clip-path:url(#SVGID_2_);}
	.st2{clip-path:url(#SVGID_4_);fill:#989898;}
	.st3{clip-path:url(#SVGID_6_);}
	.st4{clip-path:url(#SVGID_8_);enable-background:new    ;}
	.st5{clip-path:url(#SVGID_10_);}
	.st6{clip-path:url(#SVGID_12_);}
	.st7{clip-path:url(#SVGID_14_);fill:#989898;}
</style>
<rect x="-948.8" y="-951.1" class="st0" width="1440" height="1124"/>
<g>
	<g>
		<g>
			<g>
				<g>
					<defs>
						<path id="SVGID_1_" d="M81.3,29c0.4-0.5,0.9-0.6,1.5-0.6c0.6,0,1.3,0.3,1.5,0.8c0.4,0.5,0.5,1.2,0.5,2.1
							c0,0.9-0.1,1.5-0.5,2.1c-0.4,0.5-0.9,0.6-1.5,0.6c-0.8,0-1.3-0.3-1.7-0.6c-0.4-0.5-0.5-1.2-0.5-2.1C80.8,30,81,29.4,81.3,29z
							 M80.7,33.1c0.6,0.5,1.3,0.8,2.2,0.8c0.9,0,1.7-0.3,2.3-0.8c0.5-0.5,0.9-1.3,0.9-2.2s-0.3-1.7-0.9-2.2
							C84.5,28.2,83.9,28,83,28c-0.9,0-1.7,0.3-2.2,0.8c-0.6,0.5-0.9,1.3-0.9,2.2S80.1,32.6,80.7,33.1z M76.4,31.6L76.4,31.6
							c0.4,0,0.5,0,0.6,0s0.1,0.1,0.1,0.3c0,0.1,0,0.3,0,0.6c0,0.3,0,0.5-0.1,0.6s-0.3,0.3-0.5,0.4s-0.5,0.1-0.8,0.1
							c-0.5,0-1-0.3-1.4-0.6c-0.4-0.4-0.5-1.2-0.5-2.2s0.3-1.7,0.6-2.2c0.4-0.4,0.9-0.6,1.4-0.6c0.5,0,0.9,0.1,1.3,0.5
							c0.4,0.4,0.6,0.8,0.6,1.4h0.3V28h-0.3c0,0.3-0.1,0.4-0.1,0.6c-0.5-0.5-1.2-0.9-1.9-0.9c-0.9,0-1.5,0.3-2.1,0.9
							s-0.8,1.3-0.8,2.2c0,0.8,0.3,1.5,0.8,2.1c0.5,0.5,1.2,0.8,2.1,0.8c0.4,0,0.9-0.1,1.3-0.3c0.4-0.1,0.6-0.3,0.9-0.3h0.1v-0.6
							c0-0.5,0-0.8,0-0.9c0-0.1,0.1-0.3,0.1-0.3c0.1,0,0.3-0.1,0.5-0.1v-0.3h-2.4v0.6L76.4,31.6L76.4,31.6z M68.4,31.6l1-2.4l1,2.4
							H68.4z M71,32.9c0.1,0.3,0.3,0.5,0.3,0.5c0,0.1,0,0.3-0.1,0.3s-0.3,0-0.5,0v0.3h2.2v-0.3c-0.3,0-0.4-0.1-0.4-0.1
							c-0.1-0.1-0.1-0.1-0.3-0.3l-0.4-0.6l-1.9-4.5h-0.1l-1.7,4c-0.1,0.3-0.1,0.4-0.3,0.5c-0.1,0.4-0.4,0.8-0.4,0.9
							c-0.1,0.1-0.3,0.3-0.5,0.3V34h1.7v-0.3c-0.1,0-0.4,0-0.4-0.1c-0.3-0.1-0.3-0.3-0.3-0.5c0-0.1,0.1-0.5,0.4-1l0.1-0.4h2.1
							L71,32.9z M66,32.2c-0.1,0.5-0.3,0.8-0.4,1c-0.1,0.3-0.3,0.4-0.5,0.4c-0.1,0-0.4,0.1-0.8,0.1h-0.4c-0.4,0-0.5,0-0.6-0.1
							s-0.1-0.1-0.1-0.3c0-0.1,0-0.4,0-0.8v-3c0-0.5,0-0.8,0-0.9c0-0.1,0.1-0.3,0.1-0.3c0.1,0,0.3-0.1,0.5-0.1H64v-0.3h-2.7v0.3h0.1
							c0.3,0,0.5,0,0.5,0.1c0.1,0,0.1,0.1,0.1,0.3c0,0.1,0,0.4,0,0.9v2.8c0,0.5,0,0.8,0,0.9c0,0.1-0.1,0.3-0.1,0.3
							c-0.1,0-0.3,0.1-0.5,0.1h-0.1V34h4.9v-1.7H66C66,32.3,66,32.2,66,32.2z M58.6,32.2c-0.1,0.5-0.3,0.8-0.4,1
							c-0.1,0.3-0.3,0.4-0.5,0.4c-0.1,0-0.4,0.1-0.8,0.1h-0.4c-0.4,0-0.5,0-0.6-0.1c-0.1,0-0.1-0.1-0.1-0.3c0-0.1,0-0.4,0-0.8v-3
							c0-0.5,0-0.8,0-0.9c0-0.1,0.1-0.3,0.1-0.3c0.1,0,0.3-0.1,0.5-0.1h0.3v-0.3H54v0.3h0.1c0.3,0,0.5,0,0.5,0.1
							c0.1,0,0.1,0.1,0.1,0.3c0,0.1,0,0.4,0,0.9v2.8c0,0.5,0,0.8,0,0.9c0,0.1-0.1,0.3-0.1,0.3c-0.1,0-0.3,0.1-0.5,0.1H54V34h4.9
							v-1.7h-0.3V32.2z M52.6,33.1c-0.1,0.3-0.4,0.4-0.5,0.5c-0.3,0.1-0.4,0.1-0.8,0.1h-0.4c-0.4,0-0.6,0-0.6-0.1
							c-0.1-0.1-0.1-0.5-0.1-1.2v-1.4h0.6c0.3,0,0.4,0,0.5,0c0.1,0,0.1,0.1,0.3,0.3c0,0.1,0.1,0.3,0.1,0.6h0.3V30h-0.3
							c0,0.3,0,0.5,0,0.5c0,0.1-0.1,0.1-0.3,0.3c-0.1,0-0.3,0.1-0.6,0.1h-0.6v-2.4h0.8c0.4,0,0.6,0,0.9,0.1c0.1,0,0.4,0.1,0.5,0.3
							c0.1,0.1,0.3,0.4,0.4,0.9H53l-0.5-1.7h-4.1v0.3c0.3,0,0.5,0,0.5,0.1c0.1,0,0.1,0.1,0.1,0.3c0,0.1,0,0.4,0,0.9v2.8
							c0,0.5,0,0.8,0,0.9c0,0.1-0.1,0.3-0.1,0.3c-0.1,0.1-0.3,0.1-0.5,0.1h-0.1V34H53l0.1-1.8h-0.3C52.8,32.5,52.7,32.9,52.6,33.1z
							 M44.1,28.2c0.4,0,0.8,0,1,0.1c0.3,0.1,0.5,0.3,0.8,0.5c0.3,0.3,0.4,0.5,0.5,0.9c0.1,0.4,0.1,0.8,0.1,1.3
							c0,0.6-0.1,1.2-0.4,1.5c-0.3,0.4-0.5,0.6-0.8,0.8s-0.8,0.3-1.3,0.3c-0.4,0-0.5,0-0.6-0.1s-0.1-0.1-0.1-0.4c0-0.1,0-0.5,0-1.2
							v-3.9C43.7,28.3,43.8,28.2,44.1,28.2z M41.6,28.3L41.6,28.3c0.4,0,0.6,0,0.6,0.1c0.1,0,0.1,0.1,0.1,0.3s0,0.4,0,0.9v2.7
							c0,0.5,0,0.8,0,0.9c0,0.1-0.1,0.3-0.1,0.3c-0.1,0-0.3,0.1-0.5,0.1h-0.3v0.3h2.6c0.5,0,0.9,0,1.2,0c0.3,0,0.5-0.1,0.8-0.3
							c0.3-0.1,0.5-0.3,0.8-0.5c0.3-0.3,0.4-0.5,0.5-0.9c0.1-0.4,0.1-0.8,0.1-1.2c0-0.6-0.1-1-0.4-1.5c-0.3-0.4-0.6-0.8-1-1
							c-0.5-0.3-1.2-0.4-1.9-0.4c-0.3,0-0.8,0-1.5,0h-0.9C41.6,28.1,41.6,28.3,41.6,28.3z"/>
					</defs>
					<clipPath id="SVGID_2_">
						<use xlink:href="#SVGID_1_"  style="overflow:visible;"/>
					</clipPath>
					<g class="st1">
						<g>
							<g>
								<g>
									<defs>
										<rect id="SVGID_3_" x="-1545" y="-1232" width="1855.4" height="1448.2"/>
									</defs>
									<clipPath id="SVGID_4_">
										<use xlink:href="#SVGID_3_"  style="overflow:visible;"/>
									</clipPath>
									<rect x="35.2" y="21.6" class="st2" width="57.3" height="18.8"/>
								</g>
							</g>
						</g>
					</g>
				</g>
			</g>
		</g>
	</g>
	<g>
		<g>
			<g>
				<g>
					<defs>
						<rect id="SVGID_5_" x="15.3" y="11.3" width="96.9" height="11.9"/>
					</defs>
					<clipPath id="SVGID_6_">
						<use xlink:href="#SVGID_5_"  style="overflow:visible;"/>
					</clipPath>
					<g class="st3">
						<g>
							<g>
								<g>
									<defs>
										<rect id="SVGID_7_" x="-1545" y="-1232" width="1855.4" height="1448.2"/>
									</defs>
									<clipPath id="SVGID_8_">
										<use xlink:href="#SVGID_7_"  style="overflow:visible;"/>
									</clipPath>
									<g class="st4">
										<g>
											<g>
												<g>
													<g>
														<defs>
															<rect id="SVGID_9_" x="15.3" y="11.3" width="97.9" height="12.9"/>
														</defs>
														<clipPath id="SVGID_10_">
															<use xlink:href="#SVGID_9_"  style="overflow:visible;"/>
														</clipPath>
														<g class="st5">
															<g>
																<g>
																	<g>
																		<defs>
																			<path id="SVGID_11_" d="M105.1,22.9c0.1-0.5,0.3-0.9,0.4-1.2c0.8,0.9,1.9,1.4,3.1,1.4c1,0,1.9-0.3,2.6-0.9
																				c0.6-0.6,1-1.4,1-2.4c0-0.6-0.1-1.2-0.4-1.7c-0.3-0.5-0.6-0.9-1-1.2c-0.4-0.3-1.2-0.6-2.2-1
																				c-1-0.5-1.7-0.9-2.2-1.3c-0.4-0.4-0.6-0.8-0.6-1.3c0-0.4,0.1-0.9,0.5-1.2c0.3-0.4,0.8-0.5,1.5-0.5
																				c0.8,0,1.3,0.3,1.9,0.8c0.5,0.5,0.9,1.2,1.2,2.1h0.4v-3h-0.4c0,0.4-0.1,0.6-0.4,1c-0.4-0.5-0.9-0.8-1.3-1
																				c-0.4-0.1-0.9-0.3-1.4-0.3c-0.9,0-1.5,0.3-2.2,0.8c-0.5,0.5-0.9,1.2-0.9,2.1c0,0.5,0.1,1,0.4,1.5
																				c0.3,0.5,0.6,0.9,1,1.2c0.5,0.3,1.2,0.6,2.1,1c1,0.4,1.7,0.9,2.1,1.3c0.4,0.4,0.6,0.9,0.6,1.4
																				c0,0.5-0.3,1-0.6,1.5c-0.4,0.5-1,0.6-1.8,0.6c-1.8,0-3-1.2-3.4-3.6h-0.4v3.7C104.8,22.9,105.1,22.9,105.1,22.9z
																				 M94.4,18.4l2.1-4.9l2.1,4.9H94.4z M99.5,20.9c0.3,0.6,0.4,1,0.4,1.2c0,0.3-0.1,0.4-0.3,0.5
																				c-0.3,0.1-0.6,0.1-1.2,0.1v0.4h4.5v-0.4c-0.4,0-0.6-0.1-0.9-0.3c-0.3-0.1-0.4-0.4-0.5-0.6l-0.5-1.2l-3.9-9.1
																				h-0.4l-3.4,8c-0.3,0.5-0.4,0.9-0.4,1c-0.4,0.9-0.6,1.5-0.9,1.8c-0.3,0.3-0.6,0.5-1.2,0.5v0.4h3.4v-0.5
																				c-0.4,0-0.6-0.1-0.9-0.3C93.2,22.3,93,22,93,21.6c0-0.4,0.3-1,0.6-2.1l0.3-0.8h4.4L99.5,20.9z M89.2,23.1l0.4-3
																				h-0.4c-0.1,0.4-0.4,0.9-0.6,1.3c-0.3,0.5-0.5,0.8-0.9,0.9c-0.3,0.1-1,0.3-2.3,0.3h-3.5l7.3-10.7v-0.4h-8.4
																				L80.4,14h0.4c0.1-0.6,0.4-1.2,0.6-1.5c0.3-0.4,0.5-0.6,0.8-0.6s0.8-0.1,1.5-0.1h3.6L80,22.5v0.3h9.1
																				C89.2,22.8,89.2,23.1,89.2,23.1z M70,18.4l2.1-4.9l2.1,4.9H70z M75,20.9c0.3,0.6,0.4,1,0.4,1.2
																				c0,0.3-0.1,0.4-0.3,0.5c-0.3,0.1-0.6,0.1-1.2,0.1v0.4h4.5v-0.4c-0.4,0-0.6-0.1-0.9-0.3c-0.3-0.1-0.4-0.4-0.5-0.6
																				l-0.5-1.2l-3.9-9.1h-0.4l-3.4,8c-0.3,0.5-0.4,0.9-0.4,1c-0.4,0.9-0.6,1.5-0.9,1.8c-0.3,0.3-0.6,0.5-1.2,0.5v0.4
																				h3.4v-0.5c-0.4,0-0.6-0.1-0.9-0.3c-0.3-0.1-0.4-0.4-0.4-0.8c0-0.4,0.3-1,0.6-2.1l0.3-0.8h4.4L75,20.9z
																				 M56.7,11.9c0.3,0,0.5,0,0.8,0c1.3,0,2.2,0.3,2.6,0.8c0.4,0.5,0.6,1.2,0.6,1.9c0,0.5,0,0.9-0.1,1.2
																				c-0.1,0.3-0.3,0.5-0.5,0.8c-0.3,0.3-0.5,0.4-0.8,0.4C58.9,17,58.5,17,58.1,17c-0.4,0-0.9,0-1.3,0L56.7,11.9
																				L56.7,11.9z M65.3,22.7c-0.6,0-1.3-0.3-1.8-0.5c-0.5-0.4-1.2-1.2-2.1-2.3c-1-1.4-1.8-2.3-2.3-2.4
																				c1-0.1,1.9-0.5,2.4-1c0.5-0.5,0.8-1.2,0.8-1.9c0-0.6-0.3-1.2-0.6-1.7c-0.4-0.5-1-0.8-1.7-1
																				c-0.6-0.3-1.5-0.3-2.7-0.3c-0.6,0-1.5,0-2.6,0.1l-1.7,0.1v0.4h0.3c0.5,0,0.9,0,1.2,0.1c0.1,0.1,0.3,0.3,0.4,0.5
																				c0,0.3,0.1,0.9,0.1,1.8v5.5c0,0.9,0,1.5-0.1,1.8c0,0.3-0.1,0.5-0.4,0.5c-0.1,0.1-0.5,0.1-1,0.1h-0.4v0.4h5.4
																				v-0.3H58c-0.5,0-0.9-0.1-1-0.3c-0.1-0.1-0.3-0.4-0.4-0.6c0-0.3,0-0.9,0-1.8v-2.6h0.5c0.3,0,0.5,0,0.6,0.1
																				c0.1,0.1,0.4,0.4,0.8,0.9c0.4,0.5,0.8,1,1.2,1.5c1.2,1.7,1.9,2.6,2.4,3h3.2C65.3,22.9,65.3,22.7,65.3,22.7z
																				 M43,11.9c0.3,0,0.5,0,0.8,0c1.3,0,2.2,0.3,2.6,0.8c0.4,0.5,0.6,1.2,0.6,1.9c0,0.5,0,0.9-0.1,1.2
																				c-0.1,0.3-0.3,0.5-0.5,0.8c-0.3,0.3-0.5,0.4-0.8,0.4C45.2,17,44.8,17,44.5,17c-0.4,0-0.9,0-1.3,0L43,11.9
																				L43,11.9z M51.7,22.7c-0.6,0-1.3-0.3-1.8-0.5c-0.5-0.4-1.2-1.2-2.1-2.3c-1-1.4-1.8-2.3-2.3-2.4
																				c1-0.1,1.9-0.5,2.4-1c0.5-0.5,0.8-1.2,0.8-1.9c0-0.6-0.3-1.2-0.6-1.7c-0.4-0.5-1-0.8-1.7-1
																				c-0.6-0.3-1.5-0.3-2.7-0.3c-0.6,0-1.5,0-2.6,0.1l-1.7,0.1v0.4h0.3c0.5,0,0.9,0,1.2,0.1c0.1,0.1,0.3,0.3,0.4,0.5
																				c0,0.3,0.1,0.9,0.1,1.8v5.5c0,0.9,0,1.5-0.1,1.8c0,0.3-0.1,0.5-0.4,0.5c0,0.1-0.4,0.3-0.9,0.3h-0.4v0.4H45v-0.4
																				h-0.5c-0.5,0-0.9-0.1-1-0.3c-0.1-0.1-0.3-0.4-0.4-0.6c0-0.3,0-0.9,0-1.8v-2.6h0.5c0.3,0,0.5,0,0.6,0.1
																				c0.1,0.1,0.4,0.4,0.8,0.9c0.4,0.5,0.8,1,1.2,1.5c1.2,1.7,1.9,2.6,2.4,3h3.1C51.7,22.9,51.7,22.7,51.7,22.7z
																				 M36.7,21.5c-0.4,0.5-0.8,0.8-1.2,0.9c-0.4,0.1-0.9,0.3-1.5,0.3h-0.9c-0.8,0-1.3-0.1-1.4-0.4
																				c-0.1-0.3-0.3-1-0.3-2.4v-2.7h1.3c0.5,0,0.8,0,1,0.1c0.3,0.1,0.4,0.3,0.5,0.4c0.1,0.1,0.1,0.6,0.1,1.3h0.4v-3.9
																				h-0.4c0,0.5,0,0.9-0.1,1.2c-0.1,0.3-0.3,0.4-0.4,0.4c-0.3,0.1-0.6,0.1-1.2,0.1h-1.2V12h1.5c0.8,0,1.4,0,1.7,0.1
																				c0.4,0.1,0.6,0.3,0.9,0.6s0.5,0.9,0.6,1.7h0.4l-0.3-2.8h-8.1V12c0.5,0,0.9,0,1,0.1s0.3,0.3,0.4,0.5
																				c0,0.3,0.1,0.9,0.1,1.7v5.8c0,0.9,0,1.5-0.1,1.8c0,0.3-0.1,0.4-0.3,0.5c-0.1,0.1-0.5,0.3-1,0.3h-0.3v0.4h9.4
																				l0.3-3.6h-0.4C37.2,20.4,37,21,36.7,21.5z M16.2,12.8c0.3-0.4,0.5-0.5,0.8-0.6c0.3-0.1,0.8-0.1,1.5-0.1h1.7v8.1
																				c0,0.9,0,1.5-0.1,1.8c0,0.3-0.1,0.5-0.4,0.5c-0.1,0.1-0.5,0.1-1,0.1H18v0.4h5.7v-0.3h-0.5c-0.5,0-0.9-0.1-1-0.3
																				c-0.1-0.1-0.3-0.4-0.4-0.6c0-0.3,0-0.9,0-1.8v-8.1h1.8c0.6,0,1,0,1.3,0.1c0.3,0.1,0.5,0.3,0.8,0.6
																				s0.4,0.9,0.5,1.7h0.4v-2.7H15.5v2.7h0.4C15.8,13.7,16,13,16.2,12.8z"/>
																		</defs>
																		<clipPath id="SVGID_12_">
																			<use xlink:href="#SVGID_11_"  style="overflow:visible;"/>
																		</clipPath>
																		<g class="st6">
																			<g>
																				<g>
																					<g>
																						<defs>
																							<rect id="SVGID_13_" x="15.3" y="11.3" width="97.9" height="12.9"/>
																						</defs>
																						<clipPath id="SVGID_14_">
																							<use xlink:href="#SVGID_13_"  style="overflow:visible;"/>
																						</clipPath>
																						<rect x="8.9" y="4.9" class="st7" width="109.8" height="24.7"/>
																					</g>
																				</g>
																			</g>
																		</g>
																	</g>
																</g>
															</g>
														</g>
													</g>
												</g>
											</g>
										</g>
									</g>
								</g>
							</g>
						</g>
					</g>
				</g>
			</g>
		</g>
	</g>
</g>
</svg>
