<?xml version="1.0" encoding="utf-8"?>
<!-- Generator: Adobe Illustrator 24.0.2, SVG Export Plug-In . SVG Version: 6.00 Build 0)  -->
<svg version="1.1" id="Capa_1" xmlns="http://www.w3.org/2000/svg" xmlns:xlink="http://www.w3.org/1999/xlink" x="0px" y="0px"
	 viewBox="0 0 120 39.7" style="enable-background:new 0 0 120 39.7;" xml:space="preserve">
<style type="text/css">
	.st0{fill:#989898;}
</style>
<path class="st0" d="M20.1,20.5l4-7.8h1.5L20.9,22L20.1,20.5z M19.4,28.5l-7.8-15.7H10l7.7,15.7H19.4z M20.9,28.2l7.7-15.6h-1.5
	L20.8,25l-6.1-12.4h-1.6L20.9,28.2z"/>
<path class="st0" d="M42.3,26.2l-4.5-10.6h1.5l2.9,7.3l2.9-7.3h1.7L42.3,26.2z M52.4,15.6h1.5v10.2h-1.5V15.6z M62.4,24.5h4.5V26h-6
	V15.6h1.5V24.5z M78.6,23.3h-4.3L73.2,26h-1.5l4.8-10.6l4.9,10.4h-1.5L78.6,23.3z M75,21.8h3.2l-1.6-3.6L75,21.8z M99.1,20.7
	c0-0.8,0.1-1.5,0.4-2.1c0.3-0.7,0.7-1.2,1.1-1.7s0.9-0.8,1.6-1.1c0.7-0.3,1.3-0.4,2-0.4s1.3,0.1,2,0.4c0.7,0.3,1.2,0.7,1.6,1.1
	c0.4,0.5,0.8,1.1,1.1,1.7c0.3,0.7,0.4,1.3,0.4,2.1s-0.1,1.5-0.4,2.1s-0.7,1.2-1.1,1.7s-1.1,0.8-1.6,1.1c-0.7,0.3-1.3,0.4-2,0.4
	s-1.3-0.1-2-0.4s-1.2-0.7-1.6-1.1c-0.4-0.5-0.8-1.1-1.1-1.7C99.2,22.2,99.1,21.5,99.1,20.7z M100.6,20.7c0,0.5,0.1,1.1,0.3,1.6
	c0.1,0.5,0.4,0.9,0.8,1.2c0.3,0.4,0.7,0.7,1.2,0.8c0.4,0.3,0.9,0.3,1.5,0.3c0.5,0,1.1-0.1,1.5-0.3c0.4-0.3,0.8-0.5,1.2-0.8
	c0.3-0.4,0.5-0.8,0.8-1.2c0.1-0.5,0.3-0.9,0.3-1.6c0-0.5-0.1-1.1-0.3-1.6c-0.1-0.5-0.4-0.9-0.8-1.2c-0.3-0.4-0.7-0.7-1.2-0.8
	c-0.5-0.3-1.1-0.3-1.6-0.3s-1.1,0.1-1.5,0.3c-0.4,0.3-0.8,0.5-1.2,0.8c-0.3,0.4-0.5,0.8-0.8,1.2C100.7,19.7,100.6,20.2,100.6,20.7z
	 M93.6,20.2h-3.7v1.5h3.6c0,0.3-0.1,0.4-0.1,0.5c-0.1,0.5-0.4,0.9-0.8,1.2c-0.3,0.4-0.7,0.7-1.2,0.8c-0.4,0.3-0.9,0.3-1.5,0.3
	c-0.5,0-1.1-0.1-1.5-0.3c-0.4-0.3-0.8-0.5-1.2-0.8c-0.3-0.4-0.5-0.8-0.8-1.2c-0.1-0.5-0.3-0.9-0.3-1.6c0-0.5,0.1-1.1,0.3-1.6
	c0.1-0.5,0.4-0.9,0.8-1.2c0.3-0.4,0.7-0.7,1.2-0.8c0.5-0.1,0.9-0.1,1.5-0.1c0.5,0,1.1,0.1,1.5,0.3c0.4,0.3,0.8,0.5,1.2,0.8l0.1,0.1
	l1.1-1.1l-0.1-0.1c-0.4-0.5-1.1-0.8-1.6-1.1c-0.7-0.3-1.3-0.4-2-0.4s-1.3,0.1-2,0.4c-0.7,0.3-1.2,0.7-1.6,1.1
	c-0.4,0.5-0.8,1.1-1.1,1.7S85,20,85,20.7s0.1,1.5,0.4,2.1s0.7,1.2,1.1,1.7s0.9,0.8,1.6,1.1s1.3,0.4,2,0.4s1.3-0.1,2-0.4
	c0.7-0.3,1.2-0.7,1.6-1.1c0.4-0.5,0.8-1.1,1.1-1.7s0.4-1.3,0.4-2v-0.5l0,0L93.6,20.2L93.6,20.2z"/>
</svg>
