<?xml version="1.0" encoding="utf-8"?>
<!-- Generator: Adobe Illustrator 24.0.2, SVG Export Plug-In . SVG Version: 6.00 Build 0)  -->
<svg version="1.1" id="Capa_1" xmlns="http://www.w3.org/2000/svg" xmlns:xlink="http://www.w3.org/1999/xlink" x="0px" y="0px"
	 viewBox="0 0 18.6 22.7" style="enable-background:new 0 0 18.6 22.7;" xml:space="preserve">
<style type="text/css">
	.st0{fill:#1F466B;}
</style>
<path class="st0" d="M14.6,15.6c0,2.9-2.4,5.3-5.3,5.3S4,18.5,4,15.6V9.4h4.4v5.1h1.8V9.4h4.4V15.6z M7.8,1.8h3
	C11.5,2.5,13.1,4,16.3,4L15,7.5H9.3L3.4,7.4l-1-3.3C5.5,4,7.2,2.5,7.8,1.8z M18.6,7.6h-1.8l1.1-2.9C18.1,4.1,18,3.5,17.7,3
	c-0.3-0.4-0.8-0.7-1.4-0.7C15,2.3,13.9,2,13,1.4c-0.6-0.4-0.9-0.9-1-0.9L11.8,0H7.4H6.9L6.6,0.4c0,0-0.3,0.5-1,0.9
	c-0.8,0.7-2,1-3.3,1C1.7,2.3,1.2,2.5,0.9,3C0.6,3.4,0.5,4,0.7,4.6l0.9,3H0v1.8h2.1h0.1v6.2c0,3.9,3.2,7.1,7.1,7.1s7.1-3.2,7.1-7.1
	V9.4h2.2V7.6z"/>
</svg>
