<?xml version="1.0" encoding="utf-8"?>
<!-- Generator: Adobe Illustrator 24.0.2, SVG Export Plug-In . SVG Version: 6.00 Build 0)  -->
<svg version="1.1" id="Capa_1" xmlns="http://www.w3.org/2000/svg" xmlns:xlink="http://www.w3.org/1999/xlink" x="0px" y="0px"
	 viewBox="0 0 39.1 16.9" style="enable-background:new 0 0 39.1 16.9;" xml:space="preserve">
<style type="text/css">
	.st0{fill:#1F466B;}
</style>
<path class="st0" d="M24.9,1.8c1.1,0.1,2.3,0.4,3.3,0.9L33,5.3h-8.1V1.8z M23.1,12.4h-5.3V7.1h5.3V12.4z M12.4,7.1H16v5.3h-3.6V7.1z
	 M12.4,3.5c0-1,0.8-1.8,1.8-1.8H16v3.6h-3.6V3.5z M23.1,5.3h-5.3V1.8h5.3V5.3z M36.5,5.2L29,1.1C27.6,0.4,26,0,24.5,0H14.2
	c-1.9,0-3.5,1.6-3.5,3.5v1.8H0v7.1h1.8V7.1h8.9v5.3H8.9H3.5H1.8v1.8h1.8c0,1.5,1.2,2.7,2.7,2.7S9,15.7,9,14.2h23
	c0,1.5,1.2,2.7,2.7,2.7s2.7-1.2,2.7-2.7v-1.8h-1.8H32h-7.1V7.1h11.3c0.5,0.4,0.9,1.1,1.1,1.8H35c-0.5,0-0.9,0.4-0.9,0.9
	s0.4,0.9,0.9,0.9h2.3v1.8h1.8v-3C39.1,7.7,38.1,6.1,36.5,5.2z"/>
</svg>
