<?xml version="1.0" encoding="utf-8"?>
<!-- Generator: Adobe Illustrator 24.0.2, SVG Export Plug-In . SVG Version: 6.00 Build 0)  -->
<svg version="1.1" id="Capa_1" xmlns="http://www.w3.org/2000/svg" xmlns:xlink="http://www.w3.org/1999/xlink" x="0px" y="0px"
	 viewBox="0 0 21.1 24.2" style="enable-background:new 0 0 21.1 24.2;" xml:space="preserve">
<style type="text/css">
	.st0{clip-path:url(#SVGID_2_);}
	.st1{fill:#1F466B;}
</style>
<g>
	<defs>
		<rect id="SVGID_1_" width="21.1" height="24.2"/>
	</defs>
	<clipPath id="SVGID_2_">
		<use xlink:href="#SVGID_1_"  style="overflow:visible;"/>
	</clipPath>
	<g class="st0">
		<path class="st1" d="M19.1,20.6c0,1-0.8,1.7-1.7,1.7H3.7c-1,0-1.7-0.8-1.7-1.7V3.7C2,2.7,2.8,2,3.7,2h13.8c1,0,1.7,0.8,1.7,1.7
			v16.9H19.1z M17.4,0H3.7C1.6,0,0,1.6,0,3.7v16.9c0,2,1.6,3.7,3.7,3.7h13.8c2,0,3.7-1.6,3.7-3.7V3.7C21.1,1.6,19.4,0,17.4,0z"/>
		<path class="st1" d="M12.1,17.1H9c-0.3,0-0.4-0.3-0.4-0.6L9.7,12c0.1-0.4,0-0.8-0.3-1.1C9.1,10.5,8.9,10.1,9,9.6
			c0-0.8,0.7-1.5,1.5-1.5h0.1c0.9,0,1.6,0.7,1.6,1.6c0,0.4-0.2,0.8-0.5,1.1s-0.4,0.7-0.3,1.1l1.1,4.5C12.5,16.8,12.3,17.1,12.1,17.1
			z M13.3,11.8c0.5-0.6,0.7-1.3,0.7-2.1c0-1.9-1.6-3.5-3.5-3.5c-0.1,0-0.1,0-0.2,0C9.4,6.3,8.6,6.6,8,7.3C7.4,7.9,7,8.7,7,9.6
			c0,0.8,0.2,1.6,0.7,2.3l-1,4.2c-0.2,0.7,0,1.5,0.4,2.1C7.6,18.6,8.3,19,9,19h3.1c0.7,0,1.4-0.3,1.8-0.9c0.4-0.6,0.6-1.4,0.4-2.1
			L13.3,11.8z"/>
	</g>
</g>
</svg>
