<?xml version="1.0" encoding="utf-8"?>
<!-- Generator: Adobe Illustrator 24.0.2, SVG Export Plug-In . SVG Version: 6.00 Build 0)  -->
<svg version="1.1" id="Capa_1" xmlns="http://www.w3.org/2000/svg" xmlns:xlink="http://www.w3.org/1999/xlink" x="0px" y="0px"
	 viewBox="0 0 19.2 19.1" style="enable-background:new 0 0 19.2 19.1;" xml:space="preserve">
<style type="text/css">
	.st0{clip-path:url(#SVGID_2_);}
	.st1{fill:#1F466B;}
</style>
<g>
	<defs>
		<rect id="SVGID_1_" width="19.2" height="19.1"/>
	</defs>
	<clipPath id="SVGID_2_">
		<use xlink:href="#SVGID_1_"  style="overflow:visible;"/>
	</clipPath>
	<g class="st0">
		<path class="st1" d="M0,3.2V4h1.6V3.2c0-0.9,0.7-1.6,1.6-1.6H4V0H3.2C1.4,0,0,1.4,0,3.2z"/>
		<path class="st1" d="M12,17.6H7.2v1.6H12V17.6z"/>
		<path class="st1" d="M1.6,16v-0.8H0V16c0,1.8,1.4,3.2,3.2,3.2H4v-1.6H3.2C2.3,17.6,1.6,16.8,1.6,16z"/>
		<path class="st1" d="M1.6,7.2H0V12h1.6V7.2z"/>
		<path class="st1" d="M16,0h-0.8v1.6H16c0.9,0,1.6,0.7,1.6,1.6V4h1.6V3.2C19.1,1.4,17.7,0,16,0z"/>
		<path class="st1" d="M17.6,16c0,0.9-0.7,1.6-1.6,1.6h-0.8v1.6H16c1.8,0,3.2-1.4,3.2-3.2v-0.8h-1.6V16z"/>
		<path class="st1" d="M19.2,7.2h-1.6V12h1.6V7.2z"/>
		<path class="st1" d="M12,0H7.2v1.6H12V0z"/>
		<path class="st1" d="M8.2,12h2.7c0.6,0,1.1-0.5,1.1-1.1V8.2c0-0.6-0.5-1.1-1.1-1.1H8.2c-0.6,0-1.1,0.5-1.1,1.1v2.7
			C7.2,11.5,7.7,12,8.2,12z"/>
	</g>
</g>
</svg>
