<?xml version="1.0" encoding="utf-8"?>
<!-- Generator: Adobe Illustrator 24.0.2, SVG Export Plug-In . SVG Version: 6.00 Build 0)  -->
<svg version="1.1" id="Capa_1" xmlns="http://www.w3.org/2000/svg" xmlns:xlink="http://www.w3.org/1999/xlink" x="0px" y="0px"
	 viewBox="0 0 27.6 16" style="enable-background:new 0 0 27.6 16;" xml:space="preserve">
<style type="text/css">
	.st0{fill:#1F466B;}
</style>
<path class="st0" d="M25.7,12L24,11.3V4.7L25.7,4V12z M20.4,6l1.8-0.7v5.3L20.4,10V6z M18.6,13.3c0,0.5-0.4,0.9-0.9,0.9h-15
	c-0.5,0-0.9-0.4-0.9-0.9V2.7c0-0.5,0.4-0.9,0.9-0.9h15.1c0.5,0,0.9,0.4,0.9,0.9v2.1v6.4v2.1H18.6z M27.5,1.4l-7.1,2.7V2.7
	c0-1.5-1.2-2.7-2.7-2.7h-15C1.2,0,0,1.2,0,2.7v10.7C0,14.8,1.2,16,2.7,16h15.1c1.5,0,2.7-1.2,2.7-2.7v-1.4l7.1,2.7V1.4H27.5z"/>
</svg>
