<?xml version="1.0" encoding="utf-8"?>
<!-- Generator: Adobe Illustrator 24.0.2, SVG Export Plug-In . SVG Version: 6.00 Build 0)  -->
<svg version="1.1" id="Capa_1" xmlns="http://www.w3.org/2000/svg" xmlns:xlink="http://www.w3.org/1999/xlink" x="0px" y="0px"
	 viewBox="0 0 23.9 25.8" style="enable-background:new 0 0 23.9 25.8;" xml:space="preserve">
<style type="text/css">
	.st0{clip-path:url(#SVGID_2_);}
	.st1{fill:#1F466B;}
</style>
<g>
	<defs>
		<rect id="SVGID_1_" width="23.9" height="25.8"/>
	</defs>
	<clipPath id="SVGID_2_">
		<use xlink:href="#SVGID_1_"  style="overflow:visible;"/>
	</clipPath>
	<g class="st0">
		<path class="st1" d="M12.8,16.2c0.5-0.5,0.9-0.9,0.9-2c0-0.9-0.4-1.4-0.9-2.1c-0.3-0.4-0.6-0.8-0.8-1.2c-0.2,0.5-0.5,0.9-0.8,1.2
			c-0.5,0.6-0.9,1.2-0.9,2.1c0,1.1,0.4,1.5,0.9,2c0.4,0.4,0.8,0.8,0.8,1.5C12,16.9,12.4,16.5,12.8,16.2z"/>
		<path class="st1" d="M11.9,20.1c-0.1-1.5-1-2.3-1.8-3.1c-1.1-1-2.2-2.1-2.2-4.7c0-2.1,1-3.4,2.1-4.9c0.7-0.9,1.4-1.8,1.9-2.9
			c0.5,1.1,1.2,2.1,1.9,2.9C15,8.8,16,10.1,16,12.2c0,2.6-1.1,3.7-2.2,4.7C13,17.7,12.1,18.6,12,20C12,20.1,12,20.1,11.9,20.1z
			 M22,10c0,4.8-3.4,8.9-8,9.8c0.2-0.5,0.6-0.9,1.2-1.5c1.2-1.1,2.7-2.6,2.7-6.1c0-2.8-1.3-4.4-2.5-6.1c-1.3-1.7-2.5-3.3-2.5-6.1H11
			c0,2.9-1.2,4.5-2.5,6.1C7.3,7.8,6,9.5,6,12.2c0,3.5,1.6,5,2.7,6.1c0.6,0.6,1,1,1.2,1.5c-4.6-0.9-8-5-8-9.8H0c0,6.6,5.4,12,12,12
			s12-5.4,12-12H22z"/>
		<path class="st1" d="M19.6,23.9H4.3v1.9h15.3V23.9z"/>
	</g>
</g>
</svg>
