<?xml version="1.0" encoding="utf-8"?>
<!-- Generator: Adobe Illustrator 24.0.2, SVG Export Plug-In . SVG Version: 6.00 Build 0)  -->
<svg version="1.1" id="Capa_1" xmlns="http://www.w3.org/2000/svg" xmlns:xlink="http://www.w3.org/1999/xlink" x="0px" y="0px"
	 viewBox="0 0 34.5 24.9" style="enable-background:new 0 0 34.5 24.9;" xml:space="preserve">
<style type="text/css">
	.st0{clip-path:url(#SVGID_2_);}
	.st1{fill:#1F466B;}
</style>
<g>
	<defs>
		<rect id="SVGID_1_" width="34.5" height="24.9"/>
	</defs>
	<clipPath id="SVGID_2_">
		<use xlink:href="#SVGID_1_"  style="overflow:visible;"/>
	</clipPath>
	<g class="st0">
		<path class="st1" d="M10,3.3c0.2-0.8,1-1.4,2-1.4h10.4c1,0,1.8,0.6,2,1.4l1.2,5.3H8.8L10,3.3z M29.7,8.6v-1h1.9V5.7h-3.8v2.9h-0.1
			l-1.3-5.7C26,1.2,24.4,0,22.5,0H12c-1.9,0-3.5,1.2-3.9,2.9L6.9,8.6H6.7V5.7H2.9v1.9h1.9v1C2.1,8.6,0,10.8,0,13.4v5.8h1.9v-5.8
			c0-1.6,1.3-2.8,2.8-2.8h24.9c1.6,0,2.8,1.3,2.8,2.8v5.8h1.9v-5.8C34.5,10.8,32.3,8.6,29.7,8.6z"/>
		<path class="st1" d="M5.7,11.5c-1.1,0-1.9,0.9-1.9,1.9c0,1.1,0.9,1.9,1.9,1.9c1.1,0,1.9-0.9,1.9-1.9C7.7,12.3,6.8,11.5,5.7,11.5z"
			/>
		<path class="st1" d="M28.7,11.5c-1.1,0-1.9,0.9-1.9,1.9c0,1.1,0.9,1.9,1.9,1.9c1.1,0,1.9-0.9,1.9-1.9
			C30.6,12.3,29.8,11.5,28.7,11.5z"/>
		<path class="st1" d="M24.9,12.9H9.6v1.9h15.3V12.9z"/>
		<path class="st1" d="M30.6,19.1v-1.9H3.8v1.9h-1h-1v3.2c0,1.4,1.1,2.5,2.5,2.5H7c1.4,0,2.5-1.1,2.5-2.5v-3.2h15.3v3.2
			c0,1.4,1.1,2.5,2.5,2.5H30c1.4,0,2.5-1.1,2.5-2.5v-3.2h-1H30.6z"/>
	</g>
</g>
</svg>
