<?xml version="1.0" encoding="utf-8"?>
<!-- Generator: Adobe Illustrator 24.0.2, SVG Export Plug-In . SVG Version: 6.00 Build 0)  -->
<svg version="1.1" id="Capa_1" xmlns="http://www.w3.org/2000/svg" xmlns:xlink="http://www.w3.org/1999/xlink" x="0px" y="0px"
	 viewBox="0 0 38.4 35.4" style="enable-background:new 0 0 38.4 35.4;" xml:space="preserve">
<style type="text/css">
	.st0{clip-path:url(#SVGID_2_);}
	.st1{fill:#1F466B;}
</style>
<g>
	<defs>
		<rect id="SVGID_1_" width="38.4" height="35.4"/>
	</defs>
	<clipPath id="SVGID_2_">
		<use xlink:href="#SVGID_1_"  style="overflow:visible;"/>
	</clipPath>
	<g class="st0">
		<path class="st1" d="M36.1,27.8c-0.9,3.3-3.9,5.7-7.4,5.7H9.6c-3.6,0-6.6-2.4-7.4-5.7h16h1.9H36.1z M24.7,22h13.7v-1.9
			c-2.9,0-7.5-2.8-11.4-6.9C22.7,8.7,20.1,3.8,20.1,0h-1.9v25.8H1.9H1.2H0c0,5.3,4.3,9.6,9.6,9.6h19.1c5.3,0,9.6-4.3,9.6-9.6h-1.1
			h-0.8H20.1V7c0.1,0.2,0.2,0.3,0.3,0.5c1.3,2.4,3.1,4.8,5.2,7c2.1,2.1,4.3,4,6.5,5.3c0.1,0.1,0.3,0.2,0.4,0.3h-7.8V22z"/>
	</g>
</g>
</svg>
