<?xml version="1.0" encoding="utf-8"?>
<!-- Generator: Adobe Illustrator 24.0.2, SVG Export Plug-In . SVG Version: 6.00 Build 0)  -->
<svg version="1.1" id="Capa_1" xmlns="http://www.w3.org/2000/svg" xmlns:xlink="http://www.w3.org/1999/xlink" x="0px" y="0px"
	 viewBox="0 0 32.1 46" style="enable-background:new 0 0 32.1 46;" xml:space="preserve">
<style type="text/css">
	.st0{clip-path:url(#SVGID_2_);}
	.st1{fill:#1F466B;}
</style>
<g>
	<defs>
		<rect id="SVGID_1_" width="32.1" height="46"/>
	</defs>
	<clipPath id="SVGID_2_">
		<use xlink:href="#SVGID_1_"  style="overflow:visible;"/>
	</clipPath>
	<g class="st0">
		<path class="st1" d="M16.1,0C7.2,0,0,7.2,0,16.1C0,24,5.8,30.6,13.3,31.9V30C6.8,28.7,1.9,23,1.9,16.1C1.9,8.3,8.2,2,16,2
			s14.1,6.3,14.1,14.1c0,6.8-4.8,12.5-11.2,13.8v2C26.3,30.5,32,24,32,16.1C32.1,7.2,24.9,0,16.1,0z"/>
		<path class="st1" d="M13.3,14.4c0-0.5-0.4-0.9-0.9-0.9s-0.9,0.4-0.9,0.9s0.4,0.9,0.9,0.9S13.3,14.9,13.3,14.4z"/>
		<path class="st1" d="M19.1,20.1c0,0.5,0.4,0.9,0.9,0.9s0.9-0.4,0.9-0.9s-0.4-0.9-0.9-0.9S19.1,19.6,19.1,20.1z"/>
		<path class="st1" d="M17.2,34.5v-2.4v-1.9v-1.3v-0.1V18c0.2-3.6,3.6-6.5,7.6-6.5V9.6c-3.1,0-5.9,1.4-7.6,3.5V5.7h-1.9v12.2
			c0,0.1,0,0.3,0,0.5v2.7c-0.1-0.1-0.1-0.2-0.2-0.3c-1.4-2.3-3.4-3.6-5.6-3.6v1.9c1.5,0,2.9,0.9,3.9,2.7c1.2,1.9,1.8,4.3,1.8,7v1.4
			v1.9V44h-3.8v2H21v-2h-3.8V34.5z"/>
	</g>
</g>
</svg>
