<?xml version="1.0" encoding="utf-8"?>
<!-- Generator: Adobe Illustrator 24.0.2, SVG Export Plug-In . SVG Version: 6.00 Build 0)  -->
<svg version="1.1" id="Capa_1" xmlns="http://www.w3.org/2000/svg" xmlns:xlink="http://www.w3.org/1999/xlink" x="0px" y="0px"
	 viewBox="0 0 34 19.8" style="enable-background:new 0 0 34 19.8;" xml:space="preserve">
<style type="text/css">
	.st0{clip-path:url(#SVGID_2_);}
	.st1{fill:#1F466B;}
</style>
<g>
	<defs>
		<rect id="SVGID_1_" width="34" height="19.8"/>
	</defs>
	<clipPath id="SVGID_2_">
		<use xlink:href="#SVGID_1_"  style="overflow:visible;"/>
	</clipPath>
	<g class="st0">
		<path class="st1" d="M18.4,15.3h-3.8v1.9h3.8V15.3z"/>
		<path class="st1" d="M27.5,17.9c-2.5,0-4.5-2-4.5-4.5c0-2.2,1.5-4,3.6-4.4v5h1.9V8.9c2,0.4,3.6,2.3,3.6,4.4
			C32.1,15.9,30,17.9,27.5,17.9z M6.5,17.9c-2.5,0-4.5-2-4.5-4.5s2-4.5,4.5-4.5c0.9,0,1.8,0.3,2.5,0.7l-3.1,3.1
			c-0.3,0.3-0.4,0.7-0.2,1c0.1,0.4,0.5,0.6,0.9,0.6H11C10.5,16.4,8.6,17.9,6.5,17.9z M10.3,10.9c0.3,0.5,0.5,1,0.6,1.5H8.8
			L10.3,10.9z M14.6,12.4h-1.7c-0.2-1.1-0.6-2-1.2-2.9l1.2-1.2L14.6,12.4z M28.5,7V2h0.7c0.3,0,0.6,0.1,0.7,0.4
			C30.1,2.7,30.1,3,30,3.2l-0.5,1.2l1.8,0.8L31.8,4c0.4-1,0.3-2-0.2-2.7C31,0.5,30.2,0,29.2,0h-1.7h-5.1v1.9h3l-1.7,1.9H16v1.9h5.8
			l-5.5,5.9l-2.2-5.2V3.8H16V1.9h-5.7v1.9h1.9v2.5l-1.9,1.9C9.2,7.4,7.9,6.9,6.5,6.9C2.9,6.9,0,9.8,0,13.3c0,3.6,2.9,6.5,6.5,6.5
			c3.2,0,5.9-2.4,6.4-5.5H16c0.3,0,0.5-0.1,0.7-0.3l9.8-10.6V7c-3.1,0.5-5.5,3.2-5.5,6.4c0,3.6,2.9,6.5,6.5,6.5S34,17,34,13.4
			C34,10.1,31.6,7.4,28.5,7z"/>
	</g>
</g>
</svg>
