<?xml version="1.0" encoding="utf-8"?>
<!-- Generator: Adobe Illustrator 24.0.2, SVG Export Plug-In . SVG Version: 6.00 Build 0)  -->
<svg version="1.1" id="Capa_1" xmlns="http://www.w3.org/2000/svg" xmlns:xlink="http://www.w3.org/1999/xlink" x="0px" y="0px"
	 viewBox="0 0 12 23" style="enable-background:new 0 0 12 23;" xml:space="preserve">
<style type="text/css">
	.st0{clip-path:url(#SVGID_2_);}
	.st1{fill:#1F466B;}
</style>
<g>
	<defs>
		<rect id="SVGID_1_" width="12" height="23"/>
	</defs>
	<clipPath id="SVGID_2_">
		<use xlink:href="#SVGID_1_"  style="overflow:visible;"/>
	</clipPath>
	<g class="st0">
		<path class="st1" d="M5.8,4.1c1.1,0,2-0.9,2-2c0-1.1-0.9-2-2-2s-2,0.9-2,2C3.8,3.1,4.7,4.1,5.8,4.1z"/>
		<path class="st1" d="M8.9,17c0-0.5-0.2-1-0.5-1.4L6.5,13V6.5c0-0.5-0.3-1-0.8-1.2C5.3,5.1,4.7,5.2,4.3,5.6L2.1,8.4
			C2,8.6,1.9,8.8,1.9,9.1v3.3h1.6V9.3L5,7.4v6.2l2.1,3c0.1,0.1,0.2,0.3,0.2,0.5v6h2.3v-1.6H8.9V17z"/>
		<path class="st1" d="M3.2,18.4c-0.1,0.2-0.2,0.3-0.3,0.4l-2.9,2v2h1.6v-1.2l2.2-1.4C4.2,20,4.6,19.6,4.7,19l0.8-2.5L4.3,15
			L3.2,18.4z"/>
		<path class="st1" d="M10,8.4L8,6.6v2.2l1.1,1C9.3,10,9.6,10,9.9,10h2V8.4H10z"/>
	</g>
</g>
</svg>
