<?xml version="1.0" encoding="utf-8"?>
<!-- Generator: Adobe Illustrator 24.0.2, SVG Export Plug-In . SVG Version: 6.00 Build 0)  -->
<svg version="1.1" id="Capa_1" xmlns="http://www.w3.org/2000/svg" xmlns:xlink="http://www.w3.org/1999/xlink" x="0px" y="0px"
	 viewBox="0 0 34.5 34.5" style="enable-background:new 0 0 34.5 34.5;" xml:space="preserve">
<style type="text/css">
	.st0{fill:#FFFFFF;}
</style>
<path class="st0" d="M6.9,14.9c2.8,5.4,7.2,9.9,12.6,12.6l4.2-4.2c0.5-0.5,1.3-0.7,2-0.5c2.1,0.7,4.5,1.1,6.8,1.1
	c1.1,0,1.9,0.9,1.9,1.9v6.7c0,1.1-0.9,1.9-1.9,1.9C14.6,34.5,0,19.9,0,1.9C0,0.9,0.9,0,1.9,0h6.7c1.1,0,1.9,0.9,1.9,1.9
	c0,2.4,0.4,4.7,1.1,6.8c0.2,0.7,0.1,1.4-0.5,2L6.9,14.9z"/>
</svg>
