<?xml version="1.0" encoding="utf-8"?>
<!-- Generator: Adobe Illustrator 24.0.2, SVG Export Plug-In . SVG Version: 6.00 Build 0)  -->
<svg version="1.1" id="Capa_1" xmlns="http://www.w3.org/2000/svg" xmlns:xlink="http://www.w3.org/1999/xlink" x="0px" y="0px"
	 viewBox="0 0 24.4 15.8" style="enable-background:new 0 0 24.4 15.8;" xml:space="preserve">
<style type="text/css">
	.st0{clip-path:url(#SVGID_2_);}
	.st1{fill:#1F466B;}
</style>
<g>
	<defs>
		<rect id="SVGID_1_" width="24.4" height="15.8"/>
	</defs>
	<clipPath id="SVGID_2_">
		<use xlink:href="#SVGID_1_"  style="overflow:visible;"/>
	</clipPath>
	<g class="st0">
		<path class="st1" d="M20.8,1.5c0.9,0,1.6,0.7,1.6,1.6s-0.7,1.6-1.6,1.6S19.2,4,19.2,3.1S19.9,1.5,20.8,1.5z M20.8,6.2
			c1.7,0,3-1.4,3-3c0-1.7-1.4-3-3-3c-1.7,0-3,1.4-3,3S19.1,6.2,20.8,6.2z"/>
		<path class="st1" d="M12.5,2.1l6.9,7.4c0.3-0.1,0.5-0.2,0.8-0.4c0.2-0.1,0.4-0.2,0.6-0.3l-7.2-7.7C12.8,0.4,11.9,0,10.9,0h-8v1.4
			h8C11.5,1.4,12.1,1.7,12.5,2.1z"/>
		<path class="st1" d="M10.2,4.6l0.7,0.8L8,8.6c0.3-0.1,0.6-0.1,0.9-0.1c0.4,0,0.7,0,1,0.1l2.9-3.3l-1.6-1.8c-0.4-0.4-1-0.7-1.6-0.7
			H2.8v1.4h6.8C9.8,4.3,10,4.4,10.2,4.6z"/>
		<path class="st1" d="M24.1,11.1c-0.4-0.3-1-0.6-2-0.6s-1.6,0.3-2,0.6c-0.4,0.2-0.7,0.4-1.3,0.4c-0.6,0-0.9-0.2-1.3-0.4
			c-0.4-0.3-1-0.6-2-0.6s-1.6,0.3-2,0.6c-0.4,0.2-0.7,0.4-1.3,0.4c-0.6,0-0.9-0.2-1.3-0.4c-0.4-0.3-1-0.6-2-0.6s-1.6,0.3-2,0.6
			c-0.4,0.2-0.7,0.4-1.3,0.4s-0.9-0.2-1.3-0.4c-0.4-0.3-1-0.6-2-0.6s-1.6,0.3-2,0.6c-0.1,0.1-0.2,0.1-0.3,0.2v1.5
			c0.4-0.1,0.7-0.3,1-0.5c0.4-0.2,0.7-0.4,1.3-0.4s0.9,0.2,1.3,0.4c0.4,0.3,1,0.6,2,0.6s1.6-0.3,2-0.6c0.4-0.2,0.7-0.4,1.3-0.4
			c0.6,0,0.9,0.2,1.3,0.4c0.4,0.3,1,0.6,2,0.6s1.6-0.3,2-0.6c0.4-0.2,0.7-0.4,1.3-0.4s0.9,0.2,1.3,0.4c0.4,0.3,1,0.6,2,0.6
			s1.6-0.3,2-0.6c0.4-0.2,0.7-0.4,1.3-0.4s0.9,0.2,1.3,0.4c0.3,0.2,0.6,0.3,1,0.5v-1.6C24.3,11.2,24.2,11.1,24.1,11.1z"/>
		<path class="st1" d="M22.1,13.4c-1,0-1.6,0.3-2,0.6c-0.4,0.2-0.7,0.4-1.3,0.4c-0.6,0-0.9-0.2-1.3-0.4c-0.4-0.3-1-0.6-2-0.6
			s-1.6,0.3-2,0.6c-0.4,0.2-0.7,0.4-1.3,0.4c-0.6,0-0.9-0.2-1.3-0.4c-0.4-0.3-1-0.6-2-0.6s-1.6,0.3-2,0.6c-0.4,0.2-0.7,0.4-1.3,0.4
			S4.7,14.2,4.3,14c-0.4-0.3-1-0.6-2-0.6s-1.6,0.3-2,0.6c-0.1,0-0.2,0.1-0.3,0.1v1.5c0.4-0.1,0.7-0.3,1-0.5c0.4-0.2,0.7-0.4,1.3-0.4
			s0.9,0.2,1.3,0.4c0.4,0.3,1,0.6,2,0.6s1.6-0.3,2-0.6C8,15,8.3,14.8,8.9,14.8c0.6,0,0.9,0.2,1.3,0.4c0.4,0.3,1,0.6,2,0.6
			s1.6-0.3,2-0.6c0.4-0.2,0.7-0.4,1.3-0.4s0.9,0.2,1.3,0.4c0.4,0.3,1,0.6,2,0.6s1.6-0.3,2-0.6c0.4-0.2,0.7-0.4,1.3-0.4
			s0.9,0.2,1.3,0.4c0.3,0.2,0.6,0.3,1,0.5v-1.6c-0.1,0-0.2-0.1-0.3-0.1C23.7,13.7,23.1,13.4,22.1,13.4z"/>
	</g>
</g>
</svg>
