<?xml version="1.0" encoding="utf-8"?>
<!-- Generator: Adobe Illustrator 24.0.2, SVG Export Plug-In . SVG Version: 6.00 Build 0)  -->
<svg version="1.1" id="Capa_1" xmlns="http://www.w3.org/2000/svg" xmlns:xlink="http://www.w3.org/1999/xlink" x="0px" y="0px"
	 viewBox="0 0 32.1 26.8" style="enable-background:new 0 0 32.1 26.8;" xml:space="preserve">
<style type="text/css">
	.st0{clip-path:url(#SVGID_2_);}
	.st1{fill:#1F466B;}
</style>
<g>
	<defs>
		<rect id="SVGID_1_" width="32.1" height="26.8"/>
	</defs>
	<clipPath id="SVGID_2_">
		<use xlink:href="#SVGID_1_"  style="overflow:visible;"/>
	</clipPath>
	<g class="st0">
		<path class="st1" d="M19.1,22c0,1.6-1.3,2.9-2.9,2.9h-1.1c-0.4,0-0.8-0.1-1.1-0.2L3.7,20.2C2.6,19.7,2,18.7,2,17.6v-3.1
			c0-1,0.5-1.9,1.3-2.4l3.5-2.3C7.3,9.5,7.6,9.1,8,8.7l4.2-5.6C12.7,2.4,13.6,2,14.5,2c1.6,0,2.9,1.3,2.9,2.9V10
			c0,0.5,0.1,1,0.2,1.5L19,16c0.1,0.3,0.1,0.6,0.1,0.9V22z M19.3,10.8c-0.1-0.3-0.1-0.6-0.1-0.9V4.8C19.1,2.1,17,0,14.4,0
			c-1.5,0-2.9,0.7-3.8,1.9L6.3,7.5C6.1,7.8,5.9,8,5.6,8.2l-3.5,2.3c-1.3,0.9-2.1,2.4-2.1,4v3.1c0,1.9,1.1,3.6,2.9,4.4l10.4,4.4
			c0.6,0.3,1.2,0.4,1.9,0.4h1.1c2.6,0,4.8-2.1,4.8-4.8v-5.1c0-0.5-0.1-1-0.2-1.5L19.3,10.8z"/>
		<path class="st1" d="M7.2,17.2c-0.8,0-1.4-0.6-1.4-1.4c0-0.8,0.6-1.4,1.4-1.4s1.4,0.6,1.4,1.4C8.6,16.6,8,17.2,7.2,17.2z
			 M7.2,12.4c-1.8,0-3.3,1.5-3.3,3.4c0,1.8,1.5,3.4,3.3,3.4s3.3-1.5,3.3-3.4S9,12.4,7.2,12.4z"/>
		<path class="st1" d="M30.1,1v1.9c0,1.2-0.8,2.3-1.9,2.7V1h-1.9v4.6c-1.1-0.4-1.9-1.5-1.9-2.7V1h-1.9v1.9c0,2.3,1.6,4.2,3.8,4.7
			v18.3h1.9V7.6C30.4,7.2,32,5.2,32,2.9V1H30.1z"/>
	</g>
</g>
</svg>
