<?xml version="1.0" encoding="utf-8"?>
<!-- Generator: Adobe Illustrator 24.0.2, SVG Export Plug-In . SVG Version: 6.00 Build 0)  -->
<svg version="1.1" id="Capa_1" xmlns="http://www.w3.org/2000/svg" xmlns:xlink="http://www.w3.org/1999/xlink" x="0px" y="0px"
	 viewBox="0 0 29.8 21.1" style="enable-background:new 0 0 29.8 21.1;" xml:space="preserve">
<style type="text/css">
	.st0{clip-path:url(#SVGID_2_);}
	.st1{fill:#1F466B;}
</style>
<g>
	<defs>
		<rect id="SVGID_1_" width="29.8" height="21.1"/>
	</defs>
	<clipPath id="SVGID_2_">
		<use xlink:href="#SVGID_1_"  style="overflow:visible;"/>
	</clipPath>
	<g class="st0">
		<path class="st1" d="M13.5,19.7l1.4,1.4l1.4-1.4C15.5,19,14.3,19,13.5,19.7z"/>
		<path class="st1" d="M10.8,17l1.4,1.4c0.7-0.7,1.7-1.1,2.7-1.1s2,0.4,2.7,1.1L19,17c-1.1-1.1-2.5-1.7-4.1-1.7
			C13.4,15.3,11.9,15.9,10.8,17z"/>
		<path class="st1" d="M8.1,14.3l1.4,1.4c1.4-1.4,3.4-2.2,5.4-2.2s4,0.8,5.4,2.2l1.4-1.4c-1.8-1.8-4.2-2.8-6.8-2.8
			S9.9,12.5,8.1,14.3z"/>
		<path class="st1" d="M5.4,11.6L6.8,13c2.2-2.2,5.1-3.4,8.1-3.4c3.1,0,6,1.2,8.1,3.4l1.4-1.4c-2.5-2.5-5.9-3.9-9.5-3.9
			S7.9,9.1,5.4,11.6z"/>
		<path class="st1" d="M2.7,8.9l1.4,1.4c2.9-3,6.7-4.6,10.8-4.6s7.9,1.6,10.8,4.5l1.4-1.4c-3.3-3.3-7.6-5-12.2-5S6,5.6,2.7,8.9z"/>
		<path class="st1" d="M14.9,0C9.3,0,4,2.2,0,6.2l1.4,1.4C5,3.9,9.8,1.9,14.9,1.9s9.9,2,13.5,5.6l1.4-1.4C25.8,2.2,20.5,0,14.9,0z"
			/>
	</g>
</g>
</svg>
