<svg id="Capa_1" data-name="Capa 1" xmlns="http://www.w3.org/2000/svg" xmlns:xlink="http://www.w3.org/1999/xlink" viewBox="0 0 168.43 120.3"><defs><style>.cls-1,.cls-4,.cls-6,.cls-7,.cls-9{fill:none;}.cls-2{clip-path:url(#clip-path);}.cls-3{fill:#bacdae;}.cls-4{stroke:#bacdae;}.cls-4,.cls-6,.cls-7,.cls-9{stroke-miterlimit:10;}.cls-4,.cls-6,.cls-9{stroke-width:0;}.cls-5{fill:#ebebeb;}.cls-6{stroke:#ebebeb;}.cls-7,.cls-9{stroke:#63666b;stroke-linecap:round;}.cls-7{stroke-width:0.25px;}.cls-8{fill:#63666b;}.cls-10{clip-path:url(#clip-path-3);}</style><clipPath id="clip-path"><rect class="cls-1" x="-70.98" y="-530.54" width="1190.55" height="841.89"/></clipPath><clipPath id="clip-path-3"><rect class="cls-1" width="168.43" height="120.3"/></clipPath></defs><title>E004S</title><g class="cls-2"><g class="cls-2"><path class="cls-3" d="M13.72,49.49,23.78,52H13.72Zm10.06,0H13.72L23.78,52Z"/><path class="cls-4" d="M13.72,49.49,23.78,52H13.72Zm10.06,0H13.72L23.78,52Z"/><path class="cls-3" d="M13.72,52l11.45,21.9H13.72Zm11.45,0H13.72l11.45,21.9Z"/><path class="cls-4" d="M13.72,52l11.45,21.9H13.72Zm11.45,0H13.72l11.45,21.9Z"/><path class="cls-3" d="M13.72,73.93l11.45,5.34H13.72Zm11.45,0H13.72l11.45,5.34Z"/><path class="cls-4" d="M13.72,73.93l11.45,5.34H13.72Zm11.45,0H13.72l11.45,5.34Z"/><path class="cls-3" d="M13.72,79.27l10.06,1.15H13.72Zm10.06,0H13.72l10.06,1.15Z"/><path class="cls-4" d="M13.72,79.27l10.06,1.15H13.72Zm10.06,0H13.72l10.06,1.15Z"/><path class="cls-5" d="M43.25,43.89l14.51,5.6H43.25Zm14.51,0H43.25l14.51,5.6Z"/><path class="cls-6" d="M43.25,43.89l14.51,5.6H43.25Zm14.51,0H43.25l14.51,5.6Z"/><path class="cls-5" d="M23.78,49.49l34,2.54h-34Zm34,0h-34l34,2.54Z"/><path class="cls-6" d="M23.78,49.49l34,2.54h-34Zm34,0h-34l34,2.54Z"/><path class="cls-5" d="M25.17,52l32.59,1.78H25.17Zm32.59,0H25.17l32.59,1.78Z"/><path class="cls-6" d="M25.17,52l32.59,1.78H25.17Zm32.59,0H25.17l32.59,1.78Z"/><path class="cls-5" d="M25.17,53.82l34.76,9.54H25.17Zm34.76,0H25.17l34.76,9.54Z"/><path class="cls-6" d="M25.17,53.82l34.76,9.54H25.17Zm34.76,0H25.17l34.76,9.54Z"/><path class="cls-5" d="M25.17,63.36l32.59,7.77H25.17Zm32.59,0H25.17l32.59,7.77Z"/><path class="cls-6" d="M25.17,63.36l32.59,7.77H25.17Zm32.59,0H25.17l32.59,7.77Z"/><path class="cls-5" d="M25.17,71.13l34.76,5.09H25.17Zm34.76,0H25.17l34.76,5.09Z"/><path class="cls-6" d="M25.17,71.13l34.76,5.09H25.17Zm34.76,0H25.17l34.76,5.09Z"/><path class="cls-5" d="M25.17,76.22l32.59,3H25.17Zm32.59,0H25.17l32.59,3Z"/><path class="cls-6" d="M25.17,76.22l32.59,3H25.17Zm32.59,0H25.17l32.59,3Z"/><path class="cls-5" d="M43.25,79.27l14.51,5.6H43.25Zm14.51,0H43.25l14.51,5.6Z"/><path class="cls-6" d="M43.25,79.27l14.51,5.6H43.25Zm14.51,0H43.25l14.51,5.6Z"/><path class="cls-5" d="M43.25,84.87l4.46,4.71H43.25Zm4.46,0H43.25l4.46,4.71Z"/><path class="cls-6" d="M43.25,84.87l4.46,4.71H43.25Zm4.46,0H43.25l4.46,4.71Z"/><polyline class="cls-7" points="88.31 53.18 115.81 53.18 115.81 54.58 120.39 54.58 120.39 53.18 129.56 53.18 129.56 33.19 111.86 33.19 111.86 35.1 88.31 35.1 88.31 53.18"/><polyline class="cls-7" points="80.55 16.01 71 16.01 71 12.95 37.52 12.95 37.52 11.55 32.94 11.55 32.94 12.95 28.99 12.95 28.99 26.45 22.63 26.45 22.63 47.2 23.77 47.2 23.77 49.49 43.25 49.49 43.25 43.89 43.38 43.89 43.38 31.16 80.55 31.16 80.55 16.01"/><polyline class="cls-7" points="43.25 43.89 57.76 43.89 57.76 53.81 59.93 53.81 59.93 63.36 57.76 63.36 57.76 71.13 59.93 71.13 59.93 76.22 57.76 76.22 57.76 84.88 47.71 84.88 47.71 89.58 43.25 89.58 43.25 79.27 25.18 79.27 25.18 52.03 23.78 52.03 23.78 49.49 43.25 49.49 43.25 43.89"/><polyline class="cls-7" points="88.31 75.45 115.81 75.45 115.81 74.18 120.39 74.18 120.39 75.45 129.56 75.45 129.56 95.57 111.86 95.57 111.86 93.66 88.31 93.66 88.31 75.45"/><polyline class="cls-7" points="80.55 112.63 71 112.63 71 115.81 37.52 115.81 37.52 117.08 32.94 117.08 32.94 115.81 28.99 115.81 28.99 102.19 22.63 102.19 22.63 81.44 23.77 81.44 23.77 79.27 43.25 79.27 43.25 84.88 43.38 84.88 43.38 97.48 80.55 97.48 80.55 112.63"/><polyline class="cls-7" points="88.31 35.61 78.26 35.61 78.26 44.4 67.06 44.4 67.06 35.61 60.44 35.61 60.44 44.4 57.76 44.4"/><line class="cls-7" x1="60.44" y1="43.89" x2="67.06" y2="43.89"/><line class="cls-7" x1="67.06" y1="44.4" x2="60.44" y2="44.4"/><line class="cls-7" x1="78.26" y1="44.4" x2="88.31" y2="44.4"/><line class="cls-7" x1="88.31" y1="43.89" x2="78.26" y2="43.89"/><line class="cls-7" x1="59.93" y1="44.4" x2="59.93" y2="84.24"/><line class="cls-7" x1="60.44" y1="84.24" x2="60.44" y2="44.4"/><polyline class="cls-7" points="88.31 93.02 78.26 93.02 78.26 84.24 67.06 84.24 67.06 93.02 60.44 93.02 60.44 84.24 57.76 84.24"/><line class="cls-7" x1="60.44" y1="84.87" x2="67.06" y2="84.87"/><line class="cls-7" x1="67.06" y1="84.24" x2="60.44" y2="84.24"/><line class="cls-7" x1="78.26" y1="84.24" x2="88.31" y2="84.24"/><line class="cls-7" x1="88.31" y1="84.87" x2="78.26" y2="84.87"/><line class="cls-7" x1="60.44" y1="35.61" x2="60.82" y2="36.12"/><line class="cls-7" x1="61.07" y1="36.38" x2="61.45" y2="36.88"/><line class="cls-7" x1="61.58" y1="37.01" x2="61.96" y2="37.52"/><line class="cls-7" x1="62.09" y1="37.78" x2="62.47" y2="38.28"/><line class="cls-7" x1="62.73" y1="38.41" x2="63.11" y2="38.92"/><line class="cls-7" x1="63.24" y1="39.18" x2="63.62" y2="39.68"/><line class="cls-7" x1="63.87" y1="39.94" x2="64.26" y2="40.32"/><line class="cls-7" x1="64.38" y1="40.58" x2="64.76" y2="41.09"/><line class="cls-7" x1="65.02" y1="41.34" x2="65.27" y2="41.72"/><line class="cls-7" x1="65.53" y1="41.98" x2="65.91" y2="42.49"/><line class="cls-7" x1="66.04" y1="42.74" x2="66.42" y2="43.12"/><line class="cls-7" x1="66.67" y1="43.38" x2="67.06" y2="43.89"/><line class="cls-7" x1="60.44" y1="43.89" x2="60.82" y2="43.38"/><line class="cls-7" x1="61.07" y1="43.12" x2="61.45" y2="42.74"/><line class="cls-7" x1="61.58" y1="42.49" x2="61.96" y2="41.98"/><line class="cls-7" x1="62.09" y1="41.72" x2="62.47" y2="41.34"/><line class="cls-7" x1="62.73" y1="41.09" x2="63.11" y2="40.58"/><line class="cls-7" x1="63.24" y1="40.32" x2="63.62" y2="39.94"/><line class="cls-7" x1="63.87" y1="39.68" x2="64.26" y2="39.18"/><line class="cls-7" x1="64.38" y1="38.92" x2="64.76" y2="38.41"/><line class="cls-7" x1="65.02" y1="38.28" x2="65.27" y2="37.78"/><line class="cls-7" x1="65.53" y1="37.52" x2="65.91" y2="37.01"/><line class="cls-7" x1="66.04" y1="36.88" x2="66.42" y2="36.38"/><line class="cls-7" x1="66.67" y1="36.12" x2="67.06" y2="35.61"/><line class="cls-7" x1="78.26" y1="35.61" x2="78.64" y2="35.99"/><line class="cls-7" x1="78.89" y1="36.12" x2="79.4" y2="36.5"/><line class="cls-7" x1="79.53" y1="36.76" x2="80.04" y2="37.14"/><line class="cls-7" x1="80.29" y1="37.27" x2="80.8" y2="37.65"/><line class="cls-7" x1="80.93" y1="37.9" x2="81.44" y2="38.29"/><line class="cls-7" x1="81.69" y1="38.41" x2="82.2" y2="38.79"/><line class="cls-7" x1="82.33" y1="39.05" x2="82.84" y2="39.43"/><line class="cls-7" x1="83.1" y1="39.56" x2="83.6" y2="39.94"/><line class="cls-7" x1="83.73" y1="40.19" x2="84.24" y2="40.58"/><line class="cls-7" x1="84.49" y1="40.7" x2="85" y2="41.09"/><line class="cls-7" x1="85.13" y1="41.34" x2="85.64" y2="41.72"/><line class="cls-7" x1="85.9" y1="41.85" x2="86.28" y2="42.23"/><line class="cls-7" x1="86.53" y1="42.49" x2="87.04" y2="42.87"/><line class="cls-7" x1="87.3" y1="42.99" x2="87.68" y2="43.38"/><line class="cls-7" x1="87.93" y1="43.63" x2="88.31" y2="43.89"/><line class="cls-7" x1="88.31" y1="35.61" x2="87.93" y2="35.99"/><line class="cls-7" x1="87.68" y1="36.12" x2="87.3" y2="36.5"/><line class="cls-7" x1="87.04" y1="36.76" x2="86.53" y2="37.14"/><line class="cls-7" x1="86.28" y1="37.27" x2="85.9" y2="37.65"/><line class="cls-7" x1="85.64" y1="37.9" x2="85.13" y2="38.29"/><line class="cls-7" x1="85" y1="38.41" x2="84.5" y2="38.79"/><line class="cls-7" x1="84.24" y1="39.05" x2="83.73" y2="39.43"/><line class="cls-7" x1="83.6" y1="39.56" x2="83.1" y2="39.94"/><line class="cls-7" x1="82.84" y1="40.19" x2="82.33" y2="40.58"/><line class="cls-7" x1="82.2" y1="40.7" x2="81.7" y2="41.09"/><line class="cls-7" x1="81.44" y1="41.34" x2="80.93" y2="41.72"/><line class="cls-7" x1="80.8" y1="41.85" x2="80.29" y2="42.23"/><line class="cls-7" x1="80.04" y1="42.49" x2="79.53" y2="42.87"/><line class="cls-7" x1="79.4" y1="42.99" x2="78.89" y2="43.38"/><line class="cls-7" x1="78.64" y1="43.63" x2="78.26" y2="43.89"/><line class="cls-7" x1="57.76" y1="53.82" x2="59.93" y2="44.4"/><line class="cls-7" x1="57.76" y1="44.4" x2="59.93" y2="53.82"/><line class="cls-7" x1="57.76" y1="63.36" x2="58.02" y2="64.13"/><line class="cls-7" x1="58.14" y1="64.38" x2="58.27" y2="64.89"/><line class="cls-7" x1="58.27" y1="65.27" x2="58.53" y2="65.78"/><line class="cls-7" x1="58.53" y1="66.16" x2="58.65" y2="66.67"/><line class="cls-7" x1="58.78" y1="66.93" x2="58.91" y2="67.56"/><line class="cls-7" x1="59.04" y1="67.82" x2="59.16" y2="68.46"/><line class="cls-7" x1="59.29" y1="68.71" x2="59.42" y2="69.35"/><line class="cls-7" x1="59.55" y1="69.6" x2="59.67" y2="70.24"/><line class="cls-7" x1="59.67" y1="70.49" x2="59.93" y2="71.13"/><line class="cls-7" x1="57.76" y1="71.13" x2="58.02" y2="70.49"/><line class="cls-7" x1="58.14" y1="70.24" x2="58.27" y2="69.6"/><line class="cls-7" x1="58.27" y1="69.35" x2="58.53" y2="68.71"/><line class="cls-7" x1="58.53" y1="68.45" x2="58.65" y2="67.82"/><line class="cls-7" x1="58.78" y1="67.56" x2="58.91" y2="66.93"/><line class="cls-7" x1="59.04" y1="66.67" x2="59.16" y2="66.16"/><line class="cls-7" x1="59.29" y1="65.78" x2="59.42" y2="65.27"/><line class="cls-7" x1="59.55" y1="64.89" x2="59.67" y2="64.38"/><line class="cls-7" x1="59.67" y1="64.13" x2="59.93" y2="63.36"/><line class="cls-7" x1="60.44" y1="93.02" x2="60.82" y2="92.64"/><line class="cls-7" x1="61.07" y1="92.39" x2="61.45" y2="91.88"/><line class="cls-7" x1="61.58" y1="91.62" x2="61.96" y2="91.11"/><line class="cls-7" x1="62.09" y1="90.98" x2="62.47" y2="90.48"/><line class="cls-7" x1="62.73" y1="90.22" x2="63.11" y2="89.71"/><line class="cls-7" x1="63.24" y1="89.59" x2="63.62" y2="89.08"/><line class="cls-7" x1="63.87" y1="88.82" x2="64.26" y2="88.31"/><line class="cls-7" x1="64.38" y1="88.06" x2="64.76" y2="87.68"/><line class="cls-7" x1="65.02" y1="87.42" x2="65.27" y2="86.91"/><line class="cls-7" x1="65.53" y1="86.66" x2="65.91" y2="86.28"/><line class="cls-7" x1="66.04" y1="86.02" x2="66.42" y2="85.51"/><line class="cls-7" x1="66.67" y1="85.26" x2="67.06" y2="84.88"/><line class="cls-7" x1="60.44" y1="84.87" x2="60.82" y2="85.26"/><line class="cls-7" x1="61.07" y1="85.51" x2="61.45" y2="86.02"/><line class="cls-7" x1="61.58" y1="86.28" x2="61.96" y2="86.66"/><line class="cls-7" x1="62.09" y1="86.91" x2="62.47" y2="87.42"/><line class="cls-7" x1="62.73" y1="87.67" x2="63.11" y2="88.06"/><line class="cls-7" x1="63.24" y1="88.31" x2="63.62" y2="88.82"/><line class="cls-7" x1="63.87" y1="89.08" x2="64.26" y2="89.58"/><line class="cls-7" x1="64.38" y1="89.71" x2="64.76" y2="90.22"/><line class="cls-7" x1="65.02" y1="90.48" x2="65.27" y2="90.98"/><line class="cls-7" x1="65.53" y1="91.11" x2="65.91" y2="91.62"/><line class="cls-7" x1="66.04" y1="91.88" x2="66.42" y2="92.38"/><line class="cls-7" x1="66.67" y1="92.64" x2="67.06" y2="93.02"/><line class="cls-7" x1="78.26" y1="93.02" x2="78.64" y2="92.77"/><line class="cls-7" x1="78.89" y1="92.51" x2="79.4" y2="92.13"/><line class="cls-7" x1="79.53" y1="92" x2="80.04" y2="91.62"/><line class="cls-7" x1="80.29" y1="91.37" x2="80.8" y2="90.99"/><line class="cls-7" x1="80.93" y1="90.86" x2="81.44" y2="90.48"/><line class="cls-7" x1="81.69" y1="90.22" x2="82.2" y2="89.84"/><line class="cls-7" x1="82.33" y1="89.71" x2="82.84" y2="89.33"/><line class="cls-7" x1="83.1" y1="89.08" x2="83.6" y2="88.69"/><line class="cls-7" x1="83.73" y1="88.57" x2="84.24" y2="88.19"/><line class="cls-7" x1="84.49" y1="87.93" x2="85" y2="87.55"/><line class="cls-7" x1="85.13" y1="87.42" x2="85.64" y2="87.04"/><line class="cls-7" x1="85.9" y1="86.78" x2="86.28" y2="86.4"/><line class="cls-7" x1="86.53" y1="86.28" x2="87.04" y2="85.89"/><line class="cls-7" x1="87.3" y1="85.64" x2="87.68" y2="85.26"/><line class="cls-7" x1="87.93" y1="85.13" x2="88.31" y2="84.87"/><line class="cls-7" x1="78.26" y1="84.87" x2="78.64" y2="85.13"/><line class="cls-7" x1="78.89" y1="85.26" x2="79.4" y2="85.64"/><line class="cls-7" x1="79.53" y1="85.89" x2="80.04" y2="86.28"/><line class="cls-7" x1="80.29" y1="86.4" x2="80.8" y2="86.78"/><line class="cls-7" x1="80.93" y1="87.04" x2="81.44" y2="87.42"/><line class="cls-7" x1="81.69" y1="87.55" x2="82.2" y2="87.93"/><line class="cls-7" x1="82.33" y1="88.18" x2="82.84" y2="88.57"/><line class="cls-7" x1="83.1" y1="88.69" x2="83.6" y2="89.08"/><line class="cls-7" x1="83.73" y1="89.33" x2="84.24" y2="89.71"/><line class="cls-7" x1="84.49" y1="89.84" x2="85" y2="90.22"/><line class="cls-7" x1="85.13" y1="90.48" x2="85.64" y2="90.86"/><line class="cls-7" x1="85.9" y1="90.98" x2="86.28" y2="91.37"/><line class="cls-7" x1="86.53" y1="91.62" x2="87.04" y2="92"/><line class="cls-7" x1="87.3" y1="92.13" x2="87.68" y2="92.51"/><line class="cls-7" x1="87.93" y1="92.77" x2="88.31" y2="93.02"/><line class="cls-7" x1="57.76" y1="84.24" x2="57.89" y2="83.86"/><line class="cls-7" x1="58.02" y1="83.6" x2="58.14" y2="82.97"/><line class="cls-7" x1="58.27" y1="82.71" x2="58.4" y2="82.07"/><line class="cls-7" x1="58.4" y1="81.82" x2="58.65" y2="81.31"/><line class="cls-7" x1="58.65" y1="80.93" x2="58.78" y2="80.42"/><line class="cls-7" x1="58.91" y1="80.04" x2="59.04" y2="79.53"/><line class="cls-7" x1="59.16" y1="79.27" x2="59.29" y2="78.64"/><line class="cls-7" x1="59.42" y1="78.38" x2="59.54" y2="77.75"/><line class="cls-7" x1="59.55" y1="77.49" x2="59.67" y2="76.86"/><line class="cls-7" x1="59.8" y1="76.6" x2="59.93" y2="76.22"/><line class="cls-7" x1="57.76" y1="76.22" x2="57.89" y2="76.6"/><line class="cls-7" x1="58.02" y1="76.86" x2="58.14" y2="77.49"/><line class="cls-7" x1="58.27" y1="77.75" x2="58.4" y2="78.38"/><line class="cls-7" x1="58.4" y1="78.64" x2="58.65" y2="79.27"/><line class="cls-7" x1="58.65" y1="79.53" x2="58.78" y2="80.04"/><line class="cls-7" x1="58.91" y1="80.42" x2="59.04" y2="80.93"/><line class="cls-7" x1="59.16" y1="81.31" x2="59.29" y2="81.82"/><line class="cls-7" x1="59.42" y1="82.07" x2="59.54" y2="82.71"/><line class="cls-7" x1="59.55" y1="82.97" x2="59.67" y2="83.6"/><line class="cls-7" x1="59.8" y1="83.86" x2="59.93" y2="84.24"/><polyline class="cls-7" points="25.18 79.27 23.78 79.27 23.78 80.42 13.72 80.42 13.72 49.49 23.78 49.49 23.78 52.03 25.18 52.03 25.18 73.93 25.18 79.27"/><path class="cls-8" d="M48.29,25.17v-3h2.18v.35H48.69v.92h1.66v.36H48.69v1h1.85v.35Z"/><path class="cls-8" d="M52.1,23.69a2.9,2.9,0,0,1,.11-.86,1.22,1.22,0,0,1,.33-.5.81.81,0,0,1,.54-.17.94.94,0,0,1,.43.09.89.89,0,0,1,.3.28A1.85,1.85,0,0,1,54,23a3.35,3.35,0,0,1,.06.71,2.94,2.94,0,0,1-.1.86,1.13,1.13,0,0,1-.33.5.83.83,0,0,1-.55.18.84.84,0,0,1-.68-.32A2,2,0,0,1,52.1,23.69Zm.38,0a1.85,1.85,0,0,0,.18,1,.5.5,0,0,0,.85,0,1.87,1.87,0,0,0,.18-1,1.87,1.87,0,0,0-.18-1,.51.51,0,0,0-.43-.24.48.48,0,0,0-.41.22A2,2,0,0,0,52.48,23.69Z"/><path class="cls-8" d="M54.44,23.69a2.9,2.9,0,0,1,.11-.86,1,1,0,0,1,.33-.5.8.8,0,0,1,.54-.17.93.93,0,0,1,.42.09.84.84,0,0,1,.31.28,1.51,1.51,0,0,1,.18.45,2.73,2.73,0,0,1,.07.71,2.9,2.9,0,0,1-.11.86,1.11,1.11,0,0,1-.32.5.85.85,0,0,1-.55.18.81.81,0,0,1-.68-.32A2,2,0,0,1,54.44,23.69Zm.38,0a2,2,0,0,0,.17,1,.51.51,0,0,0,.86,0,2,2,0,0,0,.17-1,2,2,0,0,0-.17-1,.52.52,0,0,0-.43-.24.47.47,0,0,0-.41.22A1.86,1.86,0,0,0,54.82,23.69Z"/><path class="cls-8" d="M56.78,24.38l.37-.05a.79.79,0,0,0,.21.45.53.53,0,0,0,.38.14.6.6,0,0,0,.44-.18.61.61,0,0,0,.18-.45.53.53,0,0,0-.17-.41.57.57,0,0,0-.42-.17.92.92,0,0,0-.26,0l0-.32h.06a.76.76,0,0,0,.42-.12.41.41,0,0,0,.19-.38.46.46,0,0,0-.14-.34.48.48,0,0,0-.35-.13.48.48,0,0,0-.36.13.69.69,0,0,0-.19.41l-.37-.06a1,1,0,0,1,.31-.58.87.87,0,0,1,.6-.2,1,1,0,0,1,.45.1.75.75,0,0,1,.32.29.77.77,0,0,1,.11.39.61.61,0,0,1-.11.35.73.73,0,0,1-.31.26.69.69,0,0,1,.42.25.77.77,0,0,1,.15.49.88.88,0,0,1-.29.66,1,1,0,0,1-.73.28.92.92,0,0,1-.65-.24A.87.87,0,0,1,56.78,24.38Z"/><path class="cls-8" d="M156,13.21l-1.91-12.1h.38Zm-.26.12.26-.12-1.91-12.1Z"/><path class="cls-9" d="M156,13.21l-1.91-12.1h.38Zm-.26.12.26-.12-1.91-12.1Z"/><line class="cls-7" x1="157.31" y1="24.16" x2="155.91" y2="13.21"/><path class="cls-8" d="M156.8,13.08l-1.27-6.87h.38Zm-.38.13.38-.13-1.27-6.87Z"/><path class="cls-9" d="M156.8,13.08l-1.27-6.87h.38Zm-.38.13.38-.13-1.27-6.87Z"/><path class="cls-8" d="M155.4,13.33l-1.27-6.87.38-.13Zm-.38,0h.38l-1.27-6.87Z"/><path class="cls-9" d="M155.4,13.33l-1.27-6.87.38-.13Zm-.38,0h.38l-1.27-6.87Z"/><line class="cls-7" x1="157.05" y1="24.28" x2="156.8" y2="22.88"/><line class="cls-7" x1="147.63" y1="14.74" x2="145.85" y2="14.99"/><line class="cls-7" x1="166.09" y1="12.32" x2="164.18" y2="12.57"/><line class="cls-7" x1="166.09" y1="11.93" x2="145.72" y2="14.61"/><g class="cls-10"><path class="cls-7" d="M163.35,12.15a7.57,7.57,0,1,0-6.52,8.5,7.57,7.57,0,0,0,6.52-8.5"/><path class="cls-7" d="M162.85,12.22a7.07,7.07,0,1,0-6.08,7.93,7.06,7.06,0,0,0,6.08-7.93"/></g><path class="cls-8" d="M102,46.18v-3h2.18v.36h-1.78v.92h1.66v.35h-1.66v1h1.85v.36Z"/><path class="cls-8" d="M105.82,44.7a2.81,2.81,0,0,1,.11-.86,1,1,0,0,1,.33-.5.8.8,0,0,1,.54-.18.83.83,0,0,1,.43.1.8.8,0,0,1,.3.28,1.62,1.62,0,0,1,.19.44,3.45,3.45,0,0,1,.06.72,2.54,2.54,0,0,1-.11.85,1.06,1.06,0,0,1-.32.5.83.83,0,0,1-.55.18.82.82,0,0,1-.68-.31A2,2,0,0,1,105.82,44.7Zm.38,0a1.8,1.8,0,0,0,.18,1,.5.5,0,0,0,.42.25.52.52,0,0,0,.43-.25,1.82,1.82,0,0,0,.17-1,1.84,1.84,0,0,0-.17-1,.51.51,0,0,0-.43-.24.48.48,0,0,0-.41.21A2,2,0,0,0,106.2,44.7Z"/><path class="cls-8" d="M108.16,44.7a2.81,2.81,0,0,1,.11-.86,1,1,0,0,1,.32-.5.85.85,0,0,1,.55-.18.82.82,0,0,1,.42.1.76.76,0,0,1,.31.28,1.62,1.62,0,0,1,.18.44,3.51,3.51,0,0,1,0,1.57,1.06,1.06,0,0,1-.32.5.85.85,0,0,1-.55.18.81.81,0,0,1-.68-.31A2,2,0,0,1,108.16,44.7Zm.38,0a1.93,1.93,0,0,0,.17,1,.49.49,0,0,0,.86,0,1.93,1.93,0,0,0,.17-1,2,2,0,0,0-.17-1,.53.53,0,0,0-.44-.24.48.48,0,0,0-.4.21A1.88,1.88,0,0,0,108.54,44.7Z"/><path class="cls-8" d="M111.88,46.18h-.36V43.83a2.12,2.12,0,0,1-.35.25,3.38,3.38,0,0,1-.39.19v-.36a2,2,0,0,0,.54-.35,1.62,1.62,0,0,0,.33-.4h.23Z"/><path class="cls-8" d="M102.27,85.38l-.79-3h.4l.46,2c0,.2.09.41.13.61.07-.32.12-.5.13-.55l.57-2h.49l.43,1.52a9.71,9.71,0,0,1,.23,1.06c0-.19.09-.41.15-.65l.47-1.93h.4l-.82,3h-.39l-.63-2.29a3.51,3.51,0,0,1-.09-.35c0,.14-.07.25-.09.35l-.64,2.29Z"/><path class="cls-8" d="M106.73,83.9a2.85,2.85,0,0,1,.11-.86,1,1,0,0,1,.33-.5.8.8,0,0,1,.54-.18.93.93,0,0,1,.42.1.84.84,0,0,1,.31.28,1.56,1.56,0,0,1,.18.45,2.68,2.68,0,0,1,.07.71,2.78,2.78,0,0,1-.11.85,1.09,1.09,0,0,1-.32.51.9.9,0,0,1-.55.17.81.81,0,0,1-.68-.31A2,2,0,0,1,106.73,83.9Zm.38,0a2,2,0,0,0,.17,1,.52.52,0,0,0,.43.24.51.51,0,0,0,.43-.25,1.93,1.93,0,0,0,.17-1,2,2,0,0,0-.17-1,.52.52,0,0,0-.43-.24.48.48,0,0,0-.41.21A1.93,1.93,0,0,0,107.11,83.9Z"/><path class="cls-8" d="M109.07,83.9a2.89,2.89,0,0,1,.1-.86,1.15,1.15,0,0,1,.33-.5.83.83,0,0,1,.55-.18.93.93,0,0,1,.42.1.89.89,0,0,1,.3.28,1.56,1.56,0,0,1,.19.45,3.18,3.18,0,0,1,.07.71,2.78,2.78,0,0,1-.11.85,1.11,1.11,0,0,1-.33.51.85.85,0,0,1-.54.17.84.84,0,0,1-.69-.31A2,2,0,0,1,109.07,83.9Zm.37,0a1.87,1.87,0,0,0,.18,1,.51.51,0,0,0,.43.24.48.48,0,0,0,.42-.25,1.8,1.8,0,0,0,.18-1,1.85,1.85,0,0,0-.18-1,.51.51,0,0,0-.43-.24.49.49,0,0,0-.41.21A2,2,0,0,0,109.44,83.9Z"/><path class="cls-8" d="M111.43,82.77v-.36h1.94v.29a4.74,4.74,0,0,0-1,1.86,3.42,3.42,0,0,0-.14.82h-.38a3.53,3.53,0,0,1,.14-.86,3.92,3.92,0,0,1,.38-1,3.5,3.5,0,0,1,.53-.79Z"/><path class="cls-8" d="M36.07,66.16v-3h2.18v.35H36.47v.92h1.66v.35H36.47v1h1.85v.35Z"/><path class="cls-8" d="M39.88,64.68a2.85,2.85,0,0,1,.11-.86,1.22,1.22,0,0,1,.33-.5.82.82,0,0,1,.54-.18.94.94,0,0,1,.43.1.89.89,0,0,1,.3.28,1.56,1.56,0,0,1,.19.45,3.35,3.35,0,0,1,.06.71,2.82,2.82,0,0,1-.1.85,1.11,1.11,0,0,1-.33.51.86.86,0,0,1-.55.17.83.83,0,0,1-.68-.31A2,2,0,0,1,39.88,64.68Zm.38,0a1.87,1.87,0,0,0,.18,1,.51.51,0,0,0,.42.24.5.5,0,0,0,.43-.25,1.8,1.8,0,0,0,.18-1,1.87,1.87,0,0,0-.18-1,.51.51,0,0,0-.43-.24.49.49,0,0,0-.41.21A2,2,0,0,0,40.26,64.68Z"/><path class="cls-8" d="M42.22,64.68a2.85,2.85,0,0,1,.11-.86,1,1,0,0,1,.33-.5.8.8,0,0,1,.54-.18,1,1,0,0,1,.43.1.89.89,0,0,1,.3.28,1.32,1.32,0,0,1,.18.45,2.73,2.73,0,0,1,.07.71,2.78,2.78,0,0,1-.11.85,1.09,1.09,0,0,1-.32.51.9.9,0,0,1-.55.17.81.81,0,0,1-.68-.31A2,2,0,0,1,42.22,64.68Zm.38,0a2,2,0,0,0,.17,1,.52.52,0,0,0,.43.24.51.51,0,0,0,.43-.25,1.93,1.93,0,0,0,.17-1,2,2,0,0,0-.17-1,.52.52,0,0,0-.43-.24.48.48,0,0,0-.41.21A1.93,1.93,0,0,0,42.6,64.68Z"/><path class="cls-8" d="M45.74,66.16v-.72h-1.3V65.1l1.37-1.94h.3V65.1h.4v.34h-.4v.72Zm0-1.06V63.75L44.8,65.1Z"/><path class="cls-8" d="M48.81,106.39l-.8-3h.41l.46,2c0,.21.09.41.12.62.08-.32.13-.51.14-.56l.57-2h.48l.43,1.52a6.65,6.65,0,0,1,.23,1.07c0-.19.09-.41.16-.66l.47-1.93h.4l-.83,3h-.38L50,104.1l-.09-.36q0,.21-.09.36l-.64,2.29Z"/><path class="cls-8" d="M53.26,104.9a2.78,2.78,0,0,1,.11-.85,1.19,1.19,0,0,1,.33-.51.87.87,0,0,1,.54-.17.83.83,0,0,1,.43.1.73.73,0,0,1,.3.28,1.62,1.62,0,0,1,.19.44,3.41,3.41,0,0,1,.06.71,2.89,2.89,0,0,1-.1.86,1.07,1.07,0,0,1-.33.5.81.81,0,0,1-.55.18.86.86,0,0,1-.68-.31A2,2,0,0,1,53.26,104.9Zm.38,0a1.82,1.82,0,0,0,.18,1,.49.49,0,0,0,.85,0,1.82,1.82,0,0,0,.18-1,1.8,1.8,0,0,0-.18-1,.52.52,0,0,0-.43-.25.5.5,0,0,0-.41.22A2,2,0,0,0,53.64,104.9Z"/><path class="cls-8" d="M55.6,104.9a2.78,2.78,0,0,1,.11-.85,1,1,0,0,1,.33-.51.85.85,0,0,1,.54-.17.88.88,0,0,1,.43.1.73.73,0,0,1,.3.28,1.35,1.35,0,0,1,.18.44,2.78,2.78,0,0,1,.07.71,2.85,2.85,0,0,1-.11.86,1.06,1.06,0,0,1-.32.5.85.85,0,0,1-.55.18.83.83,0,0,1-.68-.31A2,2,0,0,1,55.6,104.9Zm.38,0a2,2,0,0,0,.17,1,.49.49,0,0,0,.86,0,2,2,0,0,0,.17-1,1.93,1.93,0,0,0-.17-1,.53.53,0,0,0-.43-.25.49.49,0,0,0-.41.22A1.86,1.86,0,0,0,56,104.9Z"/><path class="cls-8" d="M57.94,105.6l.38,0a.69.69,0,0,0,.2.42.54.54,0,0,0,.38.15.57.57,0,0,0,.45-.21.72.72,0,0,0,.19-.53.68.68,0,0,0-.18-.5.62.62,0,0,0-.46-.18.73.73,0,0,0-.33.08.74.74,0,0,0-.22.21L58,105l.29-1.55h1.5v.35h-1.2l-.16.81a1,1,0,0,1,.56-.19.88.88,0,0,1,.67.28.94.94,0,0,1,.27.7,1.06,1.06,0,0,1-.24.7.93.93,0,0,1-.79.37,1,1,0,0,1-.67-.23A.89.89,0,0,1,57.94,105.6Z"/><path class="cls-8" d="M5.06,68.15h-3v-.4H4.71V66.27h.35Z"/><path class="cls-8" d="M5.06,66.13,2.06,65v-.43l3-1.23v.46l-.91.35v1.25l.91.33Zm-1.23-.87v-1L3,64.55l-.63.22a2.94,2.94,0,0,1,.58.16Z"/><path class="cls-8" d="M3.88,61.59H3.53V60.31H4.65a2.52,2.52,0,0,1,.35.61,1.77,1.77,0,0,1,.12.64,1.67,1.67,0,0,1-.2.8,1.15,1.15,0,0,1-.54.55,1.79,1.79,0,0,1-.81.18,1.85,1.85,0,0,1-.81-.18,1.18,1.18,0,0,1-.57-.53A1.67,1.67,0,0,1,2,61.59a1.59,1.59,0,0,1,.1-.59.92.92,0,0,1,.3-.41,1.24,1.24,0,0,1,.49-.23l.1.36a1,1,0,0,0-.37.17.79.79,0,0,0-.21.28,1.16,1.16,0,0,0-.07.42,1.13,1.13,0,0,0,.08.47.83.83,0,0,0,.22.32,1.17,1.17,0,0,0,.3.19,1.46,1.46,0,0,0,.6.11,1.48,1.48,0,0,0,.67-.13,1,1,0,0,0,.41-.41,1.32,1.32,0,0,0,.13-.56,1.44,1.44,0,0,0-.1-.5,1.31,1.31,0,0,0-.22-.38H3.88Z"/><path class="cls-8" d="M3.6,59.85a1.66,1.66,0,0,1-1.17-.4,1.36,1.36,0,0,1-.43-1,1.45,1.45,0,0,1,.2-.75,1.38,1.38,0,0,1,.56-.51,1.71,1.71,0,0,1,.8-.18,1.8,1.8,0,0,1,.82.19,1.26,1.26,0,0,1,.55.52,1.56,1.56,0,0,1,.19.73,1.4,1.4,0,0,1-.21.76,1.38,1.38,0,0,1-.56.51A1.79,1.79,0,0,1,3.6,59.85Zm0-.41a1.22,1.22,0,0,0,.85-.29,1,1,0,0,0,0-1.48,1.3,1.3,0,0,0-.9-.29,1.44,1.44,0,0,0-.64.13.93.93,0,0,0-.42.36,1,1,0,0,0-.15.54,1,1,0,0,0,.29.72A1.25,1.25,0,0,0,3.61,59.44Z"/><path class="cls-8" d="M153.62,91.12l-3-1.16v-.43l3-1.23v.46l-.91.35v1.25l.91.33Zm-1.24-.87v-1l-.83.31c-.25.1-.46.17-.62.22a3,3,0,0,1,.57.16Z"/><path class="cls-8" d="M153.62,87.43l-2.18.82v-.38l1.3-.47.44-.14-.41-.14-1.33-.48v-.38l2.18.82Z"/><path class="cls-8" d="M153.62,85.83h-.42v-.42h.42Z"/><path class="cls-8" d="M152.76,83.75l0-.35a.86.86,0,0,0,.48-.13.5.5,0,0,0,.05-.58.34.34,0,0,0-.18-.15,1.21,1.21,0,0,0-.38,0h-2.07v-.4h2a1.5,1.5,0,0,1,.58.09.65.65,0,0,1,.32.29,1,1,0,0,1,.11.47.78.78,0,0,1-.23.6A.92.92,0,0,1,152.76,83.75Z"/><path class="cls-8" d="M152.15,81.57a1.61,1.61,0,0,1-1.17-.4,1.5,1.5,0,0,1-.22-1.79,1.29,1.29,0,0,1,.55-.51,1.78,1.78,0,0,1,.81-.17,1.86,1.86,0,0,1,.82.18,1.24,1.24,0,0,1,.54.52,1.45,1.45,0,0,1,.19.73,1.38,1.38,0,0,1-.21.76,1.26,1.26,0,0,1-.56.51A1.72,1.72,0,0,1,152.15,81.57Zm0-.41a1.2,1.2,0,0,0,.85-.29,1,1,0,0,0,0-1.47,1.24,1.24,0,0,0-.89-.29,1.64,1.64,0,0,0-.65.12.93.93,0,0,0-.42.36,1,1,0,0,0-.15.54,1.05,1.05,0,0,0,.29.73A1.31,1.31,0,0,0,152.16,81.16Z"/><path class="cls-8" d="M153.62,78.51l-3-1.15v-.43l3-1.23v.45l-.91.35v1.26l.91.33Zm-1.24-.86v-1l-.83.31a5,5,0,0,1-.62.21,4.11,4.11,0,0,1,.57.17Z"/><path class="cls-8" d="M153.29,73.1a2.18,2.18,0,0,0,.28-.51l.28.12a2.39,2.39,0,0,1-.37.65,1.48,1.48,0,0,1,0,1.47,1.31,1.31,0,0,1-.55.52,1.79,1.79,0,0,1-.81.18,1.73,1.73,0,0,1-.81-.19,1.24,1.24,0,0,1-.55-.51,1.56,1.56,0,0,1,0-1.49,1.25,1.25,0,0,1,.56-.51,1.74,1.74,0,0,1,.8-.18,2,2,0,0,1,.67.11A1.39,1.39,0,0,1,153.29,73.1Zm-.5.88a1.52,1.52,0,0,1,.28-.57,1.24,1.24,0,0,0-1-.35,1.62,1.62,0,0,0-.64.12,1,1,0,0,0-.42.37,1,1,0,0,0,.15,1.27,1.26,1.26,0,0,0,.91.3,1.3,1.3,0,0,0,.9-.29,1,1,0,0,0,.32-.75,1.1,1.1,0,0,0-.08-.4,1.27,1.27,0,0,0-.17.4Z"/><path class="cls-8" d="M150.61,70.14v-.4h1.74a2,2,0,0,1,.72.11.9.9,0,0,1,.43.37,1.32,1.32,0,0,1,.17.7,1.41,1.41,0,0,1-.15.69.82.82,0,0,1-.42.38,1.89,1.89,0,0,1-.75.12h-1.74v-.4h1.73a1.64,1.64,0,0,0,.58-.07.55.55,0,0,0,.29-.25,1,1,0,0,0-.1-1.06,1.18,1.18,0,0,0-.77-.19Z"/><path class="cls-8" d="M153.62,69h-3v-.39h3Z"/><path class="cls-8" d="M153.62,67.92h-3v-.41L153,65.93h-2.36v-.38h3V66l-2.37,1.58h2.37Z"/><path class="cls-8" d="M152.65,63.85l0-.38a.71.71,0,0,0,.37-.12.67.67,0,0,0,.23-.3,1.14,1.14,0,0,0,.09-.46,1,1,0,0,0-.07-.4.47.47,0,0,0-.18-.26.43.43,0,0,0-.26-.09.44.44,0,0,0-.25.08.6.6,0,0,0-.17.27,4,4,0,0,0-.15.54,3,3,0,0,1-.19.58.8.8,0,0,1-.28.32.67.67,0,0,1-.37.11.83.83,0,0,1-.43-.13.88.88,0,0,1-.3-.38,1.42,1.42,0,0,1-.1-.55,1.35,1.35,0,0,1,.11-.59.85.85,0,0,1,.79-.54l0,.38a.64.64,0,0,0-.44.21.83.83,0,0,0-.14.52.84.84,0,0,0,.13.53.4.4,0,0,0,.32.16.37.37,0,0,0,.27-.11,1.59,1.59,0,0,0,.21-.61A4.16,4.16,0,0,1,152,62a1,1,0,0,1,.31-.39.77.77,0,0,1,.43-.12.81.81,0,0,1,.45.13,1,1,0,0,1,.33.4,1.34,1.34,0,0,1,.12.58,1.69,1.69,0,0,1-.12.68,1,1,0,0,1-.36.44A1.1,1.1,0,0,1,152.65,63.85Z"/><path class="cls-8" d="M153.62,60.91h-3V58.73H151v1.78h.92V58.84h.35v1.67h1V58.66h.36Z"/><path class="cls-8" d="M152.56,56l.1-.4a1.29,1.29,0,0,1,.75.45,1.25,1.25,0,0,1,.26.79,1.42,1.42,0,0,1-.2.79,1.21,1.21,0,0,1-.57.47,2.17,2.17,0,0,1-.81.16,1.77,1.77,0,0,1-.82-.18,1.24,1.24,0,0,1-.53-.51,1.52,1.52,0,0,1-.18-.73,1.19,1.19,0,0,1,.23-.76,1.17,1.17,0,0,1,.64-.43l.1.39a1,1,0,0,0-.48.3.83.83,0,0,0-.15.51.94.94,0,0,0,.16.57.87.87,0,0,0,.45.33,1.65,1.65,0,0,0,.58.1,1.74,1.74,0,0,0,.67-.12.87.87,0,0,0,.43-.34,1,1,0,0,0,.14-.51.84.84,0,0,0-.2-.57A.93.93,0,0,0,152.56,56Z"/><path class="cls-8" d="M152.15,55.2a1.61,1.61,0,0,1-1.17-.4,1.39,1.39,0,0,1-.42-1,1.36,1.36,0,0,1,.2-.75,1.29,1.29,0,0,1,.55-.51,1.79,1.79,0,0,1,.81-.18,1.87,1.87,0,0,1,.82.19,1.24,1.24,0,0,1,.54.52,1.45,1.45,0,0,1,.19.73,1.4,1.4,0,0,1-.21.76,1.32,1.32,0,0,1-.56.51A1.72,1.72,0,0,1,152.15,55.2Zm0-.41a1.2,1.2,0,0,0,.85-.29A1,1,0,0,0,153,53a1.29,1.29,0,0,0-.89-.29,1.64,1.64,0,0,0-.65.13.93.93,0,0,0-.42.36,1,1,0,0,0-.15.54,1,1,0,0,0,.29.72A1.27,1.27,0,0,0,152.16,54.79Z"/><path class="cls-8" d="M153.62,50.58h-3v-.4h3Z"/><path class="cls-8" d="M153.62,49.49h-3V49.1h2.65V47.62h.36Z"/><path class="cls-8" d="M153.62,47.16h-3v-.4h2.65V45.28h.36Z"/><path class="cls-8" d="M153.62,45.14l-3-1.16v-.43l3-1.23v.46l-.91.35v1.25l.91.33Zm-1.24-.87v-1l-.83.31c-.25.1-.46.17-.62.22a3,3,0,0,1,.57.16Z"/><polyline class="cls-7" points="111.86 33.19 129.56 33.19 129.56 12.95 120.39 12.95 120.39 11.55 115.81 11.55 115.81 12.95 88.82 12.95 88.82 16.01 80.55 16.01 80.55 31.16 111.86 31.16 111.86 33.19"/><polyline class="cls-7" points="111.86 95.57 129.56 95.57 129.56 115.81 120.39 115.81 120.39 117.08 115.81 117.08 115.81 115.81 88.82 115.81 88.82 112.63 80.55 112.63 80.55 97.48 111.86 97.48 111.86 95.57"/><path class="cls-8" d="M102.46,22.68v-.21h.77v.67a1.68,1.68,0,0,1-.36.21,1.07,1.07,0,0,1-.39.07,1.06,1.06,0,0,1-.48-.11.75.75,0,0,1-.33-.33,1.06,1.06,0,0,1-.11-.48,1.14,1.14,0,0,1,.11-.49.67.67,0,0,1,.32-.34.91.91,0,0,1,.47-.11,1,1,0,0,1,.36.06.49.49,0,0,1,.24.18.61.61,0,0,1,.14.29l-.21.06a.65.65,0,0,0-.11-.22.37.37,0,0,0-.17-.12.62.62,0,0,0-.25,0,.82.82,0,0,0-.28,0,.53.53,0,0,0-.19.13.58.58,0,0,0-.11.18,1,1,0,0,0,0,.77.56.56,0,0,0,.24.24.77.77,0,0,0,.64,0A.64.64,0,0,0,103,23v-.34Z"/><path class="cls-8" d="M103.38,23.39l.7-1.8h.25l.74,1.8h-.27l-.21-.54h-.76l-.19.54Zm.52-.74h.61l-.18-.5c-.06-.15-.1-.28-.13-.37,0,.11-.06.23-.1.34Z"/><path class="cls-8" d="M105.26,23.39v-1.8h.8a.91.91,0,0,1,.37.05.41.41,0,0,1,.2.17.5.5,0,0,1,.08.27.41.41,0,0,1-.13.32.59.59,0,0,1-.38.17.56.56,0,0,1,.14.09,1,1,0,0,1,.2.24l.31.49h-.3l-.23-.37a1.65,1.65,0,0,0-.18-.25.34.34,0,0,0-.12-.12.22.22,0,0,0-.11,0h-.41v.8Zm.24-1H106a.81.81,0,0,0,.25,0,.26.26,0,0,0,.14-.11.3.3,0,0,0,0-.16.26.26,0,0,0-.09-.21.42.42,0,0,0-.3-.08h-.57Z"/><path class="cls-8" d="M106.88,23.39l.7-1.8h.25l.74,1.8h-.27l-.21-.54h-.75l-.2.54Zm.52-.74H108l-.18-.5c-.06-.15-.1-.28-.13-.37a2.19,2.19,0,0,1-.1.34Z"/><path class="cls-8" d="M108.64,22.88l.22,0a.45.45,0,0,0,.07.28.26.26,0,0,0,.19.08.38.38,0,0,0,.16,0,.31.31,0,0,0,.09-.11,1.21,1.21,0,0,0,0-.23V21.59h.24v1.23a1.08,1.08,0,0,1,0,.35.47.47,0,0,1-.18.19.6.6,0,0,1-.27.06.49.49,0,0,1-.37-.13A.63.63,0,0,1,108.64,22.88Z"/><path class="cls-8" d="M110,23.39v-1.8h1.3v.21h-1.06v.55h1v.21h-1v.62h1.1v.21Z"/><path class="cls-8" d="M102.46,105.93v-.21h.77v.67a1.68,1.68,0,0,1-.36.21,1.07,1.07,0,0,1-.39.07,1.06,1.06,0,0,1-.48-.11.75.75,0,0,1-.33-.33,1.12,1.12,0,0,1,0-1,.67.67,0,0,1,.32-.34.91.91,0,0,1,.47-.11,1,1,0,0,1,.36.06.49.49,0,0,1,.24.18.61.61,0,0,1,.14.29l-.21.06a.65.65,0,0,0-.11-.22.37.37,0,0,0-.17-.12.62.62,0,0,0-.25,0,.82.82,0,0,0-.28,0,.53.53,0,0,0-.19.13.42.42,0,0,0-.11.18,1,1,0,0,0,0,.77.62.62,0,0,0,.24.24.77.77,0,0,0,.64,0,.85.85,0,0,0,.22-.13v-.34Z"/><path class="cls-8" d="M103.38,106.64l.7-1.8h.25l.74,1.8h-.27l-.21-.55h-.76l-.19.55Zm.52-.74h.61l-.18-.5c-.06-.15-.1-.28-.13-.37,0,.11-.06.23-.1.34Z"/><path class="cls-8" d="M105.26,106.64v-1.8h.8a.91.91,0,0,1,.37,0,.36.36,0,0,1,.2.17.5.5,0,0,1,.08.27.42.42,0,0,1-.13.32.59.59,0,0,1-.38.17.56.56,0,0,1,.14.09,1,1,0,0,1,.2.24l.31.49h-.3l-.23-.37a1.65,1.65,0,0,0-.18-.25.34.34,0,0,0-.12-.12.22.22,0,0,0-.11-.05h-.41v.8Zm.24-1H106a.81.81,0,0,0,.25,0,.26.26,0,0,0,.14-.11.3.3,0,0,0,0-.16.26.26,0,0,0-.09-.21.42.42,0,0,0-.3-.08h-.57Z"/><path class="cls-8" d="M106.88,106.64l.7-1.8h.25l.74,1.8h-.27l-.21-.55h-.75l-.2.55Zm.52-.74H108l-.18-.5c-.06-.15-.1-.28-.13-.37a2.19,2.19,0,0,1-.1.34Z"/><path class="cls-8" d="M108.64,106.13l.22,0a.45.45,0,0,0,.07.28.26.26,0,0,0,.19.08.38.38,0,0,0,.16,0,.31.31,0,0,0,.09-.11,1.21,1.21,0,0,0,0-.23v-1.24h.24v1.23a1.08,1.08,0,0,1,0,.35.47.47,0,0,1-.18.19.6.6,0,0,1-.27.06.46.46,0,0,1-.37-.14A.58.58,0,0,1,108.64,106.13Z"/><path class="cls-8" d="M110,106.64v-1.8h1.3v.21h-1.06v.55h1v.21h-1v.62h1.1v.21Z"/><line class="cls-7" x1="107.79" y1="117.97" x2="108.43" y2="117.97"/><line class="cls-7" x1="108.81" y1="117.97" x2="109.32" y2="117.97"/><line class="cls-7" x1="109.7" y1="117.97" x2="110.21" y2="117.97"/><line class="cls-7" x1="110.59" y1="117.97" x2="111.1" y2="117.97"/><line class="cls-7" x1="111.48" y1="117.97" x2="111.99" y2="117.97"/><line class="cls-7" x1="112.37" y1="117.97" x2="113.01" y2="117.97"/><line class="cls-7" x1="113.26" y1="117.97" x2="113.9" y2="117.97"/><line class="cls-7" x1="114.15" y1="117.97" x2="114.79" y2="117.97"/><line class="cls-7" x1="115.05" y1="117.97" x2="115.68" y2="117.97"/><line class="cls-7" x1="115.94" y1="117.97" x2="116.57" y2="117.97"/><line class="cls-7" x1="116.83" y1="117.97" x2="117.46" y2="117.97"/><line class="cls-7" x1="117.72" y1="117.97" x2="118.36" y2="117.97"/><line class="cls-7" x1="118.61" y1="117.97" x2="119.25" y2="117.97"/><line class="cls-7" x1="119.63" y1="117.97" x2="120.14" y2="117.97"/><line class="cls-7" x1="120.52" y1="117.97" x2="121.03" y2="117.97"/><line class="cls-7" x1="121.41" y1="117.97" x2="121.92" y2="117.97"/><line class="cls-7" x1="122.3" y1="117.97" x2="122.94" y2="117.97"/><line class="cls-7" x1="123.19" y1="117.97" x2="123.83" y2="117.97"/><line class="cls-7" x1="112.12" y1="117.46" x2="112.37" y2="117.46"/><line class="cls-7" x1="112.75" y1="117.46" x2="113.39" y2="117.46"/><line class="cls-7" x1="113.65" y1="117.46" x2="114.28" y2="117.46"/><line class="cls-7" x1="114.54" y1="117.46" x2="115.17" y2="117.46"/><line class="cls-7" x1="115.43" y1="117.46" x2="116.07" y2="117.46"/><line class="cls-7" x1="116.32" y1="117.46" x2="116.96" y2="117.46"/><line class="cls-7" x1="117.21" y1="117.46" x2="117.85" y2="117.46"/><line class="cls-7" x1="118.1" y1="117.46" x2="118.74" y2="117.46"/><line class="cls-7" x1="118.99" y1="117.46" x2="119.63" y2="117.46"/><line class="cls-7" x1="119.88" y1="117.46" x2="120.52" y2="117.46"/><line class="cls-7" x1="120.9" y1="117.46" x2="121.41" y2="117.46"/><line class="cls-7" x1="121.79" y1="117.46" x2="122.3" y2="117.46"/><line class="cls-7" x1="122.68" y1="117.46" x2="123.19" y2="117.46"/><line class="cls-7" x1="123.58" y1="117.46" x2="123.83" y2="117.46"/><line class="cls-7" x1="112.12" y1="117.46" x2="112.63" y2="117.21"/><line class="cls-7" x1="112.88" y1="117.08" x2="113.39" y2="116.83"/><line class="cls-7" x1="113.65" y1="116.7" x2="114.15" y2="116.44"/><line class="cls-7" x1="114.54" y1="116.32" x2="115.05" y2="116.06"/><line class="cls-7" x1="115.3" y1="115.94" x2="115.81" y2="115.81"/><line class="cls-7" x1="112.12" y1="115.81" x2="112.63" y2="115.93"/><line class="cls-7" x1="112.88" y1="116.06" x2="113.39" y2="116.32"/><line class="cls-7" x1="113.65" y1="116.44" x2="114.15" y2="116.7"/><line class="cls-7" x1="114.54" y1="116.83" x2="115.05" y2="117.08"/><line class="cls-7" x1="115.3" y1="117.21" x2="115.81" y2="117.46"/><line class="cls-7" x1="120.39" y1="117.46" x2="120.77" y2="117.21"/><line class="cls-7" x1="121.03" y1="117.08" x2="121.54" y2="116.83"/><line class="cls-7" x1="121.79" y1="116.7" x2="122.43" y2="116.44"/><line class="cls-7" x1="122.68" y1="116.32" x2="123.19" y2="116.06"/><line class="cls-7" x1="123.45" y1="115.94" x2="123.83" y2="115.81"/><line class="cls-7" x1="120.39" y1="115.81" x2="120.77" y2="115.93"/><line class="cls-7" x1="121.03" y1="116.06" x2="121.54" y2="116.32"/><line class="cls-7" x1="121.79" y1="116.44" x2="122.43" y2="116.7"/><line class="cls-7" x1="122.68" y1="116.83" x2="123.19" y2="117.08"/><line class="cls-7" x1="123.45" y1="117.21" x2="123.83" y2="117.46"/><line class="cls-7" x1="123.83" y1="117.97" x2="124.34" y2="117.97"/><line class="cls-7" x1="124.59" y1="117.97" x2="125.23" y2="117.97"/><line class="cls-7" x1="125.48" y1="117.97" x2="126.12" y2="117.97"/><line class="cls-7" x1="126.38" y1="117.97" x2="127.01" y2="117.97"/><line class="cls-7" x1="127.27" y1="117.97" x2="127.9" y2="117.97"/><line class="cls-7" x1="128.16" y1="117.97" x2="128.79" y2="117.97"/><polyline class="cls-7" points="129.18 117.97 129.56 117.97 129.56 117.46"/><line class="cls-7" x1="129.56" y1="117.21" x2="129.56" y2="116.57"/><line class="cls-7" x1="129.56" y1="116.32" x2="129.56" y2="115.81"/><line class="cls-7" x1="123.83" y1="117.46" x2="123.83" y2="116.7"/><line class="cls-7" x1="123.83" y1="116.44" x2="123.83" y2="115.81"/><line class="cls-7" x1="107.79" y1="115.81" x2="107.79" y2="116.32"/><line class="cls-7" x1="107.79" y1="116.57" x2="107.79" y2="117.21"/><line class="cls-7" x1="107.79" y1="117.46" x2="107.79" y2="117.97"/><line class="cls-7" x1="112.12" y1="117.46" x2="112.12" y2="116.7"/><line class="cls-7" x1="112.12" y1="116.44" x2="112.12" y2="115.81"/><line class="cls-7" x1="112.12" y1="73.04" x2="112.37" y2="73.04"/><line class="cls-7" x1="112.75" y1="73.04" x2="113.39" y2="73.04"/><line class="cls-7" x1="113.65" y1="73.04" x2="114.28" y2="73.04"/><line class="cls-7" x1="114.54" y1="73.04" x2="115.17" y2="73.04"/><line class="cls-7" x1="115.43" y1="73.04" x2="116.07" y2="73.04"/><line class="cls-7" x1="116.32" y1="73.04" x2="116.96" y2="73.04"/><line class="cls-7" x1="117.21" y1="73.04" x2="117.85" y2="73.04"/><line class="cls-7" x1="118.1" y1="73.04" x2="118.74" y2="73.04"/><line class="cls-7" x1="118.99" y1="73.04" x2="119.63" y2="73.04"/><line class="cls-7" x1="119.88" y1="73.04" x2="120.52" y2="73.04"/><line class="cls-7" x1="120.9" y1="73.04" x2="121.41" y2="73.04"/><line class="cls-7" x1="121.79" y1="73.04" x2="122.3" y2="73.04"/><line class="cls-7" x1="122.68" y1="73.04" x2="123.19" y2="73.04"/><line class="cls-7" x1="123.58" y1="73.04" x2="123.83" y2="73.04"/><line class="cls-7" x1="112.12" y1="73.67" x2="112.37" y2="73.67"/><line class="cls-7" x1="112.75" y1="73.67" x2="113.39" y2="73.67"/><line class="cls-7" x1="113.65" y1="73.67" x2="114.28" y2="73.67"/><line class="cls-7" x1="114.54" y1="73.67" x2="115.17" y2="73.67"/><line class="cls-7" x1="115.43" y1="73.67" x2="116.07" y2="73.67"/><line class="cls-7" x1="116.32" y1="73.67" x2="116.96" y2="73.67"/><line class="cls-7" x1="117.21" y1="73.67" x2="117.85" y2="73.67"/><line class="cls-7" x1="118.1" y1="73.67" x2="118.74" y2="73.67"/><line class="cls-7" x1="118.99" y1="73.67" x2="119.63" y2="73.67"/><line class="cls-7" x1="119.88" y1="73.67" x2="120.52" y2="73.67"/><line class="cls-7" x1="120.9" y1="73.67" x2="121.41" y2="73.67"/><line class="cls-7" x1="121.79" y1="73.67" x2="122.3" y2="73.67"/><line class="cls-7" x1="122.68" y1="73.67" x2="123.19" y2="73.67"/><line class="cls-7" x1="123.58" y1="73.67" x2="123.83" y2="73.67"/><line class="cls-7" x1="112.12" y1="73.67" x2="112.63" y2="73.93"/><line class="cls-7" x1="112.88" y1="74.05" x2="113.39" y2="74.31"/><line class="cls-7" x1="113.65" y1="74.44" x2="114.15" y2="74.69"/><line class="cls-7" x1="114.54" y1="74.82" x2="115.05" y2="75.07"/><line class="cls-7" x1="115.3" y1="75.2" x2="115.81" y2="75.33"/><line class="cls-7" x1="112.12" y1="75.33" x2="112.63" y2="75.2"/><line class="cls-7" x1="112.88" y1="75.07" x2="113.39" y2="74.82"/><line class="cls-7" x1="113.65" y1="74.69" x2="114.15" y2="74.44"/><line class="cls-7" x1="114.54" y1="74.31" x2="115.05" y2="74.05"/><line class="cls-7" x1="115.3" y1="73.93" x2="115.81" y2="73.67"/><line class="cls-7" x1="120.39" y1="73.67" x2="120.77" y2="73.8"/><line class="cls-7" x1="121.03" y1="73.93" x2="121.54" y2="74.18"/><line class="cls-7" x1="121.79" y1="74.31" x2="122.43" y2="74.69"/><line class="cls-7" x1="122.68" y1="74.82" x2="123.19" y2="75.07"/><line class="cls-7" x1="123.45" y1="75.2" x2="123.83" y2="75.33"/><line class="cls-7" x1="120.39" y1="75.33" x2="120.77" y2="75.2"/><line class="cls-7" x1="121.03" y1="75.07" x2="121.54" y2="74.82"/><line class="cls-7" x1="121.79" y1="74.69" x2="122.43" y2="74.31"/><line class="cls-7" x1="122.68" y1="74.18" x2="123.19" y2="73.93"/><line class="cls-7" x1="123.45" y1="73.8" x2="123.83" y2="73.67"/><line class="cls-7" x1="123.83" y1="73.04" x2="124.34" y2="73.04"/><line class="cls-7" x1="124.59" y1="73.04" x2="125.23" y2="73.04"/><line class="cls-7" x1="125.48" y1="73.04" x2="126.12" y2="73.04"/><line class="cls-7" x1="126.38" y1="73.04" x2="127.01" y2="73.04"/><line class="cls-7" x1="127.27" y1="73.04" x2="127.9" y2="73.04"/><line class="cls-7" x1="128.16" y1="73.04" x2="128.79" y2="73.04"/><polyline class="cls-7" points="129.18 73.04 129.56 73.04 129.56 73.67"/><line class="cls-7" x1="129.56" y1="73.93" x2="129.56" y2="74.57"/><line class="cls-7" x1="129.56" y1="74.82" x2="129.56" y2="75.33"/><line class="cls-7" x1="123.83" y1="73.67" x2="123.83" y2="74.31"/><line class="cls-7" x1="123.83" y1="74.69" x2="123.83" y2="75.33"/><line class="cls-7" x1="107.79" y1="10.66" x2="108.43" y2="10.66"/><line class="cls-7" x1="108.81" y1="10.66" x2="109.32" y2="10.66"/><line class="cls-7" x1="109.7" y1="10.66" x2="110.21" y2="10.66"/><line class="cls-7" x1="110.59" y1="10.66" x2="111.1" y2="10.66"/><line class="cls-7" x1="111.48" y1="10.66" x2="111.99" y2="10.66"/><line class="cls-7" x1="112.37" y1="10.66" x2="113.01" y2="10.66"/><line class="cls-7" x1="113.26" y1="10.66" x2="113.9" y2="10.66"/><line class="cls-7" x1="114.15" y1="10.66" x2="114.79" y2="10.66"/><line class="cls-7" x1="115.05" y1="10.66" x2="115.68" y2="10.66"/><line class="cls-7" x1="115.94" y1="10.66" x2="116.57" y2="10.66"/><line class="cls-7" x1="116.83" y1="10.66" x2="117.46" y2="10.66"/><line class="cls-7" x1="117.72" y1="10.66" x2="118.36" y2="10.66"/><line class="cls-7" x1="118.61" y1="10.66" x2="119.25" y2="10.66"/><line class="cls-7" x1="119.63" y1="10.66" x2="120.14" y2="10.66"/><line class="cls-7" x1="120.52" y1="10.66" x2="121.03" y2="10.66"/><line class="cls-7" x1="121.41" y1="10.66" x2="121.92" y2="10.66"/><line class="cls-7" x1="122.3" y1="10.66" x2="122.94" y2="10.66"/><line class="cls-7" x1="123.19" y1="10.66" x2="123.83" y2="10.66"/><line class="cls-7" x1="112.12" y1="11.3" x2="112.37" y2="11.3"/><line class="cls-7" x1="112.75" y1="11.3" x2="113.39" y2="11.3"/><line class="cls-7" x1="113.65" y1="11.3" x2="114.28" y2="11.3"/><line class="cls-7" x1="114.54" y1="11.3" x2="115.17" y2="11.3"/><line class="cls-7" x1="115.43" y1="11.3" x2="116.07" y2="11.3"/><line class="cls-7" x1="116.32" y1="11.3" x2="116.96" y2="11.3"/><line class="cls-7" x1="117.21" y1="11.3" x2="117.85" y2="11.3"/><line class="cls-7" x1="118.1" y1="11.3" x2="118.74" y2="11.3"/><line class="cls-7" x1="118.99" y1="11.3" x2="119.63" y2="11.3"/><line class="cls-7" x1="119.88" y1="11.3" x2="120.52" y2="11.3"/><line class="cls-7" x1="120.9" y1="11.3" x2="121.41" y2="11.3"/><line class="cls-7" x1="121.79" y1="11.3" x2="122.3" y2="11.3"/><line class="cls-7" x1="122.68" y1="11.3" x2="123.19" y2="11.3"/><line class="cls-7" x1="123.58" y1="11.3" x2="123.83" y2="11.3"/><line class="cls-7" x1="112.12" y1="11.3" x2="112.63" y2="11.43"/><line class="cls-7" x1="112.88" y1="11.55" x2="113.39" y2="11.81"/><line class="cls-7" x1="113.65" y1="11.93" x2="114.15" y2="12.19"/><line class="cls-7" x1="114.54" y1="12.32" x2="115.05" y2="12.57"/><line class="cls-7" x1="115.3" y1="12.7" x2="115.81" y2="12.95"/><line class="cls-7" x1="112.12" y1="12.95" x2="112.63" y2="12.7"/><line class="cls-7" x1="112.88" y1="12.57" x2="113.39" y2="12.32"/><line class="cls-7" x1="113.65" y1="12.19" x2="114.15" y2="11.93"/><line class="cls-7" x1="114.54" y1="11.81" x2="115.05" y2="11.55"/><line class="cls-7" x1="115.3" y1="11.43" x2="115.81" y2="11.3"/><line class="cls-7" x1="120.39" y1="11.3" x2="120.77" y2="11.43"/><line class="cls-7" x1="121.03" y1="11.55" x2="121.54" y2="11.81"/><line class="cls-7" x1="121.79" y1="11.93" x2="122.43" y2="12.19"/><line class="cls-7" x1="122.68" y1="12.32" x2="123.19" y2="12.57"/><line class="cls-7" x1="123.45" y1="12.7" x2="123.83" y2="12.95"/><line class="cls-7" x1="120.39" y1="12.95" x2="120.77" y2="12.7"/><line class="cls-7" x1="121.03" y1="12.57" x2="121.54" y2="12.32"/><line class="cls-7" x1="121.79" y1="12.19" x2="122.43" y2="11.93"/><line class="cls-7" x1="122.68" y1="11.81" x2="123.19" y2="11.55"/><line class="cls-7" x1="123.45" y1="11.43" x2="123.83" y2="11.3"/><line class="cls-7" x1="123.83" y1="10.66" x2="124.34" y2="10.66"/><line class="cls-7" x1="124.59" y1="10.66" x2="125.23" y2="10.66"/><line class="cls-7" x1="125.48" y1="10.66" x2="126.12" y2="10.66"/><line class="cls-7" x1="126.38" y1="10.66" x2="127.01" y2="10.66"/><line class="cls-7" x1="127.27" y1="10.66" x2="127.9" y2="10.66"/><line class="cls-7" x1="128.16" y1="10.66" x2="128.79" y2="10.66"/><polyline class="cls-7" points="129.18 10.66 129.56 10.66 129.56 11.17"/><line class="cls-7" x1="129.56" y1="11.55" x2="129.56" y2="12.06"/><line class="cls-7" x1="129.56" y1="12.44" x2="129.56" y2="12.95"/><line class="cls-7" x1="123.83" y1="11.3" x2="123.83" y2="11.94"/><line class="cls-7" x1="123.83" y1="12.19" x2="123.83" y2="12.95"/><line class="cls-7" x1="107.79" y1="12.95" x2="107.79" y2="12.44"/><line class="cls-7" x1="107.79" y1="12.06" x2="107.79" y2="11.55"/><line class="cls-7" x1="107.79" y1="11.17" x2="107.79" y2="10.66"/><line class="cls-7" x1="112.12" y1="11.3" x2="112.12" y2="11.94"/><line class="cls-7" x1="112.12" y1="12.19" x2="112.12" y2="12.95"/><line class="cls-7" x1="112.12" y1="55.6" x2="112.37" y2="55.6"/><line class="cls-7" x1="112.75" y1="55.6" x2="113.39" y2="55.6"/><line class="cls-7" x1="113.65" y1="55.6" x2="114.28" y2="55.6"/><line class="cls-7" x1="114.54" y1="55.6" x2="115.17" y2="55.6"/><line class="cls-7" x1="115.43" y1="55.6" x2="116.07" y2="55.6"/><line class="cls-7" x1="116.32" y1="55.6" x2="116.96" y2="55.6"/><line class="cls-7" x1="117.21" y1="55.6" x2="117.85" y2="55.6"/><line class="cls-7" x1="118.1" y1="55.6" x2="118.74" y2="55.6"/><line class="cls-7" x1="118.99" y1="55.6" x2="119.63" y2="55.6"/><line class="cls-7" x1="119.88" y1="55.6" x2="120.52" y2="55.6"/><line class="cls-7" x1="120.9" y1="55.6" x2="121.41" y2="55.6"/><line class="cls-7" x1="121.79" y1="55.6" x2="122.3" y2="55.6"/><line class="cls-7" x1="122.68" y1="55.6" x2="123.19" y2="55.6"/><line class="cls-7" x1="123.58" y1="55.6" x2="123.83" y2="55.6"/><line class="cls-7" x1="112.12" y1="55.09" x2="112.37" y2="55.09"/><line class="cls-7" x1="112.75" y1="55.09" x2="113.39" y2="55.09"/><line class="cls-7" x1="113.65" y1="55.09" x2="114.28" y2="55.09"/><line class="cls-7" x1="114.54" y1="55.09" x2="115.17" y2="55.09"/><line class="cls-7" x1="115.43" y1="55.09" x2="116.07" y2="55.09"/><line class="cls-7" x1="116.32" y1="55.09" x2="116.96" y2="55.09"/><line class="cls-7" x1="117.21" y1="55.09" x2="117.85" y2="55.09"/><line class="cls-7" x1="118.1" y1="55.09" x2="118.74" y2="55.09"/><line class="cls-7" x1="118.99" y1="55.09" x2="119.63" y2="55.09"/><line class="cls-7" x1="119.88" y1="55.09" x2="120.52" y2="55.09"/><line class="cls-7" x1="120.9" y1="55.09" x2="121.41" y2="55.09"/><line class="cls-7" x1="121.79" y1="55.09" x2="122.3" y2="55.09"/><line class="cls-7" x1="122.68" y1="55.09" x2="123.19" y2="55.09"/><line class="cls-7" x1="123.58" y1="55.09" x2="123.83" y2="55.09"/><line class="cls-7" x1="112.12" y1="55.09" x2="112.63" y2="54.83"/><line class="cls-7" x1="112.88" y1="54.71" x2="113.39" y2="54.45"/><line class="cls-7" x1="113.65" y1="54.32" x2="114.15" y2="54.07"/><line class="cls-7" x1="114.54" y1="53.94" x2="115.05" y2="53.69"/><line class="cls-7" x1="115.3" y1="53.56" x2="115.81" y2="53.31"/><line class="cls-7" x1="112.12" y1="53.31" x2="112.63" y2="53.56"/><line class="cls-7" x1="112.88" y1="53.69" x2="113.39" y2="53.94"/><line class="cls-7" x1="113.65" y1="54.07" x2="114.15" y2="54.32"/><line class="cls-7" x1="114.54" y1="54.45" x2="115.05" y2="54.71"/><line class="cls-7" x1="115.3" y1="54.83" x2="115.81" y2="55.09"/><line class="cls-7" x1="120.39" y1="55.09" x2="120.77" y2="54.83"/><line class="cls-7" x1="121.03" y1="54.71" x2="121.54" y2="54.45"/><line class="cls-7" x1="121.79" y1="54.32" x2="122.43" y2="54.07"/><line class="cls-7" x1="122.68" y1="53.94" x2="123.19" y2="53.69"/><line class="cls-7" x1="123.45" y1="53.56" x2="123.83" y2="53.31"/><line class="cls-7" x1="120.39" y1="53.31" x2="120.77" y2="53.56"/><line class="cls-7" x1="121.03" y1="53.69" x2="121.54" y2="53.94"/><line class="cls-7" x1="121.79" y1="54.07" x2="122.43" y2="54.32"/><line class="cls-7" x1="122.68" y1="54.45" x2="123.19" y2="54.71"/><line class="cls-7" x1="123.45" y1="54.83" x2="123.83" y2="55.09"/><line class="cls-7" x1="123.83" y1="55.6" x2="124.34" y2="55.6"/><line class="cls-7" x1="124.59" y1="55.6" x2="125.23" y2="55.6"/><line class="cls-7" x1="125.48" y1="55.6" x2="126.12" y2="55.6"/><line class="cls-7" x1="126.38" y1="55.6" x2="127.01" y2="55.6"/><line class="cls-7" x1="127.27" y1="55.6" x2="127.9" y2="55.6"/><line class="cls-7" x1="128.16" y1="55.6" x2="128.79" y2="55.6"/><polyline class="cls-7" points="129.18 55.6 129.56 55.6 129.56 55.09"/><line class="cls-7" x1="129.56" y1="54.83" x2="129.56" y2="54.2"/><line class="cls-7" x1="129.56" y1="53.82" x2="129.56" y2="53.31"/><line class="cls-7" x1="123.83" y1="55.09" x2="123.83" y2="54.32"/><line class="cls-7" x1="123.83" y1="54.07" x2="123.83" y2="53.31"/><polyline class="cls-7" points="88.31 53.18 107.79 53.18 107.79 55.6 112.12 55.6 112.12 53.18 115.81 53.18 115.81 54.58 120.39 54.58 120.39 53.18 129.56 53.18 129.56 33.19 111.86 33.19 111.86 35.1 88.31 35.1 88.31 53.18"/><polyline class="cls-7" points="88.31 75.45 107.79 75.45 107.79 73.04 112.12 73.04 112.12 75.45 115.81 75.45 115.81 74.18 120.39 74.18 120.39 75.45 129.56 75.45 129.56 95.57 111.86 95.57 111.86 93.66 88.31 93.66 88.31 75.45"/><line class="cls-7" x1="139.61" y1="33.19" x2="139.61" y2="50.12"/><g class="cls-10"><path class="cls-7" d="M136.07,55.48a5.54,5.54,0,0,0,3.54-5.43"/></g><polyline class="cls-7" points="136.05 55.6 129.56 55.6 129.56 53.18 129.56 33.19 139.61 33.19"/><line class="cls-7" x1="139.61" y1="95.57" x2="139.61" y2="78.51"/><g class="cls-10"><path class="cls-7" d="M139.61,78.46A5.54,5.54,0,0,0,136.07,73"/></g><polyline class="cls-7" points="136.05 73.04 129.56 73.04 129.56 75.45 129.56 95.57 139.61 95.57"/><polyline class="cls-7" points="20.59 13.84 20.47 14.61 19.83 18.94 18.68 23.14 17.03 27.08"/><g class="cls-10"><path class="cls-7" d="M16.94,27a29,29,0,0,0-2.52,6.23"/><path class="cls-7" d="M14.43,33.35a24.13,24.13,0,0,0-.82,5.6"/></g><polyline class="cls-7" points="13.72 38.92 13.72 49.49 23.77 49.49 23.77 47.2 22.63 47.2 22.63 26.45 28.99 26.45 28.99 12.95 22.12 12.95"/><g class="cls-10"><path class="cls-7" d="M21.92,13a1.21,1.21,0,0,0-1.4.81"/></g><line class="cls-7" x1="20.59" y1="115.17" x2="20.47" y2="114.41"/><g class="cls-10"><path class="cls-7" d="M20.32,114.36a38.36,38.36,0,0,0-3.4-12.82"/><path class="cls-7" d="M14.42,95.28a29.26,29.26,0,0,0,2.52,6.23"/><path class="cls-7" d="M13.6,89.68a24.69,24.69,0,0,0,.83,5.6"/></g><polyline class="cls-7" points="13.72 89.71 13.72 80.42 23.77 80.42 23.77 81.44 22.63 81.44 22.63 102.19 28.99 102.19 28.99 115.81 21.48 115.81"/><g class="cls-10"><path class="cls-7" d="M20.5,115.1a.84.84,0,0,0,1,.56"/></g></g></g></svg>