<svg id="Capa_1" data-name="Capa 1" xmlns="http://www.w3.org/2000/svg" xmlns:xlink="http://www.w3.org/1999/xlink" viewBox="0 0 168.31 120.36"><defs><style>.cls-1,.cls-4,.cls-5,.cls-7{fill:none;}.cls-2{clip-path:url(#clip-path);}.cls-3{fill:#ebebeb;}.cls-4{stroke:#ebebeb;}.cls-4,.cls-5,.cls-7{stroke-miterlimit:10;}.cls-4,.cls-7{stroke-width:0;}.cls-5,.cls-7{stroke:#63666b;stroke-linecap:round;}.cls-5{stroke-width:0.25px;}.cls-6{fill:#63666b;}.cls-8{clip-path:url(#clip-path-3);}</style><clipPath id="clip-path"><rect class="cls-1" x="-70.98" y="-530.48" width="1190.55" height="841.89"/></clipPath><clipPath id="clip-path-3"><rect class="cls-1" x="-0.12" y="0.06" width="168.43" height="120.3"/></clipPath></defs><title> E103S</title><g class="cls-2"><g class="cls-2"><path class="cls-3" d="M32.82,11.61,37.41,13H32.82Zm4.59,0H32.82L37.41,13Z"/><path class="cls-4" d="M32.82,11.61,37.41,13H32.82Zm4.59,0H32.82L37.41,13Z"/><path class="cls-3" d="M28.88,13l42,3.06h-42Zm42,0h-42l42,3.06Z"/><path class="cls-4" d="M28.88,13l42,3.06h-42Zm42,0h-42l42,3.06Z"/><path class="cls-3" d="M28.88,16.07,80.43,26.5H28.88Zm51.55,0H28.88L80.43,26.5Z"/><path class="cls-4" d="M28.88,16.07,80.43,26.5H28.88Zm51.55,0H28.88L80.43,26.5Z"/><path class="cls-3" d="M22.51,26.5l57.92,4.71H22.51Zm57.92,0H22.51l57.92,4.71Z"/><path class="cls-4" d="M22.51,26.5l57.92,4.71H22.51Zm57.92,0H22.51l57.92,4.71Z"/><path class="cls-3" d="M22.51,31.21,43.26,43.94H22.51Zm20.75,0H22.51L43.26,43.94Z"/><path class="cls-4" d="M22.51,31.21,43.26,43.94H22.51Zm20.75,0H22.51L43.26,43.94Z"/><path class="cls-3" d="M22.51,43.94l20.62,3.31H22.51Zm20.62,0H22.51l20.62,3.31Z"/><path class="cls-4" d="M22.51,43.94l20.62,3.31H22.51Zm20.62,0H22.51l20.62,3.31Z"/><path class="cls-3" d="M23.66,47.25l19.47,2.29H23.66Zm19.47,0H23.66l19.47,2.29Z"/><path class="cls-4" d="M23.66,47.25l19.47,2.29H23.66Zm19.47,0H23.66l19.47,2.29Z"/><polyline class="cls-5" points="80.43 16.07 70.88 16.07 70.88 13.01 37.41 13.01 37.41 11.61 32.82 11.61 32.82 13.01 28.88 13.01 28.88 26.5 22.51 26.5 22.51 47.25 23.66 47.25 23.66 49.55 43.13 49.55 43.13 43.94 43.26 43.94 43.26 31.21 80.43 31.21 80.43 16.07"/><polyline class="cls-5" points="43.13 43.94 57.65 43.94 57.65 53.87 59.81 53.87 59.81 63.42 57.65 63.42 57.65 71.19 59.81 71.19 59.81 76.28 57.65 76.28 57.65 84.93 47.59 84.93 47.59 89.64 43.13 89.64 43.13 79.33 25.06 79.33 25.06 52.09 23.66 52.09 23.66 49.55 43.13 49.55 43.13 43.94"/><polyline class="cls-5" points="80.43 112.68 70.88 112.68 70.88 115.86 37.41 115.86 37.41 117.14 32.82 117.14 32.82 115.86 28.88 115.86 28.88 102.25 22.51 102.25 22.51 81.5 23.66 81.5 23.66 79.33 43.13 79.33 43.13 84.93 43.26 84.93 43.26 97.53 80.43 97.53 80.43 112.68"/><polyline class="cls-5" points="88.2 35.67 78.14 35.67 78.14 44.45 66.94 44.45 66.94 35.67 60.32 35.67 60.32 44.45 57.65 44.45"/><line class="cls-5" x1="60.32" y1="43.94" x2="66.94" y2="43.94"/><line class="cls-5" x1="66.94" y1="44.45" x2="60.32" y2="44.45"/><line class="cls-5" x1="78.14" y1="44.45" x2="88.2" y2="44.45"/><line class="cls-5" x1="88.2" y1="43.94" x2="78.14" y2="43.94"/><line class="cls-5" x1="59.81" y1="44.45" x2="59.81" y2="84.3"/><line class="cls-5" x1="60.32" y1="84.3" x2="60.32" y2="44.45"/><polyline class="cls-5" points="88.2 93.08 78.14 93.08 78.14 84.3 66.94 84.3 66.94 93.08 60.32 93.08 60.32 84.3 57.65 84.3"/><line class="cls-5" x1="60.32" y1="84.93" x2="66.94" y2="84.93"/><line class="cls-5" x1="66.94" y1="84.3" x2="60.32" y2="84.3"/><line class="cls-5" x1="78.14" y1="84.3" x2="88.2" y2="84.3"/><line class="cls-5" x1="88.2" y1="84.93" x2="78.14" y2="84.93"/><line class="cls-5" x1="60.32" y1="35.67" x2="60.7" y2="36.18"/><line class="cls-5" x1="60.95" y1="36.43" x2="61.34" y2="36.94"/><line class="cls-5" x1="61.46" y1="37.07" x2="61.85" y2="37.58"/><line class="cls-5" x1="61.97" y1="37.83" x2="62.35" y2="38.34"/><line class="cls-5" x1="62.61" y1="38.47" x2="62.99" y2="38.98"/><line class="cls-5" x1="63.12" y1="39.23" x2="63.5" y2="39.74"/><line class="cls-5" x1="63.76" y1="40" x2="64.14" y2="40.38"/><line class="cls-5" x1="64.26" y1="40.63" x2="64.65" y2="41.14"/><line class="cls-5" x1="64.9" y1="41.4" x2="65.16" y2="41.78"/><line class="cls-5" x1="65.41" y1="42.03" x2="65.79" y2="42.54"/><line class="cls-5" x1="65.92" y1="42.8" x2="66.3" y2="43.18"/><line class="cls-5" x1="66.56" y1="43.43" x2="66.94" y2="43.94"/><line class="cls-5" x1="60.32" y1="43.94" x2="60.7" y2="43.43"/><line class="cls-5" x1="60.95" y1="43.18" x2="61.34" y2="42.8"/><line class="cls-5" x1="61.46" y1="42.54" x2="61.85" y2="42.03"/><line class="cls-5" x1="61.97" y1="41.78" x2="62.35" y2="41.4"/><line class="cls-5" x1="62.61" y1="41.14" x2="62.99" y2="40.63"/><line class="cls-5" x1="63.12" y1="40.38" x2="63.5" y2="40"/><line class="cls-5" x1="63.76" y1="39.74" x2="64.14" y2="39.23"/><line class="cls-5" x1="64.26" y1="38.98" x2="64.65" y2="38.47"/><line class="cls-5" x1="64.9" y1="38.34" x2="65.16" y2="37.83"/><line class="cls-5" x1="65.41" y1="37.58" x2="65.79" y2="37.07"/><line class="cls-5" x1="65.92" y1="36.94" x2="66.3" y2="36.43"/><line class="cls-5" x1="66.56" y1="36.18" x2="66.94" y2="35.67"/><line class="cls-5" x1="78.14" y1="35.67" x2="78.52" y2="36.05"/><line class="cls-5" x1="78.78" y1="36.18" x2="79.29" y2="36.56"/><line class="cls-5" x1="79.41" y1="36.81" x2="79.92" y2="37.2"/><line class="cls-5" x1="80.18" y1="37.32" x2="80.68" y2="37.71"/><line class="cls-5" x1="80.81" y1="37.96" x2="81.32" y2="38.34"/><line class="cls-5" x1="81.58" y1="38.47" x2="82.09" y2="38.85"/><line class="cls-5" x1="82.21" y1="39.11" x2="82.72" y2="39.49"/><line class="cls-5" x1="82.98" y1="39.62" x2="83.49" y2="40"/><line class="cls-5" x1="83.61" y1="40.25" x2="84.12" y2="40.63"/><line class="cls-5" x1="84.38" y1="40.76" x2="84.89" y2="41.14"/><line class="cls-5" x1="85.01" y1="41.4" x2="85.52" y2="41.78"/><line class="cls-5" x1="85.78" y1="41.91" x2="86.16" y2="42.29"/><line class="cls-5" x1="86.41" y1="42.54" x2="86.92" y2="42.92"/><line class="cls-5" x1="87.18" y1="43.05" x2="87.56" y2="43.43"/><line class="cls-5" x1="87.81" y1="43.69" x2="88.2" y2="43.94"/><line class="cls-5" x1="88.2" y1="35.67" x2="87.81" y2="36.05"/><line class="cls-5" x1="87.56" y1="36.18" x2="87.18" y2="36.56"/><line class="cls-5" x1="86.92" y1="36.81" x2="86.41" y2="37.2"/><line class="cls-5" x1="86.16" y1="37.32" x2="85.78" y2="37.71"/><line class="cls-5" x1="85.52" y1="37.96" x2="85.01" y2="38.34"/><line class="cls-5" x1="84.89" y1="38.47" x2="84.38" y2="38.85"/><line class="cls-5" x1="84.12" y1="39.11" x2="83.61" y2="39.49"/><line class="cls-5" x1="83.49" y1="39.62" x2="82.98" y2="40"/><line class="cls-5" x1="82.72" y1="40.25" x2="82.21" y2="40.63"/><line class="cls-5" x1="82.09" y1="40.76" x2="81.58" y2="41.14"/><line class="cls-5" x1="81.32" y1="41.4" x2="80.81" y2="41.78"/><line class="cls-5" x1="80.69" y1="41.91" x2="80.18" y2="42.29"/><line class="cls-5" x1="79.92" y1="42.54" x2="79.41" y2="42.92"/><line class="cls-5" x1="79.29" y1="43.05" x2="78.78" y2="43.43"/><line class="cls-5" x1="78.52" y1="43.69" x2="78.14" y2="43.94"/><line class="cls-5" x1="57.65" y1="53.87" x2="59.81" y2="44.45"/><line class="cls-5" x1="57.65" y1="44.45" x2="59.81" y2="53.87"/><line class="cls-5" x1="57.65" y1="63.42" x2="57.9" y2="64.18"/><line class="cls-5" x1="58.03" y1="64.44" x2="58.15" y2="64.95"/><line class="cls-5" x1="58.15" y1="65.33" x2="58.41" y2="65.84"/><line class="cls-5" x1="58.41" y1="66.22" x2="58.54" y2="66.73"/><line class="cls-5" x1="58.66" y1="66.98" x2="58.79" y2="67.62"/><line class="cls-5" x1="58.92" y1="67.87" x2="59.05" y2="68.51"/><line class="cls-5" x1="59.17" y1="68.77" x2="59.3" y2="69.4"/><line class="cls-5" x1="59.43" y1="69.66" x2="59.55" y2="70.29"/><line class="cls-5" x1="59.55" y1="70.55" x2="59.81" y2="71.18"/><line class="cls-5" x1="57.65" y1="71.18" x2="57.9" y2="70.55"/><line class="cls-5" x1="58.03" y1="70.29" x2="58.15" y2="69.66"/><line class="cls-5" x1="58.15" y1="69.4" x2="58.41" y2="68.76"/><line class="cls-5" x1="58.41" y1="68.51" x2="58.54" y2="67.87"/><line class="cls-5" x1="58.66" y1="67.62" x2="58.79" y2="66.98"/><line class="cls-5" x1="58.92" y1="66.73" x2="59.05" y2="66.22"/><line class="cls-5" x1="59.17" y1="65.84" x2="59.3" y2="65.33"/><line class="cls-5" x1="59.43" y1="64.95" x2="59.55" y2="64.44"/><line class="cls-5" x1="59.55" y1="64.18" x2="59.81" y2="63.42"/><line class="cls-5" x1="60.32" y1="93.08" x2="60.7" y2="92.7"/><line class="cls-5" x1="60.95" y1="92.44" x2="61.34" y2="91.93"/><line class="cls-5" x1="61.46" y1="91.68" x2="61.85" y2="91.17"/><line class="cls-5" x1="61.97" y1="91.04" x2="62.35" y2="90.53"/><line class="cls-5" x1="62.61" y1="90.28" x2="62.99" y2="89.77"/><line class="cls-5" x1="63.12" y1="89.64" x2="63.5" y2="89.13"/><line class="cls-5" x1="63.76" y1="88.88" x2="64.14" y2="88.37"/><line class="cls-5" x1="64.26" y1="88.11" x2="64.65" y2="87.73"/><line class="cls-5" x1="64.9" y1="87.48" x2="65.16" y2="86.97"/><line class="cls-5" x1="65.41" y1="86.71" x2="65.79" y2="86.33"/><line class="cls-5" x1="65.92" y1="86.08" x2="66.3" y2="85.57"/><line class="cls-5" x1="66.56" y1="85.31" x2="66.94" y2="84.93"/><line class="cls-5" x1="60.32" y1="84.93" x2="60.7" y2="85.31"/><line class="cls-5" x1="60.95" y1="85.57" x2="61.34" y2="86.08"/><line class="cls-5" x1="61.46" y1="86.33" x2="61.85" y2="86.71"/><line class="cls-5" x1="61.97" y1="86.97" x2="62.35" y2="87.48"/><line class="cls-5" x1="62.61" y1="87.73" x2="62.99" y2="88.11"/><line class="cls-5" x1="63.12" y1="88.37" x2="63.5" y2="88.88"/><line class="cls-5" x1="63.76" y1="89.13" x2="64.14" y2="89.64"/><line class="cls-5" x1="64.26" y1="89.77" x2="64.65" y2="90.28"/><line class="cls-5" x1="64.9" y1="90.53" x2="65.16" y2="91.04"/><line class="cls-5" x1="65.41" y1="91.17" x2="65.79" y2="91.68"/><line class="cls-5" x1="65.92" y1="91.93" x2="66.3" y2="92.44"/><line class="cls-5" x1="66.56" y1="92.7" x2="66.94" y2="93.08"/><line class="cls-5" x1="78.14" y1="93.08" x2="78.52" y2="92.82"/><line class="cls-5" x1="78.78" y1="92.57" x2="79.29" y2="92.19"/><line class="cls-5" x1="79.41" y1="92.06" x2="79.92" y2="91.68"/><line class="cls-5" x1="80.18" y1="91.42" x2="80.68" y2="91.04"/><line class="cls-5" x1="80.81" y1="90.91" x2="81.32" y2="90.53"/><line class="cls-5" x1="81.58" y1="90.28" x2="82.09" y2="89.9"/><line class="cls-5" x1="82.21" y1="89.77" x2="82.72" y2="89.39"/><line class="cls-5" x1="82.98" y1="89.13" x2="83.49" y2="88.75"/><line class="cls-5" x1="83.61" y1="88.62" x2="84.12" y2="88.24"/><line class="cls-5" x1="84.38" y1="87.99" x2="84.89" y2="87.61"/><line class="cls-5" x1="85.01" y1="87.48" x2="85.52" y2="87.1"/><line class="cls-5" x1="85.78" y1="86.84" x2="86.16" y2="86.46"/><line class="cls-5" x1="86.41" y1="86.33" x2="86.92" y2="85.95"/><line class="cls-5" x1="87.18" y1="85.7" x2="87.56" y2="85.31"/><line class="cls-5" x1="87.81" y1="85.19" x2="88.2" y2="84.93"/><line class="cls-5" x1="78.14" y1="84.93" x2="78.52" y2="85.19"/><line class="cls-5" x1="78.78" y1="85.31" x2="79.29" y2="85.7"/><line class="cls-5" x1="79.41" y1="85.95" x2="79.92" y2="86.33"/><line class="cls-5" x1="80.18" y1="86.46" x2="80.68" y2="86.84"/><line class="cls-5" x1="80.81" y1="87.1" x2="81.32" y2="87.48"/><line class="cls-5" x1="81.58" y1="87.61" x2="82.09" y2="87.99"/><line class="cls-5" x1="82.21" y1="88.24" x2="82.72" y2="88.62"/><line class="cls-5" x1="82.98" y1="88.75" x2="83.49" y2="89.13"/><line class="cls-5" x1="83.61" y1="89.39" x2="84.12" y2="89.77"/><line class="cls-5" x1="84.38" y1="89.9" x2="84.89" y2="90.28"/><line class="cls-5" x1="85.01" y1="90.53" x2="85.52" y2="90.91"/><line class="cls-5" x1="85.78" y1="91.04" x2="86.16" y2="91.42"/><line class="cls-5" x1="86.41" y1="91.68" x2="86.92" y2="92.06"/><line class="cls-5" x1="87.18" y1="92.19" x2="87.56" y2="92.57"/><line class="cls-5" x1="87.81" y1="92.83" x2="88.2" y2="93.08"/><line class="cls-5" x1="57.65" y1="84.3" x2="57.77" y2="83.91"/><line class="cls-5" x1="57.9" y1="83.66" x2="58.03" y2="83.02"/><line class="cls-5" x1="58.15" y1="82.77" x2="58.28" y2="82.13"/><line class="cls-5" x1="58.28" y1="81.88" x2="58.54" y2="81.37"/><line class="cls-5" x1="58.54" y1="80.99" x2="58.66" y2="80.48"/><line class="cls-5" x1="58.79" y1="80.1" x2="58.92" y2="79.59"/><line class="cls-5" x1="59.05" y1="79.33" x2="59.17" y2="78.7"/><line class="cls-5" x1="59.3" y1="78.44" x2="59.43" y2="77.8"/><line class="cls-5" x1="59.43" y1="77.55" x2="59.55" y2="76.91"/><line class="cls-5" x1="59.68" y1="76.66" x2="59.81" y2="76.28"/><line class="cls-5" x1="57.65" y1="76.28" x2="57.77" y2="76.66"/><line class="cls-5" x1="57.9" y1="76.91" x2="58.03" y2="77.55"/><line class="cls-5" x1="58.15" y1="77.8" x2="58.28" y2="78.44"/><line class="cls-5" x1="58.28" y1="78.69" x2="58.54" y2="79.33"/><line class="cls-5" x1="58.54" y1="79.59" x2="58.66" y2="80.09"/><line class="cls-5" x1="58.79" y1="80.48" x2="58.92" y2="80.99"/><line class="cls-5" x1="59.05" y1="81.37" x2="59.17" y2="81.88"/><line class="cls-5" x1="59.3" y1="82.13" x2="59.43" y2="82.77"/><line class="cls-5" x1="59.43" y1="83.02" x2="59.55" y2="83.66"/><line class="cls-5" x1="59.68" y1="83.91" x2="59.81" y2="84.3"/><path class="cls-6" d="M43.85,25.36v-3H46v.36H44.24v.92h1.67V24H44.24v1h1.85v.36Z"/><path class="cls-6" d="M49.05,25.36h-.37V23a2.12,2.12,0,0,1-.35.25,1.73,1.73,0,0,1-.39.19v-.36a1.86,1.86,0,0,0,.54-.35,1.27,1.27,0,0,0,.33-.4h.24Z"/><path class="cls-6" d="M50,23.88A2.81,2.81,0,0,1,50.1,23a1.1,1.1,0,0,1,.33-.5.82.82,0,0,1,.54-.18.83.83,0,0,1,.43.1.8.8,0,0,1,.3.28,1.56,1.56,0,0,1,.19.45,3.28,3.28,0,0,1,.06.71,2.87,2.87,0,0,1-.1.85,1.15,1.15,0,0,1-.33.5.83.83,0,0,1-.55.18.82.82,0,0,1-.68-.31A2,2,0,0,1,50,23.88Zm.38,0a1.8,1.8,0,0,0,.18,1,.48.48,0,0,0,.42.25.5.5,0,0,0,.43-.25,1.82,1.82,0,0,0,.17-1,1.84,1.84,0,0,0-.17-1,.51.51,0,0,0-.43-.24.48.48,0,0,0-.41.21A2,2,0,0,0,50.37,23.88Z"/><path class="cls-6" d="M52.33,24.57l.37-.05a.79.79,0,0,0,.22.45.53.53,0,0,0,.37.14.6.6,0,0,0,.44-.18.61.61,0,0,0,.18-.45.57.57,0,0,0-.17-.42.57.57,0,0,0-.42-.16.92.92,0,0,0-.26,0l0-.33h.06a.75.75,0,0,0,.42-.13.41.41,0,0,0,.19-.38.44.44,0,0,0-.13-.33.51.51,0,0,0-.36-.14.52.52,0,0,0-.36.14.71.71,0,0,0-.18.41l-.37-.07a.94.94,0,0,1,.31-.58.92.92,0,0,1,.59-.2,1,1,0,0,1,.46.11.77.77,0,0,1,.31.28.7.7,0,0,1,.11.39.65.65,0,0,1-.1.36.72.72,0,0,1-.31.25.68.68,0,0,1,.41.26.74.74,0,0,1,.15.48.9.9,0,0,1-.29.67,1,1,0,0,1-.72.27.91.91,0,0,1-1-.84Z"/><path class="cls-6" d="M54.49,25.41l.87-3.11h.3l-.87,3.11Z"/><path class="cls-6" d="M57.77,25v.36h-2a.57.57,0,0,1,0-.26,1.42,1.42,0,0,1,.24-.4,3.64,3.64,0,0,1,.48-.45,4.23,4.23,0,0,0,.67-.64.79.79,0,0,0,.17-.44.47.47,0,0,0-.16-.37.56.56,0,0,0-.41-.15.55.55,0,0,0-.42.16.57.57,0,0,0-.16.44l-.38,0a.92.92,0,0,1,.29-.65,1,1,0,0,1,.68-.22,1,1,0,0,1,.69.24.82.82,0,0,1,.25.59,1.1,1.1,0,0,1-.07.36,1.51,1.51,0,0,1-.25.37,5.48,5.48,0,0,1-.57.53l-.43.37-.15.2Z"/><path class="cls-6" d="M58.17,23.88a2.81,2.81,0,0,1,.11-.86,1,1,0,0,1,.32-.5.85.85,0,0,1,.55-.18.82.82,0,0,1,.42.1.68.68,0,0,1,.3.28,1.33,1.33,0,0,1,.19.45,2.68,2.68,0,0,1,.07.71,2.83,2.83,0,0,1-.11.85,1.06,1.06,0,0,1-.32.5.85.85,0,0,1-.55.18.81.81,0,0,1-.68-.31A2,2,0,0,1,58.17,23.88Zm.38,0a1.93,1.93,0,0,0,.17,1,.49.49,0,0,0,.86,0,1.93,1.93,0,0,0,.17-1,2,2,0,0,0-.17-1,.52.52,0,0,0-.43-.24.48.48,0,0,0-.41.21A1.88,1.88,0,0,0,58.55,23.88Z"/><path class="cls-6" d="M60.51,24.57l.37-.05a.79.79,0,0,0,.21.45.55.55,0,0,0,.37.14.59.59,0,0,0,.44-.18.61.61,0,0,0,.18-.45.57.57,0,0,0-.16-.42.57.57,0,0,0-.43-.16.91.91,0,0,0-.25,0l0-.33h0a.8.8,0,0,0,.43-.13.41.41,0,0,0,.19-.38.45.45,0,0,0-.14-.33.48.48,0,0,0-.35-.14.49.49,0,0,0-.36.14.66.66,0,0,0-.19.41l-.37-.07a1,1,0,0,1,.31-.58.92.92,0,0,1,.6-.2,1,1,0,0,1,.45.11.73.73,0,0,1,.32.28.79.79,0,0,1,.11.39.66.66,0,0,1-.11.36.72.72,0,0,1-.31.25.71.71,0,0,1,.42.26.74.74,0,0,1,.15.48.9.9,0,0,1-.29.67,1,1,0,0,1-.73.27,1,1,0,0,1-.65-.23A.87.87,0,0,1,60.51,24.57Z"/><path class="cls-6" d="M155.92,13.27,154,1.17h.38Zm-.26.12.26-.12L154,1.17Z"/><path class="cls-7" d="M155.92,13.27,154,1.17h.38Zm-.26.12.26-.12L154,1.17Z"/><line class="cls-5" x1="157.19" y1="24.21" x2="155.79" y2="13.27"/><path class="cls-6" d="M156.68,13.14l-1.27-6.88h.38Zm-.38.12.38-.12-1.27-6.88Z"/><path class="cls-7" d="M156.68,13.14l-1.27-6.88h.38Zm-.38.12.38-.12-1.27-6.88Z"/><path class="cls-6" d="M155.28,13.39,154,6.52l.38-.13Zm-.38,0h.38L154,6.52Z"/><path class="cls-7" d="M155.28,13.39,154,6.52l.38-.13Zm-.38,0h.38L154,6.52Z"/><line class="cls-5" x1="156.94" y1="24.34" x2="156.68" y2="22.94"/><line class="cls-5" x1="147.52" y1="14.79" x2="145.73" y2="15.05"/><line class="cls-5" x1="165.97" y1="12.37" x2="164.06" y2="12.63"/><line class="cls-5" x1="165.97" y1="11.99" x2="145.61" y2="14.67"/><g class="cls-8"><path class="cls-5" d="M163.24,12.21a7.57,7.57,0,1,0-6.52,8.5,7.58,7.58,0,0,0,6.52-8.5"/><path class="cls-5" d="M162.73,12.28a7.07,7.07,0,1,0-6.08,7.93,7.06,7.06,0,0,0,6.08-7.93"/></g><path class="cls-6" d="M97.69,46.36v-3h2.18v.35H98.09v.92h1.66V45H98.09v1h1.85v.35Z"/><path class="cls-6" d="M102.9,46.36h-.37V44a2.12,2.12,0,0,1-.35.25,2.27,2.27,0,0,1-.39.19V44.1a2.54,2.54,0,0,0,.54-.36,1.46,1.46,0,0,0,.33-.4h.24Z"/><path class="cls-6" d="M103.84,44.88A2.85,2.85,0,0,1,104,44a1,1,0,0,1,.33-.5.8.8,0,0,1,.54-.18.93.93,0,0,1,.42.1.84.84,0,0,1,.31.28,1.32,1.32,0,0,1,.18.45,2.68,2.68,0,0,1,.07.71,2.78,2.78,0,0,1-.11.85,1.09,1.09,0,0,1-.32.51.9.9,0,0,1-.55.17.81.81,0,0,1-.68-.31A2,2,0,0,1,103.84,44.88Zm.38,0a1.93,1.93,0,0,0,.17,1,.49.49,0,0,0,.86,0,1.93,1.93,0,0,0,.17-1,2,2,0,0,0-.17-1,.52.52,0,0,0-.43-.24.48.48,0,0,0-.41.21A1.93,1.93,0,0,0,104.22,44.88Z"/><path class="cls-6" d="M107.57,46.36h-.37V44a2.12,2.12,0,0,1-.35.25,2.27,2.27,0,0,1-.39.19V44.1a2.12,2.12,0,0,0,.54-.36,1.3,1.3,0,0,0,.33-.4h.24Z"/><path class="cls-6" d="M108.34,46.41l.87-3.11h.29l-.86,3.11Z"/><path class="cls-6" d="M111.62,46v.35h-2a.69.69,0,0,1,0-.25,1.56,1.56,0,0,1,.25-.4,3.07,3.07,0,0,1,.48-.46,3.67,3.67,0,0,0,.66-.64.72.72,0,0,0,.18-.44.51.51,0,0,0-.16-.37.65.65,0,0,0-.84,0,.62.62,0,0,0-.16.44l-.38,0a.92.92,0,0,1,.29-.64,1,1,0,0,1,.69-.23.94.94,0,0,1,.68.24.79.79,0,0,1,.25.6.84.84,0,0,1-.07.35,1.45,1.45,0,0,1-.24.37c-.12.13-.31.3-.57.53a4.37,4.37,0,0,0-.43.38,1.56,1.56,0,0,0-.16.2Z"/><path class="cls-6" d="M112,44.88a2.85,2.85,0,0,1,.11-.86,1.15,1.15,0,0,1,.33-.5.82.82,0,0,1,.54-.18.94.94,0,0,1,.43.1.89.89,0,0,1,.3.28,1.56,1.56,0,0,1,.19.45,3.18,3.18,0,0,1,.07.71,2.78,2.78,0,0,1-.11.85,1.11,1.11,0,0,1-.33.51.86.86,0,0,1-.55.17.83.83,0,0,1-.68-.31A2,2,0,0,1,112,44.88Zm.38,0a1.8,1.8,0,0,0,.18,1,.49.49,0,0,0,.85,0,1.8,1.8,0,0,0,.18-1,1.85,1.85,0,0,0-.18-1,.51.51,0,0,0-.43-.24.49.49,0,0,0-.41.21A2,2,0,0,0,112.39,44.88Z"/><path class="cls-6" d="M115.74,46.36h-.37V44a1.76,1.76,0,0,1-.35.25,1.73,1.73,0,0,1-.39.19V44.1a2.38,2.38,0,0,0,.55-.36,1.25,1.25,0,0,0,.32-.4h.24Z"/><path class="cls-6" d="M97.83,85.57l-.8-3h.41l.46,2c0,.21.09.41.12.62.08-.33.13-.51.14-.56l.57-2h.48l.43,1.52a6.65,6.65,0,0,1,.23,1.07c0-.19.09-.41.16-.66l.47-1.93h.4l-.83,3h-.38l-.64-2.29L99,82.92q0,.21-.09.36l-.64,2.29Z"/><path class="cls-6" d="M103.68,85.57h-.37V83.21a2.12,2.12,0,0,1-.35.26,3.38,3.38,0,0,1-.39.19V83.3a2.18,2.18,0,0,0,.54-.35,1.62,1.62,0,0,0,.33-.4h.24Z"/><path class="cls-6" d="M104.62,84.08a2.78,2.78,0,0,1,.11-.85,1,1,0,0,1,.33-.51.85.85,0,0,1,.54-.17.88.88,0,0,1,.43.1.73.73,0,0,1,.3.28,1.35,1.35,0,0,1,.18.44,2.78,2.78,0,0,1,.07.71,2.57,2.57,0,0,1-.11.86,1.11,1.11,0,0,1-.32.5.85.85,0,0,1-.55.18.83.83,0,0,1-.68-.31A2,2,0,0,1,104.62,84.08Zm.38,0a2,2,0,0,0,.17,1,.49.49,0,0,0,.86,0,2,2,0,0,0,.17-1,1.93,1.93,0,0,0-.17-1,.53.53,0,0,0-.43-.25.49.49,0,0,0-.41.22A1.86,1.86,0,0,0,105,84.08Z"/><path class="cls-6" d="M107,83V82.6h2v.29a4,4,0,0,0-.57.81,5.23,5.23,0,0,0-.44,1,4.1,4.1,0,0,0-.14.83h-.38a3.91,3.91,0,0,1,.14-.86,4.77,4.77,0,0,1,.38-1,5.16,5.16,0,0,1,.53-.79Z"/><path class="cls-6" d="M109.12,85.62l.87-3.11h.3l-.87,3.11Z"/><path class="cls-6" d="M112.4,85.21v.36h-2a.58.58,0,0,1,0-.26,1.42,1.42,0,0,1,.24-.4,3.64,3.64,0,0,1,.48-.45,3.67,3.67,0,0,0,.66-.64.77.77,0,0,0,.18-.45.54.54,0,0,0-.16-.37.58.58,0,0,0-.41-.15A.61.61,0,0,0,111,83a.65.65,0,0,0-.16.45l-.38,0a1,1,0,0,1,.3-.65,1,1,0,0,1,.68-.22.92.92,0,0,1,.68.24.79.79,0,0,1,.26.59.94.94,0,0,1-.08.36,1.64,1.64,0,0,1-.24.37c-.12.12-.31.3-.57.52l-.43.38a2.08,2.08,0,0,0-.15.2Z"/><path class="cls-6" d="M112.8,84.08a2.5,2.5,0,0,1,.11-.85,1.09,1.09,0,0,1,.32-.51.9.9,0,0,1,.55-.17.82.82,0,0,1,.42.1.73.73,0,0,1,.3.28,1.62,1.62,0,0,1,.19.44,3.32,3.32,0,0,1,.07.71,2.85,2.85,0,0,1-.11.86,1.13,1.13,0,0,1-.33.5.8.8,0,0,1-.54.18.87.87,0,0,1-.69-.31A2.06,2.06,0,0,1,112.8,84.08Zm.37,0a1.82,1.82,0,0,0,.18,1,.52.52,0,0,0,.43.25.5.5,0,0,0,.42-.25,1.85,1.85,0,0,0,.18-1,1.8,1.8,0,0,0-.18-1,.52.52,0,0,0-.43-.25.47.47,0,0,0-.4.22A1.84,1.84,0,0,0,113.17,84.08Z"/><path class="cls-6" d="M115.16,83V82.6h1.94v.29a4,4,0,0,0-.57.81,5.19,5.19,0,0,0-.43,1,3.51,3.51,0,0,0-.14.83h-.38a3.39,3.39,0,0,1,.14-.86,4.25,4.25,0,0,1,.38-1,4,4,0,0,1,.53-.79Z"/><path class="cls-6" d="M31.75,66.22v-3h2.18v.36H32.15v.92h1.67v.35H32.15v1H34v.35Z"/><path class="cls-6" d="M37,66.22h-.37V63.87a2.12,2.12,0,0,1-.35.25,2.27,2.27,0,0,1-.39.19V64a2.31,2.31,0,0,0,.54-.36,1.46,1.46,0,0,0,.33-.4H37Z"/><path class="cls-6" d="M37.9,64.74a2.85,2.85,0,0,1,.11-.86,1,1,0,0,1,.33-.5.8.8,0,0,1,.54-.18.88.88,0,0,1,.43.1.8.8,0,0,1,.3.28,1.32,1.32,0,0,1,.18.45,2.68,2.68,0,0,1,.07.71,2.78,2.78,0,0,1-.11.85,1.09,1.09,0,0,1-.32.51.9.9,0,0,1-.55.17A.81.81,0,0,1,38.2,66,2,2,0,0,1,37.9,64.74Zm.38,0a1.93,1.93,0,0,0,.17,1,.49.49,0,0,0,.86,0,1.93,1.93,0,0,0,.17-1,2,2,0,0,0-.17-1,.52.52,0,0,0-.43-.24.48.48,0,0,0-.41.21A1.9,1.9,0,0,0,38.28,64.74Z"/><path class="cls-6" d="M41.42,66.22V65.5h-1.3v-.34l1.37-1.95h.3v1.95h.41v.34h-.41v.72Zm0-1.06V63.81l-.94,1.35Z"/><path class="cls-6" d="M42.4,66.27l.87-3.11h.3l-.87,3.11Z"/><path class="cls-6" d="M45.68,65.87v.35h-2a.6.6,0,0,1,.05-.26,1.37,1.37,0,0,1,.24-.39,3.07,3.07,0,0,1,.48-.46,3.67,3.67,0,0,0,.66-.64A.72.72,0,0,0,45.3,64a.51.51,0,0,0-.16-.37.65.65,0,0,0-.84,0,.62.62,0,0,0-.16.44l-.38,0a.93.93,0,0,1,.3-.64,1,1,0,0,1,.68-.23.92.92,0,0,1,.68.24.79.79,0,0,1,.26.6.85.85,0,0,1-.08.35,1.45,1.45,0,0,1-.24.37c-.12.13-.31.3-.57.53a4.37,4.37,0,0,0-.43.38,1,1,0,0,0-.15.2Z"/><path class="cls-6" d="M46.08,64.74a2.57,2.57,0,0,1,.11-.86,1.06,1.06,0,0,1,.32-.5.85.85,0,0,1,.55-.18.82.82,0,0,1,.42.1.8.8,0,0,1,.3.28A1.56,1.56,0,0,1,48,64a3.18,3.18,0,0,1,.07.71,2.78,2.78,0,0,1-.11.85,1,1,0,0,1-.33.51.85.85,0,0,1-.54.17.84.84,0,0,1-.69-.31A2,2,0,0,1,46.08,64.74Zm.38,0a1.82,1.82,0,0,0,.17,1,.5.5,0,0,0,.43.25.48.48,0,0,0,.42-.25,1.8,1.8,0,0,0,.18-1,1.82,1.82,0,0,0-.18-1,.51.51,0,0,0-.43-.24.46.46,0,0,0-.4.21A1.9,1.9,0,0,0,46.46,64.74Z"/><path class="cls-6" d="M49.6,66.22V65.5H48.29v-.34l1.37-1.95H50v1.95h.41v.34H50v.72Zm0-1.06V63.81l-1,1.35Z"/><path class="cls-6" d="M44.36,106.45l-.79-3H44l.46,2c0,.21.09.41.13.62.08-.33.12-.51.13-.56l.58-2h.48l.43,1.52a9.86,9.86,0,0,1,.23,1.07q.06-.28.15-.66l.47-1.93h.4l-.82,3h-.39l-.63-2.3c-.05-.19-.08-.3-.09-.35,0,.14-.06.26-.09.35l-.64,2.3Z"/><path class="cls-6" d="M50.21,106.45h-.37v-2.36a1.77,1.77,0,0,1-.35.26,2.3,2.3,0,0,1-.39.19v-.36a2.35,2.35,0,0,0,.55-.35,1.37,1.37,0,0,0,.32-.4h.24Z"/><path class="cls-6" d="M51.16,105a2.5,2.5,0,0,1,.11-.85,1.09,1.09,0,0,1,.32-.51.9.9,0,0,1,.55-.17.93.93,0,0,1,.42.09.83.83,0,0,1,.3.29,1.62,1.62,0,0,1,.19.44,3.25,3.25,0,0,1,.07.71,2.85,2.85,0,0,1-.11.86,1,1,0,0,1-.33.5.8.8,0,0,1-.54.18.87.87,0,0,1-.69-.31A2.06,2.06,0,0,1,51.16,105Zm.38,0a1.87,1.87,0,0,0,.17,1,.51.51,0,0,0,.43.24.49.49,0,0,0,.42-.24,1.85,1.85,0,0,0,.18-1,1.8,1.8,0,0,0-.18-1,.49.49,0,0,0-.43-.25.45.45,0,0,0-.4.22A1.86,1.86,0,0,0,51.54,105Z"/><path class="cls-6" d="M53.49,105.66l.39,0a.72.72,0,0,0,.2.42.51.51,0,0,0,.38.14.56.56,0,0,0,.45-.2.76.76,0,0,0,.18-.53.72.72,0,0,0-.17-.5.64.64,0,0,0-.47-.18.69.69,0,0,0-.32.08.5.5,0,0,0-.22.21l-.35,0,.29-1.55h1.49v.35h-1.2l-.16.81a1,1,0,0,1,.57-.19.91.91,0,0,1,.67.28.94.94,0,0,1,.27.7,1.08,1.08,0,0,1-.24.7.94.94,0,0,1-.79.37,1,1,0,0,1-.67-.23A1,1,0,0,1,53.49,105.66Z"/><path class="cls-6" d="M55.65,106.5l.88-3.11h.29L56,106.5Z"/><path class="cls-6" d="M58.94,106.09v.36H57a.75.75,0,0,1,0-.26,1.29,1.29,0,0,1,.24-.4,5.92,5.92,0,0,1,.49-.46,4.6,4.6,0,0,0,.66-.63.82.82,0,0,0,.17-.45.51.51,0,0,0-.15-.37.59.59,0,0,0-.41-.15.61.61,0,0,0-.43.16.61.61,0,0,0-.16.45l-.38,0a.9.9,0,0,1,.29-.65,1,1,0,0,1,.68-.22,1,1,0,0,1,.69.24.78.78,0,0,1,.25.59.92.92,0,0,1-.07.36,1.24,1.24,0,0,1-.25.36,4.56,4.56,0,0,1-.57.53,5.42,5.42,0,0,0-.42.38.94.94,0,0,0-.16.2Z"/><path class="cls-6" d="M59.33,105a2.78,2.78,0,0,1,.11-.85,1,1,0,0,1,.33-.51.85.85,0,0,1,.54-.17,1,1,0,0,1,.43.09.83.83,0,0,1,.3.29,1.35,1.35,0,0,1,.18.44,2.73,2.73,0,0,1,.07.71,2.57,2.57,0,0,1-.11.86,1.11,1.11,0,0,1-.32.5.85.85,0,0,1-.55.18.83.83,0,0,1-.68-.31A2,2,0,0,1,59.33,105Zm.38,0a2,2,0,0,0,.17,1,.51.51,0,0,0,.86,0,2,2,0,0,0,.17-1,1.93,1.93,0,0,0-.17-1,.51.51,0,0,0-.43-.25.47.47,0,0,0-.41.22A1.86,1.86,0,0,0,59.71,105Z"/><path class="cls-6" d="M61.67,105.66l.39,0a.66.66,0,0,0,.19.42.54.54,0,0,0,.38.14.56.56,0,0,0,.45-.2.72.72,0,0,0,.19-.53.68.68,0,0,0-.18-.5.62.62,0,0,0-.46-.18.66.66,0,0,0-.32.08.52.52,0,0,0-.23.21l-.35,0,.29-1.55h1.5v.35h-1.2l-.16.81a1,1,0,0,1,.57-.19.87.87,0,0,1,.66.28.94.94,0,0,1,.27.7,1.08,1.08,0,0,1-.24.7.93.93,0,0,1-.79.37,1,1,0,0,1-.67-.23A.91.91,0,0,1,61.67,105.66Z"/><path class="cls-6" d="M5,68.2h-3v-.39H4.59V66.33H5Z"/><path class="cls-6" d="M5,66.18,1.94,65V64.6l3-1.23v.45L4,64.17v1.26l.92.33Zm-1.24-.86v-1l-.83.31c-.26.09-.46.17-.63.21a3.83,3.83,0,0,1,.58.16Z"/><path class="cls-6" d="M3.77,61.64H3.41V60.37H4.53a2.52,2.52,0,0,1,.35.61,1.72,1.72,0,0,1,.12.63,1.79,1.79,0,0,1-.19.81,1.33,1.33,0,0,1-.55.55,1.77,1.77,0,0,1-.8.18A1.86,1.86,0,0,1,2.64,63a1.23,1.23,0,0,1-.57-.53,1.7,1.7,0,0,1-.18-.79,1.55,1.55,0,0,1,.1-.59,1,1,0,0,1,.3-.42,1.24,1.24,0,0,1,.49-.22l.1.35a1.21,1.21,0,0,0-.36.17.7.7,0,0,0-.21.29.91.91,0,0,0-.08.41,1.38,1.38,0,0,0,.08.48,1,1,0,0,0,.22.32,1.17,1.17,0,0,0,.3.19,1.64,1.64,0,0,0,.6.11,1.48,1.48,0,0,0,.67-.14.88.88,0,0,0,.41-.4,1.35,1.35,0,0,0,.13-.56,1.54,1.54,0,0,0-.1-.51,1.51,1.51,0,0,0-.21-.37H3.77Z"/><path class="cls-6" d="M3.48,59.9a1.61,1.61,0,0,1-1.17-.4,1.37,1.37,0,0,1-.42-1,1.49,1.49,0,0,1,.19-.75,1.38,1.38,0,0,1,.56-.51A1.92,1.92,0,0,1,3.45,57a1.79,1.79,0,0,1,.81.18,1.28,1.28,0,0,1,.55.53,1.53,1.53,0,0,1,.19.73,1.43,1.43,0,0,1-.21.76,1.24,1.24,0,0,1-.56.5A1.65,1.65,0,0,1,3.48,59.9Zm0-.41a1.17,1.17,0,0,0,.85-.29,1,1,0,0,0,0-1.47,1.3,1.3,0,0,0-.9-.29,1.62,1.62,0,0,0-.64.12,1,1,0,0,0-.42.37,1,1,0,0,0-.15.53,1,1,0,0,0,.29.73A1.29,1.29,0,0,0,3.49,59.49Z"/><path class="cls-6" d="M153.5,91.17l-3-1.15v-.43l3-1.23v.45l-.91.35v1.26l.91.33Zm-1.24-.86v-1l-.83.31a5,5,0,0,1-.62.21,4.11,4.11,0,0,1,.57.17Z"/><path class="cls-6" d="M153.5,87.48l-2.18.83v-.39l1.3-.46a3.73,3.73,0,0,1,.44-.14l-.41-.14-1.33-.49v-.37l2.18.82Z"/><path class="cls-6" d="M153.5,85.88h-.42v-.42h.42Z"/><path class="cls-6" d="M152.64,83.81l0-.36a.78.78,0,0,0,.47-.13.41.41,0,0,0,.12-.32.49.49,0,0,0-.06-.25.31.31,0,0,0-.19-.15,1.17,1.17,0,0,0-.38,0h-2.07v-.4h2a1.46,1.46,0,0,1,.58.09.65.65,0,0,1,.32.29,1,1,0,0,1,.11.46.79.79,0,0,1-.23.61A.92.92,0,0,1,152.64,83.81Z"/><path class="cls-6" d="M152,81.63a1.66,1.66,0,0,1-1.17-.4,1.39,1.39,0,0,1-.42-1,1.36,1.36,0,0,1,.2-.75,1.29,1.29,0,0,1,.55-.51,1.79,1.79,0,0,1,.81-.18,1.83,1.83,0,0,1,.82.19,1.18,1.18,0,0,1,.54.52,1.45,1.45,0,0,1,.19.73,1.4,1.4,0,0,1-.21.76,1.32,1.32,0,0,1-.56.51A1.72,1.72,0,0,1,152,81.63Zm0-.41a1.24,1.24,0,0,0,.86-.29,1,1,0,0,0,.31-.74,1,1,0,0,0-.32-.74,1.29,1.29,0,0,0-.89-.29,1.41,1.41,0,0,0-.64.13.9.9,0,0,0-.43.36,1,1,0,0,0-.15.54,1,1,0,0,0,.29.72A1.27,1.27,0,0,0,152,81.22Z"/><path class="cls-6" d="M153.5,78.57l-3-1.15V77l3-1.23v.45l-.91.35v1.26l.91.33Zm-1.24-.87v-1l-.83.32-.62.21a4,4,0,0,1,.57.16Z"/><path class="cls-6" d="M153.18,73.16a2.11,2.11,0,0,0,.27-.51l.28.12a2.35,2.35,0,0,1-.37.64,1.46,1.46,0,0,1,.19.74,1.44,1.44,0,0,1-.2.74,1.29,1.29,0,0,1-.55.51,1.79,1.79,0,0,1-.81.18,1.85,1.85,0,0,1-.81-.18,1.29,1.29,0,0,1-.55-.51,1.44,1.44,0,0,1-.19-.75,1.41,1.41,0,0,1,.2-.75,1.29,1.29,0,0,1,.55-.51,1.88,1.88,0,0,1,.8-.17,1.78,1.78,0,0,1,.67.11A1.51,1.51,0,0,1,153.18,73.16Zm-.51.88a1.52,1.52,0,0,1,.28-.57,1.2,1.2,0,0,0-1-.35,1.62,1.62,0,0,0-.64.12,1,1,0,0,0-.57.9,1,1,0,0,0,.3.74,1.31,1.31,0,0,0,.91.29,1.26,1.26,0,0,0,.91-.29,1,1,0,0,0,.31-.74,1.06,1.06,0,0,0-.08-.4,1.13,1.13,0,0,0-.17.39Z"/><path class="cls-6" d="M150.49,70.2v-.4h1.74a2.3,2.3,0,0,1,.72.1.91.91,0,0,1,.43.37,1.36,1.36,0,0,1,.17.71,1.41,1.41,0,0,1-.15.69.78.78,0,0,1-.42.38,1.89,1.89,0,0,1-.75.12h-1.74v-.4h1.74a1.89,1.89,0,0,0,.57-.07.57.57,0,0,0,.29-.26.81.81,0,0,0,.1-.43.82.82,0,0,0-.2-.62,1.11,1.11,0,0,0-.76-.19Z"/><path class="cls-6" d="M153.5,69.07h-3v-.4h3Z"/><path class="cls-6" d="M153.5,68h-3v-.41L152.85,66h-2.36v-.38h3V66l-2.36,1.57h2.36Z"/><path class="cls-6" d="M152.53,63.91l0-.38a1,1,0,0,0,.37-.12.71.71,0,0,0,.23-.3,1.16,1.16,0,0,0,.09-.47,1,1,0,0,0-.07-.4.55.55,0,0,0-.18-.26.5.5,0,0,0-.26-.08.38.38,0,0,0-.25.08.5.5,0,0,0-.17.27q0,.12-.15.54a3.24,3.24,0,0,1-.19.58.8.8,0,0,1-.28.32.66.66,0,0,1-.37.1.77.77,0,0,1-.43-.13.8.8,0,0,1-.3-.37,1.43,1.43,0,0,1-.1-.56,1.55,1.55,0,0,1,.11-.59.87.87,0,0,1,.31-.39,1,1,0,0,1,.48-.15l0,.39a.62.62,0,0,0-.43.2,1.06,1.06,0,0,0,0,1.05.41.41,0,0,0,.32.17.34.34,0,0,0,.27-.12,1.46,1.46,0,0,0,.21-.6,5.65,5.65,0,0,1,.19-.66.9.9,0,0,1,.31-.39.78.78,0,0,1,.43-.13.82.82,0,0,1,.45.14.88.88,0,0,1,.33.4,1.34,1.34,0,0,1,.12.58,1.69,1.69,0,0,1-.12.68,1,1,0,0,1-.36.43A1,1,0,0,1,152.53,63.91Z"/><path class="cls-6" d="M153.5,61h-3V58.79h.36v1.77h.92V58.9h.35v1.66h1V58.72h.36Z"/><path class="cls-6" d="M152.44,56l.1-.39a1.29,1.29,0,0,1,.75.45,1.23,1.23,0,0,1,.26.79,1.44,1.44,0,0,1-.2.79,1.2,1.2,0,0,1-.57.46,2,2,0,0,1-.81.16,1.8,1.8,0,0,1-.82-.18,1.24,1.24,0,0,1-.53-.51,1.49,1.49,0,0,1-.18-.73,1.22,1.22,0,0,1,.23-.75,1.16,1.16,0,0,1,.65-.43l.09.39a1,1,0,0,0-.48.3.8.8,0,0,0-.15.5,1,1,0,0,0,.17.58.85.85,0,0,0,.44.33,1.9,1.9,0,0,0,.58.09,1.71,1.71,0,0,0,.67-.11.83.83,0,0,0,.43-.35,1,1,0,0,0,.14-.51.88.88,0,0,0-.19-.56A1,1,0,0,0,152.44,56Z"/><path class="cls-6" d="M152,55.26a1.62,1.62,0,0,1-1.17-.41,1.49,1.49,0,0,1-.22-1.78,1.18,1.18,0,0,1,.55-.51,1.79,1.79,0,0,1,.81-.18,1.71,1.71,0,0,1,.82.19,1.18,1.18,0,0,1,.54.52,1.42,1.42,0,0,1,.19.73,1.4,1.4,0,0,1-.21.76,1.24,1.24,0,0,1-.56.5A1.6,1.6,0,0,1,152,55.26Zm0-.41a1.2,1.2,0,0,0,.86-.3,1,1,0,0,0,0-1.47,1.29,1.29,0,0,0-.89-.29,1.41,1.41,0,0,0-.64.13.9.9,0,0,0-.43.36,1,1,0,0,0-.15.54,1,1,0,0,0,.29.72A1.31,1.31,0,0,0,152,54.85Z"/><path class="cls-6" d="M153.5,50.63h-3v-.39h3Z"/><path class="cls-6" d="M153.5,49.55h-3v-.4h2.65V47.67h.36Z"/><path class="cls-6" d="M153.5,47.22h-3v-.4h2.65V45.34h.36Z"/><path class="cls-6" d="M153.5,45.19l-3-1.15v-.43l3-1.23v.45l-.91.35v1.26l.91.33Zm-1.24-.86v-1l-.83.31a5,5,0,0,1-.62.21,4.11,4.11,0,0,1,.57.17Z"/><path class="cls-6" d="M97.44,24.34v-3h2.17v.36H97.84v.92H99.5V23H97.84v1h1.84v.36Z"/><path class="cls-6" d="M102.64,24.34h-.37V22a1.76,1.76,0,0,1-.35.25,1.73,1.73,0,0,1-.39.19v-.36a1.86,1.86,0,0,0,.54-.35,1.27,1.27,0,0,0,.33-.4h.24Z"/><path class="cls-6" d="M103.59,22.86a2.57,2.57,0,0,1,.11-.86,1,1,0,0,1,.32-.5.85.85,0,0,1,.55-.18.82.82,0,0,1,.42.1.8.8,0,0,1,.3.28,1.56,1.56,0,0,1,.19.45,3.18,3.18,0,0,1,.07.71,2.83,2.83,0,0,1-.11.85,1,1,0,0,1-.33.5.8.8,0,0,1-.54.18.84.84,0,0,1-.69-.31A2,2,0,0,1,103.59,22.86Zm.38,0a1.82,1.82,0,0,0,.17,1,.5.5,0,0,0,.43.25.48.48,0,0,0,.42-.25,1.8,1.8,0,0,0,.18-1,1.82,1.82,0,0,0-.18-1,.51.51,0,0,0-.43-.24.46.46,0,0,0-.4.21A1.9,1.9,0,0,0,104,22.86Z"/><path class="cls-6" d="M107.86,24v.36h-2a.75.75,0,0,1,0-.26,1.42,1.42,0,0,1,.24-.4,3.64,3.64,0,0,1,.48-.45,4.23,4.23,0,0,0,.67-.64.79.79,0,0,0,.17-.44.47.47,0,0,0-.16-.37.56.56,0,0,0-.41-.15.54.54,0,0,0-.42.16.57.57,0,0,0-.17.44l-.38,0a1,1,0,0,1,.3-.65,1,1,0,0,1,.68-.22,1,1,0,0,1,.69.24.82.82,0,0,1,.25.59.9.9,0,0,1-.08.36,1.22,1.22,0,0,1-.24.37,6.79,6.79,0,0,1-.57.53l-.43.37-.15.2Z"/><path class="cls-6" d="M108.08,24.39l.87-3.11h.3l-.87,3.11Z"/><path class="cls-6" d="M111.36,24v.36h-2a.57.57,0,0,1,0-.26,1.42,1.42,0,0,1,.24-.4,4.65,4.65,0,0,1,.49-.45,4.54,4.54,0,0,0,.66-.64.79.79,0,0,0,.17-.44.47.47,0,0,0-.16-.37.56.56,0,0,0-.41-.15.55.55,0,0,0-.58.6l-.38,0a.92.92,0,0,1,.29-.65,1,1,0,0,1,.68-.22,1,1,0,0,1,.69.24.78.78,0,0,1,.25.59.89.89,0,0,1-.07.36,1.27,1.27,0,0,1-.25.37,5.48,5.48,0,0,1-.57.53c-.22.18-.36.31-.42.37a1.27,1.27,0,0,0-.16.2Z"/><path class="cls-6" d="M111.76,22.86a2.85,2.85,0,0,1,.11-.86,1,1,0,0,1,.33-.5.8.8,0,0,1,.54-.18.82.82,0,0,1,.42.1.76.76,0,0,1,.31.28,1.32,1.32,0,0,1,.18.45,2.68,2.68,0,0,1,.07.71,2.83,2.83,0,0,1-.11.85,1,1,0,0,1-.32.5.85.85,0,0,1-.55.18.81.81,0,0,1-.68-.31A2,2,0,0,1,111.76,22.86Zm.38,0a1.93,1.93,0,0,0,.17,1,.49.49,0,0,0,.86,0,1.93,1.93,0,0,0,.17-1,2,2,0,0,0-.17-1,.52.52,0,0,0-.43-.24.48.48,0,0,0-.41.21A1.9,1.9,0,0,0,112.14,22.86Z"/><path class="cls-6" d="M116,24v.36h-2a.75.75,0,0,1,0-.26,1.26,1.26,0,0,1,.25-.4,3.64,3.64,0,0,1,.48-.45,3.67,3.67,0,0,0,.66-.64.72.72,0,0,0,.17-.44.5.5,0,0,0-.15-.37.59.59,0,0,0-.41-.15.57.57,0,0,0-.43.16.57.57,0,0,0-.16.44l-.38,0a1,1,0,0,1,.29-.65,1.06,1.06,0,0,1,.69-.22,1,1,0,0,1,.68.24.78.78,0,0,1,.25.59.89.89,0,0,1-.07.36,1.27,1.27,0,0,1-.25.37,5.48,5.48,0,0,1-.57.53c-.22.18-.36.31-.42.37a2.33,2.33,0,0,0-.16.2Z"/><path class="cls-6" d="M97.83,107.46l-.8-3h.41l.46,2c0,.2.09.41.13.61.07-.32.12-.51.13-.56l.57-2h.48l.43,1.53a7.92,7.92,0,0,1,.24,1.06c0-.19.09-.41.15-.65l.47-1.94h.4l-.83,3h-.38l-.63-2.29c-.06-.19-.09-.31-.1-.35,0,.14-.06.25-.09.35l-.63,2.29Z"/><path class="cls-6" d="M103.68,107.46h-.37v-2.35a2.12,2.12,0,0,1-.35.25,2.27,2.27,0,0,1-.39.19v-.35a2.12,2.12,0,0,0,.54-.36,1.3,1.3,0,0,0,.33-.4h.24Z"/><path class="cls-6" d="M104.62,106a2.85,2.85,0,0,1,.11-.86,1.07,1.07,0,0,1,.33-.5.8.8,0,0,1,.54-.18,1,1,0,0,1,.43.1.89.89,0,0,1,.3.28,1.56,1.56,0,0,1,.19.45,3.28,3.28,0,0,1,.06.71,2.5,2.5,0,0,1-.11.85,1.09,1.09,0,0,1-.32.51.9.9,0,0,1-.55.17.82.82,0,0,1-.68-.31A2,2,0,0,1,104.62,106Zm.38,0a1.8,1.8,0,0,0,.18,1,.48.48,0,0,0,.42.25A.51.51,0,0,0,106,107a1.82,1.82,0,0,0,.17-1,1.84,1.84,0,0,0-.17-1,.52.52,0,0,0-.43-.24.48.48,0,0,0-.41.21A2,2,0,0,0,105,106Z"/><path class="cls-6" d="M108.87,105.19l-.36,0a.8.8,0,0,0-.14-.32.51.51,0,0,0-.37-.15.54.54,0,0,0-.31.09.86.86,0,0,0-.28.38,2,2,0,0,0-.1.69.94.94,0,0,1,.33-.3.79.79,0,0,1,.4-.1.85.85,0,0,1,.63.27,1,1,0,0,1,.26.7,1.18,1.18,0,0,1-.12.53.94.94,0,0,1-.34.37.86.86,0,0,1-.48.13,1,1,0,0,1-.76-.34,1.73,1.73,0,0,1-.29-1.12,2,2,0,0,1,.32-1.26.94.94,0,0,1,.76-.35.8.8,0,0,1,.85.75Zm-1.5,1.3a.76.76,0,0,0,.08.36.6.6,0,0,0,.22.27.59.59,0,0,0,.31.09.5.5,0,0,0,.4-.19.75.75,0,0,0,.17-.51.69.69,0,0,0-.17-.49.54.54,0,0,0-.41-.18.58.58,0,0,0-.43.18A.62.62,0,0,0,107.37,106.49Z"/><path class="cls-6" d="M109.12,107.51l.87-3.11h.3l-.87,3.11Z"/><path class="cls-6" d="M112.4,107.11v.35h-2a.8.8,0,0,1,0-.26,1.37,1.37,0,0,1,.24-.39,3.07,3.07,0,0,1,.48-.46,4.23,4.23,0,0,0,.67-.64.76.76,0,0,0,.17-.44.47.47,0,0,0-.16-.37.56.56,0,0,0-.41-.15.54.54,0,0,0-.42.16.59.59,0,0,0-.17.44l-.38,0a.93.93,0,0,1,.3-.64,1,1,0,0,1,.68-.23,1,1,0,0,1,.69.24.82.82,0,0,1,.25.6.85.85,0,0,1-.08.35,1.45,1.45,0,0,1-.24.37c-.12.13-.31.3-.57.53s-.36.31-.43.38a1,1,0,0,0-.15.2Z"/><path class="cls-6" d="M112.8,106a2.57,2.57,0,0,1,.11-.86,1.06,1.06,0,0,1,.32-.5.85.85,0,0,1,.55-.18.93.93,0,0,1,.42.1.89.89,0,0,1,.3.28,1.33,1.33,0,0,1,.19.45,2.68,2.68,0,0,1,.07.71,2.78,2.78,0,0,1-.11.85,1,1,0,0,1-.33.51.85.85,0,0,1-.54.17.84.84,0,0,1-.69-.31A2,2,0,0,1,112.8,106Zm.38,0a1.93,1.93,0,0,0,.17,1,.49.49,0,0,0,.86,0,1.93,1.93,0,0,0,.17-1,2,2,0,0,0-.17-1,.53.53,0,0,0-.44-.24.46.46,0,0,0-.4.21A1.9,1.9,0,0,0,113.18,106Z"/><path class="cls-6" d="M117.05,105.19l-.37,0a.68.68,0,0,0-.14-.32.5.5,0,0,0-.37-.15.56.56,0,0,0-.31.09.93.93,0,0,0-.27.38,2,2,0,0,0-.11.69.94.94,0,0,1,.33-.3.82.82,0,0,1,.4-.1.83.83,0,0,1,.63.27,1,1,0,0,1,.26.7,1.18,1.18,0,0,1-.12.53.85.85,0,0,1-.33.37,1,1,0,0,1-1.24-.21,1.67,1.67,0,0,1-.29-1.12,1.94,1.94,0,0,1,.32-1.26.94.94,0,0,1,.76-.35.87.87,0,0,1,.58.2A.85.85,0,0,1,117.05,105.19Zm-1.51,1.3a.9.9,0,0,0,.08.36.62.62,0,0,0,.23.27.59.59,0,0,0,.31.09.53.53,0,0,0,.4-.19.75.75,0,0,0,.17-.51.69.69,0,0,0-.17-.49.58.58,0,0,0-.84,0A.63.63,0,0,0,115.54,106.49Z"/><polyline class="cls-5" points="88.2 53.24 107.67 53.24 107.67 55.53 112 55.53 112 53.24 115.69 53.24 115.69 54.64 120.27 54.64 120.27 53.24 123.71 53.24 123.71 55.53 129.44 55.53 129.44 33.25 111.75 33.25 111.75 35.16 88.2 35.16 88.2 53.24"/><polyline class="cls-5" points="111.75 33.25 129.44 33.25 129.44 10.72 123.71 10.72 123.71 13.01 120.28 13.01 120.28 11.61 115.69 11.61 115.69 13.01 112 13.01 112 10.72 107.67 10.72 107.67 13.01 88.71 13.01 88.71 16.07 80.43 16.07 80.43 31.21 111.75 31.21 111.75 33.25"/><line class="cls-5" x1="112" y1="10.72" x2="123.71" y2="10.72"/><polyline class="cls-5" points="112.51 11.48 112 11.36 123.71 11.36"/><line class="cls-5" x1="112.76" y1="11.61" x2="113.27" y2="11.87"/><line class="cls-5" x1="113.53" y1="11.99" x2="114.04" y2="12.25"/><line class="cls-5" x1="114.42" y1="12.37" x2="114.93" y2="12.63"/><line class="cls-5" x1="115.18" y1="12.76" x2="115.69" y2="13.01"/><line class="cls-5" x1="112" y1="13.01" x2="112.51" y2="12.76"/><line class="cls-5" x1="112.76" y1="12.63" x2="113.27" y2="12.37"/><line class="cls-5" x1="113.53" y1="12.25" x2="114.04" y2="11.99"/><line class="cls-5" x1="114.42" y1="11.86" x2="114.93" y2="11.61"/><line class="cls-5" x1="115.18" y1="11.48" x2="115.69" y2="11.36"/><line class="cls-5" x1="120.27" y1="11.36" x2="120.66" y2="11.48"/><line class="cls-5" x1="120.91" y1="11.61" x2="121.42" y2="11.87"/><line class="cls-5" x1="121.68" y1="11.99" x2="122.31" y2="12.25"/><line class="cls-5" x1="122.57" y1="12.37" x2="123.07" y2="12.63"/><line class="cls-5" x1="123.33" y1="12.76" x2="123.71" y2="13.01"/><line class="cls-5" x1="120.27" y1="13.01" x2="120.66" y2="12.76"/><line class="cls-5" x1="120.91" y1="12.63" x2="121.42" y2="12.37"/><line class="cls-5" x1="121.68" y1="12.25" x2="122.31" y2="11.99"/><line class="cls-5" x1="122.57" y1="11.86" x2="123.07" y2="11.61"/><line class="cls-5" x1="123.33" y1="11.48" x2="123.71" y2="11.36"/><line class="cls-5" x1="112" y1="55.53" x2="123.71" y2="55.53"/><polyline class="cls-5" points="112.51 54.76 112 55.02 123.71 55.02"/><line class="cls-5" x1="112.76" y1="54.64" x2="113.27" y2="54.38"/><line class="cls-5" x1="113.53" y1="54.25" x2="114.04" y2="54"/><line class="cls-5" x1="114.42" y1="53.87" x2="114.93" y2="53.62"/><line class="cls-5" x1="115.18" y1="53.49" x2="115.69" y2="53.24"/><line class="cls-5" x1="112" y1="53.24" x2="112.51" y2="53.49"/><line class="cls-5" x1="112.76" y1="53.62" x2="113.27" y2="53.87"/><line class="cls-5" x1="113.53" y1="54" x2="114.04" y2="54.25"/><line class="cls-5" x1="114.42" y1="54.38" x2="114.93" y2="54.64"/><line class="cls-5" x1="115.18" y1="54.76" x2="115.69" y2="55.02"/><line class="cls-5" x1="120.27" y1="55.02" x2="120.66" y2="54.76"/><line class="cls-5" x1="120.91" y1="54.64" x2="121.42" y2="54.38"/><line class="cls-5" x1="121.68" y1="54.25" x2="122.31" y2="54"/><line class="cls-5" x1="122.57" y1="53.87" x2="123.07" y2="53.62"/><line class="cls-5" x1="123.33" y1="53.49" x2="123.71" y2="53.24"/><line class="cls-5" x1="120.27" y1="53.24" x2="120.66" y2="53.49"/><line class="cls-5" x1="120.91" y1="53.62" x2="121.42" y2="53.87"/><line class="cls-5" x1="121.68" y1="54" x2="122.31" y2="54.25"/><line class="cls-5" x1="122.57" y1="54.38" x2="123.07" y2="54.64"/><line class="cls-5" x1="123.33" y1="54.76" x2="123.71" y2="55.02"/><polyline class="cls-5" points="88.2 75.51 107.67 75.51 107.67 73.35 112 73.35 112 75.51 115.69 75.51 115.69 74.24 120.27 74.24 120.27 75.51 123.71 75.51 123.71 73.35 129.44 73.35 129.44 95.63 111.75 95.63 111.75 93.72 88.2 93.72 88.2 75.51"/><polyline class="cls-5" points="111.75 95.63 129.44 95.63 129.44 118.03 123.71 118.03 123.71 115.86 120.28 115.86 120.28 117.14 115.69 117.14 115.69 115.86 112 115.86 112 118.03 107.67 118.03 107.67 115.86 88.71 115.86 88.71 112.68 80.43 112.68 80.43 97.53 111.75 97.53 111.75 95.63"/><line class="cls-5" x1="112" y1="118.03" x2="123.71" y2="118.03"/><polyline class="cls-5" points="112.51 117.27 112 117.52 123.71 117.52"/><line class="cls-5" x1="112.76" y1="117.14" x2="113.27" y2="116.88"/><line class="cls-5" x1="113.53" y1="116.76" x2="114.04" y2="116.5"/><line class="cls-5" x1="114.42" y1="116.37" x2="114.93" y2="116.12"/><line class="cls-5" x1="115.18" y1="115.99" x2="115.69" y2="115.87"/><line class="cls-5" x1="112" y1="115.87" x2="112.51" y2="115.99"/><line class="cls-5" x1="112.76" y1="116.12" x2="113.27" y2="116.37"/><line class="cls-5" x1="113.53" y1="116.5" x2="114.04" y2="116.76"/><line class="cls-5" x1="114.42" y1="116.88" x2="114.93" y2="117.14"/><line class="cls-5" x1="115.18" y1="117.27" x2="115.69" y2="117.52"/><line class="cls-5" x1="120.27" y1="117.52" x2="120.66" y2="117.27"/><line class="cls-5" x1="120.91" y1="117.14" x2="121.42" y2="116.88"/><line class="cls-5" x1="121.68" y1="116.76" x2="122.31" y2="116.5"/><line class="cls-5" x1="122.57" y1="116.37" x2="123.07" y2="116.12"/><line class="cls-5" x1="123.33" y1="115.99" x2="123.71" y2="115.87"/><line class="cls-5" x1="120.27" y1="115.87" x2="120.66" y2="115.99"/><line class="cls-5" x1="120.91" y1="116.12" x2="121.42" y2="116.37"/><line class="cls-5" x1="121.68" y1="116.5" x2="122.31" y2="116.76"/><line class="cls-5" x1="122.57" y1="116.88" x2="123.07" y2="117.14"/><line class="cls-5" x1="123.33" y1="117.27" x2="123.71" y2="117.52"/><line class="cls-5" x1="112" y1="73.35" x2="123.71" y2="73.35"/><polyline class="cls-5" points="112.51 74.11 112 73.86 123.71 73.86"/><line class="cls-5" x1="112.76" y1="74.24" x2="113.27" y2="74.49"/><line class="cls-5" x1="113.53" y1="74.62" x2="114.04" y2="74.88"/><line class="cls-5" x1="114.42" y1="75" x2="114.93" y2="75.26"/><line class="cls-5" x1="115.18" y1="75.39" x2="115.69" y2="75.51"/><line class="cls-5" x1="112" y1="75.51" x2="112.51" y2="75.39"/><line class="cls-5" x1="112.76" y1="75.26" x2="113.27" y2="75"/><line class="cls-5" x1="113.53" y1="74.88" x2="114.04" y2="74.62"/><line class="cls-5" x1="114.42" y1="74.49" x2="114.93" y2="74.24"/><line class="cls-5" x1="115.18" y1="74.11" x2="115.69" y2="73.86"/><line class="cls-5" x1="120.27" y1="73.86" x2="120.66" y2="73.98"/><line class="cls-5" x1="120.91" y1="74.11" x2="121.42" y2="74.49"/><line class="cls-5" x1="121.68" y1="74.62" x2="122.31" y2="74.88"/><line class="cls-5" x1="122.57" y1="75" x2="123.07" y2="75.26"/><line class="cls-5" x1="123.33" y1="75.39" x2="123.71" y2="75.51"/><line class="cls-5" x1="120.27" y1="75.51" x2="120.66" y2="75.39"/><line class="cls-5" x1="120.91" y1="75.26" x2="121.42" y2="75"/><line class="cls-5" x1="121.68" y1="74.88" x2="122.31" y2="74.62"/><line class="cls-5" x1="122.57" y1="74.49" x2="123.07" y2="74.11"/><line class="cls-5" x1="123.33" y1="73.98" x2="123.71" y2="73.86"/></g></g></svg>