<svg id="Capa_1" data-name="Capa 1" xmlns="http://www.w3.org/2000/svg" xmlns:xlink="http://www.w3.org/1999/xlink" viewBox="0 0 168.55 120.3"><defs><style>.cls-1,.cls-4,.cls-5,.cls-7{fill:none;}.cls-2{clip-path:url(#clip-path);}.cls-3{fill:#ebebeb;}.cls-4{stroke:#ebebeb;}.cls-4,.cls-5,.cls-7{stroke-miterlimit:10;}.cls-4,.cls-7{stroke-width:0;}.cls-5,.cls-7{stroke:#63666b;stroke-linecap:round;}.cls-5{stroke-width:0.25px;}.cls-6{fill:#63666b;}.cls-8{clip-path:url(#clip-path-2);}</style><clipPath id="clip-path"><rect class="cls-1" x="-70.86" y="-530.54" width="1190.55" height="841.89"/></clipPath><clipPath id="clip-path-2"><rect class="cls-1" x="0.13" width="168.43" height="120.3"/></clipPath></defs><title>E101S</title><g class="cls-2"><path class="cls-3" d="M112,33.19l17.69,1.91H112Zm17.69,0H112l17.69,1.91Z"/><path class="cls-4" d="M112,33.19l17.69,1.91H112Zm17.69,0H112l17.69,1.91Z"/><path class="cls-3" d="M88.44,35.1l41.24,18.08H88.44Zm41.24,0H88.44l41.24,18.08Z"/><path class="cls-4" d="M88.44,35.1l41.24,18.08H88.44Zm41.24,0H88.44l41.24,18.08Z"/><path class="cls-3" d="M115.94,53.18l4.58,1.4h-4.58Zm4.58,0h-4.58l4.58,1.4Z"/><path class="cls-4" d="M115.94,53.18l4.58,1.4h-4.58Zm4.58,0h-4.58l4.58,1.4Z"/><path class="cls-3" d="M124,53.18l5.72,2.29H124Zm5.72,0H124l5.72,2.29Z"/><path class="cls-4" d="M124,53.18l5.72,2.29H124Zm5.72,0H124l5.72,2.29Z"/><path class="cls-3" d="M107.92,53.18l4.32,2.29h-4.32Zm4.32,0h-4.32l4.32,2.29Z"/><path class="cls-4" d="M107.92,53.18l4.32,2.29h-4.32Zm4.32,0h-4.32l4.32,2.29Z"/><polyline class="cls-5" points="80.67 16.01 71.13 16.01 71.13 12.95 37.65 12.95 37.65 11.55 33.07 11.55 33.07 12.95 29.12 12.95 29.12 26.45 22.76 26.45 22.76 47.2 23.9 47.2 23.9 49.49 43.38 49.49 43.38 43.89 43.51 43.89 43.51 31.16 80.67 31.16 80.67 16.01"/><polyline class="cls-5" points="43.38 43.89 57.89 43.89 57.89 53.81 60.05 53.81 60.05 63.36 57.89 63.36 57.89 71.13 60.05 71.13 60.05 76.22 57.89 76.22 57.89 84.88 47.83 84.88 47.83 89.58 43.38 89.58 43.38 79.27 25.3 79.27 25.3 52.03 23.9 52.03 23.9 49.49 43.38 49.49 43.38 43.89"/><polyline class="cls-5" points="80.67 112.63 71.13 112.63 71.13 115.81 37.65 115.81 37.65 117.08 33.07 117.08 33.07 115.81 29.12 115.81 29.12 102.19 22.76 102.19 22.76 81.44 23.9 81.44 23.9 79.27 43.38 79.27 43.38 84.88 43.51 84.88 43.51 97.48 80.67 97.48 80.67 112.63"/><polyline class="cls-5" points="88.44 35.61 78.38 35.61 78.38 44.4 67.18 44.4 67.18 35.61 60.56 35.61 60.56 44.4 57.89 44.4"/><line class="cls-5" x1="60.56" y1="43.89" x2="67.18" y2="43.89"/><line class="cls-5" x1="67.18" y1="44.4" x2="60.56" y2="44.4"/><line class="cls-5" x1="78.38" y1="44.4" x2="88.44" y2="44.4"/><line class="cls-5" x1="88.44" y1="43.89" x2="78.38" y2="43.89"/><line class="cls-5" x1="60.05" y1="44.4" x2="60.05" y2="84.24"/><line class="cls-5" x1="60.56" y1="84.24" x2="60.56" y2="44.4"/><polyline class="cls-5" points="88.44 93.02 78.38 93.02 78.38 84.24 67.18 84.24 67.18 93.02 60.56 93.02 60.56 84.24 57.89 84.24"/><line class="cls-5" x1="60.56" y1="84.87" x2="67.18" y2="84.87"/><line class="cls-5" x1="67.18" y1="84.24" x2="60.56" y2="84.24"/><line class="cls-5" x1="78.38" y1="84.24" x2="88.44" y2="84.24"/><line class="cls-5" x1="88.44" y1="84.87" x2="78.38" y2="84.87"/><line class="cls-5" x1="60.56" y1="35.61" x2="60.94" y2="36.12"/><line class="cls-5" x1="61.2" y1="36.38" x2="61.58" y2="36.88"/><line class="cls-5" x1="61.71" y1="37.01" x2="62.09" y2="37.52"/><line class="cls-5" x1="62.22" y1="37.78" x2="62.6" y2="38.28"/><line class="cls-5" x1="62.85" y1="38.41" x2="63.24" y2="38.92"/><line class="cls-5" x1="63.36" y1="39.18" x2="63.74" y2="39.68"/><line class="cls-5" x1="64" y1="39.94" x2="64.38" y2="40.32"/><line class="cls-5" x1="64.51" y1="40.58" x2="64.89" y2="41.09"/><line class="cls-5" x1="65.14" y1="41.34" x2="65.4" y2="41.72"/><line class="cls-5" x1="65.65" y1="41.98" x2="66.04" y2="42.49"/><line class="cls-5" x1="66.16" y1="42.74" x2="66.55" y2="43.12"/><line class="cls-5" x1="66.8" y1="43.38" x2="67.18" y2="43.89"/><line class="cls-5" x1="60.56" y1="43.89" x2="60.94" y2="43.38"/><line class="cls-5" x1="61.2" y1="43.12" x2="61.58" y2="42.74"/><line class="cls-5" x1="61.71" y1="42.49" x2="62.09" y2="41.98"/><line class="cls-5" x1="62.22" y1="41.72" x2="62.6" y2="41.34"/><line class="cls-5" x1="62.85" y1="41.09" x2="63.24" y2="40.58"/><line class="cls-5" x1="63.36" y1="40.32" x2="63.74" y2="39.94"/><line class="cls-5" x1="64" y1="39.68" x2="64.38" y2="39.18"/><line class="cls-5" x1="64.51" y1="38.92" x2="64.89" y2="38.41"/><line class="cls-5" x1="65.14" y1="38.28" x2="65.4" y2="37.78"/><line class="cls-5" x1="65.65" y1="37.52" x2="66.04" y2="37.01"/><line class="cls-5" x1="66.16" y1="36.88" x2="66.55" y2="36.38"/><line class="cls-5" x1="66.8" y1="36.12" x2="67.18" y2="35.61"/><line class="cls-5" x1="78.38" y1="35.61" x2="78.77" y2="35.99"/><line class="cls-5" x1="79.02" y1="36.12" x2="79.53" y2="36.5"/><line class="cls-5" x1="79.66" y1="36.76" x2="80.17" y2="37.14"/><line class="cls-5" x1="80.42" y1="37.27" x2="80.93" y2="37.65"/><line class="cls-5" x1="81.06" y1="37.9" x2="81.56" y2="38.29"/><line class="cls-5" x1="81.82" y1="38.41" x2="82.33" y2="38.79"/><line class="cls-5" x1="82.46" y1="39.05" x2="82.97" y2="39.43"/><line class="cls-5" x1="83.22" y1="39.56" x2="83.73" y2="39.94"/><line class="cls-5" x1="83.86" y1="40.19" x2="84.37" y2="40.58"/><line class="cls-5" x1="84.62" y1="40.7" x2="85.13" y2="41.09"/><line class="cls-5" x1="85.26" y1="41.34" x2="85.77" y2="41.72"/><line class="cls-5" x1="86.02" y1="41.85" x2="86.4" y2="42.23"/><line class="cls-5" x1="86.66" y1="42.49" x2="87.17" y2="42.87"/><line class="cls-5" x1="87.42" y1="42.99" x2="87.8" y2="43.38"/><line class="cls-5" x1="88.06" y1="43.63" x2="88.44" y2="43.89"/><line class="cls-5" x1="88.44" y1="35.61" x2="88.06" y2="35.99"/><line class="cls-5" x1="87.8" y1="36.12" x2="87.42" y2="36.5"/><line class="cls-5" x1="87.17" y1="36.76" x2="86.66" y2="37.14"/><line class="cls-5" x1="86.4" y1="37.27" x2="86.02" y2="37.65"/><line class="cls-5" x1="85.77" y1="37.9" x2="85.26" y2="38.29"/><line class="cls-5" x1="85.13" y1="38.41" x2="84.62" y2="38.79"/><line class="cls-5" x1="84.37" y1="39.05" x2="83.86" y2="39.43"/><line class="cls-5" x1="83.73" y1="39.56" x2="83.22" y2="39.94"/><line class="cls-5" x1="82.97" y1="40.19" x2="82.46" y2="40.58"/><line class="cls-5" x1="82.33" y1="40.7" x2="81.82" y2="41.09"/><line class="cls-5" x1="81.57" y1="41.34" x2="81.06" y2="41.72"/><line class="cls-5" x1="80.93" y1="41.85" x2="80.42" y2="42.23"/><line class="cls-5" x1="80.17" y1="42.49" x2="79.66" y2="42.87"/><line class="cls-5" x1="79.53" y1="42.99" x2="79.02" y2="43.38"/><line class="cls-5" x1="78.77" y1="43.63" x2="78.38" y2="43.89"/><line class="cls-5" x1="57.89" y1="53.82" x2="60.05" y2="44.4"/><line class="cls-5" x1="57.89" y1="44.4" x2="60.05" y2="53.82"/><line class="cls-5" x1="57.89" y1="63.36" x2="58.14" y2="64.13"/><line class="cls-5" x1="58.27" y1="64.38" x2="58.4" y2="64.89"/><line class="cls-5" x1="58.4" y1="65.27" x2="58.65" y2="65.78"/><line class="cls-5" x1="58.65" y1="66.16" x2="58.78" y2="66.67"/><line class="cls-5" x1="58.91" y1="66.93" x2="59.03" y2="67.56"/><line class="cls-5" x1="59.16" y1="67.82" x2="59.29" y2="68.46"/><line class="cls-5" x1="59.42" y1="68.71" x2="59.54" y2="69.35"/><line class="cls-5" x1="59.67" y1="69.6" x2="59.8" y2="70.24"/><line class="cls-5" x1="59.8" y1="70.49" x2="60.05" y2="71.13"/><line class="cls-5" x1="57.89" y1="71.13" x2="58.14" y2="70.49"/><line class="cls-5" x1="58.27" y1="70.24" x2="58.4" y2="69.6"/><line class="cls-5" x1="58.4" y1="69.35" x2="58.65" y2="68.71"/><line class="cls-5" x1="58.65" y1="68.45" x2="58.78" y2="67.82"/><line class="cls-5" x1="58.91" y1="67.56" x2="59.03" y2="66.93"/><line class="cls-5" x1="59.16" y1="66.67" x2="59.29" y2="66.16"/><line class="cls-5" x1="59.42" y1="65.78" x2="59.54" y2="65.27"/><line class="cls-5" x1="59.67" y1="64.89" x2="59.8" y2="64.38"/><line class="cls-5" x1="59.8" y1="64.13" x2="60.05" y2="63.36"/><line class="cls-5" x1="60.56" y1="93.02" x2="60.94" y2="92.64"/><line class="cls-5" x1="61.2" y1="92.39" x2="61.58" y2="91.88"/><line class="cls-5" x1="61.71" y1="91.62" x2="62.09" y2="91.11"/><line class="cls-5" x1="62.22" y1="90.98" x2="62.6" y2="90.48"/><line class="cls-5" x1="62.85" y1="90.22" x2="63.24" y2="89.71"/><line class="cls-5" x1="63.36" y1="89.59" x2="63.74" y2="89.08"/><line class="cls-5" x1="64" y1="88.82" x2="64.38" y2="88.31"/><line class="cls-5" x1="64.51" y1="88.06" x2="64.89" y2="87.68"/><line class="cls-5" x1="65.14" y1="87.42" x2="65.4" y2="86.91"/><line class="cls-5" x1="65.65" y1="86.66" x2="66.04" y2="86.28"/><line class="cls-5" x1="66.16" y1="86.02" x2="66.55" y2="85.51"/><line class="cls-5" x1="66.8" y1="85.26" x2="67.18" y2="84.88"/><line class="cls-5" x1="60.56" y1="84.87" x2="60.94" y2="85.26"/><line class="cls-5" x1="61.2" y1="85.51" x2="61.58" y2="86.02"/><line class="cls-5" x1="61.71" y1="86.28" x2="62.09" y2="86.66"/><line class="cls-5" x1="62.22" y1="86.91" x2="62.6" y2="87.42"/><line class="cls-5" x1="62.85" y1="87.67" x2="63.24" y2="88.06"/><line class="cls-5" x1="63.36" y1="88.31" x2="63.74" y2="88.82"/><line class="cls-5" x1="64" y1="89.08" x2="64.38" y2="89.58"/><line class="cls-5" x1="64.51" y1="89.71" x2="64.89" y2="90.22"/><line class="cls-5" x1="65.14" y1="90.48" x2="65.4" y2="90.98"/><line class="cls-5" x1="65.65" y1="91.11" x2="66.04" y2="91.62"/><line class="cls-5" x1="66.16" y1="91.88" x2="66.55" y2="92.38"/><line class="cls-5" x1="66.8" y1="92.64" x2="67.18" y2="93.02"/><line class="cls-5" x1="78.38" y1="93.02" x2="78.77" y2="92.77"/><line class="cls-5" x1="79.02" y1="92.51" x2="79.53" y2="92.13"/><line class="cls-5" x1="79.66" y1="92" x2="80.17" y2="91.62"/><line class="cls-5" x1="80.42" y1="91.37" x2="80.93" y2="90.99"/><line class="cls-5" x1="81.06" y1="90.86" x2="81.56" y2="90.48"/><line class="cls-5" x1="81.82" y1="90.22" x2="82.33" y2="89.84"/><line class="cls-5" x1="82.46" y1="89.71" x2="82.97" y2="89.33"/><line class="cls-5" x1="83.22" y1="89.08" x2="83.73" y2="88.69"/><line class="cls-5" x1="83.86" y1="88.57" x2="84.37" y2="88.19"/><line class="cls-5" x1="84.62" y1="87.93" x2="85.13" y2="87.55"/><line class="cls-5" x1="85.26" y1="87.42" x2="85.77" y2="87.04"/><line class="cls-5" x1="86.02" y1="86.78" x2="86.4" y2="86.4"/><line class="cls-5" x1="86.66" y1="86.28" x2="87.17" y2="85.89"/><line class="cls-5" x1="87.42" y1="85.64" x2="87.8" y2="85.26"/><line class="cls-5" x1="88.06" y1="85.13" x2="88.44" y2="84.87"/><line class="cls-5" x1="78.38" y1="84.87" x2="78.77" y2="85.13"/><line class="cls-5" x1="79.02" y1="85.26" x2="79.53" y2="85.64"/><line class="cls-5" x1="79.66" y1="85.89" x2="80.17" y2="86.28"/><line class="cls-5" x1="80.42" y1="86.4" x2="80.93" y2="86.78"/><line class="cls-5" x1="81.06" y1="87.04" x2="81.56" y2="87.42"/><line class="cls-5" x1="81.82" y1="87.55" x2="82.33" y2="87.93"/><line class="cls-5" x1="82.46" y1="88.18" x2="82.97" y2="88.57"/><line class="cls-5" x1="83.22" y1="88.69" x2="83.73" y2="89.08"/><line class="cls-5" x1="83.86" y1="89.33" x2="84.37" y2="89.71"/><line class="cls-5" x1="84.62" y1="89.84" x2="85.13" y2="90.22"/><line class="cls-5" x1="85.26" y1="90.48" x2="85.77" y2="90.86"/><line class="cls-5" x1="86.02" y1="90.98" x2="86.4" y2="91.37"/><line class="cls-5" x1="86.66" y1="91.62" x2="87.17" y2="92"/><line class="cls-5" x1="87.42" y1="92.13" x2="87.8" y2="92.51"/><line class="cls-5" x1="88.06" y1="92.77" x2="88.44" y2="93.02"/><line class="cls-5" x1="57.89" y1="84.24" x2="58.02" y2="83.86"/><line class="cls-5" x1="58.14" y1="83.6" x2="58.27" y2="82.97"/><line class="cls-5" x1="58.4" y1="82.71" x2="58.52" y2="82.07"/><line class="cls-5" x1="58.53" y1="81.82" x2="58.78" y2="81.31"/><line class="cls-5" x1="58.78" y1="80.93" x2="58.91" y2="80.42"/><line class="cls-5" x1="59.04" y1="80.04" x2="59.16" y2="79.53"/><line class="cls-5" x1="59.29" y1="79.27" x2="59.42" y2="78.64"/><line class="cls-5" x1="59.54" y1="78.38" x2="59.67" y2="77.75"/><line class="cls-5" x1="59.67" y1="77.49" x2="59.8" y2="76.86"/><line class="cls-5" x1="59.93" y1="76.6" x2="60.05" y2="76.22"/><line class="cls-5" x1="57.89" y1="76.22" x2="58.02" y2="76.6"/><line class="cls-5" x1="58.14" y1="76.86" x2="58.27" y2="77.49"/><line class="cls-5" x1="58.4" y1="77.75" x2="58.52" y2="78.38"/><line class="cls-5" x1="58.53" y1="78.64" x2="58.78" y2="79.27"/><line class="cls-5" x1="58.78" y1="79.53" x2="58.91" y2="80.04"/><line class="cls-5" x1="59.04" y1="80.42" x2="59.16" y2="80.93"/><line class="cls-5" x1="59.29" y1="81.31" x2="59.42" y2="81.82"/><line class="cls-5" x1="59.54" y1="82.07" x2="59.67" y2="82.71"/><line class="cls-5" x1="59.67" y1="82.97" x2="59.8" y2="83.6"/><line class="cls-5" x1="59.93" y1="83.86" x2="60.05" y2="84.24"/><path class="cls-6" d="M44.09,25.3v-3h2.18v.36H44.49v.92h1.66v.35H44.49v1h1.85v.35Z"/><path class="cls-6" d="M49.29,25.3h-.37V23a1.76,1.76,0,0,1-.35.25,1.91,1.91,0,0,1-.38.19V23a2.54,2.54,0,0,0,.54-.36,1.25,1.25,0,0,0,.32-.4h.24Z"/><path class="cls-6" d="M50.24,23.82a2.57,2.57,0,0,1,.11-.86,1.06,1.06,0,0,1,.32-.5.85.85,0,0,1,.55-.18.93.93,0,0,1,.42.1.81.81,0,0,1,.3.28,1.33,1.33,0,0,1,.19.45,2.68,2.68,0,0,1,.07.71,2.78,2.78,0,0,1-.11.85,1,1,0,0,1-.33.51.85.85,0,0,1-.54.17.81.81,0,0,1-.68-.31A2,2,0,0,1,50.24,23.82Zm.38,0a1.82,1.82,0,0,0,.17,1,.49.49,0,0,0,.86,0,1.93,1.93,0,0,0,.17-1,2,2,0,0,0-.17-1,.53.53,0,0,0-.44-.24.46.46,0,0,0-.4.21A1.93,1.93,0,0,0,50.62,23.82Z"/><path class="cls-6" d="M52.58,24.51l.37-.05a.79.79,0,0,0,.21.45.55.55,0,0,0,.37.14.59.59,0,0,0,.44-.18.61.61,0,0,0,.18-.45A.57.57,0,0,0,54,24a.57.57,0,0,0-.43-.16,1,1,0,0,0-.26,0l0-.33h.06a.8.8,0,0,0,.43-.12.42.42,0,0,0,.19-.38.46.46,0,0,0-.14-.34.48.48,0,0,0-.35-.13.48.48,0,0,0-.36.13.69.69,0,0,0-.19.41l-.37-.07a.94.94,0,0,1,.31-.57.88.88,0,0,1,.6-.21,1,1,0,0,1,.45.11.75.75,0,0,1,.32.29.76.76,0,0,1,.11.38.66.66,0,0,1-.11.36.65.65,0,0,1-.31.25.71.71,0,0,1,.42.26.76.76,0,0,1,.15.48.88.88,0,0,1-.29.67,1,1,0,0,1-.73.28,1,1,0,0,1-.66-.24A.91.91,0,0,1,52.58,24.51Z"/><path class="cls-6" d="M54.74,25.35l.87-3.11h.29L55,25.35Z"/><path class="cls-6" d="M58,25v.35H56a.78.78,0,0,1,0-.26,1.22,1.22,0,0,1,.25-.39,3.07,3.07,0,0,1,.48-.46,3.67,3.67,0,0,0,.66-.64.7.7,0,0,0,.17-.44.5.5,0,0,0-.15-.37.65.65,0,0,0-.84,0,.58.58,0,0,0-.16.44l-.38,0a.92.92,0,0,1,.29-.64,1,1,0,0,1,.69-.23,1,1,0,0,1,.68.24.79.79,0,0,1,.25.6.84.84,0,0,1-.07.35,1.27,1.27,0,0,1-.25.37,6.31,6.31,0,0,1-.56.53,3.4,3.4,0,0,0-.43.38,1,1,0,0,0-.16.2Z"/><path class="cls-6" d="M58.41,23.82a2.85,2.85,0,0,1,.11-.86,1.07,1.07,0,0,1,.33-.5.8.8,0,0,1,.54-.18,1,1,0,0,1,.43.1.89.89,0,0,1,.3.28,1.56,1.56,0,0,1,.19.45,3.28,3.28,0,0,1,.06.71,2.5,2.5,0,0,1-.11.85,1.09,1.09,0,0,1-.32.51.88.88,0,0,1-.55.17.82.82,0,0,1-.68-.31A2,2,0,0,1,58.41,23.82Zm.38,0a1.8,1.8,0,0,0,.18,1,.48.48,0,0,0,.42.25.5.5,0,0,0,.43-.25,1.82,1.82,0,0,0,.17-1,1.84,1.84,0,0,0-.17-1,.51.51,0,0,0-.43-.24.48.48,0,0,0-.41.21A2,2,0,0,0,58.79,23.82Z"/><path class="cls-6" d="M60.75,24.51l.37-.05a.74.74,0,0,0,.22.45.53.53,0,0,0,.37.14.6.6,0,0,0,.44-.18.61.61,0,0,0,.18-.45.57.57,0,0,0-.17-.42.57.57,0,0,0-.42-.16.92.92,0,0,0-.26,0l0-.33h.06a.74.74,0,0,0,.42-.12.42.42,0,0,0,.19-.38.45.45,0,0,0-.13-.34.5.5,0,0,0-.36-.13.52.52,0,0,0-.36.13.68.68,0,0,0-.18.41l-.37-.07a.89.89,0,0,1,.31-.57.85.85,0,0,1,.59-.21,1,1,0,0,1,.46.11.72.72,0,0,1,.31.29.67.67,0,0,1,.11.38.65.65,0,0,1-.1.36.7.7,0,0,1-.31.25.68.68,0,0,1,.41.26.76.76,0,0,1,.15.48.88.88,0,0,1-.29.67,1,1,0,0,1-.72.28.92.92,0,0,1-.66-.24A1,1,0,0,1,60.75,24.51Z"/><path class="cls-6" d="M156.16,13.21l-1.91-12.1h.38Zm-.25.12.25-.12-1.91-12.1Z"/><path class="cls-7" d="M156.16,13.21l-1.91-12.1h.38Zm-.25.12.25-.12-1.91-12.1Z"/><line class="cls-5" x1="157.43" y1="24.16" x2="156.03" y2="13.21"/><path class="cls-6" d="M156.92,13.08l-1.27-6.87H156Zm-.38.13.38-.13-1.27-6.87Z"/><path class="cls-7" d="M156.92,13.08l-1.27-6.87H156Zm-.38.13.38-.13-1.27-6.87Z"/><path class="cls-6" d="M155.52,13.33l-1.27-6.87.38-.13Zm-.38,0h.38l-1.27-6.87Z"/><path class="cls-7" d="M155.52,13.33l-1.27-6.87.38-.13Zm-.38,0h.38l-1.27-6.87Z"/><line class="cls-5" x1="157.18" y1="24.28" x2="156.92" y2="22.88"/><line class="cls-5" x1="147.76" y1="14.74" x2="145.98" y2="14.99"/><line class="cls-5" x1="166.22" y1="12.32" x2="164.31" y2="12.57"/><line class="cls-5" x1="166.22" y1="11.93" x2="145.85" y2="14.61"/><g class="cls-8"><path class="cls-5" d="M163.48,12.15a7.57,7.57,0,1,0-6.52,8.5,7.57,7.57,0,0,0,6.52-8.5"/><path class="cls-5" d="M163,12.22a7.06,7.06,0,1,0-6.08,7.93A7,7,0,0,0,163,12.22"/></g><path class="cls-6" d="M97.94,46.3v-3h2.17v.35H98.34v.92H100v.36H98.34v1h1.84v.35Z"/><path class="cls-6" d="M103.14,46.3h-.37V44a2.12,2.12,0,0,1-.35.26,2.3,2.3,0,0,1-.39.19V44a2.1,2.1,0,0,0,.54-.35,1.27,1.27,0,0,0,.33-.4h.24Z"/><path class="cls-6" d="M104.08,44.82a2.9,2.9,0,0,1,.11-.86,1.22,1.22,0,0,1,.33-.5.81.81,0,0,1,.54-.17.94.94,0,0,1,.43.09.89.89,0,0,1,.3.28,1.85,1.85,0,0,1,.19.45,3.25,3.25,0,0,1,.07.71,2.9,2.9,0,0,1-.11.86,1.13,1.13,0,0,1-.33.5.9.9,0,0,1-1.23-.14A2,2,0,0,1,104.08,44.82Zm.38,0a1.85,1.85,0,0,0,.18,1,.5.5,0,0,0,.85,0,2.81,2.81,0,0,0,0-2,.51.51,0,0,0-.43-.24.48.48,0,0,0-.41.22A2,2,0,0,0,104.46,44.82Z"/><path class="cls-6" d="M107.81,46.3h-.37V44a1.77,1.77,0,0,1-.35.26,2.3,2.3,0,0,1-.39.19V44a2.1,2.1,0,0,0,.54-.35,1.27,1.27,0,0,0,.33-.4h.24Z"/><path class="cls-6" d="M108.58,46.36l.87-3.11h.3l-.87,3.11Z"/><path class="cls-6" d="M111.86,46v.35h-2a.55.55,0,0,1,0-.25,1.29,1.29,0,0,1,.24-.4,3.82,3.82,0,0,1,.49-.46,5.23,5.23,0,0,0,.66-.63.82.82,0,0,0,.17-.45.49.49,0,0,0-.16-.37.56.56,0,0,0-.41-.15.55.55,0,0,0-.42.16.6.6,0,0,0-.16.44l-.38,0a.9.9,0,0,1,.29-.65,1,1,0,0,1,.68-.22,1,1,0,0,1,.69.24.76.76,0,0,1,.25.59,1.15,1.15,0,0,1-.07.36,1.69,1.69,0,0,1-.25.36,4.56,4.56,0,0,1-.57.53l-.43.38a1.3,1.3,0,0,0-.15.2Z"/><path class="cls-6" d="M112.26,44.82a2.9,2.9,0,0,1,.11-.86,1.11,1.11,0,0,1,.32-.5.84.84,0,0,1,.55-.17.93.93,0,0,1,.42.09.84.84,0,0,1,.31.28,1.51,1.51,0,0,1,.18.45,2.73,2.73,0,0,1,.07.71,2.9,2.9,0,0,1-.11.86,1.11,1.11,0,0,1-.32.5.85.85,0,0,1-.55.18.81.81,0,0,1-.68-.32A2,2,0,0,1,112.26,44.82Zm.38,0a2,2,0,0,0,.17,1,.51.51,0,0,0,.86,0,3,3,0,0,0,0-2,.52.52,0,0,0-.43-.24.47.47,0,0,0-.41.22A1.86,1.86,0,0,0,112.64,44.82Z"/><path class="cls-6" d="M116,46.3h-.37V44a2.12,2.12,0,0,1-.35.26,3.38,3.38,0,0,1-.39.19V44a2.5,2.5,0,0,0,.54-.35,1.62,1.62,0,0,0,.33-.4H116Z"/><path class="cls-6" d="M98.07,85.51l-.8-3h.41l.46,2c0,.21.09.42.13.62.07-.32.12-.51.13-.56l.57-2h.48L99.89,84a9.71,9.71,0,0,1,.23,1.06c0-.19.09-.41.15-.65l.47-1.94h.4l-.82,3h-.39l-.63-2.29c0-.19-.09-.31-.1-.35,0,.13-.06.25-.08.35l-.64,2.29Z"/><path class="cls-6" d="M103.92,85.51h-.37V83.16a2.12,2.12,0,0,1-.35.25,1.73,1.73,0,0,1-.39.19v-.36a1.86,1.86,0,0,0,.54-.35,1.27,1.27,0,0,0,.33-.4h.24Z"/><path class="cls-6" d="M104.87,84a2.89,2.89,0,0,1,.1-.86,1.1,1.1,0,0,1,.33-.5.85.85,0,0,1,.55-.18.82.82,0,0,1,.42.1.8.8,0,0,1,.3.28,1.56,1.56,0,0,1,.19.45,3.18,3.18,0,0,1,.07.71,2.83,2.83,0,0,1-.11.85,1,1,0,0,1-.33.5.8.8,0,0,1-.54.18.84.84,0,0,1-.69-.31A2,2,0,0,1,104.87,84Zm.37,0a1.8,1.8,0,0,0,.18,1,.49.49,0,0,0,.85,0,1.8,1.8,0,0,0,.18-1,1.82,1.82,0,0,0-.18-1,.51.51,0,0,0-.43-.24.46.46,0,0,0-.4.21A1.88,1.88,0,0,0,105.24,84Z"/><path class="cls-6" d="M107.23,82.9v-.36h1.94v.29a4,4,0,0,0-.57.81,4.87,4.87,0,0,0-.43,1,3.51,3.51,0,0,0-.14.83h-.38a3.46,3.46,0,0,1,.14-.86,4,4,0,0,1,.38-1,3.66,3.66,0,0,1,.53-.78Z"/><path class="cls-6" d="M109.36,85.56l.87-3.11h.3l-.87,3.11Z"/><path class="cls-6" d="M112.64,85.16v.35h-2a.57.57,0,0,1,0-.26,1.42,1.42,0,0,1,.24-.4,3.24,3.24,0,0,1,.49-.45,4.54,4.54,0,0,0,.66-.64.79.79,0,0,0,.17-.44.47.47,0,0,0-.16-.37.56.56,0,0,0-.41-.15.55.55,0,0,0-.42.16.57.57,0,0,0-.16.44l-.38,0a.92.92,0,0,1,.29-.65,1,1,0,0,1,.68-.22,1,1,0,0,1,.69.24.79.79,0,0,1,.25.6.87.87,0,0,1-.07.35,1.27,1.27,0,0,1-.25.37,5.48,5.48,0,0,1-.57.53c-.22.18-.36.31-.42.37a1,1,0,0,0-.16.21Z"/><path class="cls-6" d="M113,84a2.85,2.85,0,0,1,.11-.86,1,1,0,0,1,.33-.5.8.8,0,0,1,.54-.18.82.82,0,0,1,.42.1.76.76,0,0,1,.31.28,1.32,1.32,0,0,1,.18.45A2.68,2.68,0,0,1,115,84a2.83,2.83,0,0,1-.11.85,1,1,0,0,1-.32.5.85.85,0,0,1-.55.18.81.81,0,0,1-.68-.31A2,2,0,0,1,113,84Zm.38,0a1.93,1.93,0,0,0,.17,1,.49.49,0,0,0,.86,0,1.93,1.93,0,0,0,.17-1,2,2,0,0,0-.17-1,.52.52,0,0,0-.43-.24.48.48,0,0,0-.41.21A1.9,1.9,0,0,0,113.42,84Z"/><path class="cls-6" d="M115.4,82.9v-.36h1.95v.29a4,4,0,0,0-.57.81,4.91,4.91,0,0,0-.44,1,4.1,4.1,0,0,0-.14.83h-.38a3.46,3.46,0,0,1,.14-.86,5,5,0,0,1,.38-1,4.59,4.59,0,0,1,.53-.78Z"/><path class="cls-6" d="M32,66.16v-3h2.17v.35H32.4v.92h1.66v.36H32.4v1h1.84v.35Z"/><path class="cls-6" d="M37.2,66.16h-.37V63.81a1.77,1.77,0,0,1-.35.26,3.44,3.44,0,0,1-.39.19V63.9a2.1,2.1,0,0,0,.54-.35,1.27,1.27,0,0,0,.33-.4h.24Z"/><path class="cls-6" d="M38.15,64.68a2.6,2.6,0,0,1,.11-.86,1.11,1.11,0,0,1,.32-.5.84.84,0,0,1,.55-.17.93.93,0,0,1,.42.09.89.89,0,0,1,.3.28A1.69,1.69,0,0,1,40,64a3.25,3.25,0,0,1,.07.71,2.78,2.78,0,0,1-.11.85,1.11,1.11,0,0,1-.33.51.8.8,0,0,1-.54.18.85.85,0,0,1-.69-.32A2,2,0,0,1,38.15,64.68Zm.37,0a1.87,1.87,0,0,0,.18,1,.51.51,0,0,0,.43.24.49.49,0,0,0,.42-.24,2.81,2.81,0,0,0,0-2,.51.51,0,0,0-.43-.24.45.45,0,0,0-.4.22A1.84,1.84,0,0,0,38.52,64.68Z"/><path class="cls-6" d="M41.66,66.16v-.72h-1.3v-.33l1.37-2H42v2h.41v.33H42v.72Zm0-1V63.75l-.94,1.36Z"/><path class="cls-6" d="M42.64,66.22l.87-3.11h.3l-.87,3.11Z"/><path class="cls-6" d="M45.92,65.81v.35h-2a.55.55,0,0,1,0-.25,1.29,1.29,0,0,1,.24-.4,3.79,3.79,0,0,1,.49-.46,5.23,5.23,0,0,0,.66-.63.82.82,0,0,0,.17-.45.49.49,0,0,0-.16-.37.56.56,0,0,0-.41-.15.55.55,0,0,0-.42.16.6.6,0,0,0-.16.44L44,64a.9.9,0,0,1,.29-.64,1,1,0,0,1,.68-.22,1,1,0,0,1,.69.23.79.79,0,0,1,.25.6.84.84,0,0,1-.07.35,1.27,1.27,0,0,1-.25.37,4.56,4.56,0,0,1-.57.53,5.42,5.42,0,0,0-.42.38.94.94,0,0,0-.16.2Z"/><path class="cls-6" d="M46.32,64.68a2.9,2.9,0,0,1,.11-.86,1,1,0,0,1,.33-.5.8.8,0,0,1,.54-.17,1,1,0,0,1,.43.09.89.89,0,0,1,.3.28,1.41,1.41,0,0,1,.18.45,2.73,2.73,0,0,1,.07.71,2.78,2.78,0,0,1-.11.85,1.09,1.09,0,0,1-.32.51.85.85,0,0,1-.55.18.81.81,0,0,1-.68-.32A2,2,0,0,1,46.32,64.68Zm.38,0a2,2,0,0,0,.17,1,.51.51,0,0,0,.86,0,3,3,0,0,0,0-2,.52.52,0,0,0-.43-.24.47.47,0,0,0-.41.22A1.86,1.86,0,0,0,46.7,64.68Z"/><path class="cls-6" d="M49.84,66.16v-.72h-1.3v-.33l1.37-2h.3v2h.4v.33h-.4v.72Zm0-1V63.75l-.94,1.36Z"/><path class="cls-6" d="M44.61,106.39l-.8-3h.41l.46,2c0,.21.09.41.12.62.08-.32.12-.51.14-.56l.57-2H46l.43,1.52a6.89,6.89,0,0,1,.23,1.07q.06-.28.15-.66l.48-1.93h.4l-.83,3h-.38l-.64-2.29q-.07-.28-.09-.36,0,.21-.09.36L45,106.39Z"/><path class="cls-6" d="M50.46,106.39h-.37V104a2.12,2.12,0,0,1-.35.25,3.38,3.38,0,0,1-.39.19v-.36a2.18,2.18,0,0,0,.54-.35,1.62,1.62,0,0,0,.33-.4h.24Z"/><path class="cls-6" d="M51.4,104.91a2.81,2.81,0,0,1,.11-.86,1,1,0,0,1,.33-.5.8.8,0,0,1,.54-.18.88.88,0,0,1,.43.1.8.8,0,0,1,.3.28,1.32,1.32,0,0,1,.18.45,2.68,2.68,0,0,1,.07.71,2.54,2.54,0,0,1-.11.85,1.06,1.06,0,0,1-.32.5.85.85,0,0,1-.55.18.81.81,0,0,1-.68-.31A2,2,0,0,1,51.4,104.91Zm.38,0a1.93,1.93,0,0,0,.17,1,.49.49,0,0,0,.86,0,1.93,1.93,0,0,0,.17-1,2,2,0,0,0-.17-1,.52.52,0,0,0-.43-.24.48.48,0,0,0-.41.21A1.88,1.88,0,0,0,51.78,104.91Z"/><path class="cls-6" d="M53.74,105.6l.38,0a.69.69,0,0,0,.2.42.54.54,0,0,0,.38.15.59.59,0,0,0,.45-.2.76.76,0,0,0,.19-.54.7.7,0,0,0-.18-.5.62.62,0,0,0-.46-.18.73.73,0,0,0-.33.08.74.74,0,0,0-.22.21l-.35,0,.29-1.55h1.5v.36h-1.2l-.16.8a1,1,0,0,1,.57-.18.9.9,0,0,1,.66.27.94.94,0,0,1,.27.7,1.11,1.11,0,0,1-.24.71,1,1,0,0,1-.79.36,1,1,0,0,1-.67-.23A.89.89,0,0,1,53.74,105.6Z"/><path class="cls-6" d="M55.9,106.44l.87-3.11h.3l-.87,3.11Z"/><path class="cls-6" d="M59.18,106v.36h-2a.58.58,0,0,1,.05-.26,1.42,1.42,0,0,1,.24-.4,3.64,3.64,0,0,1,.48-.45,3.67,3.67,0,0,0,.66-.64.74.74,0,0,0,.18-.44.51.51,0,0,0-.16-.37.58.58,0,0,0-.41-.15.61.61,0,0,0-.43.15.65.65,0,0,0-.16.45l-.38,0a1,1,0,0,1,.3-.65,1,1,0,0,1,.68-.22.92.92,0,0,1,.68.24.79.79,0,0,1,.26.59.9.9,0,0,1-.08.36,1.45,1.45,0,0,1-.24.37c-.12.12-.31.3-.57.52l-.43.38-.15.2Z"/><path class="cls-6" d="M59.58,104.91a2.53,2.53,0,0,1,.11-.86,1,1,0,0,1,.32-.5.85.85,0,0,1,.55-.18.82.82,0,0,1,.42.1.8.8,0,0,1,.3.28,1.56,1.56,0,0,1,.19.45,3.18,3.18,0,0,1,.07.71,2.83,2.83,0,0,1-.11.85,1.07,1.07,0,0,1-.33.5.8.8,0,0,1-.54.18.84.84,0,0,1-.69-.31A2,2,0,0,1,59.58,104.91Zm.37,0a1.8,1.8,0,0,0,.18,1,.52.52,0,0,0,.43.25.5.5,0,0,0,.42-.25,1.8,1.8,0,0,0,.18-1,1.82,1.82,0,0,0-.18-1,.51.51,0,0,0-.43-.24.46.46,0,0,0-.4.21A1.86,1.86,0,0,0,60,104.91Z"/><path class="cls-6" d="M61.91,105.6l.39,0a.64.64,0,0,0,.2.42.52.52,0,0,0,.38.15.61.61,0,0,0,.45-.2.8.8,0,0,0,.18-.54.74.74,0,0,0-.17-.5.64.64,0,0,0-.47-.18.66.66,0,0,0-.32.08.78.78,0,0,0-.23.21L62,105l.29-1.55h1.49v.36h-1.2l-.16.8a1,1,0,0,1,.57-.18.9.9,0,0,1,.66.27.94.94,0,0,1,.27.7,1.1,1.1,0,0,1-.23.71,1.07,1.07,0,0,1-1.46.13A.89.89,0,0,1,61.91,105.6Z"/><path class="cls-6" d="M5.19,68.15h-3v-.4H4.83V66.27h.36Z"/><path class="cls-6" d="M5.19,66.12,2.18,65v-.43l3-1.23v.45l-.91.36v1.25l.91.33ZM4,65.26v-1l-.83.31a5,5,0,0,1-.62.21,4.11,4.11,0,0,1,.57.17Z"/><path class="cls-6" d="M4,61.59H3.66V60.31H4.77a2.23,2.23,0,0,1,.35.61,1.77,1.77,0,0,1,.12.64,1.66,1.66,0,0,1-.19.8,1.27,1.27,0,0,1-.55.55,1.74,1.74,0,0,1-.8.18,1.89,1.89,0,0,1-.82-.18,1.2,1.2,0,0,1-.56-.53A1.69,1.69,0,0,1,2.24,61a.85.85,0,0,1,.29-.41A1.31,1.31,0,0,1,3,60.36l.1.36a1.21,1.21,0,0,0-.36.16.7.7,0,0,0-.21.29,1.12,1.12,0,0,0-.08.42,1.32,1.32,0,0,0,.08.47,1,1,0,0,0,.22.32,1.17,1.17,0,0,0,.3.19,1.73,1.73,0,0,0,.6.11,1.4,1.4,0,0,0,.68-.14.86.86,0,0,0,.4-.4,1.18,1.18,0,0,0,.13-.56,1.24,1.24,0,0,0-.1-.5,1.61,1.61,0,0,0-.21-.38H4Z"/><path class="cls-6" d="M3.72,59.85a1.67,1.67,0,0,1-1.17-.4,1.39,1.39,0,0,1-.42-1,1.45,1.45,0,0,1,.2-.75,1.23,1.23,0,0,1,.55-.51A1.79,1.79,0,0,1,3.69,57a1.71,1.71,0,0,1,.82.19,1.18,1.18,0,0,1,.54.52,1.42,1.42,0,0,1,.19.73,1.4,1.4,0,0,1-.21.76,1.24,1.24,0,0,1-.56.5A1.6,1.6,0,0,1,3.72,59.85Zm0-.41a1.2,1.2,0,0,0,.86-.3.93.93,0,0,0,.31-.73,1,1,0,0,0-.32-.74,1.29,1.29,0,0,0-.89-.29,1.41,1.41,0,0,0-.64.13.9.9,0,0,0-.43.36,1,1,0,0,0-.15.54,1,1,0,0,0,.29.72A1.28,1.28,0,0,0,3.73,59.44Z"/><path class="cls-6" d="M153.74,91.12l-3-1.16v-.43l3-1.23v.46l-.91.35v1.25l.91.33Zm-1.23-.87v-1l-.84.31c-.25.1-.46.17-.62.22a3.37,3.37,0,0,1,.58.16Z"/><path class="cls-6" d="M153.74,87.43l-2.18.82v-.38l1.31-.47a4.56,4.56,0,0,1,.44-.14,4.11,4.11,0,0,1-.42-.14l-1.33-.48v-.38l2.18.82Z"/><path class="cls-6" d="M153.74,85.83h-.42v-.42h.42Z"/><path class="cls-6" d="M152.89,83.75l0-.36a.81.81,0,0,0,.47-.12.41.41,0,0,0,.13-.32.44.44,0,0,0-.07-.26.4.4,0,0,0-.19-.15,1.14,1.14,0,0,0-.37,0h-2.08v-.4h2.05a1.52,1.52,0,0,1,.59.09.63.63,0,0,1,.31.29.88.88,0,0,1,.11.47.75.75,0,0,1-.23.6A.9.9,0,0,1,152.89,83.75Z"/><path class="cls-6" d="M152.28,81.57a1.66,1.66,0,0,1-1.18-.4,1.37,1.37,0,0,1-.42-1,1.45,1.45,0,0,1,.2-.75,1.35,1.35,0,0,1,.55-.51,2,2,0,0,1,1.63,0,1.32,1.32,0,0,1,.55.52,1.55,1.55,0,0,1,.18.73,1.46,1.46,0,0,1-.2.76,1.37,1.37,0,0,1-.56.51A1.79,1.79,0,0,1,152.28,81.57Zm0-.41a1.22,1.22,0,0,0,.86-.29,1,1,0,0,0,0-1.47,1.25,1.25,0,0,0-.9-.29,1.59,1.59,0,0,0-.64.12.94.94,0,0,0-.58.9,1.05,1.05,0,0,0,.29.73A1.33,1.33,0,0,0,152.28,81.16Z"/><path class="cls-6" d="M153.74,78.51l-3-1.15v-.43l3-1.23v.45l-.91.35v1.26l.91.33Zm-1.23-.86v-1l-.84.31a5,5,0,0,1-.62.21,4.69,4.69,0,0,1,.58.17Z"/><path class="cls-6" d="M153.42,73.1a2.18,2.18,0,0,0,.28-.51l.27.12a2.35,2.35,0,0,1-.36.65,1.49,1.49,0,0,1,.18.73,1.41,1.41,0,0,1-.19.74,1.34,1.34,0,0,1-.56.52,1.74,1.74,0,0,1-.8.18,1.67,1.67,0,0,1-.81-.19,1.26,1.26,0,0,1-.56-.51,1.54,1.54,0,0,1-.19-.74,1.51,1.51,0,0,1,.2-.76,1.27,1.27,0,0,1,.55-.5,1.79,1.79,0,0,1,.81-.18,1.94,1.94,0,0,1,.66.11A1.51,1.51,0,0,1,153.42,73.1Zm-.51.88a1.4,1.4,0,0,1,.29-.57,1.27,1.27,0,0,0-1-.35,1.56,1.56,0,0,0-.64.12,1.11,1.11,0,0,0-.43.37,1,1,0,0,0,.16,1.27,1.25,1.25,0,0,0,.91.3,1.3,1.3,0,0,0,.9-.29,1,1,0,0,0,.31-.75.92.92,0,0,0-.08-.4,1.27,1.27,0,0,0-.17.4Z"/><path class="cls-6" d="M150.73,70.14v-.4h1.74a2,2,0,0,1,.72.11.87.87,0,0,1,.44.37,1.3,1.3,0,0,1,.16.7,1.54,1.54,0,0,1-.14.69.82.82,0,0,1-.42.38,2,2,0,0,1-.76.12h-1.74v-.4h1.74a1.71,1.71,0,0,0,.58-.07.53.53,0,0,0,.28-.25.87.87,0,0,0,.1-.44.78.78,0,0,0-.2-.62,1.09,1.09,0,0,0-.76-.19Z"/><path class="cls-6" d="M153.74,69h-3v-.39h3Z"/><path class="cls-6" d="M153.74,67.92h-3v-.41l2.36-1.58h-2.36v-.38h3V66l-2.36,1.58h2.36Z"/><path class="cls-6" d="M152.78,63.85l0-.38a.77.77,0,0,0,.37-.12.73.73,0,0,0,.24-.3,1.14,1.14,0,0,0,.09-.46,1.25,1.25,0,0,0-.07-.41.65.65,0,0,0-.19-.26.47.47,0,0,0-.26-.08.41.41,0,0,0-.24.08.71.71,0,0,0-.18.27q0,.12-.15.54a3.13,3.13,0,0,1-.18.58.89.89,0,0,1-.28.32.72.72,0,0,1-.38.1.79.79,0,0,1-.42-.12.76.76,0,0,1-.3-.38,1.42,1.42,0,0,1-.11-.55,1.51,1.51,0,0,1,.11-.59.91.91,0,0,1,.32-.4.86.86,0,0,1,.47-.14l0,.38a.61.61,0,0,0-.43.21.77.77,0,0,0-.15.52.84.84,0,0,0,.14.53.39.39,0,0,0,.32.16.34.34,0,0,0,.26-.12,1.57,1.57,0,0,0,.22-.6,3.29,3.29,0,0,1,.19-.66.88.88,0,0,1,.3-.39.8.8,0,0,1,.43-.12.81.81,0,0,1,.45.13.86.86,0,0,1,.33.4,1.34,1.34,0,0,1,.12.58,1.69,1.69,0,0,1-.12.68.94.94,0,0,1-.35.43A1,1,0,0,1,152.78,63.85Z"/><path class="cls-6" d="M153.74,60.9h-3V58.73h.36v1.78H152V58.84h.35v1.67h1V58.66h.35Z"/><path class="cls-6" d="M152.69,56l.1-.4a1.36,1.36,0,0,1,.75.45,1.24,1.24,0,0,1,.25.79,1.34,1.34,0,0,1-.2.79,1.21,1.21,0,0,1-.57.47,2.15,2.15,0,0,1-.8.16,1.74,1.74,0,0,1-.82-.18,1.19,1.19,0,0,1-.53-.51,1.42,1.42,0,0,1-.19-.73,1.25,1.25,0,0,1,.23-.76,1.19,1.19,0,0,1,.65-.43l.09.39a1,1,0,0,0-.48.3.83.83,0,0,0-.15.51.94.94,0,0,0,.17.57.84.84,0,0,0,.45.33,1.8,1.8,0,0,0,.57.1,1.71,1.71,0,0,0,.67-.12.82.82,0,0,0,.43-.34.94.94,0,0,0,.14-.51.84.84,0,0,0-.19-.57A1,1,0,0,0,152.69,56Z"/><path class="cls-6" d="M152.28,55.2a1.66,1.66,0,0,1-1.18-.4,1.39,1.39,0,0,1-.42-1,1.45,1.45,0,0,1,.2-.75,1.35,1.35,0,0,1,.55-.51,1.89,1.89,0,0,1,1.63,0,1.32,1.32,0,0,1,.55.52,1.55,1.55,0,0,1,.18.73,1.49,1.49,0,0,1-.2.76A1.45,1.45,0,0,1,153,55,1.79,1.79,0,0,1,152.28,55.2Zm0-.41a1.22,1.22,0,0,0,.86-.29,1,1,0,0,0,0-1.48,1.3,1.3,0,0,0-.9-.29,1.59,1.59,0,0,0-.64.13,1,1,0,0,0-.29,1.62A1.28,1.28,0,0,0,152.28,54.79Z"/><path class="cls-6" d="M153.74,50.58h-3v-.4h3Z"/><path class="cls-6" d="M153.74,49.49h-3V49.1h2.66V47.62h.35Z"/><path class="cls-6" d="M153.74,47.16h-3v-.4h2.66V45.28h.35Z"/><path class="cls-6" d="M153.74,45.14l-3-1.16v-.43l3-1.23v.46l-.91.35v1.25l.91.33Zm-1.23-.87v-1l-.84.31c-.25.1-.46.17-.62.22a3.37,3.37,0,0,1,.58.16Z"/><path class="cls-6" d="M97.68,24.28v-3h2.18v.35H98.08v.92h1.66v.35H98.08v1h1.85v.35Z"/><path class="cls-6" d="M102.88,24.28h-.36V21.93a2.12,2.12,0,0,1-.35.25,2.27,2.27,0,0,1-.39.19V22a2.54,2.54,0,0,0,.54-.36,1.46,1.46,0,0,0,.33-.4h.23Z"/><path class="cls-6" d="M103.83,22.8a2.85,2.85,0,0,1,.11-.86,1,1,0,0,1,.33-.5.8.8,0,0,1,.54-.18.93.93,0,0,1,.42.1.84.84,0,0,1,.31.28,1.32,1.32,0,0,1,.18.45,2.68,2.68,0,0,1,.07.71,2.78,2.78,0,0,1-.11.85,1.09,1.09,0,0,1-.32.51.9.9,0,0,1-.55.17.81.81,0,0,1-.68-.31A2,2,0,0,1,103.83,22.8Zm.38,0a1.93,1.93,0,0,0,.17,1,.49.49,0,0,0,.86,0,1.93,1.93,0,0,0,.17-1,2,2,0,0,0-.17-1,.52.52,0,0,0-.43-.24.48.48,0,0,0-.41.21A1.93,1.93,0,0,0,104.21,22.8Z"/><path class="cls-6" d="M108.11,23.93v.35h-2a.69.69,0,0,1,0-.25,1.29,1.29,0,0,1,.24-.4,3.76,3.76,0,0,1,.49-.46,4.06,4.06,0,0,0,.66-.64.7.7,0,0,0,.17-.44.5.5,0,0,0-.15-.37.59.59,0,0,0-.41-.15.57.57,0,0,0-.43.16.58.58,0,0,0-.16.44l-.38,0a.88.88,0,0,1,.29-.64,1,1,0,0,1,.68-.23,1,1,0,0,1,.69.24.79.79,0,0,1,.25.6.84.84,0,0,1-.07.35,1.27,1.27,0,0,1-.25.37,5.48,5.48,0,0,1-.57.53,3.88,3.88,0,0,0-.42.38.74.74,0,0,0-.16.2Z"/><path class="cls-6" d="M108.33,24.33l.87-3.11h.29l-.86,3.11Z"/><path class="cls-6" d="M111.61,23.93v.35h-2a.69.69,0,0,1,0-.25,1.56,1.56,0,0,1,.25-.4,3.07,3.07,0,0,1,.48-.46,3.67,3.67,0,0,0,.66-.64.72.72,0,0,0,.18-.44.51.51,0,0,0-.16-.37.65.65,0,0,0-.84,0,.62.62,0,0,0-.16.44l-.38,0a1,1,0,0,1,.29-.64,1,1,0,0,1,.69-.23.94.94,0,0,1,.68.24.79.79,0,0,1,.25.6.84.84,0,0,1-.07.35,1.45,1.45,0,0,1-.24.37c-.12.13-.31.3-.57.53a4.37,4.37,0,0,0-.43.38,1.56,1.56,0,0,0-.16.2Z"/><path class="cls-6" d="M112,22.8a2.89,2.89,0,0,1,.1-.86,1.15,1.15,0,0,1,.33-.5.84.84,0,0,1,.54-.18.94.94,0,0,1,.43.1.89.89,0,0,1,.3.28,1.56,1.56,0,0,1,.19.45,3.18,3.18,0,0,1,.07.71,2.78,2.78,0,0,1-.11.85,1.11,1.11,0,0,1-.33.51.86.86,0,0,1-.55.17.83.83,0,0,1-.68-.31A2,2,0,0,1,112,22.8Zm.37,0a1.8,1.8,0,0,0,.18,1,.49.49,0,0,0,.85,0,1.8,1.8,0,0,0,.18-1,1.85,1.85,0,0,0-.18-1,.51.51,0,0,0-.43-.24.49.49,0,0,0-.41.21A2,2,0,0,0,112.38,22.8Z"/><path class="cls-6" d="M116.28,23.93v.35h-2a.7.7,0,0,1,0-.25,1.29,1.29,0,0,1,.24-.4,3.07,3.07,0,0,1,.48-.46,4.23,4.23,0,0,0,.67-.64.76.76,0,0,0,.17-.44.51.51,0,0,0-.16-.37.56.56,0,0,0-.41-.15.57.57,0,0,0-.43.16.62.62,0,0,0-.16.44l-.38,0a.93.93,0,0,1,.3-.64,1,1,0,0,1,.68-.23.92.92,0,0,1,.68.24.79.79,0,0,1,.26.6.85.85,0,0,1-.08.35,1.45,1.45,0,0,1-.24.37c-.12.13-.31.3-.57.53s-.36.31-.43.38a1,1,0,0,0-.15.2Z"/><path class="cls-6" d="M98.07,107.4l-.79-3h.4l.46,2c0,.21.09.41.13.61.08-.32.12-.5.13-.55l.58-2h.48l.43,1.52a8.16,8.16,0,0,1,.23,1.06c0-.19.09-.4.15-.65l.47-1.93h.4l-.82,3h-.39l-.63-2.29-.09-.35c0,.14-.06.26-.09.35l-.64,2.29Z"/><path class="cls-6" d="M103.92,107.4h-.37v-2.35a1.77,1.77,0,0,1-.35.26,3.44,3.44,0,0,1-.39.19v-.36a2.35,2.35,0,0,0,.55-.35,1.37,1.37,0,0,0,.32-.4h.24Z"/><path class="cls-6" d="M104.87,105.92a2.6,2.6,0,0,1,.11-.86,1.11,1.11,0,0,1,.32-.5.84.84,0,0,1,.55-.17.93.93,0,0,1,.42.09.89.89,0,0,1,.3.28,1.69,1.69,0,0,1,.19.45,3.25,3.25,0,0,1,.07.71,2.9,2.9,0,0,1-.11.86,1,1,0,0,1-.33.5.8.8,0,0,1-.54.18.85.85,0,0,1-.69-.32A2,2,0,0,1,104.87,105.92Zm.38,0a1.89,1.89,0,0,0,.17,1,.52.52,0,0,0,.43.24.49.49,0,0,0,.42-.24,2.81,2.81,0,0,0,0-2,.5.5,0,0,0-.43-.24.45.45,0,0,0-.4.22A1.86,1.86,0,0,0,105.25,105.92Z"/><path class="cls-6" d="M109.12,105.13l-.37,0a.64.64,0,0,0-.14-.31.47.47,0,0,0-.37-.16.5.5,0,0,0-.31.1.81.81,0,0,0-.27.37,2,2,0,0,0-.11.69.88.88,0,0,1,.73-.4.81.81,0,0,1,.63.28.94.94,0,0,1,.26.7,1.14,1.14,0,0,1-.12.52.84.84,0,0,1-.34.38,1,1,0,0,1-1.23-.21,1.69,1.69,0,0,1-.29-1.12,2,2,0,0,1,.32-1.27.93.93,0,0,1,.76-.34.86.86,0,0,1,.58.19A.88.88,0,0,1,109.12,105.13Zm-1.51,1.3a.86.86,0,0,0,.08.36.62.62,0,0,0,.23.27.58.58,0,0,0,.3.09.53.53,0,0,0,.41-.19.73.73,0,0,0,.16-.51.69.69,0,0,0-.16-.49.58.58,0,0,0-.84,0A.64.64,0,0,0,107.61,106.43Z"/><path class="cls-6" d="M109.36,107.46l.88-3.11h.29l-.87,3.11Z"/><path class="cls-6" d="M112.65,107.05v.35h-2a.73.73,0,0,1,0-.25,1.29,1.29,0,0,1,.24-.4,4.6,4.6,0,0,1,.49-.46,4.6,4.6,0,0,0,.66-.63.82.82,0,0,0,.17-.45.51.51,0,0,0-.15-.37.59.59,0,0,0-.41-.15.57.57,0,0,0-.43.16.6.6,0,0,0-.16.44l-.38,0a.9.9,0,0,1,.29-.64,1,1,0,0,1,.68-.22,1,1,0,0,1,.69.23.79.79,0,0,1,.25.6.92.92,0,0,1-.07.36,1.39,1.39,0,0,1-.25.36,4.56,4.56,0,0,1-.57.53,5.42,5.42,0,0,0-.42.38.94.94,0,0,0-.16.2Z"/><path class="cls-6" d="M113,105.92a2.9,2.9,0,0,1,.11-.86,1,1,0,0,1,.33-.5.8.8,0,0,1,.54-.17,1,1,0,0,1,.43.09.89.89,0,0,1,.3.28,1.41,1.41,0,0,1,.18.45,2.73,2.73,0,0,1,.07.71,2.6,2.6,0,0,1-.11.86,1.11,1.11,0,0,1-.32.5.85.85,0,0,1-.55.18.81.81,0,0,1-.68-.32A2,2,0,0,1,113,105.92Zm.38,0a2,2,0,0,0,.17,1,.51.51,0,0,0,.86,0,3,3,0,0,0,0-2,.52.52,0,0,0-.43-.24.47.47,0,0,0-.41.22A1.86,1.86,0,0,0,113.42,105.92Z"/><path class="cls-6" d="M117.29,105.13l-.36,0a.75.75,0,0,0-.14-.31.49.49,0,0,0-.37-.16.48.48,0,0,0-.31.1.83.83,0,0,0-.28.37,2,2,0,0,0-.1.69,1,1,0,0,1,.32-.3,1,1,0,0,1,.41-.1.84.84,0,0,1,.63.28,1,1,0,0,1,.26.7,1,1,0,0,1-.13.52.88.88,0,0,1-.33.38,1,1,0,0,1-.49.13,1,1,0,0,1-.75-.34,1.75,1.75,0,0,1-.29-1.12,2,2,0,0,1,.32-1.27.93.93,0,0,1,.76-.34.85.85,0,0,1,.58.19A.88.88,0,0,1,117.29,105.13Zm-1.5,1.3a.73.73,0,0,0,.08.36.6.6,0,0,0,.22.27.59.59,0,0,0,.31.09.51.51,0,0,0,.4-.19.73.73,0,0,0,.17-.51.69.69,0,0,0-.17-.49.54.54,0,0,0-.42-.18.58.58,0,0,0-.42.18A.63.63,0,0,0,115.79,106.43Z"/><polyline class="cls-5" points="88.44 53.18 107.92 53.18 107.92 55.47 112.24 55.47 112.24 53.18 115.94 53.18 115.94 54.58 120.52 54.58 120.52 53.18 123.95 53.18 123.95 55.47 129.68 55.47 129.68 33.19 111.99 33.19 111.99 35.1 88.44 35.1 88.44 53.18"/><polyline class="cls-5" points="111.99 33.19 129.68 33.19 129.68 10.66 123.95 10.66 123.95 12.95 120.52 12.95 120.52 11.55 115.94 11.55 115.94 12.95 112.25 12.95 112.25 10.66 107.92 10.66 107.92 12.95 88.95 12.95 88.95 16.01 80.67 16.01 80.67 31.16 111.99 31.16 111.99 33.19"/><line class="cls-5" x1="112.24" y1="10.66" x2="123.95" y2="10.66"/><polyline class="cls-5" points="112.75 11.43 112.25 11.3 123.95 11.3"/><line class="cls-5" x1="113.01" y1="11.55" x2="113.52" y2="11.81"/><line class="cls-5" x1="113.77" y1="11.93" x2="114.28" y2="12.19"/><line class="cls-5" x1="114.66" y1="12.32" x2="115.17" y2="12.57"/><line class="cls-5" x1="115.43" y1="12.7" x2="115.93" y2="12.95"/><line class="cls-5" x1="112.24" y1="12.95" x2="112.75" y2="12.7"/><line class="cls-5" x1="113.01" y1="12.57" x2="113.52" y2="12.32"/><line class="cls-5" x1="113.77" y1="12.19" x2="114.28" y2="11.93"/><line class="cls-5" x1="114.66" y1="11.81" x2="115.17" y2="11.55"/><line class="cls-5" x1="115.43" y1="11.43" x2="115.93" y2="11.3"/><line class="cls-5" x1="120.52" y1="11.3" x2="120.9" y2="11.43"/><line class="cls-5" x1="121.15" y1="11.55" x2="121.66" y2="11.81"/><line class="cls-5" x1="121.92" y1="11.93" x2="122.56" y2="12.19"/><line class="cls-5" x1="122.81" y1="12.32" x2="123.32" y2="12.57"/><line class="cls-5" x1="123.57" y1="12.7" x2="123.95" y2="12.95"/><line class="cls-5" x1="120.52" y1="12.95" x2="120.9" y2="12.7"/><line class="cls-5" x1="121.15" y1="12.57" x2="121.66" y2="12.32"/><line class="cls-5" x1="121.92" y1="12.19" x2="122.56" y2="11.93"/><line class="cls-5" x1="122.81" y1="11.81" x2="123.32" y2="11.55"/><line class="cls-5" x1="123.57" y1="11.43" x2="123.95" y2="11.3"/><line class="cls-5" x1="112.24" y1="55.47" x2="123.95" y2="55.47"/><polyline class="cls-5" points="112.75 54.71 112.25 54.96 123.95 54.96"/><line class="cls-5" x1="113.01" y1="54.58" x2="113.52" y2="54.32"/><line class="cls-5" x1="113.77" y1="54.2" x2="114.28" y2="53.94"/><line class="cls-5" x1="114.66" y1="53.82" x2="115.17" y2="53.56"/><line class="cls-5" x1="115.43" y1="53.43" x2="115.93" y2="53.18"/><line class="cls-5" x1="112.24" y1="53.18" x2="112.75" y2="53.43"/><line class="cls-5" x1="113.01" y1="53.56" x2="113.52" y2="53.82"/><line class="cls-5" x1="113.77" y1="53.94" x2="114.28" y2="54.2"/><line class="cls-5" x1="114.66" y1="54.32" x2="115.17" y2="54.58"/><line class="cls-5" x1="115.43" y1="54.71" x2="115.93" y2="54.96"/><line class="cls-5" x1="120.52" y1="54.96" x2="120.9" y2="54.71"/><line class="cls-5" x1="121.15" y1="54.58" x2="121.66" y2="54.32"/><line class="cls-5" x1="121.92" y1="54.2" x2="122.56" y2="53.94"/><line class="cls-5" x1="122.81" y1="53.82" x2="123.32" y2="53.56"/><line class="cls-5" x1="123.57" y1="53.43" x2="123.95" y2="53.18"/><line class="cls-5" x1="120.52" y1="53.18" x2="120.9" y2="53.43"/><line class="cls-5" x1="121.15" y1="53.56" x2="121.66" y2="53.82"/><line class="cls-5" x1="121.92" y1="53.94" x2="122.56" y2="54.2"/><line class="cls-5" x1="122.81" y1="54.32" x2="123.32" y2="54.58"/><line class="cls-5" x1="123.57" y1="54.71" x2="123.95" y2="54.96"/><polyline class="cls-5" points="88.44 75.45 107.92 75.45 107.92 73.29 112.24 73.29 112.24 75.45 115.94 75.45 115.94 74.18 120.52 74.18 120.52 75.45 123.95 75.45 123.95 73.29 129.68 73.29 129.68 95.57 111.99 95.57 111.99 93.66 88.44 93.66 88.44 75.45"/><polyline class="cls-5" points="111.99 95.57 129.68 95.57 129.68 117.97 123.95 117.97 123.95 115.81 120.52 115.81 120.52 117.08 115.94 117.08 115.94 115.81 112.25 115.81 112.25 117.97 107.92 117.97 107.92 115.81 88.95 115.81 88.95 112.63 80.67 112.63 80.67 97.48 111.99 97.48 111.99 95.57"/><line class="cls-5" x1="112.24" y1="117.97" x2="123.95" y2="117.97"/><polyline class="cls-5" points="112.75 117.21 112.25 117.46 123.95 117.46"/><line class="cls-5" x1="113.01" y1="117.08" x2="113.52" y2="116.83"/><line class="cls-5" x1="113.77" y1="116.7" x2="114.28" y2="116.44"/><line class="cls-5" x1="114.66" y1="116.32" x2="115.17" y2="116.06"/><line class="cls-5" x1="115.43" y1="115.94" x2="115.93" y2="115.81"/><line class="cls-5" x1="112.24" y1="115.81" x2="112.75" y2="115.93"/><line class="cls-5" x1="113.01" y1="116.06" x2="113.52" y2="116.32"/><line class="cls-5" x1="113.77" y1="116.44" x2="114.28" y2="116.7"/><line class="cls-5" x1="114.66" y1="116.83" x2="115.17" y2="117.08"/><line class="cls-5" x1="115.43" y1="117.21" x2="115.93" y2="117.46"/><line class="cls-5" x1="120.52" y1="117.46" x2="120.9" y2="117.21"/><line class="cls-5" x1="121.15" y1="117.08" x2="121.66" y2="116.83"/><line class="cls-5" x1="121.92" y1="116.7" x2="122.56" y2="116.44"/><line class="cls-5" x1="122.81" y1="116.32" x2="123.32" y2="116.06"/><line class="cls-5" x1="123.57" y1="115.94" x2="123.95" y2="115.81"/><line class="cls-5" x1="120.52" y1="115.81" x2="120.9" y2="115.93"/><line class="cls-5" x1="121.15" y1="116.06" x2="121.66" y2="116.32"/><line class="cls-5" x1="121.92" y1="116.44" x2="122.56" y2="116.7"/><line class="cls-5" x1="122.81" y1="116.83" x2="123.32" y2="117.08"/><line class="cls-5" x1="123.57" y1="117.21" x2="123.95" y2="117.46"/><line class="cls-5" x1="112.24" y1="73.29" x2="123.95" y2="73.29"/><polyline class="cls-5" points="112.75 74.06 112.25 73.8 123.95 73.8"/><line class="cls-5" x1="113.01" y1="74.18" x2="113.52" y2="74.44"/><line class="cls-5" x1="113.77" y1="74.56" x2="114.28" y2="74.82"/><line class="cls-5" x1="114.66" y1="74.95" x2="115.17" y2="75.2"/><line class="cls-5" x1="115.43" y1="75.33" x2="115.93" y2="75.45"/><line class="cls-5" x1="112.24" y1="75.46" x2="112.75" y2="75.33"/><line class="cls-5" x1="113.01" y1="75.2" x2="113.52" y2="74.95"/><line class="cls-5" x1="113.77" y1="74.82" x2="114.28" y2="74.56"/><line class="cls-5" x1="114.66" y1="74.44" x2="115.17" y2="74.18"/><line class="cls-5" x1="115.43" y1="74.05" x2="115.93" y2="73.8"/><line class="cls-5" x1="120.52" y1="73.8" x2="120.9" y2="73.93"/><line class="cls-5" x1="121.15" y1="74.05" x2="121.66" y2="74.44"/><line class="cls-5" x1="121.92" y1="74.56" x2="122.56" y2="74.82"/><line class="cls-5" x1="122.81" y1="74.95" x2="123.32" y2="75.2"/><line class="cls-5" x1="123.57" y1="75.33" x2="123.95" y2="75.45"/><line class="cls-5" x1="120.52" y1="75.46" x2="120.9" y2="75.33"/><line class="cls-5" x1="121.15" y1="75.2" x2="121.66" y2="74.95"/><line class="cls-5" x1="121.92" y1="74.82" x2="122.56" y2="74.56"/><line class="cls-5" x1="122.81" y1="74.44" x2="123.32" y2="74.05"/><line class="cls-5" x1="123.57" y1="73.93" x2="123.95" y2="73.8"/></g></svg>