<svg id="Capa_1" data-name="Capa 1" xmlns="http://www.w3.org/2000/svg" xmlns:xlink="http://www.w3.org/1999/xlink" viewBox="0 0 168.36 119.98"><defs><style>.cls-1,.cls-4,.cls-5,.cls-7{fill:none;}.cls-2{clip-path:url(#clip-path);}.cls-3{fill:#ebebeb;}.cls-4{stroke:#ebebeb;}.cls-4,.cls-5,.cls-7{stroke-miterlimit:10;}.cls-4,.cls-7{stroke-width:0;}.cls-5,.cls-7{stroke:#63666b;stroke-linecap:round;}.cls-5{stroke-width:0.25px;}.cls-6{fill:#63666b;}.cls-8{clip-path:url(#clip-path-2);}</style><clipPath id="clip-path"><rect class="cls-1" x="-71.05" y="-530.54" width="1190.55" height="841.89"/></clipPath><clipPath id="clip-path-2"><rect class="cls-1" x="-0.07" width="168.43" height="120.3"/></clipPath></defs><title>E102S</title><g class="cls-2"><path class="cls-3" d="M123.76,10.66,129.49,13h-5.73Zm5.73,0h-5.73L129.49,13Z"/><path class="cls-4" d="M123.76,10.66,129.49,13h-5.73Zm5.73,0h-5.73L129.49,13Z"/><path class="cls-3" d="M115.74,11.55l4.58,1.4h-4.58Zm4.58,0h-4.58l4.58,1.4Z"/><path class="cls-4" d="M115.74,11.55l4.58,1.4h-4.58Zm4.58,0h-4.58l4.58,1.4Z"/><path class="cls-3" d="M107.72,10.66,112.05,13h-4.33Zm4.33,0h-4.33L112.05,13Z"/><path class="cls-4" d="M107.72,10.66,112.05,13h-4.33Zm4.33,0h-4.33L112.05,13Z"/><path class="cls-3" d="M88.75,13,129.49,16H88.75Zm40.74,0H88.75L129.49,16Z"/><path class="cls-4" d="M88.75,13,129.49,16H88.75Zm40.74,0H88.75L129.49,16Z"/><path class="cls-3" d="M80.48,16l49,15.15h-49Zm49,0h-49l49,15.15Z"/><path class="cls-4" d="M80.48,16l49,15.15h-49Zm49,0h-49l49,15.15Z"/><path class="cls-3" d="M111.79,31.16l17.7,2h-17.7Zm17.7,0h-17.7l17.7,2Z"/><path class="cls-4" d="M111.79,31.16l17.7,2h-17.7Zm17.7,0h-17.7l17.7,2Z"/><polyline class="cls-5" points="88.24 53.18 107.72 53.18 107.72 55.47 112.05 55.47 112.05 53.18 115.74 53.18 115.74 54.58 120.32 54.58 120.32 53.18 123.76 53.18 123.76 55.47 129.49 55.47 129.49 33.19 111.79 33.19 111.79 35.1 88.24 35.1 88.24 53.18"/><polyline class="cls-5" points="80.48 16.01 70.93 16.01 70.93 12.95 37.45 12.95 37.45 11.55 32.87 11.55 32.87 12.95 28.92 12.95 28.92 26.45 22.56 26.45 22.56 47.2 23.7 47.2 23.7 49.49 43.18 49.49 43.18 43.89 43.31 43.89 43.31 31.16 80.48 31.16 80.48 16.01"/><polyline class="cls-5" points="43.18 43.89 57.69 43.89 57.69 53.81 59.86 53.81 59.86 63.36 57.69 63.36 57.69 71.13 59.86 71.13 59.86 76.22 57.69 76.22 57.69 84.88 47.64 84.88 47.64 89.58 43.18 89.58 43.18 79.27 25.11 79.27 25.11 52.03 23.71 52.03 23.71 49.49 43.18 49.49 43.18 43.89"/><polyline class="cls-5" points="80.48 112.63 70.93 112.63 70.93 115.81 37.45 115.81 37.45 117.08 32.87 117.08 32.87 115.81 28.92 115.81 28.92 102.19 22.56 102.19 22.56 81.44 23.7 81.44 23.7 79.27 43.18 79.27 43.18 84.88 43.31 84.88 43.31 97.48 80.48 97.48 80.48 112.63"/><polyline class="cls-5" points="88.24 35.61 78.19 35.61 78.19 44.4 66.99 44.4 66.99 35.61 60.37 35.61 60.37 44.4 57.69 44.4"/><line class="cls-5" x1="60.37" y1="43.89" x2="66.99" y2="43.89"/><line class="cls-5" x1="66.99" y1="44.4" x2="60.37" y2="44.4"/><line class="cls-5" x1="78.19" y1="44.4" x2="88.24" y2="44.4"/><line class="cls-5" x1="88.24" y1="43.89" x2="78.19" y2="43.89"/><line class="cls-5" x1="59.86" y1="44.4" x2="59.86" y2="84.24"/><line class="cls-5" x1="60.37" y1="84.24" x2="60.37" y2="44.4"/><polyline class="cls-5" points="88.24 93.02 78.19 93.02 78.19 84.24 66.99 84.24 66.99 93.02 60.37 93.02 60.37 84.24 57.69 84.24"/><line class="cls-5" x1="60.37" y1="84.87" x2="66.99" y2="84.87"/><line class="cls-5" x1="66.99" y1="84.24" x2="60.37" y2="84.24"/><line class="cls-5" x1="78.19" y1="84.24" x2="88.24" y2="84.24"/><line class="cls-5" x1="88.24" y1="84.87" x2="78.19" y2="84.87"/><line class="cls-5" x1="60.37" y1="35.61" x2="60.75" y2="36.12"/><line class="cls-5" x1="61" y1="36.38" x2="61.38" y2="36.88"/><line class="cls-5" x1="61.51" y1="37.01" x2="61.89" y2="37.52"/><line class="cls-5" x1="62.02" y1="37.78" x2="62.4" y2="38.28"/><line class="cls-5" x1="62.66" y1="38.41" x2="63.04" y2="38.92"/><line class="cls-5" x1="63.17" y1="39.18" x2="63.55" y2="39.68"/><line class="cls-5" x1="63.8" y1="39.94" x2="64.19" y2="40.32"/><line class="cls-5" x1="64.31" y1="40.58" x2="64.69" y2="41.09"/><line class="cls-5" x1="64.95" y1="41.34" x2="65.2" y2="41.72"/><line class="cls-5" x1="65.46" y1="41.98" x2="65.84" y2="42.49"/><line class="cls-5" x1="65.97" y1="42.74" x2="66.35" y2="43.12"/><line class="cls-5" x1="66.6" y1="43.38" x2="66.99" y2="43.89"/><line class="cls-5" x1="60.37" y1="43.89" x2="60.75" y2="43.38"/><line class="cls-5" x1="61" y1="43.12" x2="61.38" y2="42.74"/><line class="cls-5" x1="61.51" y1="42.49" x2="61.89" y2="41.98"/><line class="cls-5" x1="62.02" y1="41.72" x2="62.4" y2="41.34"/><line class="cls-5" x1="62.66" y1="41.09" x2="63.04" y2="40.58"/><line class="cls-5" x1="63.17" y1="40.32" x2="63.55" y2="39.94"/><line class="cls-5" x1="63.8" y1="39.68" x2="64.19" y2="39.18"/><line class="cls-5" x1="64.31" y1="38.92" x2="64.69" y2="38.41"/><line class="cls-5" x1="64.95" y1="38.28" x2="65.2" y2="37.78"/><line class="cls-5" x1="65.46" y1="37.52" x2="65.84" y2="37.01"/><line class="cls-5" x1="65.97" y1="36.88" x2="66.35" y2="36.38"/><line class="cls-5" x1="66.6" y1="36.12" x2="66.99" y2="35.61"/><line class="cls-5" x1="78.19" y1="35.61" x2="78.57" y2="35.99"/><line class="cls-5" x1="78.82" y1="36.12" x2="79.33" y2="36.5"/><line class="cls-5" x1="79.46" y1="36.76" x2="79.97" y2="37.14"/><line class="cls-5" x1="80.22" y1="37.27" x2="80.73" y2="37.65"/><line class="cls-5" x1="80.86" y1="37.9" x2="81.37" y2="38.29"/><line class="cls-5" x1="81.62" y1="38.41" x2="82.13" y2="38.79"/><line class="cls-5" x1="82.26" y1="39.05" x2="82.77" y2="39.43"/><line class="cls-5" x1="83.03" y1="39.56" x2="83.53" y2="39.94"/><line class="cls-5" x1="83.66" y1="40.19" x2="84.17" y2="40.58"/><line class="cls-5" x1="84.42" y1="40.7" x2="84.93" y2="41.09"/><line class="cls-5" x1="85.06" y1="41.34" x2="85.57" y2="41.72"/><line class="cls-5" x1="85.83" y1="41.85" x2="86.21" y2="42.23"/><line class="cls-5" x1="86.46" y1="42.49" x2="86.97" y2="42.87"/><line class="cls-5" x1="87.23" y1="42.99" x2="87.61" y2="43.38"/><line class="cls-5" x1="87.86" y1="43.63" x2="88.24" y2="43.89"/><line class="cls-5" x1="88.24" y1="35.61" x2="87.86" y2="35.99"/><line class="cls-5" x1="87.61" y1="36.12" x2="87.23" y2="36.5"/><line class="cls-5" x1="86.97" y1="36.76" x2="86.46" y2="37.14"/><line class="cls-5" x1="86.21" y1="37.27" x2="85.83" y2="37.65"/><line class="cls-5" x1="85.57" y1="37.9" x2="85.06" y2="38.29"/><line class="cls-5" x1="84.93" y1="38.41" x2="84.43" y2="38.79"/><line class="cls-5" x1="84.17" y1="39.05" x2="83.66" y2="39.43"/><line class="cls-5" x1="83.53" y1="39.56" x2="83.03" y2="39.94"/><line class="cls-5" x1="82.77" y1="40.19" x2="82.26" y2="40.58"/><line class="cls-5" x1="82.13" y1="40.7" x2="81.63" y2="41.09"/><line class="cls-5" x1="81.37" y1="41.34" x2="80.86" y2="41.72"/><line class="cls-5" x1="80.73" y1="41.85" x2="80.22" y2="42.23"/><line class="cls-5" x1="79.97" y1="42.49" x2="79.46" y2="42.87"/><line class="cls-5" x1="79.33" y1="42.99" x2="78.82" y2="43.38"/><line class="cls-5" x1="78.57" y1="43.63" x2="78.19" y2="43.89"/><line class="cls-5" x1="57.69" y1="53.82" x2="59.86" y2="44.4"/><line class="cls-5" x1="57.69" y1="44.4" x2="59.86" y2="53.82"/><line class="cls-5" x1="57.69" y1="63.36" x2="57.95" y2="64.13"/><line class="cls-5" x1="58.07" y1="64.38" x2="58.2" y2="64.89"/><line class="cls-5" x1="58.2" y1="65.27" x2="58.46" y2="65.78"/><line class="cls-5" x1="58.46" y1="66.16" x2="58.58" y2="66.67"/><line class="cls-5" x1="58.71" y1="66.93" x2="58.84" y2="67.56"/><line class="cls-5" x1="58.97" y1="67.82" x2="59.09" y2="68.46"/><line class="cls-5" x1="59.22" y1="68.71" x2="59.35" y2="69.35"/><line class="cls-5" x1="59.48" y1="69.6" x2="59.6" y2="70.24"/><line class="cls-5" x1="59.6" y1="70.49" x2="59.86" y2="71.13"/><line class="cls-5" x1="57.69" y1="71.13" x2="57.95" y2="70.49"/><line class="cls-5" x1="58.07" y1="70.24" x2="58.2" y2="69.6"/><line class="cls-5" x1="58.2" y1="69.35" x2="58.46" y2="68.71"/><line class="cls-5" x1="58.46" y1="68.45" x2="58.58" y2="67.82"/><line class="cls-5" x1="58.71" y1="67.56" x2="58.84" y2="66.93"/><line class="cls-5" x1="58.97" y1="66.67" x2="59.09" y2="66.16"/><line class="cls-5" x1="59.22" y1="65.78" x2="59.35" y2="65.27"/><line class="cls-5" x1="59.48" y1="64.89" x2="59.6" y2="64.38"/><line class="cls-5" x1="59.6" y1="64.13" x2="59.86" y2="63.36"/><line class="cls-5" x1="60.37" y1="93.02" x2="60.75" y2="92.64"/><line class="cls-5" x1="61" y1="92.39" x2="61.38" y2="91.88"/><line class="cls-5" x1="61.51" y1="91.62" x2="61.89" y2="91.11"/><line class="cls-5" x1="62.02" y1="90.98" x2="62.4" y2="90.48"/><line class="cls-5" x1="62.66" y1="90.22" x2="63.04" y2="89.71"/><line class="cls-5" x1="63.17" y1="89.59" x2="63.55" y2="89.08"/><line class="cls-5" x1="63.8" y1="88.82" x2="64.19" y2="88.31"/><line class="cls-5" x1="64.31" y1="88.06" x2="64.69" y2="87.68"/><line class="cls-5" x1="64.95" y1="87.42" x2="65.2" y2="86.91"/><line class="cls-5" x1="65.46" y1="86.66" x2="65.84" y2="86.28"/><line class="cls-5" x1="65.97" y1="86.02" x2="66.35" y2="85.51"/><line class="cls-5" x1="66.6" y1="85.26" x2="66.99" y2="84.88"/><line class="cls-5" x1="60.37" y1="84.87" x2="60.75" y2="85.26"/><line class="cls-5" x1="61" y1="85.51" x2="61.38" y2="86.02"/><line class="cls-5" x1="61.51" y1="86.28" x2="61.89" y2="86.66"/><line class="cls-5" x1="62.02" y1="86.91" x2="62.4" y2="87.42"/><line class="cls-5" x1="62.66" y1="87.67" x2="63.04" y2="88.06"/><line class="cls-5" x1="63.17" y1="88.31" x2="63.55" y2="88.82"/><line class="cls-5" x1="63.8" y1="89.08" x2="64.19" y2="89.58"/><line class="cls-5" x1="64.31" y1="89.71" x2="64.69" y2="90.22"/><line class="cls-5" x1="64.95" y1="90.48" x2="65.2" y2="90.98"/><line class="cls-5" x1="65.46" y1="91.11" x2="65.84" y2="91.62"/><line class="cls-5" x1="65.97" y1="91.88" x2="66.35" y2="92.38"/><line class="cls-5" x1="66.6" y1="92.64" x2="66.99" y2="93.02"/><line class="cls-5" x1="78.19" y1="93.02" x2="78.57" y2="92.77"/><line class="cls-5" x1="78.82" y1="92.51" x2="79.33" y2="92.13"/><line class="cls-5" x1="79.46" y1="92" x2="79.97" y2="91.62"/><line class="cls-5" x1="80.22" y1="91.37" x2="80.73" y2="90.99"/><line class="cls-5" x1="80.86" y1="90.86" x2="81.37" y2="90.48"/><line class="cls-5" x1="81.62" y1="90.22" x2="82.13" y2="89.84"/><line class="cls-5" x1="82.26" y1="89.71" x2="82.77" y2="89.33"/><line class="cls-5" x1="83.03" y1="89.08" x2="83.53" y2="88.69"/><line class="cls-5" x1="83.66" y1="88.57" x2="84.17" y2="88.19"/><line class="cls-5" x1="84.42" y1="87.93" x2="84.93" y2="87.55"/><line class="cls-5" x1="85.06" y1="87.42" x2="85.57" y2="87.04"/><line class="cls-5" x1="85.83" y1="86.78" x2="86.21" y2="86.4"/><line class="cls-5" x1="86.46" y1="86.28" x2="86.97" y2="85.89"/><line class="cls-5" x1="87.23" y1="85.64" x2="87.61" y2="85.26"/><line class="cls-5" x1="87.86" y1="85.13" x2="88.24" y2="84.87"/><line class="cls-5" x1="78.19" y1="84.87" x2="78.57" y2="85.13"/><line class="cls-5" x1="78.82" y1="85.26" x2="79.33" y2="85.64"/><line class="cls-5" x1="79.46" y1="85.89" x2="79.97" y2="86.28"/><line class="cls-5" x1="80.22" y1="86.4" x2="80.73" y2="86.78"/><line class="cls-5" x1="80.86" y1="87.04" x2="81.37" y2="87.42"/><line class="cls-5" x1="81.62" y1="87.55" x2="82.13" y2="87.93"/><line class="cls-5" x1="82.26" y1="88.18" x2="82.77" y2="88.57"/><line class="cls-5" x1="83.03" y1="88.69" x2="83.53" y2="89.08"/><line class="cls-5" x1="83.66" y1="89.33" x2="84.17" y2="89.71"/><line class="cls-5" x1="84.42" y1="89.84" x2="84.93" y2="90.22"/><line class="cls-5" x1="85.06" y1="90.48" x2="85.57" y2="90.86"/><line class="cls-5" x1="85.83" y1="90.98" x2="86.21" y2="91.37"/><line class="cls-5" x1="86.46" y1="91.62" x2="86.97" y2="92"/><line class="cls-5" x1="87.23" y1="92.13" x2="87.61" y2="92.51"/><line class="cls-5" x1="87.86" y1="92.77" x2="88.24" y2="93.02"/><line class="cls-5" x1="57.69" y1="84.24" x2="57.82" y2="83.86"/><line class="cls-5" x1="57.95" y1="83.6" x2="58.07" y2="82.97"/><line class="cls-5" x1="58.2" y1="82.71" x2="58.33" y2="82.07"/><line class="cls-5" x1="58.33" y1="81.82" x2="58.58" y2="81.31"/><line class="cls-5" x1="58.58" y1="80.93" x2="58.71" y2="80.42"/><line class="cls-5" x1="58.84" y1="80.04" x2="58.97" y2="79.53"/><line class="cls-5" x1="59.09" y1="79.27" x2="59.22" y2="78.64"/><line class="cls-5" x1="59.35" y1="78.38" x2="59.47" y2="77.75"/><line class="cls-5" x1="59.48" y1="77.49" x2="59.6" y2="76.86"/><line class="cls-5" x1="59.73" y1="76.6" x2="59.86" y2="76.22"/><line class="cls-5" x1="57.69" y1="76.22" x2="57.82" y2="76.6"/><line class="cls-5" x1="57.95" y1="76.86" x2="58.07" y2="77.49"/><line class="cls-5" x1="58.2" y1="77.75" x2="58.33" y2="78.38"/><line class="cls-5" x1="58.33" y1="78.64" x2="58.58" y2="79.27"/><line class="cls-5" x1="58.58" y1="79.53" x2="58.71" y2="80.04"/><line class="cls-5" x1="58.84" y1="80.42" x2="58.97" y2="80.93"/><line class="cls-5" x1="59.09" y1="81.31" x2="59.22" y2="81.82"/><line class="cls-5" x1="59.35" y1="82.07" x2="59.47" y2="82.71"/><line class="cls-5" x1="59.48" y1="82.97" x2="59.6" y2="83.6"/><line class="cls-5" x1="59.73" y1="83.86" x2="59.86" y2="84.24"/><path class="cls-6" d="M43.89,25.3v-3h2.18v.36H44.29v.92H46v.35H44.29v1h1.85v.35Z"/><path class="cls-6" d="M49.1,25.3h-.37V23a2.12,2.12,0,0,1-.35.25,2.27,2.27,0,0,1-.39.19V23a2.12,2.12,0,0,0,.54-.36,1.46,1.46,0,0,0,.33-.4h.24Z"/><path class="cls-6" d="M50,23.82a2.85,2.85,0,0,1,.11-.86,1.07,1.07,0,0,1,.33-.5.8.8,0,0,1,.54-.18,1,1,0,0,1,.43.1.89.89,0,0,1,.3.28,1.32,1.32,0,0,1,.18.45,2.68,2.68,0,0,1,.07.71,2.5,2.5,0,0,1-.11.85,1.09,1.09,0,0,1-.32.51.9.9,0,0,1-.55.17.81.81,0,0,1-.68-.31A2,2,0,0,1,50,23.82Zm.38,0a1.93,1.93,0,0,0,.17,1,.49.49,0,0,0,.86,0,1.93,1.93,0,0,0,.17-1,2,2,0,0,0-.17-1,.52.52,0,0,0-.43-.24.48.48,0,0,0-.41.21A1.93,1.93,0,0,0,50.42,23.82Z"/><path class="cls-6" d="M52.38,24.51l.37-.05a.74.74,0,0,0,.22.45.53.53,0,0,0,.37.14.6.6,0,0,0,.44-.18.61.61,0,0,0,.18-.45.57.57,0,0,0-.17-.42.57.57,0,0,0-.42-.16.92.92,0,0,0-.26,0l0-.33h.06a.74.74,0,0,0,.42-.12.48.48,0,0,0,0-.72.48.48,0,0,0-.35-.13.52.52,0,0,0-.36.13.68.68,0,0,0-.18.41l-.37-.07a.85.85,0,0,1,.31-.57.84.84,0,0,1,.59-.21,1,1,0,0,1,.45.11.7.7,0,0,1,.32.29.76.76,0,0,1,.11.38.65.65,0,0,1-.1.36.7.7,0,0,1-.31.25.71.71,0,0,1,.41.26.76.76,0,0,1,.15.48.88.88,0,0,1-.29.67,1,1,0,0,1-.72.28.92.92,0,0,1-.66-.24A.87.87,0,0,1,52.38,24.51Z"/><path class="cls-6" d="M54.54,25.35l.87-3.11h.3l-.87,3.11Z"/><path class="cls-6" d="M57.82,25v.35h-2a.8.8,0,0,1,.05-.26,1.37,1.37,0,0,1,.24-.39,3.07,3.07,0,0,1,.48-.46,4.23,4.23,0,0,0,.67-.64.76.76,0,0,0,.17-.44.47.47,0,0,0-.16-.37.56.56,0,0,0-.41-.15.57.57,0,0,0-.43.16.62.62,0,0,0-.16.44l-.38,0a.93.93,0,0,1,.3-.64,1,1,0,0,1,.68-.23.92.92,0,0,1,.68.24.79.79,0,0,1,.26.6.85.85,0,0,1-.08.35,1.45,1.45,0,0,1-.24.37c-.12.13-.31.3-.57.53a4.37,4.37,0,0,0-.43.38,1,1,0,0,0-.15.2Z"/><path class="cls-6" d="M58.22,23.82a2.57,2.57,0,0,1,.11-.86,1.06,1.06,0,0,1,.32-.5.85.85,0,0,1,.55-.18.93.93,0,0,1,.42.1.89.89,0,0,1,.3.28,1.56,1.56,0,0,1,.19.45,3.18,3.18,0,0,1,.07.71,2.78,2.78,0,0,1-.11.85,1,1,0,0,1-.33.51.85.85,0,0,1-.54.17.84.84,0,0,1-.69-.31A2,2,0,0,1,58.22,23.82Zm.38,0a1.82,1.82,0,0,0,.17,1,.51.51,0,0,0,.43.25.48.48,0,0,0,.42-.25,1.8,1.8,0,0,0,.18-1,1.82,1.82,0,0,0-.18-1,.5.5,0,0,0-.43-.24.46.46,0,0,0-.4.21A1.93,1.93,0,0,0,58.6,23.82Z"/><path class="cls-6" d="M60.56,24.51l.36-.05a.86.86,0,0,0,.22.45.55.55,0,0,0,.37.14.59.59,0,0,0,.44-.18.61.61,0,0,0,.18-.45A.57.57,0,0,0,62,24a.6.6,0,0,0-.43-.16,1,1,0,0,0-.26,0l0-.33h.06a.8.8,0,0,0,.43-.12.45.45,0,0,0,.19-.38.46.46,0,0,0-.14-.34.48.48,0,0,0-.36-.13.52.52,0,0,0-.36.13.74.74,0,0,0-.18.41l-.37-.07a.94.94,0,0,1,.31-.57.88.88,0,0,1,.6-.21,1,1,0,0,1,.45.11.75.75,0,0,1,.32.29.76.76,0,0,1,.11.38.66.66,0,0,1-.11.36.65.65,0,0,1-.31.25.71.71,0,0,1,.42.26.83.83,0,0,1,.14.48.88.88,0,0,1-.28.67,1,1,0,0,1-.73.28,1,1,0,0,1-.66-.24A.91.91,0,0,1,60.56,24.51Z"/><path class="cls-6" d="M156,13.21l-1.91-12.1h.38Zm-.26.12.26-.12-1.91-12.1Z"/><path class="cls-7" d="M156,13.21l-1.91-12.1h.38Zm-.26.12.26-.12-1.91-12.1Z"/><line class="cls-5" x1="157.24" y1="24.16" x2="155.84" y2="13.21"/><path class="cls-6" d="M156.73,13.08l-1.27-6.87h.38Zm-.38.13.38-.13-1.27-6.87Z"/><path class="cls-7" d="M156.73,13.08l-1.27-6.87h.38Zm-.38.13.38-.13-1.27-6.87Z"/><path class="cls-6" d="M155.33,13.33l-1.27-6.87.38-.13Zm-.38,0h.38l-1.27-6.87Z"/><path class="cls-7" d="M155.33,13.33l-1.27-6.87.38-.13Zm-.38,0h.38l-1.27-6.87Z"/><line class="cls-5" x1="156.98" y1="24.28" x2="156.73" y2="22.88"/><line class="cls-5" x1="147.56" y1="14.74" x2="145.78" y2="14.99"/><line class="cls-5" x1="166.02" y1="12.32" x2="164.11" y2="12.57"/><line class="cls-5" x1="166.02" y1="11.93" x2="145.65" y2="14.61"/><g class="cls-8"><path class="cls-5" d="M163.28,12.15a7.57,7.57,0,1,0-6.52,8.5,7.57,7.57,0,0,0,6.52-8.5"/><path class="cls-5" d="M162.78,12.22a7.07,7.07,0,1,0-6.08,7.93,7.06,7.06,0,0,0,6.08-7.93"/></g><path class="cls-6" d="M97.74,46.3v-3h2.18v.35H98.14v.92H99.8v.36H98.14v1H100v.35Z"/><path class="cls-6" d="M102.94,46.3h-.37V44a1.77,1.77,0,0,1-.35.26,2.68,2.68,0,0,1-.38.19V44a2.5,2.5,0,0,0,.54-.35,1.37,1.37,0,0,0,.32-.4h.24Z"/><path class="cls-6" d="M103.89,44.82A2.6,2.6,0,0,1,104,44a1.11,1.11,0,0,1,.32-.5.84.84,0,0,1,.55-.17.93.93,0,0,1,.42.09.81.81,0,0,1,.3.28,1.53,1.53,0,0,1,.19.45,2.73,2.73,0,0,1,.07.71,2.9,2.9,0,0,1-.11.86,1,1,0,0,1-.33.5.8.8,0,0,1-.54.18.81.81,0,0,1-.68-.32A2,2,0,0,1,103.89,44.82Zm.38,0a2,2,0,0,0,.17,1,.51.51,0,0,0,.86,0,3,3,0,0,0,0-2,.53.53,0,0,0-.44-.24.45.45,0,0,0-.4.22A1.86,1.86,0,0,0,104.27,44.82Z"/><path class="cls-6" d="M107.61,46.3h-.36V44a2.12,2.12,0,0,1-.35.26,3.38,3.38,0,0,1-.39.19V44a2.5,2.5,0,0,0,.54-.35,1.62,1.62,0,0,0,.33-.4h.23Z"/><path class="cls-6" d="M108.39,46.36l.87-3.11h.29l-.87,3.11Z"/><path class="cls-6" d="M111.67,46v.35h-2a.73.73,0,0,1,0-.25,1.16,1.16,0,0,1,.25-.4,4.39,4.39,0,0,1,.48-.46,4.11,4.11,0,0,0,.66-.63.75.75,0,0,0,.17-.45.51.51,0,0,0-.15-.37.65.65,0,0,0-.84,0,.6.6,0,0,0-.16.44l-.38,0a.94.94,0,0,1,.29-.65,1,1,0,0,1,.69-.22,1,1,0,0,1,.68.24.76.76,0,0,1,.25.59.92.92,0,0,1-.07.36,1.39,1.39,0,0,1-.25.36,4.56,4.56,0,0,1-.57.53,5.42,5.42,0,0,0-.42.38,1.4,1.4,0,0,0-.16.2Z"/><path class="cls-6" d="M112.06,44.82a2.9,2.9,0,0,1,.11-.86,1.13,1.13,0,0,1,.33-.5.8.8,0,0,1,.54-.17,1,1,0,0,1,.43.09.89.89,0,0,1,.3.28,1.85,1.85,0,0,1,.19.45,3.35,3.35,0,0,1,.06.71,2.6,2.6,0,0,1-.11.86,1.11,1.11,0,0,1-.32.5.9.9,0,0,1-1.23-.14A2,2,0,0,1,112.06,44.82Zm.38,0a1.85,1.85,0,0,0,.18,1,.49.49,0,0,0,.42.24.51.51,0,0,0,.43-.24,3,3,0,0,0,0-2,.51.51,0,0,0-.43-.24.47.47,0,0,0-.41.22A2,2,0,0,0,112.44,44.82Z"/><path class="cls-6" d="M115.79,46.3h-.37V44a1.77,1.77,0,0,1-.35.26,2.3,2.3,0,0,1-.39.19V44a2.1,2.1,0,0,0,.54-.35,1.27,1.27,0,0,0,.33-.4h.24Z"/><path class="cls-6" d="M97.88,85.51l-.8-3h.41l.45,2c0,.21.1.42.13.62.08-.32.12-.51.14-.56l.57-2h.48L99.69,84a6.55,6.55,0,0,1,.23,1.06c0-.19.09-.41.15-.65l.47-1.94h.4l-.82,3h-.38l-.64-2.29L99,82.87c0,.13-.06.25-.09.35l-.64,2.29Z"/><path class="cls-6" d="M103.72,85.51h-.37V83.16a1.51,1.51,0,0,1-.35.25,1.91,1.91,0,0,1-.38.19v-.36a2.18,2.18,0,0,0,.54-.35,1.62,1.62,0,0,0,.33-.4h.23Z"/><path class="cls-6" d="M104.67,84a2.85,2.85,0,0,1,.11-.86,1,1,0,0,1,.32-.5.85.85,0,0,1,.55-.18.82.82,0,0,1,.42.1.76.76,0,0,1,.31.28,1.56,1.56,0,0,1,.18.45,2.68,2.68,0,0,1,.07.71,2.83,2.83,0,0,1-.11.85,1,1,0,0,1-.32.5.85.85,0,0,1-.55.18.81.81,0,0,1-.68-.31A2,2,0,0,1,104.67,84Zm.38,0a1.93,1.93,0,0,0,.17,1,.49.49,0,0,0,.86,0,1.93,1.93,0,0,0,.17-1,2,2,0,0,0-.17-1,.53.53,0,0,0-.44-.24.48.48,0,0,0-.4.21A1.9,1.9,0,0,0,105.05,84Z"/><path class="cls-6" d="M107,82.9v-.36h2v.29a3.37,3.37,0,0,0-.57.81,4.91,4.91,0,0,0-.44,1,4.1,4.1,0,0,0-.14.83h-.38a3.46,3.46,0,0,1,.14-.86,5,5,0,0,1,.38-1,4.08,4.08,0,0,1,.53-.78Z"/><path class="cls-6" d="M109.17,85.56l.87-3.11h.29l-.87,3.11Z"/><path class="cls-6" d="M112.45,85.16v.35h-2a.75.75,0,0,1,0-.26,1.46,1.46,0,0,1,.25-.4,3.64,3.64,0,0,1,.48-.45,3.67,3.67,0,0,0,.66-.64.72.72,0,0,0,.17-.44.5.5,0,0,0-.15-.37.65.65,0,0,0-.84,0,.61.61,0,0,0-.16.44l-.38,0a1,1,0,0,1,.29-.65,1.06,1.06,0,0,1,.69-.22.94.94,0,0,1,.68.24.79.79,0,0,1,.25.6.87.87,0,0,1-.07.35,1.45,1.45,0,0,1-.24.37c-.12.13-.31.3-.57.53a5,5,0,0,0-.43.37,1.46,1.46,0,0,0-.16.21Z"/><path class="cls-6" d="M112.84,84a2.85,2.85,0,0,1,.11-.86,1.1,1.1,0,0,1,.33-.5.8.8,0,0,1,.54-.18.85.85,0,0,1,.43.1.8.8,0,0,1,.3.28,1.56,1.56,0,0,1,.19.45,3.28,3.28,0,0,1,.06.71,2.87,2.87,0,0,1-.1.85,1,1,0,0,1-.33.5.83.83,0,0,1-.55.18.82.82,0,0,1-.68-.31A2,2,0,0,1,112.84,84Zm.38,0a1.8,1.8,0,0,0,.18,1,.48.48,0,0,0,.42.25.5.5,0,0,0,.43-.25,1.8,1.8,0,0,0,.18-1,1.82,1.82,0,0,0-.18-1,.51.51,0,0,0-.43-.24.49.49,0,0,0-.41.21A2,2,0,0,0,113.22,84Z"/><path class="cls-6" d="M115.2,82.9v-.36h2v.29a4,4,0,0,0-.57.81,4.87,4.87,0,0,0-.43,1,3.5,3.5,0,0,0-.15.83h-.38a4.74,4.74,0,0,1,.14-.86,4.48,4.48,0,0,1,.39-1,3.66,3.66,0,0,1,.53-.78Z"/><path class="cls-6" d="M31.8,66.16v-3H34v.35H32.2v.92h1.66v.36H32.2v1h1.85v.35Z"/><path class="cls-6" d="M37,66.16h-.37V63.81a1.51,1.51,0,0,1-.35.26c-.14.08-.27.14-.38.19V63.9a2.5,2.5,0,0,0,.54-.35,1.62,1.62,0,0,0,.33-.4H37Z"/><path class="cls-6" d="M38,64.68a2.9,2.9,0,0,1,.11-.86,1,1,0,0,1,.33-.5.8.8,0,0,1,.54-.17.93.93,0,0,1,.42.09.84.84,0,0,1,.31.28,1.69,1.69,0,0,1,.18.45,2.73,2.73,0,0,1,.07.71,2.78,2.78,0,0,1-.11.85,1.09,1.09,0,0,1-.32.51.85.85,0,0,1-.55.18.81.81,0,0,1-.68-.32A2,2,0,0,1,38,64.68Zm.38,0a2,2,0,0,0,.17,1,.51.51,0,0,0,.86,0,3,3,0,0,0,0-2,.52.52,0,0,0-.43-.24.47.47,0,0,0-.41.22A1.86,1.86,0,0,0,38.33,64.68Z"/><path class="cls-6" d="M41.47,66.16v-.72H40.16v-.33l1.38-2h.3v2h.4v.33h-.4v.72Zm0-1V63.75l-.94,1.36Z"/><path class="cls-6" d="M42.45,66.22l.87-3.11h.29l-.87,3.11Z"/><path class="cls-6" d="M45.73,65.81v.35h-2a.73.73,0,0,1,0-.25,1.33,1.33,0,0,1,.25-.4,3.62,3.62,0,0,1,.48-.46,4.11,4.11,0,0,0,.66-.63.75.75,0,0,0,.17-.45.51.51,0,0,0-.15-.37.65.65,0,0,0-.84,0,.64.64,0,0,0-.16.44l-.38,0a.94.94,0,0,1,.29-.64,1,1,0,0,1,.69-.22,1,1,0,0,1,.68.23.79.79,0,0,1,.25.6.84.84,0,0,1-.07.35,1.27,1.27,0,0,1-.25.37,5.11,5.11,0,0,1-.56.53,4.5,4.5,0,0,0-.43.38,1.4,1.4,0,0,0-.16.2Z"/><path class="cls-6" d="M46.12,64.68a2.9,2.9,0,0,1,.11-.86,1.22,1.22,0,0,1,.33-.5.81.81,0,0,1,.54-.17.94.94,0,0,1,.43.09.89.89,0,0,1,.3.28A1.69,1.69,0,0,1,48,64a3.35,3.35,0,0,1,.06.71,2.82,2.82,0,0,1-.1.85,1.11,1.11,0,0,1-.33.51.9.9,0,0,1-1.23-.14A2,2,0,0,1,46.12,64.68Zm.38,0a1.87,1.87,0,0,0,.18,1,.49.49,0,0,0,.42.24.51.51,0,0,0,.43-.24,2.81,2.81,0,0,0,0-2,.51.51,0,0,0-.43-.24.48.48,0,0,0-.41.22A2,2,0,0,0,46.5,64.68Z"/><path class="cls-6" d="M49.64,66.16v-.72h-1.3v-.33l1.37-2H50v2h.41v.33H50v.72Zm0-1V63.75l-.94,1.36Z"/><path class="cls-6" d="M44.41,106.39l-.8-3H44l.46,2c.05.21.09.41.13.62.07-.32.12-.51.13-.56l.57-2h.48l.44,1.52a10.39,10.39,0,0,1,.23,1.07q.06-.28.15-.66l.47-1.93h.4l-.82,3h-.39l-.63-2.29c0-.19-.09-.31-.1-.36,0,.14-.06.26-.08.36l-.64,2.29Z"/><path class="cls-6" d="M50.26,106.39h-.37V104a2.12,2.12,0,0,1-.35.25,2.3,2.3,0,0,1-.39.19v-.36a1.86,1.86,0,0,0,.54-.35,1.27,1.27,0,0,0,.33-.4h.24Z"/><path class="cls-6" d="M51.2,104.91a2.81,2.81,0,0,1,.11-.86,1.1,1.1,0,0,1,.33-.5.82.82,0,0,1,.54-.18.83.83,0,0,1,.43.1.8.8,0,0,1,.3.28,1.56,1.56,0,0,1,.19.45,3.18,3.18,0,0,1,.07.71,2.83,2.83,0,0,1-.11.85,1.07,1.07,0,0,1-.33.5.83.83,0,0,1-.55.18.82.82,0,0,1-.68-.31A2,2,0,0,1,51.2,104.91Zm.38,0a1.8,1.8,0,0,0,.18,1,.49.49,0,0,0,.85,0,1.8,1.8,0,0,0,.18-1,1.82,1.82,0,0,0-.18-1,.51.51,0,0,0-.43-.24.49.49,0,0,0-.41.21A2,2,0,0,0,51.58,104.91Z"/><path class="cls-6" d="M53.54,105.6l.39,0a.64.64,0,0,0,.2.42.52.52,0,0,0,.38.15.62.62,0,0,0,.45-.2.8.8,0,0,0,.18-.54.74.74,0,0,0-.17-.5.64.64,0,0,0-.47-.18.66.66,0,0,0-.32.08A.78.78,0,0,0,54,105l-.34,0,.29-1.55h1.49v.36h-1.2l-.16.8a1,1,0,0,1,.57-.18.9.9,0,0,1,.66.27.94.94,0,0,1,.27.7,1.16,1.16,0,0,1-.23.71,1.07,1.07,0,0,1-1.46.13A.86.86,0,0,1,53.54,105.6Z"/><path class="cls-6" d="M55.7,106.44l.87-3.11h.3L56,106.44Z"/><path class="cls-6" d="M59,106v.36H57a.57.57,0,0,1,0-.26,1.42,1.42,0,0,1,.24-.4,3.82,3.82,0,0,1,.49-.45,4.54,4.54,0,0,0,.66-.64.79.79,0,0,0,.17-.44.47.47,0,0,0-.16-.37.56.56,0,0,0-.41-.15.58.58,0,0,0-.42.15.61.61,0,0,0-.16.45l-.38,0a.92.92,0,0,1,.29-.65,1,1,0,0,1,.68-.22,1,1,0,0,1,.69.24.82.82,0,0,1,.25.59,1.1,1.1,0,0,1-.07.36,1.51,1.51,0,0,1-.25.37,5.66,5.66,0,0,1-.57.52l-.43.38-.15.2Z"/><path class="cls-6" d="M59.38,104.91a2.81,2.81,0,0,1,.11-.86,1,1,0,0,1,.32-.5.85.85,0,0,1,.55-.18.82.82,0,0,1,.42.1.76.76,0,0,1,.31.28,1.56,1.56,0,0,1,.18.45,2.68,2.68,0,0,1,.07.71,2.83,2.83,0,0,1-.11.85,1.06,1.06,0,0,1-.32.5.85.85,0,0,1-.55.18.81.81,0,0,1-.68-.31A2,2,0,0,1,59.38,104.91Zm.38,0a1.93,1.93,0,0,0,.17,1,.49.49,0,0,0,.86,0,1.93,1.93,0,0,0,.17-1,2,2,0,0,0-.17-1,.52.52,0,0,0-.43-.24.48.48,0,0,0-.41.21A1.88,1.88,0,0,0,59.76,104.91Z"/><path class="cls-6" d="M61.72,105.6l.38,0a.69.69,0,0,0,.2.42.54.54,0,0,0,.38.15.59.59,0,0,0,.45-.2.76.76,0,0,0,.19-.54.7.7,0,0,0-.18-.5.62.62,0,0,0-.46-.18.73.73,0,0,0-.33.08.74.74,0,0,0-.22.21l-.35,0,.29-1.55h1.5v.36h-1.2l-.16.8a1,1,0,0,1,.56-.18.9.9,0,0,1,.67.27.94.94,0,0,1,.27.7,1.11,1.11,0,0,1-.24.71,1,1,0,0,1-.79.36,1,1,0,0,1-.67-.23A.89.89,0,0,1,61.72,105.6Z"/><path class="cls-6" d="M5,68.15H2v-.4H4.64V66.27H5Z"/><path class="cls-6" d="M5,66.12,2,65v-.43l3-1.23v.45l-.91.35v1.26L5,65.7Zm-1.23-.86v-1l-.83.31a5.72,5.72,0,0,1-.63.21,4.23,4.23,0,0,1,.58.17Z"/><path class="cls-6" d="M3.81,61.59H3.46V60.31H4.57a2.27,2.27,0,0,1,.36.61,2,2,0,0,1,.11.64,1.66,1.66,0,0,1-.19.8,1.25,1.25,0,0,1-.54.55,1.79,1.79,0,0,1-.81.18,1.92,1.92,0,0,1-.82-.18,1.2,1.2,0,0,1-.56-.53,1.68,1.68,0,0,1-.19-.79A1.55,1.55,0,0,1,2,61a1,1,0,0,1,.29-.42,1.45,1.45,0,0,1,.5-.22l.1.36a1.17,1.17,0,0,0-.37.16.94.94,0,0,0-.21.29,1.12,1.12,0,0,0-.08.42,1.16,1.16,0,0,0,.09.47.83.83,0,0,0,.22.32,1.32,1.32,0,0,0,.29.19,1.74,1.74,0,0,0,.61.11,1.36,1.36,0,0,0,.67-.14.82.82,0,0,0,.4-.4,1.18,1.18,0,0,0,.13-.56,1.43,1.43,0,0,0-.09-.5,1.31,1.31,0,0,0-.22-.38H3.81Z"/><path class="cls-6" d="M3.53,59.85a1.62,1.62,0,0,1-1.17-.41,1.32,1.32,0,0,1-.43-1,1.45,1.45,0,0,1,.2-.75,1.21,1.21,0,0,1,.56-.51,1.71,1.71,0,0,1,.8-.18,1.68,1.68,0,0,1,.82.19,1.26,1.26,0,0,1,.55.52,1.52,1.52,0,0,1,.18.73,1.39,1.39,0,0,1-.2.76,1.29,1.29,0,0,1-.56.5A1.66,1.66,0,0,1,3.53,59.85Zm0-.41a1.18,1.18,0,0,0,.86-.3,1,1,0,0,0,.31-.73,1,1,0,0,0-.31-.74,1.3,1.3,0,0,0-.9-.29,1.44,1.44,0,0,0-.64.13.93.93,0,0,0-.42.36,1,1,0,0,0-.16.54,1,1,0,0,0,.3.72A1.28,1.28,0,0,0,3.53,59.44Z"/><path class="cls-6" d="M153.55,91.12l-3-1.16v-.43l3-1.23v.46l-.91.35v1.25l.91.33Zm-1.24-.87v-1l-.83.31c-.25.1-.46.17-.62.22a4,4,0,0,1,.57.16Z"/><path class="cls-6" d="M153.55,87.43l-2.18.83v-.39l1.3-.47.44-.14-.41-.14-1.33-.48v-.38l2.18.82Z"/><path class="cls-6" d="M153.55,85.83h-.42v-.42h.42Z"/><path class="cls-6" d="M152.69,83.75l-.05-.36a.8.8,0,0,0,.48-.12.5.5,0,0,0,0-.58.34.34,0,0,0-.18-.15,1.21,1.21,0,0,0-.38,0h-2.07v-.4h2.05a1.5,1.5,0,0,1,.58.09.65.65,0,0,1,.32.29,1,1,0,0,1,.11.47.78.78,0,0,1-.23.6A.92.92,0,0,1,152.69,83.75Z"/><path class="cls-6" d="M152.08,81.57a1.61,1.61,0,0,1-1.17-.4,1.37,1.37,0,0,1-.42-1,1.44,1.44,0,0,1,.19-.75,1.38,1.38,0,0,1,.56-.51,1.78,1.78,0,0,1,.81-.17,1.86,1.86,0,0,1,.82.18,1.24,1.24,0,0,1,.54.52,1.45,1.45,0,0,1,.19.73,1.38,1.38,0,0,1-.21.76,1.26,1.26,0,0,1-.56.51A1.72,1.72,0,0,1,152.08,81.57Zm0-.41a1.2,1.2,0,0,0,.85-.29,1,1,0,0,0,0-1.47,1.24,1.24,0,0,0-.89-.29,1.64,1.64,0,0,0-.65.12.93.93,0,0,0-.42.36,1,1,0,0,0-.15.54,1.05,1.05,0,0,0,.29.73A1.31,1.31,0,0,0,152.09,81.16Z"/><path class="cls-6" d="M153.55,78.51l-3-1.15v-.43l3-1.23v.45l-.91.35v1.26l.91.33Zm-1.24-.86v-1l-.83.31a5,5,0,0,1-.62.21,4.11,4.11,0,0,1,.57.17Z"/><path class="cls-6" d="M153.22,73.1a2.18,2.18,0,0,0,.28-.51l.28.12a2.39,2.39,0,0,1-.37.65,1.48,1.48,0,0,1,0,1.47,1.31,1.31,0,0,1-.55.52,1.79,1.79,0,0,1-.81.18,1.85,1.85,0,0,1-.81-.18,1.26,1.26,0,0,1-.55-.52,1.56,1.56,0,0,1,0-1.49,1.25,1.25,0,0,1,.56-.51,1.74,1.74,0,0,1,.8-.18,2,2,0,0,1,.67.11A1.39,1.39,0,0,1,153.22,73.1Zm-.5.88a1.52,1.52,0,0,1,.28-.57,1.24,1.24,0,0,0-1-.35,1.62,1.62,0,0,0-.64.12,1,1,0,0,0-.42.37,1,1,0,0,0,.15,1.27,1.26,1.26,0,0,0,.91.3,1.3,1.3,0,0,0,.9-.29,1,1,0,0,0,.32-.75,1.1,1.1,0,0,0-.08-.4,1.27,1.27,0,0,0-.17.4Z"/><path class="cls-6" d="M150.54,70.14v-.4h1.74a2,2,0,0,1,.72.11.9.9,0,0,1,.43.37,1.32,1.32,0,0,1,.17.7,1.41,1.41,0,0,1-.15.69A.82.82,0,0,1,153,72a1.89,1.89,0,0,1-.75.12h-1.74v-.4h1.73a1.64,1.64,0,0,0,.58-.07.55.55,0,0,0,.29-.25.84.84,0,0,0,.1-.44.82.82,0,0,0-.2-.62,1.12,1.12,0,0,0-.77-.19Z"/><path class="cls-6" d="M153.55,69h-3v-.39h3Z"/><path class="cls-6" d="M153.55,67.92h-3v-.41l2.36-1.58h-2.36v-.38h3V66l-2.37,1.58h2.37Z"/><path class="cls-6" d="M152.58,63.85l0-.38a.71.71,0,0,0,.37-.12.67.67,0,0,0,.23-.3,1.14,1.14,0,0,0,.09-.46,1.07,1.07,0,0,0-.07-.41.48.48,0,0,0-.18-.25.43.43,0,0,0-.26-.09.44.44,0,0,0-.25.08.6.6,0,0,0-.17.27,4,4,0,0,0-.15.54,3,3,0,0,1-.19.58.8.8,0,0,1-.28.32.67.67,0,0,1-.37.11.83.83,0,0,1-.43-.13.88.88,0,0,1-.3-.38,1.42,1.42,0,0,1-.1-.55,1.35,1.35,0,0,1,.11-.59.89.89,0,0,1,.31-.4.87.87,0,0,1,.48-.14l0,.38a.64.64,0,0,0-.44.21.83.83,0,0,0-.14.52.84.84,0,0,0,.13.53.4.4,0,0,0,.32.16.37.37,0,0,0,.27-.11,1.59,1.59,0,0,0,.21-.6A4,4,0,0,1,152,62a1,1,0,0,1,.31-.39.77.77,0,0,1,.43-.12.81.81,0,0,1,.45.13,1,1,0,0,1,.33.4,1.34,1.34,0,0,1,.12.58,1.69,1.69,0,0,1-.12.68,1,1,0,0,1-.36.44A1.1,1.1,0,0,1,152.58,63.85Z"/><path class="cls-6" d="M153.55,60.91h-3V58.73h.35v1.78h.93V58.84h.35v1.67h1V58.66h.36Z"/><path class="cls-6" d="M152.49,56l.1-.4a1.29,1.29,0,0,1,.75.45,1.25,1.25,0,0,1,.26.79,1.42,1.42,0,0,1-.2.79,1.21,1.21,0,0,1-.57.47,2.17,2.17,0,0,1-.81.16,1.77,1.77,0,0,1-.82-.18,1.24,1.24,0,0,1-.53-.51,1.52,1.52,0,0,1-.18-.73,1.19,1.19,0,0,1,.23-.76,1.17,1.17,0,0,1,.64-.43l.1.39a.9.9,0,0,0-.48.31.78.78,0,0,0-.15.5,1,1,0,0,0,.16.58.91.91,0,0,0,.45.32,1.91,1.91,0,0,0,.58.1,1.74,1.74,0,0,0,.67-.12.87.87,0,0,0,.43-.34,1,1,0,0,0,.14-.51.84.84,0,0,0-.2-.57A.93.93,0,0,0,152.49,56Z"/><path class="cls-6" d="M152.08,55.2a1.61,1.61,0,0,1-1.17-.4,1.39,1.39,0,0,1-.42-1,1.44,1.44,0,0,1,.19-.75,1.38,1.38,0,0,1,.56-.51,1.79,1.79,0,0,1,.81-.18,1.87,1.87,0,0,1,.82.19,1.24,1.24,0,0,1,.54.52,1.45,1.45,0,0,1,.19.73,1.4,1.4,0,0,1-.21.76,1.32,1.32,0,0,1-.56.51A1.72,1.72,0,0,1,152.08,55.2Zm0-.41a1.2,1.2,0,0,0,.85-.29,1,1,0,0,0,0-1.48,1.29,1.29,0,0,0-.89-.29,1.64,1.64,0,0,0-.65.13.93.93,0,0,0-.42.36,1,1,0,0,0-.15.54,1.05,1.05,0,0,0,.29.73A1.31,1.31,0,0,0,152.09,54.79Z"/><path class="cls-6" d="M153.55,50.58h-3v-.4h3Z"/><path class="cls-6" d="M153.55,49.49h-3V49.1h2.65V47.62h.36Z"/><path class="cls-6" d="M153.55,47.16h-3v-.4h2.65V45.28h.36Z"/><path class="cls-6" d="M153.55,45.14l-3-1.16v-.43l3-1.23v.46l-.91.35v1.25l.91.33Zm-1.24-.87v-1l-.83.31c-.25.1-.46.17-.62.22a3,3,0,0,1,.57.16Z"/><polyline class="cls-5" points="111.79 33.19 129.49 33.19 129.49 10.66 123.76 10.66 123.76 12.95 120.32 12.95 120.32 11.55 115.74 11.55 115.74 12.95 112.05 12.95 112.05 10.66 107.72 10.66 107.72 12.95 88.75 12.95 88.75 16.01 80.48 16.01 80.48 31.16 111.79 31.16 111.79 33.19"/><path class="cls-6" d="M97.74,24.28v-3h2.13v.35H98.13v.92h1.63v.35H98.13v1h1.81v.35Z"/><path class="cls-6" d="M102.85,24.28h-.36V21.93a1.76,1.76,0,0,1-.35.25,1.91,1.91,0,0,1-.38.19V22a2.25,2.25,0,0,0,.53-.36,1.3,1.3,0,0,0,.33-.4h.23Z"/><path class="cls-6" d="M103.78,22.8a2.85,2.85,0,0,1,.11-.86,1.06,1.06,0,0,1,.32-.5.79.79,0,0,1,.53-.18.93.93,0,0,1,.42.1.89.89,0,0,1,.3.28,1.32,1.32,0,0,1,.18.45,3.18,3.18,0,0,1,.07.71,2.78,2.78,0,0,1-.11.85,1.09,1.09,0,0,1-.32.51.85.85,0,0,1-.54.17.8.8,0,0,1-.67-.31A2,2,0,0,1,103.78,22.8Zm.37,0a1.93,1.93,0,0,0,.17,1,.51.51,0,0,0,.42.25.48.48,0,0,0,.42-.25,1.82,1.82,0,0,0,.17-1,1.87,1.87,0,0,0-.17-1,.49.49,0,0,0-.42-.24.46.46,0,0,0-.4.21A2,2,0,0,0,104.15,22.8Z"/><path class="cls-6" d="M108,23.93v.35h-2a.69.69,0,0,1,0-.25,1.29,1.29,0,0,1,.24-.4,3.07,3.07,0,0,1,.48-.46,4.34,4.34,0,0,0,.65-.64.76.76,0,0,0,.17-.44.47.47,0,0,0-.16-.37.54.54,0,0,0-.4-.15.57.57,0,0,0-.42.16.62.62,0,0,0-.16.44l-.37,0a.88.88,0,0,1,.29-.64,1,1,0,0,1,.67-.23.92.92,0,0,1,.67.24.79.79,0,0,1,.25.6.84.84,0,0,1-.07.35,1.45,1.45,0,0,1-.24.37c-.12.13-.3.3-.56.53a3.88,3.88,0,0,0-.42.38,1,1,0,0,0-.16.2Z"/><path class="cls-6" d="M108.2,24.33l.86-3.11h.29l-.86,3.11Z"/><path class="cls-6" d="M111.43,23.93v.35h-2a.7.7,0,0,1,0-.25,1.29,1.29,0,0,1,.24-.4,3,3,0,0,1,.47-.46,3.9,3.9,0,0,0,.65-.64.76.76,0,0,0,.17-.44.5.5,0,0,0-.15-.37.58.58,0,0,0-.41-.15.57.57,0,0,0-.42.16.62.62,0,0,0-.15.44l-.38,0a.92.92,0,0,1,.29-.64,1,1,0,0,1,.67-.23.94.94,0,0,1,.68.24.81.81,0,0,1,.24.6.84.84,0,0,1-.07.35,1.45,1.45,0,0,1-.24.37,6.31,6.31,0,0,1-.56.53,3.88,3.88,0,0,0-.42.38,1,1,0,0,0-.15.2Z"/><path class="cls-6" d="M111.82,22.8a2.57,2.57,0,0,1,.11-.86,1,1,0,0,1,.32-.5.79.79,0,0,1,.53-.18.93.93,0,0,1,.42.1.78.78,0,0,1,.29.28,1.56,1.56,0,0,1,.19.45,3.28,3.28,0,0,1,.06.71,2.82,2.82,0,0,1-.1.85,1.09,1.09,0,0,1-.32.51.85.85,0,0,1-.54.17.8.8,0,0,1-.67-.31A2,2,0,0,1,111.82,22.8Zm.37,0a1.93,1.93,0,0,0,.17,1,.48.48,0,0,0,.84,0,1.93,1.93,0,0,0,.17-1,2,2,0,0,0-.17-1,.49.49,0,0,0-.42-.24.46.46,0,0,0-.4.21A1.93,1.93,0,0,0,112.19,22.8Z"/><path class="cls-6" d="M116,23.93v.35h-2a.53.53,0,0,1,0-.25,1.29,1.29,0,0,1,.24-.4,3.45,3.45,0,0,1,.47-.46,4.54,4.54,0,0,0,.66-.64.75.75,0,0,0,.16-.44.5.5,0,0,0-.15-.37.55.55,0,0,0-.4-.15.54.54,0,0,0-.42.16.58.58,0,0,0-.16.44l-.37,0a.91.91,0,0,1,.28-.64,1,1,0,0,1,.68-.23.93.93,0,0,1,.67.24.82.82,0,0,1,.25.6,1,1,0,0,1-.07.35,1.27,1.27,0,0,1-.25.37,5.14,5.14,0,0,1-.56.53,4.6,4.6,0,0,0-.41.38.74.74,0,0,0-.16.2Z"/><path class="cls-6" d="M97.88,107.41l-.8-3h.41l.45,2c0,.21.1.41.13.62.08-.33.12-.51.14-.56l.57-2h.48l.43,1.52a6.65,6.65,0,0,1,.23,1.07q.06-.28.15-.66l.48-1.93h.39l-.82,3h-.38l-.64-2.29c0-.2-.08-.31-.09-.36q0,.21-.09.36l-.64,2.29Z"/><path class="cls-6" d="M103.72,107.41h-.37v-2.36a1.51,1.51,0,0,1-.35.26,2.68,2.68,0,0,1-.38.19v-.36a2.5,2.5,0,0,0,.54-.35,1.62,1.62,0,0,0,.33-.4h.23Z"/><path class="cls-6" d="M104.67,105.92a2.78,2.78,0,0,1,.11-.85,1.09,1.09,0,0,1,.32-.51.9.9,0,0,1,.55-.17.93.93,0,0,1,.42.09.78.78,0,0,1,.31.29,1.62,1.62,0,0,1,.18.44,2.73,2.73,0,0,1,.07.71,2.85,2.85,0,0,1-.11.86,1.11,1.11,0,0,1-.32.5.85.85,0,0,1-.55.18.83.83,0,0,1-.68-.31A2,2,0,0,1,104.67,105.92Zm.38,0a2,2,0,0,0,.17,1,.51.51,0,0,0,.86,0,2,2,0,0,0,.17-1,1.93,1.93,0,0,0-.17-1,.51.51,0,0,0-.44-.25.46.46,0,0,0-.4.22A1.86,1.86,0,0,0,105.05,105.92Z"/><path class="cls-6" d="M108.92,105.14l-.37,0a.64.64,0,0,0-.14-.31.46.46,0,0,0-.36-.16.51.51,0,0,0-.32.1.89.89,0,0,0-.27.37,1.82,1.82,0,0,0-.1.7.79.79,0,0,1,.32-.31,1,1,0,0,1,.41-.09.83.83,0,0,1,.62.27.94.94,0,0,1,.26.7,1.21,1.21,0,0,1-.12.53.91.91,0,0,1-.33.37,1,1,0,0,1-.49.13,1,1,0,0,1-.75-.34A1.75,1.75,0,0,1,107,106a2.06,2.06,0,0,1,.32-1.27.93.93,0,0,1,.76-.34.8.8,0,0,1,.85.75Zm-1.51,1.29a1,1,0,0,0,.08.37.65.65,0,0,0,.23.26.59.59,0,0,0,.31.09.51.51,0,0,0,.4-.19.73.73,0,0,0,.17-.51.69.69,0,0,0-.17-.49.54.54,0,0,0-.42-.18.56.56,0,0,0-.42.18A.64.64,0,0,0,107.41,106.43Z"/><path class="cls-6" d="M109.17,107.46l.87-3.11h.29l-.87,3.11Z"/><path class="cls-6" d="M112.45,107.05v.36h-2a.75.75,0,0,1,0-.26,1.33,1.33,0,0,1,.25-.4,4.39,4.39,0,0,1,.48-.46,3.71,3.71,0,0,0,.66-.63.75.75,0,0,0,.17-.45.51.51,0,0,0-.15-.37.58.58,0,0,0-.41-.15.61.61,0,0,0-.43.16.65.65,0,0,0-.16.45l-.38,0a.94.94,0,0,1,.29-.65,1,1,0,0,1,.69-.22.94.94,0,0,1,.68.24.78.78,0,0,1,.25.59.92.92,0,0,1-.07.36,1.41,1.41,0,0,1-.24.36,6.7,6.7,0,0,1-.57.53,4.5,4.5,0,0,0-.43.38,1.4,1.4,0,0,0-.16.2Z"/><path class="cls-6" d="M112.84,105.92a2.78,2.78,0,0,1,.11-.85,1.19,1.19,0,0,1,.33-.51.87.87,0,0,1,.54-.17.94.94,0,0,1,.43.09.83.83,0,0,1,.3.29,1.62,1.62,0,0,1,.19.44,3.25,3.25,0,0,1,.07.71,2.85,2.85,0,0,1-.11.86,1.13,1.13,0,0,1-.33.5.83.83,0,0,1-.55.18.85.85,0,0,1-.68-.31A2,2,0,0,1,112.84,105.92Zm.38,0a1.85,1.85,0,0,0,.18,1,.49.49,0,0,0,.42.24.51.51,0,0,0,.43-.24,1.85,1.85,0,0,0,.18-1,1.8,1.8,0,0,0-.18-1,.5.5,0,0,0-.43-.25.48.48,0,0,0-.41.22A2,2,0,0,0,113.22,105.92Z"/><path class="cls-6" d="M117.1,105.14l-.37,0a.64.64,0,0,0-.14-.31.47.47,0,0,0-.37-.16.48.48,0,0,0-.31.1.75.75,0,0,0-.27.37,1.79,1.79,0,0,0-.11.7.89.89,0,0,1,.33-.31.9.9,0,0,1,.4-.09.83.83,0,0,1,.63.27,1,1,0,0,1,.26.7,1.21,1.21,0,0,1-.12.53.94.94,0,0,1-.34.37,1,1,0,0,1-.48.13,1,1,0,0,1-.76-.34,1.75,1.75,0,0,1-.29-1.12,2,2,0,0,1,.33-1.27.91.91,0,0,1,.75-.34.8.8,0,0,1,.58.2A.84.84,0,0,1,117.1,105.14Zm-1.51,1.29a.8.8,0,0,0,.08.37.58.58,0,0,0,.23.26.53.53,0,0,0,.3.09.5.5,0,0,0,.4-.19.69.69,0,0,0,.17-.51.65.65,0,0,0-.17-.49.54.54,0,0,0-.41-.18.58.58,0,0,0-.43.18A.68.68,0,0,0,115.59,106.43Z"/><line class="cls-5" x1="112.05" y1="10.66" x2="123.76" y2="10.66"/><polyline class="cls-5" points="112.56 11.43 112.05 11.3 123.76 11.3"/><line class="cls-5" x1="112.81" y1="11.55" x2="113.32" y2="11.81"/><line class="cls-5" x1="113.58" y1="11.93" x2="114.08" y2="12.19"/><line class="cls-5" x1="114.47" y1="12.32" x2="114.98" y2="12.57"/><line class="cls-5" x1="115.23" y1="12.7" x2="115.74" y2="12.95"/><line class="cls-5" x1="112.05" y1="12.95" x2="112.56" y2="12.7"/><line class="cls-5" x1="112.81" y1="12.57" x2="113.32" y2="12.32"/><line class="cls-5" x1="113.58" y1="12.19" x2="114.08" y2="11.93"/><line class="cls-5" x1="114.47" y1="11.81" x2="114.98" y2="11.55"/><line class="cls-5" x1="115.23" y1="11.43" x2="115.74" y2="11.3"/><line class="cls-5" x1="120.32" y1="11.3" x2="120.7" y2="11.43"/><line class="cls-5" x1="120.96" y1="11.55" x2="121.47" y2="11.81"/><line class="cls-5" x1="121.72" y1="11.93" x2="122.36" y2="12.19"/><line class="cls-5" x1="122.61" y1="12.32" x2="123.12" y2="12.57"/><line class="cls-5" x1="123.38" y1="12.7" x2="123.76" y2="12.95"/><line class="cls-5" x1="120.32" y1="12.95" x2="120.7" y2="12.7"/><line class="cls-5" x1="120.96" y1="12.57" x2="121.47" y2="12.32"/><line class="cls-5" x1="121.72" y1="12.19" x2="122.36" y2="11.93"/><line class="cls-5" x1="122.61" y1="11.81" x2="123.12" y2="11.55"/><line class="cls-5" x1="123.38" y1="11.43" x2="123.76" y2="11.3"/><line class="cls-5" x1="112.05" y1="55.47" x2="123.76" y2="55.47"/><polyline class="cls-5" points="112.56 54.71 112.05 54.96 123.76 54.96"/><line class="cls-5" x1="112.81" y1="54.58" x2="113.32" y2="54.32"/><line class="cls-5" x1="113.58" y1="54.2" x2="114.08" y2="53.94"/><line class="cls-5" x1="114.47" y1="53.82" x2="114.98" y2="53.56"/><line class="cls-5" x1="115.23" y1="53.43" x2="115.74" y2="53.18"/><line class="cls-5" x1="112.05" y1="53.18" x2="112.56" y2="53.43"/><line class="cls-5" x1="112.81" y1="53.56" x2="113.32" y2="53.82"/><line class="cls-5" x1="113.58" y1="53.94" x2="114.08" y2="54.2"/><line class="cls-5" x1="114.47" y1="54.32" x2="114.98" y2="54.58"/><line class="cls-5" x1="115.23" y1="54.71" x2="115.74" y2="54.96"/><line class="cls-5" x1="120.32" y1="54.96" x2="120.7" y2="54.71"/><line class="cls-5" x1="120.96" y1="54.58" x2="121.47" y2="54.32"/><line class="cls-5" x1="121.72" y1="54.2" x2="122.36" y2="53.94"/><line class="cls-5" x1="122.61" y1="53.82" x2="123.12" y2="53.56"/><line class="cls-5" x1="123.38" y1="53.43" x2="123.76" y2="53.18"/><line class="cls-5" x1="120.32" y1="53.18" x2="120.7" y2="53.43"/><line class="cls-5" x1="120.96" y1="53.56" x2="121.47" y2="53.82"/><line class="cls-5" x1="121.72" y1="53.94" x2="122.36" y2="54.2"/><line class="cls-5" x1="122.61" y1="54.32" x2="123.12" y2="54.58"/><line class="cls-5" x1="123.38" y1="54.71" x2="123.76" y2="54.96"/><polyline class="cls-5" points="88.24 75.45 107.72 75.45 107.72 73.29 112.05 73.29 112.05 75.45 115.74 75.45 115.74 74.18 120.32 74.18 120.32 75.45 123.76 75.45 123.76 73.29 129.49 73.29 129.49 95.57 111.79 95.57 111.79 93.66 88.24 93.66 88.24 75.45"/><polyline class="cls-5" points="111.79 95.57 129.49 95.57 129.49 117.97 123.76 117.97 123.76 115.81 120.32 115.81 120.32 117.08 115.74 117.08 115.74 115.81 112.05 115.81 112.05 117.97 107.72 117.97 107.72 115.81 88.75 115.81 88.75 112.63 80.48 112.63 80.48 97.48 111.79 97.48 111.79 95.57"/><line class="cls-5" x1="112.05" y1="117.97" x2="123.76" y2="117.97"/><polyline class="cls-5" points="112.56 117.21 112.05 117.46 123.76 117.46"/><line class="cls-5" x1="112.81" y1="117.08" x2="113.32" y2="116.83"/><line class="cls-5" x1="113.58" y1="116.7" x2="114.08" y2="116.44"/><line class="cls-5" x1="114.47" y1="116.32" x2="114.98" y2="116.06"/><line class="cls-5" x1="115.23" y1="115.94" x2="115.74" y2="115.81"/><line class="cls-5" x1="112.05" y1="115.81" x2="112.56" y2="115.93"/><line class="cls-5" x1="112.81" y1="116.06" x2="113.32" y2="116.32"/><line class="cls-5" x1="113.58" y1="116.44" x2="114.08" y2="116.7"/><line class="cls-5" x1="114.47" y1="116.83" x2="114.98" y2="117.08"/><line class="cls-5" x1="115.23" y1="117.21" x2="115.74" y2="117.46"/><line class="cls-5" x1="120.32" y1="117.46" x2="120.7" y2="117.21"/><line class="cls-5" x1="120.96" y1="117.08" x2="121.47" y2="116.83"/><line class="cls-5" x1="121.72" y1="116.7" x2="122.36" y2="116.44"/><line class="cls-5" x1="122.61" y1="116.32" x2="123.12" y2="116.06"/><line class="cls-5" x1="123.38" y1="115.94" x2="123.76" y2="115.81"/><line class="cls-5" x1="120.32" y1="115.81" x2="120.7" y2="115.93"/><line class="cls-5" x1="120.96" y1="116.06" x2="121.47" y2="116.32"/><line class="cls-5" x1="121.72" y1="116.44" x2="122.36" y2="116.7"/><line class="cls-5" x1="122.61" y1="116.83" x2="123.12" y2="117.08"/><line class="cls-5" x1="123.38" y1="117.21" x2="123.76" y2="117.46"/><line class="cls-5" x1="112.05" y1="73.29" x2="123.76" y2="73.29"/><polyline class="cls-5" points="112.56 74.06 112.05 73.8 123.76 73.8"/><line class="cls-5" x1="112.81" y1="74.18" x2="113.32" y2="74.44"/><line class="cls-5" x1="113.58" y1="74.56" x2="114.08" y2="74.82"/><line class="cls-5" x1="114.47" y1="74.95" x2="114.98" y2="75.2"/><line class="cls-5" x1="115.23" y1="75.33" x2="115.74" y2="75.45"/><line class="cls-5" x1="112.05" y1="75.46" x2="112.56" y2="75.33"/><line class="cls-5" x1="112.81" y1="75.2" x2="113.32" y2="74.95"/><line class="cls-5" x1="113.58" y1="74.82" x2="114.08" y2="74.56"/><line class="cls-5" x1="114.47" y1="74.44" x2="114.98" y2="74.18"/><line class="cls-5" x1="115.23" y1="74.05" x2="115.74" y2="73.8"/><line class="cls-5" x1="120.32" y1="73.8" x2="120.7" y2="73.93"/><line class="cls-5" x1="120.96" y1="74.05" x2="121.47" y2="74.44"/><line class="cls-5" x1="121.72" y1="74.56" x2="122.36" y2="74.82"/><line class="cls-5" x1="122.61" y1="74.95" x2="123.12" y2="75.2"/><line class="cls-5" x1="123.38" y1="75.33" x2="123.76" y2="75.45"/><line class="cls-5" x1="120.32" y1="75.46" x2="120.7" y2="75.33"/><line class="cls-5" x1="120.96" y1="75.2" x2="121.47" y2="74.95"/><line class="cls-5" x1="121.72" y1="74.82" x2="122.36" y2="74.56"/><line class="cls-5" x1="122.61" y1="74.44" x2="123.12" y2="74.05"/><line class="cls-5" x1="123.38" y1="73.93" x2="123.76" y2="73.8"/></g></svg>