<?xml version="1.0" encoding="utf-8"?>
<!-- Generator: Adobe Illustrator 24.0.2, SVG Export Plug-In . SVG Version: 6.00 Build 0)  -->
<svg version="1.1" id="Capa_1" xmlns="http://www.w3.org/2000/svg" xmlns:xlink="http://www.w3.org/1999/xlink" x="0px" y="0px"
	 viewBox="0 0 155.3 110.2" style="enable-background:new 0 0 155.3 110.2;" xml:space="preserve">
<style type="text/css">
	.st0{fill:#EBEBEB;}
	.st1{fill:none;}
	.st2{fill:none;stroke:#63666B;stroke-width:0.24;stroke-linecap:round;stroke-miterlimit:10;}
	.st3{fill:#63666B;}
	.st4{font-family:'ArialMT';}
	.st5{font-size:3.96px;}
</style>
<title>LAQ-E107-Minimap</title>
<path class="st0" d="M115.4,68l5.4,2h-5.4V68z M120.8,68h-5.4l5.4,2V68z"/>
<path class="st1" d="M115.4,68l5.4,2h-5.4V68z M120.8,68h-5.4l5.4,2V68z"/>
<path class="st0" d="M107.8,68.8l4.3,1.2h-4.3V68.8z M112.1,68.8h-4.3l4.3,1.2V68.8z"/>
<path class="st1" d="M107.8,68.8l4.3,1.2h-4.3V68.8z M112.1,68.8h-4.3l4.3,1.2V68.8z"/>
<path class="st0" d="M100.2,68l4.1,2h-4.1V68z M104.3,68h-4.1l4.1,2V68z"/>
<path class="st1" d="M100.2,68l4.1,2h-4.1V68z M104.3,68h-4.1l4.1,2V68z"/>
<path class="st0" d="M81.9,70l38.8,17.2H81.9V70z M120.7,70H81.9l38.8,17.2V70z"/>
<path class="st1" d="M81.9,70l38.8,17.2H81.9V70z M120.7,70H81.9l38.8,17.2V70z"/>
<path class="st0" d="M104.1,87.2l16.6,1.8h-16.6V87.2z M120.8,87.2h-16.7l16.6,1.8L120.8,87.2z"/>
<path class="st1" d="M104.1,87.2l16.6,1.8h-16.6V87.2z M120.8,87.2h-16.7l16.6,1.8L120.8,87.2z"/>
<polyline class="st2" points="74.6,14 65.6,14 65.6,11.1 34,11.1 34,9.9 29.7,9.9 29.7,11.1 26,11.1 26,23.8 20,23.8 20,43.4 
	21,43.4 21,45.6 39.4,45.6 39.4,40.3 39.5,40.3 39.5,28.3 74.6,28.3 74.6,14 "/>
<polyline class="st2" points="39.4,40.3 53.1,40.3 53.1,49.6 55.1,49.6 55.1,58.6 53.1,58.6 53.1,66 55.1,66 55.1,70.8 53.1,70.8 
	53.1,78.9 43.6,78.9 43.6,83.4 39.4,83.4 39.4,73.6 22.4,73.6 22.4,48.1 21,48.1 21,45.6 39.4,45.6 39.4,40.3 "/>
<polyline class="st2" points="74.6,105.2 65.6,105.2 65.6,108.1 34,108.1 34,109.3 29.7,109.3 29.7,108.1 26,108.1 26,95.2 20,95.2 
	20,75.7 21,75.7 21,73.6 39.4,73.6 39.4,78.9 39.5,78.9 39.5,90.8 74.6,90.8 74.6,105.2 "/>
<polyline class="st2" points="81.9,32.5 72.4,32.5 72.4,40.8 61.8,40.8 61.8,32.5 55.6,32.5 55.6,40.8 53.1,40.8 "/>
<line class="st2" x1="55.6" y1="40.3" x2="61.8" y2="40.3"/>
<line class="st2" x1="61.8" y1="40.8" x2="55.6" y2="40.8"/>
<line class="st2" x1="72.4" y1="40.8" x2="81.9" y2="40.8"/>
<line class="st2" x1="81.9" y1="40.3" x2="72.4" y2="40.3"/>
<line class="st2" x1="55.1" y1="40.8" x2="55.1" y2="78.3"/>
<line class="st2" x1="55.6" y1="78.3" x2="55.6" y2="40.8"/>
<polyline class="st2" points="81.9,86.6 72.4,86.6 72.4,78.3 61.8,78.3 61.8,86.6 55.6,86.6 55.6,78.3 53.1,78.3 "/>
<line class="st2" x1="55.6" y1="78.9" x2="61.8" y2="78.9"/>
<line class="st2" x1="61.8" y1="78.3" x2="55.6" y2="78.3"/>
<line class="st2" x1="72.4" y1="78.3" x2="81.9" y2="78.3"/>
<line class="st2" x1="81.9" y1="78.9" x2="72.4" y2="78.9"/>
<line class="st2" x1="55.6" y1="32.5" x2="56" y2="33"/>
<line class="st2" x1="56.2" y1="33.2" x2="56.6" y2="33.7"/>
<line class="st2" x1="56.7" y1="33.8" x2="57" y2="34.3"/>
<line class="st2" x1="57.2" y1="34.5" x2="57.5" y2="35"/>
<line class="st2" x1="57.8" y1="35.2" x2="58.1" y2="35.6"/>
<line class="st2" x1="58.2" y1="35.8" x2="58.6" y2="36.3"/>
<line class="st2" x1="58.8" y1="36.6" x2="59.2" y2="36.9"/>
<line class="st2" x1="59.3" y1="37.2" x2="59.7" y2="37.6"/>
<line class="st2" x1="59.9" y1="37.9" x2="60.2" y2="38.2"/>
<line class="st2" x1="60.4" y1="38.5" x2="60.8" y2="39"/>
<line class="st2" x1="60.9" y1="39.2" x2="61.2" y2="39.6"/>
<line class="st2" x1="61.5" y1="39.8" x2="61.8" y2="40.3"/>
<line class="st2" x1="55.6" y1="40.3" x2="56" y2="39.8"/>
<line class="st2" x1="56.2" y1="39.6" x2="56.6" y2="39.2"/>
<line class="st2" x1="56.7" y1="39" x2="57" y2="38.5"/>
<line class="st2" x1="57.2" y1="38.2" x2="57.5" y2="37.9"/>
<line class="st2" x1="57.8" y1="37.6" x2="58.1" y2="37.2"/>
<line class="st2" x1="58.2" y1="36.9" x2="58.6" y2="36.6"/>
<line class="st2" x1="58.8" y1="36.3" x2="59.2" y2="35.8"/>
<line class="st2" x1="59.3" y1="35.6" x2="59.7" y2="35.2"/>
<line class="st2" x1="59.9" y1="35" x2="60.2" y2="34.5"/>
<line class="st2" x1="60.4" y1="34.3" x2="60.8" y2="33.8"/>
<line class="st2" x1="60.9" y1="33.7" x2="61.2" y2="33.2"/>
<line class="st2" x1="61.5" y1="33" x2="61.8" y2="32.5"/>
<line class="st2" x1="72.4" y1="32.5" x2="72.8" y2="32.8"/>
<line class="st2" x1="73" y1="33" x2="73.5" y2="33.3"/>
<line class="st2" x1="73.6" y1="33.6" x2="74.1" y2="33.9"/>
<line class="st2" x1="74.3" y1="34" x2="74.8" y2="34.4"/>
<line class="st2" x1="74.9" y1="34.6" x2="75.4" y2="35"/>
<line class="st2" x1="75.6" y1="35.1" x2="76.1" y2="35.5"/>
<line class="st2" x1="76.2" y1="35.7" x2="76.7" y2="36.1"/>
<line class="st2" x1="77" y1="36.2" x2="77.4" y2="36.6"/>
<line class="st2" x1="77.6" y1="36.8" x2="78" y2="37.2"/>
<line class="st2" x1="78.3" y1="37.3" x2="78.8" y2="37.6"/>
<line class="st2" x1="78.9" y1="37.9" x2="79.4" y2="38.2"/>
<line class="st2" x1="79.6" y1="38.4" x2="80" y2="38.7"/>
<line class="st2" x1="80.2" y1="39" x2="80.7" y2="39.3"/>
<line class="st2" x1="80.9" y1="39.4" x2="81.3" y2="39.8"/>
<line class="st2" x1="81.5" y1="40" x2="81.9" y2="40.3"/>
<line class="st2" x1="81.9" y1="32.5" x2="81.5" y2="32.8"/>
<line class="st2" x1="81.3" y1="33" x2="80.9" y2="33.3"/>
<line class="st2" x1="80.7" y1="33.6" x2="80.2" y2="33.9"/>
<line class="st2" x1="80" y1="34" x2="79.6" y2="34.4"/>
<line class="st2" x1="79.4" y1="34.6" x2="78.9" y2="35"/>
<line class="st2" x1="78.8" y1="35.1" x2="78.3" y2="35.5"/>
<line class="st2" x1="78" y1="35.7" x2="77.6" y2="36.1"/>
<line class="st2" x1="77.4" y1="36.2" x2="77" y2="36.6"/>
<line class="st2" x1="76.7" y1="36.8" x2="76.2" y2="37.2"/>
<line class="st2" x1="76.1" y1="37.3" x2="75.6" y2="37.6"/>
<line class="st2" x1="75.4" y1="37.9" x2="74.9" y2="38.2"/>
<line class="st2" x1="74.8" y1="38.4" x2="74.3" y2="38.7"/>
<line class="st2" x1="74.1" y1="39" x2="73.6" y2="39.3"/>
<line class="st2" x1="73.5" y1="39.4" x2="73" y2="39.8"/>
<line class="st2" x1="72.8" y1="40" x2="72.4" y2="40.3"/>
<line class="st2" x1="53.1" y1="49.6" x2="55.1" y2="40.8"/>
<line class="st2" x1="53.1" y1="40.8" x2="55.1" y2="49.6"/>
<line class="st2" x1="53.1" y1="58.6" x2="53.3" y2="59.4"/>
<line class="st2" x1="53.4" y1="59.6" x2="53.6" y2="60.2"/>
<line class="st2" x1="53.6" y1="60.4" x2="53.8" y2="60.9"/>
<line class="st2" x1="53.8" y1="61.3" x2="53.9" y2="61.8"/>
<line class="st2" x1="54" y1="62.1" x2="54.2" y2="62.6"/>
<line class="st2" x1="54.3" y1="62.8" x2="54.4" y2="63.4"/>
<line class="st2" x1="54.5" y1="63.7" x2="54.6" y2="64.3"/>
<line class="st2" x1="54.8" y1="64.5" x2="54.9" y2="65.1"/>
<line class="st2" x1="54.9" y1="65.4" x2="55.1" y2="66"/>
<line class="st2" x1="53.1" y1="66" x2="53.3" y2="65.4"/>
<line class="st2" x1="53.4" y1="65.1" x2="53.6" y2="64.5"/>
<line class="st2" x1="53.6" y1="64.3" x2="53.8" y2="63.7"/>
<line class="st2" x1="53.8" y1="63.4" x2="53.9" y2="62.8"/>
<line class="st2" x1="54" y1="62.6" x2="54.2" y2="62.1"/>
<line class="st2" x1="54.3" y1="61.8" x2="54.4" y2="61.3"/>
<line class="st2" x1="54.5" y1="60.9" x2="54.6" y2="60.4"/>
<line class="st2" x1="54.8" y1="60.2" x2="54.9" y2="59.6"/>
<line class="st2" x1="54.9" y1="59.4" x2="55.1" y2="58.6"/>
<line class="st2" x1="55.6" y1="86.6" x2="56" y2="86.2"/>
<line class="st2" x1="56.2" y1="86" x2="56.6" y2="85.5"/>
<line class="st2" x1="56.7" y1="85.3" x2="57" y2="84.9"/>
<line class="st2" x1="57.2" y1="84.7" x2="57.5" y2="84.2"/>
<line class="st2" x1="57.8" y1="84" x2="58.1" y2="83.5"/>
<line class="st2" x1="58.2" y1="83.4" x2="58.6" y2="82.9"/>
<line class="st2" x1="58.8" y1="82.6" x2="59.2" y2="82.2"/>
<line class="st2" x1="59.3" y1="82" x2="59.7" y2="81.6"/>
<line class="st2" x1="59.9" y1="81.3" x2="60.2" y2="80.8"/>
<line class="st2" x1="60.4" y1="80.6" x2="60.8" y2="80.2"/>
<line class="st2" x1="60.9" y1="80" x2="61.2" y2="79.5"/>
<line class="st2" x1="61.5" y1="79.3" x2="61.8" y2="78.9"/>
<line class="st2" x1="55.6" y1="78.9" x2="56" y2="79.3"/>
<line class="st2" x1="56.2" y1="79.5" x2="56.6" y2="80"/>
<line class="st2" x1="56.7" y1="80.2" x2="57" y2="80.6"/>
<line class="st2" x1="57.2" y1="80.8" x2="57.5" y2="81.3"/>
<line class="st2" x1="57.8" y1="81.6" x2="58.1" y2="82"/>
<line class="st2" x1="58.2" y1="82.2" x2="58.6" y2="82.6"/>
<line class="st2" x1="58.8" y1="82.9" x2="59.2" y2="83.4"/>
<line class="st2" x1="59.3" y1="83.5" x2="59.7" y2="84"/>
<line class="st2" x1="59.9" y1="84.2" x2="60.2" y2="84.7"/>
<line class="st2" x1="60.4" y1="84.9" x2="60.8" y2="85.3"/>
<line class="st2" x1="60.9" y1="85.5" x2="61.2" y2="86"/>
<line class="st2" x1="61.5" y1="86.2" x2="61.8" y2="86.6"/>
<line class="st2" x1="72.4" y1="86.6" x2="72.8" y2="86.4"/>
<line class="st2" x1="73" y1="86.1" x2="73.5" y2="85.8"/>
<line class="st2" x1="73.6" y1="85.6" x2="74.1" y2="85.3"/>
<line class="st2" x1="74.3" y1="85" x2="74.8" y2="84.7"/>
<line class="st2" x1="74.9" y1="84.6" x2="75.4" y2="84.2"/>
<line class="st2" x1="75.6" y1="84" x2="76.1" y2="83.6"/>
<line class="st2" x1="76.2" y1="83.5" x2="76.7" y2="83.1"/>
<line class="st2" x1="77" y1="82.9" x2="77.4" y2="82.5"/>
<line class="st2" x1="77.6" y1="82.4" x2="78" y2="82"/>
<line class="st2" x1="78.3" y1="81.8" x2="78.8" y2="81.6"/>
<line class="st2" x1="78.9" y1="81.3" x2="79.4" y2="81"/>
<line class="st2" x1="79.6" y1="80.8" x2="80" y2="80.5"/>
<line class="st2" x1="80.2" y1="80.2" x2="80.7" y2="79.9"/>
<line class="st2" x1="80.9" y1="79.8" x2="81.3" y2="79.4"/>
<line class="st2" x1="81.5" y1="79.2" x2="81.9" y2="78.9"/>
<line class="st2" x1="72.4" y1="78.9" x2="72.8" y2="79.2"/>
<line class="st2" x1="73" y1="79.4" x2="73.5" y2="79.8"/>
<line class="st2" x1="73.6" y1="79.9" x2="74.1" y2="80.2"/>
<line class="st2" x1="74.3" y1="80.5" x2="74.8" y2="80.8"/>
<line class="st2" x1="74.9" y1="81" x2="75.4" y2="81.3"/>
<line class="st2" x1="75.6" y1="81.6" x2="76.1" y2="81.8"/>
<line class="st2" x1="76.2" y1="82" x2="76.7" y2="82.4"/>
<line class="st2" x1="77" y1="82.5" x2="77.4" y2="82.9"/>
<line class="st2" x1="77.6" y1="83.1" x2="78" y2="83.5"/>
<line class="st2" x1="78.3" y1="83.6" x2="78.8" y2="84"/>
<line class="st2" x1="78.9" y1="84.2" x2="79.4" y2="84.6"/>
<line class="st2" x1="79.6" y1="84.7" x2="80" y2="85"/>
<line class="st2" x1="80.2" y1="85.3" x2="80.7" y2="85.6"/>
<line class="st2" x1="80.9" y1="85.8" x2="81.3" y2="86.1"/>
<line class="st2" x1="81.5" y1="86.4" x2="81.9" y2="86.6"/>
<line class="st2" x1="53.1" y1="78.3" x2="53.2" y2="78"/>
<line class="st2" x1="53.3" y1="77.7" x2="53.4" y2="77.1"/>
<line class="st2" x1="53.6" y1="76.9" x2="53.7" y2="76.3"/>
<line class="st2" x1="53.7" y1="76" x2="53.9" y2="75.6"/>
<line class="st2" x1="53.9" y1="75.2" x2="54" y2="74.7"/>
<line class="st2" x1="54.2" y1="74.4" x2="54.3" y2="73.9"/>
<line class="st2" x1="54.4" y1="73.6" x2="54.5" y2="73"/>
<line class="st2" x1="54.6" y1="72.8" x2="54.8" y2="72.2"/>
<line class="st2" x1="54.8" y1="72" x2="54.9" y2="71.4"/>
<line class="st2" x1="55" y1="71.1" x2="55.1" y2="70.8"/>
<line class="st2" x1="53.1" y1="70.8" x2="53.2" y2="71.1"/>
<line class="st2" x1="53.3" y1="71.4" x2="53.4" y2="72"/>
<line class="st2" x1="53.6" y1="72.2" x2="53.7" y2="72.8"/>
<line class="st2" x1="53.7" y1="73" x2="53.9" y2="73.6"/>
<line class="st2" x1="53.9" y1="73.9" x2="54" y2="74.4"/>
<line class="st2" x1="54.2" y1="74.7" x2="54.3" y2="75.2"/>
<line class="st2" x1="54.4" y1="75.6" x2="54.5" y2="76"/>
<line class="st2" x1="54.6" y1="76.3" x2="54.8" y2="76.9"/>
<line class="st2" x1="54.8" y1="77.1" x2="54.9" y2="77.7"/>
<line class="st2" x1="55" y1="78" x2="55.1" y2="78.3"/>
<text transform="matrix(1 0 0 1 39.7585 22.76)" class="st3 st4 st5">103/203</text>
<path class="st3" d="M145.7,11.4L143.9,0h0.4L145.7,11.4z M145.5,11.5l0.2-0.1L143.9,0L145.5,11.5z"/>
<path class="st1" d="M145.7,11.4L143.9,0h0.4L145.7,11.4z M145.5,11.5l0.2-0.1L143.9,0L145.5,11.5z"/>
<line class="st2" x1="146.9" y1="21.7" x2="145.6" y2="11.4"/>
<path class="st3" d="M146.4,11.4l-1.2-6.6h0.4L146.4,11.4z M146.1,11.4h0.4l-1.2-6.6L146.1,11.4z"/>
<path class="st1" d="M146.4,11.4l-1.2-6.6h0.4L146.4,11.4z M146.1,11.4h0.4l-1.2-6.6L146.1,11.4z"/>
<path class="st3" d="M145.1,11.5L143.9,5h0.4L145.1,11.5z M144.8,11.5h0.4L143.9,5L144.8,11.5z"/>
<path class="st1" d="M145.1,11.5L143.9,5h0.4L145.1,11.5z M144.8,11.5h0.4L143.9,5L144.8,11.5z"/>
<line class="st2" x1="146.7" y1="21.8" x2="146.4" y2="20.5"/>
<line class="st2" x1="137.8" y1="12.8" x2="136.1" y2="13"/>
<line class="st2" x1="155.2" y1="10.5" x2="153.4" y2="10.8"/>
<line class="st2" x1="155.2" y1="10.2" x2="136" y2="12.7"/>
<path class="st2" d="M152.6,10.4c-0.5-3.9-4.1-6.7-8-6.2c-3.9,0.5-6.7,4.1-6.2,8c0.5,3.9,4.1,6.7,8,6.2c0,0,0,0,0,0
	C150.4,17.9,153.1,14.3,152.6,10.4C152.6,10.4,152.6,10.4,152.6,10.4"/>
<path class="st2" d="M152.1,10.4c-0.5-3.6-3.8-6.2-7.5-5.7c-3.6,0.5-6.2,3.8-5.7,7.5c0.5,3.6,3.8,6.2,7.5,5.7
	C150.1,17.4,152.6,14.1,152.1,10.4C152.1,10.4,152.1,10.4,152.1,10.4"/>
<text transform="matrix(1 0 0 1 90.5185 42.56)" class="st3 st4 st5">101/201</text>
<text transform="matrix(1 0 0 1 90.1585 79.52)" class="st3 st4 st5">107/207</text>
<text transform="matrix(1 0 0 1 28.3585 61.28)" class="st3 st4 st5">104/204</text>
<text transform="matrix(1 0 0 1 39.7585 99.32)" class="st3 st4 st5">105/205</text>
<text transform="matrix(6.123234e-17 -1 1 6.123234e-17 3.3985 63.4396)" class="st3 st4 st5">LAGO</text>
<text transform="matrix(6.123234e-17 -1 1 6.123234e-17 143.4385 84.7999)" class="st3 st4 st5">Av. JOAQUIN SECO ILLA</text>
<text transform="matrix(1 0 0 1 90.2785 21.8)" class="st3 st4 st5">102/202</text>
<text transform="matrix(1 0 0 1 90.1585 100.16)" class="st3 st4 st5">106/206</text>
<polyline class="st2" points="81.9,49 100.2,49 100.2,51.2 104.3,51.2 104.3,49 107.8,49 107.8,50.4 112.1,50.4 112.1,49 115.4,49 
	115.4,51.2 120.8,51.2 120.8,30.2 104.1,30.2 104.1,32 81.9,32 81.9,49 "/>
<polyline class="st2" points="104.1,30.2 120.8,30.2 120.8,9 115.4,9 115.4,11.1 112.1,11.1 112.1,9.9 107.8,9.9 107.8,11.1 
	104.3,11.1 104.3,9 100.2,9 100.2,11.1 82.4,11.1 82.4,14 74.6,14 74.6,28.3 104.1,28.3 104.1,30.2 "/>
<line class="st2" x1="104.3" y1="9" x2="115.4" y2="9"/>
<polyline class="st2" points="104.8,9.7 104.3,9.6 115.4,9.6 "/>
<line class="st2" x1="105" y1="9.8" x2="105.5" y2="10"/>
<line class="st2" x1="105.8" y1="10.2" x2="106.2" y2="10.4"/>
<line class="st2" x1="106.6" y1="10.5" x2="107.1" y2="10.8"/>
<line class="st2" x1="107.3" y1="10.9" x2="107.8" y2="11.1"/>
<line class="st2" x1="104.3" y1="11.1" x2="104.8" y2="10.9"/>
<line class="st2" x1="105" y1="10.8" x2="105.5" y2="10.5"/>
<line class="st2" x1="105.8" y1="10.4" x2="106.2" y2="10.2"/>
<line class="st2" x1="106.6" y1="10" x2="107.1" y2="9.8"/>
<line class="st2" x1="107.3" y1="9.7" x2="107.8" y2="9.6"/>
<line class="st2" x1="112.1" y1="9.6" x2="112.5" y2="9.7"/>
<line class="st2" x1="112.7" y1="9.8" x2="113.2" y2="10"/>
<line class="st2" x1="113.4" y1="10.2" x2="114" y2="10.4"/>
<line class="st2" x1="114.3" y1="10.5" x2="114.8" y2="10.8"/>
<line class="st2" x1="115" y1="11" x2="115.4" y2="11.1"/>
<line class="st2" x1="112.1" y1="11.1" x2="112.5" y2="11"/>
<line class="st2" x1="112.7" y1="10.8" x2="113.2" y2="10.5"/>
<line class="st2" x1="113.4" y1="10.4" x2="114" y2="10.2"/>
<line class="st2" x1="114.3" y1="10" x2="114.8" y2="9.8"/>
<line class="st2" x1="115" y1="9.7" x2="115.4" y2="9.6"/>
<line class="st2" x1="104.3" y1="51.2" x2="115.4" y2="51.2"/>
<polyline class="st2" points="104.8,50.5 104.3,50.7 115.4,50.7 "/>
<line class="st2" x1="105" y1="50.4" x2="105.5" y2="50.1"/>
<line class="st2" x1="105.8" y1="50" x2="106.2" y2="49.8"/>
<line class="st2" x1="106.6" y1="49.6" x2="107.1" y2="49.4"/>
<line class="st2" x1="107.3" y1="49.3" x2="107.8" y2="49"/>
<line class="st2" x1="104.3" y1="49" x2="104.8" y2="49.3"/>
<line class="st2" x1="105" y1="49.4" x2="105.5" y2="49.6"/>
<line class="st2" x1="105.8" y1="49.8" x2="106.2" y2="50"/>
<line class="st2" x1="106.6" y1="50.1" x2="107.1" y2="50.4"/>
<line class="st2" x1="107.3" y1="50.5" x2="107.8" y2="50.7"/>
<line class="st2" x1="112.1" y1="50.7" x2="112.5" y2="50.5"/>
<line class="st2" x1="112.7" y1="50.4" x2="113.2" y2="50.1"/>
<line class="st2" x1="113.4" y1="50" x2="114" y2="49.8"/>
<line class="st2" x1="114.3" y1="49.6" x2="114.8" y2="49.4"/>
<line class="st2" x1="115" y1="49.3" x2="115.4" y2="49"/>
<line class="st2" x1="112.1" y1="49" x2="112.5" y2="49.3"/>
<line class="st2" x1="112.7" y1="49.4" x2="113.2" y2="49.6"/>
<line class="st2" x1="113.4" y1="49.8" x2="114" y2="50"/>
<line class="st2" x1="114.3" y1="50.1" x2="114.8" y2="50.4"/>
<line class="st2" x1="115" y1="50.5" x2="115.4" y2="50.7"/>
<polyline class="st2" points="81.9,70 100.2,70 100.2,68 104.3,68 104.3,70 107.8,70 107.8,68.8 112.1,68.8 112.1,70 115.4,70 
	115.4,68 120.8,68 120.8,89 104.1,89 104.1,87.2 81.9,87.2 81.9,70 "/>
<polyline class="st2" points="104.1,89 120.8,89 120.8,110.1 115.4,110.1 115.4,108.1 112.1,108.1 112.1,109.3 107.8,109.3 
	107.8,108.1 104.3,108.1 104.3,110.1 100.2,110.1 100.2,108.1 82.4,108.1 82.4,105.2 74.6,105.2 74.6,90.8 104.1,90.8 104.1,89 "/>
<line class="st2" x1="104.3" y1="110.1" x2="115.4" y2="110.1"/>
<polyline class="st2" points="104.8,109.4 104.3,109.6 115.4,109.6 "/>
<line class="st2" x1="105" y1="109.3" x2="105.5" y2="109"/>
<line class="st2" x1="105.8" y1="108.9" x2="106.2" y2="108.7"/>
<line class="st2" x1="106.6" y1="108.6" x2="107.1" y2="108.3"/>
<line class="st2" x1="107.3" y1="108.2" x2="107.8" y2="108.1"/>
<line class="st2" x1="104.3" y1="108.1" x2="104.8" y2="108.2"/>
<line class="st2" x1="105" y1="108.3" x2="105.5" y2="108.6"/>
<line class="st2" x1="105.8" y1="108.7" x2="106.2" y2="108.9"/>
<line class="st2" x1="106.6" y1="109" x2="107.1" y2="109.3"/>
<line class="st2" x1="107.3" y1="109.4" x2="107.8" y2="109.6"/>
<line class="st2" x1="112.1" y1="109.6" x2="112.5" y2="109.5"/>
<line class="st2" x1="112.7" y1="109.3" x2="113.2" y2="109"/>
<line class="st2" x1="113.4" y1="108.9" x2="114" y2="108.7"/>
<line class="st2" x1="114.3" y1="108.6" x2="114.8" y2="108.3"/>
<line class="st2" x1="115" y1="108.2" x2="115.4" y2="108.1"/>
<line class="st2" x1="112.1" y1="108.1" x2="112.5" y2="108.2"/>
<line class="st2" x1="112.7" y1="108.3" x2="113.2" y2="108.6"/>
<line class="st2" x1="113.4" y1="108.7" x2="114" y2="108.9"/>
<line class="st2" x1="114.3" y1="109" x2="114.8" y2="109.3"/>
<line class="st2" x1="115" y1="109.5" x2="115.4" y2="109.6"/>
<line class="st2" x1="104.3" y1="68" x2="115.4" y2="68"/>
<polyline class="st2" points="104.8,68.7 104.3,68.5 115.4,68.5 "/>
<line class="st2" x1="105" y1="68.8" x2="105.5" y2="69.1"/>
<line class="st2" x1="105.8" y1="69.2" x2="106.2" y2="69.4"/>
<line class="st2" x1="106.6" y1="69.6" x2="107.1" y2="69.8"/>
<line class="st2" x1="107.3" y1="69.9" x2="107.8" y2="70"/>
<line class="st2" x1="104.3" y1="70" x2="104.8" y2="69.9"/>
<line class="st2" x1="105" y1="69.8" x2="105.5" y2="69.6"/>
<line class="st2" x1="105.8" y1="69.4" x2="106.2" y2="69.2"/>
<line class="st2" x1="106.6" y1="69.1" x2="107.1" y2="68.8"/>
<line class="st2" x1="107.3" y1="68.7" x2="107.8" y2="68.5"/>
<line class="st2" x1="112.1" y1="68.5" x2="112.5" y2="68.6"/>
<line class="st2" x1="112.7" y1="68.8" x2="113.2" y2="69.1"/>
<line class="st2" x1="113.4" y1="69.2" x2="114" y2="69.4"/>
<line class="st2" x1="114.3" y1="69.6" x2="114.8" y2="69.8"/>
<line class="st2" x1="115" y1="69.9" x2="115.4" y2="70"/>
<line class="st2" x1="112.1" y1="70" x2="112.5" y2="69.9"/>
<line class="st2" x1="112.7" y1="69.8" x2="113.2" y2="69.6"/>
<line class="st2" x1="113.4" y1="69.4" x2="114" y2="69.2"/>
<line class="st2" x1="114.3" y1="69.1" x2="114.8" y2="68.8"/>
<line class="st2" x1="115" y1="68.6" x2="115.4" y2="68.5"/>
</svg>
