<svg id="Capa_1" data-name="Capa 1" xmlns="http://www.w3.org/2000/svg" xmlns:xlink="http://www.w3.org/1999/xlink" viewBox="0 0 168.12 120.34"><defs><style>.cls-1,.cls-11,.cls-5,.cls-8,.cls-9{fill:none;}.cls-2{clip-path:url(#clip-path);}.cls-3{clip-path:url(#clip-path-3);}.cls-4{clip-path:url(#clip-path-4);}.cls-5{stroke:#a28d5a;stroke-width:0.26px;}.cls-11,.cls-5,.cls-9{stroke-linecap:round;}.cls-11,.cls-5,.cls-8,.cls-9{stroke-miterlimit:10;}.cls-6{clip-path:url(#clip-path-5);}.cls-7{fill:#ebebeb;}.cls-8{stroke:#ebebeb;}.cls-11,.cls-8{stroke-width:0;}.cls-11,.cls-9{stroke:#63666b;}.cls-9{stroke-width:0.25px;}.cls-10{fill:#63666b;}.cls-12{clip-path:url(#clip-path-7);}</style><clipPath id="clip-path"><rect class="cls-1" x="-1403.13" y="-530.5" width="1190.55" height="841.89"/></clipPath><clipPath id="clip-path-3"><rect class="cls-1" x="-529.52" y="-0.13" width="245.69" height="240.94"/></clipPath><clipPath id="clip-path-4"><polygon class="cls-1" points="173.75 -255.23 173.75 -238.73 -300 -238.73 -300 -177.22 -308.18 -177.22 -308.18 -2.85 -19.5 -2.84 -19.5 17.48 42.14 17.22 42.14 22.1 252.29 22.1 252.29 -169.16 313.01 -169.16 313.01 -255.23 173.75 -255.23"/></clipPath><clipPath id="clip-path-5"><rect class="cls-1" x="-70.85" y="-530.5" width="1190.55" height="841.89"/></clipPath><clipPath id="clip-path-7"><rect class="cls-1" x="0.02" y="0.04" width="168.43" height="120.3"/></clipPath></defs><title>E203S</title><g class="cls-2"><g class="cls-2"><g class="cls-3"><g class="cls-4"><path class="cls-5" d="M129.59,43.75a1.51,1.51,0,0,0-1.51,1.44"/><path class="cls-5" d="M140.61,45.19a1.51,1.51,0,0,0-1.51-1.44"/><path class="cls-5" d="M107.68,43.75a1.51,1.51,0,0,0-1.51,1.44"/><path class="cls-5" d="M118.7,45.19a1.51,1.51,0,0,0-1.51-1.44"/><path class="cls-5" d="M127.81,41.57a.6.6,0,0,0,.27.5.58.58,0,0,0,.56,0"/><path class="cls-5" d="M140.06,42.12a.57.57,0,0,0,.55,0,.6.6,0,0,0,.27-.5"/><path class="cls-5" d="M106,41.57a.6.6,0,0,0,.27.5.58.58,0,0,0,.56,0"/><path class="cls-5" d="M118.14,42.12a.58.58,0,0,0,.56,0,.6.6,0,0,0,.27-.5"/><path class="cls-5" d="M85.9,43.75a1.51,1.51,0,0,0-1.51,1.44"/><path class="cls-5" d="M96.92,45.19a1.51,1.51,0,0,0-1.51-1.44"/><path class="cls-5" d="M84.12,41.57a.61.61,0,0,0,.26.5.59.59,0,0,0,.56,0"/><path class="cls-5" d="M96.36,42.12a.58.58,0,0,0,.56,0,.6.6,0,0,0,.27-.5"/></g></g></g></g><g class="cls-6"><g class="cls-6"><path class="cls-7" d="M33,11.59,37.54,13H33Zm4.58,0H33L37.54,13Z"/><path class="cls-8" d="M33,11.59,37.54,13H33Zm4.58,0H33L37.54,13Z"/><path class="cls-7" d="M29,13l42,3H29Zm42,0H29l42,3Z"/><path class="cls-8" d="M29,13l42,3H29Zm42,0H29l42,3Z"/><path class="cls-7" d="M29,16,80.57,26.48H29Zm51.56,0H29L80.57,26.48Z"/><path class="cls-8" d="M29,16,80.57,26.48H29Zm51.56,0H29L80.57,26.48Z"/><path class="cls-7" d="M22.65,26.48l57.92,4.71H22.65Zm57.92,0H22.65l57.92,4.71Z"/><path class="cls-8" d="M22.65,26.48l57.92,4.71H22.65Zm57.92,0H22.65l57.92,4.71Z"/><path class="cls-7" d="M22.65,31.19,43.4,43.92H22.65Zm20.75,0H22.65L43.4,43.92Z"/><path class="cls-8" d="M22.65,31.19,43.4,43.92H22.65Zm20.75,0H22.65L43.4,43.92Z"/><path class="cls-7" d="M22.65,43.92l20.62,3.31H22.65Zm20.62,0H22.65l20.62,3.31Z"/><path class="cls-8" d="M22.65,43.92l20.62,3.31H22.65Zm20.62,0H22.65l20.62,3.31Z"/><path class="cls-7" d="M23.8,47.23l19.47,2.29H23.8Zm19.47,0H23.8l19.47,2.29Z"/><path class="cls-8" d="M23.8,47.23l19.47,2.29H23.8Zm19.47,0H23.8l19.47,2.29Z"/><polyline class="cls-9" points="80.57 16.04 71.02 16.04 71.02 12.99 37.54 12.99 37.54 11.59 32.96 11.59 32.96 12.99 29.01 12.99 29.01 26.48 22.65 26.48 22.65 47.23 23.8 47.23 23.8 49.52 43.27 49.52 43.27 43.92 43.4 43.92 43.4 31.19 80.57 31.19 80.57 16.04"/><polyline class="cls-9" points="43.27 43.92 57.78 43.92 57.78 53.85 59.95 53.85 59.95 63.4 57.78 63.4 57.78 71.16 59.95 71.16 59.95 76.25 57.78 76.25 57.78 84.91 47.73 84.91 47.73 89.62 43.27 89.62 43.27 79.31 25.2 79.31 25.2 52.07 23.8 52.07 23.8 49.52 43.27 49.52 43.27 43.92"/><polyline class="cls-9" points="80.57 112.66 71.02 112.66 71.02 115.84 37.54 115.84 37.54 117.12 32.96 117.12 32.96 115.84 29.01 115.84 29.01 102.22 22.65 102.22 22.65 81.47 23.8 81.47 23.8 79.31 43.27 79.31 43.27 84.91 43.4 84.91 43.4 97.51 80.57 97.51 80.57 112.66"/><polyline class="cls-9" points="88.33 35.65 78.28 35.65 78.28 44.43 67.08 44.43 67.08 35.65 60.46 35.65 60.46 44.43 57.78 44.43"/><line class="cls-9" x1="60.46" y1="43.92" x2="67.08" y2="43.92"/><line class="cls-9" x1="67.08" y1="44.43" x2="60.46" y2="44.43"/><line class="cls-9" x1="78.28" y1="44.43" x2="88.33" y2="44.43"/><line class="cls-9" x1="88.33" y1="43.92" x2="78.28" y2="43.92"/><line class="cls-9" x1="59.95" y1="44.43" x2="59.95" y2="84.27"/><line class="cls-9" x1="60.46" y1="84.27" x2="60.46" y2="44.43"/><polyline class="cls-9" points="88.33 93.06 78.28 93.06 78.28 84.28 67.08 84.28 67.08 93.06 60.46 93.06 60.46 84.28 57.78 84.28"/><line class="cls-9" x1="60.46" y1="84.91" x2="67.08" y2="84.91"/><line class="cls-9" x1="67.08" y1="84.27" x2="60.46" y2="84.27"/><line class="cls-9" x1="78.28" y1="84.27" x2="88.33" y2="84.27"/><line class="cls-9" x1="88.33" y1="84.91" x2="78.28" y2="84.91"/><line class="cls-9" x1="60.46" y1="35.65" x2="60.84" y2="36.16"/><line class="cls-9" x1="61.09" y1="36.41" x2="61.47" y2="36.92"/><line class="cls-9" x1="61.6" y1="37.05" x2="61.98" y2="37.56"/><line class="cls-9" x1="62.11" y1="37.81" x2="62.49" y2="38.32"/><line class="cls-9" x1="62.75" y1="38.45" x2="63.13" y2="38.96"/><line class="cls-9" x1="63.26" y1="39.21" x2="63.64" y2="39.72"/><line class="cls-9" x1="63.89" y1="39.97" x2="64.28" y2="40.36"/><line class="cls-9" x1="64.4" y1="40.61" x2="64.78" y2="41.12"/><line class="cls-9" x1="65.04" y1="41.37" x2="65.29" y2="41.76"/><line class="cls-9" x1="65.55" y1="42.01" x2="65.93" y2="42.52"/><line class="cls-9" x1="66.06" y1="42.78" x2="66.44" y2="43.16"/><line class="cls-9" x1="66.69" y1="43.41" x2="67.08" y2="43.92"/><line class="cls-9" x1="60.46" y1="43.92" x2="60.84" y2="43.41"/><line class="cls-9" x1="61.09" y1="43.16" x2="61.47" y2="42.78"/><line class="cls-9" x1="61.6" y1="42.52" x2="61.98" y2="42.01"/><line class="cls-9" x1="62.11" y1="41.76" x2="62.49" y2="41.38"/><line class="cls-9" x1="62.75" y1="41.12" x2="63.13" y2="40.61"/><line class="cls-9" x1="63.26" y1="40.36" x2="63.64" y2="39.97"/><line class="cls-9" x1="63.89" y1="39.72" x2="64.28" y2="39.21"/><line class="cls-9" x1="64.4" y1="38.96" x2="64.78" y2="38.45"/><line class="cls-9" x1="65.04" y1="38.32" x2="65.29" y2="37.81"/><line class="cls-9" x1="65.55" y1="37.56" x2="65.93" y2="37.05"/><line class="cls-9" x1="66.06" y1="36.92" x2="66.44" y2="36.41"/><line class="cls-9" x1="66.69" y1="36.16" x2="67.08" y2="35.65"/><line class="cls-9" x1="78.28" y1="35.65" x2="78.66" y2="36.03"/><line class="cls-9" x1="78.91" y1="36.16" x2="79.42" y2="36.54"/><line class="cls-9" x1="79.55" y1="36.79" x2="80.06" y2="37.17"/><line class="cls-9" x1="80.32" y1="37.3" x2="80.82" y2="37.68"/><line class="cls-9" x1="80.95" y1="37.94" x2="81.46" y2="38.32"/><line class="cls-9" x1="81.71" y1="38.45" x2="82.22" y2="38.83"/><line class="cls-9" x1="82.35" y1="39.08" x2="82.86" y2="39.47"/><line class="cls-9" x1="83.12" y1="39.59" x2="83.62" y2="39.98"/><line class="cls-9" x1="83.75" y1="40.23" x2="84.26" y2="40.61"/><line class="cls-9" x1="84.52" y1="40.74" x2="85.02" y2="41.12"/><line class="cls-9" x1="85.15" y1="41.37" x2="85.66" y2="41.76"/><line class="cls-9" x1="85.92" y1="41.88" x2="86.3" y2="42.27"/><line class="cls-9" x1="86.55" y1="42.52" x2="87.06" y2="42.9"/><line class="cls-9" x1="87.32" y1="43.03" x2="87.7" y2="43.41"/><line class="cls-9" x1="87.95" y1="43.67" x2="88.33" y2="43.92"/><line class="cls-9" x1="88.33" y1="35.65" x2="87.95" y2="36.03"/><line class="cls-9" x1="87.7" y1="36.16" x2="87.32" y2="36.54"/><line class="cls-9" x1="87.06" y1="36.79" x2="86.55" y2="37.17"/><line class="cls-9" x1="86.3" y1="37.3" x2="85.92" y2="37.68"/><line class="cls-9" x1="85.66" y1="37.94" x2="85.15" y2="38.32"/><line class="cls-9" x1="85.02" y1="38.45" x2="84.52" y2="38.83"/><line class="cls-9" x1="84.26" y1="39.08" x2="83.75" y2="39.47"/><line class="cls-9" x1="83.63" y1="39.59" x2="83.12" y2="39.98"/><line class="cls-9" x1="82.86" y1="40.23" x2="82.35" y2="40.61"/><line class="cls-9" x1="82.22" y1="40.74" x2="81.72" y2="41.12"/><line class="cls-9" x1="81.46" y1="41.37" x2="80.95" y2="41.76"/><line class="cls-9" x1="80.82" y1="41.88" x2="80.32" y2="42.27"/><line class="cls-9" x1="80.06" y1="42.52" x2="79.55" y2="42.9"/><line class="cls-9" x1="79.42" y1="43.03" x2="78.92" y2="43.41"/><line class="cls-9" x1="78.66" y1="43.67" x2="78.28" y2="43.92"/><line class="cls-9" x1="57.78" y1="53.85" x2="59.95" y2="44.43"/><line class="cls-9" x1="57.78" y1="44.43" x2="59.95" y2="53.85"/><line class="cls-9" x1="57.78" y1="63.4" x2="58.04" y2="64.16"/><line class="cls-9" x1="58.17" y1="64.42" x2="58.29" y2="64.92"/><line class="cls-9" x1="58.29" y1="65.31" x2="58.55" y2="65.82"/><line class="cls-9" x1="58.55" y1="66.2" x2="58.67" y2="66.71"/><line class="cls-9" x1="58.8" y1="66.96" x2="58.93" y2="67.6"/><line class="cls-9" x1="59.06" y1="67.85" x2="59.18" y2="68.49"/><line class="cls-9" x1="59.31" y1="68.74" x2="59.44" y2="69.38"/><line class="cls-9" x1="59.57" y1="69.64" x2="59.69" y2="70.27"/><line class="cls-9" x1="59.69" y1="70.53" x2="59.95" y2="71.16"/><line class="cls-9" x1="57.78" y1="71.16" x2="58.04" y2="70.53"/><line class="cls-9" x1="58.17" y1="70.27" x2="58.29" y2="69.64"/><line class="cls-9" x1="58.29" y1="69.38" x2="58.55" y2="68.74"/><line class="cls-9" x1="58.55" y1="68.49" x2="58.67" y2="67.85"/><line class="cls-9" x1="58.8" y1="67.6" x2="58.93" y2="66.96"/><line class="cls-9" x1="59.06" y1="66.71" x2="59.18" y2="66.2"/><line class="cls-9" x1="59.31" y1="65.82" x2="59.44" y2="65.31"/><line class="cls-9" x1="59.57" y1="64.92" x2="59.69" y2="64.42"/><line class="cls-9" x1="59.69" y1="64.16" x2="59.95" y2="63.4"/><line class="cls-9" x1="60.46" y1="93.06" x2="60.84" y2="92.68"/><line class="cls-9" x1="61.09" y1="92.42" x2="61.47" y2="91.91"/><line class="cls-9" x1="61.6" y1="91.66" x2="61.98" y2="91.15"/><line class="cls-9" x1="62.11" y1="91.02" x2="62.49" y2="90.51"/><line class="cls-9" x1="62.75" y1="90.26" x2="63.13" y2="89.75"/><line class="cls-9" x1="63.26" y1="89.62" x2="63.64" y2="89.11"/><line class="cls-9" x1="63.89" y1="88.86" x2="64.28" y2="88.35"/><line class="cls-9" x1="64.4" y1="88.09" x2="64.78" y2="87.71"/><line class="cls-9" x1="65.04" y1="87.46" x2="65.29" y2="86.95"/><line class="cls-9" x1="65.55" y1="86.69" x2="65.93" y2="86.31"/><line class="cls-9" x1="66.06" y1="86.06" x2="66.44" y2="85.55"/><line class="cls-9" x1="66.69" y1="85.29" x2="67.08" y2="84.91"/><line class="cls-9" x1="60.46" y1="84.91" x2="60.84" y2="85.29"/><line class="cls-9" x1="61.09" y1="85.55" x2="61.47" y2="86.06"/><line class="cls-9" x1="61.6" y1="86.31" x2="61.98" y2="86.69"/><line class="cls-9" x1="62.11" y1="86.95" x2="62.49" y2="87.46"/><line class="cls-9" x1="62.75" y1="87.71" x2="63.13" y2="88.09"/><line class="cls-9" x1="63.26" y1="88.35" x2="63.64" y2="88.86"/><line class="cls-9" x1="63.89" y1="89.11" x2="64.28" y2="89.62"/><line class="cls-9" x1="64.4" y1="89.75" x2="64.78" y2="90.26"/><line class="cls-9" x1="65.04" y1="90.51" x2="65.29" y2="91.02"/><line class="cls-9" x1="65.55" y1="91.15" x2="65.93" y2="91.66"/><line class="cls-9" x1="66.06" y1="91.91" x2="66.44" y2="92.42"/><line class="cls-9" x1="66.69" y1="92.68" x2="67.08" y2="93.06"/><line class="cls-9" x1="78.28" y1="93.06" x2="78.66" y2="92.8"/><line class="cls-9" x1="78.91" y1="92.55" x2="79.42" y2="92.17"/><line class="cls-9" x1="79.55" y1="92.04" x2="80.06" y2="91.66"/><line class="cls-9" x1="80.32" y1="91.4" x2="80.82" y2="91.02"/><line class="cls-9" x1="80.95" y1="90.89" x2="81.46" y2="90.51"/><line class="cls-9" x1="81.71" y1="90.26" x2="82.22" y2="89.87"/><line class="cls-9" x1="82.35" y1="89.75" x2="82.86" y2="89.37"/><line class="cls-9" x1="83.12" y1="89.11" x2="83.62" y2="88.73"/><line class="cls-9" x1="83.75" y1="88.6" x2="84.26" y2="88.22"/><line class="cls-9" x1="84.52" y1="87.97" x2="85.02" y2="87.58"/><line class="cls-9" x1="85.15" y1="87.46" x2="85.66" y2="87.07"/><line class="cls-9" x1="85.92" y1="86.82" x2="86.3" y2="86.44"/><line class="cls-9" x1="86.55" y1="86.31" x2="87.06" y2="85.93"/><line class="cls-9" x1="87.32" y1="85.67" x2="87.7" y2="85.29"/><line class="cls-9" x1="87.95" y1="85.16" x2="88.33" y2="84.91"/><line class="cls-9" x1="78.28" y1="84.91" x2="78.66" y2="85.17"/><line class="cls-9" x1="78.91" y1="85.29" x2="79.42" y2="85.67"/><line class="cls-9" x1="79.55" y1="85.93" x2="80.06" y2="86.31"/><line class="cls-9" x1="80.32" y1="86.44" x2="80.82" y2="86.82"/><line class="cls-9" x1="80.95" y1="87.07" x2="81.46" y2="87.46"/><line class="cls-9" x1="81.71" y1="87.58" x2="82.22" y2="87.96"/><line class="cls-9" x1="82.35" y1="88.22" x2="82.86" y2="88.6"/><line class="cls-9" x1="83.12" y1="88.73" x2="83.62" y2="89.11"/><line class="cls-9" x1="83.75" y1="89.37" x2="84.26" y2="89.75"/><line class="cls-9" x1="84.52" y1="89.87" x2="85.02" y2="90.26"/><line class="cls-9" x1="85.15" y1="90.51" x2="85.66" y2="90.89"/><line class="cls-9" x1="85.92" y1="91.02" x2="86.3" y2="91.4"/><line class="cls-9" x1="86.55" y1="91.66" x2="87.06" y2="92.04"/><line class="cls-9" x1="87.32" y1="92.17" x2="87.7" y2="92.55"/><line class="cls-9" x1="87.95" y1="92.8" x2="88.33" y2="93.06"/><line class="cls-9" x1="57.78" y1="84.27" x2="57.91" y2="83.89"/><line class="cls-9" x1="58.04" y1="83.64" x2="58.17" y2="83"/><line class="cls-9" x1="58.29" y1="82.75" x2="58.42" y2="82.11"/><line class="cls-9" x1="58.42" y1="81.86" x2="58.67" y2="81.35"/><line class="cls-9" x1="58.67" y1="80.96" x2="58.8" y2="80.46"/><line class="cls-9" x1="58.93" y1="80.07" x2="59.06" y2="79.56"/><line class="cls-9" x1="59.18" y1="79.31" x2="59.31" y2="78.67"/><line class="cls-9" x1="59.44" y1="78.42" x2="59.57" y2="77.78"/><line class="cls-9" x1="59.57" y1="77.53" x2="59.69" y2="76.89"/><line class="cls-9" x1="59.82" y1="76.64" x2="59.95" y2="76.25"/><line class="cls-9" x1="57.78" y1="76.25" x2="57.91" y2="76.64"/><line class="cls-9" x1="58.04" y1="76.89" x2="58.17" y2="77.53"/><line class="cls-9" x1="58.29" y1="77.78" x2="58.42" y2="78.42"/><line class="cls-9" x1="58.42" y1="78.67" x2="58.67" y2="79.31"/><line class="cls-9" x1="58.67" y1="79.56" x2="58.8" y2="80.07"/><line class="cls-9" x1="58.93" y1="80.45" x2="59.06" y2="80.96"/><line class="cls-9" x1="59.18" y1="81.35" x2="59.31" y2="81.85"/><line class="cls-9" x1="59.44" y1="82.11" x2="59.57" y2="82.75"/><line class="cls-9" x1="59.57" y1="83" x2="59.69" y2="83.64"/><line class="cls-9" x1="59.82" y1="83.89" x2="59.95" y2="84.27"/><path class="cls-10" d="M44,25.34v-3h2.17v.36H44.38v.92h1.67V24H44.38v1h1.85v.36Z"/><path class="cls-10" d="M49.19,25.34h-.37V23a2.12,2.12,0,0,1-.35.26,2.74,2.74,0,0,1-.39.19v-.36a1.86,1.86,0,0,0,.54-.35,1.42,1.42,0,0,0,.33-.4h.24Z"/><path class="cls-10" d="M50.13,23.85a2.78,2.78,0,0,1,.11-.85,1.11,1.11,0,0,1,.33-.51.85.85,0,0,1,.54-.17.83.83,0,0,1,.43.1.73.73,0,0,1,.3.28,1.62,1.62,0,0,1,.19.44,3.41,3.41,0,0,1,.06.71,2.57,2.57,0,0,1-.11.86,1.06,1.06,0,0,1-.32.5.83.83,0,0,1-.55.18.85.85,0,0,1-.68-.31A2,2,0,0,1,50.13,23.85Zm.38,0a1.82,1.82,0,0,0,.18,1,.5.5,0,0,0,.42.25.52.52,0,0,0,.43-.25,1.84,1.84,0,0,0,.17-1,1.82,1.82,0,0,0-.17-1,.52.52,0,0,0-.43-.25.49.49,0,0,0-.41.22A2,2,0,0,0,50.51,23.85Z"/><path class="cls-10" d="M52.47,24.54l.37-.05a.8.8,0,0,0,.22.46.53.53,0,0,0,.37.14.61.61,0,0,0,.44-.19.59.59,0,0,0,.18-.44.58.58,0,0,0-.59-.59,1.51,1.51,0,0,0-.26,0l0-.32h.06a.74.74,0,0,0,.42-.12.41.41,0,0,0,.19-.38.43.43,0,0,0-.13-.33.53.53,0,0,0-.72,0,.6.6,0,0,0-.18.4l-.37-.06a1,1,0,0,1,.3-.58.92.92,0,0,1,.6-.2.93.93,0,0,1,.45.1.75.75,0,0,1,.32.29.68.68,0,0,1,.11.39.6.6,0,0,1-.1.35.72.72,0,0,1-.31.26.75.75,0,0,1,.41.25.79.79,0,0,1,.15.49.92.92,0,0,1-.29.67,1,1,0,0,1-.72.27.92.92,0,0,1-.66-.24A.94.94,0,0,1,52.47,24.54Z"/><path class="cls-10" d="M54.63,25.39l.87-3.11h.3l-.87,3.11Z"/><path class="cls-10" d="M57.91,25v.36h-2a.75.75,0,0,1,0-.26,1.42,1.42,0,0,1,.24-.4,3.64,3.64,0,0,1,.48-.45,4.23,4.23,0,0,0,.67-.64.82.82,0,0,0,.17-.45.5.5,0,0,0-.16-.37.56.56,0,0,0-.41-.15.61.61,0,0,0-.43.16.65.65,0,0,0-.16.45l-.38,0a1,1,0,0,1,.3-.65,1,1,0,0,1,.68-.22,1,1,0,0,1,.69.24.82.82,0,0,1,.25.59.94.94,0,0,1-.08.36,1.64,1.64,0,0,1-.24.37c-.12.12-.31.3-.57.52l-.43.38-.15.2Z"/><path class="cls-10" d="M58.31,23.85a2.5,2.5,0,0,1,.11-.85,1.09,1.09,0,0,1,.32-.51.9.9,0,0,1,.55-.17.82.82,0,0,1,.42.1.67.67,0,0,1,.3.28,1.36,1.36,0,0,1,.19.44,2.78,2.78,0,0,1,.07.71,2.85,2.85,0,0,1-.11.86,1,1,0,0,1-.33.5.8.8,0,0,1-.54.18.83.83,0,0,1-.68-.31A2,2,0,0,1,58.31,23.85Zm.38,0a1.84,1.84,0,0,0,.17,1,.53.53,0,0,0,.43.25.5.5,0,0,0,.42-.25,1.82,1.82,0,0,0,.18-1,1.8,1.8,0,0,0-.18-1,.51.51,0,0,0-.43-.25.47.47,0,0,0-.4.22A1.86,1.86,0,0,0,58.69,23.85Z"/><path class="cls-10" d="M60.65,24.54l.37-.05a.86.86,0,0,0,.21.46.55.55,0,0,0,.37.14A.6.6,0,0,0,62,24.9a.59.59,0,0,0,.18-.44.57.57,0,0,0-.16-.42.6.6,0,0,0-.43-.17,1.66,1.66,0,0,0-.26,0l0-.32h.06a.8.8,0,0,0,.43-.12.41.41,0,0,0,.19-.38.44.44,0,0,0-.14-.33.48.48,0,0,0-.35-.14.49.49,0,0,0-.36.14.66.66,0,0,0-.19.4l-.37-.06a1,1,0,0,1,.31-.58.92.92,0,0,1,.6-.2,1,1,0,0,1,.45.1.82.82,0,0,1,.32.29.77.77,0,0,1,.11.39.61.61,0,0,1-.11.35.67.67,0,0,1-.31.26.75.75,0,0,1,.42.25.86.86,0,0,1,.14.49.91.91,0,0,1-.28.67,1,1,0,0,1-.73.27,1,1,0,0,1-.66-.24A.89.89,0,0,1,60.65,24.54Z"/><path class="cls-10" d="M156.06,13.24,154.15,1.15h.38Zm-.26.13.26-.13L154.15,1.15Z"/><path class="cls-11" d="M156.06,13.24,154.15,1.15h.38Zm-.26.13.26-.13L154.15,1.15Z"/><line class="cls-9" x1="157.33" y1="24.19" x2="155.93" y2="13.24"/><path class="cls-10" d="M156.82,13.12l-1.27-6.88h.38Zm-.38.12.38-.12-1.27-6.88Z"/><path class="cls-11" d="M156.82,13.12l-1.27-6.88h.38Zm-.38.12.38-.12-1.27-6.88Z"/><path class="cls-10" d="M155.42,13.37,154.15,6.5l.38-.13Zm-.38,0h.38L154.15,6.5Z"/><path class="cls-11" d="M155.42,13.37,154.15,6.5l.38-.13Zm-.38,0h.38L154.15,6.5Z"/><line class="cls-9" x1="157.07" y1="24.32" x2="156.82" y2="22.92"/><line class="cls-9" x1="147.65" y1="14.77" x2="145.87" y2="15.03"/><line class="cls-9" x1="166.11" y1="12.35" x2="164.2" y2="12.61"/><line class="cls-9" x1="166.11" y1="11.97" x2="145.75" y2="14.64"/><g class="cls-12"><path class="cls-9" d="M163.37,12.19a7.57,7.57,0,1,0-6.52,8.5,7.56,7.56,0,0,0,6.52-8.5"/><path class="cls-9" d="M162.87,12.26a7.07,7.07,0,1,0-6.08,7.92,7.08,7.08,0,0,0,6.08-7.92"/></g><path class="cls-10" d="M97.83,46.34v-3H100v.36H98.23v.92h1.66V45H98.23v1h1.85v.35Z"/><path class="cls-10" d="M103,46.34h-.37V44a1.51,1.51,0,0,1-.35.25,1.91,1.91,0,0,1-.38.19v-.35a2.54,2.54,0,0,0,.54-.36,1.46,1.46,0,0,0,.33-.4H103Z"/><path class="cls-10" d="M104,44.86a2.85,2.85,0,0,1,.11-.86,1,1,0,0,1,.33-.5.8.8,0,0,1,.54-.18.82.82,0,0,1,.42.1.76.76,0,0,1,.31.28,1.32,1.32,0,0,1,.18.45,2.68,2.68,0,0,1,.07.71,2.83,2.83,0,0,1-.11.85,1,1,0,0,1-.32.5.85.85,0,0,1-.55.18.81.81,0,0,1-.68-.31A2,2,0,0,1,104,44.86Zm.38,0a1.93,1.93,0,0,0,.17,1,.49.49,0,0,0,.86,0,1.93,1.93,0,0,0,.17-1,2,2,0,0,0-.17-1,.53.53,0,0,0-.44-.24.48.48,0,0,0-.4.21A1.9,1.9,0,0,0,104.36,44.86Z"/><path class="cls-10" d="M107.7,46.34h-.36V44a2.12,2.12,0,0,1-.35.25,2.27,2.27,0,0,1-.39.19v-.35a2.31,2.31,0,0,0,.54-.36,1.46,1.46,0,0,0,.33-.4h.23Z"/><path class="cls-10" d="M108.48,46.39l.87-3.11h.29l-.86,3.11Z"/><path class="cls-10" d="M111.76,46v.35h-2a.78.78,0,0,1,0-.26,1.46,1.46,0,0,1,.25-.4,3.64,3.64,0,0,1,.48-.45,3.67,3.67,0,0,0,.66-.64.7.7,0,0,0,.17-.44.5.5,0,0,0-.15-.37.65.65,0,0,0-.84,0,.61.61,0,0,0-.16.44l-.38,0a1,1,0,0,1,.29-.65,1.06,1.06,0,0,1,.69-.22.94.94,0,0,1,.68.24.79.79,0,0,1,.25.6.87.87,0,0,1-.07.35,1.45,1.45,0,0,1-.24.37c-.12.13-.31.3-.57.53a3.4,3.4,0,0,0-.43.38,1,1,0,0,0-.16.2Z"/><path class="cls-10" d="M112.15,44.86a2.85,2.85,0,0,1,.11-.86,1.15,1.15,0,0,1,.33-.5.82.82,0,0,1,.54-.18.83.83,0,0,1,.43.1.8.8,0,0,1,.3.28,1.56,1.56,0,0,1,.19.45,3.28,3.28,0,0,1,.06.71,2.87,2.87,0,0,1-.1.85,1,1,0,0,1-.33.5.81.81,0,0,1-.55.18.83.83,0,0,1-.68-.31A2,2,0,0,1,112.15,44.86Zm.38,0a1.8,1.8,0,0,0,.18,1,.48.48,0,0,0,.42.25.5.5,0,0,0,.43-.25,1.8,1.8,0,0,0,.18-1,1.82,1.82,0,0,0-.18-1,.51.51,0,0,0-.43-.24.49.49,0,0,0-.41.21A2,2,0,0,0,112.53,44.86Z"/><path class="cls-10" d="M115.88,46.34h-.37V44a1.76,1.76,0,0,1-.35.25,1.73,1.73,0,0,1-.39.19v-.35a2.12,2.12,0,0,0,.54-.36,1.17,1.17,0,0,0,.33-.4h.24Z"/><path class="cls-10" d="M98,85.55l-.8-3h.41l.45,2c0,.21.1.41.13.61.08-.32.12-.5.14-.55l.57-2h.48l.43,1.52a8.16,8.16,0,0,1,.23,1.06c0-.18.09-.4.15-.65l.47-1.93h.4l-.82,3h-.38l-.64-2.3c0-.19-.08-.3-.09-.35a3.46,3.46,0,0,1-.09.35l-.64,2.3Z"/><path class="cls-10" d="M103.81,85.55h-.37V83.19a1.51,1.51,0,0,1-.35.26,2.3,2.3,0,0,1-.39.19v-.36a2.35,2.35,0,0,0,.55-.35,1.62,1.62,0,0,0,.33-.4h.23Z"/><path class="cls-10" d="M104.76,84.06a2.6,2.6,0,0,1,.11-.86,1,1,0,0,1,.33-.5.85.85,0,0,1,.54-.17.93.93,0,0,1,.42.09.81.81,0,0,1,.3.28,1.53,1.53,0,0,1,.19.45,2.73,2.73,0,0,1,.07.71,2.85,2.85,0,0,1-.11.86,1,1,0,0,1-.33.5.8.8,0,0,1-.54.18.81.81,0,0,1-.68-.32A2,2,0,0,1,104.76,84.06Zm.38,0a2,2,0,0,0,.17,1,.51.51,0,0,0,.86,0,2,2,0,0,0,.17-1,1.93,1.93,0,0,0-.17-1,.51.51,0,0,0-.44-.25.46.46,0,0,0-.4.22A1.86,1.86,0,0,0,105.14,84.06Z"/><path class="cls-10" d="M107.12,82.93v-.35h1.95v.28a3.67,3.67,0,0,0-.57.82,4.7,4.7,0,0,0-.44,1,4.1,4.1,0,0,0-.14.83h-.38a3.39,3.39,0,0,1,.14-.86,4.77,4.77,0,0,1,.38-1,4.52,4.52,0,0,1,.53-.79Z"/><path class="cls-10" d="M109.26,85.6l.87-3.11h.29l-.87,3.11Z"/><path class="cls-10" d="M112.54,85.19v.36h-2a.75.75,0,0,1,0-.26,1.16,1.16,0,0,1,.25-.4,4.39,4.39,0,0,1,.48-.46,3.71,3.71,0,0,0,.66-.63.75.75,0,0,0,.17-.45A.51.51,0,0,0,112,83a.58.58,0,0,0-.41-.15.61.61,0,0,0-.43.16.61.61,0,0,0-.16.45l-.38,0a.94.94,0,0,1,.29-.65,1,1,0,0,1,.69-.22,1,1,0,0,1,.68.24.76.76,0,0,1,.25.59.92.92,0,0,1-.07.36,1.39,1.39,0,0,1-.25.36,5.11,5.11,0,0,1-.56.53,4.5,4.5,0,0,0-.43.38,1.4,1.4,0,0,0-.16.2Z"/><path class="cls-10" d="M112.93,84.06a2.9,2.9,0,0,1,.11-.86,1.13,1.13,0,0,1,.33-.5.87.87,0,0,1,.54-.17.94.94,0,0,1,.43.09.89.89,0,0,1,.3.28,1.85,1.85,0,0,1,.19.45,3.35,3.35,0,0,1,.06.71,2.57,2.57,0,0,1-.11.86,1,1,0,0,1-.32.5.9.9,0,0,1-1.23-.14A2,2,0,0,1,112.93,84.06Zm.38,0a1.85,1.85,0,0,0,.18,1,.49.49,0,0,0,.42.24.51.51,0,0,0,.43-.24,1.85,1.85,0,0,0,.18-1,1.8,1.8,0,0,0-.18-1,.5.5,0,0,0-.43-.25.48.48,0,0,0-.41.22A2,2,0,0,0,113.31,84.06Z"/><path class="cls-10" d="M115.29,82.93v-.35h1.95v.28a4.47,4.47,0,0,0-.57.82,4.67,4.67,0,0,0-.43,1,3.5,3.5,0,0,0-.15.83h-.38a4.61,4.61,0,0,1,.14-.86,4.28,4.28,0,0,1,.39-1,4,4,0,0,1,.53-.79Z"/><path class="cls-10" d="M31.89,66.2v-3h2.18v.36H32.29v.92H34v.35H32.29v1h1.85v.35Z"/><path class="cls-10" d="M37.09,66.2h-.37V63.85a1.51,1.51,0,0,1-.35.25,1.91,1.91,0,0,1-.38.19v-.35a2.54,2.54,0,0,0,.54-.36,1.62,1.62,0,0,0,.33-.4h.23Z"/><path class="cls-10" d="M38,64.72a2.85,2.85,0,0,1,.11-.86,1,1,0,0,1,.33-.5.8.8,0,0,1,.54-.18.88.88,0,0,1,.43.1.8.8,0,0,1,.3.28,1.32,1.32,0,0,1,.18.45,2.68,2.68,0,0,1,.07.71,2.83,2.83,0,0,1-.11.85,1,1,0,0,1-.32.5.85.85,0,0,1-.55.18.81.81,0,0,1-.68-.31A2,2,0,0,1,38,64.72Zm.38,0a1.93,1.93,0,0,0,.17,1,.49.49,0,0,0,.86,0,1.93,1.93,0,0,0,.17-1,2,2,0,0,0-.17-1,.52.52,0,0,0-.43-.24.48.48,0,0,0-.41.21A1.9,1.9,0,0,0,38.42,64.72Z"/><path class="cls-10" d="M41.56,66.2v-.72h-1.3v-.34l1.37-2h.3v2h.4v.34h-.4v.72Zm0-1.06V63.79l-.94,1.35Z"/><path class="cls-10" d="M42.54,66.25l.87-3.11h.29l-.86,3.11Z"/><path class="cls-10" d="M45.82,65.85v.35h-2a.75.75,0,0,1,0-.26,1.75,1.75,0,0,1,.25-.4,3.64,3.64,0,0,1,.48-.45,3.67,3.67,0,0,0,.66-.64.74.74,0,0,0,.18-.44.51.51,0,0,0-.16-.37.65.65,0,0,0-.84,0,.61.61,0,0,0-.16.44l-.38,0a1,1,0,0,1,.3-.65,1,1,0,0,1,.68-.22.94.94,0,0,1,.68.24.79.79,0,0,1,.25.6.87.87,0,0,1-.07.35,1.45,1.45,0,0,1-.24.37c-.12.13-.31.3-.57.53a5,5,0,0,0-.43.37,1.46,1.46,0,0,0-.16.21Z"/><path class="cls-10" d="M46.21,64.72a2.85,2.85,0,0,1,.11-.86,1.15,1.15,0,0,1,.33-.5.83.83,0,0,1,.55-.18.82.82,0,0,1,.42.1.8.8,0,0,1,.3.28,1.56,1.56,0,0,1,.19.45,3.18,3.18,0,0,1,.07.71,2.83,2.83,0,0,1-.11.85,1,1,0,0,1-.33.5.8.8,0,0,1-.54.18.84.84,0,0,1-.69-.31A2,2,0,0,1,46.21,64.72Zm.38,0a1.8,1.8,0,0,0,.18,1,.49.49,0,0,0,.85,0,1.8,1.8,0,0,0,.18-1,1.82,1.82,0,0,0-.18-1,.51.51,0,0,0-.43-.24.49.49,0,0,0-.41.21A2,2,0,0,0,46.59,64.72Z"/><path class="cls-10" d="M49.73,66.2v-.72h-1.3v-.34l1.37-2h.3v2h.41v.34H50.1v.72Zm0-1.06V63.79l-.94,1.35Z"/><path class="cls-10" d="M44.5,106.42l-.8-3h.41l.46,2c0,.21.09.41.13.61.07-.32.12-.5.13-.55l.57-2h.48l.44,1.52a10.24,10.24,0,0,1,.23,1.06c0-.19.09-.4.15-.65l.47-1.93h.4l-.82,3h-.39l-.63-2.29c0-.19-.09-.31-.1-.35l-.08.35-.64,2.29Z"/><path class="cls-10" d="M50.35,106.42H50v-2.35a1.77,1.77,0,0,1-.35.26,2.3,2.3,0,0,1-.39.19v-.36a2.1,2.1,0,0,0,.54-.35,1.27,1.27,0,0,0,.33-.4h.24Z"/><path class="cls-10" d="M51.29,104.94a2.9,2.9,0,0,1,.11-.86,1.22,1.22,0,0,1,.33-.5.82.82,0,0,1,.55-.17.93.93,0,0,1,.42.09.89.89,0,0,1,.3.28,1.85,1.85,0,0,1,.19.45,3.25,3.25,0,0,1,.07.71,2.9,2.9,0,0,1-.11.86,1.13,1.13,0,0,1-.33.5.8.8,0,0,1-.54.18.85.85,0,0,1-.69-.32A2,2,0,0,1,51.29,104.94Zm.38,0a1.85,1.85,0,0,0,.18,1,.51.51,0,0,0,.43.24.49.49,0,0,0,.42-.24,2.81,2.81,0,0,0,0-2,.51.51,0,0,0-.43-.24.48.48,0,0,0-.41.22A2,2,0,0,0,51.67,104.94Z"/><path class="cls-10" d="M53.63,105.64l.39,0a.7.7,0,0,0,.2.43.56.56,0,0,0,.38.14.59.59,0,0,0,.45-.2.76.76,0,0,0,.18-.53.68.68,0,0,0-.18-.5.6.6,0,0,0-.46-.18.57.57,0,0,0-.32.08.58.58,0,0,0-.23.21l-.34,0,.29-1.54h1.49v.35h-1.2l-.16.81a1,1,0,0,1,.57-.19.9.9,0,0,1,.66.27,1,1,0,0,1,.27.7,1.14,1.14,0,0,1-.23.71,1.05,1.05,0,0,1-1.46.14A.92.92,0,0,1,53.63,105.64Z"/><path class="cls-10" d="M55.79,106.48l.87-3.11H57l-.87,3.11Z"/><path class="cls-10" d="M59.07,106.07v.35h-2a.55.55,0,0,1,0-.25,1.29,1.29,0,0,1,.24-.4,3.23,3.23,0,0,1,.49-.46,5.23,5.23,0,0,0,.66-.63.82.82,0,0,0,.17-.45.49.49,0,0,0-.16-.37.56.56,0,0,0-.41-.15.55.55,0,0,0-.42.16.65.65,0,0,0-.17.44l-.37,0a.9.9,0,0,1,.29-.64,1,1,0,0,1,.68-.22,1,1,0,0,1,.69.23.8.8,0,0,1,.25.6,1.15,1.15,0,0,1-.07.36,1.69,1.69,0,0,1-.25.36,4.56,4.56,0,0,1-.57.53,5.42,5.42,0,0,0-.42.38.94.94,0,0,0-.16.2Z"/><path class="cls-10" d="M59.47,104.94a2.9,2.9,0,0,1,.11-.86,1,1,0,0,1,.33-.5.8.8,0,0,1,.54-.17.93.93,0,0,1,.42.09.84.84,0,0,1,.31.28,1.51,1.51,0,0,1,.18.45,2.73,2.73,0,0,1,.07.71,2.9,2.9,0,0,1-.11.86,1.11,1.11,0,0,1-.32.5.85.85,0,0,1-.55.18.81.81,0,0,1-.68-.32A2,2,0,0,1,59.47,104.94Zm.38,0a2,2,0,0,0,.17,1,.51.51,0,0,0,.86,0,3,3,0,0,0,0-2,.52.52,0,0,0-.43-.24.47.47,0,0,0-.41.22A1.86,1.86,0,0,0,59.85,104.94Z"/><path class="cls-10" d="M61.81,105.64l.38,0a.75.75,0,0,0,.2.43.57.57,0,0,0,.38.14.59.59,0,0,0,.45-.2.72.72,0,0,0,.19-.53.68.68,0,0,0-.18-.5.69.69,0,0,0-.79-.1.56.56,0,0,0-.22.21l-.35,0,.29-1.54h1.5v.35h-1.2l-.17.81a1,1,0,0,1,.57-.19.9.9,0,0,1,.67.27,1,1,0,0,1,.27.7,1.09,1.09,0,0,1-.24.71,1,1,0,0,1-.79.37,1,1,0,0,1-.67-.23A.91.91,0,0,1,61.81,105.64Z"/><path class="cls-10" d="M5.08,68.18h-3v-.39H4.73V66.3h.35Z"/><path class="cls-10" d="M5.08,66.16,2.08,65v-.43l3-1.23v.45l-.91.35v1.26l.91.33Zm-1.23-.87v-1L3,64.59l-.63.21A4.18,4.18,0,0,1,3,65Z"/><path class="cls-10" d="M3.9,61.62H3.55V60.35H4.66A2.22,2.22,0,0,1,5,61a2,2,0,0,1,.11.64,1.67,1.67,0,0,1-.19.81,1.23,1.23,0,0,1-.54.54,1.67,1.67,0,0,1-.81.19A1.92,1.92,0,0,1,2.77,63a1.25,1.25,0,0,1-.56-.53,1.71,1.71,0,0,1-.18-.8,1.63,1.63,0,0,1,.1-.59,1,1,0,0,1,.29-.41,1.45,1.45,0,0,1,.5-.23l.1.36a1.16,1.16,0,0,0-.37.17.84.84,0,0,0-.21.29,1.07,1.07,0,0,0-.08.41,1.13,1.13,0,0,0,.09.47.76.76,0,0,0,.22.32A.85.85,0,0,0,3,62.6a1.54,1.54,0,0,0,.61.12,1.48,1.48,0,0,0,.67-.14.86.86,0,0,0,.4-.4,1.25,1.25,0,0,0,.14-.56,1.49,1.49,0,0,0-.1-.51,1.24,1.24,0,0,0-.22-.37H3.9Z"/><path class="cls-10" d="M3.62,59.88a1.61,1.61,0,0,1-1.17-.4,1.34,1.34,0,0,1-.43-1,1.5,1.5,0,0,1,.2-.75,1.32,1.32,0,0,1,.56-.51,1.85,1.85,0,0,1,.8-.17,1.8,1.8,0,0,1,.82.18,1.34,1.34,0,0,1,.55.53,1.52,1.52,0,0,1,.18.73,1.36,1.36,0,0,1-.2.75,1.25,1.25,0,0,1-.56.51A1.65,1.65,0,0,1,3.62,59.88Zm0-.41a1.18,1.18,0,0,0,.86-.29,1,1,0,0,0,0-1.47,1.3,1.3,0,0,0-.9-.29,1.59,1.59,0,0,0-.64.12,1,1,0,0,0-.42.37,1,1,0,0,0-.16.53,1,1,0,0,0,.3.73A1.28,1.28,0,0,0,3.62,59.47Z"/><path class="cls-10" d="M153.64,91.15l-3-1.15v-.43l3-1.23v.45l-.91.35V90.4l.91.33Zm-1.24-.87v-1l-.83.32-.62.21a4,4,0,0,1,.57.16Z"/><path class="cls-10" d="M153.64,87.46l-2.18.83V87.9l1.3-.47.44-.14-.41-.13-1.33-.49v-.38l2.18.83Z"/><path class="cls-10" d="M153.64,85.86h-.42v-.42h.42Z"/><path class="cls-10" d="M152.78,83.79l-.05-.36a.79.79,0,0,0,.48-.13.42.42,0,0,0,.12-.32.46.46,0,0,0-.07-.26.34.34,0,0,0-.18-.15,1.62,1.62,0,0,0-.38,0h-2.07v-.39h2.05a1.5,1.5,0,0,1,.58.09.6.6,0,0,1,.32.29,1,1,0,0,1,.11.46.81.81,0,0,1-.23.61A1,1,0,0,1,152.78,83.79Z"/><path class="cls-10" d="M152.17,81.61A1.62,1.62,0,0,1,151,81.2a1.49,1.49,0,0,1-.22-1.78,1.18,1.18,0,0,1,.55-.51,1.79,1.79,0,0,1,.81-.18,1.74,1.74,0,0,1,.82.19,1.18,1.18,0,0,1,.54.52,1.49,1.49,0,0,1,0,1.49,1.24,1.24,0,0,1-.56.5A1.6,1.6,0,0,1,152.17,81.61Zm0-.41a1.16,1.16,0,0,0,.85-.3,1,1,0,0,0,0-1.47,1.29,1.29,0,0,0-.89-.29,1.48,1.48,0,0,0-.65.13.93.93,0,0,0-.42.36,1,1,0,0,0-.15.53,1,1,0,0,0,.29.73A1.31,1.31,0,0,0,152.18,81.2Z"/><path class="cls-10" d="M153.64,78.55l-3-1.16V77l3-1.24v.46l-.91.35V77.8l.91.33Zm-1.24-.87v-1l-.83.32-.62.21a4,4,0,0,1,.57.16Z"/><path class="cls-10" d="M153.31,73.14a2.67,2.67,0,0,0,.28-.51l.28.11a2.25,2.25,0,0,1-.37.65,1.5,1.5,0,0,1,0,1.48,1.35,1.35,0,0,1-.55.51,1.79,1.79,0,0,1-.81.18,1.85,1.85,0,0,1-.81-.18,1.24,1.24,0,0,1-.55-.51,1.49,1.49,0,0,1-.19-.75,1.44,1.44,0,0,1,.19-.75,1.38,1.38,0,0,1,.56-.51,1.74,1.74,0,0,1,.8-.17,1.78,1.78,0,0,1,.67.11A1.27,1.27,0,0,1,153.31,73.14Zm-.5.87a1.47,1.47,0,0,1,.28-.56,1.2,1.2,0,0,0-1-.35,1.62,1.62,0,0,0-.64.12.93.93,0,0,0-.42.36,1.06,1.06,0,0,0,.15,1.28,1.56,1.56,0,0,0,1.81,0,1,1,0,0,0,.32-.74,1.06,1.06,0,0,0-.08-.4,1.13,1.13,0,0,0-.17.39Z"/><path class="cls-10" d="M150.63,70.18v-.4h1.74a2,2,0,0,1,.72.1.9.9,0,0,1,.43.37,1.32,1.32,0,0,1,.17.7,1.43,1.43,0,0,1-.15.7.86.86,0,0,1-.42.38,1.91,1.91,0,0,1-.75.11h-1.74v-.39h1.73a1.59,1.59,0,0,0,.58-.08.55.55,0,0,0,.29-.25.81.81,0,0,0,.1-.43.86.86,0,0,0-.2-.63,1.18,1.18,0,0,0-.77-.18Z"/><path class="cls-10" d="M153.64,69.05h-3v-.4h3Z"/><path class="cls-10" d="M153.64,68h-3v-.4L153,66h-2.36v-.38h3V66l-2.37,1.58h2.37Z"/><path class="cls-10" d="M152.67,63.89l0-.38a1,1,0,0,0,.37-.12.76.76,0,0,0,.23-.31,1.11,1.11,0,0,0,.09-.46,1,1,0,0,0-.07-.4.51.51,0,0,0-.18-.26.42.42,0,0,0-.26-.08.38.38,0,0,0-.25.08.5.5,0,0,0-.17.27,4.13,4.13,0,0,0-.15.53,2.75,2.75,0,0,1-.19.58.74.74,0,0,1-.28.32.67.67,0,0,1-.37.11.75.75,0,0,1-.43-.13.78.78,0,0,1-.3-.38,1.6,1.6,0,0,1,0-1.14.81.81,0,0,1,.31-.39,1,1,0,0,1,.48-.15l0,.38a.64.64,0,0,0-.44.21.86.86,0,0,0-.14.53.81.81,0,0,0,.13.52.41.41,0,0,0,.32.17.34.34,0,0,0,.27-.12,1.59,1.59,0,0,0,.21-.6,4.38,4.38,0,0,1,.19-.67.92.92,0,0,1,.31-.38.71.71,0,0,1,.43-.13.82.82,0,0,1,.45.14.91.91,0,0,1,.33.39,1.4,1.4,0,0,1,.12.58,1.74,1.74,0,0,1-.12.69,1,1,0,0,1-.36.43A1.11,1.11,0,0,1,152.67,63.89Z"/><path class="cls-10" d="M153.64,60.94h-3V58.77H151v1.77h.92V58.88h.35v1.66h1V58.7h.36Z"/><path class="cls-10" d="M152.58,56l.1-.4a1.41,1.41,0,0,1,.75.45,1.26,1.26,0,0,1,.26.8,1.44,1.44,0,0,1-.2.79,1.2,1.2,0,0,1-.57.46,2,2,0,0,1-.81.16,1.77,1.77,0,0,1-.82-.18,1.24,1.24,0,0,1-.53-.51,1.49,1.49,0,0,1-.18-.73,1.27,1.27,0,0,1,.23-.76,1.22,1.22,0,0,1,.64-.43l.1.4a1,1,0,0,0-.48.3.8.8,0,0,0-.15.5,1,1,0,0,0,.16.58,1,1,0,0,0,.45.33,1.9,1.9,0,0,0,.58.09,2,2,0,0,0,.67-.11.88.88,0,0,0,.43-.35,1,1,0,0,0,.14-.51.88.88,0,0,0-.2-.57A1,1,0,0,0,152.58,56Z"/><path class="cls-10" d="M152.17,55.23a1.61,1.61,0,0,1-1.17-.4,1.37,1.37,0,0,1-.42-1,1.41,1.41,0,0,1,.2-.75,1.29,1.29,0,0,1,.55-.51,1.92,1.92,0,0,1,.81-.17,1.86,1.86,0,0,1,.82.18,1.26,1.26,0,0,1,.54.53,1.49,1.49,0,0,1,0,1.49,1.24,1.24,0,0,1-.56.5A1.59,1.59,0,0,1,152.17,55.23Zm0-.41a1.16,1.16,0,0,0,.85-.29,1,1,0,0,0,0-1.47,1.29,1.29,0,0,0-.89-.29,1.64,1.64,0,0,0-.65.12,1,1,0,0,0-.42.37,1,1,0,0,0-.15.53,1,1,0,0,0,.29.73A1.31,1.31,0,0,0,152.18,54.82Z"/><path class="cls-10" d="M153.64,50.61h-3v-.4h3Z"/><path class="cls-10" d="M153.64,49.53h-3v-.4h2.65V47.65h.36Z"/><path class="cls-10" d="M153.64,47.19h-3V46.8h2.65V45.31h.36Z"/><path class="cls-10" d="M153.64,45.17l-3-1.15v-.43l3-1.23v.45l-.91.35v1.26l.91.33Zm-1.24-.87v-1l-.83.32-.62.21a4,4,0,0,1,.57.16Z"/><path class="cls-10" d="M97.58,24.32v-3h2.17v.36H98v.92h1.66v.35H98v1h1.84v.36Z"/><path class="cls-10" d="M102.78,24.32h-.37V22a2.12,2.12,0,0,1-.35.25,2.3,2.3,0,0,1-.39.19v-.36a1.86,1.86,0,0,0,.54-.35,1.27,1.27,0,0,0,.33-.4h.24Z"/><path class="cls-10" d="M103.72,22.84a2.81,2.81,0,0,1,.11-.86,1.1,1.1,0,0,1,.33-.5.82.82,0,0,1,.54-.18.83.83,0,0,1,.43.1.8.8,0,0,1,.3.28,1.62,1.62,0,0,1,.19.44,3.35,3.35,0,0,1,.07.72,2.83,2.83,0,0,1-.11.85,1.07,1.07,0,0,1-.33.5.81.81,0,0,1-.55.18.83.83,0,0,1-.68-.31A2,2,0,0,1,103.72,22.84Zm.38,0a1.8,1.8,0,0,0,.18,1,.5.5,0,0,0,.42.25.52.52,0,0,0,.43-.25,1.8,1.8,0,0,0,.18-1,1.82,1.82,0,0,0-.18-1,.52.52,0,0,0-.43-.25.5.5,0,0,0-.41.22A2,2,0,0,0,104.1,22.84Z"/><path class="cls-10" d="M108,24v.36h-2a.75.75,0,0,1,0-.26,1.42,1.42,0,0,1,.24-.4,3.64,3.64,0,0,1,.48-.45,4.23,4.23,0,0,0,.67-.64.79.79,0,0,0,.17-.44.51.51,0,0,0-.16-.37.53.53,0,0,0-.41-.16.61.61,0,0,0-.43.16.65.65,0,0,0-.16.45l-.38,0a.89.89,0,0,1,1-.87.92.92,0,0,1,.68.24.79.79,0,0,1,.26.59.94.94,0,0,1-.08.36,1.64,1.64,0,0,1-.24.37c-.12.12-.31.3-.57.52l-.43.38a2.08,2.08,0,0,0-.15.2Z"/><path class="cls-10" d="M108.22,24.37l.87-3.11h.3l-.87,3.11Z"/><path class="cls-10" d="M111.5,24v.36h-2a.57.57,0,0,1,0-.26,1.42,1.42,0,0,1,.24-.4,3.64,3.64,0,0,1,.48-.45,4.23,4.23,0,0,0,.67-.64.79.79,0,0,0,.17-.44.47.47,0,0,0-.16-.37.53.53,0,0,0-.41-.16.59.59,0,0,0-.42.16.65.65,0,0,0-.17.45l-.37,0a.92.92,0,0,1,.29-.65,1,1,0,0,1,.68-.22,1,1,0,0,1,.69.24.78.78,0,0,1,.25.59,1.15,1.15,0,0,1-.07.36,1.72,1.72,0,0,1-.25.37,5.66,5.66,0,0,1-.57.52l-.42.38a1.27,1.27,0,0,0-.16.2Z"/><path class="cls-10" d="M111.9,22.84A2.81,2.81,0,0,1,112,22a1,1,0,0,1,.33-.5.8.8,0,0,1,.54-.18.82.82,0,0,1,.42.1.76.76,0,0,1,.31.28,1.35,1.35,0,0,1,.18.44,3.51,3.51,0,0,1,0,1.57,1.06,1.06,0,0,1-.32.5.85.85,0,0,1-.55.18.81.81,0,0,1-.68-.31A2,2,0,0,1,111.9,22.84Zm.38,0a1.93,1.93,0,0,0,.17,1,.49.49,0,0,0,.86,0,1.93,1.93,0,0,0,.17-1,2,2,0,0,0-.17-1,.54.54,0,0,0-.44-.25.49.49,0,0,0-.4.22A1.88,1.88,0,0,0,112.28,22.84Z"/><path class="cls-10" d="M116.18,24v.36h-2a.75.75,0,0,1,0-.26,1.42,1.42,0,0,1,.24-.4,4.65,4.65,0,0,1,.49-.45,4.54,4.54,0,0,0,.66-.64.79.79,0,0,0,.17-.44.47.47,0,0,0-.16-.37.52.52,0,0,0-.4-.16.61.61,0,0,0-.43.16.61.61,0,0,0-.16.45l-.38,0a.92.92,0,0,1,.29-.65,1,1,0,0,1,.68-.22,1,1,0,0,1,.69.24.78.78,0,0,1,.25.59.92.92,0,0,1-.07.36,1.42,1.42,0,0,1-.25.37,5.66,5.66,0,0,1-.57.52l-.42.38a1.27,1.27,0,0,0-.16.2Z"/><path class="cls-10" d="M98,107.44l-.8-3h.41l.46,2c0,.21.09.42.12.62.08-.32.12-.51.14-.56l.57-2h.48l.43,1.53A7.92,7.92,0,0,1,100,107a5.33,5.33,0,0,1,.15-.65l.47-1.94h.4l-.83,3h-.38l-.63-2.29c-.06-.19-.09-.31-.1-.35,0,.13-.06.25-.09.35l-.64,2.29Z"/><path class="cls-10" d="M103.81,107.44h-.36v-2.35a2.12,2.12,0,0,1-.35.25,2.27,2.27,0,0,1-.39.19v-.35a2.31,2.31,0,0,0,.54-.36,1.46,1.46,0,0,0,.33-.4h.23Z"/><path class="cls-10" d="M104.76,106a2.85,2.85,0,0,1,.11-.86,1,1,0,0,1,.33-.5.8.8,0,0,1,.54-.18.88.88,0,0,1,.43.1.8.8,0,0,1,.3.28,1.32,1.32,0,0,1,.18.45,2.68,2.68,0,0,1,.07.71,2.54,2.54,0,0,1-.11.85,1,1,0,0,1-.32.5.85.85,0,0,1-.55.18.81.81,0,0,1-.68-.31A2,2,0,0,1,104.76,106Zm.38,0a1.93,1.93,0,0,0,.17,1,.49.49,0,0,0,.86,0,1.93,1.93,0,0,0,.17-1,2,2,0,0,0-.17-1,.52.52,0,0,0-.43-.24.48.48,0,0,0-.41.21A1.9,1.9,0,0,0,105.14,106Z"/><path class="cls-10" d="M109,105.17l-.37,0a.69.69,0,0,0-.13-.32.52.52,0,0,0-.37-.16.55.55,0,0,0-.31.1.89.89,0,0,0-.28.37,1.89,1.89,0,0,0-.1.7.76.76,0,0,1,.32-.3.88.88,0,0,1,1,.17,1,1,0,0,1,.26.7,1.07,1.07,0,0,1-.13.53.85.85,0,0,1-.33.37.9.9,0,0,1-.49.13,1,1,0,0,1-.75-.34,1.73,1.73,0,0,1-.29-1.12,2,2,0,0,1,.32-1.26.94.94,0,0,1,.76-.35.8.8,0,0,1,.85.75Zm-1.51,1.3a.8.8,0,0,0,.09.36.54.54,0,0,0,.22.27.59.59,0,0,0,.31.09.54.54,0,0,0,.4-.19.77.77,0,0,0,.17-.51.72.72,0,0,0-.17-.5.57.57,0,0,0-.42-.17.59.59,0,0,0-.42.17A.65.65,0,0,0,107.5,106.47Z"/><path class="cls-10" d="M109.26,107.49l.87-3.11h.3l-.87,3.11Z"/><path class="cls-10" d="M112.54,107.09v.35h-2a.6.6,0,0,1,0-.26,1.42,1.42,0,0,1,.24-.4,3.64,3.64,0,0,1,.48-.45,3.67,3.67,0,0,0,.66-.64.74.74,0,0,0,.18-.44.51.51,0,0,0-.16-.37.65.65,0,0,0-.84,0,.61.61,0,0,0-.16.44l-.38,0a1,1,0,0,1,.3-.65,1,1,0,0,1,.68-.22.94.94,0,0,1,.68.24.79.79,0,0,1,.25.6.87.87,0,0,1-.07.35,1.45,1.45,0,0,1-.24.37c-.12.13-.31.3-.57.53a4.37,4.37,0,0,0-.43.38,1.56,1.56,0,0,0-.16.2Z"/><path class="cls-10" d="M112.94,106a2.89,2.89,0,0,1,.1-.86,1.15,1.15,0,0,1,.33-.5.85.85,0,0,1,.55-.18.82.82,0,0,1,.42.1.8.8,0,0,1,.3.28,1.56,1.56,0,0,1,.19.45,3.18,3.18,0,0,1,.07.71,2.83,2.83,0,0,1-.11.85,1,1,0,0,1-.33.5.8.8,0,0,1-.54.18.84.84,0,0,1-.69-.31A2,2,0,0,1,112.94,106Zm.37,0a1.8,1.8,0,0,0,.18,1,.5.5,0,0,0,.43.25.48.48,0,0,0,.42-.25,1.8,1.8,0,0,0,.18-1,1.82,1.82,0,0,0-.18-1,.51.51,0,0,0-.43-.24.46.46,0,0,0-.4.21A1.88,1.88,0,0,0,113.31,106Z"/><path class="cls-10" d="M117.19,105.17l-.37,0a.68.68,0,0,0-.14-.32.51.51,0,0,0-.37-.16.55.55,0,0,0-.31.1.8.8,0,0,0-.27.37,1.86,1.86,0,0,0-.11.7.78.78,0,0,1,.33-.3.82.82,0,0,1,.4-.1.83.83,0,0,1,.63.27,1,1,0,0,1,.26.7,1.18,1.18,0,0,1-.12.53.82.82,0,0,1-.34.37.86.86,0,0,1-.48.13.92.92,0,0,1-.75-.34,1.67,1.67,0,0,1-.29-1.12,1.94,1.94,0,0,1,.32-1.26.92.92,0,0,1,.75-.35.9.9,0,0,1,.59.2A.85.85,0,0,1,117.19,105.17Zm-1.51,1.3a.94.94,0,0,0,.08.36.56.56,0,0,0,.23.27.55.55,0,0,0,.3.09.56.56,0,0,0,.41-.19.76.76,0,0,0,.16-.51.72.72,0,0,0-.16-.5.57.57,0,0,0-.42-.17.61.61,0,0,0-.43.17A.69.69,0,0,0,115.68,106.47Z"/><polyline class="cls-9" points="88.33 53.21 107.81 53.21 107.81 55.51 112.14 55.51 112.14 53.21 115.83 53.21 115.83 54.61 120.41 54.61 120.41 53.21 123.85 53.21 123.85 55.51 129.58 55.51 129.58 33.23 111.88 33.23 111.88 35.14 88.33 35.14 88.33 53.21"/><polyline class="cls-9" points="111.88 33.23 129.58 33.23 129.58 10.7 123.85 10.7 123.85 12.99 120.41 12.99 120.41 11.59 115.83 11.59 115.83 12.99 112.14 12.99 112.14 10.7 107.81 10.7 107.81 12.99 88.84 12.99 88.84 16.04 80.57 16.04 80.57 31.19 111.88 31.19 111.88 33.23"/><line class="cls-9" x1="112.14" y1="10.7" x2="123.85" y2="10.7"/><polyline class="cls-9" points="112.65 11.46 112.14 11.33 123.85 11.33"/><line class="cls-9" x1="112.9" y1="11.59" x2="113.41" y2="11.84"/><line class="cls-9" x1="113.67" y1="11.97" x2="114.18" y2="12.23"/><line class="cls-9" x1="114.56" y1="12.35" x2="115.07" y2="12.61"/><line class="cls-9" x1="115.32" y1="12.73" x2="115.83" y2="12.99"/><line class="cls-9" x1="112.14" y1="12.99" x2="112.65" y2="12.73"/><line class="cls-9" x1="112.9" y1="12.61" x2="113.41" y2="12.35"/><line class="cls-9" x1="113.67" y1="12.22" x2="114.18" y2="11.97"/><line class="cls-9" x1="114.56" y1="11.84" x2="115.07" y2="11.59"/><line class="cls-9" x1="115.32" y1="11.46" x2="115.83" y2="11.33"/><line class="cls-9" x1="120.41" y1="11.33" x2="120.8" y2="11.46"/><line class="cls-9" x1="121.05" y1="11.59" x2="121.56" y2="11.84"/><line class="cls-9" x1="121.81" y1="11.97" x2="122.45" y2="12.23"/><line class="cls-9" x1="122.7" y1="12.35" x2="123.21" y2="12.61"/><line class="cls-9" x1="123.47" y1="12.73" x2="123.85" y2="12.99"/><line class="cls-9" x1="120.41" y1="12.99" x2="120.8" y2="12.73"/><line class="cls-9" x1="121.05" y1="12.61" x2="121.56" y2="12.35"/><line class="cls-9" x1="121.81" y1="12.22" x2="122.45" y2="11.97"/><line class="cls-9" x1="122.7" y1="11.84" x2="123.21" y2="11.59"/><line class="cls-9" x1="123.47" y1="11.46" x2="123.85" y2="11.33"/><line class="cls-9" x1="112.14" y1="55.51" x2="123.85" y2="55.51"/><polyline class="cls-9" points="112.65 54.74 112.14 55 123.85 55"/><line class="cls-9" x1="112.9" y1="54.61" x2="113.41" y2="54.36"/><line class="cls-9" x1="113.67" y1="54.23" x2="114.18" y2="53.98"/><line class="cls-9" x1="114.56" y1="53.85" x2="115.07" y2="53.6"/><line class="cls-9" x1="115.32" y1="53.47" x2="115.83" y2="53.21"/><line class="cls-9" x1="112.14" y1="53.21" x2="112.65" y2="53.47"/><line class="cls-9" x1="112.9" y1="53.6" x2="113.41" y2="53.85"/><line class="cls-9" x1="113.67" y1="53.98" x2="114.18" y2="54.23"/><line class="cls-9" x1="114.56" y1="54.36" x2="115.07" y2="54.61"/><line class="cls-9" x1="115.32" y1="54.74" x2="115.83" y2="55"/><line class="cls-9" x1="120.41" y1="55" x2="120.8" y2="54.74"/><line class="cls-9" x1="121.05" y1="54.61" x2="121.56" y2="54.36"/><line class="cls-9" x1="121.81" y1="54.23" x2="122.45" y2="53.98"/><line class="cls-9" x1="122.7" y1="53.85" x2="123.21" y2="53.6"/><line class="cls-9" x1="123.47" y1="53.47" x2="123.85" y2="53.21"/><line class="cls-9" x1="120.41" y1="53.21" x2="120.8" y2="53.47"/><line class="cls-9" x1="121.05" y1="53.6" x2="121.56" y2="53.85"/><line class="cls-9" x1="121.81" y1="53.98" x2="122.45" y2="54.23"/><line class="cls-9" x1="122.7" y1="54.36" x2="123.21" y2="54.61"/><line class="cls-9" x1="123.47" y1="54.74" x2="123.85" y2="55"/><polyline class="cls-9" points="88.33 75.49 107.81 75.49 107.81 73.33 112.14 73.33 112.14 75.49 115.83 75.49 115.83 74.22 120.41 74.22 120.41 75.49 123.85 75.49 123.85 73.33 129.58 73.33 129.58 95.6 111.88 95.6 111.88 93.69 88.33 93.69 88.33 75.49"/><polyline class="cls-9" points="111.88 95.6 129.58 95.6 129.58 118.01 123.85 118.01 123.85 115.84 120.41 115.84 120.41 117.12 115.83 117.12 115.83 115.84 112.14 115.84 112.14 118.01 107.81 118.01 107.81 115.84 88.84 115.84 88.84 112.66 80.57 112.66 80.57 97.51 111.88 97.51 111.88 95.6"/><line class="cls-9" x1="112.14" y1="118.01" x2="123.85" y2="118.01"/><polyline class="cls-9" points="112.65 117.24 112.14 117.5 123.85 117.5"/><line class="cls-9" x1="112.9" y1="117.12" x2="113.41" y2="116.86"/><line class="cls-9" x1="113.67" y1="116.73" x2="114.18" y2="116.48"/><line class="cls-9" x1="114.56" y1="116.35" x2="115.07" y2="116.1"/><line class="cls-9" x1="115.32" y1="115.97" x2="115.83" y2="115.84"/><line class="cls-9" x1="112.14" y1="115.84" x2="112.65" y2="115.97"/><line class="cls-9" x1="112.9" y1="116.1" x2="113.41" y2="116.35"/><line class="cls-9" x1="113.67" y1="116.48" x2="114.18" y2="116.73"/><line class="cls-9" x1="114.56" y1="116.86" x2="115.07" y2="117.12"/><line class="cls-9" x1="115.32" y1="117.24" x2="115.83" y2="117.5"/><line class="cls-9" x1="120.41" y1="117.5" x2="120.8" y2="117.24"/><line class="cls-9" x1="121.05" y1="117.12" x2="121.56" y2="116.86"/><line class="cls-9" x1="121.81" y1="116.73" x2="122.45" y2="116.48"/><line class="cls-9" x1="122.7" y1="116.35" x2="123.21" y2="116.1"/><line class="cls-9" x1="123.47" y1="115.97" x2="123.85" y2="115.84"/><line class="cls-9" x1="120.41" y1="115.84" x2="120.8" y2="115.97"/><line class="cls-9" x1="121.05" y1="116.1" x2="121.56" y2="116.35"/><line class="cls-9" x1="121.81" y1="116.48" x2="122.45" y2="116.73"/><line class="cls-9" x1="122.7" y1="116.86" x2="123.21" y2="117.12"/><line class="cls-9" x1="123.47" y1="117.24" x2="123.85" y2="117.5"/><line class="cls-9" x1="112.14" y1="73.33" x2="123.85" y2="73.33"/><polyline class="cls-9" points="112.65 74.09 112.14 73.84 123.85 73.84"/><line class="cls-9" x1="112.9" y1="74.22" x2="113.41" y2="74.47"/><line class="cls-9" x1="113.67" y1="74.6" x2="114.18" y2="74.85"/><line class="cls-9" x1="114.56" y1="74.98" x2="115.07" y2="75.24"/><line class="cls-9" x1="115.32" y1="75.36" x2="115.83" y2="75.49"/><line class="cls-9" x1="112.14" y1="75.49" x2="112.65" y2="75.36"/><line class="cls-9" x1="112.9" y1="75.24" x2="113.41" y2="74.98"/><line class="cls-9" x1="113.67" y1="74.85" x2="114.18" y2="74.6"/><line class="cls-9" x1="114.56" y1="74.47" x2="115.07" y2="74.22"/><line class="cls-9" x1="115.32" y1="74.09" x2="115.83" y2="73.84"/><line class="cls-9" x1="120.41" y1="73.84" x2="120.8" y2="73.96"/><line class="cls-9" x1="121.05" y1="74.09" x2="121.56" y2="74.47"/><line class="cls-9" x1="121.81" y1="74.6" x2="122.45" y2="74.85"/><line class="cls-9" x1="122.7" y1="74.98" x2="123.21" y2="75.24"/><line class="cls-9" x1="123.47" y1="75.36" x2="123.85" y2="75.49"/><line class="cls-9" x1="120.41" y1="75.49" x2="120.8" y2="75.36"/><line class="cls-9" x1="121.05" y1="75.24" x2="121.56" y2="74.98"/><line class="cls-9" x1="121.81" y1="74.85" x2="122.45" y2="74.6"/><line class="cls-9" x1="122.7" y1="74.47" x2="123.21" y2="74.09"/><line class="cls-9" x1="123.47" y1="73.96" x2="123.85" y2="73.84"/></g></g></svg>