<svg id="Capa_1" data-name="Capa 1" xmlns="http://www.w3.org/2000/svg" xmlns:xlink="http://www.w3.org/1999/xlink" viewBox="0 0 168.88 120.34"><defs><style>.cls-1,.cls-4,.cls-6,.cls-7,.cls-9{fill:none;}.cls-2{clip-path:url(#clip-path);}.cls-3{clip-path:url(#clip-path-3);}.cls-4,.cls-7,.cls-9{stroke:#63666b;stroke-linecap:round;}.cls-4,.cls-6,.cls-7,.cls-9{stroke-miterlimit:10;}.cls-4{stroke-width:0.26px;}.cls-5{fill:#ebebeb;}.cls-6{stroke:#ebebeb;}.cls-6,.cls-9{stroke-width:0;}.cls-7{stroke-width:0.25px;}.cls-8{fill:#63666b;}.cls-10{clip-path:url(#clip-path-4);}</style><clipPath id="clip-path"><rect class="cls-1" x="-72.66" y="-530.5" width="1190.55" height="841.89"/></clipPath><clipPath id="clip-path-3"><rect class="cls-1" x="265.73" y="-402.47" width="781.3" height="585.83"/></clipPath><clipPath id="clip-path-4"><rect class="cls-1" x="0.45" y="0.04" width="168.43" height="120.3"/></clipPath></defs><title>E204S</title><g class="cls-2"><g class="cls-2"><g class="cls-3"><rect class="cls-4" x="142.34" y="-436.9" width="925.95" height="654.66"/></g><path class="cls-5" d="M43.7,43.92l14.52,5.6H43.7Zm14.52,0H43.7l14.52,5.6Z"/><path class="cls-6" d="M43.7,43.92l14.52,5.6H43.7Zm14.52,0H43.7l14.52,5.6Z"/><path class="cls-5" d="M24.23,49.52l34,2.55h-34Zm34,0h-34l34,2.55Z"/><path class="cls-6" d="M24.23,49.52l34,2.55h-34Zm34,0h-34l34,2.55Z"/><path class="cls-5" d="M25.63,52.07l32.59,1.78H25.63Zm32.59,0H25.63l32.59,1.78Z"/><path class="cls-6" d="M25.63,52.07l32.59,1.78H25.63Zm32.59,0H25.63l32.59,1.78Z"/><path class="cls-5" d="M25.63,53.85,60.38,63.4H25.63Zm34.75,0H25.63L60.38,63.4Z"/><path class="cls-6" d="M25.63,53.85,60.38,63.4H25.63Zm34.75,0H25.63L60.38,63.4Z"/><path class="cls-5" d="M25.63,63.4l32.59,7.76H25.63Zm32.59,0H25.63l32.59,7.76Z"/><path class="cls-6" d="M25.63,63.4l32.59,7.76H25.63Zm32.59,0H25.63l32.59,7.76Z"/><path class="cls-5" d="M25.63,71.16l34.75,5.09H25.63Zm34.75,0H25.63l34.75,5.09Z"/><path class="cls-6" d="M25.63,71.16l34.75,5.09H25.63Zm34.75,0H25.63l34.75,5.09Z"/><path class="cls-5" d="M25.63,76.25l32.59,3.06H25.63Zm32.59,0H25.63l32.59,3.06Z"/><path class="cls-6" d="M25.63,76.25l32.59,3.06H25.63Zm32.59,0H25.63l32.59,3.06Z"/><path class="cls-5" d="M43.7,79.31l14.52,5.6H43.7Zm14.52,0H43.7l14.52,5.6Z"/><path class="cls-6" d="M43.7,79.31l14.52,5.6H43.7Zm14.52,0H43.7l14.52,5.6Z"/><path class="cls-5" d="M43.7,84.91l4.46,4.71H43.7Zm4.46,0H43.7l4.46,4.71Z"/><path class="cls-6" d="M43.7,84.91l4.46,4.71H43.7Zm4.46,0H43.7l4.46,4.71Z"/><polyline class="cls-7" points="81 16.04 71.45 16.04 71.45 12.99 37.98 12.99 37.98 11.59 33.39 11.59 33.39 12.99 29.45 12.99 29.45 26.48 23.08 26.48 23.08 47.23 24.23 47.23 24.23 49.52 43.7 49.52 43.7 43.92 43.83 43.92 43.83 31.19 81 31.19 81 16.04"/><polyline class="cls-7" points="43.7 43.92 58.22 43.92 58.22 53.85 60.38 53.85 60.38 63.4 58.22 63.4 58.22 71.16 60.38 71.16 60.38 76.25 58.22 76.25 58.22 84.91 48.16 84.91 48.16 89.62 43.7 89.62 43.7 79.31 25.63 79.31 25.63 52.07 24.23 52.07 24.23 49.52 43.7 49.52 43.7 43.92"/><polyline class="cls-7" points="81 112.66 71.45 112.66 71.45 115.84 37.98 115.84 37.98 117.12 33.39 117.12 33.39 115.84 29.45 115.84 29.45 102.22 23.08 102.22 23.08 81.47 24.23 81.47 24.23 79.31 43.7 79.31 43.7 84.91 43.83 84.91 43.83 97.51 81 97.51 81 112.66"/><polyline class="cls-7" points="88.77 35.65 78.71 35.65 78.71 44.43 67.51 44.43 67.51 35.65 60.89 35.65 60.89 44.43 58.22 44.43"/><line class="cls-7" x1="60.89" y1="43.92" x2="67.51" y2="43.92"/><line class="cls-7" x1="67.51" y1="44.43" x2="60.89" y2="44.43"/><line class="cls-7" x1="78.71" y1="44.43" x2="88.77" y2="44.43"/><line class="cls-7" x1="88.77" y1="43.92" x2="78.71" y2="43.92"/><line class="cls-7" x1="60.38" y1="44.43" x2="60.38" y2="84.27"/><line class="cls-7" x1="60.89" y1="84.27" x2="60.89" y2="44.43"/><polyline class="cls-7" points="88.77 93.06 78.71 93.06 78.71 84.28 67.51 84.28 67.51 93.06 60.89 93.06 60.89 84.28 58.22 84.28"/><line class="cls-7" x1="60.89" y1="84.91" x2="67.51" y2="84.91"/><line class="cls-7" x1="67.51" y1="84.27" x2="60.89" y2="84.27"/><line class="cls-7" x1="78.71" y1="84.27" x2="88.77" y2="84.27"/><line class="cls-7" x1="88.77" y1="84.91" x2="78.71" y2="84.91"/><line class="cls-7" x1="60.89" y1="35.65" x2="61.27" y2="36.16"/><line class="cls-7" x1="61.53" y1="36.41" x2="61.91" y2="36.92"/><line class="cls-7" x1="62.03" y1="37.05" x2="62.42" y2="37.56"/><line class="cls-7" x1="62.54" y1="37.81" x2="62.92" y2="38.32"/><line class="cls-7" x1="63.18" y1="38.45" x2="63.56" y2="38.96"/><line class="cls-7" x1="63.69" y1="39.21" x2="64.07" y2="39.72"/><line class="cls-7" x1="64.33" y1="39.97" x2="64.71" y2="40.36"/><line class="cls-7" x1="64.84" y1="40.61" x2="65.22" y2="41.12"/><line class="cls-7" x1="65.47" y1="41.37" x2="65.73" y2="41.76"/><line class="cls-7" x1="65.98" y1="42.01" x2="66.36" y2="42.52"/><line class="cls-7" x1="66.49" y1="42.78" x2="66.87" y2="43.16"/><line class="cls-7" x1="67.13" y1="43.41" x2="67.51" y2="43.92"/><line class="cls-7" x1="60.89" y1="43.92" x2="61.27" y2="43.41"/><line class="cls-7" x1="61.53" y1="43.16" x2="61.91" y2="42.78"/><line class="cls-7" x1="62.03" y1="42.52" x2="62.42" y2="42.01"/><line class="cls-7" x1="62.54" y1="41.76" x2="62.92" y2="41.38"/><line class="cls-7" x1="63.18" y1="41.12" x2="63.56" y2="40.61"/><line class="cls-7" x1="63.69" y1="40.36" x2="64.07" y2="39.97"/><line class="cls-7" x1="64.33" y1="39.72" x2="64.71" y2="39.21"/><line class="cls-7" x1="64.84" y1="38.96" x2="65.22" y2="38.45"/><line class="cls-7" x1="65.47" y1="38.32" x2="65.73" y2="37.81"/><line class="cls-7" x1="65.98" y1="37.56" x2="66.36" y2="37.05"/><line class="cls-7" x1="66.49" y1="36.92" x2="66.87" y2="36.41"/><line class="cls-7" x1="67.13" y1="36.16" x2="67.51" y2="35.65"/><line class="cls-7" x1="78.71" y1="35.65" x2="79.09" y2="36.03"/><line class="cls-7" x1="79.35" y1="36.16" x2="79.85" y2="36.54"/><line class="cls-7" x1="79.98" y1="36.79" x2="80.49" y2="37.17"/><line class="cls-7" x1="80.75" y1="37.3" x2="81.26" y2="37.68"/><line class="cls-7" x1="81.38" y1="37.94" x2="81.89" y2="38.32"/><line class="cls-7" x1="82.15" y1="38.45" x2="82.66" y2="38.83"/><line class="cls-7" x1="82.78" y1="39.08" x2="83.29" y2="39.47"/><line class="cls-7" x1="83.55" y1="39.59" x2="84.06" y2="39.98"/><line class="cls-7" x1="84.18" y1="40.23" x2="84.69" y2="40.61"/><line class="cls-7" x1="84.95" y1="40.74" x2="85.46" y2="41.12"/><line class="cls-7" x1="85.58" y1="41.37" x2="86.09" y2="41.76"/><line class="cls-7" x1="86.35" y1="41.88" x2="86.73" y2="42.27"/><line class="cls-7" x1="86.98" y1="42.52" x2="87.49" y2="42.9"/><line class="cls-7" x1="87.75" y1="43.03" x2="88.13" y2="43.41"/><line class="cls-7" x1="88.38" y1="43.67" x2="88.77" y2="43.92"/><line class="cls-7" x1="88.77" y1="35.65" x2="88.38" y2="36.03"/><line class="cls-7" x1="88.13" y1="36.16" x2="87.75" y2="36.54"/><line class="cls-7" x1="87.49" y1="36.79" x2="86.99" y2="37.17"/><line class="cls-7" x1="86.73" y1="37.3" x2="86.35" y2="37.68"/><line class="cls-7" x1="86.09" y1="37.94" x2="85.58" y2="38.32"/><line class="cls-7" x1="85.46" y1="38.45" x2="84.95" y2="38.83"/><line class="cls-7" x1="84.69" y1="39.08" x2="84.18" y2="39.47"/><line class="cls-7" x1="84.06" y1="39.59" x2="83.55" y2="39.98"/><line class="cls-7" x1="83.29" y1="40.23" x2="82.78" y2="40.61"/><line class="cls-7" x1="82.66" y1="40.74" x2="82.15" y2="41.12"/><line class="cls-7" x1="81.89" y1="41.37" x2="81.38" y2="41.76"/><line class="cls-7" x1="81.26" y1="41.88" x2="80.75" y2="42.27"/><line class="cls-7" x1="80.49" y1="42.52" x2="79.98" y2="42.9"/><line class="cls-7" x1="79.86" y1="43.03" x2="79.35" y2="43.41"/><line class="cls-7" x1="79.09" y1="43.67" x2="78.71" y2="43.92"/><line class="cls-7" x1="58.22" y1="53.85" x2="60.38" y2="44.43"/><line class="cls-7" x1="58.22" y1="44.43" x2="60.38" y2="53.85"/><line class="cls-7" x1="58.22" y1="63.4" x2="58.47" y2="64.16"/><line class="cls-7" x1="58.6" y1="64.42" x2="58.72" y2="64.92"/><line class="cls-7" x1="58.72" y1="65.31" x2="58.98" y2="65.82"/><line class="cls-7" x1="58.98" y1="66.2" x2="59.11" y2="66.71"/><line class="cls-7" x1="59.23" y1="66.96" x2="59.36" y2="67.6"/><line class="cls-7" x1="59.49" y1="67.85" x2="59.61" y2="68.49"/><line class="cls-7" x1="59.74" y1="68.74" x2="59.87" y2="69.38"/><line class="cls-7" x1="60" y1="69.64" x2="60.12" y2="70.27"/><line class="cls-7" x1="60.12" y1="70.53" x2="60.38" y2="71.16"/><line class="cls-7" x1="58.22" y1="71.16" x2="58.47" y2="70.53"/><line class="cls-7" x1="58.6" y1="70.27" x2="58.72" y2="69.64"/><line class="cls-7" x1="58.72" y1="69.38" x2="58.98" y2="68.74"/><line class="cls-7" x1="58.98" y1="68.49" x2="59.11" y2="67.85"/><line class="cls-7" x1="59.23" y1="67.6" x2="59.36" y2="66.96"/><line class="cls-7" x1="59.49" y1="66.71" x2="59.61" y2="66.2"/><line class="cls-7" x1="59.74" y1="65.82" x2="59.87" y2="65.31"/><line class="cls-7" x1="60" y1="64.92" x2="60.12" y2="64.42"/><line class="cls-7" x1="60.12" y1="64.16" x2="60.38" y2="63.4"/><line class="cls-7" x1="60.89" y1="93.06" x2="61.27" y2="92.68"/><line class="cls-7" x1="61.53" y1="92.42" x2="61.91" y2="91.91"/><line class="cls-7" x1="62.03" y1="91.66" x2="62.42" y2="91.15"/><line class="cls-7" x1="62.54" y1="91.02" x2="62.92" y2="90.51"/><line class="cls-7" x1="63.18" y1="90.26" x2="63.56" y2="89.75"/><line class="cls-7" x1="63.69" y1="89.62" x2="64.07" y2="89.11"/><line class="cls-7" x1="64.33" y1="88.86" x2="64.71" y2="88.35"/><line class="cls-7" x1="64.84" y1="88.09" x2="65.22" y2="87.71"/><line class="cls-7" x1="65.47" y1="87.46" x2="65.73" y2="86.95"/><line class="cls-7" x1="65.98" y1="86.69" x2="66.36" y2="86.31"/><line class="cls-7" x1="66.49" y1="86.06" x2="66.87" y2="85.55"/><line class="cls-7" x1="67.13" y1="85.29" x2="67.51" y2="84.91"/><line class="cls-7" x1="60.89" y1="84.91" x2="61.27" y2="85.29"/><line class="cls-7" x1="61.53" y1="85.55" x2="61.91" y2="86.06"/><line class="cls-7" x1="62.03" y1="86.31" x2="62.42" y2="86.69"/><line class="cls-7" x1="62.54" y1="86.95" x2="62.92" y2="87.46"/><line class="cls-7" x1="63.18" y1="87.71" x2="63.56" y2="88.09"/><line class="cls-7" x1="63.69" y1="88.35" x2="64.07" y2="88.86"/><line class="cls-7" x1="64.33" y1="89.11" x2="64.71" y2="89.62"/><line class="cls-7" x1="64.84" y1="89.75" x2="65.22" y2="90.26"/><line class="cls-7" x1="65.47" y1="90.51" x2="65.73" y2="91.02"/><line class="cls-7" x1="65.98" y1="91.15" x2="66.36" y2="91.66"/><line class="cls-7" x1="66.49" y1="91.91" x2="66.87" y2="92.42"/><line class="cls-7" x1="67.13" y1="92.68" x2="67.51" y2="93.06"/><line class="cls-7" x1="78.71" y1="93.06" x2="79.09" y2="92.8"/><line class="cls-7" x1="79.35" y1="92.55" x2="79.85" y2="92.17"/><line class="cls-7" x1="79.98" y1="92.04" x2="80.49" y2="91.66"/><line class="cls-7" x1="80.75" y1="91.4" x2="81.26" y2="91.02"/><line class="cls-7" x1="81.38" y1="90.89" x2="81.89" y2="90.51"/><line class="cls-7" x1="82.15" y1="90.26" x2="82.66" y2="89.87"/><line class="cls-7" x1="82.78" y1="89.75" x2="83.29" y2="89.37"/><line class="cls-7" x1="83.55" y1="89.11" x2="84.06" y2="88.73"/><line class="cls-7" x1="84.18" y1="88.6" x2="84.69" y2="88.22"/><line class="cls-7" x1="84.95" y1="87.97" x2="85.46" y2="87.58"/><line class="cls-7" x1="85.58" y1="87.46" x2="86.09" y2="87.07"/><line class="cls-7" x1="86.35" y1="86.82" x2="86.73" y2="86.44"/><line class="cls-7" x1="86.98" y1="86.31" x2="87.49" y2="85.93"/><line class="cls-7" x1="87.75" y1="85.67" x2="88.13" y2="85.29"/><line class="cls-7" x1="88.38" y1="85.16" x2="88.77" y2="84.91"/><line class="cls-7" x1="78.71" y1="84.91" x2="79.09" y2="85.17"/><line class="cls-7" x1="79.35" y1="85.29" x2="79.85" y2="85.67"/><line class="cls-7" x1="79.98" y1="85.93" x2="80.49" y2="86.31"/><line class="cls-7" x1="80.75" y1="86.44" x2="81.26" y2="86.82"/><line class="cls-7" x1="81.38" y1="87.07" x2="81.89" y2="87.46"/><line class="cls-7" x1="82.15" y1="87.58" x2="82.66" y2="87.96"/><line class="cls-7" x1="82.78" y1="88.22" x2="83.29" y2="88.6"/><line class="cls-7" x1="83.55" y1="88.73" x2="84.06" y2="89.11"/><line class="cls-7" x1="84.18" y1="89.37" x2="84.69" y2="89.75"/><line class="cls-7" x1="84.95" y1="89.87" x2="85.46" y2="90.26"/><line class="cls-7" x1="85.58" y1="90.51" x2="86.09" y2="90.89"/><line class="cls-7" x1="86.35" y1="91.02" x2="86.73" y2="91.4"/><line class="cls-7" x1="86.98" y1="91.66" x2="87.49" y2="92.04"/><line class="cls-7" x1="87.75" y1="92.17" x2="88.13" y2="92.55"/><line class="cls-7" x1="88.38" y1="92.8" x2="88.77" y2="93.06"/><line class="cls-7" x1="58.22" y1="84.27" x2="58.34" y2="83.89"/><line class="cls-7" x1="58.47" y1="83.64" x2="58.6" y2="83"/><line class="cls-7" x1="58.72" y1="82.75" x2="58.85" y2="82.11"/><line class="cls-7" x1="58.85" y1="81.86" x2="59.11" y2="81.35"/><line class="cls-7" x1="59.11" y1="80.96" x2="59.23" y2="80.46"/><line class="cls-7" x1="59.36" y1="80.07" x2="59.49" y2="79.56"/><line class="cls-7" x1="59.62" y1="79.31" x2="59.74" y2="78.67"/><line class="cls-7" x1="59.87" y1="78.42" x2="60" y2="77.78"/><line class="cls-7" x1="60" y1="77.53" x2="60.12" y2="76.89"/><line class="cls-7" x1="60.25" y1="76.64" x2="60.38" y2="76.25"/><line class="cls-7" x1="58.22" y1="76.25" x2="58.34" y2="76.64"/><line class="cls-7" x1="58.47" y1="76.89" x2="58.6" y2="77.53"/><line class="cls-7" x1="58.72" y1="77.78" x2="58.85" y2="78.42"/><line class="cls-7" x1="58.85" y1="78.67" x2="59.11" y2="79.31"/><line class="cls-7" x1="59.11" y1="79.56" x2="59.23" y2="80.07"/><line class="cls-7" x1="59.36" y1="80.45" x2="59.49" y2="80.96"/><line class="cls-7" x1="59.62" y1="81.35" x2="59.74" y2="81.85"/><line class="cls-7" x1="59.87" y1="82.11" x2="60" y2="82.75"/><line class="cls-7" x1="60" y1="83" x2="60.12" y2="83.64"/><line class="cls-7" x1="60.25" y1="83.89" x2="60.38" y2="84.27"/><path class="cls-8" d="M44.42,25.34v-3h2.17v.36H44.82v.92h1.66V24H44.82v1h1.84v.36Z"/><path class="cls-8" d="M49.62,25.34h-.37V23a2.12,2.12,0,0,1-.35.26,2.3,2.3,0,0,1-.39.19v-.36a1.86,1.86,0,0,0,.54-.35,1.27,1.27,0,0,0,.33-.4h.24Z"/><path class="cls-8" d="M50.57,23.85a2.82,2.82,0,0,1,.1-.85,1.19,1.19,0,0,1,.33-.51.87.87,0,0,1,.54-.17.83.83,0,0,1,.43.1.73.73,0,0,1,.3.28,1.62,1.62,0,0,1,.19.44,3.41,3.41,0,0,1,.06.71,2.89,2.89,0,0,1-.1.86,1.07,1.07,0,0,1-.33.5.83.83,0,0,1-.55.18.85.85,0,0,1-.68-.31A2,2,0,0,1,50.57,23.85Zm.37,0a1.82,1.82,0,0,0,.18,1,.49.49,0,0,0,.85,0,1.82,1.82,0,0,0,.18-1,1.8,1.8,0,0,0-.18-1,.52.52,0,0,0-.43-.25.5.5,0,0,0-.41.22A2,2,0,0,0,50.94,23.85Z"/><path class="cls-8" d="M52.9,24.54l.37-.05a.86.86,0,0,0,.22.46.53.53,0,0,0,.37.14.61.61,0,0,0,.44-.19.59.59,0,0,0,.18-.44.58.58,0,0,0-.59-.59,1.66,1.66,0,0,0-.26,0l0-.32h.06a.8.8,0,0,0,.43-.12.49.49,0,0,0,.05-.71.51.51,0,0,0-.36-.14.52.52,0,0,0-.36.14.71.71,0,0,0-.18.4l-.37-.06a1,1,0,0,1,.31-.58.92.92,0,0,1,.59-.2,1,1,0,0,1,.46.1.79.79,0,0,1,.31.29.68.68,0,0,1,.11.39.6.6,0,0,1-.1.35.67.67,0,0,1-.31.26.69.69,0,0,1,.41.25.79.79,0,0,1,.15.49.91.91,0,0,1-.28.67,1,1,0,0,1-.73.27.93.93,0,0,1-1-.85Z"/><path class="cls-8" d="M55.06,25.39l.87-3.11h.3l-.87,3.11Z"/><path class="cls-8" d="M58.34,25v.36h-2a.57.57,0,0,1,0-.26,1.42,1.42,0,0,1,.24-.4,3.82,3.82,0,0,1,.49-.45,4.54,4.54,0,0,0,.66-.64.82.82,0,0,0,.17-.45.5.5,0,0,0-.16-.37.56.56,0,0,0-.41-.15.59.59,0,0,0-.42.16.61.61,0,0,0-.16.45l-.38,0a.9.9,0,0,1,.29-.65,1,1,0,0,1,.68-.22,1,1,0,0,1,.69.24.82.82,0,0,1,.25.59.78.78,0,0,1-.08.36,1.35,1.35,0,0,1-.24.37,5.66,5.66,0,0,1-.57.52l-.43.38-.15.2Z"/><path class="cls-8" d="M58.74,23.85a2.78,2.78,0,0,1,.11-.85,1.09,1.09,0,0,1,.32-.51.9.9,0,0,1,.55-.17.82.82,0,0,1,.42.1.7.7,0,0,1,.31.28,1.62,1.62,0,0,1,.18.44,2.78,2.78,0,0,1,.07.71,2.85,2.85,0,0,1-.11.86,1.06,1.06,0,0,1-.32.5.85.85,0,0,1-.55.18.83.83,0,0,1-.68-.31A2,2,0,0,1,58.74,23.85Zm.38,0a2,2,0,0,0,.17,1,.49.49,0,0,0,.86,0,2,2,0,0,0,.17-1,1.93,1.93,0,0,0-.17-1,.53.53,0,0,0-.43-.25.49.49,0,0,0-.41.22A1.86,1.86,0,0,0,59.12,23.85Z"/><path class="cls-8" d="M61.08,24.54l.37-.05a.86.86,0,0,0,.21.46.55.55,0,0,0,.37.14.64.64,0,0,0,.45-.19.63.63,0,0,0,.18-.44.58.58,0,0,0-.59-.59,1.51,1.51,0,0,0-.26,0l0-.32h.06a.79.79,0,0,0,.42-.12.41.41,0,0,0,.19-.38.44.44,0,0,0-.14-.33.48.48,0,0,0-.35-.14.49.49,0,0,0-.36.14.66.66,0,0,0-.19.4l-.37-.06a1,1,0,0,1,.31-.58.92.92,0,0,1,.6-.2,1,1,0,0,1,.45.1.75.75,0,0,1,.32.29.77.77,0,0,1,.11.39.61.61,0,0,1-.11.35.67.67,0,0,1-.31.26.75.75,0,0,1,.42.25.79.79,0,0,1,.15.49.92.92,0,0,1-.29.67,1,1,0,0,1-.73.27.92.92,0,0,1-.65-.24A.86.86,0,0,1,61.08,24.54Z"/><path class="cls-8" d="M156.49,13.24,154.58,1.15H155Zm-.26.13.26-.13L154.58,1.15Z"/><path class="cls-9" d="M156.49,13.24,154.58,1.15H155Zm-.26.13.26-.13L154.58,1.15Z"/><line class="cls-7" x1="157.76" y1="24.19" x2="156.36" y2="13.24"/><path class="cls-8" d="M157.25,13.12,156,6.24h.38Zm-.38.12.38-.12L156,6.24Z"/><path class="cls-9" d="M157.25,13.12,156,6.24h.38Zm-.38.12.38-.12L156,6.24Z"/><path class="cls-8" d="M155.85,13.37,154.58,6.5l.38-.13Zm-.38,0h.38L154.58,6.5Z"/><path class="cls-9" d="M155.85,13.37,154.58,6.5l.38-.13Zm-.38,0h.38L154.58,6.5Z"/><line class="cls-7" x1="157.51" y1="24.32" x2="157.25" y2="22.92"/><line class="cls-7" x1="148.09" y1="14.77" x2="146.3" y2="15.03"/><line class="cls-7" x1="166.54" y1="12.35" x2="164.63" y2="12.61"/><line class="cls-7" x1="166.54" y1="11.97" x2="146.18" y2="14.64"/><g class="cls-10"><path class="cls-7" d="M163.81,12.19a7.57,7.57,0,1,0-6.52,8.5,7.58,7.58,0,0,0,6.52-8.5"/><path class="cls-7" d="M163.3,12.26a7.07,7.07,0,1,0-6.08,7.92,7.08,7.08,0,0,0,6.08-7.92"/></g><path class="cls-8" d="M98.26,46.34v-3h2.18v.36H98.66v.92h1.67V45H98.66v1h1.85v.35Z"/><path class="cls-8" d="M103.47,46.34h-.37V44a2.12,2.12,0,0,1-.35.25,2.27,2.27,0,0,1-.39.19v-.35a2.12,2.12,0,0,0,.54-.36,1.46,1.46,0,0,0,.33-.4h.24Z"/><path class="cls-8" d="M104.41,44.86a2.85,2.85,0,0,1,.11-.86,1,1,0,0,1,.33-.5.8.8,0,0,1,.54-.18.88.88,0,0,1,.43.1.8.8,0,0,1,.3.28,1.32,1.32,0,0,1,.18.45,2.68,2.68,0,0,1,.07.71,2.54,2.54,0,0,1-.11.85,1,1,0,0,1-.32.5.85.85,0,0,1-.55.18.81.81,0,0,1-.68-.31A2,2,0,0,1,104.41,44.86Zm.38,0a1.93,1.93,0,0,0,.17,1,.49.49,0,0,0,.86,0,1.93,1.93,0,0,0,.17-1,2,2,0,0,0-.17-1,.52.52,0,0,0-.43-.24.48.48,0,0,0-.41.21A1.9,1.9,0,0,0,104.79,44.86Z"/><path class="cls-8" d="M108.14,46.34h-.37V44a2.12,2.12,0,0,1-.35.25,2,2,0,0,1-.39.19v-.35a2.12,2.12,0,0,0,.54-.36,1.17,1.17,0,0,0,.33-.4h.24Z"/><path class="cls-8" d="M108.91,46.39l.87-3.11h.3l-.87,3.11Z"/><path class="cls-8" d="M112.19,46v.35h-2a.6.6,0,0,1,0-.26,1.42,1.42,0,0,1,.24-.4,3.64,3.64,0,0,1,.48-.45,3.67,3.67,0,0,0,.66-.64.72.72,0,0,0,.18-.44.51.51,0,0,0-.16-.37.56.56,0,0,0-.41-.15.57.57,0,0,0-.43.16.61.61,0,0,0-.16.44l-.38,0a1,1,0,0,1,.3-.65,1,1,0,0,1,.68-.22.94.94,0,0,1,.68.24.79.79,0,0,1,.26.6.89.89,0,0,1-.08.35,1.45,1.45,0,0,1-.24.37c-.12.13-.31.3-.57.53a4.37,4.37,0,0,0-.43.38,1,1,0,0,0-.15.2Z"/><path class="cls-8" d="M112.59,44.86a2.57,2.57,0,0,1,.11-.86,1.06,1.06,0,0,1,.32-.5.85.85,0,0,1,.55-.18.82.82,0,0,1,.42.1.8.8,0,0,1,.3.28,1.56,1.56,0,0,1,.19.45,3.18,3.18,0,0,1,.07.71,2.83,2.83,0,0,1-.11.85,1,1,0,0,1-.33.5.8.8,0,0,1-.54.18.84.84,0,0,1-.69-.31A2,2,0,0,1,112.59,44.86Zm.38,0a1.82,1.82,0,0,0,.17,1,.5.5,0,0,0,.43.25.48.48,0,0,0,.42-.25,1.8,1.8,0,0,0,.18-1,1.82,1.82,0,0,0-.18-1,.5.5,0,0,0-.43-.24.46.46,0,0,0-.4.21A1.9,1.9,0,0,0,113,44.86Z"/><path class="cls-8" d="M116.31,46.34h-.37V44a1.76,1.76,0,0,1-.35.25,1.73,1.73,0,0,1-.39.19v-.35a2.38,2.38,0,0,0,.55-.36,1.46,1.46,0,0,0,.33-.4h.23Z"/><path class="cls-8" d="M98.4,85.55l-.8-3H98l.46,2c0,.21.09.41.12.61.08-.32.13-.5.14-.55l.57-2h.48l.43,1.52a6.78,6.78,0,0,1,.23,1.06c0-.18.09-.4.15-.65l.48-1.93h.4l-.83,3h-.38l-.64-2.3c-.05-.19-.08-.3-.09-.35a3.46,3.46,0,0,1-.09.35l-.64,2.3Z"/><path class="cls-8" d="M104.25,85.55h-.37V83.19a2.12,2.12,0,0,1-.35.26,3.38,3.38,0,0,1-.39.19v-.36a2.5,2.5,0,0,0,.54-.35,1.62,1.62,0,0,0,.33-.4h.24Z"/><path class="cls-8" d="M105.19,84.06a2.9,2.9,0,0,1,.11-.86,1,1,0,0,1,.33-.5.85.85,0,0,1,.54-.17.93.93,0,0,1,.42.09.84.84,0,0,1,.31.28,1.51,1.51,0,0,1,.18.45,2.73,2.73,0,0,1,.07.71,2.85,2.85,0,0,1-.11.86,1.11,1.11,0,0,1-.32.5.85.85,0,0,1-.55.18.81.81,0,0,1-.68-.32A2,2,0,0,1,105.19,84.06Zm.38,0a2,2,0,0,0,.17,1,.51.51,0,0,0,.86,0,2,2,0,0,0,.17-1,1.93,1.93,0,0,0-.17-1,.51.51,0,0,0-.43-.25.47.47,0,0,0-.41.22A1.86,1.86,0,0,0,105.57,84.06Z"/><path class="cls-8" d="M107.55,82.93v-.35h2v.28a4.47,4.47,0,0,0-.57.82,4.7,4.7,0,0,0-.44,1,4.1,4.1,0,0,0-.14.83H108a3.91,3.91,0,0,1,.14-.86,4.77,4.77,0,0,1,.38-1,5.16,5.16,0,0,1,.53-.79Z"/><path class="cls-8" d="M109.69,85.6l.87-3.11h.29L110,85.6Z"/><path class="cls-8" d="M113,85.19v.36h-2a.75.75,0,0,1,0-.26,1.56,1.56,0,0,1,.25-.4,4.39,4.39,0,0,1,.48-.46,3.71,3.71,0,0,0,.66-.63.77.77,0,0,0,.18-.45.52.52,0,0,0-.16-.37.56.56,0,0,0-.41-.15.61.61,0,0,0-.43.16.65.65,0,0,0-.16.45l-.38,0a.94.94,0,0,1,.29-.65,1,1,0,0,1,.69-.22.94.94,0,0,1,.68.24.77.77,0,0,1,.26.59.94.94,0,0,1-.08.36,1.6,1.6,0,0,1-.24.36,6.7,6.7,0,0,1-.57.53c-.22.19-.37.31-.43.38a1.3,1.3,0,0,0-.15.2Z"/><path class="cls-8" d="M113.37,84.06a2.6,2.6,0,0,1,.11-.86,1.11,1.11,0,0,1,.32-.5.87.87,0,0,1,.54-.17.94.94,0,0,1,.43.09.89.89,0,0,1,.3.28,1.85,1.85,0,0,1,.19.45,3.25,3.25,0,0,1,.07.71,2.85,2.85,0,0,1-.11.86,1,1,0,0,1-.33.5.81.81,0,0,1-.55.18.84.84,0,0,1-.68-.32A2,2,0,0,1,113.37,84.06Zm.38,0a1.87,1.87,0,0,0,.17,1,.5.5,0,0,0,.85,0,1.85,1.85,0,0,0,.18-1,1.8,1.8,0,0,0-.18-1,.5.5,0,0,0-.43-.25.48.48,0,0,0-.41.22A2,2,0,0,0,113.75,84.06Z"/><path class="cls-8" d="M115.73,82.93v-.35h1.94v.28a4.47,4.47,0,0,0-.57.82,5.19,5.19,0,0,0-.43,1,3.51,3.51,0,0,0-.14.83h-.38a3.39,3.39,0,0,1,.14-.86,3.84,3.84,0,0,1,.38-1,4.52,4.52,0,0,1,.53-.79Z"/><path class="cls-8" d="M32.33,66.2v-3H34.5v.36H32.72v.92h1.67v.35H32.72v1h1.85v.35Z"/><path class="cls-8" d="M37.53,66.2h-.37V63.85a2.12,2.12,0,0,1-.35.25,2.27,2.27,0,0,1-.39.19v-.35a2.12,2.12,0,0,0,.54-.36,1.62,1.62,0,0,0,.33-.4h.24Z"/><path class="cls-8" d="M38.47,64.72a2.85,2.85,0,0,1,.11-.86,1.07,1.07,0,0,1,.33-.5.8.8,0,0,1,.54-.18.88.88,0,0,1,.43.1.8.8,0,0,1,.3.28,1.32,1.32,0,0,1,.18.45,2.68,2.68,0,0,1,.07.71,2.54,2.54,0,0,1-.11.85,1,1,0,0,1-.32.5.85.85,0,0,1-.55.18.81.81,0,0,1-.68-.31A2,2,0,0,1,38.47,64.72Zm.38,0a1.93,1.93,0,0,0,.17,1,.49.49,0,0,0,.86,0,1.82,1.82,0,0,0,.17-1,1.84,1.84,0,0,0-.17-1,.52.52,0,0,0-.43-.24.48.48,0,0,0-.41.21A2,2,0,0,0,38.85,64.72Z"/><path class="cls-8" d="M42,66.2v-.72h-1.3v-.34l1.37-2h.3v2h.41v.34h-.41v.72Zm0-1.06V63.79l-.94,1.35Z"/><path class="cls-8" d="M43,66.25l.87-3.11h.3l-.87,3.11Z"/><path class="cls-8" d="M46.25,65.85v.35h-2a.58.58,0,0,1,.05-.26,1.42,1.42,0,0,1,.24-.4,3.64,3.64,0,0,1,.48-.45,3.67,3.67,0,0,0,.66-.64.74.74,0,0,0,.18-.44.47.47,0,0,0-.16-.37.56.56,0,0,0-.41-.15.57.57,0,0,0-.43.16.61.61,0,0,0-.16.44l-.38,0a1,1,0,0,1,.3-.65,1,1,0,0,1,.68-.22,1,1,0,0,1,.69.24.82.82,0,0,1,.25.6.89.89,0,0,1-.08.35,1.45,1.45,0,0,1-.24.37c-.12.13-.31.3-.57.53l-.43.37a1.37,1.37,0,0,0-.15.21Z"/><path class="cls-8" d="M46.65,64.72a2.57,2.57,0,0,1,.11-.86,1.06,1.06,0,0,1,.32-.5.85.85,0,0,1,.55-.18.82.82,0,0,1,.42.1.8.8,0,0,1,.3.28,1.33,1.33,0,0,1,.19.45,2.68,2.68,0,0,1,.07.71,2.83,2.83,0,0,1-.11.85,1,1,0,0,1-.33.5.8.8,0,0,1-.54.18.84.84,0,0,1-.69-.31A2,2,0,0,1,46.65,64.72Zm.38,0a1.82,1.82,0,0,0,.17,1,.51.51,0,0,0,.43.25.48.48,0,0,0,.42-.25,1.8,1.8,0,0,0,.18-1,1.82,1.82,0,0,0-.18-1,.5.5,0,0,0-.43-.24.46.46,0,0,0-.4.21A1.9,1.9,0,0,0,47,64.72Z"/><path class="cls-8" d="M50.17,66.2v-.72H48.86v-.34l1.37-2h.3v2h.41v.34h-.41v.72Zm0-1.06V63.79l-1,1.35Z"/><path class="cls-8" d="M44.93,106.42l-.79-3h.4l.46,2c0,.21.09.41.13.61.08-.32.12-.5.13-.55l.58-2h.48l.43,1.52A8.16,8.16,0,0,1,47,106c0-.19.09-.4.15-.65l.47-1.93H48l-.82,3h-.39l-.63-2.29-.09-.35c0,.14-.07.26-.09.35l-.64,2.29Z"/><path class="cls-8" d="M50.78,106.42h-.37v-2.35a1.77,1.77,0,0,1-.35.26,2.3,2.3,0,0,1-.39.19v-.36a2.35,2.35,0,0,0,.55-.35,1.37,1.37,0,0,0,.32-.4h.24Z"/><path class="cls-8" d="M51.73,104.94a2.6,2.6,0,0,1,.11-.86,1.11,1.11,0,0,1,.32-.5.84.84,0,0,1,.55-.17.93.93,0,0,1,.42.09.89.89,0,0,1,.3.28,1.53,1.53,0,0,1,.19.45,2.73,2.73,0,0,1,.07.71,2.9,2.9,0,0,1-.11.86,1,1,0,0,1-.33.5.8.8,0,0,1-.54.18.85.85,0,0,1-.69-.32A2,2,0,0,1,51.73,104.94Zm.38,0a1.87,1.87,0,0,0,.17,1,.52.52,0,0,0,.43.24.49.49,0,0,0,.42-.24,2.81,2.81,0,0,0,0-2,.5.5,0,0,0-.43-.24.45.45,0,0,0-.4.22A1.86,1.86,0,0,0,52.11,104.94Z"/><path class="cls-8" d="M54.06,105.64l.39,0a.75.75,0,0,0,.2.43.56.56,0,0,0,.38.14.59.59,0,0,0,.45-.2.76.76,0,0,0,.19-.53.72.72,0,0,0-.18-.5.64.64,0,0,0-.47-.18.59.59,0,0,0-.32.08.5.5,0,0,0-.22.21l-.35,0,.29-1.54h1.5v.35H54.71l-.16.81a1,1,0,0,1,.57-.19.94.94,0,0,1,.67.27,1,1,0,0,1,.27.7,1.09,1.09,0,0,1-.24.71,1,1,0,0,1-1.76-.47Z"/><path class="cls-8" d="M56.22,106.48l.88-3.11h.29l-.87,3.11Z"/><path class="cls-8" d="M59.5,106.07v.35h-2a.55.55,0,0,1,0-.25,1.29,1.29,0,0,1,.24-.4,4.6,4.6,0,0,1,.49-.46,4.6,4.6,0,0,0,.66-.63.75.75,0,0,0,.17-.45.51.51,0,0,0-.15-.37.59.59,0,0,0-.41-.15.57.57,0,0,0-.43.16.6.6,0,0,0-.16.44l-.38,0a.9.9,0,0,1,.29-.64,1,1,0,0,1,.68-.22,1,1,0,0,1,.69.23.8.8,0,0,1,.25.6.92.92,0,0,1-.07.36,1.39,1.39,0,0,1-.25.36,4.56,4.56,0,0,1-.57.53,5.42,5.42,0,0,0-.42.38.94.94,0,0,0-.16.2Z"/><path class="cls-8" d="M59.9,104.94a2.9,2.9,0,0,1,.11-.86,1.13,1.13,0,0,1,.33-.5.8.8,0,0,1,.54-.17,1,1,0,0,1,.43.09.89.89,0,0,1,.3.28,1.51,1.51,0,0,1,.18.45,2.73,2.73,0,0,1,.07.71,2.6,2.6,0,0,1-.11.86,1.11,1.11,0,0,1-.32.5.85.85,0,0,1-.55.18.81.81,0,0,1-.68-.32A2,2,0,0,1,59.9,104.94Zm.38,0a2,2,0,0,0,.17,1,.51.51,0,0,0,.86,0,3,3,0,0,0,0-2,.52.52,0,0,0-.43-.24.47.47,0,0,0-.41.22A1.86,1.86,0,0,0,60.28,104.94Z"/><path class="cls-8" d="M62.24,105.64l.38,0a.7.7,0,0,0,.21.43.55.55,0,0,0,.37.14.63.63,0,0,0,.46-.2.76.76,0,0,0,.18-.53.68.68,0,0,0-.18-.5.62.62,0,0,0-.46-.18.57.57,0,0,0-.32.08.52.52,0,0,0-.23.21l-.35,0,.29-1.54h1.5v.35h-1.2l-.16.81a1,1,0,0,1,.57-.19.9.9,0,0,1,.66.27,1,1,0,0,1,.27.7,1.09,1.09,0,0,1-.24.71,1,1,0,0,1-.79.37,1,1,0,0,1-.67-.23A.91.91,0,0,1,62.24,105.64Z"/><g class="cls-10"><path class="cls-8" d="M5.52,68.18h-3v-.4H5.16V66.3h.36Z"/><path class="cls-8" d="M5.52,66.16,2.51,65v-.43l3-1.23v.45l-.91.35v1.26l.91.33Zm-1.24-.87v-1l-.83.32-.62.21A4,4,0,0,1,3.4,65Z"/><path class="cls-8" d="M4.34,61.62H4V60.35H5.1a2.29,2.29,0,0,1,.35.6,1.77,1.77,0,0,1,.12.64,1.79,1.79,0,0,1-.19.81,1.25,1.25,0,0,1-.55.54,1.66,1.66,0,0,1-.8.19,1.74,1.74,0,0,1-.82-.19,1.21,1.21,0,0,1-.57-.52,1.71,1.71,0,0,1-.18-.8,1.63,1.63,0,0,1,.1-.59,1,1,0,0,1,.3-.41,1.24,1.24,0,0,1,.49-.23l.1.36a1.1,1.1,0,0,0-.36.17.64.64,0,0,0-.21.29.91.91,0,0,0-.08.41,1.32,1.32,0,0,0,.08.47.86.86,0,0,0,.22.32.8.8,0,0,0,.3.19,1.5,1.5,0,0,0,.6.12,1.48,1.48,0,0,0,.67-.14.88.88,0,0,0,.41-.4,1.4,1.4,0,0,0,.13-.57,1.44,1.44,0,0,0-.1-.5,1.51,1.51,0,0,0-.21-.37H4.34Z"/><path class="cls-8" d="M4.05,59.88a1.61,1.61,0,0,1-1.17-.4,1.37,1.37,0,0,1-.42-1,1.47,1.47,0,0,1,.19-.75,1.38,1.38,0,0,1,.56-.51A1.92,1.92,0,0,1,4,57a1.86,1.86,0,0,1,.82.18,1.24,1.24,0,0,1,.54.52,1.56,1.56,0,0,1,.19.73,1.38,1.38,0,0,1-.21.76,1.21,1.21,0,0,1-.56.51A1.72,1.72,0,0,1,4.05,59.88Zm0-.41a1.2,1.2,0,0,0,.85-.29,1,1,0,0,0,0-1.47,1.25,1.25,0,0,0-.9-.29,1.62,1.62,0,0,0-.64.12A.93.93,0,0,0,3,57.9a1,1,0,0,0-.15.54,1,1,0,0,0,.29.73A1.29,1.29,0,0,0,4.06,59.47Z"/></g><path class="cls-8" d="M154.07,91.15l-3-1.15v-.43l3-1.23v.45l-.91.35V90.4l.91.33Zm-1.24-.87v-1l-.83.32-.62.21A4,4,0,0,1,152,90Z"/><path class="cls-8" d="M154.07,87.46l-2.18.83V87.9l1.3-.47.44-.14-.41-.13-1.33-.49v-.38l2.18.83Z"/><path class="cls-8" d="M154.07,85.86h-.42v-.42h.42Z"/><path class="cls-8" d="M153.21,83.79l0-.36a.75.75,0,0,0,.47-.13.42.42,0,0,0,.12-.32.55.55,0,0,0-.06-.26.4.4,0,0,0-.19-.15,1.55,1.55,0,0,0-.38,0h-2.07v-.39h2.05a1.55,1.55,0,0,1,.59.09.62.62,0,0,1,.31.29,1,1,0,0,1,.11.46.81.81,0,0,1-.23.61A1,1,0,0,1,153.21,83.79Z"/><path class="cls-8" d="M152.6,81.61a1.63,1.63,0,0,1-1.17-.41,1.35,1.35,0,0,1-.42-1,1.45,1.45,0,0,1,.2-.75,1.23,1.23,0,0,1,.55-.51,1.79,1.79,0,0,1,.81-.18,1.71,1.71,0,0,1,.82.19,1.18,1.18,0,0,1,.54.52,1.49,1.49,0,0,1,0,1.49,1.24,1.24,0,0,1-.56.5A1.6,1.6,0,0,1,152.6,81.61Zm0-.41a1.2,1.2,0,0,0,.86-.3,1,1,0,0,0,.31-.73,1,1,0,0,0-.32-.74,1.29,1.29,0,0,0-.89-.29,1.41,1.41,0,0,0-.64.13.9.9,0,0,0-.43.36,1,1,0,0,0-.15.53,1,1,0,0,0,.29.73A1.33,1.33,0,0,0,152.61,81.2Z"/><path class="cls-8" d="M154.07,78.55l-3-1.16V77l3-1.24v.46l-.91.35V77.8l.91.33Zm-1.24-.87v-1L152,77l-.62.21a4,4,0,0,1,.57.16Z"/><path class="cls-8" d="M153.75,73.14a3.37,3.37,0,0,0,.28-.51l.27.11a2.25,2.25,0,0,1-.37.65,1.5,1.5,0,0,1,0,1.48,1.29,1.29,0,0,1-.55.51,1.77,1.77,0,0,1-.8.18,1.86,1.86,0,0,1-.82-.18,1.29,1.29,0,0,1-.55-.51,1.49,1.49,0,0,1-.19-.75,1.36,1.36,0,0,1,.2-.75,1.29,1.29,0,0,1,.55-.51,1.74,1.74,0,0,1,.8-.17,1.78,1.78,0,0,1,.67.11A1.38,1.38,0,0,1,153.75,73.14Zm-.51.87a1.47,1.47,0,0,1,.28-.56,1.2,1.2,0,0,0-1-.35,1.62,1.62,0,0,0-.64.12.93.93,0,0,0-.42.36,1,1,0,0,0-.15.54,1,1,0,0,0,.31.74,1.27,1.27,0,0,0,.91.29,1.3,1.3,0,0,0,.9-.29,1,1,0,0,0,.31-.74,1.06,1.06,0,0,0-.08-.4,1.13,1.13,0,0,0-.17.39Z"/><path class="cls-8" d="M151.06,70.18v-.4h1.74a2,2,0,0,1,.72.1.85.85,0,0,1,.43.37,1.32,1.32,0,0,1,.17.7,1.43,1.43,0,0,1-.15.7.82.82,0,0,1-.42.38,1.91,1.91,0,0,1-.75.11h-1.74v-.39h1.74a1.57,1.57,0,0,0,.57-.08.55.55,0,0,0,.29-.25.81.81,0,0,0,.1-.43.86.86,0,0,0-.2-.63,1.17,1.17,0,0,0-.76-.18Z"/><path class="cls-8" d="M154.07,69.05h-3v-.4h3Z"/><path class="cls-8" d="M154.07,68h-3v-.4L153.42,66h-2.36v-.38h3V66l-2.36,1.58h2.36Z"/><path class="cls-8" d="M153.1,63.89l0-.38a1,1,0,0,0,.37-.12.68.68,0,0,0,.23-.31,1.11,1.11,0,0,0,.09-.46,1.25,1.25,0,0,0-.06-.4.59.59,0,0,0-.19-.26.42.42,0,0,0-.26-.08A.39.39,0,0,0,153,62a.57.57,0,0,0-.17.27c0,.08-.08.26-.15.53a2.75,2.75,0,0,1-.19.58.68.68,0,0,1-.28.32.67.67,0,0,1-.37.11.78.78,0,0,1-.73-.51,1.58,1.58,0,0,1-.1-.55,1.55,1.55,0,0,1,.11-.59.87.87,0,0,1,.31-.39,1,1,0,0,1,.48-.15l0,.38a.59.59,0,0,0-.43.21.8.8,0,0,0-.15.53.88.88,0,0,0,.13.52.41.41,0,0,0,.32.17.34.34,0,0,0,.27-.12,1.59,1.59,0,0,0,.21-.6,4.1,4.1,0,0,1,.2-.67.91.91,0,0,1,.3-.38.73.73,0,0,1,.43-.13.82.82,0,0,1,.45.14A.91.91,0,0,1,154,62a1.4,1.4,0,0,1,.12.58,1.74,1.74,0,0,1-.12.69,1,1,0,0,1-.36.43A1.11,1.11,0,0,1,153.1,63.89Z"/><path class="cls-8" d="M154.07,60.94h-3V58.77h.36v1.77h.92V58.88h.35v1.66h1V58.7h.36Z"/><path class="cls-8" d="M153,56l.1-.4a1.41,1.41,0,0,1,.75.45,1.26,1.26,0,0,1,.26.8,1.44,1.44,0,0,1-.2.79,1.2,1.2,0,0,1-.57.46,2,2,0,0,1-.81.16,1.8,1.8,0,0,1-.82-.18,1.24,1.24,0,0,1-.53-.51,1.49,1.49,0,0,1-.18-.73,1.27,1.27,0,0,1,.23-.76,1.21,1.21,0,0,1,.65-.43l.09.4a1,1,0,0,0-.48.3.8.8,0,0,0-.15.5,1,1,0,0,0,.17.58,1,1,0,0,0,.44.33,2,2,0,0,0,1.25,0,.88.88,0,0,0,.43-.35,1,1,0,0,0,.14-.51.93.93,0,0,0-.19-.57A1,1,0,0,0,153,56Z"/><path class="cls-8" d="M152.6,55.23a1.63,1.63,0,0,1-1.17-.4,1.37,1.37,0,0,1-.42-1,1.5,1.5,0,0,1,.2-.75,1.35,1.35,0,0,1,.55-.51,1.92,1.92,0,0,1,.81-.17,1.83,1.83,0,0,1,.82.18,1.26,1.26,0,0,1,.54.53,1.49,1.49,0,0,1,0,1.49,1.24,1.24,0,0,1-.56.5A1.59,1.59,0,0,1,152.6,55.23Zm0-.41a1.2,1.2,0,0,0,.86-.29,1,1,0,0,0,.31-.73,1,1,0,0,0-.32-.74,1.29,1.29,0,0,0-.89-.29,1.56,1.56,0,0,0-.64.12,1,1,0,0,0-.43.37,1,1,0,0,0-.15.53,1,1,0,0,0,.29.73A1.33,1.33,0,0,0,152.61,54.82Z"/><path class="cls-8" d="M154.07,50.61h-3v-.4h3Z"/><path class="cls-8" d="M154.07,49.53h-3v-.4h2.65V47.65h.36Z"/><path class="cls-8" d="M154.07,47.19h-3V46.8h2.65V45.31h.36Z"/><path class="cls-8" d="M154.07,45.17l-3-1.15v-.43l3-1.23v.45l-.91.35v1.26l.91.33Zm-1.24-.87v-1l-.83.32-.62.21A4,4,0,0,1,152,44Z"/><path class="cls-8" d="M98,24.32v-3h2.17v.36H98.41v.92h1.66v.35H98.41v1h1.84v.36Z"/><path class="cls-8" d="M103.21,24.32h-.37V22a1.76,1.76,0,0,1-.35.25,2.3,2.3,0,0,1-.39.19v-.36a2.06,2.06,0,0,0,.55-.35,1.37,1.37,0,0,0,.32-.4h.24Z"/><path class="cls-8" d="M104.16,22.84a2.53,2.53,0,0,1,.11-.86,1,1,0,0,1,.32-.5.85.85,0,0,1,.55-.18.82.82,0,0,1,.42.1.8.8,0,0,1,.3.28,1.62,1.62,0,0,1,.19.44,3.35,3.35,0,0,1,.07.72,2.83,2.83,0,0,1-.11.85,1,1,0,0,1-.33.5.8.8,0,0,1-.54.18.84.84,0,0,1-.69-.31A2,2,0,0,1,104.16,22.84Zm.38,0a1.82,1.82,0,0,0,.17,1,.53.53,0,0,0,.43.25.5.5,0,0,0,.42-.25,1.8,1.8,0,0,0,.18-1,1.82,1.82,0,0,0-.18-1,.51.51,0,0,0-.43-.25.47.47,0,0,0-.4.22A1.88,1.88,0,0,0,104.54,22.84Z"/><path class="cls-8" d="M108.43,24v.36h-2a.75.75,0,0,1,0-.26,1.42,1.42,0,0,1,.24-.4,3.64,3.64,0,0,1,.48-.45,4.23,4.23,0,0,0,.67-.64.79.79,0,0,0,.17-.44.47.47,0,0,0-.16-.37.53.53,0,0,0-.41-.16.59.59,0,0,0-.42.16.65.65,0,0,0-.17.45l-.38,0a1,1,0,0,1,.3-.65,1,1,0,0,1,.68-.22,1,1,0,0,1,.69.24.82.82,0,0,1,.25.59.94.94,0,0,1-.08.36,1.35,1.35,0,0,1-.24.37,5.66,5.66,0,0,1-.57.52l-.43.38a2.08,2.08,0,0,0-.15.2Z"/><path class="cls-8" d="M108.65,24.37l.88-3.11h.29L109,24.37Z"/><path class="cls-8" d="M111.93,24v.36h-2a.57.57,0,0,1,0-.26,1.42,1.42,0,0,1,.24-.4,3.82,3.82,0,0,1,.49-.45,4.54,4.54,0,0,0,.66-.64.72.72,0,0,0,.17-.44.5.5,0,0,0-.15-.37.56.56,0,0,0-.41-.16.61.61,0,0,0-.43.16.61.61,0,0,0-.16.45l-.38,0a.92.92,0,0,1,.29-.65,1,1,0,0,1,.68-.22,1,1,0,0,1,.69.24.78.78,0,0,1,.25.59.92.92,0,0,1-.07.36,1.42,1.42,0,0,1-.25.37,5.66,5.66,0,0,1-.57.52l-.42.38a1.27,1.27,0,0,0-.16.2Z"/><path class="cls-8" d="M112.33,22.84a2.81,2.81,0,0,1,.11-.86,1,1,0,0,1,.33-.5.8.8,0,0,1,.54-.18.88.88,0,0,1,.43.1.8.8,0,0,1,.3.28,1.35,1.35,0,0,1,.18.44,3.51,3.51,0,0,1,0,1.57,1.06,1.06,0,0,1-.32.5.85.85,0,0,1-.55.18.81.81,0,0,1-.68-.31A2,2,0,0,1,112.33,22.84Zm.38,0a1.93,1.93,0,0,0,.17,1,.49.49,0,0,0,.86,0,1.93,1.93,0,0,0,.17-1,2,2,0,0,0-.17-1,.53.53,0,0,0-.43-.25.49.49,0,0,0-.41.22A1.88,1.88,0,0,0,112.71,22.84Z"/><path class="cls-8" d="M116.61,24v.36h-2a.75.75,0,0,1,0-.26,1.26,1.26,0,0,1,.25-.4,3.64,3.64,0,0,1,.48-.45,3.67,3.67,0,0,0,.66-.64.72.72,0,0,0,.17-.44.5.5,0,0,0-.15-.37.54.54,0,0,0-.41-.16.61.61,0,0,0-.43.16.61.61,0,0,0-.16.45l-.38,0a1,1,0,0,1,.29-.65,1,1,0,0,1,.69-.22,1,1,0,0,1,.68.24.78.78,0,0,1,.25.59.92.92,0,0,1-.07.36,1.42,1.42,0,0,1-.25.37,6.56,6.56,0,0,1-.56.52c-.23.19-.37.32-.43.38l-.16.2Z"/><path class="cls-8" d="M98.4,107.44l-.8-3H98l.46,2c0,.21.09.42.12.62l.14-.56.57-2h.48l.43,1.53a7.92,7.92,0,0,1,.24,1.06c0-.19.09-.41.15-.65l.47-1.94h.4l-.83,3h-.38l-.63-2.29c-.06-.19-.09-.31-.1-.35,0,.13-.06.25-.09.35l-.63,2.29Z"/><path class="cls-8" d="M104.25,107.44h-.37v-2.35a2.12,2.12,0,0,1-.35.25,2.27,2.27,0,0,1-.39.19v-.35a2.12,2.12,0,0,0,.54-.36,1.3,1.3,0,0,0,.33-.4h.24Z"/><path class="cls-8" d="M105.19,106a2.85,2.85,0,0,1,.11-.86,1.07,1.07,0,0,1,.33-.5.8.8,0,0,1,.54-.18.83.83,0,0,1,.43.1.8.8,0,0,1,.3.28,1.56,1.56,0,0,1,.19.45,3.28,3.28,0,0,1,.06.71,2.54,2.54,0,0,1-.11.85,1,1,0,0,1-.32.5.83.83,0,0,1-.55.18.82.82,0,0,1-.68-.31A2,2,0,0,1,105.19,106Zm.38,0a1.8,1.8,0,0,0,.18,1,.48.48,0,0,0,.42.25.5.5,0,0,0,.43-.25,1.82,1.82,0,0,0,.17-1,1.84,1.84,0,0,0-.17-1,.51.51,0,0,0-.43-.24.48.48,0,0,0-.41.21A2,2,0,0,0,105.57,106Z"/><path class="cls-8" d="M109.44,105.17l-.36,0a.8.8,0,0,0-.14-.32.52.52,0,0,0-.37-.16.55.55,0,0,0-.31.1.89.89,0,0,0-.28.37,2.12,2.12,0,0,0-.1.7.88.88,0,0,1,.73-.4.85.85,0,0,1,.63.27,1,1,0,0,1,.26.7,1.18,1.18,0,0,1-.12.53.94.94,0,0,1-.34.37.86.86,0,0,1-.48.13,1,1,0,0,1-.76-.34,1.73,1.73,0,0,1-.29-1.12,2,2,0,0,1,.32-1.26.94.94,0,0,1,.76-.35.8.8,0,0,1,.85.75Zm-1.5,1.3a.78.78,0,0,0,.08.36.6.6,0,0,0,.22.27.59.59,0,0,0,.31.09.53.53,0,0,0,.4-.19.77.77,0,0,0,.17-.51.72.72,0,0,0-.17-.5.57.57,0,0,0-.41-.17.61.61,0,0,0-.43.17A.69.69,0,0,0,107.94,106.47Z"/><path class="cls-8" d="M109.69,107.49l.87-3.11h.3l-.87,3.11Z"/><path class="cls-8" d="M113,107.09v.35h-2a.8.8,0,0,1,0-.26,1.42,1.42,0,0,1,.24-.4,3.64,3.64,0,0,1,.48-.45,4.23,4.23,0,0,0,.67-.64.79.79,0,0,0,.17-.44.47.47,0,0,0-.16-.37.56.56,0,0,0-.41-.15.57.57,0,0,0-.43.16.61.61,0,0,0-.16.44l-.38,0a1,1,0,0,1,.3-.65,1,1,0,0,1,.68-.22,1,1,0,0,1,.69.24.82.82,0,0,1,.25.6.89.89,0,0,1-.08.35,1.45,1.45,0,0,1-.24.37c-.12.13-.31.3-.57.53s-.36.31-.43.38a1,1,0,0,0-.15.2Z"/><path class="cls-8" d="M113.37,106a2.57,2.57,0,0,1,.11-.86,1.06,1.06,0,0,1,.32-.5.85.85,0,0,1,.55-.18.82.82,0,0,1,.42.1.73.73,0,0,1,.3.28,1.33,1.33,0,0,1,.19.45,2.68,2.68,0,0,1,.07.71,2.83,2.83,0,0,1-.11.85,1,1,0,0,1-.33.5.9.9,0,0,1-1.22-.13A2,2,0,0,1,113.37,106Zm.38,0a1.82,1.82,0,0,0,.17,1,.51.51,0,0,0,.43.25.48.48,0,0,0,.42-.25,1.8,1.8,0,0,0,.18-1,1.82,1.82,0,0,0-.18-1,.5.5,0,0,0-.43-.24.46.46,0,0,0-.4.21A1.9,1.9,0,0,0,113.75,106Z"/><path class="cls-8" d="M117.62,105.17l-.37,0a.68.68,0,0,0-.14-.32.51.51,0,0,0-.37-.16.57.57,0,0,0-.31.1,1,1,0,0,0-.27.37,2.09,2.09,0,0,0-.11.7.78.78,0,0,1,.33-.3.82.82,0,0,1,.4-.1.83.83,0,0,1,.63.27,1,1,0,0,1,.26.7,1.18,1.18,0,0,1-.12.53.82.82,0,0,1-.34.37.86.86,0,0,1-.48.13.92.92,0,0,1-.75-.34,1.67,1.67,0,0,1-.29-1.12,1.94,1.94,0,0,1,.32-1.26.93.93,0,0,1,.75-.35.88.88,0,0,1,.59.2A.85.85,0,0,1,117.62,105.17Zm-1.51,1.3a.94.94,0,0,0,.08.36.62.62,0,0,0,.23.27.58.58,0,0,0,.3.09.56.56,0,0,0,.41-.19.76.76,0,0,0,.16-.51.72.72,0,0,0-.16-.5.6.6,0,0,0-.84,0A.65.65,0,0,0,116.11,106.47Z"/><polyline class="cls-7" points="88.77 53.21 108.24 53.21 108.24 55.51 112.57 55.51 112.57 53.21 116.26 53.21 116.26 54.61 120.84 54.61 120.84 53.21 124.28 53.21 124.28 55.51 130.01 55.51 130.01 33.23 112.32 33.23 112.32 35.14 88.77 35.14 88.77 53.21"/><polyline class="cls-7" points="112.32 33.23 130.01 33.23 130.01 10.7 124.28 10.7 124.28 12.99 120.84 12.99 120.84 11.59 116.26 11.59 116.26 12.99 112.57 12.99 112.57 10.7 108.24 10.7 108.24 12.99 89.28 12.99 89.28 16.04 81 16.04 81 31.19 112.32 31.19 112.32 33.23"/><line class="cls-7" x1="112.57" y1="10.7" x2="124.28" y2="10.7"/><polyline class="cls-7" points="113.08 11.46 112.57 11.33 124.28 11.33"/><line class="cls-7" x1="113.33" y1="11.59" x2="113.84" y2="11.84"/><line class="cls-7" x1="114.1" y1="11.97" x2="114.61" y2="12.23"/><line class="cls-7" x1="114.99" y1="12.35" x2="115.5" y2="12.61"/><line class="cls-7" x1="115.75" y1="12.73" x2="116.26" y2="12.99"/><line class="cls-7" x1="112.57" y1="12.99" x2="113.08" y2="12.73"/><line class="cls-7" x1="113.33" y1="12.61" x2="113.84" y2="12.35"/><line class="cls-7" x1="114.1" y1="12.22" x2="114.61" y2="11.97"/><line class="cls-7" x1="114.99" y1="11.84" x2="115.5" y2="11.59"/><line class="cls-7" x1="115.75" y1="11.46" x2="116.26" y2="11.33"/><line class="cls-7" x1="120.84" y1="11.33" x2="121.23" y2="11.46"/><line class="cls-7" x1="121.48" y1="11.59" x2="121.99" y2="11.84"/><line class="cls-7" x1="122.24" y1="11.97" x2="122.88" y2="12.23"/><line class="cls-7" x1="123.14" y1="12.35" x2="123.64" y2="12.61"/><line class="cls-7" x1="123.9" y1="12.73" x2="124.28" y2="12.99"/><line class="cls-7" x1="120.84" y1="12.99" x2="121.23" y2="12.73"/><line class="cls-7" x1="121.48" y1="12.61" x2="121.99" y2="12.35"/><line class="cls-7" x1="122.24" y1="12.22" x2="122.88" y2="11.97"/><line class="cls-7" x1="123.14" y1="11.84" x2="123.64" y2="11.59"/><line class="cls-7" x1="123.9" y1="11.46" x2="124.28" y2="11.33"/><line class="cls-7" x1="112.57" y1="55.51" x2="124.28" y2="55.51"/><polyline class="cls-7" points="113.08 54.74 112.57 55 124.28 55"/><line class="cls-7" x1="113.33" y1="54.61" x2="113.84" y2="54.36"/><line class="cls-7" x1="114.1" y1="54.23" x2="114.61" y2="53.98"/><line class="cls-7" x1="114.99" y1="53.85" x2="115.5" y2="53.6"/><line class="cls-7" x1="115.75" y1="53.47" x2="116.26" y2="53.21"/><line class="cls-7" x1="112.57" y1="53.21" x2="113.08" y2="53.47"/><line class="cls-7" x1="113.33" y1="53.6" x2="113.84" y2="53.85"/><line class="cls-7" x1="114.1" y1="53.98" x2="114.61" y2="54.23"/><line class="cls-7" x1="114.99" y1="54.36" x2="115.5" y2="54.61"/><line class="cls-7" x1="115.75" y1="54.74" x2="116.26" y2="55"/><line class="cls-7" x1="120.84" y1="55" x2="121.23" y2="54.74"/><line class="cls-7" x1="121.48" y1="54.61" x2="121.99" y2="54.36"/><line class="cls-7" x1="122.24" y1="54.23" x2="122.88" y2="53.98"/><line class="cls-7" x1="123.14" y1="53.85" x2="123.64" y2="53.6"/><line class="cls-7" x1="123.9" y1="53.47" x2="124.28" y2="53.21"/><line class="cls-7" x1="120.84" y1="53.21" x2="121.23" y2="53.47"/><line class="cls-7" x1="121.48" y1="53.6" x2="121.99" y2="53.85"/><line class="cls-7" x1="122.24" y1="53.98" x2="122.88" y2="54.23"/><line class="cls-7" x1="123.14" y1="54.36" x2="123.64" y2="54.61"/><line class="cls-7" x1="123.9" y1="54.74" x2="124.28" y2="55"/><polyline class="cls-7" points="88.77 75.49 108.24 75.49 108.24 73.33 112.57 73.33 112.57 75.49 116.26 75.49 116.26 74.22 120.84 74.22 120.84 75.49 124.28 75.49 124.28 73.33 130.01 73.33 130.01 95.6 112.32 95.6 112.32 93.69 88.77 93.69 88.77 75.49"/><polyline class="cls-7" points="112.32 95.6 130.01 95.6 130.01 118.01 124.28 118.01 124.28 115.84 120.84 115.84 120.84 117.12 116.26 117.12 116.26 115.84 112.57 115.84 112.57 118.01 108.24 118.01 108.24 115.84 89.28 115.84 89.28 112.66 81 112.66 81 97.51 112.32 97.51 112.32 95.6"/><line class="cls-7" x1="112.57" y1="118.01" x2="124.28" y2="118.01"/><polyline class="cls-7" points="113.08 117.24 112.57 117.5 124.28 117.5"/><line class="cls-7" x1="113.33" y1="117.12" x2="113.84" y2="116.86"/><line class="cls-7" x1="114.1" y1="116.73" x2="114.61" y2="116.48"/><line class="cls-7" x1="114.99" y1="116.35" x2="115.5" y2="116.1"/><line class="cls-7" x1="115.75" y1="115.97" x2="116.26" y2="115.84"/><line class="cls-7" x1="112.57" y1="115.84" x2="113.08" y2="115.97"/><line class="cls-7" x1="113.33" y1="116.1" x2="113.84" y2="116.35"/><line class="cls-7" x1="114.1" y1="116.48" x2="114.61" y2="116.73"/><line class="cls-7" x1="114.99" y1="116.86" x2="115.5" y2="117.12"/><line class="cls-7" x1="115.75" y1="117.24" x2="116.26" y2="117.5"/><line class="cls-7" x1="120.84" y1="117.5" x2="121.23" y2="117.24"/><line class="cls-7" x1="121.48" y1="117.12" x2="121.99" y2="116.86"/><line class="cls-7" x1="122.24" y1="116.73" x2="122.88" y2="116.48"/><line class="cls-7" x1="123.14" y1="116.35" x2="123.64" y2="116.1"/><line class="cls-7" x1="123.9" y1="115.97" x2="124.28" y2="115.84"/><line class="cls-7" x1="120.84" y1="115.84" x2="121.23" y2="115.97"/><line class="cls-7" x1="121.48" y1="116.1" x2="121.99" y2="116.35"/><line class="cls-7" x1="122.24" y1="116.48" x2="122.88" y2="116.73"/><line class="cls-7" x1="123.14" y1="116.86" x2="123.64" y2="117.12"/><line class="cls-7" x1="123.9" y1="117.24" x2="124.28" y2="117.5"/><line class="cls-7" x1="112.57" y1="73.33" x2="124.28" y2="73.33"/><polyline class="cls-7" points="113.08 74.09 112.57 73.84 124.28 73.84"/><line class="cls-7" x1="113.33" y1="74.22" x2="113.84" y2="74.47"/><line class="cls-7" x1="114.1" y1="74.6" x2="114.61" y2="74.85"/><line class="cls-7" x1="114.99" y1="74.98" x2="115.5" y2="75.24"/><line class="cls-7" x1="115.75" y1="75.36" x2="116.26" y2="75.49"/><line class="cls-7" x1="112.57" y1="75.49" x2="113.08" y2="75.36"/><line class="cls-7" x1="113.33" y1="75.24" x2="113.84" y2="74.98"/><line class="cls-7" x1="114.1" y1="74.85" x2="114.61" y2="74.6"/><line class="cls-7" x1="114.99" y1="74.47" x2="115.5" y2="74.22"/><line class="cls-7" x1="115.75" y1="74.09" x2="116.26" y2="73.84"/><line class="cls-7" x1="120.84" y1="73.84" x2="121.23" y2="73.96"/><line class="cls-7" x1="121.48" y1="74.09" x2="121.99" y2="74.47"/><line class="cls-7" x1="122.24" y1="74.6" x2="122.88" y2="74.85"/><line class="cls-7" x1="123.14" y1="74.98" x2="123.64" y2="75.24"/><line class="cls-7" x1="123.9" y1="75.36" x2="124.28" y2="75.49"/><line class="cls-7" x1="120.84" y1="75.49" x2="121.23" y2="75.36"/><line class="cls-7" x1="121.48" y1="75.24" x2="121.99" y2="74.98"/><line class="cls-7" x1="122.24" y1="74.85" x2="122.88" y2="74.6"/><line class="cls-7" x1="123.14" y1="74.47" x2="123.64" y2="74.09"/><line class="cls-7" x1="123.9" y1="73.96" x2="124.28" y2="73.84"/></g></g></svg>