<svg id="Capa_1" data-name="Capa 1" xmlns="http://www.w3.org/2000/svg" xmlns:xlink="http://www.w3.org/1999/xlink" viewBox="0 0 168.43 119.73"><defs><style>.cls-1,.cls-6,.cls-7,.cls-9{fill:none;}.cls-2{clip-path:url(#clip-path);}.cls-3{clip-path:url(#clip-path-3);}.cls-4{clip-path:url(#clip-path-4);}.cls-5{fill:#ebebeb;}.cls-6{stroke:#ebebeb;}.cls-6,.cls-7,.cls-9{stroke-miterlimit:10;}.cls-6,.cls-9{stroke-width:0;}.cls-7,.cls-9{stroke:#63666b;stroke-linecap:round;}.cls-7{stroke-width:0.25px;}.cls-8{fill:#63666b;}.cls-10{clip-path:url(#clip-path-6);}</style><clipPath id="clip-path"><rect class="cls-1" x="-1403.27" y="-531.11" width="1190.55" height="841.89"/></clipPath><clipPath id="clip-path-3"><rect class="cls-1" x="-519.8" y="36.11" width="240.83" height="203.81"/></clipPath><clipPath id="clip-path-4"><rect class="cls-1" x="-70.98" y="-531.11" width="1190.55" height="841.89"/></clipPath><clipPath id="clip-path-6"><rect class="cls-1" y="-0.57" width="168.42" height="120.3"/></clipPath></defs><title>E203S_1</title><g class="cls-4"><g class="cls-4"><path class="cls-5" d="M32.94,11.11l4.58,1.27H32.94Zm4.58,0H32.94l4.58,1.27Z"/><path class="cls-6" d="M32.94,11.11l4.58,1.27H32.94Zm4.58,0H32.94l4.58,1.27Z"/><path class="cls-5" d="M29,12.38l42,3H29Zm42,0H29l42,3Z"/><path class="cls-6" d="M29,12.38l42,3H29Zm42,0H29l42,3Z"/><path class="cls-5" d="M29,15.43,80.55,25.87H29Zm51.56,0H29L80.55,25.87Z"/><path class="cls-6" d="M29,15.43,80.55,25.87H29Zm51.56,0H29L80.55,25.87Z"/><path class="cls-5" d="M22.63,25.87l57.92,4.71H22.63Zm57.92,0H22.63l57.92,4.71Z"/><path class="cls-6" d="M22.63,25.87l57.92,4.71H22.63Zm57.92,0H22.63l57.92,4.71Z"/><path class="cls-5" d="M22.63,30.58,47.84,43.31H22.63Zm25.21,0H22.63L47.84,43.31Z"/><path class="cls-6" d="M22.63,30.58,47.84,43.31H22.63Zm25.21,0H22.63L47.84,43.31Z"/><path class="cls-5" d="M22.63,43.31l37.3,3.31H22.63Zm37.3,0H22.63l37.3,3.31Z"/><path class="cls-6" d="M22.63,43.31l37.3,3.31H22.63Zm37.3,0H22.63l37.3,3.31Z"/><path class="cls-5" d="M23.78,46.62l36.15,5H23.78Zm36.15,0H23.78l36.15,5Z"/><path class="cls-6" d="M23.78,46.62l36.15,5H23.78Zm36.15,0H23.78l36.15,5Z"/><path class="cls-5" d="M38,51.59l21.9,12.22H38Zm21.9,0H38l21.9,12.22Z"/><path class="cls-6" d="M38,51.59l21.9,12.22H38Zm21.9,0H38l21.9,12.22Z"/><polyline class="cls-7" points="88.31 35.04 78.26 35.04 78.26 43.82 67.06 43.82 67.06 35.04 60.44 35.04 60.44 43.82"/><line class="cls-7" x1="60.44" y1="43.31" x2="67.06" y2="43.31"/><line class="cls-7" x1="67.06" y1="43.82" x2="60.44" y2="43.82"/><line class="cls-7" x1="78.26" y1="43.82" x2="88.31" y2="43.82"/><line class="cls-7" x1="88.31" y1="43.31" x2="78.26" y2="43.31"/><polyline class="cls-7" points="88.31 92.45 78.26 92.45 78.26 83.67 67.06 83.67 67.06 92.45 60.44 92.45 60.44 83.67 60.44 43.82"/><line class="cls-7" x1="60.44" y1="84.3" x2="67.06" y2="84.3"/><line class="cls-7" x1="67.06" y1="83.66" x2="60.44" y2="83.66"/><line class="cls-7" x1="78.26" y1="83.66" x2="88.31" y2="83.66"/><line class="cls-7" x1="88.31" y1="84.3" x2="78.26" y2="84.3"/><line class="cls-7" x1="60.44" y1="35.04" x2="60.82" y2="35.55"/><line class="cls-7" x1="61.07" y1="35.8" x2="61.46" y2="36.31"/><line class="cls-7" x1="61.58" y1="36.44" x2="61.96" y2="36.95"/><line class="cls-7" x1="62.09" y1="37.2" x2="62.47" y2="37.71"/><line class="cls-7" x1="62.73" y1="37.97" x2="63.11" y2="38.35"/><line class="cls-7" x1="63.24" y1="38.6" x2="63.62" y2="39.11"/><line class="cls-7" x1="63.87" y1="39.37" x2="64.26" y2="39.75"/><line class="cls-7" x1="64.38" y1="40" x2="64.77" y2="40.51"/><line class="cls-7" x1="65.02" y1="40.77" x2="65.27" y2="41.15"/><line class="cls-7" x1="65.53" y1="41.4" x2="65.91" y2="41.91"/><line class="cls-7" x1="66.04" y1="42.17" x2="66.42" y2="42.55"/><line class="cls-7" x1="66.67" y1="42.8" x2="67.06" y2="43.31"/><line class="cls-7" x1="60.44" y1="43.31" x2="60.82" y2="42.8"/><line class="cls-7" x1="61.07" y1="42.55" x2="61.46" y2="42.17"/><line class="cls-7" x1="61.58" y1="41.91" x2="61.96" y2="41.4"/><line class="cls-7" x1="62.09" y1="41.15" x2="62.47" y2="40.77"/><line class="cls-7" x1="62.73" y1="40.51" x2="63.11" y2="40"/><line class="cls-7" x1="63.24" y1="39.75" x2="63.62" y2="39.37"/><line class="cls-7" x1="63.87" y1="39.11" x2="64.26" y2="38.6"/><line class="cls-7" x1="64.38" y1="38.35" x2="64.77" y2="37.97"/><line class="cls-7" x1="65.02" y1="37.71" x2="65.27" y2="37.2"/><line class="cls-7" x1="65.53" y1="36.95" x2="65.91" y2="36.44"/><line class="cls-7" x1="66.04" y1="36.31" x2="66.42" y2="35.8"/><line class="cls-7" x1="66.67" y1="35.55" x2="67.06" y2="35.04"/><line class="cls-7" x1="78.26" y1="35.04" x2="78.64" y2="35.42"/><line class="cls-7" x1="78.89" y1="35.55" x2="79.4" y2="35.93"/><line class="cls-7" x1="79.53" y1="36.18" x2="80.04" y2="36.57"/><line class="cls-7" x1="80.3" y1="36.69" x2="80.8" y2="37.07"/><line class="cls-7" x1="80.93" y1="37.33" x2="81.44" y2="37.71"/><line class="cls-7" x1="81.7" y1="37.84" x2="82.2" y2="38.22"/><line class="cls-7" x1="82.33" y1="38.47" x2="82.84" y2="38.86"/><line class="cls-7" x1="83.1" y1="38.98" x2="83.6" y2="39.37"/><line class="cls-7" x1="83.73" y1="39.62" x2="84.24" y2="40"/><line class="cls-7" x1="84.5" y1="40.13" x2="85" y2="40.51"/><line class="cls-7" x1="85.13" y1="40.77" x2="85.64" y2="41.15"/><line class="cls-7" x1="85.9" y1="41.27" x2="86.28" y2="41.66"/><line class="cls-7" x1="86.53" y1="41.91" x2="87.04" y2="42.29"/><line class="cls-7" x1="87.3" y1="42.42" x2="87.68" y2="42.8"/><line class="cls-7" x1="87.93" y1="43.06" x2="88.31" y2="43.31"/><line class="cls-7" x1="88.31" y1="35.04" x2="87.93" y2="35.42"/><line class="cls-7" x1="87.68" y1="35.55" x2="87.3" y2="35.93"/><line class="cls-7" x1="87.04" y1="36.18" x2="86.53" y2="36.57"/><line class="cls-7" x1="86.28" y1="36.69" x2="85.9" y2="37.07"/><line class="cls-7" x1="85.64" y1="37.33" x2="85.13" y2="37.71"/><line class="cls-7" x1="85" y1="37.84" x2="84.5" y2="38.22"/><line class="cls-7" x1="84.24" y1="38.47" x2="83.73" y2="38.86"/><line class="cls-7" x1="83.6" y1="38.98" x2="83.1" y2="39.37"/><line class="cls-7" x1="82.84" y1="39.62" x2="82.33" y2="40"/><line class="cls-7" x1="82.2" y1="40.13" x2="81.7" y2="40.51"/><line class="cls-7" x1="81.44" y1="40.77" x2="80.93" y2="41.15"/><line class="cls-7" x1="80.8" y1="41.27" x2="80.3" y2="41.66"/><line class="cls-7" x1="80.04" y1="41.91" x2="79.53" y2="42.29"/><line class="cls-7" x1="79.4" y1="42.42" x2="78.9" y2="42.8"/><line class="cls-7" x1="78.64" y1="43.06" x2="78.26" y2="43.31"/><line class="cls-7" x1="60.44" y1="92.45" x2="60.82" y2="92.07"/><line class="cls-7" x1="61.07" y1="91.81" x2="61.46" y2="91.3"/><line class="cls-7" x1="61.58" y1="91.05" x2="61.96" y2="90.67"/><line class="cls-7" x1="62.09" y1="90.41" x2="62.47" y2="89.9"/><line class="cls-7" x1="62.73" y1="89.65" x2="63.11" y2="89.14"/><line class="cls-7" x1="63.24" y1="89.01" x2="63.62" y2="88.5"/><line class="cls-7" x1="63.87" y1="88.25" x2="64.26" y2="87.74"/><line class="cls-7" x1="64.38" y1="87.61" x2="64.77" y2="87.1"/><line class="cls-7" x1="65.02" y1="86.85" x2="65.27" y2="86.34"/><line class="cls-7" x1="65.53" y1="86.08" x2="65.91" y2="85.7"/><line class="cls-7" x1="66.04" y1="85.45" x2="66.42" y2="84.94"/><line class="cls-7" x1="66.67" y1="84.68" x2="67.06" y2="84.3"/><line class="cls-7" x1="60.44" y1="84.3" x2="60.82" y2="84.68"/><line class="cls-7" x1="61.07" y1="84.94" x2="61.46" y2="85.45"/><line class="cls-7" x1="61.58" y1="85.7" x2="61.96" y2="86.08"/><line class="cls-7" x1="62.09" y1="86.34" x2="62.47" y2="86.85"/><line class="cls-7" x1="62.73" y1="87.1" x2="63.11" y2="87.61"/><line class="cls-7" x1="63.24" y1="87.74" x2="63.62" y2="88.25"/><line class="cls-7" x1="63.87" y1="88.5" x2="64.26" y2="89.01"/><line class="cls-7" x1="64.38" y1="89.14" x2="64.77" y2="89.65"/><line class="cls-7" x1="65.02" y1="89.9" x2="65.27" y2="90.41"/><line class="cls-7" x1="65.53" y1="90.67" x2="65.91" y2="91.05"/><line class="cls-7" x1="66.04" y1="91.3" x2="66.42" y2="91.81"/><line class="cls-7" x1="66.67" y1="92.07" x2="67.06" y2="92.45"/><line class="cls-7" x1="78.26" y1="92.45" x2="78.64" y2="92.19"/><line class="cls-7" x1="78.89" y1="91.94" x2="79.4" y2="91.56"/><line class="cls-7" x1="79.53" y1="91.43" x2="80.04" y2="91.05"/><line class="cls-7" x1="80.3" y1="90.79" x2="80.8" y2="90.41"/><line class="cls-7" x1="80.93" y1="90.28" x2="81.44" y2="89.9"/><line class="cls-7" x1="81.7" y1="89.65" x2="82.2" y2="89.26"/><line class="cls-7" x1="82.33" y1="89.14" x2="82.84" y2="88.76"/><line class="cls-7" x1="83.1" y1="88.5" x2="83.6" y2="88.12"/><line class="cls-7" x1="83.73" y1="87.99" x2="84.24" y2="87.61"/><line class="cls-7" x1="84.5" y1="87.36" x2="85" y2="87.1"/><line class="cls-7" x1="85.13" y1="86.85" x2="85.64" y2="86.46"/><line class="cls-7" x1="85.9" y1="86.34" x2="86.28" y2="85.96"/><line class="cls-7" x1="86.53" y1="85.7" x2="87.04" y2="85.32"/><line class="cls-7" x1="87.3" y1="85.19" x2="87.68" y2="84.81"/><line class="cls-7" x1="87.93" y1="84.56" x2="88.31" y2="84.3"/><line class="cls-7" x1="78.26" y1="84.3" x2="78.64" y2="84.56"/><line class="cls-7" x1="78.89" y1="84.81" x2="79.4" y2="85.19"/><line class="cls-7" x1="79.53" y1="85.32" x2="80.04" y2="85.7"/><line class="cls-7" x1="80.3" y1="85.96" x2="80.8" y2="86.34"/><line class="cls-7" x1="80.93" y1="86.46" x2="81.44" y2="86.85"/><line class="cls-7" x1="81.7" y1="87.1" x2="82.2" y2="87.36"/><line class="cls-7" x1="82.33" y1="87.61" x2="82.84" y2="87.99"/><line class="cls-7" x1="83.1" y1="88.12" x2="83.6" y2="88.5"/><line class="cls-7" x1="83.73" y1="88.76" x2="84.24" y2="89.14"/><line class="cls-7" x1="84.5" y1="89.26" x2="85" y2="89.65"/><line class="cls-7" x1="85.13" y1="89.9" x2="85.64" y2="90.28"/><line class="cls-7" x1="85.9" y1="90.41" x2="86.28" y2="90.79"/><line class="cls-7" x1="86.53" y1="91.05" x2="87.04" y2="91.43"/><line class="cls-7" x1="87.3" y1="91.56" x2="87.68" y2="91.94"/><line class="cls-7" x1="87.93" y1="92.19" x2="88.31" y2="92.45"/><path class="cls-8" d="M156,12.63,154.12.54h.39Zm-.26.13.26-.13L154.12.54Z"/><path class="cls-9" d="M156,12.63,154.12.54h.39Zm-.26.13.26-.13L154.12.54Z"/><line class="cls-7" x1="157.31" y1="23.58" x2="155.91" y2="12.63"/><path class="cls-8" d="M156.8,12.63l-1.27-7h.38Zm-.38,0h.38l-1.27-7Z"/><path class="cls-9" d="M156.8,12.63l-1.27-7h.38Zm-.38,0h.38l-1.27-7Z"/><path class="cls-8" d="M155.4,12.76l-1.27-6.87h.38Zm-.38,0h.38l-1.27-6.87Z"/><path class="cls-9" d="M155.4,12.76l-1.27-6.87h.38Zm-.38,0h.38l-1.27-6.87Z"/><line class="cls-7" x1="157.05" y1="23.71" x2="156.8" y2="22.31"/><line class="cls-7" x1="147.63" y1="14.16" x2="145.85" y2="14.42"/><line class="cls-7" x1="166.09" y1="11.74" x2="164.18" y2="12"/><line class="cls-7" x1="166.09" y1="11.36" x2="145.72" y2="14.03"/><g class="cls-10"><path class="cls-7" d="M163.35,11.58a7.57,7.57,0,1,0-6.52,8.5,7.57,7.57,0,0,0,6.52-8.5"/><path class="cls-7" d="M162.85,11.65a7.07,7.07,0,1,0-6.08,7.92,7.06,7.06,0,0,0,6.08-7.92"/></g><path class="cls-8" d="M33.15,93.08l-.79-3h.4l.46,2c.05.2.09.41.13.61.07-.32.12-.5.13-.55l.58-2h.48L35,91.6a8.16,8.16,0,0,1,.23,1.06c0-.19.09-.4.15-.65l.47-1.93h.4l-.82,3H35l-.63-2.29-.09-.35c0,.14-.06.26-.09.35l-.64,2.29Z"/><path class="cls-8" d="M37.61,92.29l.37-.05a.79.79,0,0,0,.22.45.49.49,0,0,0,.37.14.6.6,0,0,0,.44-.18.61.61,0,0,0,.18-.45.58.58,0,0,0-.59-.58.92.92,0,0,0-.26,0l0-.32h.06a.8.8,0,0,0,.43-.12.43.43,0,0,0,.18-.38.45.45,0,0,0-.13-.34.48.48,0,0,0-.36-.13.52.52,0,0,0-.36.13.74.74,0,0,0-.18.41l-.37-.07a.94.94,0,0,1,.31-.57.86.86,0,0,1,.59-.2,1,1,0,0,1,.46.1.73.73,0,0,1,.31.29.68.68,0,0,1,.11.39.62.62,0,0,1-.1.35.73.73,0,0,1-.31.26.64.64,0,0,1,.41.25.77.77,0,0,1,.15.49.84.84,0,0,1-.29.66,1,1,0,0,1-.72.28.94.94,0,0,1-.66-.24A1,1,0,0,1,37.61,92.29Z"/><path class="cls-8" d="M40,91.6a2.6,2.6,0,0,1,.11-.86,1.11,1.11,0,0,1,.32-.5.84.84,0,0,1,.55-.17.93.93,0,0,1,.42.09.89.89,0,0,1,.3.28,1.69,1.69,0,0,1,.19.45,3.25,3.25,0,0,1,.07.71,2.78,2.78,0,0,1-.11.85,1,1,0,0,1-.33.51.8.8,0,0,1-.54.18.85.85,0,0,1-.69-.32A2,2,0,0,1,40,91.6Zm.38,0a1.89,1.89,0,0,0,.17,1,.51.51,0,0,0,.43.24.49.49,0,0,0,.42-.24,2.81,2.81,0,0,0,0-2,.51.51,0,0,0-.43-.24.45.45,0,0,0-.4.22A1.86,1.86,0,0,0,40.33,91.6Z"/><path class="cls-8" d="M42.28,92.3l.39,0a.7.7,0,0,0,.2.43.56.56,0,0,0,.38.14.59.59,0,0,0,.45-.2.76.76,0,0,0,.18-.53.68.68,0,0,0-.17-.5.64.64,0,0,0-.47-.18.65.65,0,0,0-.55.29l-.34,0,.29-1.54h1.49v.35h-1.2l-.16.81a1,1,0,0,1,.57-.19.9.9,0,0,1,.66.27.93.93,0,0,1,.28.7,1.09,1.09,0,0,1-.24.71,1.05,1.05,0,0,1-1.46.14A1,1,0,0,1,42.28,92.3Z"/><path class="cls-8" d="M5.06,67.57h-3v-.4H4.71V65.69h.35Z"/><path class="cls-8" d="M5.06,65.55l-3-1.15V64l3-1.23v.45l-.91.35V64.8l.91.33Zm-1.23-.87v-1L3,64l-.63.21a3.83,3.83,0,0,1,.58.16Z"/><path class="cls-8" d="M3.88,61H3.53V59.74H4.65a2.29,2.29,0,0,1,.35.6,1.77,1.77,0,0,1,.12.64,1.68,1.68,0,0,1-.2.81,1.18,1.18,0,0,1-.54.54,1.67,1.67,0,0,1-.81.19,1.92,1.92,0,0,1-.82-.18,1.25,1.25,0,0,1-.56-.53A1.71,1.71,0,0,1,2,61a1.63,1.63,0,0,1,.1-.59,1,1,0,0,1,.3-.41,1.24,1.24,0,0,1,.49-.23l.1.36a1.16,1.16,0,0,0-.37.17.84.84,0,0,0-.21.29,1.07,1.07,0,0,0-.07.41,1.13,1.13,0,0,0,.08.47.76.76,0,0,0,.22.32A.8.8,0,0,0,3,62a1.46,1.46,0,0,0,.6.12A1.48,1.48,0,0,0,4.22,62a.93.93,0,0,0,.41-.4A1.39,1.39,0,0,0,4.76,61a1.45,1.45,0,0,0-.1-.51,1.24,1.24,0,0,0-.22-.37H3.88Z"/><path class="cls-8" d="M3.6,59.27a1.61,1.61,0,0,1-1.17-.4,1.34,1.34,0,0,1-.43-1,1.45,1.45,0,0,1,.2-.75,1.38,1.38,0,0,1,.56-.51,1.71,1.71,0,0,1,.8-.17,1.8,1.8,0,0,1,.82.18,1.26,1.26,0,0,1,.55.52,1.56,1.56,0,0,1,.19.73,1.38,1.38,0,0,1-.21.76,1.25,1.25,0,0,1-.56.51A1.79,1.79,0,0,1,3.6,59.27Zm0-.41a1.22,1.22,0,0,0,.85-.29,1,1,0,0,0,0-1.47,1.25,1.25,0,0,0-.9-.29,1.59,1.59,0,0,0-.64.12.93.93,0,0,0-.42.36,1,1,0,0,0-.15.54,1,1,0,0,0,.29.73A1.29,1.29,0,0,0,3.61,58.86Z"/><path class="cls-8" d="M153.62,90.55l-3-1.16V89l3-1.23v.46l-.91.35v1.25l.91.33Zm-1.24-.87v-1l-.83.31c-.25.1-.46.17-.62.22a3,3,0,0,1,.57.16Z"/><path class="cls-8" d="M153.62,86.86l-2.18.83V87.3l1.3-.47.44-.14-.41-.14-1.33-.48v-.38l2.18.82Z"/><path class="cls-8" d="M153.62,85.26h-.42v-.42h.42Z"/><path class="cls-8" d="M152.76,83.18l0-.36a.8.8,0,0,0,.48-.12.5.5,0,0,0,.05-.58.34.34,0,0,0-.18-.15,1.21,1.21,0,0,0-.38,0h-2.07v-.4h2a1.5,1.5,0,0,1,.58.09.65.65,0,0,1,.32.29,1,1,0,0,1,.11.47.78.78,0,0,1-.23.6A.92.92,0,0,1,152.76,83.18Z"/><path class="cls-8" d="M152.15,81a1.61,1.61,0,0,1-1.17-.4,1.37,1.37,0,0,1-.42-1,1.44,1.44,0,0,1,.19-.75,1.38,1.38,0,0,1,.56-.51,1.78,1.78,0,0,1,.81-.17,1.86,1.86,0,0,1,.82.18,1.24,1.24,0,0,1,.54.52,1.45,1.45,0,0,1,.19.73,1.38,1.38,0,0,1-.21.76,1.26,1.26,0,0,1-.56.51A1.72,1.72,0,0,1,152.15,81Zm0-.41a1.2,1.2,0,0,0,.85-.29,1,1,0,0,0,0-1.47,1.24,1.24,0,0,0-.89-.29,1.64,1.64,0,0,0-.65.12.93.93,0,0,0-.42.36,1,1,0,0,0-.15.54,1.05,1.05,0,0,0,.29.73A1.31,1.31,0,0,0,152.16,80.59Z"/><path class="cls-8" d="M153.62,77.94l-3-1.15v-.43l3-1.23v.45l-.91.35v1.26l.91.33Zm-1.24-.86v-1l-.83.31a5,5,0,0,1-.62.21,4.11,4.11,0,0,1,.57.17Z"/><path class="cls-8" d="M153.29,72.53a2.18,2.18,0,0,0,.28-.51l.28.12a2.39,2.39,0,0,1-.37.65,1.4,1.4,0,0,1,.19.73,1.41,1.41,0,0,1-.2.74,1.31,1.31,0,0,1-.55.52,1.78,1.78,0,0,1-.81.17,1.84,1.84,0,0,1-.81-.17,1.32,1.32,0,0,1-.55-.52,1.56,1.56,0,0,1,0-1.49,1.25,1.25,0,0,1,.56-.51,1.71,1.71,0,0,1,.8-.18,2,2,0,0,1,.67.11A1.39,1.39,0,0,1,153.29,72.53Zm-.5.88a1.52,1.52,0,0,1,.28-.57,1.24,1.24,0,0,0-1-.35,1.62,1.62,0,0,0-.64.12,1,1,0,0,0-.42.37,1,1,0,0,0,.15,1.27,1.56,1.56,0,0,0,1.81,0,1,1,0,0,0,.32-.74,1.1,1.1,0,0,0-.08-.4,1.27,1.27,0,0,0-.17.4Z"/><path class="cls-8" d="M150.61,69.57v-.4h1.74a2,2,0,0,1,.72.11.85.85,0,0,1,.43.37,1.32,1.32,0,0,1,.17.7,1.41,1.41,0,0,1-.15.69.82.82,0,0,1-.42.38,1.89,1.89,0,0,1-.75.12h-1.74v-.4h1.73a1.64,1.64,0,0,0,.58-.07.55.55,0,0,0,.29-.25.87.87,0,0,0,.1-.44.82.82,0,0,0-.2-.62,1.12,1.12,0,0,0-.77-.19Z"/><path class="cls-8" d="M153.62,68.44h-3v-.39h3Z"/><path class="cls-8" d="M153.62,67.35h-3v-.41L153,65.36h-2.36V65h3v.41L151.25,67h2.37Z"/><path class="cls-8" d="M152.65,63.28l0-.38a.71.71,0,0,0,.37-.12.67.67,0,0,0,.23-.3,1.14,1.14,0,0,0,.09-.46,1.07,1.07,0,0,0-.07-.41.48.48,0,0,0-.18-.25.43.43,0,0,0-.26-.09.44.44,0,0,0-.25.08.6.6,0,0,0-.17.27,2.85,2.85,0,0,0-.15.54,3,3,0,0,1-.19.58.8.8,0,0,1-.28.32.66.66,0,0,1-.37.1A.82.82,0,0,1,151,63a.88.88,0,0,1-.3-.38,1.42,1.42,0,0,1-.1-.55,1.35,1.35,0,0,1,.11-.59.89.89,0,0,1,.31-.4.87.87,0,0,1,.48-.14l0,.38a.62.62,0,0,0-.44.21.83.83,0,0,0-.14.52.84.84,0,0,0,.13.53.4.4,0,0,0,.32.16.34.34,0,0,0,.27-.12,1.46,1.46,0,0,0,.21-.6,4.16,4.16,0,0,1,.19-.66.9.9,0,0,1,.31-.39.77.77,0,0,1,.43-.12.81.81,0,0,1,.45.13,1,1,0,0,1,.33.4,1.34,1.34,0,0,1,.12.58,1.69,1.69,0,0,1-.12.68,1,1,0,0,1-.36.44A1.1,1.1,0,0,1,152.65,63.28Z"/><path class="cls-8" d="M153.62,60.33h-3V58.16H151v1.78h.93V58.27h.35v1.67h1V58.09h.36Z"/><path class="cls-8" d="M152.56,55.4l.1-.4a1.29,1.29,0,0,1,.75.45,1.23,1.23,0,0,1,.26.79,1.42,1.42,0,0,1-.2.79,1.21,1.21,0,0,1-.57.47,2.17,2.17,0,0,1-.81.16,1.77,1.77,0,0,1-.82-.18,1.24,1.24,0,0,1-.53-.51,1.52,1.52,0,0,1-.18-.73,1.19,1.19,0,0,1,.23-.76,1.17,1.17,0,0,1,.64-.43l.1.39a.9.9,0,0,0-.48.31.78.78,0,0,0-.15.5.94.94,0,0,0,.16.57.87.87,0,0,0,.45.33,1.91,1.91,0,0,0,.58.1,1.74,1.74,0,0,0,.67-.12.87.87,0,0,0,.43-.34,1,1,0,0,0,.14-.51.84.84,0,0,0-.2-.57A.93.93,0,0,0,152.56,55.4Z"/><path class="cls-8" d="M152.15,54.63a1.61,1.61,0,0,1-1.17-.4,1.39,1.39,0,0,1-.42-1,1.44,1.44,0,0,1,.19-.75,1.38,1.38,0,0,1,.56-.51,1.79,1.79,0,0,1,.81-.18,1.87,1.87,0,0,1,.82.19,1.24,1.24,0,0,1,.54.52,1.45,1.45,0,0,1,.19.73,1.4,1.4,0,0,1-.21.76,1.32,1.32,0,0,1-.56.51A1.72,1.72,0,0,1,152.15,54.63Zm0-.41a1.2,1.2,0,0,0,.85-.29,1,1,0,0,0,0-1.48,1.29,1.29,0,0,0-.89-.29,1.48,1.48,0,0,0-.65.13.93.93,0,0,0-.42.36,1,1,0,0,0-.15.54,1,1,0,0,0,.29.72A1.27,1.27,0,0,0,152.16,54.22Z"/><path class="cls-8" d="M153.62,50h-3v-.4h3Z"/><path class="cls-8" d="M153.62,48.92h-3v-.39h2.65V47h.36Z"/><path class="cls-8" d="M153.62,46.59h-3v-.4h2.65V44.71h.36Z"/><path class="cls-8" d="M153.62,44.57l-3-1.16V43l3-1.23v.45l-.91.36v1.25l.91.33Zm-1.24-.87v-1l-.83.31c-.25.1-.46.17-.62.22a3,3,0,0,1,.57.16Z"/><polyline class="cls-7" points="88.31 35.04 88.31 52.6 107.79 52.6 107.79 54.9 112.12 54.9 112.12 52.6 115.81 52.6 115.81 54 120.39 54 120.39 52.6 123.83 52.6 123.83 54.9 129.56 54.9 129.56 10.09 123.83 10.09 123.83 12.38 120.39 12.38 120.39 11.11 115.81 11.11 115.81 12.38 112.12 12.38 112.12 10.09 107.79 10.09 107.79 12.38 88.82 12.38 88.82 15.43 80.55 15.43 80.55 30.58 67.06 30.58 67.06 35.04"/><line class="cls-7" x1="112.12" y1="10.09" x2="123.83" y2="10.09"/><polyline class="cls-7" points="112.63 10.85 112.12 10.72 123.83 10.72"/><line class="cls-7" x1="112.88" y1="10.98" x2="113.39" y2="11.23"/><line class="cls-7" x1="113.65" y1="11.36" x2="114.15" y2="11.62"/><line class="cls-7" x1="114.54" y1="11.74" x2="115.05" y2="12"/><line class="cls-7" x1="115.3" y1="12.12" x2="115.81" y2="12.38"/><line class="cls-7" x1="112.12" y1="12.38" x2="112.63" y2="12.12"/><line class="cls-7" x1="112.88" y1="12" x2="113.39" y2="11.74"/><line class="cls-7" x1="113.65" y1="11.62" x2="114.15" y2="11.36"/><line class="cls-7" x1="114.54" y1="11.23" x2="115.05" y2="10.98"/><line class="cls-7" x1="115.3" y1="10.85" x2="115.81" y2="10.72"/><line class="cls-7" x1="120.39" y1="10.72" x2="120.77" y2="10.85"/><line class="cls-7" x1="121.03" y1="10.98" x2="121.54" y2="11.23"/><line class="cls-7" x1="121.79" y1="11.36" x2="122.43" y2="11.62"/><line class="cls-7" x1="122.68" y1="11.74" x2="123.19" y2="12"/><line class="cls-7" x1="123.45" y1="12.25" x2="123.83" y2="12.38"/><line class="cls-7" x1="120.39" y1="12.38" x2="120.77" y2="12.25"/><line class="cls-7" x1="121.03" y1="12" x2="121.54" y2="11.74"/><line class="cls-7" x1="121.79" y1="11.62" x2="122.43" y2="11.36"/><line class="cls-7" x1="122.68" y1="11.23" x2="123.19" y2="10.98"/><line class="cls-7" x1="123.45" y1="10.85" x2="123.83" y2="10.72"/><line class="cls-7" x1="112.12" y1="54.9" x2="123.83" y2="54.9"/><polyline class="cls-7" points="112.63 54.13 112.12 54.39 123.83 54.39"/><line class="cls-7" x1="112.88" y1="54" x2="113.39" y2="53.75"/><line class="cls-7" x1="113.65" y1="53.62" x2="114.15" y2="53.37"/><line class="cls-7" x1="114.54" y1="53.24" x2="115.05" y2="52.99"/><line class="cls-7" x1="115.3" y1="52.86" x2="115.81" y2="52.6"/><line class="cls-7" x1="112.12" y1="52.6" x2="112.63" y2="52.86"/><line class="cls-7" x1="112.88" y1="52.99" x2="113.39" y2="53.24"/><line class="cls-7" x1="113.65" y1="53.37" x2="114.15" y2="53.62"/><line class="cls-7" x1="114.54" y1="53.75" x2="115.05" y2="54"/><line class="cls-7" x1="115.3" y1="54.13" x2="115.81" y2="54.39"/><line class="cls-7" x1="120.39" y1="54.39" x2="120.77" y2="54.13"/><line class="cls-7" x1="121.03" y1="54" x2="121.54" y2="53.75"/><line class="cls-7" x1="121.79" y1="53.62" x2="122.43" y2="53.37"/><line class="cls-7" x1="122.68" y1="53.24" x2="123.19" y2="52.99"/><line class="cls-7" x1="123.45" y1="52.86" x2="123.83" y2="52.6"/><line class="cls-7" x1="120.39" y1="52.6" x2="120.77" y2="52.86"/><line class="cls-7" x1="121.03" y1="52.99" x2="121.54" y2="53.24"/><line class="cls-7" x1="121.79" y1="53.37" x2="122.43" y2="53.62"/><line class="cls-7" x1="122.68" y1="53.75" x2="123.19" y2="54"/><line class="cls-7" x1="123.45" y1="54.13" x2="123.83" y2="54.39"/><polyline class="cls-7" points="80.55 15.43 71 15.43 71 12.38 37.52 12.38 37.52 11.11 32.94 11.11 32.94 12.38 29 12.38 29 25.87 22.63 25.87 22.63 46.62 23.77 46.62 23.77 51.59 38.03 51.59 38.03 63.81 59.93 63.81 59.93 53.49 59.93 43.31 47.84 43.31 47.84 30.58 80.55 30.58 80.55 15.43"/><polyline class="cls-7" points="80.55 112.18 71 112.18 71 115.23 37.52 115.23 37.52 116.51 32.94 116.51 32.94 115.23 29 115.23 29 101.61 22.63 101.61 22.63 80.86 23.77 80.86 23.77 76.03 38.03 76.03 38.03 63.8 59.93 63.8 59.93 84.3 47.84 84.3 47.84 96.9 80.55 96.9 80.55 112.18"/><line class="cls-7" x1="23.78" y1="76.03" x2="23.78" y2="51.59"/><line class="cls-7" x1="24.41" y1="76.03" x2="24.41" y2="51.59"/><path class="cls-8" d="M32.64,38.09v-3h2.17v.35H33v.92H34.7v.35H33v1h1.84v.35Z"/><path class="cls-8" d="M36.45,37.3l.37,0a.74.74,0,0,0,.22.45.53.53,0,0,0,.37.14.6.6,0,0,0,.44-.18.61.61,0,0,0,.18-.45.57.57,0,0,0-.17-.42.57.57,0,0,0-.42-.16.92.92,0,0,0-.26,0l0-.32h.06a.74.74,0,0,0,.42-.12.48.48,0,0,0,0-.72.48.48,0,0,0-.35-.13.52.52,0,0,0-.36.13.63.63,0,0,0-.18.41l-.37-.07a.91.91,0,0,1,.3-.57.88.88,0,0,1,.6-.21,1,1,0,0,1,.45.11.75.75,0,0,1,.32.29.77.77,0,0,1,.11.39.62.62,0,0,1-.1.35.7.7,0,0,1-.31.25.72.72,0,0,1,.56.74.88.88,0,0,1-.29.67,1,1,0,0,1-.72.28.92.92,0,0,1-.66-.24A.87.87,0,0,1,36.45,37.3Z"/><path class="cls-8" d="M38.78,36.61a2.85,2.85,0,0,1,.11-.86,1.22,1.22,0,0,1,.33-.5.8.8,0,0,1,.54-.18,1,1,0,0,1,.43.1.89.89,0,0,1,.3.28,1.56,1.56,0,0,1,.19.45,3.35,3.35,0,0,1,.06.71,2.82,2.82,0,0,1-.1.85,1.19,1.19,0,0,1-.33.51.88.88,0,0,1-.55.17.82.82,0,0,1-.68-.31A2,2,0,0,1,38.78,36.61Zm.38,0a1.87,1.87,0,0,0,.18,1,.49.49,0,0,0,.85,0,1.82,1.82,0,0,0,.17-1,1.89,1.89,0,0,0-.17-1,.51.51,0,0,0-.43-.24.49.49,0,0,0-.41.21A2,2,0,0,0,39.16,36.61Z"/><path class="cls-8" d="M41.12,37.3l.37,0a.74.74,0,0,0,.22.45.53.53,0,0,0,.37.14.6.6,0,0,0,.44-.18.61.61,0,0,0,.18-.45.57.57,0,0,0-.17-.42.57.57,0,0,0-.42-.16.92.92,0,0,0-.26,0l0-.32H42a.74.74,0,0,0,.42-.12.42.42,0,0,0,.19-.38.45.45,0,0,0-.13-.34.5.5,0,0,0-.36-.13.52.52,0,0,0-.36.13.68.68,0,0,0-.18.41l-.37-.07a.92.92,0,0,1,.31-.57.87.87,0,0,1,.59-.21,1,1,0,0,1,.46.11.79.79,0,0,1,.31.29.68.68,0,0,1,.11.39.62.62,0,0,1-.1.35.65.65,0,0,1-.31.25.73.73,0,0,1,.41.26.76.76,0,0,1,.15.48.85.85,0,0,1-.29.67,1,1,0,0,1-.72.28.92.92,0,0,1-.66-.24A1,1,0,0,1,41.12,37.3Z"/><polyline class="cls-7" points="88.31 92.45 88.31 74.88 107.79 74.88 107.79 72.72 112.12 72.72 112.12 74.88 115.81 74.88 115.81 73.61 120.39 73.61 120.39 74.88 123.83 74.88 123.83 72.72 129.56 72.72 129.56 117.4 123.83 117.4 123.83 115.23 120.39 115.23 120.39 116.51 115.81 116.51 115.81 115.23 112.12 115.23 112.12 117.4 107.79 117.4 107.79 115.23 88.82 115.23 88.82 112.18 80.55 112.18 80.55 96.9 60.44 96.9 60.44 92.45"/><polyline class="cls-7" points="112.63 116.63 112.12 116.89 123.83 116.89"/><line class="cls-7" x1="112.88" y1="116.51" x2="113.39" y2="116.25"/><line class="cls-7" x1="113.65" y1="116.12" x2="114.15" y2="115.87"/><line class="cls-7" x1="114.54" y1="115.74" x2="115.05" y2="115.49"/><line class="cls-7" x1="115.3" y1="115.36" x2="115.81" y2="115.23"/><line class="cls-7" x1="112.12" y1="115.23" x2="112.63" y2="115.36"/><line class="cls-7" x1="112.88" y1="115.49" x2="113.39" y2="115.74"/><line class="cls-7" x1="113.65" y1="115.87" x2="114.15" y2="116.12"/><line class="cls-7" x1="114.54" y1="116.25" x2="115.05" y2="116.51"/><line class="cls-7" x1="115.3" y1="116.63" x2="115.81" y2="116.89"/><line class="cls-7" x1="120.39" y1="116.89" x2="120.77" y2="116.76"/><line class="cls-7" x1="121.03" y1="116.51" x2="121.54" y2="116.25"/><line class="cls-7" x1="121.79" y1="116.12" x2="122.43" y2="115.87"/><line class="cls-7" x1="122.68" y1="115.74" x2="123.19" y2="115.49"/><line class="cls-7" x1="123.45" y1="115.36" x2="123.83" y2="115.23"/><line class="cls-7" x1="120.39" y1="115.23" x2="120.77" y2="115.36"/><line class="cls-7" x1="121.03" y1="115.49" x2="121.54" y2="115.74"/><line class="cls-7" x1="121.79" y1="115.87" x2="122.43" y2="116.12"/><line class="cls-7" x1="122.68" y1="116.25" x2="123.19" y2="116.51"/><line class="cls-7" x1="123.45" y1="116.76" x2="123.83" y2="116.89"/><line class="cls-7" x1="112.12" y1="72.72" x2="123.83" y2="72.72"/><polyline class="cls-7" points="112.63 73.48 112.12 73.23 123.83 73.23"/><line class="cls-7" x1="112.88" y1="73.61" x2="113.39" y2="73.86"/><line class="cls-7" x1="113.65" y1="73.99" x2="114.15" y2="74.24"/><line class="cls-7" x1="114.54" y1="74.37" x2="115.05" y2="74.63"/><line class="cls-7" x1="115.3" y1="74.75" x2="115.81" y2="74.88"/><line class="cls-7" x1="112.12" y1="74.88" x2="112.63" y2="74.75"/><line class="cls-7" x1="112.88" y1="74.63" x2="113.39" y2="74.37"/><line class="cls-7" x1="113.65" y1="74.24" x2="114.15" y2="73.99"/><line class="cls-7" x1="114.54" y1="73.86" x2="115.05" y2="73.61"/><line class="cls-7" x1="115.3" y1="73.48" x2="115.81" y2="73.23"/><line class="cls-7" x1="120.39" y1="73.23" x2="120.77" y2="73.35"/><line class="cls-7" x1="121.03" y1="73.61" x2="121.54" y2="73.86"/><line class="cls-7" x1="121.79" y1="73.99" x2="122.43" y2="74.24"/><line class="cls-7" x1="122.68" y1="74.37" x2="123.19" y2="74.63"/><line class="cls-7" x1="123.45" y1="74.75" x2="123.83" y2="74.88"/><line class="cls-7" x1="120.39" y1="74.88" x2="120.77" y2="74.75"/><line class="cls-7" x1="121.03" y1="74.63" x2="121.54" y2="74.37"/><line class="cls-7" x1="121.79" y1="74.24" x2="122.43" y2="73.99"/><line class="cls-7" x1="122.68" y1="73.86" x2="123.19" y2="73.61"/><line class="cls-7" x1="123.45" y1="73.35" x2="123.83" y2="73.23"/><line class="cls-7" x1="37.78" y1="63.81" x2="37.78" y2="63.81"/><line class="cls-7" x1="37.4" y1="63.81" x2="37.4" y2="63.81"/><line class="cls-7" x1="37.14" y1="63.81" x2="37.14" y2="63.81"/><line class="cls-7" x1="36.89" y1="63.81" x2="36.89" y2="63.81"/><line class="cls-7" x1="36.51" y1="63.81" x2="36.51" y2="63.81"/><line class="cls-7" x1="36.25" y1="63.81" x2="36.25" y2="63.81"/><line class="cls-7" x1="35.87" y1="63.81" x2="35.87" y2="63.81"/><line class="cls-7" x1="35.61" y1="63.81" x2="35.61" y2="63.81"/><line class="cls-7" x1="35.36" y1="63.81" x2="35.36" y2="63.81"/><line class="cls-7" x1="34.98" y1="63.81" x2="34.98" y2="63.81"/><line class="cls-7" x1="34.72" y1="63.81" x2="34.72" y2="63.81"/><line class="cls-7" x1="34.34" y1="63.81" x2="34.34" y2="63.81"/><line class="cls-7" x1="34.09" y1="63.81" x2="34.09" y2="63.81"/><line class="cls-7" x1="33.83" y1="63.81" x2="33.83" y2="63.81"/><line class="cls-7" x1="33.45" y1="63.81" x2="33.45" y2="63.81"/><line class="cls-7" x1="33.2" y1="63.81" x2="33.2" y2="63.81"/><line class="cls-7" x1="32.81" y1="63.81" x2="32.81" y2="63.81"/><line class="cls-7" x1="32.56" y1="63.81" x2="32.56" y2="63.81"/><line class="cls-7" x1="32.3" y1="63.81" x2="32.3" y2="63.81"/><line class="cls-7" x1="31.92" y1="63.81" x2="31.92" y2="63.81"/><line class="cls-7" x1="31.67" y1="63.81" x2="31.67" y2="63.81"/><line class="cls-7" x1="31.29" y1="63.81" x2="31.29" y2="63.81"/><line class="cls-7" x1="31.03" y1="63.81" x2="31.03" y2="63.81"/><line class="cls-7" x1="30.78" y1="63.81" x2="30.78" y2="63.81"/><line class="cls-7" x1="30.4" y1="63.81" x2="30.4" y2="63.81"/><line class="cls-7" x1="30.14" y1="63.81" x2="30.14" y2="63.81"/><line class="cls-7" x1="29.76" y1="63.81" x2="29.76" y2="63.81"/><line class="cls-7" x1="29.5" y1="63.81" x2="29.5" y2="63.81"/><line class="cls-7" x1="29.12" y1="63.81" x2="29.12" y2="63.81"/><line class="cls-7" x1="28.87" y1="63.81" x2="28.87" y2="63.81"/><line class="cls-7" x1="28.61" y1="63.81" x2="28.61" y2="63.81"/><line class="cls-7" x1="28.23" y1="63.81" x2="28.23" y2="63.81"/><line class="cls-7" x1="27.98" y1="63.81" x2="27.98" y2="63.81"/><line class="cls-7" x1="27.6" y1="63.81" x2="27.6" y2="63.81"/><line class="cls-7" x1="27.34" y1="63.81" x2="27.34" y2="63.81"/><line class="cls-7" x1="27.09" y1="63.81" x2="27.09" y2="63.81"/><line class="cls-7" x1="26.7" y1="63.81" x2="26.7" y2="63.81"/><line class="cls-7" x1="26.45" y1="63.81" x2="26.45" y2="63.81"/><line class="cls-7" x1="26.07" y1="63.81" x2="26.07" y2="63.81"/><line class="cls-7" x1="25.81" y1="63.81" x2="25.81" y2="63.81"/><line class="cls-7" x1="25.56" y1="63.81" x2="25.56" y2="63.81"/><line class="cls-7" x1="25.18" y1="63.81" x2="25.18" y2="63.81"/><line class="cls-7" x1="24.92" y1="63.81" x2="24.92" y2="63.81"/><line class="cls-7" x1="24.54" y1="63.81" x2="24.54" y2="63.81"/></g></g></svg>