<svg id="Capa_1" data-name="Capa 1" xmlns="http://www.w3.org/2000/svg" xmlns:xlink="http://www.w3.org/1999/xlink" viewBox="0 0 168.43 120.3"><defs><style>.cls-1,.cls-4,.cls-5,.cls-7{fill:none;}.cls-2{clip-path:url(#clip-path);}.cls-3{fill:#ebebeb;}.cls-4{stroke:#ebebeb;}.cls-4,.cls-5,.cls-7{stroke-miterlimit:10;}.cls-4,.cls-7{stroke-width:0;}.cls-5,.cls-7{stroke:#63666b;stroke-linecap:round;}.cls-5{stroke-width:0.25px;}.cls-6{fill:#63666b;}.cls-8{clip-path:url(#clip-path-3);}</style><clipPath id="clip-path"><rect class="cls-1" x="-70.98" y="-530.54" width="1190.55" height="841.89"/></clipPath><clipPath id="clip-path-3"><rect class="cls-1" width="168.43" height="120.3"/></clipPath></defs><title>E201S</title><g class="cls-2"><g class="cls-2"><path class="cls-3" d="M111.86,33.19l17.7,1.91h-17.7Zm17.7,0h-17.7l17.7,1.91Z"/><path class="cls-4" d="M111.86,33.19l17.7,1.91h-17.7Zm17.7,0h-17.7l17.7,1.91Z"/><path class="cls-3" d="M88.31,35.1l41.25,18.08H88.31Zm41.25,0H88.31l41.25,18.08Z"/><path class="cls-4" d="M88.31,35.1l41.25,18.08H88.31Zm41.25,0H88.31l41.25,18.08Z"/><path class="cls-3" d="M115.81,53.18l4.58,1.4h-4.58Zm4.58,0h-4.58l4.58,1.4Z"/><path class="cls-4" d="M115.81,53.18l4.58,1.4h-4.58Zm4.58,0h-4.58l4.58,1.4Z"/><path class="cls-3" d="M123.83,53.18l5.73,2.29h-5.73Zm5.73,0h-5.73l5.73,2.29Z"/><path class="cls-4" d="M123.83,53.18l5.73,2.29h-5.73Zm5.73,0h-5.73l5.73,2.29Z"/><path class="cls-3" d="M107.79,53.18l4.33,2.29h-4.33Zm4.33,0h-4.33l4.33,2.29Z"/><path class="cls-4" d="M107.79,53.18l4.33,2.29h-4.33Zm4.33,0h-4.33l4.33,2.29Z"/><polyline class="cls-5" points="80.55 16.01 71 16.01 71 12.95 37.52 12.95 37.52 11.55 32.94 11.55 32.94 12.95 28.99 12.95 28.99 26.45 22.63 26.45 22.63 47.2 23.77 47.2 23.77 49.49 43.25 49.49 43.25 43.89 43.38 43.89 43.38 31.16 80.55 31.16 80.55 16.01"/><polyline class="cls-5" points="43.25 43.89 57.76 43.89 57.76 53.81 59.93 53.81 59.93 63.36 57.76 63.36 57.76 71.13 59.93 71.13 59.93 76.22 57.76 76.22 57.76 84.88 47.71 84.88 47.71 89.58 43.25 89.58 43.25 79.27 25.18 79.27 25.18 52.03 23.78 52.03 23.78 49.49 43.25 49.49 43.25 43.89"/><polyline class="cls-5" points="80.55 112.63 71 112.63 71 115.81 37.52 115.81 37.52 117.08 32.94 117.08 32.94 115.81 28.99 115.81 28.99 102.19 22.63 102.19 22.63 81.44 23.77 81.44 23.77 79.27 43.25 79.27 43.25 84.88 43.38 84.88 43.38 97.48 80.55 97.48 80.55 112.63"/><polyline class="cls-5" points="88.31 35.61 78.26 35.61 78.26 44.4 67.06 44.4 67.06 35.61 60.44 35.61 60.44 44.4 57.76 44.4"/><line class="cls-5" x1="60.44" y1="43.89" x2="67.06" y2="43.89"/><line class="cls-5" x1="67.06" y1="44.4" x2="60.44" y2="44.4"/><line class="cls-5" x1="78.26" y1="44.4" x2="88.31" y2="44.4"/><line class="cls-5" x1="88.31" y1="43.89" x2="78.26" y2="43.89"/><line class="cls-5" x1="59.93" y1="44.4" x2="59.93" y2="84.24"/><line class="cls-5" x1="60.44" y1="84.24" x2="60.44" y2="44.4"/><polyline class="cls-5" points="88.31 93.02 78.26 93.02 78.26 84.24 67.06 84.24 67.06 93.02 60.44 93.02 60.44 84.24 57.76 84.24"/><line class="cls-5" x1="60.44" y1="84.87" x2="67.06" y2="84.87"/><line class="cls-5" x1="67.06" y1="84.24" x2="60.44" y2="84.24"/><line class="cls-5" x1="78.26" y1="84.24" x2="88.31" y2="84.24"/><line class="cls-5" x1="88.31" y1="84.87" x2="78.26" y2="84.87"/><line class="cls-5" x1="60.44" y1="35.61" x2="60.82" y2="36.12"/><line class="cls-5" x1="61.07" y1="36.38" x2="61.45" y2="36.88"/><line class="cls-5" x1="61.58" y1="37.01" x2="61.96" y2="37.52"/><line class="cls-5" x1="62.09" y1="37.78" x2="62.47" y2="38.28"/><line class="cls-5" x1="62.73" y1="38.41" x2="63.11" y2="38.92"/><line class="cls-5" x1="63.24" y1="39.18" x2="63.62" y2="39.68"/><line class="cls-5" x1="63.87" y1="39.94" x2="64.26" y2="40.32"/><line class="cls-5" x1="64.38" y1="40.58" x2="64.76" y2="41.09"/><line class="cls-5" x1="65.02" y1="41.34" x2="65.27" y2="41.72"/><line class="cls-5" x1="65.53" y1="41.98" x2="65.91" y2="42.49"/><line class="cls-5" x1="66.04" y1="42.74" x2="66.42" y2="43.12"/><line class="cls-5" x1="66.67" y1="43.38" x2="67.06" y2="43.89"/><line class="cls-5" x1="60.44" y1="43.89" x2="60.82" y2="43.38"/><line class="cls-5" x1="61.07" y1="43.12" x2="61.45" y2="42.74"/><line class="cls-5" x1="61.58" y1="42.49" x2="61.96" y2="41.98"/><line class="cls-5" x1="62.09" y1="41.72" x2="62.47" y2="41.34"/><line class="cls-5" x1="62.73" y1="41.09" x2="63.11" y2="40.58"/><line class="cls-5" x1="63.24" y1="40.32" x2="63.62" y2="39.94"/><line class="cls-5" x1="63.87" y1="39.68" x2="64.26" y2="39.18"/><line class="cls-5" x1="64.38" y1="38.92" x2="64.76" y2="38.41"/><line class="cls-5" x1="65.02" y1="38.28" x2="65.27" y2="37.78"/><line class="cls-5" x1="65.53" y1="37.52" x2="65.91" y2="37.01"/><line class="cls-5" x1="66.04" y1="36.88" x2="66.42" y2="36.38"/><line class="cls-5" x1="66.67" y1="36.12" x2="67.06" y2="35.61"/><line class="cls-5" x1="78.26" y1="35.61" x2="78.64" y2="35.99"/><line class="cls-5" x1="78.89" y1="36.12" x2="79.4" y2="36.5"/><line class="cls-5" x1="79.53" y1="36.76" x2="80.04" y2="37.14"/><line class="cls-5" x1="80.29" y1="37.27" x2="80.8" y2="37.65"/><line class="cls-5" x1="80.93" y1="37.9" x2="81.44" y2="38.29"/><line class="cls-5" x1="81.69" y1="38.41" x2="82.2" y2="38.79"/><line class="cls-5" x1="82.33" y1="39.05" x2="82.84" y2="39.43"/><line class="cls-5" x1="83.1" y1="39.56" x2="83.6" y2="39.94"/><line class="cls-5" x1="83.73" y1="40.19" x2="84.24" y2="40.58"/><line class="cls-5" x1="84.5" y1="40.7" x2="85" y2="41.09"/><line class="cls-5" x1="85.13" y1="41.34" x2="85.64" y2="41.72"/><line class="cls-5" x1="85.9" y1="41.85" x2="86.28" y2="42.23"/><line class="cls-5" x1="86.53" y1="42.49" x2="87.04" y2="42.87"/><line class="cls-5" x1="87.3" y1="42.99" x2="87.68" y2="43.38"/><line class="cls-5" x1="87.93" y1="43.63" x2="88.31" y2="43.89"/><line class="cls-5" x1="88.31" y1="35.61" x2="87.93" y2="35.99"/><line class="cls-5" x1="87.68" y1="36.12" x2="87.3" y2="36.5"/><line class="cls-5" x1="87.04" y1="36.76" x2="86.53" y2="37.14"/><line class="cls-5" x1="86.28" y1="37.27" x2="85.9" y2="37.65"/><line class="cls-5" x1="85.64" y1="37.9" x2="85.13" y2="38.29"/><line class="cls-5" x1="85" y1="38.41" x2="84.5" y2="38.79"/><line class="cls-5" x1="84.24" y1="39.05" x2="83.73" y2="39.43"/><line class="cls-5" x1="83.6" y1="39.56" x2="83.1" y2="39.94"/><line class="cls-5" x1="82.84" y1="40.19" x2="82.33" y2="40.58"/><line class="cls-5" x1="82.2" y1="40.7" x2="81.7" y2="41.09"/><line class="cls-5" x1="81.44" y1="41.34" x2="80.93" y2="41.72"/><line class="cls-5" x1="80.8" y1="41.85" x2="80.3" y2="42.23"/><line class="cls-5" x1="80.04" y1="42.49" x2="79.53" y2="42.87"/><line class="cls-5" x1="79.4" y1="42.99" x2="78.89" y2="43.38"/><line class="cls-5" x1="78.64" y1="43.63" x2="78.26" y2="43.89"/><line class="cls-5" x1="57.76" y1="53.82" x2="59.93" y2="44.4"/><line class="cls-5" x1="57.76" y1="44.4" x2="59.93" y2="53.82"/><line class="cls-5" x1="57.76" y1="63.36" x2="58.02" y2="64.13"/><line class="cls-5" x1="58.14" y1="64.38" x2="58.27" y2="64.89"/><line class="cls-5" x1="58.27" y1="65.27" x2="58.53" y2="65.78"/><line class="cls-5" x1="58.53" y1="66.16" x2="58.65" y2="66.67"/><line class="cls-5" x1="58.78" y1="66.93" x2="58.91" y2="67.56"/><line class="cls-5" x1="59.04" y1="67.82" x2="59.16" y2="68.46"/><line class="cls-5" x1="59.29" y1="68.71" x2="59.42" y2="69.35"/><line class="cls-5" x1="59.55" y1="69.6" x2="59.67" y2="70.24"/><line class="cls-5" x1="59.67" y1="70.49" x2="59.93" y2="71.13"/><line class="cls-5" x1="57.76" y1="71.13" x2="58.02" y2="70.49"/><line class="cls-5" x1="58.14" y1="70.24" x2="58.27" y2="69.6"/><line class="cls-5" x1="58.27" y1="69.35" x2="58.53" y2="68.71"/><line class="cls-5" x1="58.53" y1="68.45" x2="58.65" y2="67.82"/><line class="cls-5" x1="58.78" y1="67.56" x2="58.91" y2="66.93"/><line class="cls-5" x1="59.04" y1="66.67" x2="59.16" y2="66.16"/><line class="cls-5" x1="59.29" y1="65.78" x2="59.42" y2="65.27"/><line class="cls-5" x1="59.55" y1="64.89" x2="59.67" y2="64.38"/><line class="cls-5" x1="59.67" y1="64.13" x2="59.93" y2="63.36"/><line class="cls-5" x1="60.44" y1="93.02" x2="60.82" y2="92.64"/><line class="cls-5" x1="61.07" y1="92.39" x2="61.45" y2="91.88"/><line class="cls-5" x1="61.58" y1="91.62" x2="61.96" y2="91.11"/><line class="cls-5" x1="62.09" y1="90.98" x2="62.47" y2="90.48"/><line class="cls-5" x1="62.73" y1="90.22" x2="63.11" y2="89.71"/><line class="cls-5" x1="63.24" y1="89.59" x2="63.62" y2="89.08"/><line class="cls-5" x1="63.87" y1="88.82" x2="64.26" y2="88.31"/><line class="cls-5" x1="64.38" y1="88.06" x2="64.76" y2="87.68"/><line class="cls-5" x1="65.02" y1="87.42" x2="65.27" y2="86.91"/><line class="cls-5" x1="65.53" y1="86.66" x2="65.91" y2="86.28"/><line class="cls-5" x1="66.04" y1="86.02" x2="66.42" y2="85.51"/><line class="cls-5" x1="66.67" y1="85.26" x2="67.06" y2="84.88"/><line class="cls-5" x1="60.44" y1="84.87" x2="60.82" y2="85.26"/><line class="cls-5" x1="61.07" y1="85.51" x2="61.45" y2="86.02"/><line class="cls-5" x1="61.58" y1="86.28" x2="61.96" y2="86.66"/><line class="cls-5" x1="62.09" y1="86.91" x2="62.47" y2="87.42"/><line class="cls-5" x1="62.73" y1="87.67" x2="63.11" y2="88.06"/><line class="cls-5" x1="63.24" y1="88.31" x2="63.62" y2="88.82"/><line class="cls-5" x1="63.87" y1="89.08" x2="64.26" y2="89.58"/><line class="cls-5" x1="64.38" y1="89.71" x2="64.76" y2="90.22"/><line class="cls-5" x1="65.02" y1="90.48" x2="65.27" y2="90.98"/><line class="cls-5" x1="65.53" y1="91.11" x2="65.91" y2="91.62"/><line class="cls-5" x1="66.04" y1="91.88" x2="66.42" y2="92.38"/><line class="cls-5" x1="66.67" y1="92.64" x2="67.06" y2="93.02"/><line class="cls-5" x1="78.26" y1="93.02" x2="78.64" y2="92.77"/><line class="cls-5" x1="78.89" y1="92.51" x2="79.4" y2="92.13"/><line class="cls-5" x1="79.53" y1="92" x2="80.04" y2="91.62"/><line class="cls-5" x1="80.29" y1="91.37" x2="80.8" y2="90.99"/><line class="cls-5" x1="80.93" y1="90.86" x2="81.44" y2="90.48"/><line class="cls-5" x1="81.69" y1="90.22" x2="82.2" y2="89.84"/><line class="cls-5" x1="82.33" y1="89.71" x2="82.84" y2="89.33"/><line class="cls-5" x1="83.1" y1="89.08" x2="83.6" y2="88.69"/><line class="cls-5" x1="83.73" y1="88.57" x2="84.24" y2="88.19"/><line class="cls-5" x1="84.5" y1="87.93" x2="85" y2="87.55"/><line class="cls-5" x1="85.13" y1="87.42" x2="85.64" y2="87.04"/><line class="cls-5" x1="85.9" y1="86.78" x2="86.28" y2="86.4"/><line class="cls-5" x1="86.53" y1="86.28" x2="87.04" y2="85.89"/><line class="cls-5" x1="87.3" y1="85.64" x2="87.68" y2="85.26"/><line class="cls-5" x1="87.93" y1="85.13" x2="88.31" y2="84.87"/><line class="cls-5" x1="78.26" y1="84.87" x2="78.64" y2="85.13"/><line class="cls-5" x1="78.89" y1="85.26" x2="79.4" y2="85.64"/><line class="cls-5" x1="79.53" y1="85.89" x2="80.04" y2="86.28"/><line class="cls-5" x1="80.29" y1="86.4" x2="80.8" y2="86.78"/><line class="cls-5" x1="80.93" y1="87.04" x2="81.44" y2="87.42"/><line class="cls-5" x1="81.69" y1="87.55" x2="82.2" y2="87.93"/><line class="cls-5" x1="82.33" y1="88.18" x2="82.84" y2="88.57"/><line class="cls-5" x1="83.1" y1="88.69" x2="83.6" y2="89.08"/><line class="cls-5" x1="83.73" y1="89.33" x2="84.24" y2="89.71"/><line class="cls-5" x1="84.5" y1="89.84" x2="85" y2="90.22"/><line class="cls-5" x1="85.13" y1="90.48" x2="85.64" y2="90.86"/><line class="cls-5" x1="85.9" y1="90.98" x2="86.28" y2="91.37"/><line class="cls-5" x1="86.53" y1="91.62" x2="87.04" y2="92"/><line class="cls-5" x1="87.3" y1="92.13" x2="87.68" y2="92.51"/><line class="cls-5" x1="87.93" y1="92.77" x2="88.31" y2="93.02"/><line class="cls-5" x1="57.76" y1="84.24" x2="57.89" y2="83.86"/><line class="cls-5" x1="58.02" y1="83.6" x2="58.14" y2="82.97"/><line class="cls-5" x1="58.27" y1="82.71" x2="58.4" y2="82.07"/><line class="cls-5" x1="58.4" y1="81.82" x2="58.65" y2="81.31"/><line class="cls-5" x1="58.65" y1="80.93" x2="58.78" y2="80.42"/><line class="cls-5" x1="58.91" y1="80.04" x2="59.04" y2="79.53"/><line class="cls-5" x1="59.16" y1="79.27" x2="59.29" y2="78.64"/><line class="cls-5" x1="59.42" y1="78.38" x2="59.54" y2="77.75"/><line class="cls-5" x1="59.55" y1="77.49" x2="59.67" y2="76.86"/><line class="cls-5" x1="59.8" y1="76.6" x2="59.93" y2="76.22"/><line class="cls-5" x1="57.76" y1="76.22" x2="57.89" y2="76.6"/><line class="cls-5" x1="58.02" y1="76.86" x2="58.14" y2="77.49"/><line class="cls-5" x1="58.27" y1="77.75" x2="58.4" y2="78.38"/><line class="cls-5" x1="58.4" y1="78.64" x2="58.65" y2="79.27"/><line class="cls-5" x1="58.65" y1="79.53" x2="58.78" y2="80.04"/><line class="cls-5" x1="58.91" y1="80.42" x2="59.04" y2="80.93"/><line class="cls-5" x1="59.16" y1="81.31" x2="59.29" y2="81.82"/><line class="cls-5" x1="59.42" y1="82.07" x2="59.54" y2="82.71"/><line class="cls-5" x1="59.55" y1="82.97" x2="59.67" y2="83.6"/><line class="cls-5" x1="59.8" y1="83.86" x2="59.93" y2="84.24"/><path class="cls-6" d="M44,25.3v-3h2.17v.35H44.36v.92H46v.35H44.36v1h1.85v.35Z"/><path class="cls-6" d="M49.17,25.3H48.8V23a2.12,2.12,0,0,1-.35.25,2.27,2.27,0,0,1-.39.19V23a2.12,2.12,0,0,0,.54-.36,1.3,1.3,0,0,0,.33-.4h.24Z"/><path class="cls-6" d="M50.11,23.82a2.85,2.85,0,0,1,.11-.86,1.07,1.07,0,0,1,.33-.5.8.8,0,0,1,.54-.18,1,1,0,0,1,.43.1.89.89,0,0,1,.3.28,1.56,1.56,0,0,1,.19.45,3.28,3.28,0,0,1,.06.71,2.5,2.5,0,0,1-.11.85,1.09,1.09,0,0,1-.32.51.9.9,0,0,1-.55.17.81.81,0,0,1-.68-.31A2,2,0,0,1,50.11,23.82Zm.38,0a2,2,0,0,0,.17,1,.52.52,0,0,0,.43.24.51.51,0,0,0,.43-.25,1.82,1.82,0,0,0,.17-1,1.87,1.87,0,0,0-.17-1,.52.52,0,0,0-.43-.24.48.48,0,0,0-.41.21A2,2,0,0,0,50.49,23.82Z"/><path class="cls-6" d="M52.45,24.51l.37-.05a.74.74,0,0,0,.22.45.53.53,0,0,0,.37.14.6.6,0,0,0,.44-.18.61.61,0,0,0,.18-.45.57.57,0,0,0-.17-.42.57.57,0,0,0-.42-.16.92.92,0,0,0-.26,0l0-.32h.06a.74.74,0,0,0,.42-.12.48.48,0,0,0,0-.72.48.48,0,0,0-.35-.13.52.52,0,0,0-.36.13.63.63,0,0,0-.18.41l-.37-.07a.93.93,0,0,1,.3-.57.88.88,0,0,1,.6-.21,1,1,0,0,1,.46.11.79.79,0,0,1,.31.29.76.76,0,0,1,.11.38.65.65,0,0,1-.1.36.7.7,0,0,1-.31.25.72.72,0,0,1,.56.74.88.88,0,0,1-.29.67,1,1,0,0,1-.72.28.92.92,0,0,1-.66-.24A.87.87,0,0,1,52.45,24.51Z"/><path class="cls-6" d="M54.61,25.35l.87-3.11h.3l-.87,3.11Z"/><path class="cls-6" d="M57.89,25v.35h-2a.7.7,0,0,1,.05-.25,1.29,1.29,0,0,1,.24-.4,3.62,3.62,0,0,1,.48-.46,4.23,4.23,0,0,0,.67-.64.76.76,0,0,0,.17-.44.47.47,0,0,0-.16-.37.56.56,0,0,0-.41-.15.54.54,0,0,0-.42.16.59.59,0,0,0-.17.44l-.38,0a.93.93,0,0,1,.3-.64,1,1,0,0,1,.68-.23,1,1,0,0,1,.69.24.82.82,0,0,1,.25.6.85.85,0,0,1-.08.35,1.45,1.45,0,0,1-.24.37c-.12.13-.31.3-.57.53l-.43.38a1,1,0,0,0-.15.2Z"/><path class="cls-6" d="M58.29,23.82A2.57,2.57,0,0,1,58.4,23a1.06,1.06,0,0,1,.32-.5.85.85,0,0,1,.55-.18.93.93,0,0,1,.42.1.89.89,0,0,1,.3.28,1.33,1.33,0,0,1,.19.45,3.18,3.18,0,0,1,.07.71,2.78,2.78,0,0,1-.11.85,1,1,0,0,1-.33.51.85.85,0,0,1-.54.17.84.84,0,0,1-.69-.31A2,2,0,0,1,58.29,23.82Zm.38,0a1.89,1.89,0,0,0,.17,1,.52.52,0,0,0,.43.24.48.48,0,0,0,.42-.25,1.8,1.8,0,0,0,.18-1,1.85,1.85,0,0,0-.18-1,.5.5,0,0,0-.43-.24.46.46,0,0,0-.4.21A1.93,1.93,0,0,0,58.67,23.82Z"/><path class="cls-6" d="M60.63,24.51l.36-.05a.86.86,0,0,0,.22.45.55.55,0,0,0,.37.14.59.59,0,0,0,.44-.18.61.61,0,0,0,.18-.45A.57.57,0,0,0,62,24a.59.59,0,0,0-.43-.16,1,1,0,0,0-.26,0l0-.32h.06a.8.8,0,0,0,.43-.12.45.45,0,0,0,.19-.38.46.46,0,0,0-.14-.34.48.48,0,0,0-.36-.13.48.48,0,0,0-.35.13.69.69,0,0,0-.19.41l-.37-.07a.94.94,0,0,1,.31-.57.88.88,0,0,1,.6-.21,1,1,0,0,1,.45.11.82.82,0,0,1,.32.29.76.76,0,0,1,.11.38.66.66,0,0,1-.11.36.65.65,0,0,1-.31.25.76.76,0,0,1,.42.26.83.83,0,0,1,.14.48.88.88,0,0,1-.28.67,1,1,0,0,1-.73.28,1,1,0,0,1-.66-.24A.91.91,0,0,1,60.63,24.51Z"/><path class="cls-6" d="M156,13.21l-1.91-12.1h.38Zm-.26.12.26-.12-1.91-12.1Z"/><path class="cls-7" d="M156,13.21l-1.91-12.1h.38Zm-.26.12.26-.12-1.91-12.1Z"/><line class="cls-5" x1="157.31" y1="24.16" x2="155.91" y2="13.21"/><path class="cls-6" d="M156.8,13.08l-1.27-6.87h.38Zm-.38.13.38-.13-1.27-6.87Z"/><path class="cls-7" d="M156.8,13.08l-1.27-6.87h.38Zm-.38.13.38-.13-1.27-6.87Z"/><path class="cls-6" d="M155.4,13.33l-1.27-6.87.38-.13Zm-.38,0h.38l-1.27-6.87Z"/><path class="cls-7" d="M155.4,13.33l-1.27-6.87.38-.13Zm-.38,0h.38l-1.27-6.87Z"/><line class="cls-5" x1="157.05" y1="24.28" x2="156.8" y2="22.88"/><line class="cls-5" x1="147.63" y1="14.74" x2="145.85" y2="14.99"/><line class="cls-5" x1="166.09" y1="12.32" x2="164.18" y2="12.57"/><line class="cls-5" x1="166.09" y1="11.93" x2="145.72" y2="14.61"/><g class="cls-8"><path class="cls-5" d="M163.35,12.15a7.57,7.57,0,1,0-6.52,8.5,7.57,7.57,0,0,0,6.52-8.5"/><path class="cls-5" d="M162.85,12.22a7.07,7.07,0,1,0-6.08,7.93,7.06,7.06,0,0,0,6.08-7.93"/></g><path class="cls-6" d="M97.81,46.31v-3H100v.35H98.21v.92h1.66v.36H98.21v1h1.85v.36Z"/><path class="cls-6" d="M103,46.31h-.37V44a1.51,1.51,0,0,1-.35.26,2.68,2.68,0,0,1-.38.19V44a2.5,2.5,0,0,0,.54-.35,1.62,1.62,0,0,0,.33-.4H103Z"/><path class="cls-6" d="M104,44.82a2.9,2.9,0,0,1,.11-.86,1.11,1.11,0,0,1,.32-.5.9.9,0,0,1,.55-.17.93.93,0,0,1,.42.09.84.84,0,0,1,.31.28,1.84,1.84,0,0,1,.18.45,2.73,2.73,0,0,1,.07.71,2.85,2.85,0,0,1-.11.86,1.11,1.11,0,0,1-.32.5.85.85,0,0,1-.55.18.81.81,0,0,1-.68-.32A2,2,0,0,1,104,44.82Zm.38,0a2,2,0,0,0,.17,1,.51.51,0,0,0,.86,0,2,2,0,0,0,.17-1,1.93,1.93,0,0,0-.17-1,.51.51,0,0,0-.44-.25.46.46,0,0,0-.4.22A1.86,1.86,0,0,0,104.34,44.82Z"/><path class="cls-6" d="M107.68,46.31h-.36V44a2.12,2.12,0,0,1-.35.26,3.38,3.38,0,0,1-.39.19V44a2.28,2.28,0,0,0,.54-.35,1.62,1.62,0,0,0,.33-.4h.23Z"/><path class="cls-6" d="M108.46,46.36l.87-3.11h.29l-.87,3.11Z"/><path class="cls-6" d="M111.74,46v.36h-2a.75.75,0,0,1,0-.26,1.33,1.33,0,0,1,.25-.4,4.39,4.39,0,0,1,.48-.46,3.71,3.71,0,0,0,.66-.63.75.75,0,0,0,.17-.45.51.51,0,0,0-.15-.37.65.65,0,0,0-.84,0,.64.64,0,0,0-.16.44l-.38,0a.94.94,0,0,1,.29-.65,1,1,0,0,1,.69-.22.94.94,0,0,1,.68.24.76.76,0,0,1,.25.59.92.92,0,0,1-.07.36,1.39,1.39,0,0,1-.25.36,5.11,5.11,0,0,1-.56.53,4.5,4.5,0,0,0-.43.38,1.4,1.4,0,0,0-.16.2Z"/><path class="cls-6" d="M112.13,44.82a2.9,2.9,0,0,1,.11-.86,1.22,1.22,0,0,1,.33-.5.85.85,0,0,1,.54-.17.94.94,0,0,1,.43.09.89.89,0,0,1,.3.28,1.85,1.85,0,0,1,.19.45,3.35,3.35,0,0,1,.06.71,2.89,2.89,0,0,1-.1.86,1.13,1.13,0,0,1-.33.5.9.9,0,0,1-1.23-.14A2,2,0,0,1,112.13,44.82Zm.38,0a1.85,1.85,0,0,0,.18,1,.49.49,0,0,0,.42.24.51.51,0,0,0,.43-.24,1.87,1.87,0,0,0,.18-1,1.8,1.8,0,0,0-.18-1,.5.5,0,0,0-.43-.25.48.48,0,0,0-.41.22A2,2,0,0,0,112.51,44.82Z"/><path class="cls-6" d="M115.86,46.31h-.37V44a1.77,1.77,0,0,1-.35.26,2.3,2.3,0,0,1-.39.19V44a2.1,2.1,0,0,0,.54-.35,1.27,1.27,0,0,0,.33-.4h.24Z"/><path class="cls-6" d="M98,85.51l-.8-3h.41l.45,2c0,.21.1.42.13.62.08-.32.12-.51.14-.56l.57-2h.48L99.76,84a7.82,7.82,0,0,1,.23,1.06c0-.19.09-.41.15-.65l.47-1.94h.4l-.82,3h-.38l-.64-2.29-.09-.35c0,.13-.06.25-.09.35l-.64,2.29Z"/><path class="cls-6" d="M103.79,85.51h-.37V83.16a1.76,1.76,0,0,1-.35.25,1.73,1.73,0,0,1-.39.19v-.35a2.38,2.38,0,0,0,.55-.36,1.46,1.46,0,0,0,.33-.4h.23Z"/><path class="cls-6" d="M104.74,84a2.57,2.57,0,0,1,.11-.86,1.06,1.06,0,0,1,.32-.5.85.85,0,0,1,.55-.18.82.82,0,0,1,.42.1.68.68,0,0,1,.3.28,1.33,1.33,0,0,1,.19.45,2.68,2.68,0,0,1,.07.71,2.83,2.83,0,0,1-.11.85,1,1,0,0,1-.32.5.85.85,0,0,1-.55.18.81.81,0,0,1-.68-.31A2,2,0,0,1,104.74,84Zm.38,0a1.93,1.93,0,0,0,.17,1,.49.49,0,0,0,.86,0,1.93,1.93,0,0,0,.17-1,2,2,0,0,0-.17-1,.53.53,0,0,0-.44-.24.48.48,0,0,0-.4.21A1.9,1.9,0,0,0,105.12,84Z"/><path class="cls-6" d="M107.1,82.9v-.36h2v.29a3.37,3.37,0,0,0-.57.81,4.91,4.91,0,0,0-.44,1,4.1,4.1,0,0,0-.14.83h-.38a3.46,3.46,0,0,1,.14-.86,5,5,0,0,1,.38-1,4.08,4.08,0,0,1,.53-.78Z"/><path class="cls-6" d="M109.24,85.56l.87-3.11h.29l-.87,3.11Z"/><path class="cls-6" d="M112.52,85.16v.35h-2a.78.78,0,0,1,0-.26,1.26,1.26,0,0,1,.25-.4,3.64,3.64,0,0,1,.48-.45,3.67,3.67,0,0,0,.66-.64.72.72,0,0,0,.17-.44A.5.5,0,0,0,112,83a.65.65,0,0,0-.84,0,.57.57,0,0,0-.16.44l-.38,0a1,1,0,0,1,.29-.65,1.06,1.06,0,0,1,.69-.22,1,1,0,0,1,.68.24.79.79,0,0,1,.25.6.87.87,0,0,1-.07.35,1.27,1.27,0,0,1-.25.37,6.31,6.31,0,0,1-.56.53,3.4,3.4,0,0,0-.43.38,1,1,0,0,0-.16.2Z"/><path class="cls-6" d="M112.91,84a2.85,2.85,0,0,1,.11-.86,1.07,1.07,0,0,1,.33-.5.8.8,0,0,1,.54-.18.83.83,0,0,1,.43.1.8.8,0,0,1,.3.28,1.56,1.56,0,0,1,.19.45,3.28,3.28,0,0,1,.06.71,2.87,2.87,0,0,1-.1.85,1.1,1.1,0,0,1-.33.5.83.83,0,0,1-.55.18.82.82,0,0,1-.68-.31A2,2,0,0,1,112.91,84Zm.38,0a1.8,1.8,0,0,0,.18,1,.48.48,0,0,0,.42.25.5.5,0,0,0,.43-.25,1.82,1.82,0,0,0,.17-1,1.84,1.84,0,0,0-.17-1,.51.51,0,0,0-.43-.24.48.48,0,0,0-.41.21A2,2,0,0,0,113.29,84Z"/><path class="cls-6" d="M115.27,82.9v-.36h2v.29a4,4,0,0,0-.57.81,4.87,4.87,0,0,0-.43,1,3.5,3.5,0,0,0-.15.83h-.38a4,4,0,0,1,.14-.86,4.48,4.48,0,0,1,.39-1,3.66,3.66,0,0,1,.53-.78Z"/><path class="cls-6" d="M31.87,66.16v-3h2.18v.35H32.27v.92h1.66v.36H32.27v1h1.85v.35Z"/><path class="cls-6" d="M37.07,66.16H36.7V63.81a1.51,1.51,0,0,1-.35.26,2.68,2.68,0,0,1-.38.19V63.9a2.5,2.5,0,0,0,.54-.35,1.62,1.62,0,0,0,.33-.4h.23Z"/><path class="cls-6" d="M38,64.68a2.9,2.9,0,0,1,.11-.86,1,1,0,0,1,.33-.5.8.8,0,0,1,.54-.17.93.93,0,0,1,.42.09.84.84,0,0,1,.31.28,1.51,1.51,0,0,1,.18.45,2.73,2.73,0,0,1,.07.71,2.9,2.9,0,0,1-.11.86,1.11,1.11,0,0,1-.32.5.85.85,0,0,1-.55.18.81.81,0,0,1-.68-.32A2,2,0,0,1,38,64.68Zm.38,0a2,2,0,0,0,.17,1,.51.51,0,0,0,.86,0,3,3,0,0,0,0-2,.52.52,0,0,0-.43-.24.47.47,0,0,0-.41.22A1.86,1.86,0,0,0,38.4,64.68Z"/><path class="cls-6" d="M41.54,66.16v-.72H40.23v-.33l1.38-2h.3v2h.4v.33h-.4v.72Zm0-1V63.75l-.94,1.36Z"/><path class="cls-6" d="M42.52,66.22l.87-3.11h.29l-.87,3.11Z"/><path class="cls-6" d="M45.8,65.81v.35h-2a.73.73,0,0,1,0-.25,1.33,1.33,0,0,1,.25-.4,3.62,3.62,0,0,1,.48-.46,4.11,4.11,0,0,0,.66-.63.75.75,0,0,0,.17-.45.51.51,0,0,0-.15-.37.65.65,0,0,0-.84,0,.64.64,0,0,0-.16.44l-.38,0a.94.94,0,0,1,.29-.65,1,1,0,0,1,.69-.22.94.94,0,0,1,.68.24.76.76,0,0,1,.25.59.92.92,0,0,1-.07.36,1.39,1.39,0,0,1-.25.36,5.11,5.11,0,0,1-.56.53,4.5,4.5,0,0,0-.43.38,1.4,1.4,0,0,0-.16.2Z"/><path class="cls-6" d="M46.19,64.68a2.9,2.9,0,0,1,.11-.86,1.22,1.22,0,0,1,.33-.5.81.81,0,0,1,.54-.17.94.94,0,0,1,.43.09.89.89,0,0,1,.3.28,1.85,1.85,0,0,1,.19.45,3.35,3.35,0,0,1,.06.71,2.94,2.94,0,0,1-.1.86,1.13,1.13,0,0,1-.33.5.83.83,0,0,1-.55.18.84.84,0,0,1-.68-.32A2,2,0,0,1,46.19,64.68Zm.38,0a1.85,1.85,0,0,0,.18,1,.5.5,0,0,0,.85,0,2.81,2.81,0,0,0,0-2,.51.51,0,0,0-.43-.24.48.48,0,0,0-.41.22A2,2,0,0,0,46.57,64.68Z"/><path class="cls-6" d="M49.71,66.16v-.72h-1.3v-.33l1.37-2h.3v2h.41v.33h-.41v.72Zm0-1V63.75l-.94,1.36Z"/><path class="cls-6" d="M44.48,106.39l-.8-3h.41l.46,2c.05.21.09.42.13.62.07-.32.12-.51.13-.56l.57-2h.48l.44,1.52a10.39,10.39,0,0,1,.23,1.07q.06-.28.15-.66l.47-1.93h.4l-.82,3h-.39l-.63-2.29c-.05-.19-.09-.31-.1-.35,0,.13-.06.25-.08.35l-.64,2.29Z"/><path class="cls-6" d="M50.33,106.39H50V104a2.12,2.12,0,0,1-.35.25,1.73,1.73,0,0,1-.39.19v-.36a1.86,1.86,0,0,0,.54-.35,1.27,1.27,0,0,0,.33-.4h.24Z"/><path class="cls-6" d="M51.27,104.91a2.85,2.85,0,0,1,.11-.86,1.1,1.1,0,0,1,.33-.5.82.82,0,0,1,.54-.18.83.83,0,0,1,.43.1.8.8,0,0,1,.3.28,1.56,1.56,0,0,1,.19.45,3.28,3.28,0,0,1,.06.71,2.87,2.87,0,0,1-.1.85,1.07,1.07,0,0,1-.33.5.91.91,0,0,1-1.23-.13A2,2,0,0,1,51.27,104.91Zm.38,0a1.8,1.8,0,0,0,.18,1,.49.49,0,0,0,.85,0,1.8,1.8,0,0,0,.18-1,1.82,1.82,0,0,0-.18-1,.51.51,0,0,0-.43-.24.49.49,0,0,0-.41.21A2,2,0,0,0,51.65,104.91Z"/><path class="cls-6" d="M53.61,105.6l.39,0a.64.64,0,0,0,.2.42.52.52,0,0,0,.38.15.62.62,0,0,0,.45-.2.8.8,0,0,0,.18-.54.7.7,0,0,0-.18-.5.6.6,0,0,0-.46-.18.66.66,0,0,0-.32.08A.78.78,0,0,0,54,105l-.34,0,.29-1.55h1.49v.36h-1.2l-.16.8a1,1,0,0,1,.57-.18.9.9,0,0,1,.66.27.94.94,0,0,1,.27.7,1.16,1.16,0,0,1-.23.71,1.07,1.07,0,0,1-1.46.13A.89.89,0,0,1,53.61,105.6Z"/><path class="cls-6" d="M55.77,106.44l.87-3.11h.3l-.87,3.11Z"/><path class="cls-6" d="M59.05,106v.36h-2a.57.57,0,0,1,0-.26,1.42,1.42,0,0,1,.24-.4,3.24,3.24,0,0,1,.49-.45,4.54,4.54,0,0,0,.66-.64.79.79,0,0,0,.17-.44.47.47,0,0,0-.16-.37.56.56,0,0,0-.41-.15.55.55,0,0,0-.42.16.57.57,0,0,0-.16.44l-.38,0a.92.92,0,0,1,.29-.65,1,1,0,0,1,.68-.22,1,1,0,0,1,.69.24.78.78,0,0,1,.25.59.9.9,0,0,1-.08.36,1.22,1.22,0,0,1-.24.37,5.48,5.48,0,0,1-.57.53l-.43.37-.15.2Z"/><path class="cls-6" d="M59.45,104.91a2.85,2.85,0,0,1,.11-.86,1,1,0,0,1,.33-.5.8.8,0,0,1,.54-.18.82.82,0,0,1,.42.1.76.76,0,0,1,.31.28,1.56,1.56,0,0,1,.18.45,2.68,2.68,0,0,1,.07.71,2.83,2.83,0,0,1-.11.85,1.06,1.06,0,0,1-.32.5.85.85,0,0,1-.55.18.81.81,0,0,1-.68-.31A2,2,0,0,1,59.45,104.91Zm.38,0a1.93,1.93,0,0,0,.17,1,.49.49,0,0,0,.86,0,1.93,1.93,0,0,0,.17-1,2,2,0,0,0-.17-1,.52.52,0,0,0-.43-.24.48.48,0,0,0-.41.21A1.88,1.88,0,0,0,59.83,104.91Z"/><path class="cls-6" d="M61.79,105.6l.38,0a.69.69,0,0,0,.2.42.54.54,0,0,0,.38.15.59.59,0,0,0,.45-.2.76.76,0,0,0,.19-.54.7.7,0,0,0-.18-.5.63.63,0,0,0-.47-.18.72.72,0,0,0-.32.08.74.74,0,0,0-.22.21l-.35,0,.29-1.55h1.5v.36h-1.2l-.17.8a1,1,0,0,1,.57-.18.9.9,0,0,1,.67.27.94.94,0,0,1,.27.7,1.11,1.11,0,0,1-.24.71,1,1,0,0,1-.79.36,1,1,0,0,1-.67-.23A.89.89,0,0,1,61.79,105.6Z"/><path class="cls-6" d="M5.06,68.15h-3v-.4H4.71V66.27h.35Z"/><path class="cls-6" d="M5.06,66.13,2.06,65v-.43l3-1.23v.46l-.91.35v1.25l.91.33Zm-1.23-.87v-1L3,64.55l-.63.22a3.14,3.14,0,0,1,.58.16Z"/><path class="cls-6" d="M3.88,61.59H3.53V60.31H4.64a2.27,2.27,0,0,1,.36.61,2,2,0,0,1,.11.64,1.66,1.66,0,0,1-.19.8,1.25,1.25,0,0,1-.54.55,1.79,1.79,0,0,1-.81.18,1.92,1.92,0,0,1-.82-.18,1.2,1.2,0,0,1-.56-.53A1.67,1.67,0,0,1,2,61.59a1.59,1.59,0,0,1,.1-.59,1,1,0,0,1,.29-.41,1.29,1.29,0,0,1,.5-.23l.1.36a1,1,0,0,0-.37.17.79.79,0,0,0-.21.28,1.36,1.36,0,0,0,0,.89.83.83,0,0,0,.22.32,1.32,1.32,0,0,0,.29.19,1.54,1.54,0,0,0,.61.11,1.48,1.48,0,0,0,.67-.13.88.88,0,0,0,.4-.41,1.19,1.19,0,0,0,.14-.56,1.44,1.44,0,0,0-.1-.5,1.31,1.31,0,0,0-.22-.38H3.88Z"/><path class="cls-6" d="M3.6,59.85a1.66,1.66,0,0,1-1.17-.4,1.36,1.36,0,0,1-.43-1,1.45,1.45,0,0,1,.2-.75,1.26,1.26,0,0,1,.56-.51,1.71,1.71,0,0,1,.8-.18,1.68,1.68,0,0,1,.82.19,1.21,1.21,0,0,1,.55.52,1.55,1.55,0,0,1,.18.73,1.39,1.39,0,0,1-.2.76,1.38,1.38,0,0,1-.56.51A1.79,1.79,0,0,1,3.6,59.85Zm0-.41a1.22,1.22,0,0,0,.86-.29,1,1,0,0,0,0-1.48,1.3,1.3,0,0,0-.9-.29,1.44,1.44,0,0,0-.64.13.93.93,0,0,0-.42.36,1,1,0,0,0-.15.54,1,1,0,0,0,.29.72A1.24,1.24,0,0,0,3.6,59.44Z"/><path class="cls-6" d="M153.62,91.12l-3-1.16v-.43l3-1.23v.46l-.91.35v1.26l.91.33Zm-1.24-.87v-1l-.83.32-.62.21a4,4,0,0,1,.57.16Z"/><path class="cls-6" d="M153.62,87.43l-2.18.83v-.39l1.3-.47.44-.14-.41-.14-1.33-.48v-.38l2.18.82Z"/><path class="cls-6" d="M153.62,85.83h-.43v-.42h.43Z"/><path class="cls-6" d="M152.76,83.76l0-.36a.8.8,0,0,0,.47-.13.41.41,0,0,0,.13-.32.44.44,0,0,0-.07-.26.34.34,0,0,0-.18-.15,1.21,1.21,0,0,0-.38,0h-2.07v-.4h2a1.5,1.5,0,0,1,.58.09.65.65,0,0,1,.32.29,1,1,0,0,1,.11.47.78.78,0,0,1-.23.6A1,1,0,0,1,152.76,83.76Z"/><path class="cls-6" d="M152.15,81.57a1.61,1.61,0,0,1-1.17-.4,1.37,1.37,0,0,1-.42-1,1.47,1.47,0,0,1,.19-.75,1.38,1.38,0,0,1,.56-.51,1.92,1.92,0,0,1,.81-.17,1.79,1.79,0,0,1,.81.18,1.26,1.26,0,0,1,.55.52,1.57,1.57,0,0,1,.19.74,1.37,1.37,0,0,1-.21.75,1.21,1.21,0,0,1-.56.51A1.59,1.59,0,0,1,152.15,81.57Zm0-.41a1.2,1.2,0,0,0,.85-.29,1,1,0,0,0,0-1.47,1.25,1.25,0,0,0-.9-.29,1.62,1.62,0,0,0-.64.12.89.89,0,0,0-.42.37.94.94,0,0,0-.15.53,1,1,0,0,0,.29.73A1.29,1.29,0,0,0,152.16,81.16Z"/><path class="cls-6" d="M153.62,78.52l-3-1.16v-.43l3-1.23v.45l-.91.36v1.25l.91.33Zm-1.24-.87v-1l-.83.31c-.25.1-.46.17-.62.22a3,3,0,0,1,.57.16Z"/><path class="cls-6" d="M153.29,73.1a2.18,2.18,0,0,0,.28-.51l.28.12a2.39,2.39,0,0,1-.37.65,1.54,1.54,0,0,1,.19.74,1.47,1.47,0,0,1-.2.74,1.35,1.35,0,0,1-.55.51,1.79,1.79,0,0,1-.81.18,1.85,1.85,0,0,1-.81-.18,1.21,1.21,0,0,1-.55-.52,1.56,1.56,0,0,1,0-1.49,1.25,1.25,0,0,1,.56-.51,1.71,1.71,0,0,1,.8-.18,2,2,0,0,1,.67.11A1.47,1.47,0,0,1,153.29,73.1Zm-.51.88a1.53,1.53,0,0,1,.29-.57,1.24,1.24,0,0,0-1-.35,1.44,1.44,0,0,0-.64.13.93.93,0,0,0-.42.36,1,1,0,0,0-.15.54,1,1,0,0,0,.3.73,1.26,1.26,0,0,0,.91.3,1.3,1.3,0,0,0,.9-.29,1,1,0,0,0,.32-.74,1.11,1.11,0,0,0-.08-.41,1.59,1.59,0,0,0-.18.4Z"/><path class="cls-6" d="M150.61,70.14v-.39h1.74a2,2,0,0,1,.72.1.9.9,0,0,1,.43.37,1.32,1.32,0,0,1,.17.7,1.41,1.41,0,0,1-.15.69.88.88,0,0,1-.42.39,2.16,2.16,0,0,1-.75.11h-1.74v-.4h1.73a1.68,1.68,0,0,0,.58-.07.55.55,0,0,0,.29-.25.94.94,0,0,0,.1-.43.83.83,0,0,0-.2-.63,1.18,1.18,0,0,0-.77-.19Z"/><path class="cls-6" d="M153.62,69h-3v-.4h3Z"/><path class="cls-6" d="M153.62,67.92h-3v-.41L153,65.93h-2.36v-.38h3V66l-2.37,1.58h2.37Z"/><path class="cls-6" d="M152.65,63.85l0-.37a.81.81,0,0,0,.37-.13.67.67,0,0,0,.23-.3,1.14,1.14,0,0,0,.09-.46,1,1,0,0,0-.07-.4.47.47,0,0,0-.18-.26.43.43,0,0,0-.26-.09.44.44,0,0,0-.25.08.71.71,0,0,0-.18.27,5.2,5.2,0,0,0-.14.54,2.75,2.75,0,0,1-.19.58.8.8,0,0,1-.28.32.7.7,0,0,1-.37.11.8.8,0,0,1-.43-.13.83.83,0,0,1-.3-.38,1.42,1.42,0,0,1-.1-.55,1.38,1.38,0,0,1,.11-.59.81.81,0,0,1,.31-.39.88.88,0,0,1,.48-.15l0,.38a.61.61,0,0,0-.43.21,1.09,1.09,0,0,0,0,1,.4.4,0,0,0,.32.16.37.37,0,0,0,.27-.11,1.59,1.59,0,0,0,.21-.6A4,4,0,0,1,152,62a1,1,0,0,1,.31-.39.81.81,0,0,1,.88,0,.91.91,0,0,1,.33.39,1.34,1.34,0,0,1,.12.58,1.69,1.69,0,0,1-.12.68,1,1,0,0,1-.36.44A1,1,0,0,1,152.65,63.85Z"/><path class="cls-6" d="M153.62,60.91h-3V58.73H151v1.78h.93V58.85h.35v1.66h1V58.66h.36Z"/><path class="cls-6" d="M152.56,56l.1-.4a1.29,1.29,0,0,1,.75.45,1.25,1.25,0,0,1,.26.79,1.42,1.42,0,0,1-.2.79,1.21,1.21,0,0,1-.57.47,2,2,0,0,1-.81.16,1.77,1.77,0,0,1-.82-.18,1.24,1.24,0,0,1-.53-.51,1.52,1.52,0,0,1-.18-.73,1.19,1.19,0,0,1,.23-.76,1.17,1.17,0,0,1,.64-.43l.1.39a.9.9,0,0,0-.48.31.8.8,0,0,0-.15.5,1,1,0,0,0,.16.58.91.91,0,0,0,.45.32,1.65,1.65,0,0,0,.58.1,2,2,0,0,0,.67-.11.82.82,0,0,0,.42-.35,1,1,0,0,0,.15-.51.86.86,0,0,0-.2-.57A1,1,0,0,0,152.56,56Z"/><path class="cls-6" d="M152.15,55.2a1.61,1.61,0,0,1-1.17-.4,1.39,1.39,0,0,1-.42-1,1.44,1.44,0,0,1,.19-.75,1.38,1.38,0,0,1,.56-.51,2,2,0,0,1,1.62,0,1.21,1.21,0,0,1,.55.52,1.56,1.56,0,0,1,.19.73,1.38,1.38,0,0,1-.21.76,1.32,1.32,0,0,1-.56.51A1.72,1.72,0,0,1,152.15,55.2Zm0-.41a1.2,1.2,0,0,0,.85-.29A1,1,0,0,0,153,53a1.25,1.25,0,0,0-.9-.29,1.62,1.62,0,0,0-.64.12.93.93,0,0,0-.42.36,1,1,0,0,0-.15.54,1,1,0,0,0,.29.73A1.29,1.29,0,0,0,152.16,54.79Z"/><path class="cls-6" d="M153.62,50.58h-3v-.4h3Z"/><path class="cls-6" d="M153.62,49.5h-3v-.4h2.65V47.62h.36Z"/><path class="cls-6" d="M153.62,47.16h-3v-.4h2.65V45.28h.36Z"/><path class="cls-6" d="M153.62,45.14l-3-1.16v-.43l3-1.23v.46l-.91.35v1.26l.91.33Zm-1.24-.87v-1l-.83.31c-.25.1-.46.17-.62.22a4,4,0,0,1,.57.16Z"/><path class="cls-6" d="M97.56,24.28v-3h2.17v.35H98v.92h1.66v.35H98v1H99.8v.35Z"/><path class="cls-6" d="M102.76,24.28h-.37V21.93a1.66,1.66,0,0,1-.35.25,2.42,2.42,0,0,1-.39.2V22a2.39,2.39,0,0,0,.54-.35,1.29,1.29,0,0,0,.33-.41h.24Z"/><path class="cls-6" d="M103.7,22.8a2.85,2.85,0,0,1,.11-.86,1.15,1.15,0,0,1,.33-.5.82.82,0,0,1,.54-.18.94.94,0,0,1,.43.1.89.89,0,0,1,.3.28,1.56,1.56,0,0,1,.19.45,3.35,3.35,0,0,1,.06.71,2.82,2.82,0,0,1-.1.85,1.11,1.11,0,0,1-.33.51.88.88,0,0,1-.55.17A.82.82,0,0,1,104,24,2,2,0,0,1,103.7,22.8Zm.38,0a1.87,1.87,0,0,0,.18,1,.51.51,0,0,0,.42.24.5.5,0,0,0,.43-.25,1.8,1.8,0,0,0,.18-1,1.87,1.87,0,0,0-.18-1,.51.51,0,0,0-.43-.24.49.49,0,0,0-.41.21A2,2,0,0,0,104.08,22.8Z"/><path class="cls-6" d="M108,23.93v.35h-2A.53.53,0,0,1,106,24a1.29,1.29,0,0,1,.24-.4,3.62,3.62,0,0,1,.48-.46,3.67,3.67,0,0,0,.66-.64.72.72,0,0,0,.18-.44.51.51,0,0,0-.16-.37.56.56,0,0,0-.41-.15.57.57,0,0,0-.43.16.62.62,0,0,0-.16.44l-.38,0a.93.93,0,0,1,.3-.64,1,1,0,0,1,.68-.23.92.92,0,0,1,.68.24.79.79,0,0,1,.26.6.85.85,0,0,1-.08.35,1.45,1.45,0,0,1-.24.37,6.7,6.7,0,0,1-.57.53c-.22.19-.37.31-.43.38a1,1,0,0,0-.15.2Z"/><path class="cls-6" d="M108.2,24.33l.87-3.11h.3l-.87,3.11Z"/><path class="cls-6" d="M111.48,23.93v.35h-2a.53.53,0,0,1,0-.25,1.29,1.29,0,0,1,.24-.4,3.23,3.23,0,0,1,.49-.46,4.54,4.54,0,0,0,.66-.64.76.76,0,0,0,.17-.44.47.47,0,0,0-.16-.37.56.56,0,0,0-.41-.15.55.55,0,0,0-.42.16.63.63,0,0,0-.17.44l-.37,0a.88.88,0,0,1,.29-.64,1,1,0,0,1,.68-.23,1,1,0,0,1,.69.24.82.82,0,0,1,.25.6.85.85,0,0,1-.08.35,1.22,1.22,0,0,1-.24.37,4.56,4.56,0,0,1-.57.53l-.43.38a1,1,0,0,0-.15.2Z"/><path class="cls-6" d="M111.88,22.8a2.85,2.85,0,0,1,.11-.86,1.06,1.06,0,0,1,.32-.5.85.85,0,0,1,.55-.18.93.93,0,0,1,.42.1.84.84,0,0,1,.31.28,1.56,1.56,0,0,1,.18.45,2.73,2.73,0,0,1,.07.71,2.78,2.78,0,0,1-.11.85,1.09,1.09,0,0,1-.32.51.9.9,0,0,1-.55.17.81.81,0,0,1-.68-.31A2,2,0,0,1,111.88,22.8Zm.38,0a2,2,0,0,0,.17,1,.52.52,0,0,0,.43.24.51.51,0,0,0,.43-.25,1.93,1.93,0,0,0,.17-1,2,2,0,0,0-.17-1,.53.53,0,0,0-.44-.24.48.48,0,0,0-.4.21A1.93,1.93,0,0,0,112.26,22.8Z"/><path class="cls-6" d="M116.15,23.93v.35h-2a.53.53,0,0,1,0-.25,1.29,1.29,0,0,1,.24-.4,3.79,3.79,0,0,1,.49-.46,4.54,4.54,0,0,0,.66-.64.76.76,0,0,0,.17-.44.47.47,0,0,0-.16-.37.55.55,0,0,0-.4-.15.57.57,0,0,0-.43.16.58.58,0,0,0-.16.44l-.38,0a.88.88,0,0,1,.29-.64,1,1,0,0,1,.68-.23,1,1,0,0,1,.69.24.79.79,0,0,1,.25.6.84.84,0,0,1-.07.35,1.27,1.27,0,0,1-.25.37,4.56,4.56,0,0,1-.57.53,5.42,5.42,0,0,0-.42.38.74.74,0,0,0-.16.2Z"/><path class="cls-6" d="M98,107.4l-.8-3h.41l.46,2c0,.21.09.41.12.61.08-.32.13-.5.14-.55l.57-2h.48l.43,1.52A6.78,6.78,0,0,1,100,107c0-.19.09-.4.15-.65l.48-1.93h.4l-.83,3h-.38l-.64-2.29c0-.19-.08-.3-.09-.35a3.46,3.46,0,0,1-.09.35l-.64,2.29Z"/><path class="cls-6" d="M103.79,107.4h-.36v-2.35a2.12,2.12,0,0,1-.35.26,3.38,3.38,0,0,1-.39.19v-.36a2.5,2.5,0,0,0,.54-.35,1.62,1.62,0,0,0,.33-.4h.23Z"/><path class="cls-6" d="M104.74,105.92a2.9,2.9,0,0,1,.11-.86,1,1,0,0,1,.33-.5.8.8,0,0,1,.54-.17.93.93,0,0,1,.42.09.84.84,0,0,1,.31.28,1.51,1.51,0,0,1,.18.45,2.73,2.73,0,0,1,.07.71,2.9,2.9,0,0,1-.11.86,1.11,1.11,0,0,1-.32.5.85.85,0,0,1-.55.18.81.81,0,0,1-.68-.32A2,2,0,0,1,104.74,105.92Zm.38,0a2,2,0,0,0,.17,1,.51.51,0,0,0,.86,0,3,3,0,0,0,0-2,.52.52,0,0,0-.43-.24.47.47,0,0,0-.41.22A1.86,1.86,0,0,0,105.12,105.92Z"/><path class="cls-6" d="M109,105.13l-.37,0a.56.56,0,0,0-.14-.31.45.45,0,0,0-.36-.16.46.46,0,0,0-.31.1.83.83,0,0,0-.28.37,1.8,1.8,0,0,0-.1.69.91.91,0,0,1,.32-.3,1,1,0,0,1,.41-.1.87.87,0,0,1,.63.28,1,1,0,0,1,.26.7,1.14,1.14,0,0,1-.13.52.88.88,0,0,1-.33.38,1,1,0,0,1-.49.13,1,1,0,0,1-.75-.34,1.75,1.75,0,0,1-.29-1.12,2,2,0,0,1,.32-1.27.93.93,0,0,1,.76-.34.85.85,0,0,1,.58.19A.88.88,0,0,1,109,105.13Zm-1.51,1.3a1,1,0,0,0,.08.37.65.65,0,0,0,.23.26.59.59,0,0,0,.31.09.51.51,0,0,0,.4-.19.73.73,0,0,0,.17-.51.69.69,0,0,0-.17-.49.54.54,0,0,0-.42-.18.56.56,0,0,0-.42.18A.64.64,0,0,0,107.48,106.43Z"/><path class="cls-6" d="M109.24,107.46l.87-3.11h.29l-.86,3.11Z"/><path class="cls-6" d="M112.52,107.05v.35h-2a.73.73,0,0,1,0-.25,1.56,1.56,0,0,1,.25-.4,4.39,4.39,0,0,1,.48-.46,4.11,4.11,0,0,0,.66-.63.77.77,0,0,0,.18-.45.52.52,0,0,0-.16-.37.65.65,0,0,0-.84,0,.64.64,0,0,0-.16.44l-.38,0a.94.94,0,0,1,.29-.65,1,1,0,0,1,.69-.22.94.94,0,0,1,.68.24.77.77,0,0,1,.26.59.94.94,0,0,1-.08.36,1.6,1.6,0,0,1-.24.36,6.7,6.7,0,0,1-.57.53c-.22.19-.37.31-.43.38l-.16.2Z"/><path class="cls-6" d="M112.92,105.92a2.94,2.94,0,0,1,.1-.86,1.22,1.22,0,0,1,.33-.5.81.81,0,0,1,.54-.17.94.94,0,0,1,.43.09.89.89,0,0,1,.3.28,1.85,1.85,0,0,1,.19.45,3.25,3.25,0,0,1,.07.71,2.9,2.9,0,0,1-.11.86,1.13,1.13,0,0,1-.33.5.81.81,0,0,1-.55.18.84.84,0,0,1-.68-.32A2,2,0,0,1,112.92,105.92Zm.37,0a1.85,1.85,0,0,0,.18,1,.5.5,0,0,0,.85,0,2.81,2.81,0,0,0,0-2,.51.51,0,0,0-.43-.24.48.48,0,0,0-.41.22A2,2,0,0,0,113.29,105.92Z"/><path class="cls-6" d="M117.17,105.13l-.37,0a.64.64,0,0,0-.14-.31.47.47,0,0,0-.37-.16.48.48,0,0,0-.31.1.75.75,0,0,0-.27.37,1.77,1.77,0,0,0-.11.69.88.88,0,0,1,.73-.4.84.84,0,0,1,.63.28,1,1,0,0,1,.26.7,1.14,1.14,0,0,1-.12.52.9.9,0,0,1-.34.38,1,1,0,0,1-1.23-.21,1.69,1.69,0,0,1-.3-1.12,2,2,0,0,1,.33-1.27.91.91,0,0,1,.75-.34.8.8,0,0,1,.86.74Zm-1.51,1.3a1,1,0,0,0,.08.37.58.58,0,0,0,.23.26.55.55,0,0,0,.3.09.5.5,0,0,0,.4-.19.84.84,0,0,0,0-1,.54.54,0,0,0-.42-.18.58.58,0,0,0-.43.18A.68.68,0,0,0,115.66,106.43Z"/><polyline class="cls-5" points="88.31 53.18 107.79 53.18 107.79 55.47 112.12 55.47 112.12 53.18 115.81 53.18 115.81 54.58 120.39 54.58 120.39 53.18 123.83 53.18 123.83 55.47 129.56 55.47 129.56 33.19 111.86 33.19 111.86 35.1 88.31 35.1 88.31 53.18"/><polyline class="cls-5" points="111.86 33.19 129.56 33.19 129.56 10.66 123.83 10.66 123.83 12.95 120.39 12.95 120.39 11.55 115.81 11.55 115.81 12.95 112.12 12.95 112.12 10.66 107.79 10.66 107.79 12.95 88.82 12.95 88.82 16.01 80.55 16.01 80.55 31.16 111.86 31.16 111.86 33.19"/><line class="cls-5" x1="112.12" y1="10.66" x2="123.83" y2="10.66"/><polyline class="cls-5" points="112.63 11.43 112.12 11.3 123.83 11.3"/><line class="cls-5" x1="112.88" y1="11.55" x2="113.39" y2="11.81"/><line class="cls-5" x1="113.65" y1="11.93" x2="114.15" y2="12.19"/><line class="cls-5" x1="114.54" y1="12.32" x2="115.05" y2="12.57"/><line class="cls-5" x1="115.3" y1="12.7" x2="115.81" y2="12.95"/><line class="cls-5" x1="112.12" y1="12.95" x2="112.63" y2="12.7"/><line class="cls-5" x1="112.88" y1="12.57" x2="113.39" y2="12.32"/><line class="cls-5" x1="113.65" y1="12.19" x2="114.15" y2="11.93"/><line class="cls-5" x1="114.54" y1="11.81" x2="115.05" y2="11.55"/><line class="cls-5" x1="115.3" y1="11.43" x2="115.81" y2="11.3"/><line class="cls-5" x1="120.39" y1="11.3" x2="120.77" y2="11.43"/><line class="cls-5" x1="121.03" y1="11.55" x2="121.54" y2="11.81"/><line class="cls-5" x1="121.79" y1="11.93" x2="122.43" y2="12.19"/><line class="cls-5" x1="122.68" y1="12.32" x2="123.19" y2="12.57"/><line class="cls-5" x1="123.45" y1="12.7" x2="123.83" y2="12.95"/><line class="cls-5" x1="120.39" y1="12.95" x2="120.77" y2="12.7"/><line class="cls-5" x1="121.03" y1="12.57" x2="121.54" y2="12.32"/><line class="cls-5" x1="121.79" y1="12.19" x2="122.43" y2="11.93"/><line class="cls-5" x1="122.68" y1="11.81" x2="123.19" y2="11.55"/><line class="cls-5" x1="123.45" y1="11.43" x2="123.83" y2="11.3"/><line class="cls-5" x1="112.12" y1="55.47" x2="123.83" y2="55.47"/><polyline class="cls-5" points="112.63 54.71 112.12 54.96 123.83 54.96"/><line class="cls-5" x1="112.88" y1="54.58" x2="113.39" y2="54.32"/><line class="cls-5" x1="113.65" y1="54.2" x2="114.15" y2="53.94"/><line class="cls-5" x1="114.54" y1="53.82" x2="115.05" y2="53.56"/><line class="cls-5" x1="115.3" y1="53.43" x2="115.81" y2="53.18"/><line class="cls-5" x1="112.12" y1="53.18" x2="112.63" y2="53.43"/><line class="cls-5" x1="112.88" y1="53.56" x2="113.39" y2="53.82"/><line class="cls-5" x1="113.65" y1="53.94" x2="114.15" y2="54.2"/><line class="cls-5" x1="114.54" y1="54.32" x2="115.05" y2="54.58"/><line class="cls-5" x1="115.3" y1="54.71" x2="115.81" y2="54.96"/><line class="cls-5" x1="120.39" y1="54.96" x2="120.77" y2="54.71"/><line class="cls-5" x1="121.03" y1="54.58" x2="121.54" y2="54.32"/><line class="cls-5" x1="121.79" y1="54.2" x2="122.43" y2="53.94"/><line class="cls-5" x1="122.68" y1="53.82" x2="123.19" y2="53.56"/><line class="cls-5" x1="123.45" y1="53.43" x2="123.83" y2="53.18"/><line class="cls-5" x1="120.39" y1="53.18" x2="120.77" y2="53.43"/><line class="cls-5" x1="121.03" y1="53.56" x2="121.54" y2="53.82"/><line class="cls-5" x1="121.79" y1="53.94" x2="122.43" y2="54.2"/><line class="cls-5" x1="122.68" y1="54.32" x2="123.19" y2="54.58"/><line class="cls-5" x1="123.45" y1="54.71" x2="123.83" y2="54.96"/><polyline class="cls-5" points="88.31 75.45 107.79 75.45 107.79 73.29 112.12 73.29 112.12 75.45 115.81 75.45 115.81 74.18 120.39 74.18 120.39 75.45 123.83 75.45 123.83 73.29 129.56 73.29 129.56 95.57 111.86 95.57 111.86 93.66 88.31 93.66 88.31 75.45"/><polyline class="cls-5" points="111.86 95.57 129.56 95.57 129.56 117.97 123.83 117.97 123.83 115.81 120.39 115.81 120.39 117.08 115.81 117.08 115.81 115.81 112.12 115.81 112.12 117.97 107.79 117.97 107.79 115.81 88.82 115.81 88.82 112.63 80.55 112.63 80.55 97.48 111.86 97.48 111.86 95.57"/><line class="cls-5" x1="112.12" y1="117.97" x2="123.83" y2="117.97"/><polyline class="cls-5" points="112.63 117.21 112.12 117.46 123.83 117.46"/><line class="cls-5" x1="112.88" y1="117.08" x2="113.39" y2="116.83"/><line class="cls-5" x1="113.65" y1="116.7" x2="114.15" y2="116.44"/><line class="cls-5" x1="114.54" y1="116.32" x2="115.05" y2="116.06"/><line class="cls-5" x1="115.3" y1="115.94" x2="115.81" y2="115.81"/><line class="cls-5" x1="112.12" y1="115.81" x2="112.63" y2="115.93"/><line class="cls-5" x1="112.88" y1="116.06" x2="113.39" y2="116.32"/><line class="cls-5" x1="113.65" y1="116.44" x2="114.15" y2="116.7"/><line class="cls-5" x1="114.54" y1="116.83" x2="115.05" y2="117.08"/><line class="cls-5" x1="115.3" y1="117.21" x2="115.81" y2="117.46"/><line class="cls-5" x1="120.39" y1="117.46" x2="120.77" y2="117.21"/><line class="cls-5" x1="121.03" y1="117.08" x2="121.54" y2="116.83"/><line class="cls-5" x1="121.79" y1="116.7" x2="122.43" y2="116.44"/><line class="cls-5" x1="122.68" y1="116.32" x2="123.19" y2="116.06"/><line class="cls-5" x1="123.45" y1="115.94" x2="123.83" y2="115.81"/><line class="cls-5" x1="120.39" y1="115.81" x2="120.77" y2="115.93"/><line class="cls-5" x1="121.03" y1="116.06" x2="121.54" y2="116.32"/><line class="cls-5" x1="121.79" y1="116.44" x2="122.43" y2="116.7"/><line class="cls-5" x1="122.68" y1="116.83" x2="123.19" y2="117.08"/><line class="cls-5" x1="123.45" y1="117.21" x2="123.83" y2="117.46"/><line class="cls-5" x1="112.12" y1="73.29" x2="123.83" y2="73.29"/><polyline class="cls-5" points="112.63 74.06 112.12 73.8 123.83 73.8"/><line class="cls-5" x1="112.88" y1="74.18" x2="113.39" y2="74.44"/><line class="cls-5" x1="113.65" y1="74.56" x2="114.15" y2="74.82"/><line class="cls-5" x1="114.54" y1="74.95" x2="115.05" y2="75.2"/><line class="cls-5" x1="115.3" y1="75.33" x2="115.81" y2="75.45"/><line class="cls-5" x1="112.12" y1="75.46" x2="112.63" y2="75.33"/><line class="cls-5" x1="112.88" y1="75.2" x2="113.39" y2="74.95"/><line class="cls-5" x1="113.65" y1="74.82" x2="114.15" y2="74.56"/><line class="cls-5" x1="114.54" y1="74.44" x2="115.05" y2="74.18"/><line class="cls-5" x1="115.3" y1="74.05" x2="115.81" y2="73.8"/><line class="cls-5" x1="120.39" y1="73.8" x2="120.77" y2="73.93"/><line class="cls-5" x1="121.03" y1="74.05" x2="121.54" y2="74.44"/><line class="cls-5" x1="121.79" y1="74.56" x2="122.43" y2="74.82"/><line class="cls-5" x1="122.68" y1="74.95" x2="123.19" y2="75.2"/><line class="cls-5" x1="123.45" y1="75.33" x2="123.83" y2="75.45"/><line class="cls-5" x1="120.39" y1="75.46" x2="120.77" y2="75.33"/><line class="cls-5" x1="121.03" y1="75.2" x2="121.54" y2="74.95"/><line class="cls-5" x1="121.79" y1="74.82" x2="122.43" y2="74.56"/><line class="cls-5" x1="122.68" y1="74.44" x2="123.19" y2="74.05"/><line class="cls-5" x1="123.45" y1="73.93" x2="123.83" y2="73.8"/></g></g></svg>