<?xml version="1.0" encoding="utf-8"?>
<!-- Generator: Adobe Illustrator 24.0.2, SVG Export Plug-In . SVG Version: 6.00 Build 0)  -->
<svg version="1.1" id="Capa_1" xmlns="http://www.w3.org/2000/svg" xmlns:xlink="http://www.w3.org/1999/xlink" x="0px" y="0px"
	 viewBox="0 0 154.8 110.2" style="enable-background:new 0 0 154.8 110.2;" xml:space="preserve">
<style type="text/css">
	.st0{fill:#EBEBEB;}
	.st1{fill:none;}
	.st2{fill:none;stroke:#63666B;stroke-width:0.24;stroke-linecap:round;stroke-miterlimit:10;}
	.st3{fill:#63666B;}
</style>
<title>LAQ-E303-minimap</title>
<path class="st0" d="M33.5,9.9L33.5,9.9z"/>
<path class="st1" d="M33.5,9.9L33.5,9.9z"/>
<path class="st0" d="M29.2,9.9l4.3,1.2h-4.3V9.9z M33.5,9.9h-4.3l4.3,1.2V9.9z"/>
<path class="st1" d="M29.2,9.9l4.3,1.2h-4.3V9.9z M33.5,9.9h-4.3l4.3,1.2V9.9z"/>
<path class="st0" d="M25.5,11.1L65.1,14H25.5V11.1z M65.1,11.1H25.5L65.1,14V11.1z"/>
<path class="st1" d="M25.5,11.1L65.1,14H25.5V11.1z M65.1,11.1H25.5L65.1,14V11.1z"/>
<path class="st0" d="M25.5,14l48.6,9.8H25.5V14z M74.1,14H25.5l48.6,9.8V14z"/>
<path class="st1" d="M25.5,14l48.6,9.8H25.5V14z M74.1,14H25.5l48.6,9.8V14z"/>
<path class="st0" d="M19.5,23.8l54.6,4.4H19.5V23.8z M74.1,23.8H19.5l54.6,4.4V23.8z"/>
<path class="st1" d="M19.5,23.8l54.6,4.4H19.5V23.8z M74.1,23.8H19.5l54.6,4.4V23.8z"/>
<path class="st0" d="M19.5,28.3l23.8,12H19.5V28.3z M43.2,28.3H19.5l23.8,12V28.3z"/>
<path class="st1" d="M19.5,28.3l23.8,12H19.5V28.3z M43.2,28.3H19.5l23.8,12V28.3z"/>
<path class="st0" d="M19.5,40.3l35.2,3.1H19.5V40.3z M54.6,40.3H19.5l35.2,3.1V40.3z"/>
<path class="st1" d="M19.5,40.3l35.2,3.1H19.5V40.3z M54.6,40.3H19.5l35.2,3.1V40.3z"/>
<path class="st0" d="M20.5,43.4l34.1,4.7H20.5V43.4z M54.6,43.4H20.5l34.1,4.7V43.4z"/>
<path class="st1" d="M20.5,43.4l34.1,4.7H20.5V43.4z M54.6,43.4H20.5l34.1,4.7V43.4z"/>
<path class="st0" d="M34,48.1l20.6,11.5H34V48.1z M54.6,48.1H34l20.6,11.5V48.1z"/>
<path class="st1" d="M34,48.1l20.6,11.5H34V48.1z M54.6,48.1H34l20.6,11.5V48.1z"/>
<polyline class="st2" points="81.4,32.5 71.9,32.5 71.9,40.8 61.3,40.8 61.3,32.5 55.1,32.5 55.1,40.8 "/>
<line class="st2" x1="55.1" y1="40.3" x2="61.3" y2="40.3"/>
<line class="st2" x1="61.3" y1="40.8" x2="55.1" y2="40.8"/>
<line class="st2" x1="71.9" y1="40.8" x2="81.4" y2="40.8"/>
<line class="st2" x1="81.4" y1="40.3" x2="71.9" y2="40.3"/>
<polyline class="st2" points="81.4,86.6 71.9,86.6 71.9,78.3 61.3,78.3 61.3,86.6 55.1,86.6 55.1,78.3 55.1,40.8 "/>
<line class="st2" x1="55.1" y1="78.9" x2="61.3" y2="78.9"/>
<line class="st2" x1="61.3" y1="78.3" x2="55.1" y2="78.3"/>
<line class="st2" x1="71.9" y1="78.3" x2="81.4" y2="78.3"/>
<line class="st2" x1="81.4" y1="78.9" x2="71.9" y2="78.9"/>
<line class="st2" x1="55.1" y1="32.5" x2="55.5" y2="33"/>
<line class="st2" x1="55.7" y1="33.2" x2="56.1" y2="33.7"/>
<line class="st2" x1="56.2" y1="33.8" x2="56.5" y2="34.3"/>
<line class="st2" x1="56.7" y1="34.5" x2="57" y2="35"/>
<line class="st2" x1="57.3" y1="35.2" x2="57.6" y2="35.6"/>
<line class="st2" x1="57.7" y1="35.8" x2="58.1" y2="36.3"/>
<line class="st2" x1="58.3" y1="36.6" x2="58.7" y2="36.9"/>
<line class="st2" x1="58.8" y1="37.2" x2="59.2" y2="37.6"/>
<line class="st2" x1="59.4" y1="37.9" x2="59.7" y2="38.2"/>
<line class="st2" x1="59.9" y1="38.5" x2="60.3" y2="39"/>
<line class="st2" x1="60.4" y1="39.2" x2="60.7" y2="39.6"/>
<line class="st2" x1="61" y1="39.8" x2="61.3" y2="40.3"/>
<line class="st2" x1="55.1" y1="40.3" x2="55.5" y2="39.8"/>
<line class="st2" x1="55.7" y1="39.6" x2="56.1" y2="39.2"/>
<line class="st2" x1="56.2" y1="39" x2="56.5" y2="38.5"/>
<line class="st2" x1="56.7" y1="38.2" x2="57" y2="37.9"/>
<line class="st2" x1="57.3" y1="37.6" x2="57.6" y2="37.2"/>
<line class="st2" x1="57.7" y1="36.9" x2="58.1" y2="36.6"/>
<line class="st2" x1="58.3" y1="36.3" x2="58.7" y2="35.8"/>
<line class="st2" x1="58.8" y1="35.6" x2="59.2" y2="35.2"/>
<line class="st2" x1="59.4" y1="35" x2="59.7" y2="34.5"/>
<line class="st2" x1="59.9" y1="34.3" x2="60.3" y2="33.8"/>
<line class="st2" x1="60.4" y1="33.7" x2="60.7" y2="33.2"/>
<line class="st2" x1="61" y1="33" x2="61.3" y2="32.5"/>
<line class="st2" x1="71.9" y1="32.5" x2="72.3" y2="32.8"/>
<line class="st2" x1="72.5" y1="33" x2="73" y2="33.3"/>
<line class="st2" x1="73.1" y1="33.6" x2="73.6" y2="33.9"/>
<line class="st2" x1="73.8" y1="34" x2="74.3" y2="34.4"/>
<line class="st2" x1="74.4" y1="34.6" x2="74.9" y2="35"/>
<line class="st2" x1="75.1" y1="35.1" x2="75.6" y2="35.5"/>
<line class="st2" x1="75.7" y1="35.7" x2="76.2" y2="36.1"/>
<line class="st2" x1="76.5" y1="36.2" x2="76.9" y2="36.6"/>
<line class="st2" x1="77.1" y1="36.8" x2="77.5" y2="37.2"/>
<line class="st2" x1="77.8" y1="37.3" x2="78.3" y2="37.6"/>
<line class="st2" x1="78.4" y1="37.9" x2="78.9" y2="38.2"/>
<line class="st2" x1="79.1" y1="38.4" x2="79.5" y2="38.7"/>
<line class="st2" x1="79.7" y1="39" x2="80.2" y2="39.3"/>
<line class="st2" x1="80.4" y1="39.4" x2="80.8" y2="39.8"/>
<line class="st2" x1="81" y1="40" x2="81.4" y2="40.3"/>
<line class="st2" x1="81.4" y1="32.5" x2="81" y2="32.8"/>
<line class="st2" x1="80.8" y1="33" x2="80.4" y2="33.3"/>
<line class="st2" x1="80.2" y1="33.6" x2="79.7" y2="33.9"/>
<line class="st2" x1="79.5" y1="34" x2="79.1" y2="34.4"/>
<line class="st2" x1="78.9" y1="34.6" x2="78.4" y2="35"/>
<line class="st2" x1="78.3" y1="35.1" x2="77.8" y2="35.5"/>
<line class="st2" x1="77.5" y1="35.7" x2="77.1" y2="36.1"/>
<line class="st2" x1="76.9" y1="36.2" x2="76.5" y2="36.6"/>
<line class="st2" x1="76.2" y1="36.8" x2="75.7" y2="37.2"/>
<line class="st2" x1="75.6" y1="37.3" x2="75.1" y2="37.6"/>
<line class="st2" x1="74.9" y1="37.9" x2="74.4" y2="38.2"/>
<line class="st2" x1="74.3" y1="38.4" x2="73.8" y2="38.7"/>
<line class="st2" x1="73.6" y1="39" x2="73.1" y2="39.3"/>
<line class="st2" x1="73" y1="39.4" x2="72.5" y2="39.8"/>
<line class="st2" x1="72.3" y1="40" x2="71.9" y2="40.3"/>
<line class="st2" x1="55.1" y1="86.6" x2="55.5" y2="86.2"/>
<line class="st2" x1="55.7" y1="86" x2="56.1" y2="85.5"/>
<line class="st2" x1="56.2" y1="85.3" x2="56.5" y2="84.9"/>
<line class="st2" x1="56.7" y1="84.7" x2="57" y2="84.2"/>
<line class="st2" x1="57.3" y1="84" x2="57.6" y2="83.5"/>
<line class="st2" x1="57.7" y1="83.4" x2="58.1" y2="82.9"/>
<line class="st2" x1="58.3" y1="82.6" x2="58.7" y2="82.2"/>
<line class="st2" x1="58.8" y1="82" x2="59.2" y2="81.6"/>
<line class="st2" x1="59.4" y1="81.3" x2="59.7" y2="80.8"/>
<line class="st2" x1="59.9" y1="80.6" x2="60.3" y2="80.2"/>
<line class="st2" x1="60.4" y1="80" x2="60.7" y2="79.5"/>
<line class="st2" x1="61" y1="79.3" x2="61.3" y2="78.9"/>
<line class="st2" x1="55.1" y1="78.9" x2="55.5" y2="79.3"/>
<line class="st2" x1="55.7" y1="79.5" x2="56.1" y2="80"/>
<line class="st2" x1="56.2" y1="80.2" x2="56.5" y2="80.6"/>
<line class="st2" x1="56.7" y1="80.8" x2="57" y2="81.3"/>
<line class="st2" x1="57.3" y1="81.6" x2="57.6" y2="82"/>
<line class="st2" x1="57.7" y1="82.2" x2="58.1" y2="82.6"/>
<line class="st2" x1="58.3" y1="82.9" x2="58.7" y2="83.4"/>
<line class="st2" x1="58.8" y1="83.5" x2="59.2" y2="84"/>
<line class="st2" x1="59.4" y1="84.2" x2="59.7" y2="84.7"/>
<line class="st2" x1="59.9" y1="84.9" x2="60.3" y2="85.3"/>
<line class="st2" x1="60.4" y1="85.5" x2="60.7" y2="86"/>
<line class="st2" x1="61" y1="86.2" x2="61.3" y2="86.6"/>
<line class="st2" x1="71.9" y1="86.6" x2="72.3" y2="86.4"/>
<line class="st2" x1="72.5" y1="86.1" x2="73" y2="85.8"/>
<line class="st2" x1="73.1" y1="85.6" x2="73.6" y2="85.3"/>
<line class="st2" x1="73.8" y1="85" x2="74.3" y2="84.7"/>
<line class="st2" x1="74.4" y1="84.6" x2="74.9" y2="84.2"/>
<line class="st2" x1="75.1" y1="84" x2="75.6" y2="83.6"/>
<line class="st2" x1="75.7" y1="83.5" x2="76.2" y2="83.1"/>
<line class="st2" x1="76.5" y1="82.9" x2="76.9" y2="82.5"/>
<line class="st2" x1="77.1" y1="82.4" x2="77.5" y2="82"/>
<line class="st2" x1="77.8" y1="81.8" x2="78.3" y2="81.6"/>
<line class="st2" x1="78.4" y1="81.3" x2="78.9" y2="81"/>
<line class="st2" x1="79.1" y1="80.8" x2="79.5" y2="80.5"/>
<line class="st2" x1="79.7" y1="80.2" x2="80.2" y2="79.9"/>
<line class="st2" x1="80.4" y1="79.8" x2="80.8" y2="79.4"/>
<line class="st2" x1="81" y1="79.2" x2="81.4" y2="78.9"/>
<line class="st2" x1="71.9" y1="78.9" x2="72.3" y2="79.2"/>
<line class="st2" x1="72.5" y1="79.4" x2="73" y2="79.8"/>
<line class="st2" x1="73.1" y1="79.9" x2="73.6" y2="80.2"/>
<line class="st2" x1="73.8" y1="80.5" x2="74.3" y2="80.8"/>
<line class="st2" x1="74.4" y1="81" x2="74.9" y2="81.3"/>
<line class="st2" x1="75.1" y1="81.6" x2="75.6" y2="81.8"/>
<line class="st2" x1="75.7" y1="82" x2="76.2" y2="82.4"/>
<line class="st2" x1="76.5" y1="82.5" x2="76.9" y2="82.9"/>
<line class="st2" x1="77.1" y1="83.1" x2="77.5" y2="83.5"/>
<line class="st2" x1="77.8" y1="83.6" x2="78.3" y2="84"/>
<line class="st2" x1="78.4" y1="84.2" x2="78.9" y2="84.6"/>
<line class="st2" x1="79.1" y1="84.7" x2="79.5" y2="85"/>
<line class="st2" x1="79.7" y1="85.3" x2="80.2" y2="85.6"/>
<line class="st2" x1="80.4" y1="85.8" x2="80.8" y2="86.1"/>
<line class="st2" x1="81" y1="86.4" x2="81.4" y2="86.6"/>
<path class="st3" d="M145.2,11.4L143.4,0h0.4L145.2,11.4z M145,11.5l0.2-0.1L143.4,0L145,11.5z"/>
<path class="st1" d="M145.2,11.4L143.4,0h0.4L145.2,11.4z M145,11.5l0.2-0.1L143.4,0L145,11.5z"/>
<line class="st2" x1="146.4" y1="21.7" x2="145.1" y2="11.4"/>
<path class="st3" d="M145.9,11.4l-1.2-6.6h0.4L145.9,11.4z M145.6,11.4h0.4l-1.2-6.6L145.6,11.4z"/>
<path class="st1" d="M145.9,11.4l-1.2-6.6h0.4L145.9,11.4z M145.6,11.4h0.4l-1.2-6.6L145.6,11.4z"/>
<path class="st3" d="M144.6,11.5L143.4,5h0.4L144.6,11.5z M144.3,11.5h0.4L143.4,5L144.3,11.5z"/>
<path class="st1" d="M144.6,11.5L143.4,5h0.4L144.6,11.5z M144.3,11.5h0.4L143.4,5L144.3,11.5z"/>
<line class="st2" x1="146.2" y1="21.8" x2="145.9" y2="20.5"/>
<line class="st2" x1="137.3" y1="12.8" x2="135.6" y2="13"/>
<line class="st2" x1="154.7" y1="10.5" x2="152.9" y2="10.8"/>
<line class="st2" x1="154.7" y1="10.2" x2="135.5" y2="12.7"/>
<path class="st2" d="M152.1,10.4c-0.5-3.9-4.1-6.7-8-6.2c-3.9,0.5-6.7,4.1-6.2,8c0.5,3.9,4.1,6.7,8,6.2c0,0,0,0,0,0
	C149.9,17.9,152.6,14.3,152.1,10.4C152.1,10.4,152.1,10.4,152.1,10.4"/>
<path class="st2" d="M151.6,10.4c-0.5-3.6-3.8-6.2-7.5-5.7c-3.6,0.5-6.2,3.8-5.7,7.5c0.5,3.6,3.8,6.2,7.5,5.7c0,0,0,0,0,0
	C149.6,17.4,152.1,14.1,151.6,10.4C151.7,10.4,151.7,10.4,151.6,10.4"/>
<path class="st3" d="M29.4,87.2l-0.8-2.8H29l0.4,1.9c0,0.2,0.1,0.4,0.1,0.6c0.1-0.3,0.1-0.5,0.1-0.5l0.5-1.9h0.5l0.4,1.4
	c0.1,0.3,0.2,0.7,0.2,1c0-0.2,0.1-0.4,0.1-0.6l0.4-1.8h0.4l-0.8,2.8h-0.4L30.5,85l-0.1-0.3c0,0.1,0,0.2-0.1,0.3l-0.6,2.2L29.4,87.2z
	"/>
<path class="st3" d="M33.6,86.5h0.3c0,0.2,0.1,0.3,0.2,0.4c0.2,0.2,0.5,0.2,0.8,0c0.1-0.1,0.2-0.3,0.2-0.4c0-0.2,0-0.3-0.1-0.5
	c-0.1-0.1-0.3-0.2-0.4-0.2c-0.1,0-0.2,0-0.2,0v-0.3h0.1c0.1,0,0.3,0,0.4-0.1c0.1-0.1,0.2-0.2,0.2-0.3c0-0.1,0-0.2-0.1-0.3
	c-0.1-0.1-0.2-0.1-0.3-0.1c-0.1,0-0.2,0-0.3,0.1C34,84.9,34,85,33.9,85.1l-0.3-0.1c0-0.2,0.1-0.4,0.3-0.5c0.2-0.1,0.4-0.2,0.6-0.2
	c0.1,0,0.3,0,0.4,0.1c0.2,0.1,0.4,0.4,0.4,0.6c0,0.1,0,0.2-0.1,0.3c-0.1,0.1-0.2,0.2-0.3,0.2c0.2,0,0.3,0.1,0.4,0.2
	c0.1,0.1,0.1,0.3,0.1,0.5c0,0.2-0.1,0.5-0.3,0.6c-0.2,0.2-0.4,0.3-0.7,0.3C34,87.3,33.6,86.9,33.6,86.5L33.6,86.5z"/>
<path class="st3" d="M35.8,85.8c0-0.3,0.1-0.6,0.2-0.8c0.1-0.2,0.2-0.4,0.3-0.5c0.1-0.1,0.3-0.2,0.5-0.2c0.1,0,0.3,0,0.4,0.1
	c0.1,0.1,0.2,0.2,0.3,0.3c0.1,0.1,0.1,0.3,0.2,0.4c0,0.2,0.1,0.4,0.1,0.7c0,0.3,0,0.5-0.1,0.8c-0.1,0.2-0.2,0.3-0.3,0.5
	c-0.1,0.1-0.3,0.2-0.5,0.2c-0.3,0-0.5-0.1-0.7-0.3C35.9,86.6,35.8,86.2,35.8,85.8z M36.1,85.8c0,0.3,0,0.6,0.2,0.9
	c0.1,0.1,0.2,0.2,0.4,0.2c0.2,0,0.3-0.1,0.4-0.2c0.1-0.3,0.2-0.6,0.2-0.9c0-0.3,0-0.6-0.2-0.9c-0.1-0.1-0.2-0.2-0.4-0.2
	c-0.2,0-0.3,0.1-0.4,0.2C36.2,85.1,36.1,85.5,36.1,85.8z"/>
<path class="st3" d="M38,86.5h0.4c0,0.2,0.1,0.3,0.2,0.4c0.1,0.1,0.2,0.1,0.4,0.1c0.2,0,0.3-0.1,0.4-0.2c0.1-0.1,0.2-0.3,0.2-0.5
	c0-0.2-0.1-0.3-0.2-0.5c-0.1-0.1-0.3-0.2-0.4-0.2c-0.1,0-0.2,0-0.3,0.1c-0.1,0-0.2,0.1-0.2,0.2h-0.3l0.3-1.4h1.4v0.3h-1.1l-0.2,0.8
	c0.2-0.1,0.3-0.2,0.5-0.2c0.2,0,0.5,0.1,0.6,0.3c0.2,0.2,0.3,0.4,0.3,0.7c0,0.2-0.1,0.5-0.2,0.7c-0.2,0.2-0.5,0.4-0.7,0.3
	c-0.2,0-0.5-0.1-0.6-0.2C38.1,87,38,86.7,38,86.5z"/>
<path class="st3" d="M2.9,63.2H0.1v-0.4h2.5v-1.4h0.4V63.2z"/>
<path class="st3" d="M2.9,61.3l-2.8-1.1v-0.4l2.8-1.2V59l-0.9,0.3v1.2l0.9,0.3V61.3z M1.8,60.4v-1L1,59.7c-0.2,0.1-0.4,0.1-0.6,0.2
	c0.2,0,0.4,0.1,0.5,0.2L1.8,60.4z"/>
<path class="st3" d="M1.8,57H1.5v-1.2h1.1c0.1,0.2,0.2,0.4,0.3,0.6C2.9,56.6,2.9,56.8,3,57c0,0.3-0.1,0.5-0.2,0.8
	c-0.1,0.2-0.3,0.4-0.5,0.5c-0.2,0.1-0.5,0.2-0.8,0.2c-0.3,0-0.5-0.1-0.8-0.2c-0.2-0.1-0.4-0.3-0.5-0.5C0.1,57.5,0,57.3,0,57
	c0-0.2,0-0.4,0.1-0.6c0.1-0.2,0.1-0.3,0.3-0.4c0.1-0.1,0.3-0.2,0.5-0.2L1,56.2c-0.1,0-0.2,0.1-0.3,0.2c-0.1,0.1-0.2,0.2-0.2,0.3
	c0,0.1-0.1,0.3-0.1,0.4c0,0.2,0,0.3,0.1,0.4c0,0.1,0.1,0.2,0.2,0.3c0.1,0.1,0.2,0.1,0.3,0.2c0.4,0.2,0.8,0.2,1.2,0
	c0.2-0.1,0.3-0.2,0.4-0.4c0.1-0.2,0.1-0.3,0.1-0.5c0-0.2,0-0.3-0.1-0.5c0-0.1-0.1-0.2-0.2-0.3H1.8L1.8,57z"/>
<path class="st3" d="M1.5,55.3c-0.4,0-0.8-0.1-1.1-0.3C0.1,54.7,0,54.4,0,54c0-0.2,0.1-0.5,0.2-0.7c0.1-0.2,0.3-0.4,0.5-0.5
	c0.2-0.1,0.5-0.2,0.8-0.2c0.3,0,0.5,0.1,0.8,0.2c0.2,0.1,0.4,0.3,0.5,0.5c0.1,0.2,0.2,0.4,0.2,0.7c0,0.3-0.1,0.5-0.2,0.7
	c-0.1,0.2-0.3,0.4-0.5,0.5C2,55.3,1.7,55.3,1.5,55.3z M1.5,54.9c0.3,0,0.6-0.1,0.8-0.3c0.2-0.2,0.3-0.4,0.3-0.7
	c0-0.3-0.1-0.5-0.3-0.7C2.1,53.1,1.8,53,1.5,53c-0.2,0-0.4,0-0.6,0.1c-0.3,0.1-0.6,0.5-0.5,0.8c0,0.3,0.1,0.5,0.3,0.7
	C0.9,54.9,1.2,55,1.5,54.9z"/>
<path class="st3" d="M142.9,84.8l-2.8-1.1v-0.4l2.8-1.2v0.4l-0.9,0.3v1.2l0.9,0.3V84.8z M141.8,84v-1l-0.8,0.3l-0.6,0.2
	c0.2,0,0.4,0.1,0.5,0.2L141.8,84z"/>
<path class="st3" d="M142.9,81.3l-2,0.8v-0.4l1.2-0.4l0.4-0.1l-0.4-0.1l-1.3-0.4v-0.4l2,0.8V81.3z"/>
<path class="st3" d="M142.9,79.8h-0.4v-0.4h0.4V79.8z"/>
<path class="st3" d="M142.1,77.9v-0.3c0.2,0,0.3,0,0.4-0.1c0.1-0.1,0.1-0.2,0.1-0.3c0-0.1,0-0.2-0.1-0.2c0-0.1-0.1-0.1-0.2-0.1
	c-0.1,0-0.2,0-0.4,0h-2v-0.4h1.9c0.2,0,0.4,0,0.6,0.1c0.1,0.1,0.2,0.1,0.3,0.3c0.1,0.1,0.1,0.3,0.1,0.4c0,0.2-0.1,0.4-0.2,0.6
	C142.6,77.9,142.3,77.9,142.1,77.9z"/>
<path class="st3" d="M141.6,75.8c-0.4,0-0.8-0.1-1.1-0.4c-0.3-0.3-0.4-0.6-0.4-1c0-0.2,0.1-0.5,0.2-0.7c0.1-0.2,0.3-0.4,0.5-0.5
	c0.2-0.1,0.5-0.2,0.8-0.2c0.3,0,0.5,0.1,0.8,0.2c0.2,0.1,0.4,0.3,0.5,0.5c0.1,0.2,0.2,0.4,0.2,0.7c0,0.3-0.1,0.5-0.2,0.7
	c-0.1,0.2-0.3,0.4-0.5,0.5C142,75.7,141.8,75.8,141.6,75.8z M141.6,75.4c0.3,0,0.6-0.1,0.8-0.3c0.2-0.2,0.3-0.4,0.3-0.7
	c0-0.3-0.1-0.5-0.3-0.7c-0.2-0.2-0.5-0.3-0.9-0.3c-0.2,0-0.4,0-0.6,0.1c-0.2,0.1-0.3,0.2-0.4,0.3c-0.1,0.1-0.1,0.3-0.1,0.5
	c0,0.3,0.1,0.5,0.3,0.7C140.9,75.4,141.2,75.5,141.6,75.4z"/>
<path class="st3" d="M142.9,72.9l-2.8-1.1v-0.4l2.8-1.2v0.4l-0.9,0.3v1.2l0.9,0.3V72.9z M141.8,72.1v-1l-0.8,0.3
	c-0.2,0.1-0.4,0.1-0.6,0.2c0.2,0,0.4,0.1,0.5,0.2L141.8,72.1z"/>
<path class="st3" d="M142.6,67.8c0.1-0.1,0.2-0.3,0.3-0.5l0.3,0.1c-0.1,0.2-0.2,0.4-0.4,0.6c0.1,0.2,0.2,0.4,0.2,0.7
	c0,0.5-0.3,1-0.7,1.2c-0.2,0.1-0.5,0.2-0.8,0.2c-0.3,0-0.5-0.1-0.8-0.2c-0.2-0.1-0.4-0.3-0.5-0.5c-0.1-0.2-0.2-0.5-0.2-0.7
	c0-0.2,0.1-0.5,0.2-0.7c0.1-0.2,0.3-0.4,0.5-0.5c0.2-0.1,0.5-0.2,0.8-0.2c0.2,0,0.4,0,0.6,0.1C142.3,67.6,142.5,67.7,142.6,67.8z
	 M142.2,68.7c0-0.2,0.1-0.4,0.3-0.5c-0.2-0.2-0.6-0.4-0.9-0.3c-0.2,0-0.4,0-0.6,0.1c-0.5,0.2-0.7,0.8-0.4,1.3c0,0.1,0.1,0.2,0.2,0.3
	c0.5,0.4,1.2,0.4,1.7,0c0.2-0.2,0.3-0.4,0.3-0.7c0-0.1,0-0.3-0.1-0.4c-0.1,0.1-0.1,0.2-0.2,0.4L142.2,68.7z"/>
<path class="st3" d="M140.1,65v-0.4h1.6c0.2,0,0.5,0,0.7,0.1c0.2,0.1,0.3,0.2,0.4,0.3c0.1,0.2,0.2,0.4,0.2,0.7c0,0.2,0,0.4-0.1,0.7
	c-0.1,0.2-0.2,0.3-0.4,0.4c-0.2,0.1-0.5,0.1-0.7,0.1h-1.6v-0.4h1.6c0.2,0,0.4,0,0.6-0.1c0.1,0,0.2-0.1,0.3-0.2
	c0.1-0.1,0.1-0.3,0.1-0.4c0-0.2,0-0.4-0.2-0.6c-0.2-0.1-0.5-0.2-0.7-0.2L140.1,65z"/>
<path class="st3" d="M142.9,64h-2.8v-0.4h2.8V64z"/>
<path class="st3" d="M142.9,62.9h-2.8v-0.4l2.2-1.5h-2.2v-0.4h2.8v0.4l-2.2,1.5h2.2V62.9z"/>
<path class="st3" d="M142,59.1v-0.3c0.1,0,0.2-0.1,0.4-0.1c0.1-0.1,0.2-0.2,0.2-0.3c0.1-0.1,0.1-0.3,0.1-0.4c0-0.1,0-0.3-0.1-0.4
	c0-0.1-0.1-0.2-0.2-0.3c-0.1-0.1-0.2-0.1-0.2-0.1c-0.1,0-0.2,0-0.2,0.1c-0.1,0.1-0.1,0.2-0.2,0.3c-0.1,0.2-0.1,0.3-0.1,0.5
	c0,0.2-0.1,0.4-0.2,0.6c-0.1,0.1-0.1,0.2-0.3,0.3c-0.1,0.1-0.2,0.1-0.4,0.1c-0.1,0-0.3,0-0.4-0.1c-0.1-0.1-0.2-0.2-0.3-0.4
	c-0.1-0.2-0.1-0.3-0.1-0.5c0-0.2,0-0.4,0.1-0.6c0.1-0.2,0.2-0.3,0.3-0.4c0.1-0.1,0.3-0.1,0.4-0.1v0.4c-0.2,0-0.3,0.1-0.4,0.2
	c-0.1,0.1-0.1,0.3-0.1,0.5c0,0.2,0,0.3,0.1,0.5c0.1,0.1,0.2,0.2,0.3,0.2c0.1,0,0.2,0,0.3-0.1c0.1-0.2,0.2-0.4,0.2-0.6
	c0-0.2,0.1-0.4,0.2-0.6c0.1-0.1,0.2-0.3,0.3-0.4c0.1-0.1,0.3-0.1,0.4-0.1c0.2,0,0.3,0,0.4,0.1c0.1,0.1,0.2,0.2,0.3,0.4
	c0.1,0.2,0.1,0.4,0.1,0.6c0,0.2,0,0.4-0.1,0.7c-0.1,0.2-0.2,0.3-0.3,0.4C142.4,59,142.2,59.1,142,59.1z"/>
<path class="st3" d="M142.9,56.3h-2.8v-2h0.3V56h0.9v-1.6h0.3V56h1v-1.8h0.3V56.3z"/>
<path class="st3" d="M141.9,51.7l0.1-0.4c0.3,0.1,0.5,0.2,0.7,0.4c0.2,0.2,0.2,0.5,0.2,0.8c0,0.3-0.1,0.5-0.2,0.7
	c-0.1,0.2-0.3,0.4-0.5,0.4c-0.2,0.1-0.5,0.2-0.8,0.2c-0.3,0-0.5-0.1-0.8-0.2c-0.2-0.1-0.4-0.3-0.5-0.5c-0.1-0.2-0.2-0.4-0.2-0.7
	c0-0.3,0.1-0.5,0.2-0.7c0.2-0.2,0.4-0.3,0.6-0.4l0.1,0.4c-0.2,0-0.3,0.1-0.4,0.3c-0.1,0.1-0.2,0.3-0.1,0.5c0,0.2,0,0.4,0.1,0.5
	c0.1,0.1,0.3,0.3,0.4,0.3c0.2,0.1,0.4,0.1,0.5,0.1c0.2,0,0.4,0,0.6-0.1c0.2-0.1,0.3-0.2,0.4-0.3c0.1-0.1,0.1-0.3,0.1-0.5
	c0-0.2-0.1-0.4-0.2-0.5C142.3,51.8,142.1,51.7,141.9,51.7z"/>
<path class="st3" d="M141.6,51c-0.4,0-0.8-0.1-1.1-0.4c-0.3-0.3-0.4-0.6-0.4-1c0-0.2,0.1-0.5,0.2-0.7c0.1-0.2,0.3-0.4,0.5-0.5
	c0.2-0.1,0.5-0.2,0.8-0.2c0.3,0,0.5,0.1,0.8,0.2c0.2,0.1,0.4,0.3,0.5,0.5c0.1,0.2,0.2,0.4,0.2,0.7c0,0.3-0.1,0.5-0.2,0.7
	c-0.1,0.2-0.3,0.4-0.5,0.5C142,50.9,141.8,51,141.6,51z M141.6,50.6c0.3,0,0.6-0.1,0.8-0.3c0.2-0.2,0.3-0.4,0.3-0.7
	c0-0.3-0.1-0.5-0.3-0.7c-0.2-0.2-0.5-0.3-0.9-0.3c-0.2,0-0.4,0-0.6,0.1c-0.2,0.1-0.3,0.2-0.4,0.3c-0.1,0.1-0.1,0.3-0.1,0.5
	c0,0.3,0.1,0.5,0.3,0.7C140.9,50.5,141.2,50.6,141.6,50.6L141.6,50.6z"/>
<path class="st3" d="M142.9,46.6h-2.8v-0.4h2.8V46.6z"/>
<path class="st3" d="M142.9,45.6h-2.8v-0.4h2.5v-1.4h0.3V45.6z"/>
<path class="st3" d="M142.9,43.4h-2.8V43h2.5v-1.4h0.3V43.4z"/>
<path class="st3" d="M142.9,41.5l-2.8-1.1V40l2.8-1.2v0.4l-0.9,0.3v1.2l0.9,0.3V41.5z M141.8,40.7v-1l-0.8,0.3
	c-0.2,0.1-0.4,0.2-0.6,0.2c0.2,0,0.4,0.1,0.5,0.2L141.8,40.7z"/>
<polyline class="st2" points="81.4,32.5 81.4,49 99.7,49 99.7,51.2 103.8,51.2 103.8,49 107.3,49 107.3,50.4 111.6,50.4 111.6,49 
	114.9,49 114.9,51.2 120.3,51.2 120.3,9 114.9,9 114.9,11.1 111.6,11.1 111.6,9.9 107.3,9.9 107.3,11.1 103.8,11.1 103.8,9 99.7,9 
	99.7,11.1 81.9,11.1 81.9,14 74.1,14 74.1,28.3 61.3,28.3 61.3,32.5 "/>
<line class="st2" x1="103.8" y1="9" x2="114.9" y2="9"/>
<polyline class="st2" points="104.3,9.7 103.8,9.6 114.9,9.6 "/>
<line class="st2" x1="104.5" y1="9.8" x2="105" y2="10"/>
<line class="st2" x1="105.3" y1="10.2" x2="105.7" y2="10.4"/>
<line class="st2" x1="106.1" y1="10.5" x2="106.6" y2="10.8"/>
<line class="st2" x1="106.8" y1="10.9" x2="107.3" y2="11.1"/>
<line class="st2" x1="103.8" y1="11.1" x2="104.3" y2="10.9"/>
<line class="st2" x1="104.5" y1="10.8" x2="105" y2="10.5"/>
<line class="st2" x1="105.3" y1="10.4" x2="105.7" y2="10.2"/>
<line class="st2" x1="106.1" y1="10" x2="106.6" y2="9.8"/>
<line class="st2" x1="106.8" y1="9.7" x2="107.3" y2="9.6"/>
<line class="st2" x1="111.6" y1="9.6" x2="112" y2="9.7"/>
<line class="st2" x1="112.2" y1="9.8" x2="112.7" y2="10"/>
<line class="st2" x1="112.9" y1="10.2" x2="113.5" y2="10.4"/>
<line class="st2" x1="113.8" y1="10.5" x2="114.3" y2="10.8"/>
<line class="st2" x1="114.5" y1="11" x2="114.9" y2="11.1"/>
<line class="st2" x1="111.6" y1="11.1" x2="112" y2="11"/>
<line class="st2" x1="112.2" y1="10.8" x2="112.7" y2="10.5"/>
<line class="st2" x1="112.9" y1="10.4" x2="113.5" y2="10.2"/>
<line class="st2" x1="113.8" y1="10" x2="114.3" y2="9.8"/>
<line class="st2" x1="114.5" y1="9.7" x2="114.9" y2="9.6"/>
<line class="st2" x1="103.8" y1="51.2" x2="114.9" y2="51.2"/>
<polyline class="st2" points="104.3,50.5 103.8,50.7 114.9,50.7 "/>
<line class="st2" x1="104.5" y1="50.4" x2="105" y2="50.1"/>
<line class="st2" x1="105.3" y1="50" x2="105.7" y2="49.8"/>
<line class="st2" x1="106.1" y1="49.6" x2="106.6" y2="49.4"/>
<line class="st2" x1="106.8" y1="49.3" x2="107.3" y2="49"/>
<line class="st2" x1="103.8" y1="49" x2="104.3" y2="49.3"/>
<line class="st2" x1="104.5" y1="49.4" x2="105" y2="49.6"/>
<line class="st2" x1="105.3" y1="49.8" x2="105.7" y2="50"/>
<line class="st2" x1="106.1" y1="50.1" x2="106.6" y2="50.4"/>
<line class="st2" x1="106.8" y1="50.5" x2="107.3" y2="50.7"/>
<line class="st2" x1="111.6" y1="50.7" x2="112" y2="50.5"/>
<line class="st2" x1="112.2" y1="50.4" x2="112.7" y2="50.1"/>
<line class="st2" x1="112.9" y1="50" x2="113.5" y2="49.8"/>
<line class="st2" x1="113.8" y1="49.6" x2="114.3" y2="49.4"/>
<line class="st2" x1="114.5" y1="49.3" x2="114.9" y2="49"/>
<line class="st2" x1="111.6" y1="49" x2="112" y2="49.3"/>
<line class="st2" x1="112.2" y1="49.4" x2="112.7" y2="49.6"/>
<line class="st2" x1="112.9" y1="49.8" x2="113.5" y2="50"/>
<line class="st2" x1="113.8" y1="50.1" x2="114.3" y2="50.4"/>
<line class="st2" x1="114.5" y1="50.5" x2="114.9" y2="50.7"/>
<polyline class="st2" points="74.1,14 65.1,14 65.1,11.1 33.5,11.1 33.5,9.9 29.2,9.9 29.2,11.1 25.5,11.1 25.5,23.8 19.5,23.8 
	19.5,43.4 20.5,43.4 20.5,48.1 34,48.1 34,59.6 54.6,59.6 54.6,49.9 54.6,40.3 43.2,40.3 43.2,28.3 74.1,28.3 74.1,14 "/>
<polyline class="st2" points="74.1,105.2 65.1,105.2 65.1,108.1 33.5,108.1 33.5,109.3 29.2,109.3 29.2,108.1 25.5,108.1 25.5,95.2 
	19.5,95.2 19.5,75.7 20.5,75.7 20.5,71.1 34,71.1 34,59.6 54.6,59.6 54.6,78.9 43.2,78.9 43.2,90.8 74.1,90.8 74.1,105.2 "/>
<line class="st2" x1="20.5" y1="71.1" x2="20.5" y2="48.1"/>
<line class="st2" x1="21.1" y1="71.1" x2="21.1" y2="48.1"/>
<path class="st3" d="M28.9,35.4v-2.8h2v0.3h-1.7v0.9h1.6v0.3h-1.6v1H31v0.3L28.9,35.4z"/>
<path class="st3" d="M32.5,34.6h0.3c0,0.2,0.1,0.3,0.2,0.4c0.1,0.1,0.2,0.1,0.3,0.1c0.2,0,0.3-0.1,0.4-0.2c0.1-0.1,0.2-0.3,0.2-0.4
	c0-0.1,0-0.3-0.2-0.4c-0.1-0.1-0.3-0.2-0.4-0.2c-0.1,0-0.2,0-0.3,0v-0.3h0.1c0.1,0,0.3,0,0.4-0.1c0.1-0.1,0.2-0.2,0.2-0.3
	c0-0.1,0-0.2-0.1-0.3c-0.1-0.1-0.2-0.1-0.3-0.1c-0.1,0-0.2,0-0.3,0.1c-0.1,0.1-0.2,0.2-0.2,0.4l-0.3-0.1c0-0.2,0.1-0.4,0.3-0.5
	c0.2-0.1,0.4-0.2,0.6-0.2c0.1,0,0.3,0,0.4,0.1c0.1,0.1,0.2,0.2,0.3,0.3c0.1,0.1,0.1,0.2,0.1,0.4c0,0.1,0,0.2-0.1,0.3
	c-0.1,0.1-0.2,0.2-0.3,0.2c0.2,0,0.3,0.1,0.4,0.2c0.1,0.1,0.2,0.3,0.1,0.5c0,0.2-0.1,0.5-0.3,0.6c-0.2,0.2-0.4,0.3-0.7,0.3
	c-0.2,0-0.5-0.1-0.6-0.2C32.6,35,32.5,34.8,32.5,34.6z"/>
<path class="st3" d="M34.7,34c0-0.3,0-0.5,0.1-0.8c0.1-0.2,0.2-0.4,0.3-0.5c0.1-0.1,0.3-0.2,0.5-0.2c0.1,0,0.3,0,0.4,0.1
	c0.1,0.1,0.2,0.2,0.3,0.3c0.1,0.1,0.1,0.3,0.2,0.4c0.1,0.2,0.1,0.4,0.1,0.7c0,0.3,0,0.5-0.1,0.8c-0.1,0.2-0.2,0.3-0.3,0.5
	c-0.1,0.1-0.3,0.2-0.5,0.2c-0.2,0-0.5-0.1-0.6-0.3C34.7,34.8,34.6,34.4,34.7,34z M35,34c0,0.3,0,0.6,0.2,0.9
	c0.1,0.1,0.2,0.2,0.4,0.2c0.2,0,0.3-0.1,0.4-0.2c0.1-0.3,0.2-0.6,0.2-0.9c0-0.3,0-0.6-0.2-0.9c-0.1-0.2-0.4-0.3-0.6-0.1
	c-0.1,0-0.1,0.1-0.1,0.1C35.1,33.4,35,33.7,35,34z"/>
<path class="st3" d="M36.9,34.6h0.3c0,0.2,0.1,0.3,0.2,0.4c0.1,0.1,0.2,0.1,0.3,0.1c0.2,0,0.3-0.1,0.4-0.2c0.1-0.1,0.2-0.3,0.2-0.4
	c0-0.1-0.1-0.3-0.2-0.4C38.1,34.1,38,34,37.9,34c-0.1,0-0.2,0-0.2,0v-0.3l0,0c0.1,0,0.3,0,0.4-0.1c0.1-0.1,0.2-0.2,0.2-0.3
	c0-0.1,0-0.2-0.1-0.3c-0.1-0.1-0.2-0.1-0.3-0.1c-0.1,0-0.2,0-0.3,0.1c-0.1,0.1-0.2,0.2-0.2,0.4l-0.3-0.1c0-0.2,0.1-0.4,0.3-0.5
	c0.2-0.1,0.4-0.2,0.6-0.2c0.1,0,0.3,0,0.4,0.1c0.1,0.1,0.2,0.2,0.3,0.3c0.1,0.1,0.1,0.2,0.1,0.4c0,0.1,0,0.2-0.1,0.3
	c-0.1,0.1-0.2,0.2-0.3,0.2c0.2,0,0.3,0.1,0.4,0.2c0.1,0.1,0.1,0.3,0.1,0.5c0,0.2-0.1,0.5-0.3,0.6c-0.2,0.2-0.4,0.3-0.7,0.3
	c-0.2,0-0.4-0.1-0.6-0.2C37,35,36.9,34.8,36.9,34.6z"/>
<polyline class="st2" points="81.4,86.6 81.4,70 99.7,70 99.7,68 103.8,68 103.8,70 107.3,70 107.3,68.8 111.6,68.8 111.6,70 
	114.9,70 114.9,68 120.3,68 120.3,110.1 114.9,110.1 114.9,108.1 111.6,108.1 111.6,109.3 107.3,109.3 107.3,108.1 103.8,108.1 
	103.8,110.1 99.7,110.1 99.7,108.1 81.9,108.1 81.9,105.2 74.1,105.2 74.1,90.8 55.1,90.8 55.1,86.6 "/>
<polyline class="st2" points="104.3,109.4 103.8,109.6 114.9,109.6 "/>
<line class="st2" x1="104.5" y1="109.3" x2="105" y2="109"/>
<line class="st2" x1="105.3" y1="108.9" x2="105.7" y2="108.7"/>
<line class="st2" x1="106.1" y1="108.6" x2="106.6" y2="108.3"/>
<line class="st2" x1="106.8" y1="108.2" x2="107.3" y2="108.1"/>
<line class="st2" x1="103.8" y1="108.1" x2="104.3" y2="108.2"/>
<line class="st2" x1="104.5" y1="108.3" x2="105" y2="108.6"/>
<line class="st2" x1="105.3" y1="108.7" x2="105.7" y2="108.9"/>
<line class="st2" x1="106.1" y1="109" x2="106.6" y2="109.3"/>
<line class="st2" x1="106.8" y1="109.4" x2="107.3" y2="109.6"/>
<line class="st2" x1="111.6" y1="109.6" x2="112" y2="109.5"/>
<line class="st2" x1="112.2" y1="109.3" x2="112.7" y2="109"/>
<line class="st2" x1="112.9" y1="108.9" x2="113.5" y2="108.7"/>
<line class="st2" x1="113.8" y1="108.6" x2="114.3" y2="108.3"/>
<line class="st2" x1="114.5" y1="108.2" x2="114.9" y2="108.1"/>
<line class="st2" x1="111.6" y1="108.1" x2="112" y2="108.2"/>
<line class="st2" x1="112.2" y1="108.3" x2="112.7" y2="108.6"/>
<line class="st2" x1="112.9" y1="108.7" x2="113.5" y2="108.9"/>
<line class="st2" x1="113.8" y1="109" x2="114.3" y2="109.3"/>
<line class="st2" x1="114.5" y1="109.5" x2="114.9" y2="109.6"/>
<line class="st2" x1="103.8" y1="68" x2="114.9" y2="68"/>
<polyline class="st2" points="104.3,68.7 103.8,68.5 114.9,68.5 "/>
<line class="st2" x1="104.5" y1="68.8" x2="105" y2="69.1"/>
<line class="st2" x1="105.3" y1="69.2" x2="105.7" y2="69.4"/>
<line class="st2" x1="106.1" y1="69.6" x2="106.6" y2="69.8"/>
<line class="st2" x1="106.8" y1="69.9" x2="107.3" y2="70"/>
<line class="st2" x1="103.8" y1="70" x2="104.3" y2="69.9"/>
<line class="st2" x1="104.5" y1="69.8" x2="105" y2="69.6"/>
<line class="st2" x1="105.3" y1="69.4" x2="105.7" y2="69.2"/>
<line class="st2" x1="106.1" y1="69.1" x2="106.6" y2="68.8"/>
<line class="st2" x1="106.8" y1="68.7" x2="107.3" y2="68.5"/>
<line class="st2" x1="111.6" y1="68.5" x2="112" y2="68.6"/>
<line class="st2" x1="112.2" y1="68.8" x2="112.7" y2="69.1"/>
<line class="st2" x1="112.9" y1="69.2" x2="113.5" y2="69.4"/>
<line class="st2" x1="113.8" y1="69.6" x2="114.3" y2="69.8"/>
<line class="st2" x1="114.5" y1="69.9" x2="114.9" y2="70"/>
<line class="st2" x1="111.6" y1="70" x2="112" y2="69.9"/>
<line class="st2" x1="112.2" y1="69.8" x2="112.7" y2="69.6"/>
<line class="st2" x1="112.9" y1="69.4" x2="113.5" y2="69.2"/>
<line class="st2" x1="113.8" y1="69.1" x2="114.3" y2="68.8"/>
<line class="st2" x1="114.5" y1="68.6" x2="114.9" y2="68.5"/>
<line class="st2" x1="33.7" y1="59.6" x2="33.7" y2="59.6"/>
<line class="st2" x1="33.4" y1="59.6" x2="33.4" y2="59.6"/>
<line class="st2" x1="33.1" y1="59.6" x2="33.1" y2="59.6"/>
<line class="st2" x1="32.9" y1="59.6" x2="32.9" y2="59.6"/>
<line class="st2" x1="32.5" y1="59.6" x2="32.5" y2="59.6"/>
<line class="st2" x1="32.3" y1="59.6" x2="32.3" y2="59.6"/>
<line class="st2" x1="31.9" y1="59.6" x2="31.9" y2="59.6"/>
<line class="st2" x1="31.7" y1="59.6" x2="31.7" y2="59.6"/>
<line class="st2" x1="31.5" y1="59.6" x2="31.5" y2="59.6"/>
<line class="st2" x1="31.1" y1="59.6" x2="31.1" y2="59.6"/>
<line class="st2" x1="30.9" y1="59.6" x2="30.9" y2="59.6"/>
<line class="st2" x1="30.5" y1="59.6" x2="30.5" y2="59.6"/>
<line class="st2" x1="30.3" y1="59.6" x2="30.3" y2="59.6"/>
<line class="st2" x1="30" y1="59.6" x2="30" y2="59.6"/>
<line class="st2" x1="29.7" y1="59.6" x2="29.7" y2="59.6"/>
<line class="st2" x1="29.4" y1="59.6" x2="29.4" y2="59.6"/>
<line class="st2" x1="29.1" y1="59.6" x2="29.1" y2="59.6"/>
<line class="st2" x1="28.8" y1="59.6" x2="28.8" y2="59.6"/>
<line class="st2" x1="28.6" y1="59.6" x2="28.6" y2="59.6"/>
<line class="st2" x1="28.2" y1="59.6" x2="28.2" y2="59.6"/>
<line class="st2" x1="28" y1="59.6" x2="28" y2="59.6"/>
<line class="st2" x1="27.6" y1="59.6" x2="27.6" y2="59.6"/>
<line class="st2" x1="27.4" y1="59.6" x2="27.4" y2="59.6"/>
<line class="st2" x1="27.1" y1="59.6" x2="27.1" y2="59.6"/>
<line class="st2" x1="26.8" y1="59.6" x2="26.8" y2="59.6"/>
<line class="st2" x1="26.5" y1="59.6" x2="26.5" y2="59.6"/>
<line class="st2" x1="26.2" y1="59.6" x2="26.2" y2="59.6"/>
<line class="st2" x1="25.9" y1="59.6" x2="25.9" y2="59.6"/>
<line class="st2" x1="25.6" y1="59.6" x2="25.6" y2="59.6"/>
<line class="st2" x1="25.3" y1="59.6" x2="25.3" y2="59.6"/>
<line class="st2" x1="25.1" y1="59.6" x2="25.1" y2="59.6"/>
<line class="st2" x1="24.7" y1="59.6" x2="24.7" y2="59.6"/>
<line class="st2" x1="24.5" y1="59.6" x2="24.5" y2="59.6"/>
<line class="st2" x1="24.1" y1="59.6" x2="24.1" y2="59.6"/>
<line class="st2" x1="23.9" y1="59.6" x2="23.9" y2="59.6"/>
<line class="st2" x1="23.7" y1="59.6" x2="23.7" y2="59.6"/>
<line class="st2" x1="23.3" y1="59.6" x2="23.3" y2="59.6"/>
<line class="st2" x1="23.1" y1="59.6" x2="23.1" y2="59.6"/>
<line class="st2" x1="22.7" y1="59.6" x2="22.7" y2="59.6"/>
<line class="st2" x1="22.5" y1="59.6" x2="22.5" y2="59.6"/>
<line class="st2" x1="22.2" y1="59.6" x2="22.2" y2="59.6"/>
<line class="st2" x1="21.9" y1="59.6" x2="21.9" y2="59.6"/>
<line class="st2" x1="21.6" y1="59.6" x2="21.6" y2="59.6"/>
<line class="st2" x1="21.3" y1="59.6" x2="21.3" y2="59.6"/>
</svg>
