<svg id="Capa_1" data-name="Capa 1" xmlns="http://www.w3.org/2000/svg" xmlns:xlink="http://www.w3.org/1999/xlink" viewBox="0 0 168.41 120.3"><defs><style>.cls-1,.cls-3,.cls-5,.cls-7,.cls-9{fill:none;}.cls-2{clip-path:url(#clip-path);}.cls-3,.cls-9{stroke:#63666b;}.cls-3,.cls-5,.cls-7,.cls-9{stroke-linecap:round;stroke-miterlimit:10;}.cls-3{stroke-width:0.25px;}.cls-4{fill:#bacdae;}.cls-5{stroke:#bacdae;}.cls-5,.cls-7,.cls-9{stroke-width:0;}.cls-6{fill:#ebebeb;}.cls-7{stroke:#ebebeb;}.cls-8{fill:#63666b;}.cls-10{clip-path:url(#clip-path-3);}</style><clipPath id="clip-path"><rect class="cls-1" x="-71" y="-530.54" width="1190.55" height="841.89"/></clipPath><clipPath id="clip-path-3"><rect class="cls-1" x="-0.01" width="168.43" height="120.3"/></clipPath></defs><title>W007S</title><g class="cls-2"><g class="cls-2"><polyline class="cls-3" points="80.54 16.01 70.99 16.01 70.99 12.95 37.51 12.95 37.51 11.55 32.93 11.55 32.93 12.95 28.98 12.95 28.98 26.45 22.62 26.45 22.62 47.2 23.76 47.2 23.76 49.49 43.24 49.49 43.24 43.89 43.37 43.89 43.37 31.16 80.54 31.16 80.54 16.01"/><polyline class="cls-3" points="43.24 43.89 57.75 43.89 57.75 53.81 59.92 53.81 59.92 63.36 57.75 63.36 57.75 71.13 59.92 71.13 59.92 76.22 57.75 76.22 57.75 84.88 47.69 84.88 47.69 89.58 43.24 89.58 43.24 79.27 25.16 79.27 25.16 52.03 23.76 52.03 23.76 49.49 43.24 49.49 43.24 43.89"/><polyline class="cls-3" points="80.54 112.63 70.99 112.63 70.99 115.81 37.51 115.81 37.51 117.08 32.93 117.08 32.93 115.81 28.98 115.81 28.98 102.19 22.62 102.19 22.62 81.44 23.76 81.44 23.76 79.27 43.24 79.27 43.24 84.88 43.37 84.88 43.37 97.48 80.54 97.48 80.54 112.63"/><polyline class="cls-3" points="88.3 35.61 78.25 35.61 78.25 44.4 67.04 44.4 67.04 35.61 60.42 35.61 60.42 44.4 57.75 44.4"/><line class="cls-3" x1="60.42" y1="43.89" x2="67.04" y2="43.89"/><line class="cls-3" x1="67.04" y1="44.4" x2="60.42" y2="44.4"/><line class="cls-3" x1="78.25" y1="44.4" x2="88.3" y2="44.4"/><line class="cls-3" x1="88.3" y1="43.89" x2="78.25" y2="43.89"/><line class="cls-3" x1="59.92" y1="44.4" x2="59.92" y2="84.24"/><line class="cls-3" x1="60.42" y1="84.24" x2="60.42" y2="44.4"/><polyline class="cls-3" points="88.3 93.02 78.25 93.02 78.25 84.24 67.04 84.24 67.04 93.02 60.42 93.02 60.42 84.24 57.75 84.24"/><line class="cls-3" x1="60.42" y1="84.87" x2="67.04" y2="84.87"/><line class="cls-3" x1="67.04" y1="84.24" x2="60.42" y2="84.24"/><line class="cls-3" x1="78.25" y1="84.24" x2="88.3" y2="84.24"/><line class="cls-3" x1="88.3" y1="84.87" x2="78.25" y2="84.87"/><line class="cls-3" x1="60.42" y1="35.61" x2="60.81" y2="36.12"/><line class="cls-3" x1="61.06" y1="36.38" x2="61.44" y2="36.88"/><line class="cls-3" x1="61.57" y1="37.01" x2="61.95" y2="37.52"/><line class="cls-3" x1="62.08" y1="37.78" x2="62.46" y2="38.28"/><line class="cls-3" x1="62.72" y1="38.41" x2="63.1" y2="38.92"/><line class="cls-3" x1="63.22" y1="39.18" x2="63.61" y2="39.68"/><line class="cls-3" x1="63.86" y1="39.94" x2="64.24" y2="40.32"/><line class="cls-3" x1="64.37" y1="40.58" x2="64.75" y2="41.09"/><line class="cls-3" x1="65.01" y1="41.34" x2="65.26" y2="41.72"/><line class="cls-3" x1="65.52" y1="41.98" x2="65.9" y2="42.49"/><line class="cls-3" x1="66.03" y1="42.74" x2="66.41" y2="43.12"/><line class="cls-3" x1="66.66" y1="43.38" x2="67.04" y2="43.89"/><line class="cls-3" x1="60.42" y1="43.89" x2="60.81" y2="43.38"/><line class="cls-3" x1="61.06" y1="43.12" x2="61.44" y2="42.74"/><line class="cls-3" x1="61.57" y1="42.49" x2="61.95" y2="41.98"/><line class="cls-3" x1="62.08" y1="41.72" x2="62.46" y2="41.34"/><line class="cls-3" x1="62.72" y1="41.09" x2="63.1" y2="40.58"/><line class="cls-3" x1="63.22" y1="40.32" x2="63.61" y2="39.94"/><line class="cls-3" x1="63.86" y1="39.68" x2="64.24" y2="39.18"/><line class="cls-3" x1="64.37" y1="38.92" x2="64.75" y2="38.41"/><line class="cls-3" x1="65.01" y1="38.28" x2="65.26" y2="37.78"/><line class="cls-3" x1="65.52" y1="37.52" x2="65.9" y2="37.01"/><line class="cls-3" x1="66.03" y1="36.88" x2="66.41" y2="36.38"/><line class="cls-3" x1="66.66" y1="36.12" x2="67.04" y2="35.61"/><line class="cls-3" x1="78.25" y1="35.61" x2="78.63" y2="35.99"/><line class="cls-3" x1="78.88" y1="36.12" x2="79.39" y2="36.5"/><line class="cls-3" x1="79.52" y1="36.76" x2="80.03" y2="37.14"/><line class="cls-3" x1="80.28" y1="37.27" x2="80.79" y2="37.65"/><line class="cls-3" x1="80.92" y1="37.9" x2="81.43" y2="38.29"/><line class="cls-3" x1="81.68" y1="38.41" x2="82.19" y2="38.79"/><line class="cls-3" x1="82.32" y1="39.05" x2="82.83" y2="39.43"/><line class="cls-3" x1="83.08" y1="39.56" x2="83.59" y2="39.94"/><line class="cls-3" x1="83.72" y1="40.19" x2="84.23" y2="40.58"/><line class="cls-3" x1="84.48" y1="40.7" x2="84.99" y2="41.09"/><line class="cls-3" x1="85.12" y1="41.34" x2="85.63" y2="41.72"/><line class="cls-3" x1="85.88" y1="41.85" x2="86.26" y2="42.23"/><line class="cls-3" x1="86.52" y1="42.49" x2="87.03" y2="42.87"/><line class="cls-3" x1="87.28" y1="42.99" x2="87.67" y2="43.38"/><line class="cls-3" x1="87.92" y1="43.63" x2="88.3" y2="43.89"/><line class="cls-3" x1="88.3" y1="35.61" x2="87.92" y2="35.99"/><line class="cls-3" x1="87.67" y1="36.12" x2="87.28" y2="36.5"/><line class="cls-3" x1="87.03" y1="36.76" x2="86.52" y2="37.14"/><line class="cls-3" x1="86.27" y1="37.27" x2="85.88" y2="37.65"/><line class="cls-3" x1="85.63" y1="37.9" x2="85.12" y2="38.29"/><line class="cls-3" x1="84.99" y1="38.41" x2="84.48" y2="38.79"/><line class="cls-3" x1="84.23" y1="39.05" x2="83.72" y2="39.43"/><line class="cls-3" x1="83.59" y1="39.56" x2="83.08" y2="39.94"/><line class="cls-3" x1="82.83" y1="40.19" x2="82.32" y2="40.58"/><line class="cls-3" x1="82.19" y1="40.7" x2="81.68" y2="41.09"/><line class="cls-3" x1="81.43" y1="41.34" x2="80.92" y2="41.72"/><line class="cls-3" x1="80.79" y1="41.85" x2="80.28" y2="42.23"/><line class="cls-3" x1="80.03" y1="42.49" x2="79.52" y2="42.87"/><line class="cls-3" x1="79.39" y1="42.99" x2="78.88" y2="43.38"/><line class="cls-3" x1="78.63" y1="43.63" x2="78.25" y2="43.89"/><line class="cls-3" x1="57.75" y1="53.82" x2="59.92" y2="44.4"/><line class="cls-3" x1="57.75" y1="44.4" x2="59.92" y2="53.82"/><line class="cls-3" x1="57.75" y1="63.36" x2="58.01" y2="64.13"/><line class="cls-3" x1="58.13" y1="64.38" x2="58.26" y2="64.89"/><line class="cls-3" x1="58.26" y1="65.27" x2="58.51" y2="65.78"/><line class="cls-3" x1="58.51" y1="66.16" x2="58.64" y2="66.67"/><line class="cls-3" x1="58.77" y1="66.93" x2="58.9" y2="67.56"/><line class="cls-3" x1="59.02" y1="67.82" x2="59.15" y2="68.46"/><line class="cls-3" x1="59.28" y1="68.71" x2="59.4" y2="69.35"/><line class="cls-3" x1="59.53" y1="69.6" x2="59.66" y2="70.24"/><line class="cls-3" x1="59.66" y1="70.49" x2="59.92" y2="71.13"/><line class="cls-3" x1="57.75" y1="71.13" x2="58.01" y2="70.49"/><line class="cls-3" x1="58.13" y1="70.24" x2="58.26" y2="69.6"/><line class="cls-3" x1="58.26" y1="69.35" x2="58.51" y2="68.71"/><line class="cls-3" x1="58.51" y1="68.45" x2="58.64" y2="67.82"/><line class="cls-3" x1="58.77" y1="67.56" x2="58.9" y2="66.93"/><line class="cls-3" x1="59.02" y1="66.67" x2="59.15" y2="66.16"/><line class="cls-3" x1="59.28" y1="65.78" x2="59.4" y2="65.27"/><line class="cls-3" x1="59.53" y1="64.89" x2="59.66" y2="64.38"/><line class="cls-3" x1="59.66" y1="64.13" x2="59.92" y2="63.36"/><line class="cls-3" x1="60.42" y1="93.02" x2="60.81" y2="92.64"/><line class="cls-3" x1="61.06" y1="92.39" x2="61.44" y2="91.88"/><line class="cls-3" x1="61.57" y1="91.62" x2="61.95" y2="91.11"/><line class="cls-3" x1="62.08" y1="90.98" x2="62.46" y2="90.48"/><line class="cls-3" x1="62.72" y1="90.22" x2="63.1" y2="89.71"/><line class="cls-3" x1="63.22" y1="89.59" x2="63.61" y2="89.08"/><line class="cls-3" x1="63.86" y1="88.82" x2="64.24" y2="88.31"/><line class="cls-3" x1="64.37" y1="88.06" x2="64.75" y2="87.68"/><line class="cls-3" x1="65.01" y1="87.42" x2="65.26" y2="86.91"/><line class="cls-3" x1="65.52" y1="86.66" x2="65.9" y2="86.28"/><line class="cls-3" x1="66.03" y1="86.02" x2="66.41" y2="85.51"/><line class="cls-3" x1="66.66" y1="85.26" x2="67.04" y2="84.88"/><line class="cls-3" x1="60.42" y1="84.87" x2="60.81" y2="85.26"/><line class="cls-3" x1="61.06" y1="85.51" x2="61.44" y2="86.02"/><line class="cls-3" x1="61.57" y1="86.28" x2="61.95" y2="86.66"/><line class="cls-3" x1="62.08" y1="86.91" x2="62.46" y2="87.42"/><line class="cls-3" x1="62.72" y1="87.67" x2="63.1" y2="88.06"/><line class="cls-3" x1="63.22" y1="88.31" x2="63.61" y2="88.82"/><line class="cls-3" x1="63.86" y1="89.08" x2="64.24" y2="89.58"/><line class="cls-3" x1="64.37" y1="89.71" x2="64.75" y2="90.22"/><line class="cls-3" x1="65.01" y1="90.48" x2="65.26" y2="90.98"/><line class="cls-3" x1="65.52" y1="91.11" x2="65.9" y2="91.62"/><line class="cls-3" x1="66.03" y1="91.88" x2="66.41" y2="92.38"/><line class="cls-3" x1="66.66" y1="92.64" x2="67.04" y2="93.02"/><line class="cls-3" x1="78.25" y1="93.02" x2="78.63" y2="92.77"/><line class="cls-3" x1="78.88" y1="92.51" x2="79.39" y2="92.13"/><line class="cls-3" x1="79.52" y1="92" x2="80.03" y2="91.62"/><line class="cls-3" x1="80.28" y1="91.37" x2="80.79" y2="90.99"/><line class="cls-3" x1="80.92" y1="90.86" x2="81.43" y2="90.48"/><line class="cls-3" x1="81.68" y1="90.22" x2="82.19" y2="89.84"/><line class="cls-3" x1="82.32" y1="89.71" x2="82.83" y2="89.33"/><line class="cls-3" x1="83.08" y1="89.08" x2="83.59" y2="88.69"/><line class="cls-3" x1="83.72" y1="88.57" x2="84.23" y2="88.19"/><line class="cls-3" x1="84.48" y1="87.93" x2="84.99" y2="87.55"/><line class="cls-3" x1="85.12" y1="87.42" x2="85.63" y2="87.04"/><line class="cls-3" x1="85.88" y1="86.78" x2="86.26" y2="86.4"/><line class="cls-3" x1="86.52" y1="86.28" x2="87.03" y2="85.89"/><line class="cls-3" x1="87.28" y1="85.64" x2="87.67" y2="85.26"/><line class="cls-3" x1="87.92" y1="85.13" x2="88.3" y2="84.87"/><line class="cls-3" x1="78.25" y1="84.87" x2="78.63" y2="85.13"/><line class="cls-3" x1="78.88" y1="85.26" x2="79.39" y2="85.64"/><line class="cls-3" x1="79.52" y1="85.89" x2="80.03" y2="86.28"/><line class="cls-3" x1="80.28" y1="86.4" x2="80.79" y2="86.78"/><line class="cls-3" x1="80.92" y1="87.04" x2="81.43" y2="87.42"/><line class="cls-3" x1="81.68" y1="87.55" x2="82.19" y2="87.93"/><line class="cls-3" x1="82.32" y1="88.18" x2="82.83" y2="88.57"/><line class="cls-3" x1="83.08" y1="88.69" x2="83.59" y2="89.08"/><line class="cls-3" x1="83.72" y1="89.33" x2="84.23" y2="89.71"/><line class="cls-3" x1="84.48" y1="89.84" x2="84.99" y2="90.22"/><line class="cls-3" x1="85.12" y1="90.48" x2="85.63" y2="90.86"/><line class="cls-3" x1="85.88" y1="90.98" x2="86.26" y2="91.37"/><line class="cls-3" x1="86.52" y1="91.62" x2="87.03" y2="92"/><line class="cls-3" x1="87.28" y1="92.13" x2="87.67" y2="92.51"/><line class="cls-3" x1="87.92" y1="92.77" x2="88.3" y2="93.02"/><line class="cls-3" x1="57.75" y1="84.24" x2="57.88" y2="83.86"/><line class="cls-3" x1="58.01" y1="83.6" x2="58.13" y2="82.97"/><line class="cls-3" x1="58.26" y1="82.71" x2="58.39" y2="82.07"/><line class="cls-3" x1="58.39" y1="81.82" x2="58.64" y2="81.31"/><line class="cls-3" x1="58.64" y1="80.93" x2="58.77" y2="80.42"/><line class="cls-3" x1="58.9" y1="80.04" x2="59.02" y2="79.53"/><line class="cls-3" x1="59.15" y1="79.27" x2="59.28" y2="78.64"/><line class="cls-3" x1="59.41" y1="78.38" x2="59.53" y2="77.75"/><line class="cls-3" x1="59.53" y1="77.49" x2="59.66" y2="76.86"/><line class="cls-3" x1="59.79" y1="76.6" x2="59.91" y2="76.22"/><line class="cls-3" x1="57.75" y1="76.22" x2="57.88" y2="76.6"/><line class="cls-3" x1="58.01" y1="76.86" x2="58.13" y2="77.49"/><line class="cls-3" x1="58.26" y1="77.75" x2="58.39" y2="78.38"/><line class="cls-3" x1="58.39" y1="78.64" x2="58.64" y2="79.27"/><line class="cls-3" x1="58.64" y1="79.53" x2="58.77" y2="80.04"/><line class="cls-3" x1="58.9" y1="80.42" x2="59.02" y2="80.93"/><line class="cls-3" x1="59.15" y1="81.31" x2="59.28" y2="81.82"/><line class="cls-3" x1="59.41" y1="82.07" x2="59.53" y2="82.71"/><line class="cls-3" x1="59.53" y1="82.97" x2="59.66" y2="83.6"/><line class="cls-3" x1="59.79" y1="83.86" x2="59.91" y2="84.24"/><polyline class="cls-3" points="25.16 79.27 23.76 79.27 23.76 80.42 13.71 80.42 13.71 49.49 23.76 49.49 23.76 52.03 25.16 52.03 25.16 73.93 25.16 79.27"/><polygon class="cls-4" points="129.54 73.04 129.54 73.55 136.93 73.55 136.04 73.04 129.54 73.04"/><path class="cls-5" d="M129.55,73l7.38.51h-7.38ZM136,73h-6.49l7.38.51Z"/><polygon class="cls-4" points="129.54 73.55 129.54 74.06 137.69 74.06 136.93 73.55 129.54 73.55"/><path class="cls-5" d="M129.55,73.55l8.14.5h-8.14Zm7.38,0h-7.38l8.14.5Z"/><polygon class="cls-4" points="129.54 74.05 129.54 74.82 138.46 74.82 137.69 74.05 129.54 74.05"/><path class="cls-5" d="M129.54,74.05l8.92.77h-8.92Zm8.15,0h-8.15l8.92.77Z"/><polygon class="cls-4" points="129.54 74.82 129.54 75.45 138.84 75.45 138.46 74.82 129.54 74.82"/><path class="cls-5" d="M129.55,74.82l9.29.64h-9.29Zm8.91,0h-8.91l9.29.64Z"/><polygon class="cls-4" points="129.54 75.46 129.54 75.71 138.96 75.71 138.84 75.46 129.54 75.46"/><path class="cls-5" d="M129.54,75.46l9.42.25h-9.42Zm9.3,0h-9.3l9.42.25Z"/><polygon class="cls-4" points="129.54 75.71 129.54 76.6 139.35 76.6 138.96 75.71 129.54 75.71"/><path class="cls-5" d="M129.54,75.71l9.81.89h-9.81Zm9.42,0h-9.42l9.81.89Z"/><polygon class="cls-4" points="129.54 76.6 129.54 77.49 139.6 77.49 139.35 76.6 129.54 76.6"/><path class="cls-5" d="M129.55,76.6l10,.89h-10Zm9.8,0h-9.8l10,.89Z"/><path class="cls-4" d="M129.54,78.51H139.6l-10.06-1Zm0-1,10.06,1v-1Z"/><path class="cls-5" d="M129.55,77.49l10,1h-10Zm10,0h-10l10,1Z"/><path class="cls-4" d="M129.55,78.51l10,17.06h-10Zm10,0h-10l10,17.06Z"/><path class="cls-5" d="M129.55,78.51l10,17.06h-10Zm10,0h-10l10,17.06Z"/><path class="cls-6" d="M115.8,74.18l4.58,1.28H115.8Zm4.58,0H115.8l4.58,1.28Z"/><path class="cls-7" d="M115.8,74.18l4.58,1.28H115.8Zm4.58,0H115.8l4.58,1.28Z"/><path class="cls-6" d="M107.78,73l4.33,2.42h-4.33Zm4.33,0h-4.33l4.33,2.42Z"/><path class="cls-7" d="M107.78,73l4.33,2.42h-4.33Zm4.33,0h-4.33l4.33,2.42Z"/><path class="cls-6" d="M88.3,75.46l41.25,18.2H88.3Zm41.25,0H88.3l41.25,18.2Z"/><path class="cls-7" d="M88.3,75.46l41.25,18.2H88.3Zm41.25,0H88.3l41.25,18.2Z"/><path class="cls-6" d="M111.85,93.66l17.7,1.91h-17.7Zm17.7,0h-17.7l17.7,1.91Z"/><path class="cls-7" d="M111.85,93.66l17.7,1.91h-17.7Zm17.7,0h-17.7l17.7,1.91Z"/><path class="cls-8" d="M48.28,25.17v-3h2.18v.35H48.68v.92h1.66v.36H48.68v1h1.85v.35Z"/><path class="cls-8" d="M52.09,23.69a2.9,2.9,0,0,1,.11-.86,1,1,0,0,1,.33-.5.8.8,0,0,1,.54-.17,1,1,0,0,1,.43.09.89.89,0,0,1,.3.28A1.69,1.69,0,0,1,54,23a3.35,3.35,0,0,1,.06.71,2.5,2.5,0,0,1-.11.85,1.09,1.09,0,0,1-.32.51.85.85,0,0,1-.55.18.81.81,0,0,1-.68-.32A2,2,0,0,1,52.09,23.69Zm.38,0a2,2,0,0,0,.17,1,.51.51,0,0,0,.86,0,1.89,1.89,0,0,0,.17-1,1.89,1.89,0,0,0-.17-1,.52.52,0,0,0-.43-.24.47.47,0,0,0-.41.22A1.86,1.86,0,0,0,52.47,23.69Z"/><path class="cls-8" d="M54.43,23.69a2.6,2.6,0,0,1,.11-.86,1.11,1.11,0,0,1,.32-.5.84.84,0,0,1,.55-.17.93.93,0,0,1,.42.09.89.89,0,0,1,.3.28,1.42,1.42,0,0,1,.19.45,2.73,2.73,0,0,1,.07.71,2.78,2.78,0,0,1-.11.85,1,1,0,0,1-.33.51.8.8,0,0,1-.54.18.81.81,0,0,1-.68-.32A2,2,0,0,1,54.43,23.69Zm.38,0a1.89,1.89,0,0,0,.17,1,.51.51,0,0,0,.86,0,2,2,0,0,0,.17-1,2,2,0,0,0-.17-1,.53.53,0,0,0-.44-.24.45.45,0,0,0-.4.22A1.86,1.86,0,0,0,54.81,23.69Z"/><path class="cls-8" d="M56.77,24.38l.36-.05a.86.86,0,0,0,.22.45.55.55,0,0,0,.37.14.59.59,0,0,0,.44-.18.61.61,0,0,0,.18-.45.57.57,0,0,0-.16-.42.57.57,0,0,0-.43-.16,1,1,0,0,0-.26,0l0-.32h.06a.8.8,0,0,0,.43-.12.43.43,0,0,0,.19-.38.46.46,0,0,0-.14-.34.48.48,0,0,0-.35-.13.48.48,0,0,0-.36.13.69.69,0,0,0-.19.41l-.37-.07a1,1,0,0,1,.31-.57.87.87,0,0,1,.6-.2,1,1,0,0,1,.45.1.82.82,0,0,1,.32.29.77.77,0,0,1,.11.39.63.63,0,0,1-.11.35.73.73,0,0,1-.31.26.69.69,0,0,1,.42.25.77.77,0,0,1,.14.49.87.87,0,0,1-.28.66,1,1,0,0,1-.73.28,1,1,0,0,1-.66-.24A.91.91,0,0,1,56.77,24.38Z"/><path class="cls-8" d="M156,13.21l-1.91-12.1h.39Zm-.25.12.25-.12-1.91-12.1Z"/><path class="cls-9" d="M156,13.21l-1.91-12.1h.39Zm-.25.12.25-.12-1.91-12.1Z"/><line class="cls-3" x1="157.3" y1="24.16" x2="155.9" y2="13.21"/><path class="cls-8" d="M156.79,13.08l-1.28-6.87h.39Zm-.39.13.39-.13-1.28-6.87Z"/><path class="cls-9" d="M156.79,13.08l-1.28-6.87h.39Zm-.39.13.39-.13-1.28-6.87Z"/><path class="cls-8" d="M155.39,13.33l-1.28-6.87.39-.13Zm-.39,0h.39l-1.28-6.87Z"/><path class="cls-9" d="M155.39,13.33l-1.28-6.87.39-.13Zm-.39,0h.39l-1.28-6.87Z"/><line class="cls-3" x1="157.04" y1="24.28" x2="156.79" y2="22.88"/><line class="cls-3" x1="147.62" y1="14.74" x2="145.84" y2="14.99"/><line class="cls-3" x1="166.08" y1="12.32" x2="164.17" y2="12.57"/><line class="cls-3" x1="166.08" y1="11.93" x2="145.71" y2="14.61"/><g class="cls-10"><path class="cls-3" d="M163.34,12.15a7.57,7.57,0,1,0-6.52,8.5,7.57,7.57,0,0,0,6.52-8.5"/><path class="cls-3" d="M162.84,12.22a7.07,7.07,0,1,0-6.08,7.93,7.06,7.06,0,0,0,6.08-7.93"/></g><path class="cls-8" d="M102,46.18v-3h2.17v.36H102.4v.92h1.66v.35H102.4v1h1.84v.36Z"/><path class="cls-8" d="M105.81,44.7a2.81,2.81,0,0,1,.11-.86,1,1,0,0,1,.33-.51.85.85,0,0,1,.54-.17.88.88,0,0,1,.43.1.73.73,0,0,1,.3.28,1.35,1.35,0,0,1,.18.44,2.81,2.81,0,0,1,.07.72,2.54,2.54,0,0,1-.11.85,1.06,1.06,0,0,1-.32.5.85.85,0,0,1-.55.18.83.83,0,0,1-.68-.31A2,2,0,0,1,105.81,44.7Zm.38,0a1.93,1.93,0,0,0,.17,1,.49.49,0,0,0,.86,0,1.93,1.93,0,0,0,.17-1,2,2,0,0,0-.17-1,.53.53,0,0,0-.43-.25.49.49,0,0,0-.41.22A1.88,1.88,0,0,0,106.19,44.7Z"/><path class="cls-8" d="M108.15,44.7a2.53,2.53,0,0,1,.11-.86,1.09,1.09,0,0,1,.32-.51.9.9,0,0,1,.55-.17.82.82,0,0,1,.42.1.73.73,0,0,1,.3.28A1.62,1.62,0,0,1,110,44a3.35,3.35,0,0,1,.07.72,2.83,2.83,0,0,1-.11.85,1,1,0,0,1-.33.5.8.8,0,0,1-.54.18.87.87,0,0,1-.69-.31A2,2,0,0,1,108.15,44.7Zm.38,0a1.82,1.82,0,0,0,.17,1,.52.52,0,0,0,.43.25.5.5,0,0,0,.42-.25,1.8,1.8,0,0,0,.18-1,1.82,1.82,0,0,0-.18-1,.51.51,0,0,0-.43-.25.47.47,0,0,0-.4.22A1.88,1.88,0,0,0,108.53,44.7Z"/><path class="cls-8" d="M111.87,46.18h-.37V43.83a2.29,2.29,0,0,1-.35.25,2.68,2.68,0,0,1-.38.19v-.36a2.18,2.18,0,0,0,.54-.35,1.37,1.37,0,0,0,.32-.4h.24Z"/><path class="cls-8" d="M102.26,85.38l-.8-3h.41l.46,2c0,.2.09.41.13.61.07-.32.12-.51.13-.55l.57-2h.48l.43,1.53a7.92,7.92,0,0,1,.24,1.06c0-.19.09-.41.15-.65l.47-1.94h.4l-.83,3h-.38l-.63-2.29c-.06-.19-.09-.31-.1-.35,0,.14-.06.25-.09.35l-.63,2.29Z"/><path class="cls-8" d="M106.72,83.9a2.57,2.57,0,0,1,.11-.86,1.06,1.06,0,0,1,.32-.5.85.85,0,0,1,.55-.18.93.93,0,0,1,.42.1.89.89,0,0,1,.3.28,1.33,1.33,0,0,1,.19.45,2.68,2.68,0,0,1,.07.71,2.78,2.78,0,0,1-.11.85,1,1,0,0,1-.33.51.85.85,0,0,1-.54.17.84.84,0,0,1-.69-.31A2,2,0,0,1,106.72,83.9Zm.38,0a1.82,1.82,0,0,0,.17,1,.49.49,0,0,0,.86,0,1.93,1.93,0,0,0,.17-1,2,2,0,0,0-.17-1,.53.53,0,0,0-.44-.24.46.46,0,0,0-.4.21A1.93,1.93,0,0,0,107.1,83.9Z"/><path class="cls-8" d="M109.05,83.9a2.85,2.85,0,0,1,.11-.86,1.07,1.07,0,0,1,.33-.5.8.8,0,0,1,.54-.18.94.94,0,0,1,.43.1.89.89,0,0,1,.3.28,1.56,1.56,0,0,1,.19.45,3.28,3.28,0,0,1,.06.71,2.5,2.5,0,0,1-.11.85,1.09,1.09,0,0,1-.32.51.88.88,0,0,1-.55.17.82.82,0,0,1-.68-.31A2,2,0,0,1,109.05,83.9Zm.38,0a1.8,1.8,0,0,0,.18,1,.48.48,0,0,0,.42.25.5.5,0,0,0,.43-.25,1.82,1.82,0,0,0,.17-1,1.87,1.87,0,0,0-.17-1,.51.51,0,0,0-.43-.24.48.48,0,0,0-.41.21A2,2,0,0,0,109.43,83.9Z"/><path class="cls-8" d="M111.41,82.77v-.36h2v.29a4.74,4.74,0,0,0-1,1.86,3.41,3.41,0,0,0-.15.82h-.38a4.1,4.1,0,0,1,.14-.86,4.4,4.4,0,0,1,.39-1,3.5,3.5,0,0,1,.53-.79Z"/><path class="cls-8" d="M36.06,66.16v-3h2.18v.35H36.46v.92h1.66v.35H36.46v1H38.3v.35Z"/><path class="cls-8" d="M39.87,64.68a2.85,2.85,0,0,1,.11-.86,1,1,0,0,1,.33-.5.8.8,0,0,1,.54-.18,1,1,0,0,1,.43.1.89.89,0,0,1,.3.28,1.32,1.32,0,0,1,.18.45,2.68,2.68,0,0,1,.07.71,2.5,2.5,0,0,1-.11.85,1.09,1.09,0,0,1-.32.51.9.9,0,0,1-.55.17.81.81,0,0,1-.68-.31A2,2,0,0,1,39.87,64.68Zm.38,0a1.93,1.93,0,0,0,.17,1,.49.49,0,0,0,.86,0,1.82,1.82,0,0,0,.17-1,1.87,1.87,0,0,0-.17-1,.52.52,0,0,0-.43-.24.48.48,0,0,0-.41.21A1.93,1.93,0,0,0,40.25,64.68Z"/><path class="cls-8" d="M42.21,64.68a2.57,2.57,0,0,1,.11-.86,1.06,1.06,0,0,1,.32-.5.85.85,0,0,1,.55-.18.93.93,0,0,1,.42.1.89.89,0,0,1,.3.28,1.33,1.33,0,0,1,.19.45,2.68,2.68,0,0,1,.07.71,2.78,2.78,0,0,1-.11.85,1,1,0,0,1-.33.51.85.85,0,0,1-.54.17.81.81,0,0,1-.68-.31A2,2,0,0,1,42.21,64.68Zm.38,0a1.82,1.82,0,0,0,.17,1,.49.49,0,0,0,.86,0,1.93,1.93,0,0,0,.17-1,2,2,0,0,0-.17-1,.53.53,0,0,0-.44-.24.46.46,0,0,0-.4.21A1.93,1.93,0,0,0,42.59,64.68Z"/><path class="cls-8" d="M45.73,66.16v-.72H44.42V65.1l1.37-1.94h.31V65.1h.4v.34h-.4v.72Zm0-1.06V63.75l-.94,1.35Z"/><path class="cls-8" d="M48.8,106.39l-.8-3h.41l.45,2c0,.21.1.41.13.62.08-.32.12-.51.14-.56l.57-2h.48l.43,1.52a6.65,6.65,0,0,1,.23,1.07q.06-.28.15-.66l.47-1.93h.4l-.82,3h-.38L50,104.1q-.08-.28-.09-.36,0,.21-.09.36l-.64,2.29Z"/><path class="cls-8" d="M53.25,104.91a2.81,2.81,0,0,1,.11-.86,1.11,1.11,0,0,1,.33-.51,1,1,0,0,1,1-.07.73.73,0,0,1,.3.28,1.62,1.62,0,0,1,.19.44,3.45,3.45,0,0,1,.06.72,2.87,2.87,0,0,1-.1.85,1.15,1.15,0,0,1-.33.5.83.83,0,0,1-.55.18.85.85,0,0,1-.68-.31A2,2,0,0,1,53.25,104.91Zm.38,0a1.8,1.8,0,0,0,.18,1,.5.5,0,0,0,.42.25.52.52,0,0,0,.43-.25,1.82,1.82,0,0,0,.17-1,1.84,1.84,0,0,0-.17-1,.52.52,0,0,0-.43-.25.49.49,0,0,0-.41.22A2,2,0,0,0,53.63,104.91Z"/><path class="cls-8" d="M55.59,104.91a2.81,2.81,0,0,1,.11-.86,1.09,1.09,0,0,1,.32-.51.9.9,0,0,1,.55-.17.82.82,0,0,1,.42.1.7.7,0,0,1,.31.28,1.62,1.62,0,0,1,.18.44,3.51,3.51,0,0,1,0,1.57,1.06,1.06,0,0,1-.32.5.85.85,0,0,1-.55.18.83.83,0,0,1-.68-.31A2,2,0,0,1,55.59,104.91Zm.38,0a1.93,1.93,0,0,0,.17,1,.49.49,0,0,0,.86,0,1.93,1.93,0,0,0,.17-1,2,2,0,0,0-.17-1,.53.53,0,0,0-.43-.25.49.49,0,0,0-.41.22A1.88,1.88,0,0,0,56,104.91Z"/><path class="cls-8" d="M57.93,105.6l.38,0a.69.69,0,0,0,.2.42.54.54,0,0,0,.38.15.57.57,0,0,0,.45-.21.72.72,0,0,0,.19-.53.68.68,0,0,0-.18-.5.63.63,0,0,0-.47-.18.72.72,0,0,0-.32.08.74.74,0,0,0-.22.21L58,105l.29-1.55h1.5v.35h-1.2l-.16.81a1,1,0,0,1,.56-.19.91.91,0,0,1,.67.28.94.94,0,0,1,.27.7,1.06,1.06,0,0,1-.24.7.94.94,0,0,1-.79.37,1,1,0,0,1-.67-.23A.89.89,0,0,1,57.93,105.6Z"/><path class="cls-8" d="M5.05,68.15H2v-.4H4.7V66.27h.35Z"/><path class="cls-8" d="M5.05,66.12,2,65v-.43l3-1.23v.45l-.91.35v1.26l.91.33Zm-1.23-.86v-1L3,64.55a5,5,0,0,1-.62.21,4.11,4.11,0,0,1,.57.17Z"/><path class="cls-8" d="M3.87,61.59H3.52V60.31H4.63a2.23,2.23,0,0,1,.35.61,1.73,1.73,0,0,1,.12.64,1.66,1.66,0,0,1-.19.8,1.27,1.27,0,0,1-.55.55,1.74,1.74,0,0,1-.8.18,1.92,1.92,0,0,1-.82-.18,1.2,1.2,0,0,1-.56-.53A1.69,1.69,0,0,1,2.1,61a1,1,0,0,1,.29-.42,1.3,1.3,0,0,1,.49-.22l.1.36a1.21,1.21,0,0,0-.36.16.7.7,0,0,0-.21.29,1.12,1.12,0,0,0-.08.42,1.16,1.16,0,0,0,.09.47.81.81,0,0,0,.21.32,1.17,1.17,0,0,0,.3.19,1.74,1.74,0,0,0,.61.11,1.36,1.36,0,0,0,.67-.14.86.86,0,0,0,.4-.4,1.21,1.21,0,0,0,.13-.56,1.32,1.32,0,0,0-.1-.51,1.16,1.16,0,0,0-.21-.37H3.87Z"/><path class="cls-8" d="M3.59,59.85a1.66,1.66,0,0,1-1.18-.41,1.35,1.35,0,0,1-.42-1,1.45,1.45,0,0,1,.2-.75,1.23,1.23,0,0,1,.55-.51A1.79,1.79,0,0,1,3.55,57a1.68,1.68,0,0,1,.82.19,1.26,1.26,0,0,1,.55.52,1.56,1.56,0,0,1,0,1.49,1.35,1.35,0,0,1-.56.5A1.66,1.66,0,0,1,3.59,59.85Zm0-.41a1.2,1.2,0,0,0,.86-.3,1,1,0,0,0,0-1.47,1.3,1.3,0,0,0-.9-.29,1.41,1.41,0,0,0-.64.13,1,1,0,0,0-.43.36,1,1,0,0,0-.15.53,1,1,0,0,0,.29.73A1.33,1.33,0,0,0,3.59,59.44Z"/><path class="cls-8" d="M153.6,91.12l-3-1.16v-.43l3-1.23v.46l-.91.35v1.25l.91.33Zm-1.23-.87v-1l-.83.31-.63.22a2.94,2.94,0,0,1,.58.16Z"/><path class="cls-8" d="M153.6,87.43l-2.17.83v-.39l1.3-.47.44-.14-.42-.14-1.32-.48v-.38l2.17.82Z"/><path class="cls-8" d="M153.6,85.83h-.42v-.42h.42Z"/><path class="cls-8" d="M152.75,83.75l-.05-.36a.74.74,0,0,0,.47-.12.41.41,0,0,0,.13-.32.44.44,0,0,0-.07-.26.36.36,0,0,0-.19-.15,1.1,1.1,0,0,0-.37,0H150.6v-.4h2.05a1.5,1.5,0,0,1,.58.09.69.69,0,0,1,.32.29,1,1,0,0,1,.1.47.78.78,0,0,1-.22.6A.92.92,0,0,1,152.75,83.75Z"/><path class="cls-8" d="M152.14,81.57a1.61,1.61,0,0,1-1.17-.4,1.34,1.34,0,0,1-.43-1,1.45,1.45,0,0,1,.2-.75,1.32,1.32,0,0,1,.56-.51,1.71,1.71,0,0,1,.8-.17,1.8,1.8,0,0,1,.82.18,1.26,1.26,0,0,1,.55.52,1.55,1.55,0,0,1,.18.73,1.37,1.37,0,0,1-.2.76,1.31,1.31,0,0,1-.56.51A1.79,1.79,0,0,1,152.14,81.57Zm0-.41a1.22,1.22,0,0,0,.85-.29,1,1,0,0,0,0-1.47,1.25,1.25,0,0,0-.9-.29,1.59,1.59,0,0,0-.64.12.93.93,0,0,0-.42.36,1,1,0,0,0-.15.54,1,1,0,0,0,.29.73A1.29,1.29,0,0,0,152.15,81.16Z"/><path class="cls-8" d="M153.6,78.51l-3-1.15v-.43l3-1.23v.45l-.91.35v1.26l.91.33Zm-1.23-.86v-1l-.83.31a5.72,5.72,0,0,1-.63.21,3.86,3.86,0,0,1,.58.17Z"/><path class="cls-8" d="M153.28,73.1a2.18,2.18,0,0,0,.28-.51l.28.12a2.39,2.39,0,0,1-.37.65,1.49,1.49,0,0,1,.18.73,1.41,1.41,0,0,1-.19.74,1.28,1.28,0,0,1-.56.52,1.71,1.71,0,0,1-.8.18,1.79,1.79,0,0,1-.81-.18,1.41,1.41,0,0,1-.56-.52,1.54,1.54,0,0,1-.19-.74,1.45,1.45,0,0,1,.2-.75,1.23,1.23,0,0,1,.55-.51,1.79,1.79,0,0,1,.81-.18,2,2,0,0,1,.67.11A1.57,1.57,0,0,1,153.28,73.1Zm-.51.88a1.53,1.53,0,0,1,.29-.57,1.24,1.24,0,0,0-1-.35,1.56,1.56,0,0,0-.64.12,1,1,0,0,0-.42.37,1,1,0,0,0,.15,1.27,1.25,1.25,0,0,0,.91.3,1.3,1.3,0,0,0,.9-.29,1,1,0,0,0,.31-.75.92.92,0,0,0-.08-.4,1.55,1.55,0,0,0-.17.4Z"/><path class="cls-8" d="M150.6,70.14v-.4h1.73a1.94,1.94,0,0,1,.72.11.83.83,0,0,1,.44.37,1.32,1.32,0,0,1,.16.7,1.41,1.41,0,0,1-.14.69.82.82,0,0,1-.42.38,2,2,0,0,1-.76.12H150.6v-.4h1.73a1.71,1.71,0,0,0,.58-.07.59.59,0,0,0,.29-.25,1,1,0,0,0,.1-.44.82.82,0,0,0-.2-.62,1.14,1.14,0,0,0-.77-.19Z"/><path class="cls-8" d="M153.6,69h-3v-.39h3Z"/><path class="cls-8" d="M153.6,67.92h-3v-.41L153,65.93H150.6v-.38h3V66l-2.36,1.58h2.36Z"/><path class="cls-8" d="M152.64,63.85l0-.38a.68.68,0,0,0,.37-.12.67.67,0,0,0,.24-.3,1.14,1.14,0,0,0,.09-.46,1,1,0,0,0-.07-.41.49.49,0,0,0-.19-.25.38.38,0,0,0-.25-.09.41.41,0,0,0-.25.08.71.71,0,0,0-.18.27,4.55,4.55,0,0,0-.14.54,3,3,0,0,1-.19.58.89.89,0,0,1-.28.32.7.7,0,0,1-.38.11.8.8,0,0,1-.42-.13.88.88,0,0,1-.3-.38,1.42,1.42,0,0,1-.1-.55,1.52,1.52,0,0,1,.1-.59,1,1,0,0,1,.32-.4.86.86,0,0,1,.47-.14l0,.38a.61.61,0,0,0-.43.21.83.83,0,0,0-.14.52.84.84,0,0,0,.13.53.39.39,0,0,0,.32.16.32.32,0,0,0,.26-.12,1.57,1.57,0,0,0,.22-.6A4.16,4.16,0,0,1,152,62a.83.83,0,0,1,.31-.39.74.74,0,0,1,.42-.12.84.84,0,0,1,.46.13,1,1,0,0,1,.33.4,1.5,1.5,0,0,1,.11.58,1.9,1.9,0,0,1-.11.68.9.9,0,0,1-.36.43A1,1,0,0,1,152.64,63.85Z"/><path class="cls-8" d="M153.6,60.9h-3V58.73H151v1.78h.92V58.84h.36v1.67h1V58.66h.35Z"/><path class="cls-8" d="M152.55,56l.1-.4a1.29,1.29,0,0,1,.75.45,1.24,1.24,0,0,1,.25.79,1.42,1.42,0,0,1-.19.79,1.29,1.29,0,0,1-.58.47,2.15,2.15,0,0,1-.8.16,1.74,1.74,0,0,1-.82-.18,1.24,1.24,0,0,1-.53-.51,1.52,1.52,0,0,1-.18-.73,1.19,1.19,0,0,1,.23-.76,1.13,1.13,0,0,1,.64-.43l.09.39a.91.91,0,0,0-.47.3.83.83,0,0,0-.15.51.94.94,0,0,0,.16.57.84.84,0,0,0,.45.33,1.85,1.85,0,0,0,.57.1,1.71,1.71,0,0,0,.67-.12.79.79,0,0,0,.43-.34.94.94,0,0,0,.14-.51.84.84,0,0,0-.19-.57A1,1,0,0,0,152.55,56Z"/><path class="cls-8" d="M152.14,55.2a1.61,1.61,0,0,1-1.17-.4,1.36,1.36,0,0,1-.43-1,1.45,1.45,0,0,1,.2-.75,1.32,1.32,0,0,1,.56-.51,1.71,1.71,0,0,1,.8-.18,1.8,1.8,0,0,1,.82.19,1.26,1.26,0,0,1,.55.52,1.55,1.55,0,0,1,.18.73,1.39,1.39,0,0,1-.2.76,1.38,1.38,0,0,1-.56.51A1.79,1.79,0,0,1,152.14,55.2Zm0-.41a1.22,1.22,0,0,0,.85-.29A1,1,0,0,0,153,53a1.3,1.3,0,0,0-.9-.29,1.59,1.59,0,0,0-.64.13.93.93,0,0,0-.42.36,1,1,0,0,0-.15.54,1,1,0,0,0,.29.72A1.25,1.25,0,0,0,152.15,54.79Z"/><path class="cls-8" d="M153.6,50.58h-3v-.4h3Z"/><path class="cls-8" d="M153.6,49.49h-3V49.1h2.65V47.62h.35Z"/><path class="cls-8" d="M153.6,47.16h-3v-.4h2.65V45.28h.35Z"/><path class="cls-8" d="M153.6,45.14l-3-1.16v-.43l3-1.23v.46l-.91.35v1.25l.91.33Zm-1.23-.87v-1l-.83.31-.63.22a2.94,2.94,0,0,1,.58.16Z"/><polyline class="cls-3" points="111.85 33.19 129.55 33.19 129.55 12.95 120.38 12.95 120.38 11.55 115.8 11.55 115.8 12.95 88.81 12.95 88.81 16.01 80.54 16.01 80.54 31.16 111.85 31.16 111.85 33.19"/><polyline class="cls-3" points="111.85 95.57 129.55 95.57 129.55 115.81 120.38 115.81 120.38 117.08 115.8 117.08 115.8 115.81 88.81 115.81 88.81 112.63 80.54 112.63 80.54 97.48 111.85 97.48 111.85 95.57"/><path class="cls-8" d="M102.45,22.68v-.21h.77v.67a1.53,1.53,0,0,1-.37.21,1,1,0,0,1-.38.07,1.06,1.06,0,0,1-.48-.11.75.75,0,0,1-.33-.33,1,1,0,0,1-.11-.48,1,1,0,0,1,.11-.49.69.69,0,0,1,.31-.34,1.08,1.08,0,0,1,.83-.05.52.52,0,0,1,.25.18.71.71,0,0,1,.14.29l-.22.06a.64.64,0,0,0-.1-.22.37.37,0,0,0-.17-.12.66.66,0,0,0-.25,0,.78.78,0,0,0-.28,0,.53.53,0,0,0-.19.13.94.94,0,0,0-.12.18,1,1,0,0,0-.07.36.86.86,0,0,0,.09.41.51.51,0,0,0,.24.24.77.77,0,0,0,.34.08.8.8,0,0,0,.3-.06A.64.64,0,0,0,103,23v-.34Z"/><path class="cls-8" d="M103.37,23.39l.69-1.8h.26l.74,1.8h-.27l-.21-.54h-.76l-.2.54Zm.52-.74h.61l-.19-.5c0-.15-.1-.28-.12-.37,0,.11-.06.23-.1.34Z"/><path class="cls-8" d="M105.25,23.39v-1.8h.8a.91.91,0,0,1,.37.05.41.41,0,0,1,.2.17.5.5,0,0,1,.08.27.44.44,0,0,1-.13.32.59.59,0,0,1-.38.17.56.56,0,0,1,.14.09,1,1,0,0,1,.2.24l.31.49h-.3L106.3,23a2.59,2.59,0,0,0-.17-.25.34.34,0,0,0-.12-.12.27.27,0,0,0-.11,0h-.41v.8Zm.24-1H106a.88.88,0,0,0,.26,0,.26.26,0,0,0,.14-.11.3.3,0,0,0,0-.16.26.26,0,0,0-.09-.21.43.43,0,0,0-.3-.08h-.57Z"/><path class="cls-8" d="M106.87,23.39l.69-1.8h.26l.74,1.8h-.27l-.21-.54h-.76l-.2.54Zm.52-.74H108l-.19-.5c0-.15-.1-.28-.12-.37,0,.11-.06.23-.1.34Z"/><path class="cls-8" d="M108.63,22.88l.21,0a.44.44,0,0,0,.08.28.26.26,0,0,0,.19.08.29.29,0,0,0,.16,0,.31.31,0,0,0,.09-.11,1.21,1.21,0,0,0,0-.23V21.59h.24v1.23a.85.85,0,0,1-.06.35.39.39,0,0,1-.17.19.61.61,0,0,1-.28.06.45.45,0,0,1-.36-.13A.53.53,0,0,1,108.63,22.88Z"/><path class="cls-8" d="M110,23.39v-1.8h1.31v.21h-1.07v.55h1v.21h-1v.62h1.11v.21Z"/><path class="cls-8" d="M102.45,105.93v-.21h.77v.67a1.53,1.53,0,0,1-.37.21,1,1,0,0,1-.38.07,1.06,1.06,0,0,1-.48-.11.75.75,0,0,1-.33-.33,1,1,0,0,1-.11-.48,1.08,1.08,0,0,1,.11-.5.71.71,0,0,1,.31-.33,1,1,0,0,1,.83,0,.58.58,0,0,1,.25.17.83.83,0,0,1,.14.3l-.22.06a.64.64,0,0,0-.1-.22.37.37,0,0,0-.17-.12.66.66,0,0,0-.25,0,.78.78,0,0,0-.28,0,.53.53,0,0,0-.19.13.57.57,0,0,0-.12.18,1,1,0,0,0-.07.36.79.79,0,0,0,.09.4.53.53,0,0,0,.24.25.77.77,0,0,0,.34.07.79.79,0,0,0,.3,0,.85.85,0,0,0,.22-.13v-.34Z"/><path class="cls-8" d="M103.37,106.64l.69-1.8h.26l.74,1.8h-.27l-.21-.55h-.76l-.2.55Zm.52-.74h.61l-.19-.5c0-.15-.1-.28-.12-.37,0,.11-.06.23-.1.34Z"/><path class="cls-8" d="M105.25,106.64v-1.8h.8a1.18,1.18,0,0,1,.37,0,.43.43,0,0,1,.2.18.5.5,0,0,1,.08.27.46.46,0,0,1-.13.32.64.64,0,0,1-.38.17.56.56,0,0,1,.14.09,1,1,0,0,1,.2.24l.31.49h-.3l-.24-.38a2.25,2.25,0,0,0-.17-.24.34.34,0,0,0-.12-.12.27.27,0,0,0-.11-.05h-.41v.8Zm.24-1H106a.88.88,0,0,0,.26,0,.26.26,0,0,0,.14-.11.3.3,0,0,0,0-.16.26.26,0,0,0-.09-.21.43.43,0,0,0-.3-.09h-.57Z"/><path class="cls-8" d="M106.87,106.64l.69-1.8h.26l.74,1.8h-.27l-.21-.55h-.76l-.2.55Zm.52-.74H108l-.19-.5c0-.15-.1-.28-.12-.37,0,.11-.06.23-.1.34Z"/><path class="cls-8" d="M108.63,106.13l.21,0a.44.44,0,0,0,.08.28.26.26,0,0,0,.19.08.42.42,0,0,0,.16,0,.27.27,0,0,0,.09-.12,1,1,0,0,0,0-.22v-1.24h.24v1.23a.85.85,0,0,1-.06.35.39.39,0,0,1-.17.19.61.61,0,0,1-.28.06.46.46,0,0,1-.36-.14A.5.5,0,0,1,108.63,106.13Z"/><path class="cls-8" d="M110,106.64v-1.8h1.31v.21h-1.07v.55h1v.21h-1v.62h1.11v.21Z"/><line class="cls-3" x1="107.78" y1="117.97" x2="108.41" y2="117.97"/><line class="cls-3" x1="108.8" y1="117.97" x2="109.3" y2="117.97"/><line class="cls-3" x1="109.69" y1="117.97" x2="110.2" y2="117.97"/><line class="cls-3" x1="110.58" y1="117.97" x2="111.09" y2="117.97"/><line class="cls-3" x1="111.47" y1="117.97" x2="111.98" y2="117.97"/><line class="cls-3" x1="112.36" y1="117.97" x2="113" y2="117.97"/><line class="cls-3" x1="113.25" y1="117.97" x2="113.89" y2="117.97"/><line class="cls-3" x1="114.14" y1="117.97" x2="114.78" y2="117.97"/><line class="cls-3" x1="115.03" y1="117.97" x2="115.67" y2="117.97"/><line class="cls-3" x1="115.92" y1="117.97" x2="116.56" y2="117.97"/><line class="cls-3" x1="116.82" y1="117.97" x2="117.45" y2="117.97"/><line class="cls-3" x1="117.71" y1="117.97" x2="118.34" y2="117.97"/><line class="cls-3" x1="118.6" y1="117.97" x2="119.23" y2="117.97"/><line class="cls-3" x1="119.62" y1="117.97" x2="120.12" y2="117.97"/><line class="cls-3" x1="120.51" y1="117.97" x2="121.02" y2="117.97"/><line class="cls-3" x1="121.4" y1="117.97" x2="121.91" y2="117.97"/><line class="cls-3" x1="122.29" y1="117.97" x2="122.93" y2="117.97"/><line class="cls-3" x1="123.18" y1="117.97" x2="123.82" y2="117.97"/><line class="cls-3" x1="112.11" y1="117.46" x2="112.36" y2="117.46"/><line class="cls-3" x1="112.74" y1="117.46" x2="113.38" y2="117.46"/><line class="cls-3" x1="113.63" y1="117.46" x2="114.27" y2="117.46"/><line class="cls-3" x1="114.52" y1="117.46" x2="115.16" y2="117.46"/><line class="cls-3" x1="115.42" y1="117.46" x2="116.05" y2="117.46"/><line class="cls-3" x1="116.31" y1="117.46" x2="116.94" y2="117.46"/><line class="cls-3" x1="117.2" y1="117.46" x2="117.83" y2="117.46"/><line class="cls-3" x1="118.09" y1="117.46" x2="118.72" y2="117.46"/><line class="cls-3" x1="118.98" y1="117.46" x2="119.62" y2="117.46"/><line class="cls-3" x1="119.87" y1="117.46" x2="120.51" y2="117.46"/><line class="cls-3" x1="120.89" y1="117.46" x2="121.4" y2="117.46"/><line class="cls-3" x1="121.78" y1="117.46" x2="122.29" y2="117.46"/><line class="cls-3" x1="122.67" y1="117.46" x2="123.18" y2="117.46"/><line class="cls-3" x1="123.56" y1="117.46" x2="123.82" y2="117.46"/><line class="cls-3" x1="112.11" y1="117.46" x2="112.61" y2="117.21"/><line class="cls-3" x1="112.87" y1="117.08" x2="113.38" y2="116.83"/><line class="cls-3" x1="113.63" y1="116.7" x2="114.14" y2="116.44"/><line class="cls-3" x1="114.52" y1="116.32" x2="115.03" y2="116.06"/><line class="cls-3" x1="115.29" y1="115.94" x2="115.8" y2="115.81"/><line class="cls-3" x1="112.11" y1="115.81" x2="112.61" y2="115.93"/><line class="cls-3" x1="112.87" y1="116.06" x2="113.38" y2="116.32"/><line class="cls-3" x1="113.63" y1="116.44" x2="114.14" y2="116.7"/><line class="cls-3" x1="114.52" y1="116.83" x2="115.03" y2="117.08"/><line class="cls-3" x1="115.29" y1="117.21" x2="115.8" y2="117.46"/><line class="cls-3" x1="120.38" y1="117.46" x2="120.76" y2="117.21"/><line class="cls-3" x1="121.02" y1="117.08" x2="121.53" y2="116.83"/><line class="cls-3" x1="121.78" y1="116.7" x2="122.42" y2="116.44"/><line class="cls-3" x1="122.67" y1="116.32" x2="123.18" y2="116.06"/><line class="cls-3" x1="123.44" y1="115.94" x2="123.82" y2="115.81"/><line class="cls-3" x1="120.38" y1="115.81" x2="120.76" y2="115.93"/><line class="cls-3" x1="121.02" y1="116.06" x2="121.53" y2="116.32"/><line class="cls-3" x1="121.78" y1="116.44" x2="122.42" y2="116.7"/><line class="cls-3" x1="122.67" y1="116.83" x2="123.18" y2="117.08"/><line class="cls-3" x1="123.44" y1="117.21" x2="123.82" y2="117.46"/><line class="cls-3" x1="123.82" y1="117.97" x2="124.33" y2="117.97"/><line class="cls-3" x1="124.58" y1="117.97" x2="125.22" y2="117.97"/><line class="cls-3" x1="125.47" y1="117.97" x2="126.11" y2="117.97"/><line class="cls-3" x1="126.36" y1="117.97" x2="127" y2="117.97"/><line class="cls-3" x1="127.25" y1="117.97" x2="127.89" y2="117.97"/><line class="cls-3" x1="128.15" y1="117.97" x2="128.78" y2="117.97"/><polyline class="cls-3" points="129.16 117.97 129.54 117.97 129.54 117.46"/><line class="cls-3" x1="129.55" y1="117.21" x2="129.55" y2="116.57"/><line class="cls-3" x1="129.55" y1="116.32" x2="129.55" y2="115.81"/><line class="cls-3" x1="123.82" y1="117.46" x2="123.82" y2="116.7"/><line class="cls-3" x1="123.82" y1="116.44" x2="123.82" y2="115.81"/><line class="cls-3" x1="107.78" y1="115.81" x2="107.78" y2="116.32"/><line class="cls-3" x1="107.78" y1="116.57" x2="107.78" y2="117.21"/><line class="cls-3" x1="107.78" y1="117.46" x2="107.78" y2="117.97"/><line class="cls-3" x1="112.11" y1="117.46" x2="112.11" y2="116.7"/><line class="cls-3" x1="112.11" y1="116.44" x2="112.11" y2="115.81"/><line class="cls-3" x1="112.11" y1="73.67" x2="112.36" y2="73.67"/><line class="cls-3" x1="112.74" y1="73.67" x2="113.38" y2="73.67"/><line class="cls-3" x1="113.63" y1="73.67" x2="114.27" y2="73.67"/><line class="cls-3" x1="114.52" y1="73.67" x2="115.16" y2="73.67"/><line class="cls-3" x1="115.42" y1="73.67" x2="116.05" y2="73.67"/><line class="cls-3" x1="116.31" y1="73.67" x2="116.94" y2="73.67"/><line class="cls-3" x1="117.2" y1="73.67" x2="117.83" y2="73.67"/><line class="cls-3" x1="118.09" y1="73.67" x2="118.72" y2="73.67"/><line class="cls-3" x1="118.98" y1="73.67" x2="119.62" y2="73.67"/><line class="cls-3" x1="119.87" y1="73.67" x2="120.51" y2="73.67"/><line class="cls-3" x1="120.89" y1="73.67" x2="121.4" y2="73.67"/><line class="cls-3" x1="121.78" y1="73.67" x2="122.29" y2="73.67"/><line class="cls-3" x1="122.67" y1="73.67" x2="123.18" y2="73.67"/><line class="cls-3" x1="123.56" y1="73.67" x2="123.82" y2="73.67"/><line class="cls-3" x1="112.11" y1="73.67" x2="112.61" y2="73.93"/><line class="cls-3" x1="112.87" y1="74.05" x2="113.38" y2="74.31"/><line class="cls-3" x1="113.63" y1="74.44" x2="114.14" y2="74.69"/><line class="cls-3" x1="114.52" y1="74.82" x2="115.03" y2="75.07"/><line class="cls-3" x1="115.29" y1="75.2" x2="115.8" y2="75.33"/><line class="cls-3" x1="112.11" y1="75.33" x2="112.61" y2="75.2"/><line class="cls-3" x1="112.87" y1="75.07" x2="113.38" y2="74.82"/><line class="cls-3" x1="113.63" y1="74.69" x2="114.14" y2="74.44"/><line class="cls-3" x1="114.52" y1="74.31" x2="115.03" y2="74.05"/><line class="cls-3" x1="115.29" y1="73.93" x2="115.8" y2="73.67"/><line class="cls-3" x1="120.38" y1="73.67" x2="120.76" y2="73.8"/><line class="cls-3" x1="121.02" y1="73.93" x2="121.53" y2="74.18"/><line class="cls-3" x1="121.78" y1="74.31" x2="122.42" y2="74.69"/><line class="cls-3" x1="122.67" y1="74.82" x2="123.18" y2="75.07"/><line class="cls-3" x1="123.44" y1="75.2" x2="123.82" y2="75.33"/><line class="cls-3" x1="120.38" y1="75.33" x2="120.76" y2="75.2"/><line class="cls-3" x1="121.02" y1="75.07" x2="121.53" y2="74.82"/><line class="cls-3" x1="121.78" y1="74.69" x2="122.42" y2="74.31"/><line class="cls-3" x1="122.67" y1="74.18" x2="123.18" y2="73.93"/><line class="cls-3" x1="123.44" y1="73.8" x2="123.82" y2="73.67"/><line class="cls-3" x1="123.82" y1="73.04" x2="124.33" y2="73.04"/><line class="cls-3" x1="124.58" y1="73.04" x2="125.22" y2="73.04"/><line class="cls-3" x1="125.47" y1="73.04" x2="126.11" y2="73.04"/><line class="cls-3" x1="126.36" y1="73.04" x2="127" y2="73.04"/><line class="cls-3" x1="127.25" y1="73.04" x2="127.89" y2="73.04"/><line class="cls-3" x1="128.15" y1="73.04" x2="128.78" y2="73.04"/><polyline class="cls-3" points="129.16 73.04 129.54 73.04 129.54 73.67"/><line class="cls-3" x1="129.55" y1="73.93" x2="129.55" y2="74.57"/><line class="cls-3" x1="129.55" y1="74.82" x2="129.55" y2="75.33"/><line class="cls-3" x1="123.82" y1="73.67" x2="123.82" y2="74.31"/><line class="cls-3" x1="123.82" y1="74.69" x2="123.82" y2="75.33"/><line class="cls-3" x1="107.78" y1="10.66" x2="108.41" y2="10.66"/><line class="cls-3" x1="108.8" y1="10.66" x2="109.3" y2="10.66"/><line class="cls-3" x1="109.69" y1="10.66" x2="110.2" y2="10.66"/><line class="cls-3" x1="110.58" y1="10.66" x2="111.09" y2="10.66"/><line class="cls-3" x1="111.47" y1="10.66" x2="111.98" y2="10.66"/><line class="cls-3" x1="112.36" y1="10.66" x2="113" y2="10.66"/><line class="cls-3" x1="113.25" y1="10.66" x2="113.89" y2="10.66"/><line class="cls-3" x1="114.14" y1="10.66" x2="114.78" y2="10.66"/><line class="cls-3" x1="115.03" y1="10.66" x2="115.67" y2="10.66"/><line class="cls-3" x1="115.92" y1="10.66" x2="116.56" y2="10.66"/><line class="cls-3" x1="116.82" y1="10.66" x2="117.45" y2="10.66"/><line class="cls-3" x1="117.71" y1="10.66" x2="118.34" y2="10.66"/><line class="cls-3" x1="118.6" y1="10.66" x2="119.23" y2="10.66"/><line class="cls-3" x1="119.62" y1="10.66" x2="120.12" y2="10.66"/><line class="cls-3" x1="120.51" y1="10.66" x2="121.02" y2="10.66"/><line class="cls-3" x1="121.4" y1="10.66" x2="121.91" y2="10.66"/><line class="cls-3" x1="122.29" y1="10.66" x2="122.93" y2="10.66"/><line class="cls-3" x1="123.18" y1="10.66" x2="123.82" y2="10.66"/><line class="cls-3" x1="112.11" y1="11.3" x2="112.36" y2="11.3"/><line class="cls-3" x1="112.74" y1="11.3" x2="113.38" y2="11.3"/><line class="cls-3" x1="113.63" y1="11.3" x2="114.27" y2="11.3"/><line class="cls-3" x1="114.52" y1="11.3" x2="115.16" y2="11.3"/><line class="cls-3" x1="115.42" y1="11.3" x2="116.05" y2="11.3"/><line class="cls-3" x1="116.31" y1="11.3" x2="116.94" y2="11.3"/><line class="cls-3" x1="117.2" y1="11.3" x2="117.83" y2="11.3"/><line class="cls-3" x1="118.09" y1="11.3" x2="118.72" y2="11.3"/><line class="cls-3" x1="118.98" y1="11.3" x2="119.62" y2="11.3"/><line class="cls-3" x1="119.87" y1="11.3" x2="120.51" y2="11.3"/><line class="cls-3" x1="120.89" y1="11.3" x2="121.4" y2="11.3"/><line class="cls-3" x1="121.78" y1="11.3" x2="122.29" y2="11.3"/><line class="cls-3" x1="122.67" y1="11.3" x2="123.18" y2="11.3"/><line class="cls-3" x1="123.56" y1="11.3" x2="123.82" y2="11.3"/><line class="cls-3" x1="112.11" y1="11.3" x2="112.61" y2="11.43"/><line class="cls-3" x1="112.87" y1="11.55" x2="113.38" y2="11.81"/><line class="cls-3" x1="113.63" y1="11.93" x2="114.14" y2="12.19"/><line class="cls-3" x1="114.52" y1="12.32" x2="115.03" y2="12.57"/><line class="cls-3" x1="115.29" y1="12.7" x2="115.8" y2="12.95"/><line class="cls-3" x1="112.11" y1="12.95" x2="112.61" y2="12.7"/><line class="cls-3" x1="112.87" y1="12.57" x2="113.38" y2="12.32"/><line class="cls-3" x1="113.63" y1="12.19" x2="114.14" y2="11.93"/><line class="cls-3" x1="114.52" y1="11.81" x2="115.03" y2="11.55"/><line class="cls-3" x1="115.29" y1="11.43" x2="115.8" y2="11.3"/><line class="cls-3" x1="120.38" y1="11.3" x2="120.76" y2="11.43"/><line class="cls-3" x1="121.02" y1="11.55" x2="121.53" y2="11.81"/><line class="cls-3" x1="121.78" y1="11.93" x2="122.42" y2="12.19"/><line class="cls-3" x1="122.67" y1="12.32" x2="123.18" y2="12.57"/><line class="cls-3" x1="123.44" y1="12.7" x2="123.82" y2="12.95"/><line class="cls-3" x1="120.38" y1="12.95" x2="120.76" y2="12.7"/><line class="cls-3" x1="121.02" y1="12.57" x2="121.53" y2="12.32"/><line class="cls-3" x1="121.78" y1="12.19" x2="122.42" y2="11.93"/><line class="cls-3" x1="122.67" y1="11.81" x2="123.18" y2="11.55"/><line class="cls-3" x1="123.44" y1="11.43" x2="123.82" y2="11.3"/><line class="cls-3" x1="123.82" y1="10.66" x2="124.33" y2="10.66"/><line class="cls-3" x1="124.58" y1="10.66" x2="125.22" y2="10.66"/><line class="cls-3" x1="125.47" y1="10.66" x2="126.11" y2="10.66"/><line class="cls-3" x1="126.36" y1="10.66" x2="127" y2="10.66"/><line class="cls-3" x1="127.25" y1="10.66" x2="127.89" y2="10.66"/><line class="cls-3" x1="128.15" y1="10.66" x2="128.78" y2="10.66"/><polyline class="cls-3" points="129.16 10.66 129.54 10.66 129.54 11.17"/><line class="cls-3" x1="129.55" y1="11.55" x2="129.55" y2="12.06"/><line class="cls-3" x1="129.55" y1="12.44" x2="129.55" y2="12.95"/><line class="cls-3" x1="123.82" y1="11.3" x2="123.82" y2="11.94"/><line class="cls-3" x1="123.82" y1="12.19" x2="123.82" y2="12.95"/><line class="cls-3" x1="107.78" y1="12.95" x2="107.78" y2="12.44"/><line class="cls-3" x1="107.78" y1="12.06" x2="107.78" y2="11.55"/><line class="cls-3" x1="107.78" y1="11.17" x2="107.78" y2="10.66"/><line class="cls-3" x1="112.11" y1="11.3" x2="112.11" y2="11.94"/><line class="cls-3" x1="112.11" y1="12.19" x2="112.11" y2="12.95"/><line class="cls-3" x1="112.11" y1="55.09" x2="112.36" y2="55.09"/><line class="cls-3" x1="112.74" y1="55.09" x2="113.38" y2="55.09"/><line class="cls-3" x1="113.63" y1="55.09" x2="114.27" y2="55.09"/><line class="cls-3" x1="114.52" y1="55.09" x2="115.16" y2="55.09"/><line class="cls-3" x1="115.42" y1="55.09" x2="116.05" y2="55.09"/><line class="cls-3" x1="116.31" y1="55.09" x2="116.94" y2="55.09"/><line class="cls-3" x1="117.2" y1="55.09" x2="117.83" y2="55.09"/><line class="cls-3" x1="118.09" y1="55.09" x2="118.72" y2="55.09"/><line class="cls-3" x1="118.98" y1="55.09" x2="119.62" y2="55.09"/><line class="cls-3" x1="119.87" y1="55.09" x2="120.51" y2="55.09"/><line class="cls-3" x1="120.89" y1="55.09" x2="121.4" y2="55.09"/><line class="cls-3" x1="121.78" y1="55.09" x2="122.29" y2="55.09"/><line class="cls-3" x1="122.67" y1="55.09" x2="123.18" y2="55.09"/><line class="cls-3" x1="123.56" y1="55.09" x2="123.82" y2="55.09"/><line class="cls-3" x1="112.11" y1="55.09" x2="112.61" y2="54.83"/><line class="cls-3" x1="112.87" y1="54.71" x2="113.38" y2="54.45"/><line class="cls-3" x1="113.63" y1="54.32" x2="114.14" y2="54.07"/><line class="cls-3" x1="114.52" y1="53.94" x2="115.03" y2="53.69"/><line class="cls-3" x1="115.29" y1="53.56" x2="115.8" y2="53.31"/><line class="cls-3" x1="112.11" y1="53.31" x2="112.61" y2="53.56"/><line class="cls-3" x1="112.87" y1="53.69" x2="113.38" y2="53.94"/><line class="cls-3" x1="113.63" y1="54.07" x2="114.14" y2="54.32"/><line class="cls-3" x1="114.52" y1="54.45" x2="115.03" y2="54.71"/><line class="cls-3" x1="115.29" y1="54.83" x2="115.8" y2="55.09"/><line class="cls-3" x1="120.38" y1="55.09" x2="120.76" y2="54.83"/><line class="cls-3" x1="121.02" y1="54.71" x2="121.53" y2="54.45"/><line class="cls-3" x1="121.78" y1="54.32" x2="122.42" y2="54.07"/><line class="cls-3" x1="122.67" y1="53.94" x2="123.18" y2="53.69"/><line class="cls-3" x1="123.44" y1="53.56" x2="123.82" y2="53.31"/><line class="cls-3" x1="120.38" y1="53.31" x2="120.76" y2="53.56"/><line class="cls-3" x1="121.02" y1="53.69" x2="121.53" y2="53.94"/><line class="cls-3" x1="121.78" y1="54.07" x2="122.42" y2="54.32"/><line class="cls-3" x1="122.67" y1="54.45" x2="123.18" y2="54.71"/><line class="cls-3" x1="123.44" y1="54.83" x2="123.82" y2="55.09"/><line class="cls-3" x1="123.82" y1="55.6" x2="124.33" y2="55.6"/><line class="cls-3" x1="124.58" y1="55.6" x2="125.22" y2="55.6"/><line class="cls-3" x1="125.47" y1="55.6" x2="126.11" y2="55.6"/><line class="cls-3" x1="126.36" y1="55.6" x2="127" y2="55.6"/><line class="cls-3" x1="127.25" y1="55.6" x2="127.89" y2="55.6"/><line class="cls-3" x1="128.15" y1="55.6" x2="128.78" y2="55.6"/><polyline class="cls-3" points="129.16 55.6 129.54 55.6 129.54 55.09"/><line class="cls-3" x1="129.55" y1="54.83" x2="129.55" y2="54.2"/><line class="cls-3" x1="129.55" y1="53.82" x2="129.55" y2="53.31"/><line class="cls-3" x1="123.82" y1="55.09" x2="123.82" y2="54.32"/><line class="cls-3" x1="123.82" y1="54.07" x2="123.82" y2="53.31"/><line class="cls-3" x1="112.11" y1="55.09" x2="112.11" y2="54.32"/><line class="cls-3" x1="112.11" y1="54.07" x2="112.11" y2="53.31"/><line class="cls-3" x1="112.11" y1="73.04" x2="112.61" y2="73.04"/><line class="cls-3" x1="112.87" y1="73.04" x2="113.51" y2="73.04"/><line class="cls-3" x1="113.76" y1="73.04" x2="114.4" y2="73.04"/><line class="cls-3" x1="114.65" y1="73.04" x2="115.29" y2="73.04"/><line class="cls-3" x1="115.54" y1="73.04" x2="116.18" y2="73.04"/><line class="cls-3" x1="116.43" y1="73.04" x2="117.07" y2="73.04"/><line class="cls-3" x1="117.33" y1="73.04" x2="117.96" y2="73.04"/><line class="cls-3" x1="118.22" y1="73.04" x2="118.85" y2="73.04"/><line class="cls-3" x1="119.23" y1="73.04" x2="119.74" y2="73.04"/><line class="cls-3" x1="120.13" y1="73.04" x2="120.63" y2="73.04"/><line class="cls-3" x1="121.02" y1="73.04" x2="121.53" y2="73.04"/><line class="cls-3" x1="121.91" y1="73.04" x2="122.55" y2="73.04"/><line class="cls-3" x1="122.8" y1="73.04" x2="123.44" y2="73.04"/><line class="cls-3" x1="123.69" y1="73.04" x2="124.33" y2="73.04"/><line class="cls-3" x1="124.58" y1="73.04" x2="125.22" y2="73.04"/><line class="cls-3" x1="125.47" y1="73.04" x2="126.11" y2="73.04"/><line class="cls-3" x1="126.36" y1="73.04" x2="127" y2="73.04"/><line class="cls-3" x1="127.25" y1="73.04" x2="127.89" y2="73.04"/><line class="cls-3" x1="128.15" y1="73.04" x2="128.78" y2="73.04"/><polyline class="cls-3" points="129.04 73.04 129.54 73.04 129.54 73.67"/><line class="cls-3" x1="129.55" y1="73.93" x2="129.55" y2="74.57"/><line class="cls-3" x1="129.55" y1="74.82" x2="129.55" y2="75.33"/><line class="cls-3" x1="112.11" y1="55.6" x2="112.36" y2="55.6"/><line class="cls-3" x1="112.74" y1="55.6" x2="113.38" y2="55.6"/><line class="cls-3" x1="113.63" y1="55.6" x2="114.27" y2="55.6"/><line class="cls-3" x1="114.52" y1="55.6" x2="115.16" y2="55.6"/><line class="cls-3" x1="115.42" y1="55.6" x2="116.05" y2="55.6"/><line class="cls-3" x1="116.31" y1="55.6" x2="116.94" y2="55.6"/><line class="cls-3" x1="117.2" y1="55.6" x2="117.83" y2="55.6"/><line class="cls-3" x1="118.09" y1="55.6" x2="118.72" y2="55.6"/><line class="cls-3" x1="118.98" y1="55.6" x2="119.62" y2="55.6"/><line class="cls-3" x1="119.87" y1="55.6" x2="120.51" y2="55.6"/><line class="cls-3" x1="120.89" y1="55.6" x2="121.4" y2="55.6"/><line class="cls-3" x1="121.78" y1="55.6" x2="122.29" y2="55.6"/><line class="cls-3" x1="122.67" y1="55.6" x2="123.18" y2="55.6"/><line class="cls-3" x1="123.56" y1="55.6" x2="123.82" y2="55.6"/><polyline class="cls-3" points="88.3 53.18 107.78 53.18 107.78 55.6 112.11 55.6 112.11 53.18 115.8 53.18 115.8 54.58 120.38 54.58 120.38 53.18 129.55 53.18 129.55 33.19 111.85 33.19 111.85 35.1 88.3 35.1 88.3 53.18"/><polyline class="cls-3" points="88.3 75.45 107.78 75.45 107.78 73.04 112.11 73.04 112.11 75.45 115.8 75.45 115.8 74.18 120.38 74.18 120.38 75.45 129.55 75.45 129.55 95.57 111.85 95.57 111.85 93.66 88.3 93.66 88.3 75.45"/><line class="cls-3" x1="139.6" y1="33.19" x2="139.6" y2="50.12"/><g class="cls-10"><path class="cls-3" d="M136.06,55.48a5.54,5.54,0,0,0,3.54-5.43"/></g><polyline class="cls-3" points="136.04 55.6 129.55 55.6 129.55 53.18 129.55 33.19 139.6 33.19"/><line class="cls-3" x1="139.6" y1="95.57" x2="139.6" y2="78.51"/><g class="cls-10"><path class="cls-3" d="M139.6,78.46A5.54,5.54,0,0,0,136.06,73"/></g><polyline class="cls-3" points="136.04 73.04 129.55 73.04 129.55 75.45 129.55 95.57 139.6 95.57"/><polyline class="cls-3" points="20.58 13.84 20.45 14.61 19.82 18.94 18.67 23.14 17.02 27.08"/><g class="cls-10"><path class="cls-3" d="M16.93,27a29.61,29.61,0,0,0-2.53,6.23"/><path class="cls-3" d="M14.42,33.35a24.69,24.69,0,0,0-.83,5.6"/></g><polyline class="cls-3" points="13.71 38.92 13.71 49.49 23.76 49.49 23.76 47.2 22.62 47.2 22.62 26.45 28.98 26.45 28.98 12.95 22.11 12.95"/><g class="cls-10"><path class="cls-3" d="M21.91,13a1.2,1.2,0,0,0-1.4.81"/></g><line class="cls-3" x1="20.58" y1="115.17" x2="20.45" y2="114.41"/><g class="cls-10"><path class="cls-3" d="M20.31,114.36a38.36,38.36,0,0,0-3.4-12.82"/><path class="cls-3" d="M14.4,95.28a29.29,29.29,0,0,0,2.53,6.23"/><path class="cls-3" d="M13.59,89.68a24.69,24.69,0,0,0,.83,5.6"/></g><polyline class="cls-3" points="13.71 89.71 13.71 80.42 23.76 80.42 23.76 81.44 22.62 81.44 22.62 102.19 28.98 102.19 28.98 115.81 21.47 115.81"/><g class="cls-10"><path class="cls-3" d="M20.49,115.1a.84.84,0,0,0,1,.56"/></g></g></g></svg>