<svg id="Capa_1" data-name="Capa 1" xmlns="http://www.w3.org/2000/svg" xmlns:xlink="http://www.w3.org/1999/xlink" viewBox="0 0 159.28 120.3"><defs><style>.cls-1,.cls-4,.cls-6,.cls-7,.cls-9{fill:none;}.cls-2{clip-path:url(#clip-path);}.cls-3{fill:#bacdae;}.cls-4{stroke:#bacdae;}.cls-4,.cls-6,.cls-7,.cls-9{stroke-miterlimit:10;}.cls-4,.cls-6,.cls-9{stroke-width:0;}.cls-5{fill:#ebebeb;}.cls-6{stroke:#ebebeb;}.cls-7,.cls-9{stroke:#63666b;stroke-linecap:round;}.cls-7{stroke-width:0.24px;}.cls-8{fill:#63666b;}.cls-10{clip-path:url(#clip-path-3);}</style><clipPath id="clip-path"><rect class="cls-1" x="-70.91" y="-530.54" width="1190.55" height="841.89"/></clipPath><clipPath id="clip-path-3"><rect class="cls-1" x="-0.04" width="159.32" height="120.3"/></clipPath></defs><title>W005S</title><g class="cls-2"><g class="cls-2"><path class="cls-3" d="M12.81,82.45l9.64,1.09H12.81Zm9.64,0H12.81l9.64,1.09Z"/><path class="cls-4" d="M12.81,82.45l9.64,1.09H12.81Zm9.64,0H12.81l9.64,1.09Z"/><path class="cls-3" d="M12.81,83.54l8.43,7.83H12.81Zm8.43,0H12.81l8.43,7.83Z"/><path class="cls-4" d="M12.81,83.54l8.43,7.83H12.81Zm8.43,0H12.81l8.43,7.83Z"/><path class="cls-3" d="M12.81,91.36,21.24,94H13.05Zm8.43,0H12.81L21.24,94Z"/><path class="cls-4" d="M12.81,91.36,21.24,94H13.05Zm8.43,0H12.81L21.24,94Z"/><path class="cls-3" d="M13.05,94l8.19,2.65H13.66Zm8.19,0H13.05l8.19,2.65Z"/><path class="cls-4" d="M13.05,94l8.19,2.65H13.66Zm8.19,0H13.05l8.19,2.65Z"/><path class="cls-3" d="M13.66,96.66l7.58,3H14.62Zm7.58,0H13.66l7.58,3Z"/><path class="cls-4" d="M13.66,96.66l7.58,3H14.62Zm7.58,0H13.66l7.58,3Z"/><path class="cls-3" d="M14.62,99.67l6.62,2.89h-5.3Zm6.62,0H14.62l6.62,2.89Z"/><path class="cls-4" d="M14.62,99.67l6.62,2.89h-5.3Zm6.62,0H14.62l6.62,2.89Z"/><polygon class="cls-3" points="15.94 102.56 16.31 103.17 21.24 103.17 21.24 102.56 15.94 102.56"/><path class="cls-4" d="M15.94,102.56l5.3.61H16.31Zm5.3,0h-5.3l5.3.61Z"/><path class="cls-3" d="M16.31,103.17l11.07,2.28H17.15Zm11.07,0H16.31l11.07,2.28Z"/><path class="cls-4" d="M16.31,103.17l11.07,2.28H17.15Zm11.07,0H16.31l11.07,2.28Z"/><path class="cls-3" d="M17.15,105.45l10.23,3H18.11Zm10.23,0H17.15l10.23,3Z"/><path class="cls-4" d="M17.15,105.45l10.23,3H18.11Zm10.23,0H17.15l10.23,3Z"/><path class="cls-3" d="M18.11,108.46l9.27,3H18.83Zm9.27,0H18.11l9.27,3Z"/><path class="cls-4" d="M18.11,108.46l9.27,3H18.83Zm9.27,0H18.11l9.27,3Z"/><path class="cls-3" d="M18.83,111.47l8.55,3.14H19.2Zm8.55,0H18.83l8.55,3.14Z"/><path class="cls-4" d="M18.83,111.47l8.55,3.14H19.2Zm8.55,0H18.83l8.55,3.14Z"/><polygon class="cls-3" points="19.2 114.61 19.32 115.45 27.38 115.45 27.38 114.61 19.2 114.61"/><path class="cls-4" d="M19.2,114.61l8.18.84H19.32Zm8.18,0H19.2l8.18.84Z"/><polygon class="cls-3" points="19.32 115.45 19.44 115.57 27.38 115.57 27.38 115.45 19.32 115.45"/><path class="cls-4" d="M19.32,115.45l8.06.12H19.44Zm8.06,0H19.32l8.06.12Z"/><rect class="cls-3" x="19.44" y="115.57" width="7.95" height="0.12"/><path class="cls-4" d="M19.44,115.57l7.94.12H19.44Zm7.94,0H19.44l7.94.12Z"/><polygon class="cls-3" points="19.43 115.69 19.56 115.81 27.38 115.81 27.38 115.69 19.43 115.69"/><path class="cls-4" d="M27.38,115.81h0Zm-7.94-.12,7.94.12H19.56Zm7.94,0H19.44l7.94.12Z"/><polygon class="cls-3" points="19.68 115.81 19.8 115.93 27.38 115.93 27.38 115.81 19.68 115.81"/><path class="cls-4" d="M27.38,115.93h0Zm-7.7-.12,7.7.12H19.8Zm7.7,0h-7.7l7.7.12Z"/><path class="cls-5" d="M22.45,81.37l18.3,2.17H22.45Zm18.3,0H22.45l18.3,2.17Z"/><path class="cls-6" d="M22.45,81.37l18.3,2.17H22.45Zm18.3,0H22.45l18.3,2.17Z"/><path class="cls-5" d="M21.24,83.54l19.51,3.13H21.24Zm19.51,0H21.24l19.51,3.13Z"/><path class="cls-6" d="M21.24,83.54l19.51,3.13H21.24Zm19.51,0H21.24l19.51,3.13Z"/><path class="cls-5" d="M21.24,86.67l19.63,12H21.24Zm19.63,0H21.24l19.63,12Z"/><path class="cls-6" d="M21.24,86.67l19.63,12H21.24Zm19.63,0H21.24l19.63,12Z"/><path class="cls-5" d="M21.24,98.71,76,103.17H21.24Zm54.79,0H21.24L76,103.17Z"/><path class="cls-6" d="M21.24,98.71,76,103.17H21.24Zm54.79,0H21.24L76,103.17Z"/><path class="cls-5" d="M27.38,103.17,76,113H27.38Zm48.65,0H27.38L76,113Z"/><path class="cls-6" d="M27.38,103.17,76,113H27.38Zm48.65,0H27.38L76,113Z"/><path class="cls-5" d="M27.38,113l39.74,2.89H27.38Zm39.74,0H27.38l39.74,2.89Z"/><path class="cls-6" d="M27.38,113l39.74,2.89H27.38Zm39.74,0H27.38l39.74,2.89Z"/><path class="cls-5" d="M31.12,115.93l4.33,1.2H31.12Zm4.33,0H31.12l4.33,1.2Z"/><path class="cls-6" d="M31.12,115.93l4.33,1.2H31.12Zm4.33,0H31.12l4.33,1.2Z"/><polyline class="cls-7" points="76.03 21.52 67.12 21.52 67.12 18.64 35.45 18.64 35.45 17.43 31.12 17.43 31.12 18.64 27.38 18.64 27.38 31.4 21.24 31.4 21.24 51.03 22.45 51.03 22.45 53.19 40.75 53.19 40.75 47.9 40.87 47.9 40.87 35.98 76.03 35.98 76.03 21.52"/><polyline class="cls-7" points="40.75 47.9 54.6 47.9 54.6 57.29 56.52 57.29 56.52 66.32 54.6 66.32 54.6 73.78 56.52 73.78 56.52 78.48 54.6 78.48 54.6 86.67 44.96 86.67 44.96 91.13 40.75 91.13 40.75 81.37 23.77 81.37 23.77 55.72 22.45 55.72 22.45 53.19 40.75 53.19 40.75 47.9"/><polyline class="cls-7" points="76.03 113.04 67.12 113.04 67.12 115.93 35.45 115.93 35.45 117.13 31.12 117.13 31.12 115.93 27.38 115.93 27.38 103.17 21.24 103.17 21.24 83.54 22.45 83.54 22.45 81.37 40.75 81.37 40.75 86.67 40.87 86.67 40.87 98.71 76.03 98.71 76.03 113.04"/><polyline class="cls-7" points="83.5 40.19 73.98 40.19 73.98 48.5 63.27 48.5 63.27 40.19 57.13 40.19 57.13 48.5 54.6 48.5"/><line class="cls-7" x1="57.13" y1="47.9" x2="63.27" y2="47.9"/><line class="cls-7" x1="63.27" y1="48.5" x2="57.13" y2="48.5"/><line class="cls-7" x1="73.98" y1="48.5" x2="83.5" y2="48.5"/><line class="cls-7" x1="83.5" y1="47.9" x2="73.98" y2="47.9"/><line class="cls-7" x1="56.52" y1="48.5" x2="56.52" y2="86.19"/><line class="cls-7" x1="57.13" y1="86.19" x2="57.13" y2="48.5"/><polyline class="cls-7" points="83.5 94.5 73.98 94.5 73.98 86.19 63.27 86.19 63.27 94.5 57.13 94.5 57.13 86.19 54.6 86.19"/><line class="cls-7" x1="57.13" y1="86.67" x2="63.27" y2="86.67"/><line class="cls-7" x1="63.27" y1="86.19" x2="57.13" y2="86.19"/><line class="cls-7" x1="73.98" y1="86.19" x2="83.5" y2="86.19"/><line class="cls-7" x1="83.5" y1="86.67" x2="73.98" y2="86.67"/><line class="cls-7" x1="57.13" y1="40.19" x2="57.49" y2="40.55"/><line class="cls-7" x1="57.61" y1="40.79" x2="57.97" y2="41.27"/><line class="cls-7" x1="58.21" y1="41.51" x2="58.57" y2="41.87"/><line class="cls-7" x1="58.69" y1="42.12" x2="59.05" y2="42.6"/><line class="cls-7" x1="59.17" y1="42.84" x2="59.53" y2="43.2"/><line class="cls-7" x1="59.77" y1="43.44" x2="60.14" y2="43.92"/><line class="cls-7" x1="60.26" y1="44.16" x2="60.62" y2="44.64"/><line class="cls-7" x1="60.86" y1="44.76" x2="61.22" y2="45.25"/><line class="cls-7" x1="61.34" y1="45.49" x2="61.7" y2="45.97"/><line class="cls-7" x1="61.94" y1="46.09" x2="62.3" y2="46.57"/><line class="cls-7" x1="62.42" y1="46.81" x2="62.78" y2="47.29"/><line class="cls-7" x1="62.91" y1="47.53" x2="63.27" y2="47.9"/><line class="cls-7" x1="57.13" y1="47.9" x2="57.49" y2="47.53"/><line class="cls-7" x1="57.61" y1="47.29" x2="57.97" y2="46.81"/><line class="cls-7" x1="58.21" y1="46.57" x2="58.57" y2="46.09"/><line class="cls-7" x1="58.69" y1="45.97" x2="59.05" y2="45.49"/><line class="cls-7" x1="59.17" y1="45.25" x2="59.53" y2="44.76"/><line class="cls-7" x1="59.77" y1="44.64" x2="60.14" y2="44.16"/><line class="cls-7" x1="60.26" y1="43.92" x2="60.62" y2="43.44"/><line class="cls-7" x1="60.86" y1="43.2" x2="61.22" y2="42.84"/><line class="cls-7" x1="61.34" y1="42.6" x2="61.7" y2="42.12"/><line class="cls-7" x1="61.94" y1="41.87" x2="62.3" y2="41.51"/><line class="cls-7" x1="62.42" y1="41.27" x2="62.78" y2="40.79"/><line class="cls-7" x1="62.91" y1="40.55" x2="63.27" y2="40.19"/><line class="cls-7" x1="73.98" y1="40.19" x2="74.34" y2="40.43"/><line class="cls-7" x1="74.59" y1="40.55" x2="74.95" y2="40.91"/><line class="cls-7" x1="75.19" y1="41.15" x2="75.67" y2="41.51"/><line class="cls-7" x1="75.91" y1="41.63" x2="76.27" y2="41.99"/><line class="cls-7" x1="76.51" y1="42.24" x2="76.99" y2="42.6"/><line class="cls-7" x1="77.24" y1="42.72" x2="77.6" y2="43.08"/><line class="cls-7" x1="77.84" y1="43.32" x2="78.32" y2="43.68"/><line class="cls-7" x1="78.56" y1="43.8" x2="78.92" y2="44.16"/><line class="cls-7" x1="79.16" y1="44.4" x2="79.64" y2="44.76"/><line class="cls-7" x1="79.76" y1="44.88" x2="80.25" y2="45.25"/><line class="cls-7" x1="80.49" y1="45.49" x2="80.97" y2="45.85"/><line class="cls-7" x1="81.09" y1="45.97" x2="81.57" y2="46.33"/><line class="cls-7" x1="81.81" y1="46.57" x2="82.29" y2="46.93"/><line class="cls-7" x1="82.41" y1="47.05" x2="82.89" y2="47.41"/><line class="cls-7" x1="83.14" y1="47.65" x2="83.5" y2="47.9"/><line class="cls-7" x1="83.5" y1="40.19" x2="83.14" y2="40.43"/><line class="cls-7" x1="82.89" y1="40.55" x2="82.41" y2="40.91"/><line class="cls-7" x1="82.29" y1="41.15" x2="81.81" y2="41.51"/><line class="cls-7" x1="81.57" y1="41.63" x2="81.09" y2="41.99"/><line class="cls-7" x1="80.97" y1="42.24" x2="80.49" y2="42.6"/><line class="cls-7" x1="80.25" y1="42.72" x2="79.76" y2="43.08"/><line class="cls-7" x1="79.64" y1="43.32" x2="79.16" y2="43.68"/><line class="cls-7" x1="78.92" y1="43.8" x2="78.56" y2="44.16"/><line class="cls-7" x1="78.32" y1="44.4" x2="77.84" y2="44.76"/><line class="cls-7" x1="77.6" y1="44.88" x2="77.24" y2="45.25"/><line class="cls-7" x1="76.99" y1="45.49" x2="76.51" y2="45.85"/><line class="cls-7" x1="76.27" y1="45.97" x2="75.91" y2="46.33"/><line class="cls-7" x1="75.67" y1="46.57" x2="75.19" y2="46.93"/><line class="cls-7" x1="74.95" y1="47.05" x2="74.59" y2="47.41"/><line class="cls-7" x1="74.35" y1="47.65" x2="73.98" y2="47.9"/><line class="cls-7" x1="54.6" y1="57.29" x2="56.52" y2="48.5"/><line class="cls-7" x1="54.6" y1="48.5" x2="56.52" y2="57.29"/><line class="cls-7" x1="54.6" y1="66.32" x2="54.84" y2="67.04"/><line class="cls-7" x1="54.84" y1="67.28" x2="54.96" y2="67.88"/><line class="cls-7" x1="55.08" y1="68.12" x2="55.2" y2="68.73"/><line class="cls-7" x1="55.32" y1="68.97" x2="55.44" y2="69.57"/><line class="cls-7" x1="55.56" y1="69.81" x2="55.68" y2="70.29"/><line class="cls-7" x1="55.8" y1="70.65" x2="55.92" y2="71.13"/><line class="cls-7" x1="55.92" y1="71.38" x2="56.16" y2="71.98"/><line class="cls-7" x1="56.16" y1="72.22" x2="56.28" y2="72.82"/><line class="cls-7" x1="56.4" y1="73.06" x2="56.52" y2="73.78"/><line class="cls-7" x1="54.6" y1="73.78" x2="54.84" y2="73.06"/><line class="cls-7" x1="54.84" y1="72.82" x2="54.96" y2="72.22"/><line class="cls-7" x1="55.08" y1="71.98" x2="55.2" y2="71.38"/><line class="cls-7" x1="55.32" y1="71.14" x2="55.44" y2="70.65"/><line class="cls-7" x1="55.56" y1="70.29" x2="55.68" y2="69.81"/><line class="cls-7" x1="55.8" y1="69.57" x2="55.92" y2="68.97"/><line class="cls-7" x1="55.92" y1="68.73" x2="56.16" y2="68.12"/><line class="cls-7" x1="56.16" y1="67.88" x2="56.28" y2="67.28"/><line class="cls-7" x1="56.4" y1="67.04" x2="56.52" y2="66.32"/><line class="cls-7" x1="57.13" y1="94.5" x2="57.49" y2="94.01"/><line class="cls-7" x1="57.61" y1="93.77" x2="57.97" y2="93.29"/><line class="cls-7" x1="58.21" y1="93.05" x2="58.57" y2="92.69"/><line class="cls-7" x1="58.69" y1="92.45" x2="59.05" y2="91.97"/><line class="cls-7" x1="59.17" y1="91.73" x2="59.53" y2="91.37"/><line class="cls-7" x1="59.77" y1="91.12" x2="60.14" y2="90.64"/><line class="cls-7" x1="60.26" y1="90.4" x2="60.62" y2="90.04"/><line class="cls-7" x1="60.86" y1="89.8" x2="61.22" y2="89.32"/><line class="cls-7" x1="61.34" y1="89.08" x2="61.7" y2="88.72"/><line class="cls-7" x1="61.94" y1="88.48" x2="62.3" y2="87.99"/><line class="cls-7" x1="62.42" y1="87.75" x2="62.78" y2="87.27"/><line class="cls-7" x1="62.91" y1="87.15" x2="63.27" y2="86.67"/><line class="cls-7" x1="57.13" y1="86.67" x2="57.49" y2="87.15"/><line class="cls-7" x1="57.61" y1="87.27" x2="57.97" y2="87.75"/><line class="cls-7" x1="58.21" y1="87.99" x2="58.57" y2="88.47"/><line class="cls-7" x1="58.69" y1="88.72" x2="59.05" y2="89.08"/><line class="cls-7" x1="59.17" y1="89.32" x2="59.53" y2="89.8"/><line class="cls-7" x1="59.77" y1="90.04" x2="60.14" y2="90.4"/><line class="cls-7" x1="60.26" y1="90.64" x2="60.62" y2="91.12"/><line class="cls-7" x1="60.86" y1="91.36" x2="61.22" y2="91.73"/><line class="cls-7" x1="61.34" y1="91.97" x2="61.7" y2="92.45"/><line class="cls-7" x1="61.94" y1="92.69" x2="62.3" y2="93.05"/><line class="cls-7" x1="62.42" y1="93.29" x2="62.78" y2="93.77"/><line class="cls-7" x1="62.91" y1="94.01" x2="63.27" y2="94.5"/><line class="cls-7" x1="73.98" y1="94.5" x2="74.34" y2="94.14"/><line class="cls-7" x1="74.59" y1="94.01" x2="74.95" y2="93.65"/><line class="cls-7" x1="75.19" y1="93.41" x2="75.67" y2="93.05"/><line class="cls-7" x1="75.91" y1="92.93" x2="76.27" y2="92.57"/><line class="cls-7" x1="76.51" y1="92.33" x2="76.99" y2="91.97"/><line class="cls-7" x1="77.24" y1="91.85" x2="77.6" y2="91.49"/><line class="cls-7" x1="77.84" y1="91.24" x2="78.32" y2="90.88"/><line class="cls-7" x1="78.56" y1="90.76" x2="78.92" y2="90.4"/><line class="cls-7" x1="79.16" y1="90.16" x2="79.64" y2="89.8"/><line class="cls-7" x1="79.76" y1="89.68" x2="80.25" y2="89.32"/><line class="cls-7" x1="80.49" y1="89.08" x2="80.97" y2="88.72"/><line class="cls-7" x1="81.09" y1="88.6" x2="81.57" y2="88.23"/><line class="cls-7" x1="81.81" y1="87.99" x2="82.29" y2="87.63"/><line class="cls-7" x1="82.41" y1="87.51" x2="82.89" y2="87.15"/><line class="cls-7" x1="83.14" y1="86.91" x2="83.5" y2="86.67"/><line class="cls-7" x1="73.98" y1="86.67" x2="74.34" y2="86.91"/><line class="cls-7" x1="74.59" y1="87.15" x2="74.95" y2="87.51"/><line class="cls-7" x1="75.19" y1="87.63" x2="75.67" y2="87.99"/><line class="cls-7" x1="75.91" y1="88.23" x2="76.27" y2="88.6"/><line class="cls-7" x1="76.51" y1="88.72" x2="76.99" y2="89.08"/><line class="cls-7" x1="77.24" y1="89.32" x2="77.6" y2="89.68"/><line class="cls-7" x1="77.84" y1="89.8" x2="78.32" y2="90.16"/><line class="cls-7" x1="78.56" y1="90.4" x2="78.92" y2="90.76"/><line class="cls-7" x1="79.16" y1="90.88" x2="79.64" y2="91.24"/><line class="cls-7" x1="79.76" y1="91.49" x2="80.25" y2="91.85"/><line class="cls-7" x1="80.49" y1="91.97" x2="80.97" y2="92.33"/><line class="cls-7" x1="81.09" y1="92.57" x2="81.57" y2="92.93"/><line class="cls-7" x1="81.81" y1="93.05" x2="82.29" y2="93.41"/><line class="cls-7" x1="82.41" y1="93.65" x2="82.89" y2="94.01"/><line class="cls-7" x1="83.14" y1="94.14" x2="83.5" y2="94.5"/><line class="cls-7" x1="54.6" y1="86.19" x2="54.72" y2="85.71"/><line class="cls-7" x1="54.72" y1="85.46" x2="54.96" y2="84.98"/><line class="cls-7" x1="54.96" y1="84.62" x2="55.08" y2="84.14"/><line class="cls-7" x1="55.2" y1="83.78" x2="55.32" y2="83.3"/><line class="cls-7" x1="55.44" y1="83.06" x2="55.56" y2="82.45"/><line class="cls-7" x1="55.68" y1="82.21" x2="55.8" y2="81.61"/><line class="cls-7" x1="55.8" y1="81.37" x2="56.04" y2="80.77"/><line class="cls-7" x1="56.04" y1="80.53" x2="56.16" y2="79.93"/><line class="cls-7" x1="56.28" y1="79.69" x2="56.4" y2="79.2"/><line class="cls-7" x1="56.52" y1="78.84" x2="56.52" y2="78.48"/><line class="cls-7" x1="54.6" y1="78.48" x2="54.72" y2="78.84"/><line class="cls-7" x1="54.72" y1="79.2" x2="54.96" y2="79.68"/><line class="cls-7" x1="54.96" y1="79.93" x2="55.08" y2="80.53"/><line class="cls-7" x1="55.2" y1="80.77" x2="55.32" y2="81.37"/><line class="cls-7" x1="55.44" y1="81.61" x2="55.56" y2="82.21"/><line class="cls-7" x1="55.68" y1="82.45" x2="55.8" y2="83.06"/><line class="cls-7" x1="55.8" y1="83.3" x2="56.04" y2="83.78"/><line class="cls-7" x1="56.04" y1="84.14" x2="56.16" y2="84.62"/><line class="cls-7" x1="56.28" y1="84.98" x2="56.4" y2="85.46"/><line class="cls-7" x1="56.52" y1="85.71" x2="56.52" y2="86.19"/><polyline class="cls-7" points="23.77 81.37 22.45 81.37 22.45 82.45 12.81 82.45 12.81 53.19 22.45 53.19 22.45 55.72 23.77 55.72 23.77 76.31 23.77 81.37"/><path class="cls-8" d="M46.62,30.32V27.47h2.06v.34H47v.87h1.57V29H47v1h1.74v.34Z"/><path class="cls-8" d="M50.23,28.91a2.63,2.63,0,0,1,.1-.81,1,1,0,0,1,.31-.47.8.8,0,0,1,.51-.17.88.88,0,0,1,.41.09.72.72,0,0,1,.28.27,1.61,1.61,0,0,1,.18.42,3,3,0,0,1,.06.67,2.54,2.54,0,0,1-.1.81,1,1,0,0,1-.31.48.81.81,0,0,1-.52.17.76.76,0,0,1-.64-.3A1.87,1.87,0,0,1,50.23,28.91Zm.35,0a1.8,1.8,0,0,0,.17.94.49.49,0,0,0,.4.23.5.5,0,0,0,.41-.23,1.83,1.83,0,0,0,.16-.94,1.81,1.81,0,0,0-.16-.93.5.5,0,0,0-.41-.23.44.44,0,0,0-.38.2A1.82,1.82,0,0,0,50.58,28.91Z"/><path class="cls-8" d="M52.44,28.91a2.63,2.63,0,0,1,.1-.81,1,1,0,0,1,.31-.47.78.78,0,0,1,.51-.17.88.88,0,0,1,.41.09.72.72,0,0,1,.28.27,1.61,1.61,0,0,1,.18.42,3,3,0,0,1,.06.67,2.54,2.54,0,0,1-.1.81,1,1,0,0,1-.31.48.81.81,0,0,1-.52.17.76.76,0,0,1-.64-.3A1.87,1.87,0,0,1,52.44,28.91Zm.35,0a1.8,1.8,0,0,0,.17.94.49.49,0,0,0,.4.23.5.5,0,0,0,.41-.23,1.83,1.83,0,0,0,.16-.94,1.81,1.81,0,0,0-.16-.93.5.5,0,0,0-.41-.23A.44.44,0,0,0,53,28,1.82,1.82,0,0,0,52.79,28.91Z"/><path class="cls-8" d="M54.65,29.57l.35-.05a.82.82,0,0,0,.2.43.56.56,0,0,0,.35.13.57.57,0,0,0,.42-.17.61.61,0,0,0,.17-.43.5.5,0,0,0-.16-.39.52.52,0,0,0-.4-.16.85.85,0,0,0-.24,0l0-.31h0a.7.7,0,0,0,.4-.12.4.4,0,0,0,.18-.36.44.44,0,0,0-.13-.32.46.46,0,0,0-.33-.12.45.45,0,0,0-.34.13.65.65,0,0,0-.18.38l-.35-.06a.94.94,0,0,1,.29-.55,1,1,0,0,1,1-.09.79.79,0,0,1,.3.27.71.71,0,0,1,.1.37.59.59,0,0,1-.1.34.64.64,0,0,1-.29.24.65.65,0,0,1,.39.24.74.74,0,0,1,.14.46.83.83,0,0,1-.27.63,1,1,0,0,1-.69.26.9.9,0,0,1-.62-.23A.84.84,0,0,1,54.65,29.57Z"/><path class="cls-8" d="M147.56,12.61,145.75,1.17l.24-.12Zm-.24,0h.24L145.75,1.17Z"/><path class="cls-9" d="M147.56,12.61,145.75,1.17l.24-.12Zm-.24,0h.24L145.75,1.17Z"/><line class="cls-7" x1="148.76" y1="22.97" x2="147.44" y2="12.61"/><path class="cls-8" d="M148.16,12.49,147.08,6l.24-.12Zm-.24,0h.24L147.08,6Z"/><path class="cls-9" d="M148.16,12.49,147.08,6l.24-.12Zm-.24,0h.24L147.08,6Z"/><path class="cls-8" d="M146.83,12.61l-1.08-6.5H146Zm-.24.12.24-.12-1.08-6.5Z"/><path class="cls-9" d="M146.83,12.61l-1.08-6.5H146Zm-.24.12.24-.12-1.08-6.5Z"/><line class="cls-7" x1="148.4" y1="22.97" x2="148.28" y2="21.64"/><line class="cls-7" x1="139.61" y1="13.94" x2="137.8" y2="14.18"/><line class="cls-7" x1="157.07" y1="11.65" x2="155.26" y2="11.89"/><line class="cls-7" x1="156.95" y1="11.29" x2="137.8" y2="13.82"/><g class="cls-10"><path class="cls-7" d="M154.48,11.62a7.17,7.17,0,1,0-6.17,8,7.16,7.16,0,0,0,6.17-8"/><path class="cls-7" d="M154,11.68a6.68,6.68,0,1,0-5.75,7.5,6.68,6.68,0,0,0,5.75-7.5"/></g><path class="cls-8" d="M96.45,50.19V47.34h2.06v.34H96.83v.87H98.4v.33H96.83v1h1.75v.34Z"/><path class="cls-8" d="M100.06,48.78a2.63,2.63,0,0,1,.1-.81,1,1,0,0,1,.31-.47.81.81,0,0,1,.52-.17.87.87,0,0,1,.4.09.72.72,0,0,1,.28.27,1.16,1.16,0,0,1,.18.42,3,3,0,0,1,.06.67,2.54,2.54,0,0,1-.1.81,1,1,0,0,1-.31.48.88.88,0,0,1-1.16-.13A1.87,1.87,0,0,1,100.06,48.78Zm.36,0a1.76,1.76,0,0,0,.16.93A.49.49,0,0,0,101,50a.47.47,0,0,0,.4-.24,2.63,2.63,0,0,0,0-1.86.49.49,0,0,0-.41-.23.44.44,0,0,0-.38.2A1.84,1.84,0,0,0,100.42,48.78Z"/><path class="cls-8" d="M102.27,48.78a2.63,2.63,0,0,1,.1-.81,1,1,0,0,1,.31-.47.81.81,0,0,1,.52-.17.87.87,0,0,1,.4.09.72.72,0,0,1,.28.27,1.16,1.16,0,0,1,.18.42,3,3,0,0,1,.06.67,2.54,2.54,0,0,1-.1.81,1,1,0,0,1-.31.48.88.88,0,0,1-1.16-.13A1.87,1.87,0,0,1,102.27,48.78Zm.36,0a1.76,1.76,0,0,0,.16.93.49.49,0,0,0,.41.24.47.47,0,0,0,.4-.24,2.63,2.63,0,0,0,0-1.86.49.49,0,0,0-.41-.23.44.44,0,0,0-.38.2A1.84,1.84,0,0,0,102.63,48.78Z"/><path class="cls-8" d="M105.79,50.19h-.35V48a1.57,1.57,0,0,1-.33.24,2,2,0,0,1-.36.18V48a2.23,2.23,0,0,0,.51-.33,1.44,1.44,0,0,0,.31-.38h.22Z"/><path class="cls-8" d="M96.58,87.27l-.75-2.84h.38l.44,1.86.12.58.12-.52.55-1.92h.45l.41,1.44a8.68,8.68,0,0,1,.22,1c0-.18.08-.38.14-.62l.45-1.82h.37l-.78,2.84h-.36l-.6-2.17-.09-.33c0,.13-.05.24-.08.33L97,87.27Z"/><path class="cls-8" d="M100.8,85.87a2.54,2.54,0,0,1,.1-.81,1,1,0,0,1,.31-.48.8.8,0,0,1,.51-.16.88.88,0,0,1,.41.09.77.77,0,0,1,.28.26,1.3,1.3,0,0,1,.18.43,2.94,2.94,0,0,1,.06.67,2.63,2.63,0,0,1-.1.81,1,1,0,0,1-.31.47.79.79,0,0,1-.52.17.76.76,0,0,1-.64-.3A1.83,1.83,0,0,1,100.8,85.87Zm.36,0a1.76,1.76,0,0,0,.16.93.46.46,0,0,0,.4.23.49.49,0,0,0,.41-.23,1.81,1.81,0,0,0,.16-.93,1.76,1.76,0,0,0-.16-.93.49.49,0,0,0-.41-.24.43.43,0,0,0-.38.21A1.79,1.79,0,0,0,101.16,85.87Z"/><path class="cls-8" d="M103,85.87a2.54,2.54,0,0,1,.1-.81,1,1,0,0,1,.31-.48.8.8,0,0,1,.51-.16.88.88,0,0,1,.41.09.77.77,0,0,1,.28.26,1.3,1.3,0,0,1,.18.43,2.94,2.94,0,0,1,.06.67,2.63,2.63,0,0,1-.1.81,1,1,0,0,1-.31.47.79.79,0,0,1-.52.17.76.76,0,0,1-.64-.3A1.83,1.83,0,0,1,103,85.87Zm.36,0a1.76,1.76,0,0,0,.16.93.46.46,0,0,0,.4.23.49.49,0,0,0,.41-.23,1.81,1.81,0,0,0,.16-.93,1.76,1.76,0,0,0-.16-.93.49.49,0,0,0-.41-.24.43.43,0,0,0-.38.21A1.79,1.79,0,0,0,103.37,85.87Z"/><path class="cls-8" d="M105.24,84.8v-.34h1.84v.28a3.83,3.83,0,0,0-.54.76,5.31,5.31,0,0,0-.41,1,3.74,3.74,0,0,0-.13.78h-.36a3.53,3.53,0,0,1,.13-.81,4.26,4.26,0,0,1,.86-1.66Z"/><path class="cls-8" d="M34.08,69V66.13h2.06v.33H34.46v.87H36v.34H34.46v1H36.2V69Z"/><path class="cls-8" d="M37.68,67.57a2.51,2.51,0,0,1,.11-.81,1,1,0,0,1,.31-.48.77.77,0,0,1,.51-.17.85.85,0,0,1,.4.1.8.8,0,0,1,.29.26,1.54,1.54,0,0,1,.17.43,2.4,2.4,0,0,1,.07.67,3,3,0,0,1-.1.81,1,1,0,0,1-.31.47.81.81,0,0,1-.52.17.76.76,0,0,1-.64-.3A1.83,1.83,0,0,1,37.68,67.57Zm.36,0a1.76,1.76,0,0,0,.17.93.49.49,0,0,0,.4.23A.5.5,0,0,0,39,68.5a1.81,1.81,0,0,0,.16-.93,1.83,1.83,0,0,0-.16-.94.5.5,0,0,0-.41-.23.46.46,0,0,0-.39.21A1.79,1.79,0,0,0,38,67.57Z"/><path class="cls-8" d="M39.89,67.57a2.51,2.51,0,0,1,.11-.81,1,1,0,0,1,.31-.48.77.77,0,0,1,.51-.17.85.85,0,0,1,.4.1.8.8,0,0,1,.29.26,1.54,1.54,0,0,1,.17.43,2.4,2.4,0,0,1,.07.67,3,3,0,0,1-.1.81,1,1,0,0,1-.31.47.81.81,0,0,1-.52.17.76.76,0,0,1-.64-.3A1.83,1.83,0,0,1,39.89,67.57Zm.36,0a1.76,1.76,0,0,0,.17.93.49.49,0,0,0,.4.23.5.5,0,0,0,.41-.23,1.81,1.81,0,0,0,.16-.93,1.83,1.83,0,0,0-.16-.94.5.5,0,0,0-.41-.23.46.46,0,0,0-.39.21A1.79,1.79,0,0,0,40.25,67.57Z"/><path class="cls-8" d="M43.22,69v-.68H42V68l1.3-1.84h.28V68H44v.32h-.39V69Zm0-1V66.69L42.33,68Z"/><path class="cls-8" d="M46,107.14l-.76-2.84h.39l.43,1.86c0,.2.09.39.12.58.07-.3.12-.48.13-.52l.54-1.92h.45l.41,1.44a7,7,0,0,1,.22,1c0-.18.09-.38.14-.62l.45-1.82h.38l-.78,2.84h-.36l-.6-2.17-.09-.33q0,.19-.09.33l-.6,2.17Z"/><path class="cls-8" d="M50.22,105.74a2.51,2.51,0,0,1,.11-.81,1,1,0,0,1,.3-.48.81.81,0,0,1,.52-.16.84.84,0,0,1,.4.09.8.8,0,0,1,.29.26,1.54,1.54,0,0,1,.17.43,2.4,2.4,0,0,1,.07.67,2.59,2.59,0,0,1-.11.81,1,1,0,0,1-.3.47.88.88,0,0,1-1.17-.12A2,2,0,0,1,50.22,105.74Zm.36,0a1.87,1.87,0,0,0,.16.93.48.48,0,0,0,.41.23.49.49,0,0,0,.4-.23,1.78,1.78,0,0,0,.17-.93,1.73,1.73,0,0,0-.17-.93.47.47,0,0,0-.4-.24.45.45,0,0,0-.39.21A1.79,1.79,0,0,0,50.58,105.74Z"/><path class="cls-8" d="M52.43,105.74a2.51,2.51,0,0,1,.11-.81,1,1,0,0,1,.3-.48.81.81,0,0,1,.52-.16.84.84,0,0,1,.4.09.8.8,0,0,1,.29.26,1.54,1.54,0,0,1,.17.43,2.4,2.4,0,0,1,.07.67,2.59,2.59,0,0,1-.11.81,1,1,0,0,1-.3.47.88.88,0,0,1-1.17-.12A2,2,0,0,1,52.43,105.74Zm.36,0a1.87,1.87,0,0,0,.16.93.48.48,0,0,0,.41.23.49.49,0,0,0,.4-.23,1.78,1.78,0,0,0,.17-.93,1.73,1.73,0,0,0-.17-.93.47.47,0,0,0-.4-.24.45.45,0,0,0-.39.21A1.79,1.79,0,0,0,52.79,105.74Z"/><path class="cls-8" d="M54.64,106.4l.37,0a.69.69,0,0,0,.19.41.52.52,0,0,0,.36.13.54.54,0,0,0,.42-.19.68.68,0,0,0,.18-.5.64.64,0,0,0-.17-.47.57.57,0,0,0-.44-.18.61.61,0,0,0-.3.08.54.54,0,0,0-.22.2l-.33,0,.28-1.46h1.41v.33H55.26l-.15.76a1,1,0,0,1,.53-.17.85.85,0,0,1,.63.25.94.94,0,0,1,.26.67,1,1,0,0,1-.23.66.9.9,0,0,1-.74.35.92.92,0,0,1-.64-.22A.87.87,0,0,1,54.64,106.4Z"/><path class="cls-8" d="M4.75,70.85H1.9v-.38H4.41v-1.4h.34Z"/><path class="cls-8" d="M4.75,68.93,1.9,67.84v-.4l2.85-1.17v.43L3.88,67v1.19l.87.31Zm-1.17-.82v-1l-.79.29c-.24.1-.44.16-.59.21a2.72,2.72,0,0,1,.54.15Z"/><path class="cls-8" d="M3.63,64.64H3.3v-1.2H4.35a1.84,1.84,0,0,1,.33.57,1.56,1.56,0,0,1,.11.6,1.58,1.58,0,0,1-.18.76,1.22,1.22,0,0,1-.51.52,1.61,1.61,0,0,1-.76.18,1.72,1.72,0,0,1-.78-.18,1.08,1.08,0,0,1-.53-.5,1.49,1.49,0,0,1-.18-.75,1.69,1.69,0,0,1,.1-.56,1,1,0,0,1,.28-.39,1.36,1.36,0,0,1,.47-.21l.09.34a.9.9,0,0,0-.34.16.64.64,0,0,0-.2.27,1,1,0,0,0-.07.39,1.25,1.25,0,0,0,.07.45.9.9,0,0,0,.49.48,1.56,1.56,0,0,0,.57.11A1.48,1.48,0,0,0,4,65.55a.87.87,0,0,0,.38-.38,1.25,1.25,0,0,0,.12-.54,1.27,1.27,0,0,0-.09-.47,1.18,1.18,0,0,0-.2-.36H3.63Z"/><path class="cls-8" d="M3.36,63a1.53,1.53,0,0,1-1.11-.38,1.27,1.27,0,0,1-.4-1A1.33,1.33,0,0,1,2,60.92a1.21,1.21,0,0,1,.52-.48,1.74,1.74,0,0,1,.77-.17,1.62,1.62,0,0,1,.77.18,1.23,1.23,0,0,1,.52.49,1.42,1.42,0,0,1,.17.7,1.33,1.33,0,0,1-.19.71,1.29,1.29,0,0,1-.53.48A1.57,1.57,0,0,1,3.36,63Zm0-.38a1.13,1.13,0,0,0,.81-.28.93.93,0,0,0,.29-.69.89.89,0,0,0-.3-.7,1.17,1.17,0,0,0-.84-.28,1.41,1.41,0,0,0-.61.12.89.89,0,0,0-.54.85,1,1,0,0,0,.27.69A1.24,1.24,0,0,0,3.37,62.61Z"/><path class="cls-8" d="M145.27,92.7l-2.84-1.09V91.2L145.27,90v.42l-.86.34V92l.86.31Zm-1.17-.82v-1l-.78.3c-.24.09-.44.16-.59.2a3.68,3.68,0,0,1,.54.16Z"/><path class="cls-8" d="M145.27,89.21l-2.06.78v-.37l1.23-.44.42-.13-.39-.13-1.26-.46V88.1l2.06.78Z"/><path class="cls-8" d="M145.27,87.69h-.4V87.3h.4Z"/><path class="cls-8" d="M144.46,85.73l0-.34a.75.75,0,0,0,.44-.12A.38.38,0,0,0,145,85a.45.45,0,0,0-.06-.24.38.38,0,0,0-.18-.15,1.44,1.44,0,0,0-.35,0h-2v-.38h1.93a1.39,1.39,0,0,1,.56.09.56.56,0,0,1,.3.27,1,1,0,0,1,.1.44.71.71,0,0,1-.22.57A.86.86,0,0,1,144.46,85.73Z"/><path class="cls-8" d="M143.89,83.67a1.54,1.54,0,0,1-1.11-.38,1.29,1.29,0,0,1-.4-1,1.39,1.39,0,0,1,.18-.71,1.32,1.32,0,0,1,.53-.49,1.7,1.7,0,0,1,.76-.16,1.79,1.79,0,0,1,.78.17,1.17,1.17,0,0,1,.51.5,1.37,1.37,0,0,1,.18.69,1.34,1.34,0,0,1-.2.72,1.21,1.21,0,0,1-.52.48A1.79,1.79,0,0,1,143.89,83.67Zm0-.39a1.13,1.13,0,0,0,.81-.28.89.89,0,0,0,.3-.69.91.91,0,0,0-.3-.7,1.22,1.22,0,0,0-.85-.27,1.66,1.66,0,0,0-.61.11.92.92,0,0,0-.54.86A1,1,0,0,0,143,83,1.21,1.21,0,0,0,143.89,83.28Z"/><path class="cls-8" d="M145.27,80.78l-2.84-1.1v-.4l2.84-1.17v.43l-.86.33v1.19l.86.32ZM144.1,80V79l-.78.3c-.24.09-.44.16-.59.2a5.44,5.44,0,0,1,.54.15Z"/><path class="cls-8" d="M145,75.66a2.93,2.93,0,0,0,.26-.48l.26.11a2.26,2.26,0,0,1-.35.61,1.38,1.38,0,0,1,.18.7,1.32,1.32,0,0,1-.19.7,1.21,1.21,0,0,1-.52.48,1.73,1.73,0,0,1-.76.17,1.77,1.77,0,0,1-.77-.17,1.18,1.18,0,0,1-.52-.49,1.38,1.38,0,0,1-.18-.7,1.41,1.41,0,0,1,.18-.71,1.23,1.23,0,0,1,.53-.48,1.67,1.67,0,0,1,.76-.17,1.81,1.81,0,0,1,.63.11A1.43,1.43,0,0,1,145,75.66Zm-.49.83a1.53,1.53,0,0,1,.28-.54,1.19,1.19,0,0,0-.91-.33,1.62,1.62,0,0,0-.61.11.92.92,0,0,0-.54.86.91.91,0,0,0,.29.69,1.17,1.17,0,0,0,.86.28,1.22,1.22,0,0,0,.85-.27,1,1,0,0,0,.22-1.08,1,1,0,0,0-.16.37Z"/><path class="cls-8" d="M142.43,72.86v-.38h1.64a1.81,1.81,0,0,1,.68.1.77.77,0,0,1,.41.35,1.2,1.2,0,0,1,.16.66,1.4,1.4,0,0,1-.14.66.74.74,0,0,1-.4.36,1.92,1.92,0,0,1-.71.11h-1.64v-.38h1.64a1.46,1.46,0,0,0,.54-.07.47.47,0,0,0,.27-.23,1,1,0,0,0-.09-1,1.13,1.13,0,0,0-.72-.17Z"/><path class="cls-8" d="M145.27,71.79h-2.84v-.38h2.84Z"/><path class="cls-8" d="M145.27,70.75h-2.84v-.38l2.23-1.5h-2.23v-.36h2.84v.39L143,70.39h2.24Z"/><path class="cls-8" d="M144.36,66.9l0-.35a.91.91,0,0,0,.35-.12.64.64,0,0,0,.22-.28,1.23,1.23,0,0,0,.08-.44,1.12,1.12,0,0,0-.06-.38.6.6,0,0,0-.18-.25.4.4,0,0,0-.48,0,.58.58,0,0,0-.16.26,3.72,3.72,0,0,0-.14.5,2,2,0,0,1-.18.55.81.81,0,0,1-.26.31.75.75,0,0,1-.36.1.66.66,0,0,1-.4-.13.77.77,0,0,1-.29-.35,1.46,1.46,0,0,1-.09-.52,1.37,1.37,0,0,1,.1-.56.8.8,0,0,1,.3-.37.77.77,0,0,1,.45-.14l0,.36a.56.56,0,0,0-.4.19.8.8,0,0,0-.14.5.84.84,0,0,0,.12.5.4.4,0,0,0,.31.15.31.31,0,0,0,.25-.11,1.62,1.62,0,0,0,.2-.56,3.81,3.81,0,0,1,.18-.63.86.86,0,0,1,.29-.37.71.71,0,0,1,.41-.12.77.77,0,0,1,.43.13,1,1,0,0,1,.31.37,1.42,1.42,0,0,1,.11.55,1.73,1.73,0,0,1-.11.65,1,1,0,0,1-.34.41A.9.9,0,0,1,144.36,66.9Z"/><path class="cls-8" d="M145.27,64.12h-2.84V62.06h.33v1.68h.87V62.17H144v1.57h1V62h.34Z"/><path class="cls-8" d="M144.27,59.45l.1-.38a1.22,1.22,0,0,1,.7.43,1.11,1.11,0,0,1,.25.75,1.3,1.3,0,0,1-.19.75,1.14,1.14,0,0,1-.54.44,1.94,1.94,0,0,1-.76.15,1.73,1.73,0,0,1-.78-.17,1.18,1.18,0,0,1-.5-.49,1.47,1.47,0,0,1-.17-.69,1.17,1.17,0,0,1,.21-.71,1.14,1.14,0,0,1,.62-.41l.08.37a.93.93,0,0,0-.45.29.77.77,0,0,0-.14.47.9.9,0,0,0,.16.55.78.78,0,0,0,.42.31,1.7,1.7,0,0,0,.54.09,1.75,1.75,0,0,0,.64-.11.78.78,0,0,0,.4-.33.92.92,0,0,0,.14-.48.79.79,0,0,0-.19-.54A.94.94,0,0,0,144.27,59.45Z"/><path class="cls-8" d="M143.89,58.72a1.5,1.5,0,0,1-1.11-.38,1.27,1.27,0,0,1-.4-1,1.41,1.41,0,0,1,.18-.71,1.23,1.23,0,0,1,.53-.48,1.7,1.7,0,0,1,.76-.17,1.66,1.66,0,0,1,.78.18,1.15,1.15,0,0,1,.51.49,1.37,1.37,0,0,1,.18.69,1.34,1.34,0,0,1-.2.72,1.21,1.21,0,0,1-.52.48A1.63,1.63,0,0,1,143.89,58.72Zm0-.39a1.17,1.17,0,0,0,.81-.27,1,1,0,0,0,0-1.4,1.22,1.22,0,0,0-.85-.27,1.48,1.48,0,0,0-.61.12,1,1,0,0,0-.4.34,1,1,0,0,0-.14.51,1,1,0,0,0,.27.69A1.25,1.25,0,0,0,143.89,58.33Z"/><path class="cls-8" d="M145.27,54.35h-2.84V54h2.84Z"/><path class="cls-8" d="M145.27,53.32h-2.84V53h2.5v-1.4h.34Z"/><path class="cls-8" d="M145.27,51.11h-2.84v-.37h2.5v-1.4h.34Z"/><path class="cls-8" d="M145.27,49.2l-2.84-1.09V47.7l2.84-1.16V47l-.86.33v1.19l.86.31Zm-1.17-.82v-1l-.78.29-.59.21a2.72,2.72,0,0,1,.54.15Z"/><polyline class="cls-7" points="105.77 37.78 122.51 37.78 122.51 18.63 113.72 18.63 113.72 17.43 109.39 17.43 109.39 18.63 83.98 18.63 83.98 21.52 76.03 21.52 76.03 35.97 105.77 35.97 105.77 37.78"/><polyline class="cls-7" points="105.77 96.78 122.51 96.78 122.51 115.93 113.72 115.93 113.72 117.13 109.39 117.13 109.39 115.93 83.98 115.93 83.98 113.04 76.03 113.04 76.03 98.71 105.77 98.71 105.77 96.78"/><path class="cls-8" d="M96.88,27.84v-.2h.72v.63a1.08,1.08,0,0,1-.34.2.92.92,0,0,1-.36.07,1,1,0,0,1-.46-.11.67.67,0,0,1-.31-.31,1,1,0,0,1-.1-.45,1,1,0,0,1,.1-.47.72.72,0,0,1,.3-.32.94.94,0,0,1,.45-.11.88.88,0,0,1,.33.06.55.55,0,0,1,.24.17.73.73,0,0,1,.13.28l-.21.06a.51.51,0,0,0-.09-.21.4.4,0,0,0-.16-.12.61.61,0,0,0-.24,0,.59.59,0,0,0-.27.05.57.57,0,0,0-.18.12,1,1,0,0,0-.11.17.93.93,0,0,0-.06.34.74.74,0,0,0,.08.38.47.47,0,0,0,.23.23.69.69,0,0,0,.32.08.71.71,0,0,0,.28-.06,1,1,0,0,0,.21-.12v-.32Z"/><path class="cls-8" d="M97.75,28.51l.65-1.71h.25l.7,1.71h-.26l-.2-.52h-.71l-.19.52Zm.49-.7h.58l-.18-.47L98.52,27a2,2,0,0,1-.09.33Z"/><path class="cls-8" d="M99.53,28.51V26.8h.76a.94.94,0,0,1,.34.05.38.38,0,0,1,.19.16.5.5,0,0,1,.08.26.45.45,0,0,1-.12.31.6.6,0,0,1-.37.15.56.56,0,0,1,.14.09.9.9,0,0,1,.19.23l.29.46h-.28l-.22-.36-.17-.23a.56.56,0,0,0-.11-.11.27.27,0,0,0-.11,0h-.38v.76Zm.23-1h.48a.49.49,0,0,0,.24,0,.24.24,0,0,0,.14-.1.26.26,0,0,0,0-.15.25.25,0,0,0-.09-.2.4.4,0,0,0-.27-.08h-.54Z"/><path class="cls-8" d="M101.06,28.51l.66-1.71H102l.7,1.71h-.26l-.2-.52h-.71l-.19.52Zm.49-.7h.58l-.18-.47-.12-.36a2,2,0,0,1-.09.33Z"/><path class="cls-8" d="M102.72,28l.21,0a.44.44,0,0,0,.07.27.25.25,0,0,0,.18.07.33.33,0,0,0,.15,0,.18.18,0,0,0,.08-.11.51.51,0,0,0,0-.21V26.8h.22V28a1,1,0,0,1,0,.33.35.35,0,0,1-.16.18.6.6,0,0,1-.27.06.42.42,0,0,1-.34-.13A.54.54,0,0,1,102.72,28Z"/><path class="cls-8" d="M104,28.51V26.8h1.24V27h-1v.52h.94v.2h-.94v.58h1v.2Z"/><path class="cls-8" d="M96.88,106.59v-.2h.72V107a1.08,1.08,0,0,1-.34.2.92.92,0,0,1-.36.07,1,1,0,0,1-.46-.11.67.67,0,0,1-.31-.31,1,1,0,0,1-.1-.45,1.07,1.07,0,0,1,.1-.47.72.72,0,0,1,.3-.32.93.93,0,0,1,.45-.1.88.88,0,0,1,.33.06.53.53,0,0,1,.24.16.73.73,0,0,1,.13.28l-.21.06a.51.51,0,0,0-.09-.21.4.4,0,0,0-.16-.12.61.61,0,0,0-.24,0,.59.59,0,0,0-.27,0,.57.57,0,0,0-.18.12,1,1,0,0,0-.11.17.93.93,0,0,0-.06.34.74.74,0,0,0,.08.38.47.47,0,0,0,.23.23.69.69,0,0,0,.32.08.71.71,0,0,0,.28-.06,1,1,0,0,0,.21-.12v-.32Z"/><path class="cls-8" d="M97.75,107.26l.65-1.7h.25l.7,1.7h-.26l-.2-.52h-.71l-.19.52Zm.49-.7h.58l-.18-.47-.12-.36a2,2,0,0,1-.09.33Z"/><path class="cls-8" d="M99.53,107.26v-1.7h.76a1,1,0,0,1,.34,0,.38.38,0,0,1,.19.16.5.5,0,0,1,.08.26.45.45,0,0,1-.12.31.6.6,0,0,1-.37.15.56.56,0,0,1,.14.09,1.11,1.11,0,0,1,.19.23l.29.46h-.28l-.22-.35c-.07-.11-.13-.18-.17-.24a.56.56,0,0,0-.11-.11l-.11,0h-.38v.76Zm.23-1h.48a.7.7,0,0,0,.24,0,.31.31,0,0,0,.14-.11.24.24,0,0,0,0-.15.25.25,0,0,0-.09-.2.4.4,0,0,0-.27-.08h-.54Z"/><path class="cls-8" d="M101.06,107.26l.66-1.7H102l.7,1.7h-.26l-.2-.52h-.71l-.19.52Zm.49-.7h.58l-.18-.47-.12-.36a2,2,0,0,1-.09.33Z"/><path class="cls-8" d="M102.72,106.78l.21,0a.44.44,0,0,0,.07.27.21.21,0,0,0,.18.07.24.24,0,0,0,.15,0,.18.18,0,0,0,.08-.11.51.51,0,0,0,0-.21v-1.17h.22v1.16a1,1,0,0,1,0,.33.35.35,0,0,1-.16.18.6.6,0,0,1-.27.06.42.42,0,0,1-.34-.13A.54.54,0,0,1,102.72,106.78Z"/><path class="cls-8" d="M104,107.26v-1.7h1.24v.2h-1v.52h.94v.2h-.94v.58h1v.2Z"/><line class="cls-7" x1="101.8" y1="118.1" x2="102.52" y2="118.1"/><line class="cls-7" x1="102.76" y1="118.1" x2="103.37" y2="118.1"/><line class="cls-7" x1="103.61" y1="118.1" x2="104.21" y2="118.1"/><line class="cls-7" x1="104.45" y1="118.1" x2="105.05" y2="118.1"/><line class="cls-7" x1="105.29" y1="118.1" x2="105.89" y2="118.1"/><line class="cls-7" x1="106.13" y1="118.1" x2="106.74" y2="118.1"/><line class="cls-7" x1="107.1" y1="118.1" x2="107.58" y2="118.1"/><line class="cls-7" x1="107.94" y1="118.1" x2="108.42" y2="118.1"/><line class="cls-7" x1="108.78" y1="118.1" x2="109.27" y2="118.1"/><line class="cls-7" x1="109.63" y1="118.1" x2="110.23" y2="118.1"/><line class="cls-7" x1="110.47" y1="118.1" x2="111.07" y2="118.1"/><line class="cls-7" x1="111.31" y1="118.1" x2="111.91" y2="118.1"/><line class="cls-7" x1="112.16" y1="118.1" x2="112.76" y2="118.1"/><line class="cls-7" x1="113" y1="118.1" x2="113.6" y2="118.1"/><line class="cls-7" x1="113.84" y1="118.1" x2="114.44" y2="118.1"/><line class="cls-7" x1="114.68" y1="118.1" x2="115.29" y2="118.1"/><line class="cls-7" x1="115.53" y1="118.1" x2="116.13" y2="118.1"/><line class="cls-7" x1="116.37" y1="118.1" x2="117.09" y2="118.1"/><line class="cls-7" x1="106.01" y1="117.5" x2="106.26" y2="117.5"/><line class="cls-7" x1="106.5" y1="117.5" x2="107.1" y2="117.5"/><line class="cls-7" x1="107.46" y1="117.5" x2="107.94" y2="117.5"/><line class="cls-7" x1="108.3" y1="117.5" x2="108.78" y2="117.5"/><line class="cls-7" x1="109.15" y1="117.5" x2="109.63" y2="117.5"/><line class="cls-7" x1="109.99" y1="117.5" x2="110.47" y2="117.5"/><line class="cls-7" x1="110.83" y1="117.5" x2="111.43" y2="117.5"/><line class="cls-7" x1="111.67" y1="117.5" x2="112.28" y2="117.5"/><line class="cls-7" x1="112.52" y1="117.5" x2="113.12" y2="117.5"/><line class="cls-7" x1="113.36" y1="117.5" x2="113.96" y2="117.5"/><line class="cls-7" x1="114.2" y1="117.5" x2="114.8" y2="117.5"/><line class="cls-7" x1="115.05" y1="117.5" x2="115.65" y2="117.5"/><line class="cls-7" x1="115.89" y1="117.5" x2="116.49" y2="117.5"/><line class="cls-7" x1="116.73" y1="117.5" x2="117.09" y2="117.5"/><line class="cls-7" x1="106.01" y1="117.5" x2="106.38" y2="117.38"/><line class="cls-7" x1="106.62" y1="117.26" x2="107.22" y2="117.01"/><line class="cls-7" x1="107.46" y1="116.89" x2="107.94" y2="116.65"/><line class="cls-7" x1="108.18" y1="116.53" x2="108.78" y2="116.29"/><line class="cls-7" x1="109.02" y1="116.17" x2="109.39" y2="115.93"/><line class="cls-7" x1="106.01" y1="115.93" x2="106.38" y2="116.17"/><line class="cls-7" x1="106.62" y1="116.29" x2="107.22" y2="116.53"/><line class="cls-7" x1="107.46" y1="116.65" x2="107.94" y2="116.89"/><line class="cls-7" x1="108.18" y1="117.01" x2="108.78" y2="117.26"/><line class="cls-7" x1="109.02" y1="117.37" x2="109.39" y2="117.49"/><line class="cls-7" x1="113.72" y1="117.5" x2="114.2" y2="117.38"/><line class="cls-7" x1="114.44" y1="117.26" x2="114.92" y2="117.01"/><line class="cls-7" x1="115.17" y1="116.89" x2="115.65" y2="116.65"/><line class="cls-7" x1="115.89" y1="116.53" x2="116.49" y2="116.17"/><line class="cls-7" x1="116.73" y1="116.05" x2="117.09" y2="115.93"/><line class="cls-7" x1="113.72" y1="115.93" x2="114.2" y2="116.05"/><line class="cls-7" x1="114.44" y1="116.17" x2="114.92" y2="116.53"/><line class="cls-7" x1="115.17" y1="116.65" x2="115.65" y2="116.89"/><line class="cls-7" x1="115.89" y1="117.01" x2="116.49" y2="117.26"/><line class="cls-7" x1="116.73" y1="117.37" x2="117.09" y2="117.49"/><line class="cls-7" x1="117.09" y1="118.1" x2="117.45" y2="118.1"/><line class="cls-7" x1="117.81" y1="118.1" x2="118.3" y2="118.1"/><line class="cls-7" x1="118.66" y1="118.1" x2="119.26" y2="118.1"/><line class="cls-7" x1="119.5" y1="118.1" x2="120.1" y2="118.1"/><line class="cls-7" x1="120.34" y1="118.1" x2="120.95" y2="118.1"/><line class="cls-7" x1="121.19" y1="118.1" x2="121.79" y2="118.1"/><polyline class="cls-7" points="122.03 118.1 122.51 118.1 122.51 117.62"/><line class="cls-7" x1="122.51" y1="117.26" x2="122.51" y2="116.65"/><line class="cls-7" x1="122.51" y1="116.41" x2="122.51" y2="115.93"/><line class="cls-7" x1="117.09" y1="117.5" x2="117.09" y2="116.89"/><line class="cls-7" x1="117.09" y1="116.53" x2="117.09" y2="115.93"/><line class="cls-7" x1="101.8" y1="115.93" x2="101.8" y2="116.41"/><line class="cls-7" x1="101.8" y1="116.65" x2="101.8" y2="117.26"/><line class="cls-7" x1="101.8" y1="117.62" x2="101.8" y2="118.1"/><line class="cls-7" x1="106.01" y1="117.5" x2="106.01" y2="116.89"/><line class="cls-7" x1="106.01" y1="116.53" x2="106.01" y2="115.93"/><line class="cls-7" x1="106.01" y1="76.07" x2="106.26" y2="76.07"/><line class="cls-7" x1="106.5" y1="76.07" x2="107.1" y2="76.07"/><line class="cls-7" x1="107.46" y1="76.07" x2="107.94" y2="76.07"/><line class="cls-7" x1="108.3" y1="76.07" x2="108.78" y2="76.07"/><line class="cls-7" x1="109.15" y1="76.07" x2="109.63" y2="76.07"/><line class="cls-7" x1="109.99" y1="76.07" x2="110.47" y2="76.07"/><line class="cls-7" x1="110.83" y1="76.07" x2="111.43" y2="76.07"/><line class="cls-7" x1="111.67" y1="76.07" x2="112.28" y2="76.07"/><line class="cls-7" x1="112.52" y1="76.07" x2="113.12" y2="76.07"/><line class="cls-7" x1="113.36" y1="76.07" x2="113.96" y2="76.07"/><line class="cls-7" x1="114.2" y1="76.07" x2="114.8" y2="76.07"/><line class="cls-7" x1="115.05" y1="76.07" x2="115.65" y2="76.07"/><line class="cls-7" x1="115.89" y1="76.07" x2="116.49" y2="76.07"/><line class="cls-7" x1="116.73" y1="76.07" x2="117.09" y2="76.07"/><line class="cls-7" x1="106.01" y1="76.07" x2="106.38" y2="76.31"/><line class="cls-7" x1="106.62" y1="76.43" x2="107.22" y2="76.67"/><line class="cls-7" x1="107.46" y1="76.8" x2="107.94" y2="77.04"/><line class="cls-7" x1="108.18" y1="77.16" x2="108.78" y2="77.4"/><line class="cls-7" x1="109.02" y1="77.52" x2="109.39" y2="77.76"/><line class="cls-7" x1="106.01" y1="77.76" x2="106.38" y2="77.52"/><line class="cls-7" x1="106.62" y1="77.4" x2="107.22" y2="77.16"/><line class="cls-7" x1="107.46" y1="77.04" x2="107.94" y2="76.8"/><line class="cls-7" x1="108.18" y1="76.67" x2="108.78" y2="76.43"/><line class="cls-7" x1="109.02" y1="76.31" x2="109.39" y2="76.07"/><line class="cls-7" x1="113.72" y1="76.07" x2="114.2" y2="76.31"/><line class="cls-7" x1="114.44" y1="76.43" x2="114.92" y2="76.67"/><line class="cls-7" x1="115.17" y1="76.8" x2="115.65" y2="77.04"/><line class="cls-7" x1="115.89" y1="77.16" x2="116.49" y2="77.4"/><line class="cls-7" x1="116.73" y1="77.52" x2="117.09" y2="77.76"/><line class="cls-7" x1="113.72" y1="77.76" x2="114.2" y2="77.52"/><line class="cls-7" x1="114.44" y1="77.4" x2="114.92" y2="77.16"/><line class="cls-7" x1="115.17" y1="77.04" x2="115.65" y2="76.8"/><line class="cls-7" x1="115.89" y1="76.67" x2="116.49" y2="76.43"/><line class="cls-7" x1="116.73" y1="76.31" x2="117.09" y2="76.07"/><line class="cls-7" x1="117.09" y1="75.59" x2="117.45" y2="75.59"/><line class="cls-7" x1="117.81" y1="75.59" x2="118.3" y2="75.59"/><line class="cls-7" x1="118.66" y1="75.59" x2="119.26" y2="75.59"/><line class="cls-7" x1="119.5" y1="75.59" x2="120.1" y2="75.59"/><line class="cls-7" x1="120.34" y1="75.59" x2="120.95" y2="75.59"/><line class="cls-7" x1="121.19" y1="75.59" x2="121.79" y2="75.59"/><polyline class="cls-7" points="122.03 75.59 122.51 75.59 122.51 76.07"/><line class="cls-7" x1="122.51" y1="76.31" x2="122.51" y2="76.92"/><line class="cls-7" x1="122.51" y1="77.16" x2="122.51" y2="77.76"/><line class="cls-7" x1="117.09" y1="76.07" x2="117.09" y2="76.8"/><line class="cls-7" x1="117.09" y1="77.04" x2="117.09" y2="77.76"/><line class="cls-7" x1="101.8" y1="16.47" x2="102.52" y2="16.47"/><line class="cls-7" x1="102.76" y1="16.47" x2="103.37" y2="16.47"/><line class="cls-7" x1="103.61" y1="16.47" x2="104.21" y2="16.47"/><line class="cls-7" x1="104.45" y1="16.47" x2="105.05" y2="16.47"/><line class="cls-7" x1="105.29" y1="16.47" x2="105.89" y2="16.47"/><line class="cls-7" x1="106.13" y1="16.47" x2="106.74" y2="16.47"/><line class="cls-7" x1="107.1" y1="16.47" x2="107.58" y2="16.47"/><line class="cls-7" x1="107.94" y1="16.47" x2="108.42" y2="16.47"/><line class="cls-7" x1="108.78" y1="16.47" x2="109.27" y2="16.47"/><line class="cls-7" x1="109.63" y1="16.47" x2="110.23" y2="16.47"/><line class="cls-7" x1="110.47" y1="16.47" x2="111.07" y2="16.47"/><line class="cls-7" x1="111.31" y1="16.47" x2="111.91" y2="16.47"/><line class="cls-7" x1="112.16" y1="16.47" x2="112.76" y2="16.47"/><line class="cls-7" x1="113" y1="16.47" x2="113.6" y2="16.47"/><line class="cls-7" x1="113.84" y1="16.47" x2="114.44" y2="16.47"/><line class="cls-7" x1="114.68" y1="16.47" x2="115.29" y2="16.47"/><line class="cls-7" x1="115.53" y1="16.47" x2="116.13" y2="16.47"/><line class="cls-7" x1="116.37" y1="16.47" x2="117.09" y2="16.47"/><line class="cls-7" x1="106.01" y1="17.07" x2="106.26" y2="17.07"/><line class="cls-7" x1="106.5" y1="17.07" x2="107.1" y2="17.07"/><line class="cls-7" x1="107.46" y1="17.07" x2="107.94" y2="17.07"/><line class="cls-7" x1="108.3" y1="17.07" x2="108.78" y2="17.07"/><line class="cls-7" x1="109.15" y1="17.07" x2="109.63" y2="17.07"/><line class="cls-7" x1="109.99" y1="17.07" x2="110.47" y2="17.07"/><line class="cls-7" x1="110.83" y1="17.07" x2="111.43" y2="17.07"/><line class="cls-7" x1="111.67" y1="17.07" x2="112.28" y2="17.07"/><line class="cls-7" x1="112.52" y1="17.07" x2="113.12" y2="17.07"/><line class="cls-7" x1="113.36" y1="17.07" x2="113.96" y2="17.07"/><line class="cls-7" x1="114.2" y1="17.07" x2="114.8" y2="17.07"/><line class="cls-7" x1="115.05" y1="17.07" x2="115.65" y2="17.07"/><line class="cls-7" x1="115.89" y1="17.07" x2="116.49" y2="17.07"/><line class="cls-7" x1="116.73" y1="17.07" x2="117.09" y2="17.07"/><line class="cls-7" x1="106.01" y1="17.07" x2="106.38" y2="17.31"/><line class="cls-7" x1="106.62" y1="17.43" x2="107.22" y2="17.67"/><line class="cls-7" x1="107.46" y1="17.79" x2="107.94" y2="18.03"/><line class="cls-7" x1="108.18" y1="18.15" x2="108.78" y2="18.39"/><line class="cls-7" x1="109.02" y1="18.51" x2="109.39" y2="18.63"/><line class="cls-7" x1="106.01" y1="18.63" x2="106.38" y2="18.51"/><line class="cls-7" x1="106.62" y1="18.39" x2="107.22" y2="18.15"/><line class="cls-7" x1="107.46" y1="18.03" x2="107.94" y2="17.79"/><line class="cls-7" x1="108.18" y1="17.67" x2="108.78" y2="17.43"/><line class="cls-7" x1="109.02" y1="17.31" x2="109.39" y2="17.07"/><line class="cls-7" x1="113.72" y1="17.07" x2="114.2" y2="17.19"/><line class="cls-7" x1="114.44" y1="17.31" x2="114.92" y2="17.55"/><line class="cls-7" x1="115.17" y1="17.79" x2="115.65" y2="18.03"/><line class="cls-7" x1="115.89" y1="18.15" x2="116.49" y2="18.39"/><line class="cls-7" x1="116.73" y1="18.51" x2="117.09" y2="18.63"/><line class="cls-7" x1="113.72" y1="18.63" x2="114.2" y2="18.51"/><line class="cls-7" x1="114.44" y1="18.39" x2="114.92" y2="18.15"/><line class="cls-7" x1="115.17" y1="18.03" x2="115.65" y2="17.79"/><line class="cls-7" x1="115.89" y1="17.55" x2="116.49" y2="17.31"/><line class="cls-7" x1="116.73" y1="17.19" x2="117.09" y2="17.07"/><line class="cls-7" x1="117.09" y1="16.47" x2="117.45" y2="16.47"/><line class="cls-7" x1="117.81" y1="16.47" x2="118.3" y2="16.47"/><line class="cls-7" x1="118.66" y1="16.47" x2="119.26" y2="16.47"/><line class="cls-7" x1="119.5" y1="16.47" x2="120.1" y2="16.47"/><line class="cls-7" x1="120.34" y1="16.47" x2="120.95" y2="16.47"/><line class="cls-7" x1="121.19" y1="16.47" x2="121.79" y2="16.47"/><polyline class="cls-7" points="122.03 16.47 122.51 16.47 122.51 17.07"/><line class="cls-7" x1="122.51" y1="17.31" x2="122.51" y2="17.91"/><line class="cls-7" x1="122.51" y1="18.15" x2="122.51" y2="18.64"/><line class="cls-7" x1="117.09" y1="17.07" x2="117.09" y2="17.67"/><line class="cls-7" x1="117.09" y1="18.03" x2="117.09" y2="18.63"/><line class="cls-7" x1="101.8" y1="18.63" x2="101.8" y2="18.15"/><line class="cls-7" x1="101.8" y1="17.91" x2="101.8" y2="17.31"/><line class="cls-7" x1="101.8" y1="17.07" x2="101.8" y2="16.47"/><line class="cls-7" x1="106.01" y1="17.07" x2="106.01" y2="17.67"/><line class="cls-7" x1="106.01" y1="18.03" x2="106.01" y2="18.63"/><line class="cls-7" x1="106.01" y1="58.49" x2="106.26" y2="58.49"/><line class="cls-7" x1="106.5" y1="58.49" x2="107.1" y2="58.49"/><line class="cls-7" x1="107.46" y1="58.49" x2="107.94" y2="58.49"/><line class="cls-7" x1="108.3" y1="58.49" x2="108.78" y2="58.49"/><line class="cls-7" x1="109.15" y1="58.49" x2="109.63" y2="58.49"/><line class="cls-7" x1="109.99" y1="58.49" x2="110.47" y2="58.49"/><line class="cls-7" x1="110.83" y1="58.49" x2="111.43" y2="58.49"/><line class="cls-7" x1="111.67" y1="58.49" x2="112.28" y2="58.49"/><line class="cls-7" x1="112.52" y1="58.49" x2="113.12" y2="58.49"/><line class="cls-7" x1="113.36" y1="58.49" x2="113.96" y2="58.49"/><line class="cls-7" x1="114.2" y1="58.49" x2="114.8" y2="58.49"/><line class="cls-7" x1="115.05" y1="58.49" x2="115.65" y2="58.49"/><line class="cls-7" x1="115.89" y1="58.49" x2="116.49" y2="58.49"/><line class="cls-7" x1="116.73" y1="58.49" x2="117.09" y2="58.49"/><line class="cls-7" x1="106.01" y1="58.49" x2="106.38" y2="58.25"/><line class="cls-7" x1="106.62" y1="58.13" x2="107.22" y2="57.89"/><line class="cls-7" x1="107.46" y1="57.77" x2="107.94" y2="57.53"/><line class="cls-7" x1="108.18" y1="57.41" x2="108.78" y2="57.17"/><line class="cls-7" x1="109.02" y1="57.05" x2="109.39" y2="56.93"/><line class="cls-7" x1="106.01" y1="56.93" x2="106.38" y2="57.05"/><line class="cls-7" x1="106.62" y1="57.17" x2="107.22" y2="57.41"/><line class="cls-7" x1="107.46" y1="57.53" x2="107.94" y2="57.77"/><line class="cls-7" x1="108.18" y1="57.89" x2="108.78" y2="58.13"/><line class="cls-7" x1="109.02" y1="58.25" x2="109.39" y2="58.49"/><line class="cls-7" x1="113.72" y1="58.49" x2="114.2" y2="58.37"/><line class="cls-7" x1="114.44" y1="58.13" x2="114.92" y2="57.89"/><line class="cls-7" x1="115.17" y1="57.77" x2="115.65" y2="57.53"/><line class="cls-7" x1="115.89" y1="57.41" x2="116.49" y2="57.17"/><line class="cls-7" x1="116.73" y1="57.05" x2="117.09" y2="56.93"/><line class="cls-7" x1="113.72" y1="56.93" x2="114.2" y2="57.05"/><line class="cls-7" x1="114.44" y1="57.17" x2="114.92" y2="57.41"/><line class="cls-7" x1="115.17" y1="57.53" x2="115.65" y2="57.77"/><line class="cls-7" x1="115.89" y1="57.89" x2="116.49" y2="58.13"/><line class="cls-7" x1="116.73" y1="58.37" x2="117.09" y2="58.49"/><line class="cls-7" x1="117.09" y1="58.97" x2="117.45" y2="58.97"/><line class="cls-7" x1="117.81" y1="58.97" x2="118.3" y2="58.97"/><line class="cls-7" x1="118.66" y1="58.97" x2="119.26" y2="58.97"/><line class="cls-7" x1="119.5" y1="58.97" x2="120.1" y2="58.97"/><line class="cls-7" x1="120.34" y1="58.97" x2="120.95" y2="58.97"/><line class="cls-7" x1="121.19" y1="58.97" x2="121.79" y2="58.97"/><polyline class="cls-7" points="122.03 58.97 122.51 58.97 122.51 58.49"/><line class="cls-7" x1="122.51" y1="58.25" x2="122.51" y2="57.65"/><line class="cls-7" x1="122.51" y1="57.41" x2="122.51" y2="56.93"/><line class="cls-7" x1="117.09" y1="58.49" x2="117.09" y2="57.89"/><line class="cls-7" x1="117.09" y1="57.53" x2="117.09" y2="56.93"/><line class="cls-7" x1="106.01" y1="75.59" x2="106.38" y2="75.59"/><line class="cls-7" x1="106.74" y1="75.59" x2="107.22" y2="75.59"/><line class="cls-7" x1="107.58" y1="75.59" x2="108.06" y2="75.59"/><line class="cls-7" x1="108.42" y1="75.59" x2="108.9" y2="75.59"/><line class="cls-7" x1="109.27" y1="75.59" x2="109.87" y2="75.59"/><line class="cls-7" x1="110.11" y1="75.59" x2="110.71" y2="75.59"/><line class="cls-7" x1="110.95" y1="75.59" x2="111.55" y2="75.59"/><line class="cls-7" x1="111.79" y1="75.59" x2="112.4" y2="75.59"/><line class="cls-7" x1="112.64" y1="75.59" x2="113.24" y2="75.59"/><line class="cls-7" x1="113.48" y1="75.59" x2="114.08" y2="75.59"/><line class="cls-7" x1="114.32" y1="75.59" x2="114.93" y2="75.59"/><line class="cls-7" x1="115.17" y1="75.59" x2="115.77" y2="75.59"/><line class="cls-7" x1="116.01" y1="75.59" x2="116.61" y2="75.59"/><line class="cls-7" x1="116.97" y1="75.59" x2="117.45" y2="75.59"/><line class="cls-7" x1="117.81" y1="75.59" x2="118.3" y2="75.59"/><line class="cls-7" x1="118.66" y1="75.59" x2="119.14" y2="75.59"/><line class="cls-7" x1="119.5" y1="75.59" x2="120.1" y2="75.59"/><line class="cls-7" x1="120.34" y1="75.59" x2="120.95" y2="75.59"/><line class="cls-7" x1="121.19" y1="75.59" x2="121.79" y2="75.59"/><polyline class="cls-7" points="122.03 75.59 122.51 75.59 122.51 76.07"/><line class="cls-7" x1="122.51" y1="76.31" x2="122.51" y2="76.92"/><line class="cls-7" x1="122.51" y1="77.16" x2="122.51" y2="77.76"/><line class="cls-7" x1="106.01" y1="58.97" x2="106.26" y2="58.97"/><line class="cls-7" x1="106.5" y1="58.97" x2="107.1" y2="58.97"/><line class="cls-7" x1="107.46" y1="58.97" x2="107.94" y2="58.97"/><line class="cls-7" x1="108.3" y1="58.97" x2="108.78" y2="58.97"/><line class="cls-7" x1="109.15" y1="58.97" x2="109.63" y2="58.97"/><line class="cls-7" x1="109.99" y1="58.97" x2="110.47" y2="58.97"/><line class="cls-7" x1="110.83" y1="58.97" x2="111.43" y2="58.97"/><line class="cls-7" x1="111.67" y1="58.97" x2="112.28" y2="58.97"/><line class="cls-7" x1="112.52" y1="58.97" x2="113.12" y2="58.97"/><line class="cls-7" x1="113.36" y1="58.97" x2="113.96" y2="58.97"/><line class="cls-7" x1="114.2" y1="58.97" x2="114.8" y2="58.97"/><line class="cls-7" x1="115.05" y1="58.97" x2="115.65" y2="58.97"/><line class="cls-7" x1="115.89" y1="58.97" x2="116.49" y2="58.97"/><line class="cls-7" x1="116.73" y1="58.97" x2="117.09" y2="58.97"/><polyline class="cls-7" points="83.5 56.81 101.8 56.81 101.8 58.97 106.01 58.97 106.01 56.81 109.39 56.81 109.39 58.01 113.72 58.01 113.72 56.81 122.51 56.81 122.51 37.78 105.77 37.78 105.77 39.59 83.5 39.59 83.5 56.81"/><polyline class="cls-7" points="83.5 77.88 101.8 77.88 101.8 75.59 106.01 75.59 106.01 77.88 109.39 77.88 109.39 76.55 113.72 76.55 113.72 77.88 122.51 77.88 122.51 96.78 105.77 96.78 105.77 94.98 83.5 94.98 83.5 77.88"/><line class="cls-7" x1="132.02" y1="37.78" x2="132.02" y2="53.92"/><g class="cls-10"><path class="cls-7" d="M128.55,59a5.23,5.23,0,0,0,3.35-5.14"/></g><polyline class="cls-7" points="128.65 58.97 122.51 58.97 122.51 56.81 122.51 37.78 132.02 37.78"/><line class="cls-7" x1="132.02" y1="96.78" x2="132.02" y2="80.65"/><g class="cls-10"><path class="cls-7" d="M131.9,80.6a5.24,5.24,0,0,0-3.35-5.14"/></g><polyline class="cls-7" points="128.65 75.59 122.51 75.59 122.51 77.88 122.51 96.78 132.02 96.78"/><line class="cls-7" x1="19.44" y1="19.48" x2="19.32" y2="20.2"/><g class="cls-10"><path class="cls-7" d="M15.88,32a35.46,35.46,0,0,0,3.27-11.85"/><path class="cls-7" d="M15.86,32a28,28,0,0,0-2.39,5.9"/><path class="cls-7" d="M13.6,37.93a23.73,23.73,0,0,0-.78,5.3"/></g><polyline class="cls-7" points="12.81 43.32 12.81 53.19 22.45 53.19 22.45 51.03 21.24 51.03 21.24 31.4 27.38 31.4 27.38 18.63 20.76 18.63"/><g class="cls-10"><path class="cls-7" d="M20.69,18.66a1.14,1.14,0,0,0-1.32.77"/></g><line class="cls-7" x1="19.32" y1="115.45" x2="19.2" y2="114.61"/><g class="cls-10"><path class="cls-7" d="M19.18,114.56A36.17,36.17,0,0,0,16,102.44"/><path class="cls-7" d="M13.47,96.63a28,28,0,0,0,2.39,5.9"/><path class="cls-7" d="M12.82,91.22a23.73,23.73,0,0,0,.78,5.3"/></g><polyline class="cls-7" points="12.81 91.36 12.81 82.45 22.45 82.45 22.45 83.54 21.24 83.54 21.24 103.17 27.38 103.17 27.38 115.93 20.28 115.93"/><g class="cls-10"><path class="cls-7" d="M19.23,115.38a.78.78,0,0,0,.94.53"/></g></g></g></svg>