<svg id="Capa_1" data-name="Capa 1" xmlns="http://www.w3.org/2000/svg" xmlns:xlink="http://www.w3.org/1999/xlink" viewBox="0 0 168.5 120.3"><defs><style>.cls-1,.cls-4,.cls-5,.cls-7{fill:none;}.cls-2{clip-path:url(#clip-path);}.cls-3{fill:#ebebeb;}.cls-4{stroke:#ebebeb;}.cls-4,.cls-5,.cls-7{stroke-miterlimit:10;}.cls-4,.cls-7{stroke-width:0;}.cls-5,.cls-7{stroke:#63666b;stroke-linecap:round;}.cls-5{stroke-width:0.25px;}.cls-6{fill:#63666b;}.cls-8{clip-path:url(#clip-path-2);}</style><clipPath id="clip-path"><rect class="cls-1" x="-70.91" y="-530.54" width="1190.55" height="841.89"/></clipPath><clipPath id="clip-path-2"><rect class="cls-1" x="0.07" width="168.43" height="120.3"/></clipPath></defs><title>W107S</title><g class="cls-2"><path class="cls-3" d="M123.9,73.29l5.73,2.17H123.9Zm5.73,0H123.9l5.73,2.17Z"/><path class="cls-4" d="M123.9,73.29l5.73,2.17H123.9Zm5.73,0H123.9l5.73,2.17Z"/><path class="cls-3" d="M115.88,74.18l4.59,1.28h-4.59Zm4.59,0h-4.59l4.59,1.28Z"/><path class="cls-4" d="M115.88,74.18l4.59,1.28h-4.59Zm4.59,0h-4.59l4.59,1.28Z"/><path class="cls-3" d="M107.86,73.29l4.33,2.17h-4.33Zm4.33,0h-4.33l4.33,2.17Z"/><path class="cls-4" d="M107.86,73.29l4.33,2.17h-4.33Zm4.33,0h-4.33l4.33,2.17Z"/><path class="cls-3" d="M88.39,75.46l41.24,18.2H88.39Zm41.24,0H88.39l41.24,18.2Z"/><path class="cls-4" d="M88.39,75.46l41.24,18.2H88.39Zm41.24,0H88.39l41.24,18.2Z"/><path class="cls-3" d="M111.94,93.66l17.69,1.91H111.94Zm17.69,0H111.94l17.69,1.91Z"/><path class="cls-4" d="M111.94,93.66l17.69,1.91H111.94Zm17.69,0H111.94l17.69,1.91Z"/><polyline class="cls-5" points="80.62 16.01 71.08 16.01 71.08 12.95 37.6 12.95 37.6 11.68 33.02 11.68 33.02 12.95 29.07 12.95 29.07 26.45 22.7 26.45 22.7 47.2 23.85 47.2 23.85 49.49 43.33 49.49 43.33 43.89 43.45 43.89 43.45 31.16 80.62 31.16 80.62 16.01"/><polyline class="cls-5" points="43.33 43.89 57.84 43.89 57.84 53.81 60 53.81 60 63.36 57.84 63.36 57.84 71.13 60 71.13 60 76.22 57.84 76.22 57.84 84.88 47.78 84.88 47.78 89.58 43.33 89.58 43.33 79.27 25.25 79.27 25.25 52.16 23.85 52.16 23.85 49.49 43.33 49.49 43.33 43.89"/><polyline class="cls-5" points="80.62 112.75 71.08 112.75 71.08 115.81 37.6 115.81 37.6 117.08 33.02 117.08 33.02 115.81 29.07 115.81 29.07 102.19 22.7 102.19 22.7 81.44 23.85 81.44 23.85 79.27 43.33 79.27 43.33 84.88 43.45 84.88 43.45 97.48 80.62 97.48 80.62 112.75"/><polyline class="cls-5" points="88.39 35.61 78.33 35.61 78.33 44.4 67.13 44.4 67.13 35.61 60.51 35.61 60.51 44.4 57.84 44.4"/><line class="cls-5" x1="60.51" y1="43.89" x2="67.13" y2="43.89"/><line class="cls-5" x1="67.13" y1="44.4" x2="60.51" y2="44.4"/><line class="cls-5" x1="78.33" y1="44.4" x2="88.39" y2="44.4"/><line class="cls-5" x1="88.39" y1="43.89" x2="78.33" y2="43.89"/><line class="cls-5" x1="60" y1="44.4" x2="60" y2="84.24"/><line class="cls-5" x1="60.51" y1="84.24" x2="60.51" y2="44.4"/><polyline class="cls-5" points="88.39 93.02 78.33 93.02 78.33 84.24 67.13 84.24 67.13 93.02 60.51 93.02 60.51 84.24 57.84 84.24"/><line class="cls-5" x1="60.51" y1="84.87" x2="67.13" y2="84.87"/><line class="cls-5" x1="67.13" y1="84.24" x2="60.51" y2="84.24"/><line class="cls-5" x1="78.33" y1="84.24" x2="88.39" y2="84.24"/><line class="cls-5" x1="88.39" y1="84.87" x2="78.33" y2="84.87"/><line class="cls-5" x1="60.51" y1="35.61" x2="60.89" y2="36.12"/><line class="cls-5" x1="61.15" y1="36.38" x2="61.53" y2="36.88"/><line class="cls-5" x1="61.66" y1="37.01" x2="62.04" y2="37.52"/><line class="cls-5" x1="62.17" y1="37.78" x2="62.55" y2="38.28"/><line class="cls-5" x1="62.8" y1="38.54" x2="63.18" y2="38.92"/><line class="cls-5" x1="63.31" y1="39.18" x2="63.69" y2="39.68"/><line class="cls-5" x1="63.95" y1="39.94" x2="64.33" y2="40.32"/><line class="cls-5" x1="64.46" y1="40.58" x2="64.84" y2="41.09"/><line class="cls-5" x1="65.09" y1="41.34" x2="65.35" y2="41.72"/><line class="cls-5" x1="65.6" y1="41.98" x2="65.98" y2="42.49"/><line class="cls-5" x1="66.11" y1="42.74" x2="66.49" y2="43.12"/><line class="cls-5" x1="66.75" y1="43.38" x2="67.13" y2="43.89"/><line class="cls-5" x1="60.51" y1="43.89" x2="60.89" y2="43.38"/><line class="cls-5" x1="61.15" y1="43.12" x2="61.53" y2="42.74"/><line class="cls-5" x1="61.66" y1="42.49" x2="62.04" y2="41.98"/><line class="cls-5" x1="62.17" y1="41.72" x2="62.55" y2="41.34"/><line class="cls-5" x1="62.8" y1="41.09" x2="63.18" y2="40.58"/><line class="cls-5" x1="63.31" y1="40.32" x2="63.69" y2="39.94"/><line class="cls-5" x1="63.95" y1="39.68" x2="64.33" y2="39.18"/><line class="cls-5" x1="64.46" y1="38.92" x2="64.84" y2="38.54"/><line class="cls-5" x1="65.09" y1="38.28" x2="65.35" y2="37.78"/><line class="cls-5" x1="65.6" y1="37.52" x2="65.98" y2="37.01"/><line class="cls-5" x1="66.11" y1="36.88" x2="66.49" y2="36.38"/><line class="cls-5" x1="66.75" y1="36.12" x2="67.13" y2="35.61"/><line class="cls-5" x1="78.33" y1="35.61" x2="78.71" y2="35.99"/><line class="cls-5" x1="78.97" y1="36.12" x2="79.48" y2="36.5"/><line class="cls-5" x1="79.6" y1="36.76" x2="80.11" y2="37.14"/><line class="cls-5" x1="80.37" y1="37.27" x2="80.88" y2="37.65"/><line class="cls-5" x1="81" y1="37.9" x2="81.51" y2="38.29"/><line class="cls-5" x1="81.77" y1="38.41" x2="82.28" y2="38.79"/><line class="cls-5" x1="82.41" y1="39.05" x2="82.91" y2="39.43"/><line class="cls-5" x1="83.17" y1="39.56" x2="83.68" y2="39.94"/><line class="cls-5" x1="83.8" y1="40.19" x2="84.31" y2="40.58"/><line class="cls-5" x1="84.57" y1="40.7" x2="85.08" y2="41.09"/><line class="cls-5" x1="85.21" y1="41.34" x2="85.71" y2="41.72"/><line class="cls-5" x1="85.97" y1="41.85" x2="86.35" y2="42.23"/><line class="cls-5" x1="86.61" y1="42.49" x2="87.11" y2="42.87"/><line class="cls-5" x1="87.37" y1="42.99" x2="87.75" y2="43.38"/><line class="cls-5" x1="88.01" y1="43.63" x2="88.39" y2="43.89"/><line class="cls-5" x1="88.39" y1="35.61" x2="88.01" y2="35.99"/><line class="cls-5" x1="87.75" y1="36.12" x2="87.37" y2="36.5"/><line class="cls-5" x1="87.11" y1="36.76" x2="86.61" y2="37.14"/><line class="cls-5" x1="86.35" y1="37.27" x2="85.97" y2="37.65"/><line class="cls-5" x1="85.72" y1="37.9" x2="85.21" y2="38.29"/><line class="cls-5" x1="85.08" y1="38.41" x2="84.57" y2="38.79"/><line class="cls-5" x1="84.31" y1="39.05" x2="83.81" y2="39.43"/><line class="cls-5" x1="83.68" y1="39.56" x2="83.17" y2="39.94"/><line class="cls-5" x1="82.91" y1="40.19" x2="82.41" y2="40.58"/><line class="cls-5" x1="82.28" y1="40.7" x2="81.77" y2="41.09"/><line class="cls-5" x1="81.51" y1="41.34" x2="81.01" y2="41.72"/><line class="cls-5" x1="80.88" y1="41.85" x2="80.37" y2="42.23"/><line class="cls-5" x1="80.11" y1="42.49" x2="79.6" y2="42.87"/><line class="cls-5" x1="79.48" y1="42.99" x2="78.97" y2="43.38"/><line class="cls-5" x1="78.71" y1="43.63" x2="78.33" y2="43.89"/><line class="cls-5" x1="57.84" y1="53.82" x2="60" y2="44.4"/><line class="cls-5" x1="57.84" y1="44.4" x2="60" y2="53.82"/><line class="cls-5" x1="57.84" y1="63.36" x2="58.09" y2="64.13"/><line class="cls-5" x1="58.22" y1="64.38" x2="58.35" y2="65.02"/><line class="cls-5" x1="58.35" y1="65.27" x2="58.6" y2="65.78"/><line class="cls-5" x1="58.6" y1="66.16" x2="58.73" y2="66.67"/><line class="cls-5" x1="58.86" y1="67.05" x2="58.98" y2="67.56"/><line class="cls-5" x1="59.11" y1="67.82" x2="59.24" y2="68.46"/><line class="cls-5" x1="59.36" y1="68.71" x2="59.49" y2="69.35"/><line class="cls-5" x1="59.62" y1="69.6" x2="59.75" y2="70.24"/><line class="cls-5" x1="59.75" y1="70.49" x2="60" y2="71.13"/><line class="cls-5" x1="57.84" y1="71.13" x2="58.09" y2="70.49"/><line class="cls-5" x1="58.22" y1="70.24" x2="58.35" y2="69.6"/><line class="cls-5" x1="58.35" y1="69.35" x2="58.6" y2="68.71"/><line class="cls-5" x1="58.6" y1="68.45" x2="58.73" y2="67.82"/><line class="cls-5" x1="58.86" y1="67.56" x2="58.98" y2="67.05"/><line class="cls-5" x1="59.11" y1="66.67" x2="59.24" y2="66.16"/><line class="cls-5" x1="59.36" y1="65.78" x2="59.49" y2="65.27"/><line class="cls-5" x1="59.62" y1="65.02" x2="59.75" y2="64.38"/><line class="cls-5" x1="59.75" y1="64.13" x2="60" y2="63.36"/><line class="cls-5" x1="60.51" y1="93.02" x2="60.89" y2="92.64"/><line class="cls-5" x1="61.15" y1="92.39" x2="61.53" y2="91.88"/><line class="cls-5" x1="61.66" y1="91.62" x2="62.04" y2="91.24"/><line class="cls-5" x1="62.17" y1="90.98" x2="62.55" y2="90.48"/><line class="cls-5" x1="62.8" y1="90.22" x2="63.18" y2="89.71"/><line class="cls-5" x1="63.31" y1="89.59" x2="63.69" y2="89.08"/><line class="cls-5" x1="63.95" y1="88.82" x2="64.33" y2="88.31"/><line class="cls-5" x1="64.46" y1="88.18" x2="64.84" y2="87.68"/><line class="cls-5" x1="65.09" y1="87.42" x2="65.35" y2="86.91"/><line class="cls-5" x1="65.6" y1="86.66" x2="65.98" y2="86.28"/><line class="cls-5" x1="66.11" y1="86.02" x2="66.49" y2="85.51"/><line class="cls-5" x1="66.75" y1="85.26" x2="67.13" y2="84.88"/><line class="cls-5" x1="60.51" y1="84.87" x2="60.89" y2="85.26"/><line class="cls-5" x1="61.15" y1="85.51" x2="61.53" y2="86.02"/><line class="cls-5" x1="61.66" y1="86.28" x2="62.04" y2="86.66"/><line class="cls-5" x1="62.17" y1="86.91" x2="62.55" y2="87.42"/><line class="cls-5" x1="62.8" y1="87.67" x2="63.18" y2="88.18"/><line class="cls-5" x1="63.31" y1="88.31" x2="63.69" y2="88.82"/><line class="cls-5" x1="63.95" y1="89.08" x2="64.33" y2="89.58"/><line class="cls-5" x1="64.46" y1="89.71" x2="64.84" y2="90.22"/><line class="cls-5" x1="65.09" y1="90.48" x2="65.35" y2="90.98"/><line class="cls-5" x1="65.6" y1="91.24" x2="65.98" y2="91.62"/><line class="cls-5" x1="66.11" y1="91.88" x2="66.49" y2="92.38"/><line class="cls-5" x1="66.75" y1="92.64" x2="67.13" y2="93.02"/><line class="cls-5" x1="78.33" y1="93.02" x2="78.71" y2="92.77"/><line class="cls-5" x1="78.97" y1="92.51" x2="79.48" y2="92.13"/><line class="cls-5" x1="79.6" y1="92" x2="80.11" y2="91.62"/><line class="cls-5" x1="80.37" y1="91.37" x2="80.88" y2="90.99"/><line class="cls-5" x1="81" y1="90.86" x2="81.51" y2="90.48"/><line class="cls-5" x1="81.77" y1="90.22" x2="82.28" y2="89.84"/><line class="cls-5" x1="82.41" y1="89.71" x2="82.91" y2="89.33"/><line class="cls-5" x1="83.17" y1="89.08" x2="83.68" y2="88.69"/><line class="cls-5" x1="83.8" y1="88.57" x2="84.31" y2="88.19"/><line class="cls-5" x1="84.57" y1="87.93" x2="85.08" y2="87.67"/><line class="cls-5" x1="85.21" y1="87.42" x2="85.71" y2="87.04"/><line class="cls-5" x1="85.97" y1="86.91" x2="86.35" y2="86.53"/><line class="cls-5" x1="86.61" y1="86.28" x2="87.11" y2="85.89"/><line class="cls-5" x1="87.37" y1="85.77" x2="87.75" y2="85.38"/><line class="cls-5" x1="88.01" y1="85.13" x2="88.39" y2="84.87"/><line class="cls-5" x1="78.33" y1="84.87" x2="78.71" y2="85.13"/><line class="cls-5" x1="78.97" y1="85.38" x2="79.48" y2="85.77"/><line class="cls-5" x1="79.6" y1="85.89" x2="80.11" y2="86.28"/><line class="cls-5" x1="80.37" y1="86.53" x2="80.88" y2="86.91"/><line class="cls-5" x1="81" y1="87.04" x2="81.51" y2="87.42"/><line class="cls-5" x1="81.77" y1="87.67" x2="82.28" y2="87.93"/><line class="cls-5" x1="82.41" y1="88.18" x2="82.91" y2="88.57"/><line class="cls-5" x1="83.17" y1="88.69" x2="83.68" y2="89.08"/><line class="cls-5" x1="83.8" y1="89.33" x2="84.31" y2="89.71"/><line class="cls-5" x1="84.57" y1="89.84" x2="85.08" y2="90.22"/><line class="cls-5" x1="85.21" y1="90.48" x2="85.71" y2="90.86"/><line class="cls-5" x1="85.97" y1="90.98" x2="86.35" y2="91.37"/><line class="cls-5" x1="86.61" y1="91.62" x2="87.11" y2="92"/><line class="cls-5" x1="87.37" y1="92.13" x2="87.75" y2="92.51"/><line class="cls-5" x1="88.01" y1="92.77" x2="88.39" y2="93.02"/><line class="cls-5" x1="57.84" y1="84.24" x2="57.96" y2="83.86"/><line class="cls-5" x1="58.09" y1="83.6" x2="58.22" y2="82.97"/><line class="cls-5" x1="58.35" y1="82.71" x2="58.47" y2="82.07"/><line class="cls-5" x1="58.47" y1="81.82" x2="58.73" y2="81.31"/><line class="cls-5" x1="58.73" y1="80.93" x2="58.86" y2="80.42"/><line class="cls-5" x1="58.98" y1="80.04" x2="59.11" y2="79.53"/><line class="cls-5" x1="59.24" y1="79.27" x2="59.36" y2="78.64"/><line class="cls-5" x1="59.49" y1="78.38" x2="59.62" y2="77.75"/><line class="cls-5" x1="59.62" y1="77.49" x2="59.75" y2="76.86"/><line class="cls-5" x1="59.87" y1="76.6" x2="60" y2="76.22"/><line class="cls-5" x1="57.84" y1="76.22" x2="57.96" y2="76.6"/><line class="cls-5" x1="58.09" y1="76.86" x2="58.22" y2="77.49"/><line class="cls-5" x1="58.35" y1="77.75" x2="58.47" y2="78.38"/><line class="cls-5" x1="58.47" y1="78.64" x2="58.73" y2="79.27"/><line class="cls-5" x1="58.73" y1="79.53" x2="58.86" y2="80.04"/><line class="cls-5" x1="58.98" y1="80.42" x2="59.11" y2="80.93"/><line class="cls-5" x1="59.24" y1="81.31" x2="59.36" y2="81.82"/><line class="cls-5" x1="59.49" y1="82.07" x2="59.62" y2="82.71"/><line class="cls-5" x1="59.62" y1="82.97" x2="59.75" y2="83.6"/><line class="cls-5" x1="59.87" y1="83.86" x2="60" y2="84.24"/><path class="cls-6" d="M44,25.3v-3h2.17v.36H44.44v.92H46.1v.35H44.44v1h1.84v.35Z"/><path class="cls-6" d="M49.24,25.3h-.37V23a1.76,1.76,0,0,1-.35.25,1.73,1.73,0,0,1-.39.19V23a2.38,2.38,0,0,0,.55-.36,1.25,1.25,0,0,0,.32-.4h.24Z"/><path class="cls-6" d="M50.19,23.82A2.57,2.57,0,0,1,50.3,23a1.06,1.06,0,0,1,.32-.5.85.85,0,0,1,.55-.18.82.82,0,0,1,.42.1.8.8,0,0,1,.3.28,1.56,1.56,0,0,1,.19.45,3.18,3.18,0,0,1,.07.71,2.78,2.78,0,0,1-.11.85,1,1,0,0,1-.33.5.8.8,0,0,1-.54.18.84.84,0,0,1-.69-.31A2,2,0,0,1,50.19,23.82Zm.38,0a1.82,1.82,0,0,0,.17,1,.51.51,0,0,0,.43.25.48.48,0,0,0,.42-.25,1.8,1.8,0,0,0,.18-1,1.82,1.82,0,0,0-.18-1,.5.5,0,0,0-.43-.24.46.46,0,0,0-.4.21A1.9,1.9,0,0,0,50.57,23.82Z"/><path class="cls-6" d="M52.53,24.51l.36-.05a.86.86,0,0,0,.22.45.55.55,0,0,0,.37.14.59.59,0,0,0,.44-.18.61.61,0,0,0,.18-.45.57.57,0,0,0-.16-.42.6.6,0,0,0-.43-.16,1,1,0,0,0-.26,0l0-.33h.06a.73.73,0,0,0,.43-.13.42.42,0,0,0,.19-.38.45.45,0,0,0-.14-.33.48.48,0,0,0-.36-.13.52.52,0,0,0-.36.13.74.74,0,0,0-.18.41l-.37-.07a.94.94,0,0,1,.31-.57.88.88,0,0,1,.6-.21,1,1,0,0,1,.45.11.75.75,0,0,1,.32.29.76.76,0,0,1,.11.38.66.66,0,0,1-.11.36.72.72,0,0,1-.31.25.71.71,0,0,1,.42.26.83.83,0,0,1,.14.48.89.89,0,0,1-.28.67,1,1,0,0,1-.73.27,1,1,0,0,1-.66-.23A.91.91,0,0,1,52.53,24.51Z"/><path class="cls-6" d="M54.68,25.35l.88-3.11h.29L55,25.35Z"/><path class="cls-6" d="M58,25v.35H56A.78.78,0,0,1,56,25a1.57,1.57,0,0,1,.24-.4,4.65,4.65,0,0,1,.49-.45,4.54,4.54,0,0,0,.66-.64.7.7,0,0,0,.17-.44.5.5,0,0,0-.15-.37.59.59,0,0,0-.41-.15.57.57,0,0,0-.43.16.57.57,0,0,0-.16.44l-.38,0a.92.92,0,0,1,.29-.65,1,1,0,0,1,.68-.22,1,1,0,0,1,.69.24.79.79,0,0,1,.25.6.84.84,0,0,1-.07.35,1.27,1.27,0,0,1-.25.37,5.48,5.48,0,0,1-.57.53,3.88,3.88,0,0,0-.42.38.74.74,0,0,0-.16.2Z"/><path class="cls-6" d="M58.36,23.82a2.85,2.85,0,0,1,.11-.86,1,1,0,0,1,.33-.5.8.8,0,0,1,.54-.18.88.88,0,0,1,.43.1.8.8,0,0,1,.3.28,1.32,1.32,0,0,1,.18.45,2.68,2.68,0,0,1,.07.71,2.5,2.5,0,0,1-.11.85,1,1,0,0,1-.32.5.85.85,0,0,1-.55.18.81.81,0,0,1-.68-.31A2,2,0,0,1,58.36,23.82Zm.38,0a1.93,1.93,0,0,0,.17,1,.49.49,0,0,0,.86,0,1.82,1.82,0,0,0,.17-1,1.84,1.84,0,0,0-.17-1,.52.52,0,0,0-.43-.24.48.48,0,0,0-.41.21A1.9,1.9,0,0,0,58.74,23.82Z"/><path class="cls-6" d="M60.7,24.51l.37-.05a.79.79,0,0,0,.21.45.57.57,0,0,0,.38.14.6.6,0,0,0,.44-.18.61.61,0,0,0,.18-.45.57.57,0,0,0-.17-.42.57.57,0,0,0-.42-.16.92.92,0,0,0-.26,0l0-.33h.06a.68.68,0,0,0,.42-.13.4.4,0,0,0,.19-.38.42.42,0,0,0-.14-.33.48.48,0,0,0-.35-.13.52.52,0,0,0-.36.13.63.63,0,0,0-.18.41l-.37-.07a.87.87,0,0,1,.9-.78.94.94,0,0,1,.45.11.7.7,0,0,1,.32.29.76.76,0,0,1,.11.38.65.65,0,0,1-.1.36.78.78,0,0,1-.31.25.71.71,0,0,1,.41.26.76.76,0,0,1,.15.48.9.9,0,0,1-.29.67,1,1,0,0,1-.73.27.91.91,0,0,1-.65-.23A.87.87,0,0,1,60.7,24.51Z"/><path class="cls-6" d="M156.11,13.21,154.2,1.11h.38Zm-.26.12.26-.12L154.2,1.11Z"/><path class="cls-7" d="M156.11,13.21,154.2,1.11h.38Zm-.26.12.26-.12L154.2,1.11Z"/><line class="cls-5" x1="157.38" y1="24.16" x2="155.98" y2="13.21"/><path class="cls-6" d="M156.87,13.21l-1.27-7H156Zm-.38,0h.38l-1.27-7Z"/><path class="cls-7" d="M156.87,13.21l-1.27-7H156Zm-.38,0h.38l-1.27-7Z"/><path class="cls-6" d="M155.47,13.33,154.2,6.46h.38Zm-.38,0h.38L154.2,6.46Z"/><path class="cls-7" d="M155.47,13.33,154.2,6.46h.38Zm-.38,0h.38L154.2,6.46Z"/><line class="cls-5" x1="157.13" y1="24.28" x2="156.87" y2="22.88"/><line class="cls-5" x1="147.71" y1="14.74" x2="145.93" y2="14.99"/><line class="cls-5" x1="166.17" y1="12.32" x2="164.25" y2="12.57"/><line class="cls-5" x1="166.17" y1="11.93" x2="145.8" y2="14.61"/><g class="cls-8"><path class="cls-5" d="M163.43,12.15a7.57,7.57,0,1,0-6.52,8.5,7.57,7.57,0,0,0,6.52-8.5"/><path class="cls-5" d="M162.92,12.22a7.07,7.07,0,1,0-6.08,7.93,7.06,7.06,0,0,0,6.08-7.93"/></g><path class="cls-6" d="M97.89,46.3v-3h2.17v.35H98.28v.92H100v.36H98.28v1h1.85v.35Z"/><path class="cls-6" d="M103.09,46.3h-.37V44a2.12,2.12,0,0,1-.35.26,3.44,3.44,0,0,1-.39.19V44a2.1,2.1,0,0,0,.54-.35,1.27,1.27,0,0,0,.33-.4h.24Z"/><path class="cls-6" d="M104,44.82a2.9,2.9,0,0,1,.11-.86,1.13,1.13,0,0,1,.33-.5.8.8,0,0,1,.54-.17.94.94,0,0,1,.43.09.89.89,0,0,1,.3.28,1.69,1.69,0,0,1,.19.45,3.35,3.35,0,0,1,.06.71,2.82,2.82,0,0,1-.1.85,1.19,1.19,0,0,1-.33.51.9.9,0,0,1-1.23-.14A2,2,0,0,1,104,44.82Zm.38,0a1.87,1.87,0,0,0,.18,1,.49.49,0,0,0,.42.24.51.51,0,0,0,.43-.24,3,3,0,0,0,0-2,.51.51,0,0,0-.43-.24.47.47,0,0,0-.41.22A2,2,0,0,0,104.41,44.82Z"/><path class="cls-6" d="M107.76,46.3h-.37V44a1.77,1.77,0,0,1-.35.26,3.44,3.44,0,0,1-.39.19V44a2.1,2.1,0,0,0,.54-.35,1.27,1.27,0,0,0,.33-.4h.24Z"/><path class="cls-6" d="M108.53,46.36l.87-3.11h.3l-.87,3.11Z"/><path class="cls-6" d="M111.81,46v.35h-2a.7.7,0,0,1,.05-.25,1.29,1.29,0,0,1,.24-.4,3.62,3.62,0,0,1,.48-.46,4.82,4.82,0,0,0,.67-.63.82.82,0,0,0,.17-.45.47.47,0,0,0-.16-.37.56.56,0,0,0-.41-.15.55.55,0,0,0-.42.16.63.63,0,0,0-.17.44l-.37,0a.9.9,0,0,1,.29-.64,1,1,0,0,1,.68-.22,1,1,0,0,1,.69.23.82.82,0,0,1,.25.6.85.85,0,0,1-.08.35,1.22,1.22,0,0,1-.24.37,4.56,4.56,0,0,1-.57.53l-.43.38a1.3,1.3,0,0,0-.15.2Z"/><path class="cls-6" d="M112.21,44.82a2.6,2.6,0,0,1,.11-.86,1.11,1.11,0,0,1,.32-.5.84.84,0,0,1,.55-.17.93.93,0,0,1,.42.09.81.81,0,0,1,.3.28,1.42,1.42,0,0,1,.19.45,2.73,2.73,0,0,1,.07.71,2.78,2.78,0,0,1-.11.85,1,1,0,0,1-.33.51.8.8,0,0,1-.54.18.81.81,0,0,1-.68-.32A2,2,0,0,1,112.21,44.82Zm.38,0a2,2,0,0,0,.17,1,.51.51,0,0,0,.86,0,3,3,0,0,0,0-2,.53.53,0,0,0-.44-.24.46.46,0,0,0-.4.22A1.86,1.86,0,0,0,112.59,44.82Z"/><path class="cls-6" d="M115.93,46.3h-.36V44a2.12,2.12,0,0,1-.35.26l-.39.19V44a2.5,2.5,0,0,0,.54-.35,1.62,1.62,0,0,0,.33-.4h.23Z"/><path class="cls-6" d="M98,85.51l-.8-3h.41l.46,2c0,.21.09.41.13.62.07-.32.12-.51.13-.56l.57-2h.48L99.83,84a8.41,8.41,0,0,1,.24,1.07q.06-.28.15-.66l.47-1.93h.4l-.82,3h-.39l-.63-2.29c-.06-.19-.09-.31-.1-.35,0,.13-.06.25-.08.35l-.64,2.29Z"/><path class="cls-6" d="M103.87,85.51h-.37V83.16a2.12,2.12,0,0,1-.35.25,1.73,1.73,0,0,1-.39.19v-.36a1.86,1.86,0,0,0,.54-.35,1.27,1.27,0,0,0,.33-.4h.24Z"/><path class="cls-6" d="M104.81,84a2.81,2.81,0,0,1,.11-.86,1.1,1.1,0,0,1,.33-.5.8.8,0,0,1,.54-.18.83.83,0,0,1,.43.1.8.8,0,0,1,.3.28,1.56,1.56,0,0,1,.19.45,3.28,3.28,0,0,1,.06.71,2.87,2.87,0,0,1-.1.85,1.15,1.15,0,0,1-.33.5.83.83,0,0,1-.55.18.82.82,0,0,1-.68-.31A2,2,0,0,1,104.81,84Zm.38,0a1.8,1.8,0,0,0,.18,1,.5.5,0,0,0,.42.25.52.52,0,0,0,.43-.25,1.8,1.8,0,0,0,.18-1,1.82,1.82,0,0,0-.18-1,.51.51,0,0,0-.43-.24.48.48,0,0,0-.41.21A2,2,0,0,0,105.19,84Z"/><path class="cls-6" d="M107.17,82.9v-.36h2v.29a4,4,0,0,0-.57.81,4.87,4.87,0,0,0-.43,1,3.5,3.5,0,0,0-.15.83h-.38a4.74,4.74,0,0,1,.14-.86,4.48,4.48,0,0,1,.39-1,3.66,3.66,0,0,1,.53-.78Z"/><path class="cls-6" d="M109.31,85.56l.87-3.11h.3l-.87,3.11Z"/><path class="cls-6" d="M112.59,85.15v.36h-2a.57.57,0,0,1,0-.26,1.42,1.42,0,0,1,.24-.4,3.64,3.64,0,0,1,.48-.45,4.23,4.23,0,0,0,.67-.64.79.79,0,0,0,.17-.44.47.47,0,0,0-.16-.37.56.56,0,0,0-.41-.15.55.55,0,0,0-.42.16.61.61,0,0,0-.17.44l-.37,0a.92.92,0,0,1,.29-.65,1,1,0,0,1,.68-.22,1,1,0,0,1,.69.24.82.82,0,0,1,.25.59.9.9,0,0,1-.08.36,1.22,1.22,0,0,1-.24.37,6.87,6.87,0,0,1-.57.53l-.43.37a2.08,2.08,0,0,0-.15.2Z"/><path class="cls-6" d="M113,84a2.81,2.81,0,0,1,.11-.86,1,1,0,0,1,.32-.5.85.85,0,0,1,.55-.18.82.82,0,0,1,.42.1.68.68,0,0,1,.3.28,1.33,1.33,0,0,1,.19.45A2.68,2.68,0,0,1,115,84a2.83,2.83,0,0,1-.11.85,1.06,1.06,0,0,1-.32.5.85.85,0,0,1-.55.18.81.81,0,0,1-.68-.31A2,2,0,0,1,113,84Zm.38,0a1.93,1.93,0,0,0,.17,1,.49.49,0,0,0,.86,0,1.93,1.93,0,0,0,.17-1,2,2,0,0,0-.17-1,.53.53,0,0,0-.44-.24.48.48,0,0,0-.4.21A1.88,1.88,0,0,0,113.37,84Z"/><path class="cls-6" d="M115.35,82.9v-.36h2v.29a3.37,3.37,0,0,0-.57.81,4.91,4.91,0,0,0-.44,1,4.1,4.1,0,0,0-.14.83h-.38a3.46,3.46,0,0,1,.14-.86,5,5,0,0,1,.38-1,4.08,4.08,0,0,1,.53-.78Z"/><path class="cls-6" d="M32,66.16v-3h2.17v.35H32.35v.92H34v.36H32.35v1h1.84v.35Z"/><path class="cls-6" d="M37.15,66.16h-.37V63.81a2.12,2.12,0,0,1-.35.26,3.44,3.44,0,0,1-.39.19V63.9a2.39,2.39,0,0,0,.54-.35,1.29,1.29,0,0,0,.33-.41h.24Z"/><path class="cls-6" d="M38.1,64.68a2.94,2.94,0,0,1,.1-.86,1.22,1.22,0,0,1,.33-.5.82.82,0,0,1,.54-.18.94.94,0,0,1,.43.1.89.89,0,0,1,.3.28A1.56,1.56,0,0,1,40,64a3.25,3.25,0,0,1,.07.71,2.78,2.78,0,0,1-.11.85,1.11,1.11,0,0,1-.33.51.81.81,0,0,1-.55.17.83.83,0,0,1-.68-.31A2,2,0,0,1,38.1,64.68Zm.37,0a1.87,1.87,0,0,0,.18,1,.5.5,0,0,0,.85,0,2.81,2.81,0,0,0,0-2,.51.51,0,0,0-.43-.24.48.48,0,0,0-.41.22A2,2,0,0,0,38.47,64.68Z"/><path class="cls-6" d="M41.61,66.16v-.72h-1.3V65.1l1.37-1.94H42V65.1h.41v.34H42v.72Zm0-1.06V63.75l-.94,1.35Z"/><path class="cls-6" d="M42.59,66.21l.87-3.1h.3l-.87,3.1Z"/><path class="cls-6" d="M45.87,65.81v.35h-2a.53.53,0,0,1,0-.25,1.29,1.29,0,0,1,.24-.4,3.23,3.23,0,0,1,.49-.46,5.23,5.23,0,0,0,.66-.63.82.82,0,0,0,.17-.45.47.47,0,0,0-.16-.37.56.56,0,0,0-.41-.15.55.55,0,0,0-.42.16.58.58,0,0,0-.16.44L44,64a.88.88,0,0,1,.29-.64,1,1,0,0,1,.68-.23,1,1,0,0,1,.69.24.79.79,0,0,1,.25.6.84.84,0,0,1-.07.35,1.51,1.51,0,0,1-.25.37,4.56,4.56,0,0,1-.57.53,5.42,5.42,0,0,0-.42.38.74.74,0,0,0-.16.2Z"/><path class="cls-6" d="M46.27,64.68a2.9,2.9,0,0,1,.11-.86,1,1,0,0,1,.33-.5.8.8,0,0,1,.54-.18.93.93,0,0,1,.42.1.84.84,0,0,1,.31.28,1.32,1.32,0,0,1,.18.45,2.73,2.73,0,0,1,.07.71,2.78,2.78,0,0,1-.11.85,1.09,1.09,0,0,1-.32.51.84.84,0,0,1-.55.17.81.81,0,0,1-.68-.31A2,2,0,0,1,46.27,64.68Zm.38,0a2,2,0,0,0,.17,1,.51.51,0,0,0,.86,0,3,3,0,0,0,0-2,.52.52,0,0,0-.43-.24.47.47,0,0,0-.41.22A1.86,1.86,0,0,0,46.65,64.68Z"/><path class="cls-6" d="M49.79,66.16v-.72H48.48V65.1l1.38-1.94h.3V65.1h.4v.34h-.4v.72Zm0-1.06V63.75l-.94,1.35Z"/><path class="cls-6" d="M44.56,106.51l-.8-3h.41l.45,2c.05.2.1.41.13.61.08-.32.12-.5.14-.55l.57-2h.48l.43,1.52a6.78,6.78,0,0,1,.23,1.06c0-.19.09-.4.15-.65l.48-1.93h.39l-.82,3h-.38l-.64-2.29-.09-.35a3.46,3.46,0,0,1-.09.35L45,106.51Z"/><path class="cls-6" d="M50.4,106.51H50v-2.35a1.77,1.77,0,0,1-.35.26c-.14.08-.27.14-.38.19v-.36a2.5,2.5,0,0,0,.54-.35,1.62,1.62,0,0,0,.33-.4h.23Z"/><path class="cls-6" d="M51.35,105a2.9,2.9,0,0,1,.11-.86,1.11,1.11,0,0,1,.32-.5.84.84,0,0,1,.55-.17.93.93,0,0,1,.42.09.84.84,0,0,1,.31.28,1.69,1.69,0,0,1,.18.45,2.73,2.73,0,0,1,.07.71,2.78,2.78,0,0,1-.11.85,1.09,1.09,0,0,1-.32.51.85.85,0,0,1-.55.18.81.81,0,0,1-.68-.32A2,2,0,0,1,51.35,105Zm.38,0a2,2,0,0,0,.17,1,.51.51,0,0,0,.86,0,3,3,0,0,0,0-2,.53.53,0,0,0-.44-.24.46.46,0,0,0-.4.22A1.86,1.86,0,0,0,51.73,105Z"/><path class="cls-6" d="M53.69,105.73l.38,0a.75.75,0,0,0,.2.43.57.57,0,0,0,.38.14.59.59,0,0,0,.45-.2.72.72,0,0,0,.19-.53.68.68,0,0,0-.18-.5.63.63,0,0,0-.47-.18.61.61,0,0,0-.32.08.56.56,0,0,0-.22.21l-.35,0,.29-1.54h1.5v.35h-1.2l-.17.81a1,1,0,0,1,.57-.19.9.9,0,0,1,.67.27,1,1,0,0,1,.27.7,1.09,1.09,0,0,1-.24.71,1,1,0,0,1-.79.37,1,1,0,0,1-.67-.23A.91.91,0,0,1,53.69,105.73Z"/><path class="cls-6" d="M55.85,106.57l.87-3.11H57l-.87,3.11Z"/><path class="cls-6" d="M59.13,106.16v.35h-2a.69.69,0,0,1,0-.25,1.33,1.33,0,0,1,.25-.4,3.62,3.62,0,0,1,.48-.46,4.11,4.11,0,0,0,.66-.63.75.75,0,0,0,.17-.45.5.5,0,0,0-.15-.37.65.65,0,0,0-.84,0,.62.62,0,0,0-.16.44l-.38,0a.94.94,0,0,1,.29-.64,1,1,0,0,1,.69-.22,1,1,0,0,1,.68.23.79.79,0,0,1,.25.6.84.84,0,0,1-.07.35,1.27,1.27,0,0,1-.25.37,5.11,5.11,0,0,1-.56.53,4.5,4.5,0,0,0-.43.38,1.4,1.4,0,0,0-.16.2Z"/><path class="cls-6" d="M59.52,105a2.9,2.9,0,0,1,.11-.86,1.22,1.22,0,0,1,.33-.5.8.8,0,0,1,.54-.17.94.94,0,0,1,.43.09.89.89,0,0,1,.3.28,1.69,1.69,0,0,1,.19.45,3.35,3.35,0,0,1,.06.71,2.82,2.82,0,0,1-.1.85,1.19,1.19,0,0,1-.33.51.9.9,0,0,1-1.23-.14A2,2,0,0,1,59.52,105Zm.38,0a1.87,1.87,0,0,0,.18,1,.49.49,0,0,0,.42.24.51.51,0,0,0,.43-.24,2.81,2.81,0,0,0,0-2,.51.51,0,0,0-.43-.24.47.47,0,0,0-.41.22A2,2,0,0,0,59.9,105Z"/><path class="cls-6" d="M61.86,105.73l.39,0a.7.7,0,0,0,.2.43.56.56,0,0,0,.38.14.62.62,0,0,0,.45-.2.76.76,0,0,0,.18-.53.68.68,0,0,0-.18-.5.6.6,0,0,0-.46-.18.57.57,0,0,0-.32.08.58.58,0,0,0-.23.21l-.34,0,.29-1.54h1.49v.35h-1.2l-.16.81a1,1,0,0,1,.57-.19.9.9,0,0,1,.66.27,1,1,0,0,1,.27.7,1.09,1.09,0,0,1-.24.71,1,1,0,0,1-.78.37,1,1,0,0,1-.67-.23A.87.87,0,0,1,61.86,105.73Z"/><path class="cls-6" d="M5.14,68.15h-3v-.4H4.78V66.27h.36Z"/><path class="cls-6" d="M5.14,66.12,2.13,65v-.43l3-1.23v.45l-.91.35v1.26l.91.33ZM3.9,65.26v-1l-.83.31a5,5,0,0,1-.62.21,4.11,4.11,0,0,1,.57.17Z"/><path class="cls-6" d="M4,61.59H3.6V60.31H4.72a2.52,2.52,0,0,1,.35.61,1.73,1.73,0,0,1,.12.64,1.78,1.78,0,0,1-.19.8,1.33,1.33,0,0,1-.55.55,1.77,1.77,0,0,1-.8.18,1.89,1.89,0,0,1-.82-.18,1.23,1.23,0,0,1-.57-.53,1.67,1.67,0,0,1-.18-.79,1.55,1.55,0,0,1,.1-.59,1,1,0,0,1,.3-.42A1.24,1.24,0,0,1,3,60.36l.1.36a1.21,1.21,0,0,0-.36.16.7.7,0,0,0-.21.29,1,1,0,0,0-.08.42,1.36,1.36,0,0,0,.08.47,1,1,0,0,0,.22.32,1.17,1.17,0,0,0,.3.19,1.68,1.68,0,0,0,.6.11,1.42,1.42,0,0,0,.68-.14.86.86,0,0,0,.4-.4,1.35,1.35,0,0,0,.13-.56,1.32,1.32,0,0,0-.1-.51,1.73,1.73,0,0,0-.21-.37H4Z"/><path class="cls-6" d="M3.67,59.85a1.62,1.62,0,0,1-1.17-.41,1.49,1.49,0,0,1-.22-1.78,1.18,1.18,0,0,1,.55-.51A1.79,1.79,0,0,1,3.64,57a1.74,1.74,0,0,1,.82.19,1.18,1.18,0,0,1,.54.52,1.49,1.49,0,0,1,0,1.49,1.24,1.24,0,0,1-.56.5A1.6,1.6,0,0,1,3.67,59.85Zm0-.41a1.16,1.16,0,0,0,.85-.3,1,1,0,0,0,0-1.47,1.29,1.29,0,0,0-.89-.29,1.48,1.48,0,0,0-.65.13.93.93,0,0,0-.42.36,1,1,0,0,0-.15.53,1,1,0,0,0,.29.73A1.31,1.31,0,0,0,3.68,59.44Z"/><path class="cls-6" d="M153.69,91.12l-3-1.15v-.43l3-1.23v.45l-.91.35v1.26l.91.33Zm-1.24-.87v-1l-.83.32-.62.21a4,4,0,0,1,.57.16Z"/><path class="cls-6" d="M153.69,87.43l-2.18.83v-.39l1.31-.47.43-.14-.41-.14-1.33-.48v-.38l2.18.83Z"/><path class="cls-6" d="M153.69,85.83h-.42v-.42h.42Z"/><path class="cls-6" d="M152.84,83.76l-.05-.36a.75.75,0,0,0,.47-.13.43.43,0,0,0,.13-.32.56.56,0,0,0-.07-.26.4.4,0,0,0-.19-.15,1.55,1.55,0,0,0-.38,0h-2.07v-.4h2a1.53,1.53,0,0,1,.59.1.65.65,0,0,1,.31.28,1,1,0,0,1,.11.47.81.81,0,0,1-.23.61A.94.94,0,0,1,152.84,83.76Z"/><path class="cls-6" d="M152.23,81.57a1.64,1.64,0,0,1-1.18-.4,1.36,1.36,0,0,1-.42-1,1.51,1.51,0,0,1,.2-.76,1.35,1.35,0,0,1,.55-.51,1.92,1.92,0,0,1,.81-.17,1.83,1.83,0,0,1,.82.18,1.26,1.26,0,0,1,.54.53,1.49,1.49,0,0,1,0,1.49,1.27,1.27,0,0,1-.55.5A1.65,1.65,0,0,1,152.23,81.57Zm0-.41a1.2,1.2,0,0,0,.86-.29,1,1,0,0,0,.31-.73,1,1,0,0,0-.32-.74,1.29,1.29,0,0,0-.89-.29,1.56,1.56,0,0,0-.64.12,1,1,0,0,0-.58.9,1,1,0,0,0,.29.73A1.33,1.33,0,0,0,152.23,81.16Z"/><path class="cls-6" d="M153.69,78.52l-3-1.16v-.43l3-1.23v.46l-.91.35v1.26l.91.33Zm-1.24-.87v-1l-.83.31c-.25.1-.46.17-.62.22a4,4,0,0,1,.57.16Z"/><path class="cls-6" d="M153.37,73.11a3.37,3.37,0,0,0,.28-.51l.27.11a2.16,2.16,0,0,1-.37.65,1.5,1.5,0,0,1,0,1.48,1.29,1.29,0,0,1-.55.51,1.89,1.89,0,0,1-1.61,0,1.23,1.23,0,0,1-.56-.52,1.43,1.43,0,0,1-.19-.74,1.36,1.36,0,0,1,.2-.75,1.29,1.29,0,0,1,.55-.51,1.9,1.9,0,0,1,1.47-.06A1.38,1.38,0,0,1,153.37,73.11Zm-.51.87a1.4,1.4,0,0,1,.29-.57,1.28,1.28,0,0,0-1-.35,1.54,1.54,0,0,0-.63.13.9.9,0,0,0-.43.36,1,1,0,0,0-.15.54,1,1,0,0,0,.31.74,1.27,1.27,0,0,0,.91.29,1.3,1.3,0,0,0,.9-.29,1,1,0,0,0,.31-.74,1,1,0,0,0-.08-.4,1.13,1.13,0,0,0-.17.39Z"/><path class="cls-6" d="M150.68,70.15v-.4h1.74a2,2,0,0,1,.72.1.85.85,0,0,1,.43.37,1.32,1.32,0,0,1,.17.7,1.38,1.38,0,0,1-.15.69.8.8,0,0,1-.42.39,2.12,2.12,0,0,1-.75.11h-1.74v-.4h1.74a1.61,1.61,0,0,0,.57-.07.55.55,0,0,0,.29-.25,1,1,0,0,0-.1-1.06,1.17,1.17,0,0,0-.76-.18Z"/><path class="cls-6" d="M153.69,69h-3v-.4h3Z"/><path class="cls-6" d="M153.69,67.92h-3v-.41L153,65.94h-2.36v-.39h3V66l-2.36,1.58h2.36Z"/><path class="cls-6" d="M152.72,63.85l0-.37a.81.81,0,0,0,.37-.13.6.6,0,0,0,.23-.3,1.11,1.11,0,0,0,.09-.46,1.25,1.25,0,0,0-.06-.4.59.59,0,0,0-.19-.26.41.41,0,0,0-.26-.09.36.36,0,0,0-.24.09.58.58,0,0,0-.18.27c0,.08-.08.26-.15.53a2.75,2.75,0,0,1-.19.58.68.68,0,0,1-.28.32.67.67,0,0,1-.37.11.77.77,0,0,1-.43-.13.83.83,0,0,1-.3-.38,1.58,1.58,0,0,1-.1-.55,1.55,1.55,0,0,1,.11-.59.83.83,0,0,1,.32-.39.9.9,0,0,1,.47-.15l0,.38a.59.59,0,0,0-.43.21.79.79,0,0,0-.15.52.91.91,0,0,0,.13.53.41.41,0,0,0,.32.17.34.34,0,0,0,.27-.12,1.59,1.59,0,0,0,.21-.6,4.1,4.1,0,0,1,.2-.67.91.91,0,0,1,.3-.38.73.73,0,0,1,.43-.13.82.82,0,0,1,.45.14.91.91,0,0,1,.33.39,1.37,1.37,0,0,1,.12.58,1.78,1.78,0,0,1-.12.69,1,1,0,0,1-.9.59Z"/><path class="cls-6" d="M153.69,60.91h-3V58.73H151v1.78H152V58.85h.35v1.66h1V58.66h.36Z"/><path class="cls-6" d="M152.64,56l.09-.4a1.35,1.35,0,0,1,.75.45,1.26,1.26,0,0,1,.26.8,1.47,1.47,0,0,1-.2.79,1.2,1.2,0,0,1-.57.46,2,2,0,0,1-.81.16,1.8,1.8,0,0,1-.82-.18,1.24,1.24,0,0,1-.53-.51,1.49,1.49,0,0,1-.18-.73,1.27,1.27,0,0,1,.23-.76,1.21,1.21,0,0,1,.65-.43l.09.4a.89.89,0,0,0-.48.3.8.8,0,0,0-.15.5,1,1,0,0,0,.17.58,1,1,0,0,0,.44.33,2,2,0,0,0,1.25,0,.88.88,0,0,0,.43-.35,1,1,0,0,0,.14-.51.87.87,0,0,0-.19-.57A1,1,0,0,0,152.64,56Z"/><path class="cls-6" d="M152.23,55.2a1.64,1.64,0,0,1-1.18-.4,1.37,1.37,0,0,1-.42-1,1.48,1.48,0,0,1,.2-.75,1.35,1.35,0,0,1,.55-.51,1.92,1.92,0,0,1,.81-.17,1.83,1.83,0,0,1,.82.18,1.29,1.29,0,0,1,.54.52,1.46,1.46,0,0,1,.19.74,1.37,1.37,0,0,1-.21.75A1.23,1.23,0,0,1,153,55,1.65,1.65,0,0,1,152.23,55.2Zm0-.41a1.24,1.24,0,0,0,.86-.29,1,1,0,0,0,.31-.73,1,1,0,0,0-.32-.74,1.24,1.24,0,0,0-.89-.29,1.56,1.56,0,0,0-.64.12.92.92,0,0,0-.43.37.94.94,0,0,0-.15.53,1.05,1.05,0,0,0,.29.73A1.33,1.33,0,0,0,152.23,54.79Z"/><path class="cls-6" d="M153.69,50.58h-3v-.4h3Z"/><path class="cls-6" d="M153.69,49.5h-3v-.4h2.65V47.62h.36Z"/><path class="cls-6" d="M153.69,47.16h-3v-.4h2.65V45.28h.36Z"/><path class="cls-6" d="M153.69,45.14l-3-1.16v-.42l3-1.23v.45l-.91.35v1.26l.91.33Zm-1.24-.87v-1l-.83.32-.62.21a4,4,0,0,1,.57.16Z"/><path class="cls-6" d="M97.63,24.28v-3h2.18v.36H98v.92h1.66v.35H98v1h1.85v.35Z"/><path class="cls-6" d="M102.83,24.28h-.37V21.93a1.76,1.76,0,0,1-.35.25,1.91,1.91,0,0,1-.38.19V22a2.54,2.54,0,0,0,.54-.36,1.46,1.46,0,0,0,.33-.4h.23Z"/><path class="cls-6" d="M103.78,22.8a2.85,2.85,0,0,1,.11-.86,1.06,1.06,0,0,1,.32-.5.85.85,0,0,1,.55-.18.93.93,0,0,1,.42.1.68.68,0,0,1,.3.28,1.33,1.33,0,0,1,.19.45,2.68,2.68,0,0,1,.07.71,2.78,2.78,0,0,1-.11.85,1.09,1.09,0,0,1-.32.51.9.9,0,0,1-.55.17.81.81,0,0,1-.68-.31A2,2,0,0,1,103.78,22.8Zm.38,0a1.93,1.93,0,0,0,.17,1,.49.49,0,0,0,.86,0,1.93,1.93,0,0,0,.17-1,2,2,0,0,0-.17-1,.53.53,0,0,0-.44-.24.48.48,0,0,0-.4.21A1.9,1.9,0,0,0,104.16,22.8Z"/><path class="cls-6" d="M108.05,23.93v.35h-2a.59.59,0,0,1,0-.26,1.37,1.37,0,0,1,.24-.39,3.21,3.21,0,0,1,.49-.46,4.54,4.54,0,0,0,.66-.64.76.76,0,0,0,.17-.44.47.47,0,0,0-.16-.37.55.55,0,0,0-.4-.15.56.56,0,0,0-.43.16.58.58,0,0,0-.16.44l-.38,0a.88.88,0,0,1,.29-.64,1,1,0,0,1,.68-.23,1,1,0,0,1,.69.24.79.79,0,0,1,.25.6.84.84,0,0,1-.07.35,1.27,1.27,0,0,1-.25.37,5.48,5.48,0,0,1-.57.53,3.88,3.88,0,0,0-.42.38.74.74,0,0,0-.16.2Z"/><path class="cls-6" d="M108.28,24.33l.87-3.11h.29l-.87,3.11Z"/><path class="cls-6" d="M111.56,23.93v.35h-2a.78.78,0,0,1,0-.26,1.22,1.22,0,0,1,.25-.39,3.07,3.07,0,0,1,.48-.46,3.67,3.67,0,0,0,.66-.64.7.7,0,0,0,.17-.44.5.5,0,0,0-.15-.37.65.65,0,0,0-.84,0,.58.58,0,0,0-.16.44l-.38,0a.92.92,0,0,1,.29-.64,1,1,0,0,1,.69-.23,1,1,0,0,1,.68.24.79.79,0,0,1,.25.6.84.84,0,0,1-.07.35,1.27,1.27,0,0,1-.25.37,6.31,6.31,0,0,1-.56.53,3.4,3.4,0,0,0-.43.38,1,1,0,0,0-.16.2Z"/><path class="cls-6" d="M112,22.8a2.85,2.85,0,0,1,.11-.86,1.07,1.07,0,0,1,.33-.5.8.8,0,0,1,.54-.18.94.94,0,0,1,.43.1.8.8,0,0,1,.3.28,1.56,1.56,0,0,1,.19.45,3.28,3.28,0,0,1,.06.71,2.82,2.82,0,0,1-.1.85,1.19,1.19,0,0,1-.33.51.88.88,0,0,1-.55.17.82.82,0,0,1-.68-.31A2,2,0,0,1,112,22.8Zm.38,0a1.8,1.8,0,0,0,.18,1,.48.48,0,0,0,.42.25.5.5,0,0,0,.43-.25,1.82,1.82,0,0,0,.17-1,1.84,1.84,0,0,0-.17-1,.51.51,0,0,0-.43-.24.48.48,0,0,0-.41.21A2,2,0,0,0,112.33,22.8Z"/><path class="cls-6" d="M116.23,23.93v.35h-2a.78.78,0,0,1,0-.26,1.7,1.7,0,0,1,.25-.39,3.07,3.07,0,0,1,.48-.46,3.67,3.67,0,0,0,.66-.64.72.72,0,0,0,.18-.44.51.51,0,0,0-.16-.37.65.65,0,0,0-.84,0,.62.62,0,0,0-.16.44l-.38,0a.93.93,0,0,1,.3-.64,1,1,0,0,1,.68-.23.94.94,0,0,1,.68.24.79.79,0,0,1,.26.6.85.85,0,0,1-.08.35,1.45,1.45,0,0,1-.24.37c-.12.13-.31.3-.57.53a4.37,4.37,0,0,0-.43.38,1.56,1.56,0,0,0-.16.2Z"/><path class="cls-6" d="M98,107.4l-.79-3h.4l.46,2c0,.2.09.41.13.61.07-.32.12-.5.13-.55l.57-2h.48l.44,1.52a10.24,10.24,0,0,1,.23,1.06c0-.19.09-.4.15-.65l.47-1.93h.4l-.82,3h-.39l-.63-2.29c0-.19-.09-.31-.1-.35l-.08.35-.64,2.29Z"/><path class="cls-6" d="M103.87,107.4h-.37v-2.35a2.12,2.12,0,0,1-.35.26,3.44,3.44,0,0,1-.39.19v-.36a2.39,2.39,0,0,0,.54-.35,1.29,1.29,0,0,0,.33-.41h.24Z"/><path class="cls-6" d="M104.82,105.92a2.94,2.94,0,0,1,.1-.86,1.22,1.22,0,0,1,.33-.5.82.82,0,0,1,.54-.18.94.94,0,0,1,.43.1.89.89,0,0,1,.3.28,1.56,1.56,0,0,1,.19.45,3.25,3.25,0,0,1,.07.71,2.78,2.78,0,0,1-.11.85,1.11,1.11,0,0,1-.33.51.81.81,0,0,1-.55.18.84.84,0,0,1-.68-.32A2,2,0,0,1,104.82,105.92Zm.37,0a1.87,1.87,0,0,0,.18,1,.5.5,0,0,0,.85,0,2.81,2.81,0,0,0,0-2,.51.51,0,0,0-.43-.24.48.48,0,0,0-.41.22A2,2,0,0,0,105.19,105.92Z"/><path class="cls-6" d="M109.07,105.13l-.37,0a.64.64,0,0,0-.14-.31.47.47,0,0,0-.37-.16.48.48,0,0,0-.31.1.75.75,0,0,0-.27.37,1.77,1.77,0,0,0-.11.69.88.88,0,0,1,.73-.4.83.83,0,0,1,.63.27,1,1,0,0,1,.26.71,1.14,1.14,0,0,1-.12.52.9.9,0,0,1-.34.38,1,1,0,0,1-1.23-.21,1.69,1.69,0,0,1-.3-1.12,2,2,0,0,1,.33-1.27.92.92,0,0,1,.75-.35.85.85,0,0,1,.58.2A.89.89,0,0,1,109.07,105.13Zm-1.51,1.3a.86.86,0,0,0,.08.36.56.56,0,0,0,.23.27.55.55,0,0,0,.3.09.5.5,0,0,0,.4-.19.84.84,0,0,0,0-1,.54.54,0,0,0-.42-.18.58.58,0,0,0-.43.18A.68.68,0,0,0,107.56,106.43Z"/><path class="cls-6" d="M109.31,107.46l.87-3.11h.3l-.87,3.11Z"/><path class="cls-6" d="M112.59,107.05v.35h-2a.53.53,0,0,1,0-.25,1.29,1.29,0,0,1,.24-.4,3.23,3.23,0,0,1,.49-.46,5.23,5.23,0,0,0,.66-.63.82.82,0,0,0,.17-.45.47.47,0,0,0-.16-.37.56.56,0,0,0-.41-.15.55.55,0,0,0-.42.16.58.58,0,0,0-.16.44l-.38,0a.88.88,0,0,1,.29-.64,1,1,0,0,1,.68-.23,1,1,0,0,1,.69.24.79.79,0,0,1,.25.6.84.84,0,0,1-.07.35,1.51,1.51,0,0,1-.25.37,4.56,4.56,0,0,1-.57.53,5.42,5.42,0,0,0-.42.38.94.94,0,0,0-.16.2Z"/><path class="cls-6" d="M113,105.92a2.9,2.9,0,0,1,.11-.86,1,1,0,0,1,.33-.5.8.8,0,0,1,.54-.18.93.93,0,0,1,.42.1.84.84,0,0,1,.31.28,1.32,1.32,0,0,1,.18.45,2.73,2.73,0,0,1,.07.71,2.78,2.78,0,0,1-.11.85,1.09,1.09,0,0,1-.32.51.85.85,0,0,1-.55.18.81.81,0,0,1-.68-.32A2,2,0,0,1,113,105.92Zm.38,0a2,2,0,0,0,.17,1,.51.51,0,0,0,.86,0,3,3,0,0,0,0-2,.52.52,0,0,0-.43-.24.47.47,0,0,0-.41.22A1.86,1.86,0,0,0,113.37,105.92Z"/><path class="cls-6" d="M117.24,105.13l-.37,0a.64.64,0,0,0-.14-.31.47.47,0,0,0-.37-.16.45.45,0,0,0-.3.1.83.83,0,0,0-.28.37,1.8,1.8,0,0,0-.1.69.91.91,0,0,1,.32-.3,1,1,0,0,1,.41-.1.83.83,0,0,1,.62.27,1,1,0,0,1,.26.71,1.14,1.14,0,0,1-.12.52.88.88,0,0,1-.33.38,1,1,0,0,1-.49.13,1,1,0,0,1-.75-.34,1.75,1.75,0,0,1-.29-1.12,2,2,0,0,1,.32-1.27.94.94,0,0,1,.76-.35.8.8,0,0,1,.85.75Zm-1.51,1.3a.86.86,0,0,0,.08.36.62.62,0,0,0,.23.27.59.59,0,0,0,.31.09.51.51,0,0,0,.4-.19.73.73,0,0,0,.17-.51.69.69,0,0,0-.17-.49.54.54,0,0,0-.42-.18.56.56,0,0,0-.42.18A.64.64,0,0,0,115.73,106.43Z"/><polyline class="cls-5" points="88.39 53.18 107.86 53.18 107.86 55.47 112.19 55.47 112.19 53.18 115.88 53.18 115.88 54.58 120.47 54.58 120.47 53.18 123.9 53.18 123.9 55.47 129.63 55.47 129.63 33.19 111.94 33.19 111.94 35.1 88.39 35.1 88.39 53.18"/><polyline class="cls-5" points="111.94 33.19 129.63 33.19 129.63 10.66 123.9 10.66 123.9 12.95 120.47 12.95 120.47 11.68 115.88 11.68 115.88 12.95 112.19 12.95 112.19 10.66 107.86 10.66 107.86 12.95 88.9 12.95 88.9 16.01 80.62 16.01 80.62 31.16 111.94 31.16 111.94 33.19"/><line class="cls-5" x1="112.19" y1="10.66" x2="123.9" y2="10.66"/><polyline class="cls-5" points="112.7 11.43 112.19 11.3 123.9 11.3"/><line class="cls-5" x1="112.96" y1="11.55" x2="113.46" y2="11.81"/><line class="cls-5" x1="113.72" y1="11.93" x2="114.23" y2="12.19"/><line class="cls-5" x1="114.61" y1="12.32" x2="115.12" y2="12.57"/><line class="cls-5" x1="115.37" y1="12.7" x2="115.88" y2="12.95"/><line class="cls-5" x1="112.19" y1="12.95" x2="112.7" y2="12.7"/><line class="cls-5" x1="112.96" y1="12.57" x2="113.46" y2="12.32"/><line class="cls-5" x1="113.72" y1="12.19" x2="114.23" y2="11.93"/><line class="cls-5" x1="114.61" y1="11.81" x2="115.12" y2="11.55"/><line class="cls-5" x1="115.37" y1="11.43" x2="115.88" y2="11.3"/><line class="cls-5" x1="120.47" y1="11.3" x2="120.85" y2="11.43"/><line class="cls-5" x1="121.1" y1="11.55" x2="121.61" y2="11.81"/><line class="cls-5" x1="121.87" y1="11.93" x2="122.5" y2="12.19"/><line class="cls-5" x1="122.76" y1="12.32" x2="123.27" y2="12.57"/><line class="cls-5" x1="123.52" y1="12.83" x2="123.9" y2="12.95"/><line class="cls-5" x1="120.47" y1="12.95" x2="120.85" y2="12.83"/><line class="cls-5" x1="121.1" y1="12.57" x2="121.61" y2="12.32"/><line class="cls-5" x1="121.87" y1="12.19" x2="122.5" y2="11.93"/><line class="cls-5" x1="122.76" y1="11.81" x2="123.27" y2="11.55"/><line class="cls-5" x1="123.52" y1="11.43" x2="123.9" y2="11.3"/><line class="cls-5" x1="112.19" y1="55.47" x2="123.9" y2="55.47"/><polyline class="cls-5" points="112.7 54.71 112.19 54.96 123.9 54.96"/><line class="cls-5" x1="112.96" y1="54.58" x2="113.46" y2="54.32"/><line class="cls-5" x1="113.72" y1="54.2" x2="114.23" y2="53.94"/><line class="cls-5" x1="114.61" y1="53.82" x2="115.12" y2="53.56"/><line class="cls-5" x1="115.37" y1="53.43" x2="115.88" y2="53.18"/><line class="cls-5" x1="112.19" y1="53.18" x2="112.7" y2="53.43"/><line class="cls-5" x1="112.96" y1="53.56" x2="113.46" y2="53.82"/><line class="cls-5" x1="113.72" y1="53.94" x2="114.23" y2="54.2"/><line class="cls-5" x1="114.61" y1="54.32" x2="115.12" y2="54.58"/><line class="cls-5" x1="115.37" y1="54.71" x2="115.88" y2="54.96"/><line class="cls-5" x1="120.47" y1="54.96" x2="120.85" y2="54.71"/><line class="cls-5" x1="121.1" y1="54.58" x2="121.61" y2="54.32"/><line class="cls-5" x1="121.87" y1="54.2" x2="122.5" y2="53.94"/><line class="cls-5" x1="122.76" y1="53.82" x2="123.27" y2="53.56"/><line class="cls-5" x1="123.52" y1="53.43" x2="123.9" y2="53.18"/><line class="cls-5" x1="120.47" y1="53.18" x2="120.85" y2="53.43"/><line class="cls-5" x1="121.1" y1="53.56" x2="121.61" y2="53.82"/><line class="cls-5" x1="121.87" y1="53.94" x2="122.5" y2="54.2"/><line class="cls-5" x1="122.76" y1="54.32" x2="123.27" y2="54.58"/><line class="cls-5" x1="123.52" y1="54.71" x2="123.9" y2="54.96"/><polyline class="cls-5" points="88.39 75.45 107.86 75.45 107.86 73.29 112.19 73.29 112.19 75.45 115.88 75.45 115.88 74.18 120.47 74.18 120.47 75.45 123.9 75.45 123.9 73.29 129.63 73.29 129.63 95.57 111.94 95.57 111.94 93.66 88.39 93.66 88.39 75.45"/><polyline class="cls-5" points="111.94 95.57 129.63 95.57 129.63 117.97 123.9 117.97 123.9 115.81 120.47 115.81 120.47 117.08 115.88 117.08 115.88 115.81 112.19 115.81 112.19 117.97 107.86 117.97 107.86 115.81 88.9 115.81 88.9 112.75 80.62 112.75 80.62 97.48 111.94 97.48 111.94 95.57"/><line class="cls-5" x1="112.19" y1="117.97" x2="123.9" y2="117.97"/><polyline class="cls-5" points="112.7 117.21 112.19 117.46 123.9 117.46"/><line class="cls-5" x1="112.96" y1="117.08" x2="113.46" y2="116.83"/><line class="cls-5" x1="113.72" y1="116.7" x2="114.23" y2="116.44"/><line class="cls-5" x1="114.61" y1="116.32" x2="115.12" y2="116.06"/><line class="cls-5" x1="115.37" y1="115.94" x2="115.88" y2="115.81"/><line class="cls-5" x1="112.19" y1="115.81" x2="112.7" y2="115.93"/><line class="cls-5" x1="112.96" y1="116.06" x2="113.46" y2="116.32"/><line class="cls-5" x1="113.72" y1="116.44" x2="114.23" y2="116.7"/><line class="cls-5" x1="114.61" y1="116.83" x2="115.12" y2="117.08"/><line class="cls-5" x1="115.37" y1="117.21" x2="115.88" y2="117.46"/><line class="cls-5" x1="120.47" y1="117.46" x2="120.85" y2="117.34"/><line class="cls-5" x1="121.1" y1="117.08" x2="121.61" y2="116.83"/><line class="cls-5" x1="121.87" y1="116.7" x2="122.5" y2="116.44"/><line class="cls-5" x1="122.76" y1="116.32" x2="123.27" y2="116.06"/><line class="cls-5" x1="123.52" y1="115.94" x2="123.9" y2="115.81"/><line class="cls-5" x1="120.47" y1="115.81" x2="120.85" y2="115.93"/><line class="cls-5" x1="121.1" y1="116.06" x2="121.61" y2="116.32"/><line class="cls-5" x1="121.87" y1="116.44" x2="122.5" y2="116.7"/><line class="cls-5" x1="122.76" y1="116.83" x2="123.27" y2="117.08"/><line class="cls-5" x1="123.52" y1="117.34" x2="123.9" y2="117.46"/><line class="cls-5" x1="112.19" y1="73.29" x2="123.9" y2="73.29"/><polyline class="cls-5" points="112.7 74.06 112.19 73.8 123.9 73.8"/><line class="cls-5" x1="112.96" y1="74.18" x2="113.46" y2="74.44"/><line class="cls-5" x1="113.72" y1="74.56" x2="114.23" y2="74.82"/><line class="cls-5" x1="114.61" y1="74.95" x2="115.12" y2="75.2"/><line class="cls-5" x1="115.37" y1="75.33" x2="115.88" y2="75.45"/><line class="cls-5" x1="112.19" y1="75.46" x2="112.7" y2="75.33"/><line class="cls-5" x1="112.96" y1="75.2" x2="113.46" y2="74.95"/><line class="cls-5" x1="113.72" y1="74.82" x2="114.23" y2="74.56"/><line class="cls-5" x1="114.61" y1="74.44" x2="115.12" y2="74.18"/><line class="cls-5" x1="115.37" y1="74.05" x2="115.88" y2="73.8"/><line class="cls-5" x1="120.47" y1="73.8" x2="120.85" y2="73.93"/><line class="cls-5" x1="121.1" y1="74.18" x2="121.61" y2="74.44"/><line class="cls-5" x1="121.87" y1="74.56" x2="122.5" y2="74.82"/><line class="cls-5" x1="122.76" y1="74.95" x2="123.27" y2="75.2"/><line class="cls-5" x1="123.52" y1="75.33" x2="123.9" y2="75.45"/><line class="cls-5" x1="120.47" y1="75.46" x2="120.85" y2="75.33"/><line class="cls-5" x1="121.1" y1="75.2" x2="121.61" y2="74.95"/><line class="cls-5" x1="121.87" y1="74.82" x2="122.5" y2="74.56"/><line class="cls-5" x1="122.76" y1="74.44" x2="123.27" y2="74.18"/><line class="cls-5" x1="123.52" y1="73.93" x2="123.9" y2="73.8"/></g></svg>