<svg id="Capa_1" data-name="Capa 1" xmlns="http://www.w3.org/2000/svg" xmlns:xlink="http://www.w3.org/1999/xlink" viewBox="0 0 168.63 120.3"><defs><style>.cls-1,.cls-4,.cls-5,.cls-7{fill:none;}.cls-2{clip-path:url(#clip-path);}.cls-3{fill:#ebebeb;}.cls-4{stroke:#ebebeb;}.cls-4,.cls-5,.cls-7{stroke-miterlimit:10;}.cls-4,.cls-7{stroke-width:0;}.cls-5,.cls-7{stroke:#63666b;stroke-linecap:round;}.cls-5{stroke-width:0.25px;}.cls-6{fill:#63666b;}.cls-8{clip-path:url(#clip-path-3);}</style><clipPath id="clip-path"><rect class="cls-1" x="-70.78" y="-530.54" width="1190.55" height="841.89"/></clipPath><clipPath id="clip-path-3"><rect class="cls-1" x="0.2" width="168.43" height="120.3"/></clipPath></defs><title>W105S</title><g class="cls-2"><g class="cls-2"><path class="cls-3" d="M24,79.27l19.47,2.17H24Zm19.47,0H24l19.47,2.17Z"/><path class="cls-4" d="M24,79.27l19.47,2.17H24Zm19.47,0H24l19.47,2.17Z"/><path class="cls-3" d="M22.83,81.44l20.62,3.43H22.83Zm20.62,0H22.83l20.62,3.43Z"/><path class="cls-4" d="M22.83,81.44l20.62,3.43H22.83Zm20.62,0H22.83l20.62,3.43Z"/><path class="cls-3" d="M22.83,84.87,43.58,97.48H22.83Zm20.75,0H22.83L43.58,97.48Z"/><path class="cls-4" d="M22.83,84.87,43.58,97.48H22.83Zm20.75,0H22.83L43.58,97.48Z"/><path class="cls-3" d="M22.83,97.48l57.92,4.71H22.83Zm57.92,0H22.83l57.92,4.71Z"/><path class="cls-4" d="M22.83,97.48l57.92,4.71H22.83Zm57.92,0H22.83l57.92,4.71Z"/><path class="cls-3" d="M29.2,102.19l51.55,10.56H29.2Zm51.55,0H29.2l51.55,10.56Z"/><path class="cls-4" d="M29.2,102.19l51.55,10.56H29.2Zm51.55,0H29.2l51.55,10.56Z"/><path class="cls-3" d="M29.2,112.75l42,3.06h-42Zm42,0h-42l42,3.06Z"/><path class="cls-4" d="M29.2,112.75l42,3.06h-42Zm42,0h-42l42,3.06Z"/><path class="cls-3" d="M33.14,115.81l4.59,1.27H33.14Zm4.59,0H33.14l4.59,1.27Z"/><path class="cls-4" d="M33.14,115.81l4.59,1.27H33.14Zm4.59,0H33.14l4.59,1.27Z"/><polyline class="cls-5" points="80.75 16.01 71.2 16.01 71.2 12.95 37.73 12.95 37.73 11.68 33.14 11.68 33.14 12.95 29.2 12.95 29.2 26.45 22.83 26.45 22.83 47.2 23.98 47.2 23.98 49.49 43.46 49.49 43.46 43.89 43.58 43.89 43.58 31.16 80.75 31.16 80.75 16.01"/><polyline class="cls-5" points="43.45 43.89 57.97 43.89 57.97 53.81 60.13 53.81 60.13 63.36 57.97 63.36 57.97 71.13 60.13 71.13 60.13 76.22 57.97 76.22 57.97 84.88 47.91 84.88 47.91 89.58 43.45 89.58 43.45 79.27 25.38 79.27 25.38 52.16 23.98 52.16 23.98 49.49 43.45 49.49 43.45 43.89"/><polyline class="cls-5" points="80.75 112.75 71.2 112.75 71.2 115.81 37.73 115.81 37.73 117.08 33.14 117.08 33.14 115.81 29.2 115.81 29.2 102.19 22.83 102.19 22.83 81.44 23.98 81.44 23.98 79.27 43.46 79.27 43.46 84.88 43.58 84.88 43.58 97.48 80.75 97.48 80.75 112.75"/><polyline class="cls-5" points="88.52 35.61 78.46 35.61 78.46 44.4 67.26 44.4 67.26 35.61 60.64 35.61 60.64 44.4 57.97 44.4"/><line class="cls-5" x1="60.64" y1="43.89" x2="67.26" y2="43.89"/><line class="cls-5" x1="67.26" y1="44.4" x2="60.64" y2="44.4"/><line class="cls-5" x1="78.46" y1="44.4" x2="88.52" y2="44.4"/><line class="cls-5" x1="88.52" y1="43.89" x2="78.46" y2="43.89"/><line class="cls-5" x1="60.13" y1="44.4" x2="60.13" y2="84.24"/><line class="cls-5" x1="60.64" y1="84.24" x2="60.64" y2="44.4"/><polyline class="cls-5" points="88.52 93.02 78.46 93.02 78.46 84.24 67.26 84.24 67.26 93.02 60.64 93.02 60.64 84.24 57.97 84.24"/><line class="cls-5" x1="60.64" y1="84.87" x2="67.26" y2="84.87"/><line class="cls-5" x1="67.26" y1="84.24" x2="60.64" y2="84.24"/><line class="cls-5" x1="78.46" y1="84.24" x2="88.52" y2="84.24"/><line class="cls-5" x1="88.52" y1="84.87" x2="78.46" y2="84.87"/><line class="cls-5" x1="60.64" y1="35.61" x2="61.02" y2="36.12"/><line class="cls-5" x1="61.28" y1="36.38" x2="61.66" y2="36.88"/><line class="cls-5" x1="61.78" y1="37.01" x2="62.17" y2="37.52"/><line class="cls-5" x1="62.29" y1="37.78" x2="62.68" y2="38.28"/><line class="cls-5" x1="62.93" y1="38.54" x2="63.31" y2="38.92"/><line class="cls-5" x1="63.44" y1="39.18" x2="63.82" y2="39.68"/><line class="cls-5" x1="64.08" y1="39.94" x2="64.46" y2="40.32"/><line class="cls-5" x1="64.59" y1="40.58" x2="64.97" y2="41.09"/><line class="cls-5" x1="65.22" y1="41.34" x2="65.48" y2="41.72"/><line class="cls-5" x1="65.73" y1="41.98" x2="66.11" y2="42.49"/><line class="cls-5" x1="66.24" y1="42.74" x2="66.62" y2="43.12"/><line class="cls-5" x1="66.88" y1="43.38" x2="67.26" y2="43.89"/><line class="cls-5" x1="60.64" y1="43.89" x2="61.02" y2="43.38"/><line class="cls-5" x1="61.28" y1="43.12" x2="61.66" y2="42.74"/><line class="cls-5" x1="61.78" y1="42.49" x2="62.17" y2="41.98"/><line class="cls-5" x1="62.29" y1="41.72" x2="62.68" y2="41.34"/><line class="cls-5" x1="62.93" y1="41.09" x2="63.31" y2="40.58"/><line class="cls-5" x1="63.44" y1="40.32" x2="63.82" y2="39.94"/><line class="cls-5" x1="64.08" y1="39.68" x2="64.46" y2="39.18"/><line class="cls-5" x1="64.59" y1="38.92" x2="64.97" y2="38.54"/><line class="cls-5" x1="65.22" y1="38.28" x2="65.48" y2="37.78"/><line class="cls-5" x1="65.73" y1="37.52" x2="66.11" y2="37.01"/><line class="cls-5" x1="66.24" y1="36.88" x2="66.62" y2="36.38"/><line class="cls-5" x1="66.88" y1="36.12" x2="67.26" y2="35.61"/><line class="cls-5" x1="78.46" y1="35.61" x2="78.84" y2="35.99"/><line class="cls-5" x1="79.1" y1="36.12" x2="79.61" y2="36.5"/><line class="cls-5" x1="79.73" y1="36.76" x2="80.24" y2="37.14"/><line class="cls-5" x1="80.5" y1="37.27" x2="81.01" y2="37.65"/><line class="cls-5" x1="81.13" y1="37.9" x2="81.64" y2="38.29"/><line class="cls-5" x1="81.9" y1="38.41" x2="82.41" y2="38.79"/><line class="cls-5" x1="82.53" y1="39.05" x2="83.04" y2="39.43"/><line class="cls-5" x1="83.3" y1="39.56" x2="83.81" y2="39.94"/><line class="cls-5" x1="83.93" y1="40.19" x2="84.44" y2="40.58"/><line class="cls-5" x1="84.7" y1="40.7" x2="85.21" y2="41.09"/><line class="cls-5" x1="85.33" y1="41.34" x2="85.84" y2="41.72"/><line class="cls-5" x1="86.1" y1="41.85" x2="86.48" y2="42.23"/><line class="cls-5" x1="86.74" y1="42.49" x2="87.24" y2="42.87"/><line class="cls-5" x1="87.5" y1="42.99" x2="87.88" y2="43.38"/><line class="cls-5" x1="88.13" y1="43.63" x2="88.52" y2="43.89"/><line class="cls-5" x1="88.52" y1="35.61" x2="88.13" y2="35.99"/><line class="cls-5" x1="87.88" y1="36.12" x2="87.5" y2="36.5"/><line class="cls-5" x1="87.24" y1="36.76" x2="86.74" y2="37.14"/><line class="cls-5" x1="86.48" y1="37.27" x2="86.1" y2="37.65"/><line class="cls-5" x1="85.84" y1="37.9" x2="85.34" y2="38.29"/><line class="cls-5" x1="85.21" y1="38.41" x2="84.7" y2="38.79"/><line class="cls-5" x1="84.44" y1="39.05" x2="83.93" y2="39.43"/><line class="cls-5" x1="83.81" y1="39.56" x2="83.3" y2="39.94"/><line class="cls-5" x1="83.04" y1="40.19" x2="82.53" y2="40.58"/><line class="cls-5" x1="82.41" y1="40.7" x2="81.9" y2="41.09"/><line class="cls-5" x1="81.64" y1="41.34" x2="81.13" y2="41.72"/><line class="cls-5" x1="81.01" y1="41.85" x2="80.5" y2="42.23"/><line class="cls-5" x1="80.24" y1="42.49" x2="79.73" y2="42.87"/><line class="cls-5" x1="79.61" y1="42.99" x2="79.1" y2="43.38"/><line class="cls-5" x1="78.84" y1="43.63" x2="78.46" y2="43.89"/><line class="cls-5" x1="57.97" y1="53.82" x2="60.13" y2="44.4"/><line class="cls-5" x1="57.97" y1="44.4" x2="60.13" y2="53.82"/><line class="cls-5" x1="57.97" y1="63.36" x2="58.22" y2="64.13"/><line class="cls-5" x1="58.35" y1="64.38" x2="58.47" y2="65.02"/><line class="cls-5" x1="58.47" y1="65.27" x2="58.73" y2="65.78"/><line class="cls-5" x1="58.73" y1="66.16" x2="58.86" y2="66.67"/><line class="cls-5" x1="58.98" y1="67.05" x2="59.11" y2="67.56"/><line class="cls-5" x1="59.24" y1="67.82" x2="59.37" y2="68.46"/><line class="cls-5" x1="59.49" y1="68.71" x2="59.62" y2="69.35"/><line class="cls-5" x1="59.75" y1="69.6" x2="59.87" y2="70.24"/><line class="cls-5" x1="59.88" y1="70.49" x2="60.13" y2="71.13"/><line class="cls-5" x1="57.97" y1="71.13" x2="58.22" y2="70.49"/><line class="cls-5" x1="58.35" y1="70.24" x2="58.47" y2="69.6"/><line class="cls-5" x1="58.47" y1="69.35" x2="58.73" y2="68.71"/><line class="cls-5" x1="58.73" y1="68.45" x2="58.86" y2="67.82"/><line class="cls-5" x1="58.98" y1="67.56" x2="59.11" y2="67.05"/><line class="cls-5" x1="59.24" y1="66.67" x2="59.37" y2="66.16"/><line class="cls-5" x1="59.49" y1="65.78" x2="59.62" y2="65.27"/><line class="cls-5" x1="59.75" y1="65.02" x2="59.87" y2="64.38"/><line class="cls-5" x1="59.88" y1="64.13" x2="60.13" y2="63.36"/><line class="cls-5" x1="60.64" y1="93.02" x2="61.02" y2="92.64"/><line class="cls-5" x1="61.28" y1="92.39" x2="61.66" y2="91.88"/><line class="cls-5" x1="61.78" y1="91.62" x2="62.17" y2="91.24"/><line class="cls-5" x1="62.29" y1="90.98" x2="62.68" y2="90.48"/><line class="cls-5" x1="62.93" y1="90.22" x2="63.31" y2="89.71"/><line class="cls-5" x1="63.44" y1="89.59" x2="63.82" y2="89.08"/><line class="cls-5" x1="64.08" y1="88.82" x2="64.46" y2="88.31"/><line class="cls-5" x1="64.59" y1="88.18" x2="64.97" y2="87.68"/><line class="cls-5" x1="65.22" y1="87.42" x2="65.48" y2="86.91"/><line class="cls-5" x1="65.73" y1="86.66" x2="66.11" y2="86.28"/><line class="cls-5" x1="66.24" y1="86.02" x2="66.62" y2="85.51"/><line class="cls-5" x1="66.88" y1="85.26" x2="67.26" y2="84.88"/><line class="cls-5" x1="60.64" y1="84.87" x2="61.02" y2="85.26"/><line class="cls-5" x1="61.28" y1="85.51" x2="61.66" y2="86.02"/><line class="cls-5" x1="61.78" y1="86.28" x2="62.17" y2="86.66"/><line class="cls-5" x1="62.29" y1="86.91" x2="62.68" y2="87.42"/><line class="cls-5" x1="62.93" y1="87.67" x2="63.31" y2="88.18"/><line class="cls-5" x1="63.44" y1="88.31" x2="63.82" y2="88.82"/><line class="cls-5" x1="64.08" y1="89.08" x2="64.46" y2="89.58"/><line class="cls-5" x1="64.59" y1="89.71" x2="64.97" y2="90.22"/><line class="cls-5" x1="65.22" y1="90.48" x2="65.48" y2="90.98"/><line class="cls-5" x1="65.73" y1="91.24" x2="66.11" y2="91.62"/><line class="cls-5" x1="66.24" y1="91.88" x2="66.62" y2="92.38"/><line class="cls-5" x1="66.88" y1="92.64" x2="67.26" y2="93.02"/><line class="cls-5" x1="78.46" y1="93.02" x2="78.84" y2="92.77"/><line class="cls-5" x1="79.1" y1="92.51" x2="79.61" y2="92.13"/><line class="cls-5" x1="79.73" y1="92" x2="80.24" y2="91.62"/><line class="cls-5" x1="80.5" y1="91.37" x2="81.01" y2="90.99"/><line class="cls-5" x1="81.13" y1="90.86" x2="81.64" y2="90.48"/><line class="cls-5" x1="81.9" y1="90.22" x2="82.41" y2="89.84"/><line class="cls-5" x1="82.53" y1="89.71" x2="83.04" y2="89.33"/><line class="cls-5" x1="83.3" y1="89.08" x2="83.81" y2="88.69"/><line class="cls-5" x1="83.93" y1="88.57" x2="84.44" y2="88.19"/><line class="cls-5" x1="84.7" y1="87.93" x2="85.21" y2="87.67"/><line class="cls-5" x1="85.33" y1="87.42" x2="85.84" y2="87.04"/><line class="cls-5" x1="86.1" y1="86.91" x2="86.48" y2="86.53"/><line class="cls-5" x1="86.74" y1="86.28" x2="87.24" y2="85.89"/><line class="cls-5" x1="87.5" y1="85.77" x2="87.88" y2="85.38"/><line class="cls-5" x1="88.13" y1="85.13" x2="88.52" y2="84.87"/><line class="cls-5" x1="78.46" y1="84.87" x2="78.84" y2="85.13"/><line class="cls-5" x1="79.1" y1="85.38" x2="79.61" y2="85.77"/><line class="cls-5" x1="79.73" y1="85.89" x2="80.24" y2="86.28"/><line class="cls-5" x1="80.5" y1="86.53" x2="81.01" y2="86.91"/><line class="cls-5" x1="81.13" y1="87.04" x2="81.64" y2="87.42"/><line class="cls-5" x1="81.9" y1="87.67" x2="82.41" y2="87.93"/><line class="cls-5" x1="82.53" y1="88.18" x2="83.04" y2="88.57"/><line class="cls-5" x1="83.3" y1="88.69" x2="83.81" y2="89.08"/><line class="cls-5" x1="83.93" y1="89.33" x2="84.44" y2="89.71"/><line class="cls-5" x1="84.7" y1="89.84" x2="85.21" y2="90.22"/><line class="cls-5" x1="85.33" y1="90.48" x2="85.84" y2="90.86"/><line class="cls-5" x1="86.1" y1="90.98" x2="86.48" y2="91.37"/><line class="cls-5" x1="86.74" y1="91.62" x2="87.24" y2="92"/><line class="cls-5" x1="87.5" y1="92.13" x2="87.88" y2="92.51"/><line class="cls-5" x1="88.13" y1="92.77" x2="88.52" y2="93.02"/><line class="cls-5" x1="57.97" y1="84.24" x2="58.09" y2="83.86"/><line class="cls-5" x1="58.22" y1="83.6" x2="58.35" y2="82.97"/><line class="cls-5" x1="58.47" y1="82.71" x2="58.6" y2="82.07"/><line class="cls-5" x1="58.6" y1="81.82" x2="58.86" y2="81.31"/><line class="cls-5" x1="58.86" y1="80.93" x2="58.98" y2="80.42"/><line class="cls-5" x1="59.11" y1="80.04" x2="59.24" y2="79.53"/><line class="cls-5" x1="59.37" y1="79.27" x2="59.49" y2="78.64"/><line class="cls-5" x1="59.62" y1="78.38" x2="59.75" y2="77.75"/><line class="cls-5" x1="59.75" y1="77.49" x2="59.87" y2="76.86"/><line class="cls-5" x1="60" y1="76.6" x2="60.13" y2="76.22"/><line class="cls-5" x1="57.97" y1="76.22" x2="58.09" y2="76.6"/><line class="cls-5" x1="58.22" y1="76.86" x2="58.35" y2="77.49"/><line class="cls-5" x1="58.47" y1="77.75" x2="58.6" y2="78.38"/><line class="cls-5" x1="58.6" y1="78.64" x2="58.86" y2="79.27"/><line class="cls-5" x1="58.86" y1="79.53" x2="58.98" y2="80.04"/><line class="cls-5" x1="59.11" y1="80.42" x2="59.24" y2="80.93"/><line class="cls-5" x1="59.37" y1="81.31" x2="59.49" y2="81.82"/><line class="cls-5" x1="59.62" y1="82.07" x2="59.75" y2="82.71"/><line class="cls-5" x1="59.75" y1="82.97" x2="59.87" y2="83.6"/><line class="cls-5" x1="60" y1="83.86" x2="60.13" y2="84.24"/><path class="cls-6" d="M44.17,25.3v-3h2.17v.35H44.57v.92h1.66v.35H44.57v1h1.84v.35Z"/><path class="cls-6" d="M49.37,25.3H49V23a1.77,1.77,0,0,1-.35.26,3.44,3.44,0,0,1-.39.19V23a2.39,2.39,0,0,0,.54-.35,1.29,1.29,0,0,0,.33-.41h.24Z"/><path class="cls-6" d="M50.32,23.82a2.57,2.57,0,0,1,.11-.86,1.11,1.11,0,0,1,.32-.5.85.85,0,0,1,.55-.18.93.93,0,0,1,.42.1.89.89,0,0,1,.3.28,1.56,1.56,0,0,1,.19.45,3.25,3.25,0,0,1,.07.71,2.78,2.78,0,0,1-.11.85,1.11,1.11,0,0,1-.33.51.8.8,0,0,1-.54.17.84.84,0,0,1-.69-.31A2,2,0,0,1,50.32,23.82Zm.37,0a1.87,1.87,0,0,0,.18,1,.51.51,0,0,0,.43.24.48.48,0,0,0,.42-.25,1.8,1.8,0,0,0,.18-1,1.87,1.87,0,0,0-.18-1,.51.51,0,0,0-.43-.24.46.46,0,0,0-.4.21A1.91,1.91,0,0,0,50.69,23.82Z"/><path class="cls-6" d="M52.65,24.51l.37-.05a.79.79,0,0,0,.22.45.53.53,0,0,0,.37.14.6.6,0,0,0,.44-.18.61.61,0,0,0,.18-.45.54.54,0,0,0-.17-.42.57.57,0,0,0-.42-.16,1,1,0,0,0-.26,0l0-.32h.06a.8.8,0,0,0,.43-.12.45.45,0,0,0,.19-.38.46.46,0,0,0-.14-.34.48.48,0,0,0-.36-.13.52.52,0,0,0-.36.13.74.74,0,0,0-.18.41l-.37-.07a1,1,0,0,1,.31-.57.87.87,0,0,1,.59-.21,1,1,0,0,1,.46.11.73.73,0,0,1,.31.29.68.68,0,0,1,.11.39.62.62,0,0,1-.1.35.65.65,0,0,1-.31.25.7.7,0,0,1,.41.26.77.77,0,0,1,.15.49.84.84,0,0,1-.29.66,1,1,0,0,1-.72.28.93.93,0,0,1-1-.85Z"/><path class="cls-6" d="M54.81,25.35l.87-3.1H56l-.87,3.1Z"/><path class="cls-6" d="M58.09,25v.35h-2a.53.53,0,0,1,0-.25,1.29,1.29,0,0,1,.24-.4,3.79,3.79,0,0,1,.49-.46,4.54,4.54,0,0,0,.66-.64.76.76,0,0,0,.17-.44.47.47,0,0,0-.16-.37.56.56,0,0,0-.41-.15.55.55,0,0,0-.42.16.58.58,0,0,0-.16.44l-.38,0a.88.88,0,0,1,.29-.64,1,1,0,0,1,.68-.23,1,1,0,0,1,.69.24.79.79,0,0,1,.25.6.84.84,0,0,1-.07.35,1.27,1.27,0,0,1-.25.37,4.56,4.56,0,0,1-.57.53,5.42,5.42,0,0,0-.42.38.74.74,0,0,0-.16.2Z"/><path class="cls-6" d="M58.49,23.82A2.85,2.85,0,0,1,58.6,23a1,1,0,0,1,.33-.5.8.8,0,0,1,.54-.18.93.93,0,0,1,.42.1.84.84,0,0,1,.31.28,1.32,1.32,0,0,1,.18.45,2.73,2.73,0,0,1,.07.71,2.78,2.78,0,0,1-.11.85,1.09,1.09,0,0,1-.32.51.84.84,0,0,1-.55.17.81.81,0,0,1-.68-.31A2,2,0,0,1,58.49,23.82Zm.38,0a2,2,0,0,0,.17,1,.52.52,0,0,0,.43.24.51.51,0,0,0,.43-.25,1.93,1.93,0,0,0,.17-1,2,2,0,0,0-.17-1,.52.52,0,0,0-.43-.24.48.48,0,0,0-.41.21A1.93,1.93,0,0,0,58.87,23.82Z"/><path class="cls-6" d="M60.83,24.51l.37-.05a.79.79,0,0,0,.21.45.57.57,0,0,0,.38.14.6.6,0,0,0,.44-.18.61.61,0,0,0,.18-.45.57.57,0,0,0-.17-.42.57.57,0,0,0-.42-.16.92.92,0,0,0-.26,0l0-.32h.06a.76.76,0,0,0,.42-.12.42.42,0,0,0,.19-.38.46.46,0,0,0-.14-.34.48.48,0,0,0-.35-.13.48.48,0,0,0-.36.13.69.69,0,0,0-.19.41l-.36-.07a.91.91,0,0,1,.3-.57.88.88,0,0,1,.6-.21,1,1,0,0,1,.45.11.75.75,0,0,1,.32.29.77.77,0,0,1,.11.39.67.67,0,0,1-.41.6.72.72,0,0,1,.56.75.88.88,0,0,1-.29.66,1,1,0,0,1-.73.28.92.92,0,0,1-.65-.24A.87.87,0,0,1,60.83,24.51Z"/><path class="cls-6" d="M156.24,13.21l-1.91-12.1h.38Zm-.26.12.26-.12-1.91-12.1Z"/><path class="cls-7" d="M156.24,13.21l-1.91-12.1h.38Zm-.26.12.26-.12-1.91-12.1Z"/><line class="cls-5" x1="157.51" y1="24.16" x2="156.11" y2="13.21"/><path class="cls-6" d="M157,13.21l-1.27-7h.38Zm-.38,0H157l-1.27-7Z"/><path class="cls-7" d="M157,13.21l-1.27-7h.38Zm-.38,0H157l-1.27-7Z"/><path class="cls-6" d="M155.6,13.33l-1.27-6.87h.38Zm-.38,0h.38l-1.27-6.87Z"/><path class="cls-7" d="M155.6,13.33l-1.27-6.87h.38Zm-.38,0h.38l-1.27-6.87Z"/><line class="cls-5" x1="157.26" y1="24.28" x2="157" y2="22.88"/><line class="cls-5" x1="147.84" y1="14.74" x2="146.05" y2="14.99"/><line class="cls-5" x1="166.29" y1="12.32" x2="164.39" y2="12.57"/><line class="cls-5" x1="166.29" y1="11.93" x2="145.93" y2="14.61"/><g class="cls-8"><path class="cls-5" d="M163.56,12.15a7.57,7.57,0,1,0-6.52,8.5,7.57,7.57,0,0,0,6.52-8.5"/><path class="cls-5" d="M163.05,12.22A7.07,7.07,0,1,0,157,20.15a7.06,7.06,0,0,0,6.08-7.93"/></g><path class="cls-6" d="M98,46.31v-3h2.17v.36H98.41v.92h1.67v.35H98.41v1h1.85v.36Z"/><path class="cls-6" d="M103.22,46.31h-.37V44a2.12,2.12,0,0,1-.35.26,3.38,3.38,0,0,1-.39.19V44a2,2,0,0,0,.54-.35,1.62,1.62,0,0,0,.33-.4h.24Z"/><path class="cls-6" d="M104.16,44.82a2.78,2.78,0,0,1,.11-.85,1,1,0,0,1,.33-.51.85.85,0,0,1,.54-.17,1,1,0,0,1,.43.09.83.83,0,0,1,.3.29,1.35,1.35,0,0,1,.18.44,2.78,2.78,0,0,1,.07.71,2.57,2.57,0,0,1-.11.86,1.11,1.11,0,0,1-.32.5.85.85,0,0,1-.55.18.83.83,0,0,1-.68-.31A2,2,0,0,1,104.16,44.82Zm.38,0a2,2,0,0,0,.17,1,.51.51,0,0,0,.86,0,2,2,0,0,0,.17-1,1.93,1.93,0,0,0-.17-1,.51.51,0,0,0-.43-.25.49.49,0,0,0-.41.22A1.86,1.86,0,0,0,104.54,44.82Z"/><path class="cls-6" d="M107.89,46.31h-.37V44a2.12,2.12,0,0,1-.35.26,2.74,2.74,0,0,1-.39.19V44a1.86,1.86,0,0,0,.54-.35,1.27,1.27,0,0,0,.33-.4h.24Z"/><path class="cls-6" d="M108.66,46.36l.87-3.11h.3L109,46.36Z"/><path class="cls-6" d="M111.94,46v.36h-2a.58.58,0,0,1,0-.26,1.42,1.42,0,0,1,.24-.4,3.64,3.64,0,0,1,.48-.45,4.06,4.06,0,0,0,.66-.64.77.77,0,0,0,.18-.45.52.52,0,0,0-.16-.37.56.56,0,0,0-.41-.15.61.61,0,0,0-.43.16.65.65,0,0,0-.16.45l-.38,0a1,1,0,0,1,.3-.65,1,1,0,0,1,.68-.22.92.92,0,0,1,.68.24.79.79,0,0,1,.26.59.94.94,0,0,1-.08.36,1.41,1.41,0,0,1-.24.36,6.7,6.7,0,0,1-.57.53l-.43.38a1.3,1.3,0,0,0-.15.2Z"/><path class="cls-6" d="M112.34,44.82a2.5,2.5,0,0,1,.11-.85,1.09,1.09,0,0,1,.32-.51.9.9,0,0,1,.55-.17.93.93,0,0,1,.42.09.83.83,0,0,1,.3.29,1.62,1.62,0,0,1,.19.44,3.32,3.32,0,0,1,.07.71,2.85,2.85,0,0,1-.11.86,1,1,0,0,1-.33.5.8.8,0,0,1-.54.18.87.87,0,0,1-.69-.31A2.06,2.06,0,0,1,112.34,44.82Zm.38,0a1.84,1.84,0,0,0,.17,1,.51.51,0,0,0,.43.24.49.49,0,0,0,.42-.24,1.85,1.85,0,0,0,.18-1,1.8,1.8,0,0,0-.18-1,.5.5,0,0,0-.43-.25.47.47,0,0,0-.4.22A1.86,1.86,0,0,0,112.72,44.82Z"/><path class="cls-6" d="M116.06,46.31h-.37V44a1.77,1.77,0,0,1-.35.26,2.68,2.68,0,0,1-.38.19V44a2.18,2.18,0,0,0,.54-.35,1.62,1.62,0,0,0,.33-.4h.23Z"/><path class="cls-6" d="M98.15,85.51l-.8-3h.41l.46,2c0,.21.09.42.12.62l.14-.56.57-2h.48L100,84a7.92,7.92,0,0,1,.24,1.06,5.33,5.33,0,0,1,.15-.65l.47-1.94h.4l-.83,3H100l-.63-2.29c-.06-.19-.09-.31-.1-.35,0,.13-.06.25-.09.35l-.63,2.29Z"/><path class="cls-6" d="M104,85.51h-.37V83.16a2.12,2.12,0,0,1-.35.25,2.27,2.27,0,0,1-.39.19v-.35a2.12,2.12,0,0,0,.54-.36,1.3,1.3,0,0,0,.33-.4H104Z"/><path class="cls-6" d="M104.94,84a2.85,2.85,0,0,1,.11-.86,1,1,0,0,1,.33-.5.8.8,0,0,1,.54-.18.85.85,0,0,1,.43.1.8.8,0,0,1,.3.28,1.56,1.56,0,0,1,.19.45,3.28,3.28,0,0,1,.06.71,2.5,2.5,0,0,1-.11.85,1,1,0,0,1-.32.5.83.83,0,0,1-.55.18.82.82,0,0,1-.68-.31A2,2,0,0,1,104.94,84Zm.38,0a1.8,1.8,0,0,0,.18,1,.48.48,0,0,0,.42.25.51.51,0,0,0,.43-.25,1.82,1.82,0,0,0,.17-1,1.84,1.84,0,0,0-.17-1,.52.52,0,0,0-.43-.24.48.48,0,0,0-.41.21A2,2,0,0,0,105.32,84Z"/><path class="cls-6" d="M107.3,82.9v-.36h2v.29a4,4,0,0,0-.57.81,5.49,5.49,0,0,0-.44,1,4.23,4.23,0,0,0-.14.83h-.38a4,4,0,0,1,.14-.86,4.69,4.69,0,0,1,.39-1,3.66,3.66,0,0,1,.53-.78Z"/><path class="cls-6" d="M109.44,85.56l.87-3.11h.3l-.87,3.11Z"/><path class="cls-6" d="M112.72,85.16v.35h-2a.8.8,0,0,1,0-.26,1.57,1.57,0,0,1,.24-.4,3.64,3.64,0,0,1,.48-.45,4.23,4.23,0,0,0,.67-.64.76.76,0,0,0,.17-.44.47.47,0,0,0-.16-.37.56.56,0,0,0-.41-.15.54.54,0,0,0-.42.16.57.57,0,0,0-.17.44l-.38,0a1,1,0,0,1,.3-.65,1,1,0,0,1,.68-.22.92.92,0,0,1,.68.24.79.79,0,0,1,.26.6.85.85,0,0,1-.08.35,1.45,1.45,0,0,1-.24.37c-.12.13-.31.3-.57.53s-.36.31-.43.38a1,1,0,0,0-.15.2Z"/><path class="cls-6" d="M113.12,84a2.57,2.57,0,0,1,.11-.86,1.06,1.06,0,0,1,.32-.5.85.85,0,0,1,.55-.18.82.82,0,0,1,.42.1.8.8,0,0,1,.3.28,1.56,1.56,0,0,1,.19.45,2.68,2.68,0,0,1,.07.71,2.78,2.78,0,0,1-.11.85,1,1,0,0,1-.33.5.8.8,0,0,1-.54.18.84.84,0,0,1-.69-.31A2,2,0,0,1,113.12,84Zm.38,0a1.82,1.82,0,0,0,.17,1,.51.51,0,0,0,.43.25.48.48,0,0,0,.42-.25,1.8,1.8,0,0,0,.18-1,1.82,1.82,0,0,0-.18-1,.5.5,0,0,0-.43-.24.46.46,0,0,0-.4.21A1.9,1.9,0,0,0,113.5,84Z"/><path class="cls-6" d="M115.48,82.9v-.36h1.94v.29a4,4,0,0,0-.57.81,5.44,5.44,0,0,0-.43,1,4.23,4.23,0,0,0-.14.83h-.38a3.46,3.46,0,0,1,.14-.86,4.64,4.64,0,0,1,.38-1,4.08,4.08,0,0,1,.53-.78Z"/><path class="cls-6" d="M32.08,66.17v-3h2.17v.35H32.47v.92h1.67v.36H32.47v1h1.85v.36Z"/><path class="cls-6" d="M37.28,66.17h-.37V63.81a2.12,2.12,0,0,1-.35.26,3.38,3.38,0,0,1-.39.19V63.9a2.1,2.1,0,0,0,.54-.35,1.27,1.27,0,0,0,.33-.4h.24Z"/><path class="cls-6" d="M38.22,64.68a2.9,2.9,0,0,1,.11-.86,1.13,1.13,0,0,1,.33-.5.85.85,0,0,1,.54-.17,1,1,0,0,1,.43.09.89.89,0,0,1,.3.28,1.85,1.85,0,0,1,.19.45,3.35,3.35,0,0,1,.06.71,2.57,2.57,0,0,1-.11.86,1.11,1.11,0,0,1-.32.5.9.9,0,0,1-1.23-.14A2,2,0,0,1,38.22,64.68Zm.38,0a1.85,1.85,0,0,0,.18,1,.49.49,0,0,0,.42.24.51.51,0,0,0,.43-.24,1.89,1.89,0,0,0,.17-1,1.82,1.82,0,0,0-.17-1,.5.5,0,0,0-.43-.25.47.47,0,0,0-.41.22A2,2,0,0,0,38.6,64.68Z"/><path class="cls-6" d="M41.74,66.17v-.72h-1.3v-.34l1.37-2h.3v2h.41v.34h-.41v.72Zm0-1.06V63.75l-.94,1.36Z"/><path class="cls-6" d="M42.72,66.22l.87-3.11h.3L43,66.22Z"/><path class="cls-6" d="M46,65.81v.36H44a.75.75,0,0,1,.05-.26,1.29,1.29,0,0,1,.24-.4,4.39,4.39,0,0,1,.48-.46,4.28,4.28,0,0,0,.67-.63.82.82,0,0,0,.17-.45.49.49,0,0,0-.16-.37.56.56,0,0,0-.41-.15.54.54,0,0,0-.42.16.6.6,0,0,0-.17.44l-.38,0a1,1,0,0,1,.3-.65,1,1,0,0,1,.68-.22,1,1,0,0,1,.69.24A.8.8,0,0,1,46,64a.94.94,0,0,1-.08.36,1.6,1.6,0,0,1-.24.36,6.7,6.7,0,0,1-.57.53l-.43.38a1.3,1.3,0,0,0-.15.2Z"/><path class="cls-6" d="M46.4,64.68a2.6,2.6,0,0,1,.11-.86,1.11,1.11,0,0,1,.32-.5.9.9,0,0,1,.55-.17.93.93,0,0,1,.42.09.89.89,0,0,1,.3.28,1.53,1.53,0,0,1,.19.45,2.73,2.73,0,0,1,.07.71,2.85,2.85,0,0,1-.11.86,1,1,0,0,1-.33.5.8.8,0,0,1-.54.18.85.85,0,0,1-.69-.32A2,2,0,0,1,46.4,64.68Zm.38,0a1.87,1.87,0,0,0,.17,1,.51.51,0,0,0,.86,0,2,2,0,0,0,.17-1,1.93,1.93,0,0,0-.17-1,.51.51,0,0,0-.44-.25.45.45,0,0,0-.4.22A1.86,1.86,0,0,0,46.78,64.68Z"/><path class="cls-6" d="M49.92,66.17v-.72H48.61v-.34l1.37-2h.31v2h.4v.34h-.4v.72Zm0-1.06V63.75L49,65.11Z"/><path class="cls-6" d="M44.69,106.52l-.8-3h.41l.45,2c0,.21.09.41.13.61.08-.32.12-.5.14-.55l.57-2h.48L46.5,105a8.16,8.16,0,0,1,.23,1.06c0-.18.09-.4.15-.65l.47-1.93h.4l-.82,3h-.38l-.64-2.3c0-.19-.08-.3-.09-.35a3.46,3.46,0,0,1-.09.35l-.64,2.3Z"/><path class="cls-6" d="M50.53,106.52h-.37v-2.36a1.77,1.77,0,0,1-.35.26,2.68,2.68,0,0,1-.38.19v-.36a2.5,2.5,0,0,0,.54-.35,1.37,1.37,0,0,0,.32-.4h.24Z"/><path class="cls-6" d="M51.48,105a2.6,2.6,0,0,1,.11-.86,1.11,1.11,0,0,1,.32-.5.9.9,0,0,1,.55-.17.93.93,0,0,1,.42.09.83.83,0,0,1,.3.29,1.36,1.36,0,0,1,.19.44,2.73,2.73,0,0,1,.07.71,2.85,2.85,0,0,1-.11.86,1,1,0,0,1-.33.5.8.8,0,0,1-.54.18.81.81,0,0,1-.68-.32A2,2,0,0,1,51.48,105Zm.38,0a1.87,1.87,0,0,0,.17,1,.51.51,0,0,0,.86,0,2,2,0,0,0,.17-1,1.93,1.93,0,0,0-.17-1,.51.51,0,0,0-.44-.25.45.45,0,0,0-.4.22A1.86,1.86,0,0,0,51.86,105Z"/><path class="cls-6" d="M53.81,105.73l.39,0a.72.72,0,0,0,.2.42.53.53,0,0,0,.38.14.56.56,0,0,0,.45-.2.76.76,0,0,0,.19-.53.68.68,0,0,0-.18-.5.63.63,0,0,0-.47-.18.69.69,0,0,0-.32.08.56.56,0,0,0-.22.21l-.35,0,.29-1.54h1.5v.35h-1.2l-.17.81a1,1,0,0,1,.57-.19.89.89,0,0,1,.67.28.94.94,0,0,1,.27.7,1.08,1.08,0,0,1-.24.7.94.94,0,0,1-.79.37,1,1,0,0,1-.67-.23A1,1,0,0,1,53.81,105.73Z"/><path class="cls-6" d="M56,106.57l.87-3.11h.29l-.87,3.11Z"/><path class="cls-6" d="M59.26,106.16v.36h-2a.75.75,0,0,1,0-.26,1.16,1.16,0,0,1,.25-.4,4.39,4.39,0,0,1,.48-.46,3.71,3.71,0,0,0,.66-.63.75.75,0,0,0,.17-.45.51.51,0,0,0-.15-.37.58.58,0,0,0-.41-.15.61.61,0,0,0-.43.16.61.61,0,0,0-.16.45l-.38,0a.94.94,0,0,1,.29-.65,1,1,0,0,1,.69-.22,1,1,0,0,1,.68.24.76.76,0,0,1,.25.59.92.92,0,0,1-.07.36,1.39,1.39,0,0,1-.25.36,4.56,4.56,0,0,1-.57.53,5.42,5.42,0,0,0-.42.38,1.4,1.4,0,0,0-.16.2Z"/><path class="cls-6" d="M59.65,105a2.9,2.9,0,0,1,.11-.86,1.13,1.13,0,0,1,.33-.5.85.85,0,0,1,.54-.17,1,1,0,0,1,.43.09.83.83,0,0,1,.3.29,1.62,1.62,0,0,1,.19.44,3.35,3.35,0,0,1,.06.71,2.57,2.57,0,0,1-.11.86,1.11,1.11,0,0,1-.32.5.9.9,0,0,1-1.23-.14A2,2,0,0,1,59.65,105Zm.38,0a1.85,1.85,0,0,0,.18,1,.49.49,0,0,0,.42.24.51.51,0,0,0,.43-.24,1.87,1.87,0,0,0,.17-1,1.82,1.82,0,0,0-.17-1,.5.5,0,0,0-.43-.25.47.47,0,0,0-.41.22A2,2,0,0,0,60,105Z"/><path class="cls-6" d="M62,105.73l.39,0a.67.67,0,0,0,.2.42.5.5,0,0,0,.37.14.59.59,0,0,0,.46-.2.76.76,0,0,0,.18-.53.68.68,0,0,0-.18-.5.62.62,0,0,0-.46-.18.66.66,0,0,0-.32.08.58.58,0,0,0-.23.21l-.35,0,.3-1.54h1.49v.35h-1.2l-.16.81a1,1,0,0,1,.57-.19.87.87,0,0,1,.66.28.94.94,0,0,1,.27.7,1.08,1.08,0,0,1-.24.7.93.93,0,0,1-.79.37,1,1,0,0,1-.66-.23A.87.87,0,0,1,62,105.73Z"/><path class="cls-6" d="M5.27,68.15h-3v-.4H4.91V66.27h.36Z"/><path class="cls-6" d="M5.27,66.13,2.26,65v-.43l3-1.23v.45l-.91.36v1.25l.91.33ZM4,65.26v-1l-.83.31c-.25.1-.46.17-.62.22a3,3,0,0,1,.57.16Z"/><path class="cls-6" d="M4.09,61.59H3.73V60.31H4.85a2.52,2.52,0,0,1,.35.61,1.77,1.77,0,0,1-.07,1.44,1.27,1.27,0,0,1-.55.55,1.77,1.77,0,0,1-.8.18A1.86,1.86,0,0,1,3,62.91a1.23,1.23,0,0,1-.57-.53,1.67,1.67,0,0,1-.18-.79,1.59,1.59,0,0,1,.1-.59.92.92,0,0,1,.3-.41,1.24,1.24,0,0,1,.49-.23l.1.36a.86.86,0,0,0-.36.17.61.61,0,0,0-.21.28,1,1,0,0,0-.08.42,1.32,1.32,0,0,0,.08.47,1,1,0,0,0,.22.32,1.17,1.17,0,0,0,.3.19,1.49,1.49,0,0,0,.6.11,1.48,1.48,0,0,0,.67-.13.9.9,0,0,0,.41-.41A1.32,1.32,0,0,0,5,61.58a1.44,1.44,0,0,0-.1-.5,1.61,1.61,0,0,0-.21-.38H4.09Z"/><path class="cls-6" d="M3.8,59.85a1.66,1.66,0,0,1-1.17-.4,1.39,1.39,0,0,1-.42-1,1.44,1.44,0,0,1,.19-.75A1.25,1.25,0,0,1,3,57.15,1.79,1.79,0,0,1,3.77,57a1.67,1.67,0,0,1,.81.19,1.16,1.16,0,0,1,.55.52,1.56,1.56,0,0,1,.19.73,1.4,1.4,0,0,1-.21.76,1.32,1.32,0,0,1-.56.51A1.72,1.72,0,0,1,3.8,59.85Zm0-.41a1.22,1.22,0,0,0,.85-.29,1,1,0,0,0,0-1.48,1.3,1.3,0,0,0-.9-.29,1.47,1.47,0,0,0-.64.13.93.93,0,0,0-.42.36,1,1,0,0,0-.15.54,1,1,0,0,0,.29.72A1.25,1.25,0,0,0,3.81,59.44Z"/><path class="cls-6" d="M153.82,91.12l-3-1.15v-.43l3-1.23v.45l-.91.35v1.26l.91.33Zm-1.24-.87v-1l-.83.32c-.25.09-.46.17-.62.21a4,4,0,0,1,.57.16Z"/><path class="cls-6" d="M153.82,87.43l-2.18.83v-.39l1.3-.47.44-.14-.41-.13-1.33-.49v-.38l2.18.83Z"/><path class="cls-6" d="M153.82,85.83h-.42v-.42h.42Z"/><path class="cls-6" d="M153,83.76l0-.36a.75.75,0,0,0,.47-.13.42.42,0,0,0,.12-.32.55.55,0,0,0-.06-.26.33.33,0,0,0-.19-.14,1.11,1.11,0,0,0-.38,0h-2.07v-.39h2.05a1.55,1.55,0,0,1,.59.09.62.62,0,0,1,.31.29,1,1,0,0,1,.11.46.81.81,0,0,1-.23.61A1,1,0,0,1,153,83.76Z"/><path class="cls-6" d="M152.35,81.58a1.63,1.63,0,0,1-1.17-.41,1.35,1.35,0,0,1-.42-1,1.45,1.45,0,0,1,.2-.75,1.23,1.23,0,0,1,.55-.51,1.79,1.79,0,0,1,.81-.18,1.71,1.71,0,0,1,.82.19,1.18,1.18,0,0,1,.54.52,1.42,1.42,0,0,1,.19.73,1.4,1.4,0,0,1-.21.76,1.24,1.24,0,0,1-.56.5A1.6,1.6,0,0,1,152.35,81.58Zm0-.41a1.2,1.2,0,0,0,.86-.3,1,1,0,0,0,.31-.73,1,1,0,0,0-.32-.74,1.29,1.29,0,0,0-.89-.29,1.41,1.41,0,0,0-.64.13.9.9,0,0,0-.43.36,1,1,0,0,0-.15.53,1,1,0,0,0,.29.73A1.27,1.27,0,0,0,152.36,81.17Z"/><path class="cls-6" d="M153.82,78.52l-3-1.16v-.42l3-1.23v.45l-.91.35v1.26l.91.33Zm-1.24-.87v-1l-.83.32-.62.21a4,4,0,0,1,.57.16Z"/><path class="cls-6" d="M153.5,73.11a3.37,3.37,0,0,0,.28-.51l.27.11a2.25,2.25,0,0,1-.37.65,1.5,1.5,0,0,1,0,1.48,1.29,1.29,0,0,1-.55.51,1.77,1.77,0,0,1-.8.18,1.86,1.86,0,0,1-.82-.18,1.29,1.29,0,0,1-.55-.51,1.47,1.47,0,0,1-.19-.75,1.36,1.36,0,0,1,.2-.75,1.29,1.29,0,0,1,.55-.51,1.74,1.74,0,0,1,.8-.17,1.78,1.78,0,0,1,.67.11A1.38,1.38,0,0,1,153.5,73.11ZM153,74a1.47,1.47,0,0,1,.28-.56,1.2,1.2,0,0,0-1-.35,1.62,1.62,0,0,0-.64.12.93.93,0,0,0-.42.36,1,1,0,0,0-.15.54,1,1,0,0,0,.31.74,1.27,1.27,0,0,0,.91.29,1.3,1.3,0,0,0,.9-.29,1,1,0,0,0,.31-.74,1.06,1.06,0,0,0-.08-.4,1.13,1.13,0,0,0-.17.39Z"/><path class="cls-6" d="M150.81,70.15v-.4h1.74a2,2,0,0,1,.72.1.85.85,0,0,1,.43.37,1.32,1.32,0,0,1,.17.7,1.43,1.43,0,0,1-.15.7.82.82,0,0,1-.42.38,1.91,1.91,0,0,1-.75.11h-1.74v-.39h1.74a1.57,1.57,0,0,0,.57-.08.55.55,0,0,0,.29-.25.83.83,0,0,0,.1-.43.86.86,0,0,0-.2-.63,1.17,1.17,0,0,0-.76-.18Z"/><path class="cls-6" d="M153.82,69h-3v-.4h3Z"/><path class="cls-6" d="M153.82,67.92h-3v-.4l2.36-1.58h-2.36v-.38h3V66l-2.36,1.58h2.36Z"/><path class="cls-6" d="M152.85,63.86l0-.38a1,1,0,0,0,.37-.12.68.68,0,0,0,.23-.31,1.11,1.11,0,0,0,.09-.46,1.25,1.25,0,0,0-.06-.4.59.59,0,0,0-.19-.26.42.42,0,0,0-.26-.08.39.39,0,0,0-.25.08.5.5,0,0,0-.17.27c0,.08-.08.26-.15.53a2.75,2.75,0,0,1-.19.58.68.68,0,0,1-.28.32.6.6,0,0,1-.37.11.77.77,0,0,1-.43-.13.83.83,0,0,1-.3-.38,1.38,1.38,0,0,1-.1-.55,1.55,1.55,0,0,1,.11-.59.87.87,0,0,1,.31-.39,1,1,0,0,1,.48-.15l0,.38a.59.59,0,0,0-.43.21.8.8,0,0,0-.15.53.88.88,0,0,0,.13.52.41.41,0,0,0,.32.17.34.34,0,0,0,.27-.12,1.59,1.59,0,0,0,.21-.6,4.1,4.1,0,0,1,.2-.67.91.91,0,0,1,.3-.38.71.71,0,0,1,.43-.13.82.82,0,0,1,.45.14.91.91,0,0,1,.33.39,1.4,1.4,0,0,1,.12.58,1.74,1.74,0,0,1-.12.69,1,1,0,0,1-.36.43A1,1,0,0,1,152.85,63.86Z"/><path class="cls-6" d="M153.82,60.91h-3V58.74h.36v1.77h.92V58.85h.35v1.66h1V58.67h.36Z"/><path class="cls-6" d="M152.76,56l.1-.4a1.41,1.41,0,0,1,.75.45,1.28,1.28,0,0,1,.26.8,1.44,1.44,0,0,1-.2.79,1.2,1.2,0,0,1-.57.46,2,2,0,0,1-.81.16,1.8,1.8,0,0,1-.82-.18,1.24,1.24,0,0,1-.53-.51,1.49,1.49,0,0,1-.18-.73,1.27,1.27,0,0,1,.23-.76,1.2,1.2,0,0,1,.65-.42l.09.39a1,1,0,0,0-.48.3.8.8,0,0,0-.15.5,1,1,0,0,0,.17.58.91.91,0,0,0,.44.33,2,2,0,0,0,1.25,0,.83.83,0,0,0,.43-.35,1,1,0,0,0,.14-.51.88.88,0,0,0-.19-.56A1,1,0,0,0,152.76,56Z"/><path class="cls-6" d="M152.35,55.2a1.63,1.63,0,0,1-1.17-.4,1.36,1.36,0,0,1-.42-1A1.51,1.51,0,0,1,151,53a1.35,1.35,0,0,1,.55-.51,1.92,1.92,0,0,1,.81-.17,1.83,1.83,0,0,1,.82.18,1.26,1.26,0,0,1,.54.53,1.49,1.49,0,0,1,0,1.49,1.24,1.24,0,0,1-.56.5A1.59,1.59,0,0,1,152.35,55.2Zm0-.41a1.2,1.2,0,0,0,.86-.29,1,1,0,0,0,.31-.73,1,1,0,0,0-.32-.74,1.29,1.29,0,0,0-.89-.29,1.56,1.56,0,0,0-.64.12,1,1,0,0,0-.43.37,1,1,0,0,0-.15.53,1,1,0,0,0,.29.73A1.31,1.31,0,0,0,152.36,54.79Z"/><path class="cls-6" d="M153.82,50.58h-3v-.4h3Z"/><path class="cls-6" d="M153.82,49.5h-3v-.4h2.65V47.62h.36Z"/><path class="cls-6" d="M153.82,47.16h-3v-.39h2.65V45.28h.36Z"/><path class="cls-6" d="M153.82,45.14l-3-1.15v-.43l3-1.23v.45l-.91.35v1.26l.91.33Zm-1.24-.87v-1l-.83.32-.62.21a4,4,0,0,1,.57.16Z"/><path class="cls-6" d="M97.76,24.28v-3h2.17v.35H98.16v.92h1.66v.36H98.16v1H100v.35Z"/><path class="cls-6" d="M103,24.28h-.37V21.93a1.77,1.77,0,0,1-.35.26,3.44,3.44,0,0,1-.39.19V22a2.39,2.39,0,0,0,.54-.35,1.29,1.29,0,0,0,.33-.41H103Z"/><path class="cls-6" d="M103.91,22.8a2.6,2.6,0,0,1,.11-.86,1.11,1.11,0,0,1,.32-.5.85.85,0,0,1,.55-.18.93.93,0,0,1,.42.1.89.89,0,0,1,.3.28,1.56,1.56,0,0,1,.19.45,3.25,3.25,0,0,1,.07.71,2.78,2.78,0,0,1-.11.85,1,1,0,0,1-.33.51.8.8,0,0,1-.54.18.85.85,0,0,1-.69-.32A2,2,0,0,1,103.91,22.8Zm.38,0a1.89,1.89,0,0,0,.17,1,.52.52,0,0,0,.43.24.49.49,0,0,0,.42-.24,1.87,1.87,0,0,0,.18-1,1.87,1.87,0,0,0-.18-1,.5.5,0,0,0-.43-.24.45.45,0,0,0-.4.22A1.86,1.86,0,0,0,104.29,22.8Z"/><path class="cls-6" d="M108.18,23.93v.35h-2a.53.53,0,0,1,0-.25,1.29,1.29,0,0,1,.24-.4,3.62,3.62,0,0,1,.48-.46,4.82,4.82,0,0,0,.67-.63.82.82,0,0,0,.17-.45.47.47,0,0,0-.16-.37.56.56,0,0,0-.41-.15.55.55,0,0,0-.42.16.63.63,0,0,0-.17.44l-.37,0a.88.88,0,0,1,.29-.64,1,1,0,0,1,.68-.23,1,1,0,0,1,.69.24.82.82,0,0,1,.25.6.85.85,0,0,1-.08.35,1.22,1.22,0,0,1-.24.37,4.56,4.56,0,0,1-.57.53l-.43.38a1.3,1.3,0,0,0-.15.2Z"/><path class="cls-6" d="M108.4,24.34l.88-3.11h.29l-.87,3.11Z"/><path class="cls-6" d="M111.69,23.93v.35h-2a.69.69,0,0,1,0-.25,1.29,1.29,0,0,1,.24-.4,4.6,4.6,0,0,1,.49-.46,4.6,4.6,0,0,0,.66-.63.82.82,0,0,0,.17-.45.5.5,0,0,0-.15-.37.59.59,0,0,0-.41-.15.57.57,0,0,0-.43.16.58.58,0,0,0-.16.44l-.38,0a.88.88,0,0,1,.29-.64,1,1,0,0,1,.68-.23,1,1,0,0,1,.69.24.79.79,0,0,1,.25.6.84.84,0,0,1-.07.35,1.27,1.27,0,0,1-.25.37,4.56,4.56,0,0,1-.57.53,5.42,5.42,0,0,0-.42.38.94.94,0,0,0-.16.2Z"/><path class="cls-6" d="M112.08,22.8a2.9,2.9,0,0,1,.11-.86,1,1,0,0,1,.33-.5.8.8,0,0,1,.54-.18,1,1,0,0,1,.43.1.89.89,0,0,1,.3.28,1.32,1.32,0,0,1,.18.45,2.73,2.73,0,0,1,.07.71,2.5,2.5,0,0,1-.11.85,1.09,1.09,0,0,1-.32.51.85.85,0,0,1-.55.18.81.81,0,0,1-.68-.32A2,2,0,0,1,112.08,22.8Zm.38,0a2,2,0,0,0,.17,1,.51.51,0,0,0,.86,0,2,2,0,0,0,.17-1,2,2,0,0,0-.17-1,.52.52,0,0,0-.43-.24.47.47,0,0,0-.41.22A1.86,1.86,0,0,0,112.46,22.8Z"/><path class="cls-6" d="M116.36,23.93v.35h-2a.69.69,0,0,1,0-.25,1.16,1.16,0,0,1,.25-.4,3.62,3.62,0,0,1,.48-.46,4.11,4.11,0,0,0,.66-.63.75.75,0,0,0,.17-.45.5.5,0,0,0-.15-.37.65.65,0,0,0-.84,0,.58.58,0,0,0-.16.44l-.38,0a.92.92,0,0,1,.29-.64,1,1,0,0,1,.69-.23,1,1,0,0,1,.68.24.79.79,0,0,1,.25.6.84.84,0,0,1-.07.35,1.27,1.27,0,0,1-.25.37,5.11,5.11,0,0,1-.56.53,4.5,4.5,0,0,0-.43.38,1.4,1.4,0,0,0-.16.2Z"/><path class="cls-6" d="M98.15,107.41l-.8-3h.41l.46,2c0,.21.09.41.13.61.07-.32.12-.5.13-.55l.57-2h.48l.43,1.52a8.29,8.29,0,0,1,.24,1.06l.15-.65.47-1.93h.4l-.83,3H100l-.63-2.3c-.06-.19-.09-.3-.1-.35l-.08.35-.64,2.3Z"/><path class="cls-6" d="M104,107.41h-.37v-2.36a2.12,2.12,0,0,1-.35.26,2.3,2.3,0,0,1-.39.19v-.36a2.1,2.1,0,0,0,.54-.35,1.27,1.27,0,0,0,.33-.4H104Z"/><path class="cls-6" d="M104.94,105.92a2.9,2.9,0,0,1,.11-.86,1.22,1.22,0,0,1,.33-.5.87.87,0,0,1,.54-.17.94.94,0,0,1,.43.09.89.89,0,0,1,.3.28,1.85,1.85,0,0,1,.19.45,3.35,3.35,0,0,1,.06.71,2.89,2.89,0,0,1-.1.86,1.22,1.22,0,0,1-.33.5.9.9,0,0,1-1.23-.14A2,2,0,0,1,104.94,105.92Zm.38,0a1.85,1.85,0,0,0,.18,1,.49.49,0,0,0,.42.24.51.51,0,0,0,.43-.24,1.87,1.87,0,0,0,.17-1,1.82,1.82,0,0,0-.17-1,.5.5,0,0,0-.43-.25.48.48,0,0,0-.41.22A2,2,0,0,0,105.32,105.92Z"/><path class="cls-6" d="M109.2,105.13l-.37,0a.64.64,0,0,0-.14-.31.47.47,0,0,0-.37-.16.48.48,0,0,0-.31.1.83.83,0,0,0-.28.37,2,2,0,0,0-.1.69.94.94,0,0,1,.33-.3.9.9,0,0,1,.4-.09.83.83,0,0,1,.63.27,1,1,0,0,1,.26.7,1.21,1.21,0,0,1-.12.53.94.94,0,0,1-.34.37,1,1,0,0,1-.48.13,1,1,0,0,1-.76-.34,1.75,1.75,0,0,1-.29-1.12,2,2,0,0,1,.33-1.27.9.9,0,0,1,.75-.34.8.8,0,0,1,.58.2A.88.88,0,0,1,109.2,105.13Zm-1.51,1.3a.8.8,0,0,0,.08.37.58.58,0,0,0,.23.26.53.53,0,0,0,.3.09.5.5,0,0,0,.4-.19.69.69,0,0,0,.17-.51.65.65,0,0,0-.17-.49.54.54,0,0,0-.41-.18.58.58,0,0,0-.43.18A.68.68,0,0,0,107.69,106.43Z"/><path class="cls-6" d="M109.44,107.46l.87-3.11h.3l-.87,3.11Z"/><path class="cls-6" d="M112.72,107.05v.36h-2a.57.57,0,0,1,0-.26,1.29,1.29,0,0,1,.24-.4,4.39,4.39,0,0,1,.48-.46,4.28,4.28,0,0,0,.67-.63.82.82,0,0,0,.17-.45.49.49,0,0,0-.16-.37.56.56,0,0,0-.41-.15.59.59,0,0,0-.42.16.65.65,0,0,0-.17.45l-.37,0a.9.9,0,0,1,.29-.65,1,1,0,0,1,.68-.22,1,1,0,0,1,.69.24.8.8,0,0,1,.25.59.94.94,0,0,1-.08.36,1.32,1.32,0,0,1-.24.36,4.56,4.56,0,0,1-.57.53l-.43.38a1.3,1.3,0,0,0-.15.2Z"/><path class="cls-6" d="M113.12,105.92a2.9,2.9,0,0,1,.11-.86,1.11,1.11,0,0,1,.32-.5.9.9,0,0,1,.55-.17.82.82,0,0,1,.73.37,1.84,1.84,0,0,1,.18.45,2.73,2.73,0,0,1,.07.71,2.85,2.85,0,0,1-.11.86,1.11,1.11,0,0,1-.32.5.85.85,0,0,1-.55.18.81.81,0,0,1-.68-.32A2,2,0,0,1,113.12,105.92Zm.38,0a2,2,0,0,0,.17,1,.51.51,0,0,0,.86,0,2,2,0,0,0,.17-1,1.93,1.93,0,0,0-.17-1,.51.51,0,0,0-.44-.25.46.46,0,0,0-.4.22A1.86,1.86,0,0,0,113.5,105.92Z"/><path class="cls-6" d="M117.37,105.13l-.37,0a.64.64,0,0,0-.14-.31.47.47,0,0,0-.37-.16.5.5,0,0,0-.31.1.89.89,0,0,0-.27.37,1.8,1.8,0,0,0-.1.69.84.84,0,0,1,.32-.3,1,1,0,0,1,.41-.09.83.83,0,0,1,.62.27.94.94,0,0,1,.26.7,1.21,1.21,0,0,1-.12.53.91.91,0,0,1-.33.37,1,1,0,0,1-.49.13,1,1,0,0,1-.75-.34,1.75,1.75,0,0,1-.29-1.12,2.06,2.06,0,0,1,.32-1.27.93.93,0,0,1,.76-.34.81.81,0,0,1,.85.74Zm-1.51,1.3a1,1,0,0,0,.08.37.65.65,0,0,0,.23.26.59.59,0,0,0,.31.09.51.51,0,0,0,.4-.19.73.73,0,0,0,.17-.51.69.69,0,0,0-.17-.49.58.58,0,0,0-.84,0A.64.64,0,0,0,115.86,106.43Z"/><polyline class="cls-5" points="88.52 53.18 107.99 53.18 107.99 55.47 112.32 55.47 112.32 53.18 116.01 53.18 116.01 54.58 120.59 54.58 120.59 53.18 124.03 53.18 124.03 55.47 129.76 55.47 129.76 33.19 112.07 33.19 112.07 35.1 88.52 35.1 88.52 53.18"/><polyline class="cls-5" points="112.07 33.19 129.76 33.19 129.76 10.66 124.03 10.66 124.03 12.95 120.6 12.95 120.6 11.68 116.01 11.68 116.01 12.95 112.32 12.95 112.32 10.66 107.99 10.66 107.99 12.95 89.03 12.95 89.03 16.01 80.75 16.01 80.75 31.16 112.07 31.16 112.07 33.19"/><line class="cls-5" x1="112.32" y1="10.66" x2="124.03" y2="10.66"/><polyline class="cls-5" points="112.83 11.43 112.32 11.3 124.03 11.3"/><line class="cls-5" x1="113.08" y1="11.55" x2="113.59" y2="11.81"/><line class="cls-5" x1="113.85" y1="11.93" x2="114.36" y2="12.19"/><line class="cls-5" x1="114.74" y1="12.32" x2="115.25" y2="12.57"/><line class="cls-5" x1="115.5" y1="12.7" x2="116.01" y2="12.95"/><line class="cls-5" x1="112.32" y1="12.95" x2="112.83" y2="12.7"/><line class="cls-5" x1="113.08" y1="12.57" x2="113.59" y2="12.32"/><line class="cls-5" x1="113.85" y1="12.19" x2="114.36" y2="11.93"/><line class="cls-5" x1="114.74" y1="11.81" x2="115.25" y2="11.55"/><line class="cls-5" x1="115.5" y1="11.43" x2="116.01" y2="11.3"/><line class="cls-5" x1="120.6" y1="11.3" x2="120.98" y2="11.43"/><line class="cls-5" x1="121.23" y1="11.55" x2="121.74" y2="11.81"/><line class="cls-5" x1="122" y1="11.93" x2="122.63" y2="12.19"/><line class="cls-5" x1="122.89" y1="12.32" x2="123.4" y2="12.57"/><line class="cls-5" x1="123.65" y1="12.83" x2="124.03" y2="12.95"/><line class="cls-5" x1="120.6" y1="12.95" x2="120.98" y2="12.83"/><line class="cls-5" x1="121.23" y1="12.57" x2="121.74" y2="12.32"/><line class="cls-5" x1="122" y1="12.19" x2="122.63" y2="11.93"/><line class="cls-5" x1="122.89" y1="11.81" x2="123.4" y2="11.55"/><line class="cls-5" x1="123.65" y1="11.43" x2="124.03" y2="11.3"/><line class="cls-5" x1="112.32" y1="55.47" x2="124.03" y2="55.47"/><polyline class="cls-5" points="112.83 54.71 112.32 54.96 124.03 54.96"/><line class="cls-5" x1="113.08" y1="54.58" x2="113.59" y2="54.32"/><line class="cls-5" x1="113.85" y1="54.2" x2="114.36" y2="53.94"/><line class="cls-5" x1="114.74" y1="53.82" x2="115.25" y2="53.56"/><line class="cls-5" x1="115.5" y1="53.43" x2="116.01" y2="53.18"/><line class="cls-5" x1="112.32" y1="53.18" x2="112.83" y2="53.43"/><line class="cls-5" x1="113.08" y1="53.56" x2="113.59" y2="53.82"/><line class="cls-5" x1="113.85" y1="53.94" x2="114.36" y2="54.2"/><line class="cls-5" x1="114.74" y1="54.32" x2="115.25" y2="54.58"/><line class="cls-5" x1="115.5" y1="54.71" x2="116.01" y2="54.96"/><line class="cls-5" x1="120.6" y1="54.96" x2="120.98" y2="54.71"/><line class="cls-5" x1="121.23" y1="54.58" x2="121.74" y2="54.32"/><line class="cls-5" x1="122" y1="54.2" x2="122.63" y2="53.94"/><line class="cls-5" x1="122.89" y1="53.82" x2="123.4" y2="53.56"/><line class="cls-5" x1="123.65" y1="53.43" x2="124.03" y2="53.18"/><line class="cls-5" x1="120.6" y1="53.18" x2="120.98" y2="53.43"/><line class="cls-5" x1="121.23" y1="53.56" x2="121.74" y2="53.82"/><line class="cls-5" x1="122" y1="53.94" x2="122.63" y2="54.2"/><line class="cls-5" x1="122.89" y1="54.32" x2="123.4" y2="54.58"/><line class="cls-5" x1="123.65" y1="54.71" x2="124.03" y2="54.96"/><polyline class="cls-5" points="88.52 75.45 107.99 75.45 107.99 73.29 112.32 73.29 112.32 75.45 116.01 75.45 116.01 74.18 120.59 74.18 120.59 75.45 124.03 75.45 124.03 73.29 129.76 73.29 129.76 95.57 112.07 95.57 112.07 93.66 88.52 93.66 88.52 75.45"/><polyline class="cls-5" points="112.07 95.57 129.76 95.57 129.76 117.97 124.03 117.97 124.03 115.81 120.6 115.81 120.6 117.08 116.01 117.08 116.01 115.81 112.32 115.81 112.32 117.97 107.99 117.97 107.99 115.81 89.03 115.81 89.03 112.75 80.75 112.75 80.75 97.48 112.07 97.48 112.07 95.57"/><line class="cls-5" x1="112.32" y1="117.97" x2="124.03" y2="117.97"/><polyline class="cls-5" points="112.83 117.21 112.32 117.46 124.03 117.46"/><line class="cls-5" x1="113.08" y1="117.08" x2="113.59" y2="116.83"/><line class="cls-5" x1="113.85" y1="116.7" x2="114.36" y2="116.44"/><line class="cls-5" x1="114.74" y1="116.32" x2="115.25" y2="116.06"/><line class="cls-5" x1="115.5" y1="115.94" x2="116.01" y2="115.81"/><line class="cls-5" x1="112.32" y1="115.81" x2="112.83" y2="115.93"/><line class="cls-5" x1="113.08" y1="116.06" x2="113.59" y2="116.32"/><line class="cls-5" x1="113.85" y1="116.44" x2="114.36" y2="116.7"/><line class="cls-5" x1="114.74" y1="116.83" x2="115.25" y2="117.08"/><line class="cls-5" x1="115.5" y1="117.21" x2="116.01" y2="117.46"/><line class="cls-5" x1="120.6" y1="117.46" x2="120.98" y2="117.34"/><line class="cls-5" x1="121.23" y1="117.08" x2="121.74" y2="116.83"/><line class="cls-5" x1="122" y1="116.7" x2="122.63" y2="116.44"/><line class="cls-5" x1="122.89" y1="116.32" x2="123.4" y2="116.06"/><line class="cls-5" x1="123.65" y1="115.94" x2="124.03" y2="115.81"/><line class="cls-5" x1="120.6" y1="115.81" x2="120.98" y2="115.93"/><line class="cls-5" x1="121.23" y1="116.06" x2="121.74" y2="116.32"/><line class="cls-5" x1="122" y1="116.44" x2="122.63" y2="116.7"/><line class="cls-5" x1="122.89" y1="116.83" x2="123.4" y2="117.08"/><line class="cls-5" x1="123.65" y1="117.34" x2="124.03" y2="117.46"/><line class="cls-5" x1="112.32" y1="73.29" x2="124.03" y2="73.29"/><polyline class="cls-5" points="112.83 74.06 112.32 73.8 124.03 73.8"/><line class="cls-5" x1="113.08" y1="74.18" x2="113.59" y2="74.44"/><line class="cls-5" x1="113.85" y1="74.56" x2="114.36" y2="74.82"/><line class="cls-5" x1="114.74" y1="74.95" x2="115.25" y2="75.2"/><line class="cls-5" x1="115.5" y1="75.33" x2="116.01" y2="75.45"/><line class="cls-5" x1="112.32" y1="75.46" x2="112.83" y2="75.33"/><line class="cls-5" x1="113.08" y1="75.2" x2="113.59" y2="74.95"/><line class="cls-5" x1="113.85" y1="74.82" x2="114.36" y2="74.56"/><line class="cls-5" x1="114.74" y1="74.44" x2="115.25" y2="74.18"/><line class="cls-5" x1="115.5" y1="74.05" x2="116.01" y2="73.8"/><line class="cls-5" x1="120.6" y1="73.8" x2="120.98" y2="73.93"/><line class="cls-5" x1="121.23" y1="74.18" x2="121.74" y2="74.44"/><line class="cls-5" x1="122" y1="74.56" x2="122.63" y2="74.82"/><line class="cls-5" x1="122.89" y1="74.95" x2="123.4" y2="75.2"/><line class="cls-5" x1="123.65" y1="75.33" x2="124.03" y2="75.45"/><line class="cls-5" x1="120.6" y1="75.46" x2="120.98" y2="75.33"/><line class="cls-5" x1="121.23" y1="75.2" x2="121.74" y2="74.95"/><line class="cls-5" x1="122" y1="74.82" x2="122.63" y2="74.56"/><line class="cls-5" x1="122.89" y1="74.44" x2="123.4" y2="74.18"/><line class="cls-5" x1="123.65" y1="73.93" x2="124.03" y2="73.8"/></g></g></svg>