<svg id="Capa_1" data-name="Capa 1" xmlns="http://www.w3.org/2000/svg" xmlns:xlink="http://www.w3.org/1999/xlink" viewBox="0 0 168.43 120.58"><defs><style>.cls-1,.cls-4,.cls-5,.cls-7{fill:none;}.cls-2{clip-path:url(#clip-path);}.cls-3{fill:#ebebeb;}.cls-4{stroke:#ebebeb;}.cls-4,.cls-5,.cls-7{stroke-miterlimit:10;}.cls-4,.cls-7{stroke-width:0;}.cls-5,.cls-7{stroke:#63666b;stroke-linecap:round;}.cls-5{stroke-width:0.25px;}.cls-6{fill:#63666b;}.cls-8{clip-path:url(#clip-path-2);}</style><clipPath id="clip-path"><rect class="cls-1" x="-70.98" y="-530.24" width="1190.55" height="841.89"/></clipPath><clipPath id="clip-path-2"><rect class="cls-1" y="0.29" width="168.43" height="120.3"/></clipPath></defs><title>W106S</title><g class="cls-2"><path class="cls-3" d="M111.86,95.86l17.7,1.91h-17.7Zm17.7,0h-17.7l17.7,1.91Z"/><path class="cls-4" d="M111.86,95.86l17.7,1.91h-17.7Zm17.7,0h-17.7l17.7,1.91Z"/><path class="cls-3" d="M80.55,97.77l49,15.28h-49Zm49,0h-49l49,15.28Z"/><path class="cls-4" d="M80.55,97.77l49,15.28h-49Zm49,0h-49l49,15.28Z"/><path class="cls-3" d="M88.82,113.05l40.74,3H88.82Zm40.74,0H88.82l40.74,3Z"/><path class="cls-4" d="M88.82,113.05l40.74,3H88.82Zm40.74,0H88.82l40.74,3Z"/><path class="cls-3" d="M115.81,116.1l4.58,1.28h-4.58Zm4.58,0h-4.58l4.58,1.28Z"/><path class="cls-4" d="M115.81,116.1l4.58,1.28h-4.58Zm4.58,0h-4.58l4.58,1.28Z"/><path class="cls-3" d="M123.83,116.1l5.73,2.17h-5.73Zm5.73,0h-5.73l5.73,2.17Z"/><path class="cls-4" d="M123.83,116.1l5.73,2.17h-5.73Zm5.73,0h-5.73l5.73,2.17Z"/><path class="cls-3" d="M107.79,116.1l4.33,2.17h-4.33Zm4.33,0h-4.33l4.33,2.17Z"/><path class="cls-4" d="M107.79,116.1l4.33,2.17h-4.33Zm4.33,0h-4.33l4.33,2.17Z"/><polyline class="cls-5" points="80.55 16.3 71 16.3 71 13.25 37.52 13.25 37.52 11.97 32.94 11.97 32.94 13.25 28.99 13.25 28.99 26.74 22.63 26.74 22.63 47.49 23.77 47.49 23.77 49.78 43.25 49.78 43.25 44.18 43.38 44.18 43.38 31.45 80.55 31.45 80.55 16.3"/><polyline class="cls-5" points="43.25 44.18 57.76 44.18 57.76 54.11 59.93 54.11 59.93 63.66 57.76 63.66 57.76 71.42 59.93 71.42 59.93 76.51 57.76 76.51 57.76 85.17 47.71 85.17 47.71 89.88 43.25 89.88 43.25 79.57 25.18 79.57 25.18 52.45 23.78 52.45 23.78 49.78 43.25 49.78 43.25 44.18"/><polyline class="cls-5" points="80.55 113.05 71 113.05 71 116.1 37.52 116.1 37.52 117.38 32.94 117.38 32.94 116.1 28.99 116.1 28.99 102.48 22.63 102.48 22.63 81.73 23.77 81.73 23.77 79.57 43.25 79.57 43.25 85.17 43.38 85.17 43.38 97.77 80.55 97.77 80.55 113.05"/><polyline class="cls-5" points="88.31 35.91 78.26 35.91 78.26 44.69 67.06 44.69 67.06 35.91 60.44 35.91 60.44 44.69 57.76 44.69"/><line class="cls-5" x1="60.44" y1="44.18" x2="67.06" y2="44.18"/><line class="cls-5" x1="67.06" y1="44.69" x2="60.44" y2="44.69"/><line class="cls-5" x1="78.26" y1="44.69" x2="88.31" y2="44.69"/><line class="cls-5" x1="88.31" y1="44.18" x2="78.26" y2="44.18"/><line class="cls-5" x1="59.93" y1="44.69" x2="59.93" y2="84.53"/><line class="cls-5" x1="60.44" y1="84.53" x2="60.44" y2="44.69"/><polyline class="cls-5" points="88.31 93.32 78.26 93.32 78.26 84.53 67.06 84.53 67.06 93.32 60.44 93.32 60.44 84.53 57.76 84.53"/><line class="cls-5" x1="60.44" y1="85.17" x2="67.06" y2="85.17"/><line class="cls-5" x1="67.06" y1="84.53" x2="60.44" y2="84.53"/><line class="cls-5" x1="78.26" y1="84.53" x2="88.31" y2="84.53"/><line class="cls-5" x1="88.31" y1="85.17" x2="78.26" y2="85.17"/><line class="cls-5" x1="60.44" y1="35.91" x2="60.82" y2="36.42"/><line class="cls-5" x1="61.07" y1="36.67" x2="61.46" y2="37.18"/><line class="cls-5" x1="61.58" y1="37.31" x2="61.96" y2="37.82"/><line class="cls-5" x1="62.09" y1="38.07" x2="62.47" y2="38.58"/><line class="cls-5" x1="62.73" y1="38.83" x2="63.11" y2="39.22"/><line class="cls-5" x1="63.24" y1="39.47" x2="63.62" y2="39.98"/><line class="cls-5" x1="63.87" y1="40.23" x2="64.26" y2="40.62"/><line class="cls-5" x1="64.38" y1="40.87" x2="64.76" y2="41.38"/><line class="cls-5" x1="65.02" y1="41.63" x2="65.27" y2="42.02"/><line class="cls-5" x1="65.53" y1="42.27" x2="65.91" y2="42.78"/><line class="cls-5" x1="66.04" y1="43.03" x2="66.42" y2="43.42"/><line class="cls-5" x1="66.67" y1="43.67" x2="67.06" y2="44.18"/><line class="cls-5" x1="60.44" y1="44.18" x2="60.82" y2="43.67"/><line class="cls-5" x1="61.07" y1="43.42" x2="61.46" y2="43.03"/><line class="cls-5" x1="61.58" y1="42.78" x2="61.96" y2="42.27"/><line class="cls-5" x1="62.09" y1="42.02" x2="62.47" y2="41.63"/><line class="cls-5" x1="62.73" y1="41.38" x2="63.11" y2="40.87"/><line class="cls-5" x1="63.24" y1="40.62" x2="63.62" y2="40.23"/><line class="cls-5" x1="63.87" y1="39.98" x2="64.26" y2="39.47"/><line class="cls-5" x1="64.38" y1="39.22" x2="64.76" y2="38.83"/><line class="cls-5" x1="65.02" y1="38.58" x2="65.27" y2="38.07"/><line class="cls-5" x1="65.53" y1="37.82" x2="65.91" y2="37.31"/><line class="cls-5" x1="66.04" y1="37.18" x2="66.42" y2="36.67"/><line class="cls-5" x1="66.67" y1="36.42" x2="67.06" y2="35.91"/><line class="cls-5" x1="78.26" y1="35.91" x2="78.64" y2="36.29"/><line class="cls-5" x1="78.89" y1="36.42" x2="79.4" y2="36.8"/><line class="cls-5" x1="79.53" y1="37.05" x2="80.04" y2="37.43"/><line class="cls-5" x1="80.29" y1="37.56" x2="80.8" y2="37.94"/><line class="cls-5" x1="80.93" y1="38.2" x2="81.44" y2="38.58"/><line class="cls-5" x1="81.7" y1="38.71" x2="82.2" y2="39.09"/><line class="cls-5" x1="82.33" y1="39.34" x2="82.84" y2="39.73"/><line class="cls-5" x1="83.1" y1="39.85" x2="83.6" y2="40.23"/><line class="cls-5" x1="83.73" y1="40.49" x2="84.24" y2="40.87"/><line class="cls-5" x1="84.5" y1="41" x2="85" y2="41.38"/><line class="cls-5" x1="85.13" y1="41.63" x2="85.64" y2="42.02"/><line class="cls-5" x1="85.9" y1="42.14" x2="86.28" y2="42.53"/><line class="cls-5" x1="86.53" y1="42.78" x2="87.04" y2="43.16"/><line class="cls-5" x1="87.3" y1="43.29" x2="87.68" y2="43.67"/><line class="cls-5" x1="87.93" y1="43.93" x2="88.31" y2="44.18"/><line class="cls-5" x1="88.31" y1="35.91" x2="87.93" y2="36.29"/><line class="cls-5" x1="87.68" y1="36.42" x2="87.3" y2="36.8"/><line class="cls-5" x1="87.04" y1="37.05" x2="86.53" y2="37.43"/><line class="cls-5" x1="86.28" y1="37.56" x2="85.9" y2="37.94"/><line class="cls-5" x1="85.64" y1="38.2" x2="85.13" y2="38.58"/><line class="cls-5" x1="85" y1="38.71" x2="84.5" y2="39.09"/><line class="cls-5" x1="84.24" y1="39.34" x2="83.73" y2="39.73"/><line class="cls-5" x1="83.6" y1="39.85" x2="83.1" y2="40.23"/><line class="cls-5" x1="82.84" y1="40.49" x2="82.33" y2="40.87"/><line class="cls-5" x1="82.2" y1="41" x2="81.7" y2="41.38"/><line class="cls-5" x1="81.44" y1="41.63" x2="80.93" y2="42.02"/><line class="cls-5" x1="80.8" y1="42.14" x2="80.3" y2="42.53"/><line class="cls-5" x1="80.04" y1="42.78" x2="79.53" y2="43.16"/><line class="cls-5" x1="79.4" y1="43.29" x2="78.9" y2="43.67"/><line class="cls-5" x1="78.64" y1="43.93" x2="78.26" y2="44.18"/><line class="cls-5" x1="57.76" y1="54.11" x2="59.93" y2="44.69"/><line class="cls-5" x1="57.76" y1="44.69" x2="59.93" y2="54.11"/><line class="cls-5" x1="57.76" y1="63.66" x2="58.02" y2="64.42"/><line class="cls-5" x1="58.15" y1="64.67" x2="58.27" y2="65.31"/><line class="cls-5" x1="58.27" y1="65.57" x2="58.53" y2="66.07"/><line class="cls-5" x1="58.53" y1="66.46" x2="58.65" y2="66.97"/><line class="cls-5" x1="58.78" y1="67.35" x2="58.91" y2="67.86"/><line class="cls-5" x1="59.04" y1="68.11" x2="59.16" y2="68.75"/><line class="cls-5" x1="59.29" y1="69" x2="59.42" y2="69.64"/><line class="cls-5" x1="59.55" y1="69.89" x2="59.67" y2="70.53"/><line class="cls-5" x1="59.67" y1="70.79" x2="59.93" y2="71.42"/><line class="cls-5" x1="57.76" y1="71.42" x2="58.02" y2="70.79"/><line class="cls-5" x1="58.15" y1="70.53" x2="58.27" y2="69.89"/><line class="cls-5" x1="58.27" y1="69.64" x2="58.53" y2="69"/><line class="cls-5" x1="58.53" y1="68.75" x2="58.65" y2="68.11"/><line class="cls-5" x1="58.78" y1="67.86" x2="58.91" y2="67.35"/><line class="cls-5" x1="59.04" y1="66.97" x2="59.16" y2="66.46"/><line class="cls-5" x1="59.29" y1="66.08" x2="59.42" y2="65.57"/><line class="cls-5" x1="59.55" y1="65.31" x2="59.67" y2="64.67"/><line class="cls-5" x1="59.67" y1="64.42" x2="59.93" y2="63.66"/><line class="cls-5" x1="60.44" y1="93.32" x2="60.82" y2="92.93"/><line class="cls-5" x1="61.07" y1="92.68" x2="61.46" y2="92.17"/><line class="cls-5" x1="61.58" y1="91.92" x2="61.96" y2="91.53"/><line class="cls-5" x1="62.09" y1="91.28" x2="62.47" y2="90.77"/><line class="cls-5" x1="62.73" y1="90.52" x2="63.11" y2="90.01"/><line class="cls-5" x1="63.24" y1="89.88" x2="63.62" y2="89.37"/><line class="cls-5" x1="63.87" y1="89.12" x2="64.26" y2="88.61"/><line class="cls-5" x1="64.38" y1="88.48" x2="64.76" y2="87.97"/><line class="cls-5" x1="65.02" y1="87.72" x2="65.27" y2="87.21"/><line class="cls-5" x1="65.53" y1="86.95" x2="65.91" y2="86.57"/><line class="cls-5" x1="66.04" y1="86.32" x2="66.42" y2="85.81"/><line class="cls-5" x1="66.67" y1="85.55" x2="67.06" y2="85.17"/><line class="cls-5" x1="60.44" y1="85.17" x2="60.82" y2="85.55"/><line class="cls-5" x1="61.07" y1="85.81" x2="61.46" y2="86.31"/><line class="cls-5" x1="61.58" y1="86.57" x2="61.96" y2="86.95"/><line class="cls-5" x1="62.09" y1="87.21" x2="62.47" y2="87.71"/><line class="cls-5" x1="62.73" y1="87.97" x2="63.11" y2="88.48"/><line class="cls-5" x1="63.24" y1="88.61" x2="63.62" y2="89.11"/><line class="cls-5" x1="63.87" y1="89.37" x2="64.26" y2="89.88"/><line class="cls-5" x1="64.38" y1="90.01" x2="64.76" y2="90.52"/><line class="cls-5" x1="65.02" y1="90.77" x2="65.27" y2="91.28"/><line class="cls-5" x1="65.53" y1="91.53" x2="65.91" y2="91.92"/><line class="cls-5" x1="66.04" y1="92.17" x2="66.42" y2="92.68"/><line class="cls-5" x1="66.67" y1="92.93" x2="67.06" y2="93.32"/><line class="cls-5" x1="78.26" y1="93.32" x2="78.64" y2="93.06"/><line class="cls-5" x1="78.89" y1="92.81" x2="79.4" y2="92.43"/><line class="cls-5" x1="79.53" y1="92.3" x2="80.04" y2="91.92"/><line class="cls-5" x1="80.29" y1="91.66" x2="80.8" y2="91.28"/><line class="cls-5" x1="80.93" y1="91.15" x2="81.44" y2="90.77"/><line class="cls-5" x1="81.7" y1="90.52" x2="82.2" y2="90.13"/><line class="cls-5" x1="82.33" y1="90.01" x2="82.84" y2="89.63"/><line class="cls-5" x1="83.1" y1="89.37" x2="83.6" y2="88.99"/><line class="cls-5" x1="83.73" y1="88.86" x2="84.24" y2="88.48"/><line class="cls-5" x1="84.5" y1="88.22" x2="85" y2="87.97"/><line class="cls-5" x1="85.13" y1="87.72" x2="85.64" y2="87.33"/><line class="cls-5" x1="85.9" y1="87.21" x2="86.28" y2="86.82"/><line class="cls-5" x1="86.53" y1="86.57" x2="87.04" y2="86.19"/><line class="cls-5" x1="87.3" y1="86.06" x2="87.68" y2="85.68"/><line class="cls-5" x1="87.93" y1="85.42" x2="88.31" y2="85.17"/><line class="cls-5" x1="78.26" y1="85.17" x2="78.64" y2="85.42"/><line class="cls-5" x1="78.89" y1="85.68" x2="79.4" y2="86.06"/><line class="cls-5" x1="79.53" y1="86.19" x2="80.04" y2="86.57"/><line class="cls-5" x1="80.29" y1="86.82" x2="80.8" y2="87.21"/><line class="cls-5" x1="80.93" y1="87.33" x2="81.44" y2="87.72"/><line class="cls-5" x1="81.7" y1="87.97" x2="82.2" y2="88.22"/><line class="cls-5" x1="82.33" y1="88.48" x2="82.84" y2="88.86"/><line class="cls-5" x1="83.1" y1="88.99" x2="83.6" y2="89.37"/><line class="cls-5" x1="83.73" y1="89.62" x2="84.24" y2="90.01"/><line class="cls-5" x1="84.5" y1="90.13" x2="85" y2="90.52"/><line class="cls-5" x1="85.13" y1="90.77" x2="85.64" y2="91.15"/><line class="cls-5" x1="85.9" y1="91.28" x2="86.28" y2="91.66"/><line class="cls-5" x1="86.53" y1="91.92" x2="87.04" y2="92.3"/><line class="cls-5" x1="87.3" y1="92.42" x2="87.68" y2="92.81"/><line class="cls-5" x1="87.93" y1="93.06" x2="88.31" y2="93.32"/><line class="cls-5" x1="57.76" y1="84.53" x2="57.89" y2="84.15"/><line class="cls-5" x1="58.02" y1="83.9" x2="58.15" y2="83.26"/><line class="cls-5" x1="58.27" y1="83.01" x2="58.4" y2="82.37"/><line class="cls-5" x1="58.4" y1="82.11" x2="58.65" y2="81.61"/><line class="cls-5" x1="58.65" y1="81.22" x2="58.78" y2="80.71"/><line class="cls-5" x1="58.91" y1="80.33" x2="59.04" y2="79.82"/><line class="cls-5" x1="59.16" y1="79.57" x2="59.29" y2="78.93"/><line class="cls-5" x1="59.42" y1="78.68" x2="59.54" y2="78.04"/><line class="cls-5" x1="59.55" y1="77.79" x2="59.67" y2="77.15"/><line class="cls-5" x1="59.8" y1="76.9" x2="59.93" y2="76.51"/><line class="cls-5" x1="57.76" y1="76.51" x2="57.89" y2="76.9"/><line class="cls-5" x1="58.02" y1="77.15" x2="58.15" y2="77.79"/><line class="cls-5" x1="58.27" y1="78.04" x2="58.4" y2="78.68"/><line class="cls-5" x1="58.4" y1="78.93" x2="58.65" y2="79.57"/><line class="cls-5" x1="58.65" y1="79.82" x2="58.78" y2="80.33"/><line class="cls-5" x1="58.91" y1="80.71" x2="59.04" y2="81.22"/><line class="cls-5" x1="59.16" y1="81.6" x2="59.29" y2="82.11"/><line class="cls-5" x1="59.42" y1="82.37" x2="59.54" y2="83.01"/><line class="cls-5" x1="59.55" y1="83.26" x2="59.67" y2="83.9"/><line class="cls-5" x1="59.8" y1="84.15" x2="59.93" y2="84.53"/><path class="cls-6" d="M44,25.6v-3h2.17V23H44.36v.92H46v.35H44.36v1h1.85v.36Z"/><path class="cls-6" d="M49.17,25.6H48.8V23.24a2.12,2.12,0,0,1-.35.26,3.38,3.38,0,0,1-.39.19v-.36A1.86,1.86,0,0,0,48.6,23a1.42,1.42,0,0,0,.33-.4h.24Z"/><path class="cls-6" d="M50.11,24.11a2.78,2.78,0,0,1,.11-.85,1.11,1.11,0,0,1,.33-.51,1,1,0,0,1,1-.07.73.73,0,0,1,.3.28,1.62,1.62,0,0,1,.19.44,3.41,3.41,0,0,1,.06.71A2.57,2.57,0,0,1,52,25a1.06,1.06,0,0,1-.32.5.83.83,0,0,1-.55.18.85.85,0,0,1-.68-.31A2,2,0,0,1,50.11,24.11Zm.38,0a1.82,1.82,0,0,0,.18,1,.5.5,0,0,0,.42.25.53.53,0,0,0,.43-.25,1.84,1.84,0,0,0,.17-1,1.82,1.82,0,0,0-.17-1,.53.53,0,0,0-.43-.25.49.49,0,0,0-.41.22A1.86,1.86,0,0,0,50.49,24.11Z"/><path class="cls-6" d="M52.45,24.8l.37-.05a.8.8,0,0,0,.22.46.53.53,0,0,0,.37.14.61.61,0,0,0,.44-.19.59.59,0,0,0,.18-.44.58.58,0,0,0-.59-.59,1.51,1.51,0,0,0-.26,0l0-.32h.06a.74.74,0,0,0,.42-.12.41.41,0,0,0,.19-.38.43.43,0,0,0-.13-.33.51.51,0,0,0-.36-.14A.52.52,0,0,0,53,23a.65.65,0,0,0-.18.4l-.37-.06a.9.9,0,0,1,.31-.58.88.88,0,0,1,.59-.2.93.93,0,0,1,.45.1.75.75,0,0,1,.32.29.77.77,0,0,1,.11.39.6.6,0,0,1-.1.35.72.72,0,0,1-.31.26.72.72,0,0,1,.41.25.79.79,0,0,1,.15.49.92.92,0,0,1-.29.67,1,1,0,0,1-.72.27.92.92,0,0,1-.66-.24A.86.86,0,0,1,52.45,24.8Z"/><path class="cls-6" d="M54.61,25.65l.87-3.11h.3l-.87,3.11Z"/><path class="cls-6" d="M57.89,25.24v.36h-2a.75.75,0,0,1,.05-.26,1.42,1.42,0,0,1,.24-.4,3.64,3.64,0,0,1,.48-.45,4.23,4.23,0,0,0,.67-.64.82.82,0,0,0,.17-.45.5.5,0,0,0-.16-.37.56.56,0,0,0-.41-.15.61.61,0,0,0-.43.16.65.65,0,0,0-.16.45l-.38,0a1,1,0,0,1,.3-.65,1,1,0,0,1,.68-.22.92.92,0,0,1,.68.24.79.79,0,0,1,.26.59.94.94,0,0,1-.08.36,1.64,1.64,0,0,1-.24.37c-.12.12-.31.3-.57.52l-.43.38a2.08,2.08,0,0,0-.15.2Z"/><path class="cls-6" d="M58.29,24.11a2.5,2.5,0,0,1,.11-.85,1.09,1.09,0,0,1,.32-.51.9.9,0,0,1,.55-.17.82.82,0,0,1,.42.1A.73.73,0,0,1,60,23a1.62,1.62,0,0,1,.19.44,3.32,3.32,0,0,1,.07.71,2.85,2.85,0,0,1-.11.86,1,1,0,0,1-.33.5.8.8,0,0,1-.54.18.87.87,0,0,1-.69-.31A2.06,2.06,0,0,1,58.29,24.11Zm.38,0a1.84,1.84,0,0,0,.17,1,.53.53,0,0,0,.43.25.5.5,0,0,0,.42-.25,1.82,1.82,0,0,0,.18-1,1.8,1.8,0,0,0-.18-1,.51.51,0,0,0-.43-.25.47.47,0,0,0-.4.22A1.86,1.86,0,0,0,58.67,24.11Z"/><path class="cls-6" d="M60.63,24.8l.36-.05a.94.94,0,0,0,.22.46.55.55,0,0,0,.37.14.6.6,0,0,0,.44-.19.59.59,0,0,0,.18-.44A.57.57,0,0,0,62,24.3a.61.61,0,0,0-.43-.17,1.66,1.66,0,0,0-.26,0l0-.32h.06a.8.8,0,0,0,.43-.12.47.47,0,0,0,0-.71.49.49,0,0,0-.36-.14.48.48,0,0,0-.35.14.66.66,0,0,0-.19.4l-.37-.06a1,1,0,0,1,.31-.58.92.92,0,0,1,.6-.2,1,1,0,0,1,.45.1.82.82,0,0,1,.32.29.77.77,0,0,1,.11.39.61.61,0,0,1-.11.35A.67.67,0,0,1,62,24a.75.75,0,0,1,.42.25.79.79,0,0,1,.14.49.91.91,0,0,1-.28.67,1,1,0,0,1-.73.27,1,1,0,0,1-.66-.24A.89.89,0,0,1,60.63,24.8Z"/><path class="cls-6" d="M156,13.5,154.13,1.41h.38Zm-.26.13.26-.13L154.13,1.41Z"/><path class="cls-7" d="M156,13.5,154.13,1.41h.38Zm-.26.13.26-.13L154.13,1.41Z"/><line class="cls-5" x1="157.31" y1="24.45" x2="155.91" y2="13.5"/><path class="cls-6" d="M156.8,13.5l-1.27-7h.38Zm-.38,0h.38l-1.27-7Z"/><path class="cls-7" d="M156.8,13.5l-1.27-7h.38Zm-.38,0h.38l-1.27-7Z"/><path class="cls-6" d="M155.4,13.63l-1.27-6.87h.38Zm-.38,0h.38l-1.27-6.87Z"/><path class="cls-7" d="M155.4,13.63l-1.27-6.87h.38Zm-.38,0h.38l-1.27-6.87Z"/><line class="cls-5" x1="157.05" y1="24.58" x2="156.8" y2="23.18"/><line class="cls-5" x1="147.63" y1="15.03" x2="145.85" y2="15.28"/><line class="cls-5" x1="166.09" y1="12.61" x2="164.18" y2="12.87"/><line class="cls-5" x1="166.09" y1="12.23" x2="145.72" y2="14.9"/><g class="cls-8"><path class="cls-5" d="M163.35,12.45a7.57,7.57,0,1,0-6.52,8.5,7.57,7.57,0,0,0,6.52-8.5"/><path class="cls-5" d="M162.85,12.52a7.07,7.07,0,1,0-6.08,7.92,7.07,7.07,0,0,0,6.08-7.92"/></g><path class="cls-6" d="M97.81,46.6v-3H100V44H98.21v.92h1.66v.35H98.21v1h1.85v.35Z"/><path class="cls-6" d="M103,46.6h-.37V44.25a1.66,1.66,0,0,1-.34.25,2.27,2.27,0,0,1-.39.19v-.35a2.54,2.54,0,0,0,.54-.36,1.46,1.46,0,0,0,.33-.4H103Z"/><path class="cls-6" d="M104,45.12a2.85,2.85,0,0,1,.11-.86,1.06,1.06,0,0,1,.32-.5.85.85,0,0,1,.55-.18.82.82,0,0,1,.42.1.76.76,0,0,1,.31.28,1.56,1.56,0,0,1,.18.45,2.68,2.68,0,0,1,.07.71,2.78,2.78,0,0,1-.11.85,1.09,1.09,0,0,1-.32.51.9.9,0,0,1-.55.17.81.81,0,0,1-.68-.31A2,2,0,0,1,104,45.12Zm.38,0a1.93,1.93,0,0,0,.17,1,.49.49,0,0,0,.86,0,1.93,1.93,0,0,0,.17-1,2,2,0,0,0-.17-1,.53.53,0,0,0-.44-.24.48.48,0,0,0-.4.21A1.9,1.9,0,0,0,104.34,45.12Z"/><path class="cls-6" d="M107.69,46.6h-.37V44.25a2.12,2.12,0,0,1-.35.25,2.27,2.27,0,0,1-.39.19v-.35a2.31,2.31,0,0,0,.54-.36,1.46,1.46,0,0,0,.33-.4h.24Z"/><path class="cls-6" d="M108.46,46.65l.87-3.11h.29l-.87,3.11Z"/><path class="cls-6" d="M111.74,46.25v.35h-2a.78.78,0,0,1,0-.26,1.37,1.37,0,0,1,.25-.4,3.64,3.64,0,0,1,.48-.45,3.67,3.67,0,0,0,.66-.64.7.7,0,0,0,.17-.44.5.5,0,0,0-.15-.37.65.65,0,0,0-.84,0,.61.61,0,0,0-.16.44l-.38,0a.92.92,0,0,1,.29-.64,1,1,0,0,1,.69-.23.94.94,0,0,1,.68.24.79.79,0,0,1,.25.6.84.84,0,0,1-.07.35,1.45,1.45,0,0,1-.24.37c-.12.13-.31.3-.57.53a3.4,3.4,0,0,0-.43.38,1,1,0,0,0-.16.2Z"/><path class="cls-6" d="M112.13,45.12a2.85,2.85,0,0,1,.11-.86,1.07,1.07,0,0,1,.33-.5.82.82,0,0,1,.54-.18.83.83,0,0,1,.43.1.8.8,0,0,1,.3.28,1.56,1.56,0,0,1,.19.45,3.28,3.28,0,0,1,.06.71,2.82,2.82,0,0,1-.1.85,1.19,1.19,0,0,1-.33.51.88.88,0,0,1-.55.17.82.82,0,0,1-.68-.31A2,2,0,0,1,112.13,45.12Zm.38,0a1.8,1.8,0,0,0,.18,1,.48.48,0,0,0,.42.25.5.5,0,0,0,.43-.25,1.8,1.8,0,0,0,.18-1,1.82,1.82,0,0,0-.18-1,.51.51,0,0,0-.43-.24.48.48,0,0,0-.41.21A2,2,0,0,0,112.51,45.12Z"/><path class="cls-6" d="M115.86,46.6h-.37V44.25a1.76,1.76,0,0,1-.35.25,1.73,1.73,0,0,1-.39.19v-.35a2.12,2.12,0,0,0,.54-.36,1.17,1.17,0,0,0,.33-.4h.24Z"/><path class="cls-6" d="M98,85.81l-.8-3h.41l.45,2c0,.21.1.41.13.61.08-.32.12-.5.14-.55l.57-2h.48l.43,1.52a6.78,6.78,0,0,1,.23,1.06c0-.19.09-.4.15-.65l.48-1.93H101l-.82,3h-.38l-.64-2.3c0-.19-.08-.3-.09-.35a3.46,3.46,0,0,1-.09.35l-.64,2.3Z"/><path class="cls-6" d="M103.79,85.81h-.37V83.45a1.67,1.67,0,0,1-.34.26,3.38,3.38,0,0,1-.39.19v-.36a2.5,2.5,0,0,0,.54-.35,1.62,1.62,0,0,0,.33-.4h.23Z"/><path class="cls-6" d="M104.74,84.32a2.9,2.9,0,0,1,.11-.86,1,1,0,0,1,.33-.5.85.85,0,0,1,.54-.17.93.93,0,0,1,.42.09.84.84,0,0,1,.31.28,1.51,1.51,0,0,1,.18.45,2.73,2.73,0,0,1,.07.71,2.85,2.85,0,0,1-.11.86,1.11,1.11,0,0,1-.32.5.85.85,0,0,1-.55.18.81.81,0,0,1-.68-.32A2,2,0,0,1,104.74,84.32Zm.38,0a2,2,0,0,0,.17,1,.51.51,0,0,0,.86,0,2,2,0,0,0,.17-1,1.93,1.93,0,0,0-.17-1,.51.51,0,0,0-.43-.25.47.47,0,0,0-.41.22A1.86,1.86,0,0,0,105.12,84.32Z"/><path class="cls-6" d="M107.1,83.19v-.35h2v.28a4,4,0,0,0-.57.82,4.7,4.7,0,0,0-.44,1,4.1,4.1,0,0,0-.14.83h-.38a3.39,3.39,0,0,1,.14-.86,4.77,4.77,0,0,1,.38-1,5.16,5.16,0,0,1,.53-.79Z"/><path class="cls-6" d="M109.24,85.86l.87-3.11h.29l-.87,3.11Z"/><path class="cls-6" d="M112.52,85.45v.36h-2a.75.75,0,0,1,0-.26,1.56,1.56,0,0,1,.25-.4,4.39,4.39,0,0,1,.48-.46,3.71,3.71,0,0,0,.66-.63.75.75,0,0,0,.17-.45.51.51,0,0,0-.15-.37.58.58,0,0,0-.41-.15.61.61,0,0,0-.43.16.64.64,0,0,0-.16.44l-.38,0a.94.94,0,0,1,.29-.65,1,1,0,0,1,.69-.22.94.94,0,0,1,.68.24.76.76,0,0,1,.25.59.92.92,0,0,1-.07.36,1.6,1.6,0,0,1-.24.36,6.7,6.7,0,0,1-.57.53c-.22.19-.37.31-.43.38l-.16.2Z"/><path class="cls-6" d="M112.91,84.32a2.9,2.9,0,0,1,.11-.86,1.22,1.22,0,0,1,.33-.5.87.87,0,0,1,.54-.17.94.94,0,0,1,.43.09.89.89,0,0,1,.3.28,1.85,1.85,0,0,1,.19.45,3.25,3.25,0,0,1,.07.71,2.85,2.85,0,0,1-.11.86,1.13,1.13,0,0,1-.33.5.81.81,0,0,1-.55.18.83.83,0,0,1-.68-.32A2,2,0,0,1,112.91,84.32Zm.38,0a1.85,1.85,0,0,0,.18,1,.49.49,0,0,0,.42.24.51.51,0,0,0,.43-.24,1.85,1.85,0,0,0,.18-1,1.8,1.8,0,0,0-.18-1,.5.5,0,0,0-.43-.25.48.48,0,0,0-.41.22A2,2,0,0,0,113.29,84.32Z"/><path class="cls-6" d="M115.27,83.19v-.35h2v.28a4.47,4.47,0,0,0-.57.82,4.67,4.67,0,0,0-.43,1,3.5,3.5,0,0,0-.15.83h-.37a3.39,3.39,0,0,1,.14-.86,3.84,3.84,0,0,1,.38-1,4,4,0,0,1,.53-.79Z"/><path class="cls-6" d="M31.87,66.46v-3h2.18v.36H32.27v.92h1.66v.35H32.27v1h1.85v.35Z"/><path class="cls-6" d="M37.07,66.46h-.36V64.11a2.12,2.12,0,0,1-.35.25,2.27,2.27,0,0,1-.39.19v-.36a2.18,2.18,0,0,0,.54-.35,1.62,1.62,0,0,0,.33-.4h.23Z"/><path class="cls-6" d="M38,65a2.85,2.85,0,0,1,.11-.86,1,1,0,0,1,.33-.5.8.8,0,0,1,.54-.18.82.82,0,0,1,.42.1.76.76,0,0,1,.31.28,1.32,1.32,0,0,1,.18.45A2.68,2.68,0,0,1,40,65a2.83,2.83,0,0,1-.11.85,1,1,0,0,1-.32.5.85.85,0,0,1-.55.18.81.81,0,0,1-.68-.31A2,2,0,0,1,38,65Zm.38,0a1.93,1.93,0,0,0,.17,1,.49.49,0,0,0,.86,0,1.93,1.93,0,0,0,.17-1,2,2,0,0,0-.17-1,.52.52,0,0,0-.43-.24.48.48,0,0,0-.41.21A1.9,1.9,0,0,0,38.4,65Z"/><path class="cls-6" d="M41.54,66.46v-.72H40.23V65.4l1.38-2h.3v2h.4v.34h-.4v.72Zm0-1.06V64.05L40.6,65.4Z"/><path class="cls-6" d="M42.52,66.51l.87-3.11h.29l-.87,3.11Z"/><path class="cls-6" d="M45.8,66.11v.35h-2a.75.75,0,0,1,0-.26,1.75,1.75,0,0,1,.25-.4,3.64,3.64,0,0,1,.48-.45,3.67,3.67,0,0,0,.66-.64.74.74,0,0,0,.18-.44.51.51,0,0,0-.16-.37.65.65,0,0,0-.84,0,.61.61,0,0,0-.16.44l-.38,0a1,1,0,0,1,.29-.65,1.06,1.06,0,0,1,.69-.22.94.94,0,0,1,.68.24.79.79,0,0,1,.26.6.89.89,0,0,1-.08.35,1.45,1.45,0,0,1-.24.37c-.12.13-.31.3-.57.53l-.43.37-.16.21Z"/><path class="cls-6" d="M46.19,65a2.85,2.85,0,0,1,.11-.86,1.15,1.15,0,0,1,.33-.5.82.82,0,0,1,.54-.18.83.83,0,0,1,.43.1.8.8,0,0,1,.3.28,1.56,1.56,0,0,1,.19.45,3.18,3.18,0,0,1,.07.71,2.83,2.83,0,0,1-.11.85,1,1,0,0,1-.33.5.91.91,0,0,1-1.23-.13A2,2,0,0,1,46.19,65Zm.38,0a1.8,1.8,0,0,0,.18,1,.49.49,0,0,0,.85,0,1.8,1.8,0,0,0,.18-1,1.82,1.82,0,0,0-.18-1,.51.51,0,0,0-.43-.24.49.49,0,0,0-.41.21A2,2,0,0,0,46.57,65Z"/><path class="cls-6" d="M49.71,66.46v-.72h-1.3V65.4l1.37-2h.3v2h.41v.34h-.41v.72Zm0-1.06V64.05l-.94,1.35Z"/><path class="cls-6" d="M44.48,106.81l-.8-3h.41l.46,2c.05.21.09.42.13.62.07-.32.12-.51.13-.56l.57-2h.49l.43,1.53a9.71,9.71,0,0,1,.23,1.06c0-.19.09-.41.15-.65l.47-1.94h.4l-.82,3h-.39l-.63-2.29c-.05-.19-.09-.31-.1-.35,0,.13-.06.25-.08.35l-.64,2.29Z"/><path class="cls-6" d="M50.33,106.81H50v-2.35a1.76,1.76,0,0,1-.35.25,1.73,1.73,0,0,1-.39.19v-.35a2.12,2.12,0,0,0,.54-.36,1.17,1.17,0,0,0,.33-.4h.24Z"/><path class="cls-6" d="M51.28,105.33a2.89,2.89,0,0,1,.1-.86,1.15,1.15,0,0,1,.33-.5.85.85,0,0,1,.55-.18.82.82,0,0,1,.42.1.8.8,0,0,1,.3.28,1.56,1.56,0,0,1,.19.45,3.18,3.18,0,0,1,.07.71,2.83,2.83,0,0,1-.11.85,1,1,0,0,1-.33.5.8.8,0,0,1-.54.18.84.84,0,0,1-.69-.31A2,2,0,0,1,51.28,105.33Zm.37,0a1.8,1.8,0,0,0,.18,1,.49.49,0,0,0,.85,0,1.8,1.8,0,0,0,.18-1,1.82,1.82,0,0,0-.18-1,.51.51,0,0,0-.43-.24.46.46,0,0,0-.4.21A1.88,1.88,0,0,0,51.65,105.33Z"/><path class="cls-6" d="M53.61,106l.39,0a.7.7,0,0,0,.2.43.56.56,0,0,0,.38.14.59.59,0,0,0,.45-.2.78.78,0,0,0,.18-.54.69.69,0,0,0-.17-.49.61.61,0,0,0-.47-.19.66.66,0,0,0-.32.08.78.78,0,0,0-.23.21l-.34,0,.29-1.55h1.49v.36h-1.2l-.16.81a1,1,0,0,1,.57-.19.9.9,0,0,1,.66.27,1,1,0,0,1,.27.7,1.1,1.1,0,0,1-.23.71,1.07,1.07,0,0,1-1.46.13A.87.87,0,0,1,53.61,106Z"/><path class="cls-6" d="M55.77,106.86l.87-3.11h.3l-.87,3.11Z"/><path class="cls-6" d="M59.05,106.46v.35h-2a.59.59,0,0,1,0-.26,1.42,1.42,0,0,1,.24-.4,4.65,4.65,0,0,1,.49-.45,4.54,4.54,0,0,0,.66-.64.79.79,0,0,0,.17-.44.47.47,0,0,0-.16-.37.56.56,0,0,0-.41-.15.55.55,0,0,0-.42.16.57.57,0,0,0-.16.44l-.38,0a.92.92,0,0,1,.29-.65,1,1,0,0,1,.68-.22,1,1,0,0,1,.69.24.79.79,0,0,1,.25.6A.87.87,0,0,1,59,105a1.27,1.27,0,0,1-.25.37,5.48,5.48,0,0,1-.57.53,3.88,3.88,0,0,0-.42.38.74.74,0,0,0-.16.2Z"/><path class="cls-6" d="M59.45,105.33a2.85,2.85,0,0,1,.11-.86,1,1,0,0,1,.33-.5.8.8,0,0,1,.54-.18.82.82,0,0,1,.42.1.76.76,0,0,1,.31.28,1.32,1.32,0,0,1,.18.45,2.68,2.68,0,0,1,.07.71,2.83,2.83,0,0,1-.11.85,1,1,0,0,1-.32.5.85.85,0,0,1-.55.18.81.81,0,0,1-.68-.31A2,2,0,0,1,59.45,105.33Zm.38,0a1.93,1.93,0,0,0,.17,1,.49.49,0,0,0,.86,0,1.93,1.93,0,0,0,.17-1,2,2,0,0,0-.17-1,.52.52,0,0,0-.43-.24.48.48,0,0,0-.41.21A1.9,1.9,0,0,0,59.83,105.33Z"/><path class="cls-6" d="M61.79,106l.38,0a.75.75,0,0,0,.2.43.57.57,0,0,0,.38.14.59.59,0,0,0,.45-.2.74.74,0,0,0,.19-.54.66.66,0,0,0-.18-.49.59.59,0,0,0-.46-.19.73.73,0,0,0-.33.08.74.74,0,0,0-.22.21l-.35,0,.29-1.55h1.5v.36h-1.2l-.16.81a1,1,0,0,1,.56-.19.9.9,0,0,1,.67.27,1,1,0,0,1,.27.7,1.11,1.11,0,0,1-.24.71,1,1,0,0,1-.79.36,1,1,0,0,1-.67-.23A.87.87,0,0,1,61.79,106Z"/><path class="cls-6" d="M5.06,68.44h-3V68H4.71V66.56h.35Z"/><path class="cls-6" d="M5.06,66.42l-3-1.15v-.43l3-1.23v.45l-.91.35v1.26l.91.33Zm-1.23-.87v-1L3,64.85l-.63.21a4.18,4.18,0,0,1,.58.16Z"/><path class="cls-6" d="M3.88,61.88H3.53V60.61H4.64a2.22,2.22,0,0,1,.36.6,2,2,0,0,1,.11.64,1.67,1.67,0,0,1-.19.81,1.23,1.23,0,0,1-.54.54,1.67,1.67,0,0,1-.81.19,1.92,1.92,0,0,1-.82-.18,1.25,1.25,0,0,1-.56-.53,1.71,1.71,0,0,1-.18-.8,1.63,1.63,0,0,1,.1-.59,1,1,0,0,1,.29-.41,1.45,1.45,0,0,1,.5-.23L3,61a1.16,1.16,0,0,0-.37.17.84.84,0,0,0-.21.29,1.07,1.07,0,0,0-.08.41,1.13,1.13,0,0,0,.09.47.76.76,0,0,0,.22.32.85.85,0,0,0,.29.19,1.54,1.54,0,0,0,.61.12,1.48,1.48,0,0,0,.67-.14.86.86,0,0,0,.4-.4,1.25,1.25,0,0,0,.14-.56,1.45,1.45,0,0,0-.1-.51A1.24,1.24,0,0,0,4.44,61H3.88Z"/><path class="cls-6" d="M3.6,60.14a1.61,1.61,0,0,1-1.17-.4,1.34,1.34,0,0,1-.43-1A1.45,1.45,0,0,1,2.2,58a1.32,1.32,0,0,1,.56-.51,1.85,1.85,0,0,1,.8-.17,1.8,1.8,0,0,1,.82.18,1.32,1.32,0,0,1,.55.52,1.55,1.55,0,0,1,.18.73,1.37,1.37,0,0,1-.2.76,1.25,1.25,0,0,1-.56.51A1.65,1.65,0,0,1,3.6,60.14Zm0-.41a1.22,1.22,0,0,0,.86-.29,1,1,0,0,0,0-1.47,1.25,1.25,0,0,0-.9-.29,1.59,1.59,0,0,0-.64.12,1,1,0,0,0-.42.36,1,1,0,0,0-.16.54,1,1,0,0,0,.3.73A1.28,1.28,0,0,0,3.6,59.73Z"/><path class="cls-6" d="M153.62,91.42l-3-1.16v-.43l3-1.23v.46l-.91.35v1.25l.91.33Zm-1.24-.87v-1l-.83.31c-.25.1-.46.17-.63.22a2.94,2.94,0,0,1,.58.16Z"/><path class="cls-6" d="M153.62,87.73l-2.18.83v-.39l1.3-.47.44-.14-.41-.14-1.33-.48v-.38l2.18.82Z"/><path class="cls-6" d="M153.62,86.13h-.43v-.42h.43Z"/><path class="cls-6" d="M152.76,84.05l0-.36a.74.74,0,0,0,.47-.12.41.41,0,0,0,.13-.32.44.44,0,0,0-.07-.26.38.38,0,0,0-.18-.15,1.21,1.21,0,0,0-.38,0h-2.07v-.4h2a1.5,1.5,0,0,1,.58.09.65.65,0,0,1,.32.29,1,1,0,0,1,.11.47.78.78,0,0,1-.23.6A.92.92,0,0,1,152.76,84.05Z"/><path class="cls-6" d="M152.15,81.87a1.61,1.61,0,0,1-1.17-.4,1.37,1.37,0,0,1-.42-1,1.44,1.44,0,0,1,.19-.75,1.38,1.38,0,0,1,.56-.51,2,2,0,0,1,1.62,0,1.26,1.26,0,0,1,.55.52,1.56,1.56,0,0,1,.19.73,1.38,1.38,0,0,1-.21.76,1.26,1.26,0,0,1-.56.51A1.72,1.72,0,0,1,152.15,81.87Zm0-.41a1.22,1.22,0,0,0,.85-.29,1,1,0,0,0,0-1.47,1.25,1.25,0,0,0-.9-.29,1.62,1.62,0,0,0-.64.12.93.93,0,0,0-.42.36,1,1,0,0,0-.15.54,1,1,0,0,0,.29.73A1.29,1.29,0,0,0,152.16,81.46Z"/><path class="cls-6" d="M153.62,78.81l-3-1.15v-.43l3-1.23v.45l-.91.35v1.26l.91.33ZM152.38,78v-1l-.83.31a4.6,4.6,0,0,1-.63.21,3.86,3.86,0,0,1,.58.17Z"/><path class="cls-6" d="M153.29,73.4a2.18,2.18,0,0,0,.28-.51l.28.12a2.39,2.39,0,0,1-.37.65,1.5,1.5,0,0,1,.19.73,1.41,1.41,0,0,1-.2.74,1.31,1.31,0,0,1-.55.52,1.78,1.78,0,0,1-.81.17,1.85,1.85,0,0,1-.81-.18,1.24,1.24,0,0,1-.55-.51,1.43,1.43,0,0,1-.19-.74,1.51,1.51,0,0,1,.19-.76,1.24,1.24,0,0,1,.56-.5,1.71,1.71,0,0,1,.8-.18,2,2,0,0,1,.67.11A1.47,1.47,0,0,1,153.29,73.4Zm-.51.88a1.53,1.53,0,0,1,.29-.57,1.24,1.24,0,0,0-1-.35,1.59,1.59,0,0,0-.64.12,1,1,0,0,0-.42.37,1,1,0,0,0,.15,1.27,1.56,1.56,0,0,0,1.81,0,1,1,0,0,0,.32-.74,1.1,1.1,0,0,0-.08-.4,1.59,1.59,0,0,0-.18.4Z"/><path class="cls-6" d="M150.61,70.44V70h1.74a2,2,0,0,1,.72.11.85.85,0,0,1,.43.37,1.29,1.29,0,0,1,.17.7,1.41,1.41,0,0,1-.15.69.82.82,0,0,1-.42.38,1.93,1.93,0,0,1-.75.12h-1.74V72h1.73a1.68,1.68,0,0,0,.58-.07.55.55,0,0,0,.29-.25,1,1,0,0,0,.1-.44.82.82,0,0,0-.2-.62,1.12,1.12,0,0,0-.77-.19Z"/><path class="cls-6" d="M153.62,69.31h-3v-.39h3Z"/><path class="cls-6" d="M153.62,68.22h-3v-.41L153,66.23h-2.36v-.38h3v.41l-2.37,1.58h2.37Z"/><path class="cls-6" d="M152.65,64.15l0-.38a.71.71,0,0,0,.37-.12.73.73,0,0,0,.23-.3,1.14,1.14,0,0,0,.09-.46,1,1,0,0,0-.07-.41.54.54,0,0,0-.18-.25.43.43,0,0,0-.26-.09.44.44,0,0,0-.25.08.71.71,0,0,0-.18.27,4.55,4.55,0,0,0-.14.54,3,3,0,0,1-.19.58.8.8,0,0,1-.28.32.69.69,0,0,1-.37.1.8.8,0,0,1-.43-.12.88.88,0,0,1-.3-.38,1.42,1.42,0,0,1-.1-.55,1.35,1.35,0,0,1,.11-.59A.89.89,0,0,1,151,62a.87.87,0,0,1,.48-.14l0,.38a.61.61,0,0,0-.43.21.83.83,0,0,0-.14.52.84.84,0,0,0,.13.53.4.4,0,0,0,.32.16.34.34,0,0,0,.27-.12,1.46,1.46,0,0,0,.21-.6,4.16,4.16,0,0,1,.19-.66.9.9,0,0,1,.31-.39.75.75,0,0,1,.43-.12.81.81,0,0,1,.45.13,1,1,0,0,1,.33.4,1.34,1.34,0,0,1,.12.58,1.69,1.69,0,0,1-.12.68.9.9,0,0,1-.36.43A1,1,0,0,1,152.65,64.15Z"/><path class="cls-6" d="M153.62,61.2h-3V59H151v1.78h.92V59.14h.36v1.67h1V59h.36Z"/><path class="cls-6" d="M152.56,56.27l.1-.4a1.29,1.29,0,0,1,.75.45,1.25,1.25,0,0,1,.26.79,1.42,1.42,0,0,1-.2.79,1.21,1.21,0,0,1-.57.47,2.17,2.17,0,0,1-.81.16,1.77,1.77,0,0,1-.82-.18,1.24,1.24,0,0,1-.53-.51,1.52,1.52,0,0,1-.18-.73,1.19,1.19,0,0,1,.23-.76,1.17,1.17,0,0,1,.64-.43l.1.39a1,1,0,0,0-.48.3.83.83,0,0,0-.15.51.94.94,0,0,0,.16.57.84.84,0,0,0,.45.33,1.91,1.91,0,0,0,.58.1,1.74,1.74,0,0,0,.67-.12.8.8,0,0,0,.42-.34,1,1,0,0,0,.15-.51.84.84,0,0,0-.2-.57A1,1,0,0,0,152.56,56.27Z"/><path class="cls-6" d="M152.15,55.5a1.61,1.61,0,0,1-1.17-.4,1.39,1.39,0,0,1-.42-1,1.44,1.44,0,0,1,.19-.75,1.38,1.38,0,0,1,.56-.51,1.87,1.87,0,0,1,1.62,0,1.26,1.26,0,0,1,.55.52,1.56,1.56,0,0,1,.19.73,1.4,1.4,0,0,1-.21.76,1.32,1.32,0,0,1-.56.51A1.72,1.72,0,0,1,152.15,55.5Zm0-.41a1.22,1.22,0,0,0,.85-.29,1,1,0,0,0,0-1.48,1.3,1.3,0,0,0-.9-.29,1.62,1.62,0,0,0-.64.13.93.93,0,0,0-.42.36,1,1,0,0,0-.15.54,1,1,0,0,0,.29.72A1.25,1.25,0,0,0,152.16,55.09Z"/><path class="cls-6" d="M153.62,50.88h-3v-.4h3Z"/><path class="cls-6" d="M153.62,49.79h-3V49.4h2.65V47.92h.36Z"/><path class="cls-6" d="M153.62,47.46h-3v-.4h2.65V45.58h.36Z"/><path class="cls-6" d="M153.62,45.44l-3-1.16v-.43l3-1.23v.45l-.91.36v1.25l.91.33Zm-1.24-.87v-1l-.83.31c-.25.1-.46.17-.63.22a2.94,2.94,0,0,1,.58.16Z"/><path class="cls-6" d="M97.56,24.58v-3h2.17v.36H98v.92h1.66v.35H98v1H99.8v.36Z"/><path class="cls-6" d="M102.76,24.58h-.37V22.23a2.12,2.12,0,0,1-.35.25,2.3,2.3,0,0,1-.39.19v-.36a1.86,1.86,0,0,0,.54-.35,1.27,1.27,0,0,0,.33-.4h.24Z"/><path class="cls-6" d="M103.7,23.1a2.81,2.81,0,0,1,.11-.86,1.1,1.1,0,0,1,.33-.5.82.82,0,0,1,.54-.18.83.83,0,0,1,.43.1.8.8,0,0,1,.3.28,1.62,1.62,0,0,1,.19.44,3.45,3.45,0,0,1,.06.72,2.87,2.87,0,0,1-.1.85,1.07,1.07,0,0,1-.33.5.83.83,0,0,1-.55.18.82.82,0,0,1-.68-.31A2,2,0,0,1,103.7,23.1Zm.38,0a1.8,1.8,0,0,0,.18,1,.5.5,0,0,0,.42.25.52.52,0,0,0,.43-.25,1.8,1.8,0,0,0,.18-1,1.82,1.82,0,0,0-.18-1,.52.52,0,0,0-.43-.25.5.5,0,0,0-.41.22A2,2,0,0,0,104.08,23.1Z"/><path class="cls-6" d="M108,24.22v.36h-2a.58.58,0,0,1,.05-.26,1.42,1.42,0,0,1,.24-.4,3.64,3.64,0,0,1,.48-.45,3.67,3.67,0,0,0,.66-.64.74.74,0,0,0,.18-.44.51.51,0,0,0-.16-.37.53.53,0,0,0-.41-.16.61.61,0,0,0-.43.16.65.65,0,0,0-.16.45l-.38,0a.89.89,0,0,1,1-.87.92.92,0,0,1,.68.24.79.79,0,0,1,.26.59.94.94,0,0,1-.08.36,1.64,1.64,0,0,1-.24.37c-.12.12-.31.3-.57.52l-.43.38a2.08,2.08,0,0,0-.15.2Z"/><path class="cls-6" d="M108.2,24.63l.87-3.11h.3l-.87,3.11Z"/><path class="cls-6" d="M111.48,24.22v.36h-2a.57.57,0,0,1,0-.26,1.42,1.42,0,0,1,.24-.4,3.64,3.64,0,0,1,.48-.45,4.23,4.23,0,0,0,.67-.64.79.79,0,0,0,.17-.44.47.47,0,0,0-.16-.37.53.53,0,0,0-.41-.16.59.59,0,0,0-.42.16.65.65,0,0,0-.17.45l-.37,0a.92.92,0,0,1,.29-.65,1,1,0,0,1,.68-.22,1,1,0,0,1,.69.24.82.82,0,0,1,.25.59,1.15,1.15,0,0,1-.07.36,1.72,1.72,0,0,1-.25.37,5.66,5.66,0,0,1-.57.52l-.43.38a2.08,2.08,0,0,0-.15.2Z"/><path class="cls-6" d="M111.88,23.1a2.81,2.81,0,0,1,.11-.86,1,1,0,0,1,.32-.5.85.85,0,0,1,.55-.18.82.82,0,0,1,.42.1.76.76,0,0,1,.31.28,1.62,1.62,0,0,1,.18.44,3.51,3.51,0,0,1,0,1.57,1.06,1.06,0,0,1-.32.5.85.85,0,0,1-.55.18.81.81,0,0,1-.68-.31A2,2,0,0,1,111.88,23.1Zm.38,0a1.93,1.93,0,0,0,.17,1,.49.49,0,0,0,.86,0,1.93,1.93,0,0,0,.17-1,2,2,0,0,0-.17-1,.54.54,0,0,0-.44-.25.49.49,0,0,0-.4.22A1.88,1.88,0,0,0,112.26,23.1Z"/><path class="cls-6" d="M116.15,24.22v.36h-2a.75.75,0,0,1,0-.26,1.42,1.42,0,0,1,.24-.4,4.65,4.65,0,0,1,.49-.45,4.54,4.54,0,0,0,.66-.64.79.79,0,0,0,.17-.44.47.47,0,0,0-.16-.37.52.52,0,0,0-.4-.16.6.6,0,0,0-.43.16.61.61,0,0,0-.16.45l-.38,0a.92.92,0,0,1,.29-.65,1,1,0,0,1,.68-.22,1,1,0,0,1,.69.24.78.78,0,0,1,.25.59.92.92,0,0,1-.07.36,1.42,1.42,0,0,1-.25.37,5.66,5.66,0,0,1-.57.52l-.42.38a1.27,1.27,0,0,0-.16.2Z"/><path class="cls-6" d="M98,107.7l-.8-3h.41l.46,2c0,.21.09.42.12.62.08-.32.12-.51.14-.56l.57-2h.48l.43,1.53a7.92,7.92,0,0,1,.24,1.06c0-.19.08-.41.14-.65l.48-1.94h.4l-.83,3h-.38l-.64-2.29-.09-.35c0,.13-.06.25-.09.35l-.64,2.29Z"/><path class="cls-6" d="M103.8,107.7h-.37v-2.35a2.12,2.12,0,0,1-.35.25,2.27,2.27,0,0,1-.39.19v-.35a2.31,2.31,0,0,0,.54-.36,1.62,1.62,0,0,0,.33-.4h.24Z"/><path class="cls-6" d="M104.74,106.22a2.85,2.85,0,0,1,.11-.86,1,1,0,0,1,.33-.5.8.8,0,0,1,.54-.18.88.88,0,0,1,.43.1.8.8,0,0,1,.3.28,1.32,1.32,0,0,1,.18.45,2.68,2.68,0,0,1,.07.71,2.54,2.54,0,0,1-.11.85,1,1,0,0,1-.32.5.85.85,0,0,1-.55.18.81.81,0,0,1-.68-.31A2,2,0,0,1,104.74,106.22Zm.38,0a1.93,1.93,0,0,0,.17,1,.49.49,0,0,0,.86,0,1.93,1.93,0,0,0,.17-1,2,2,0,0,0-.17-1,.52.52,0,0,0-.43-.24.48.48,0,0,0-.41.21A1.9,1.9,0,0,0,105.12,106.22Z"/><path class="cls-6" d="M109,105.43l-.36,0a.8.8,0,0,0-.14-.32.52.52,0,0,0-.37-.16.55.55,0,0,0-.31.1.89.89,0,0,0-.28.37,2.12,2.12,0,0,0-.1.7.83.83,0,0,1,.32-.3.88.88,0,0,1,1,.17,1,1,0,0,1,.26.7,1.07,1.07,0,0,1-.13.53.85.85,0,0,1-.33.37.88.88,0,0,1-.49.13,1,1,0,0,1-.75-.34,1.73,1.73,0,0,1-.29-1.12,2,2,0,0,1,.32-1.26.94.94,0,0,1,.76-.35.8.8,0,0,1,.85.75Zm-1.5,1.3a.78.78,0,0,0,.08.36.6.6,0,0,0,.22.27.59.59,0,0,0,.31.09.54.54,0,0,0,.4-.19.77.77,0,0,0,.17-.51.72.72,0,0,0-.17-.5.57.57,0,0,0-.42-.17.61.61,0,0,0-.42.17A.64.64,0,0,0,107.49,106.73Z"/><path class="cls-6" d="M109.24,107.75l.87-3.11h.3l-.87,3.11Z"/><path class="cls-6" d="M112.52,107.35v.35h-2a.6.6,0,0,1,0-.26,1.42,1.42,0,0,1,.24-.4,3.64,3.64,0,0,1,.48-.45A3.67,3.67,0,0,0,112,106a.74.74,0,0,0,.18-.44.51.51,0,0,0-.16-.37.56.56,0,0,0-.41-.15.57.57,0,0,0-.43.16.61.61,0,0,0-.16.44l-.38,0a1,1,0,0,1,.3-.65,1,1,0,0,1,.68-.22.92.92,0,0,1,.68.24.79.79,0,0,1,.26.6.89.89,0,0,1-.08.35,1.45,1.45,0,0,1-.24.37c-.12.13-.31.3-.57.53a4.37,4.37,0,0,0-.43.38,1,1,0,0,0-.15.2Z"/><path class="cls-6" d="M112.92,106.22a2.57,2.57,0,0,1,.11-.86,1.06,1.06,0,0,1,.32-.5.85.85,0,0,1,.55-.18.82.82,0,0,1,.42.1.8.8,0,0,1,.3.28,1.56,1.56,0,0,1,.19.45,3.18,3.18,0,0,1,.07.71,2.83,2.83,0,0,1-.11.85,1,1,0,0,1-.33.5.8.8,0,0,1-.54.18.84.84,0,0,1-.69-.31A2,2,0,0,1,112.92,106.22Zm.38,0a1.82,1.82,0,0,0,.17,1,.5.5,0,0,0,.43.25.48.48,0,0,0,.42-.25,1.8,1.8,0,0,0,.18-1,1.82,1.82,0,0,0-.18-1,.51.51,0,0,0-.43-.24.46.46,0,0,0-.4.21A1.9,1.9,0,0,0,113.3,106.22Z"/><path class="cls-6" d="M117.17,105.43l-.37,0a.68.68,0,0,0-.14-.32.51.51,0,0,0-.37-.16.55.55,0,0,0-.31.1.87.87,0,0,0-.27.37,2.09,2.09,0,0,0-.11.7.78.78,0,0,1,.33-.3.82.82,0,0,1,.4-.1.83.83,0,0,1,.63.27,1,1,0,0,1,.26.7,1.18,1.18,0,0,1-.12.53.82.82,0,0,1-.34.37.86.86,0,0,1-.48.13.92.92,0,0,1-.75-.34,1.67,1.67,0,0,1-.29-1.12,1.94,1.94,0,0,1,.32-1.26.92.92,0,0,1,.75-.35.9.9,0,0,1,.59.2A.85.85,0,0,1,117.17,105.43Zm-1.51,1.3a.94.94,0,0,0,.08.36.62.62,0,0,0,.23.27.55.55,0,0,0,.3.09.53.53,0,0,0,.4-.19.86.86,0,0,0,0-1,.57.57,0,0,0-.42-.17.61.61,0,0,0-.43.17A.69.69,0,0,0,115.66,106.73Z"/><polyline class="cls-5" points="88.31 53.47 107.79 53.47 107.79 55.76 112.12 55.76 112.12 53.47 115.81 53.47 115.81 54.87 120.39 54.87 120.39 53.47 123.83 53.47 123.83 55.76 129.56 55.76 129.56 33.49 111.86 33.49 111.86 35.4 88.31 35.4 88.31 53.47"/><polyline class="cls-5" points="111.86 33.49 129.56 33.49 129.56 10.96 123.83 10.96 123.83 13.25 120.39 13.25 120.39 11.97 115.81 11.97 115.81 13.25 112.12 13.25 112.12 10.96 107.79 10.96 107.79 13.25 88.82 13.25 88.82 16.3 80.55 16.3 80.55 31.45 111.86 31.45 111.86 33.49"/><line class="cls-5" x1="112.12" y1="10.96" x2="123.83" y2="10.96"/><polyline class="cls-5" points="112.63 11.72 112.12 11.59 123.83 11.59"/><line class="cls-5" x1="112.88" y1="11.85" x2="113.39" y2="12.1"/><line class="cls-5" x1="113.65" y1="12.23" x2="114.15" y2="12.48"/><line class="cls-5" x1="114.54" y1="12.61" x2="115.05" y2="12.87"/><line class="cls-5" x1="115.3" y1="12.99" x2="115.81" y2="13.25"/><line class="cls-5" x1="112.12" y1="13.25" x2="112.63" y2="12.99"/><line class="cls-5" x1="112.88" y1="12.87" x2="113.39" y2="12.61"/><line class="cls-5" x1="113.65" y1="12.48" x2="114.15" y2="12.23"/><line class="cls-5" x1="114.54" y1="12.1" x2="115.05" y2="11.85"/><line class="cls-5" x1="115.3" y1="11.72" x2="115.81" y2="11.59"/><line class="cls-5" x1="120.39" y1="11.59" x2="120.77" y2="11.72"/><line class="cls-5" x1="121.03" y1="11.85" x2="121.54" y2="12.1"/><line class="cls-5" x1="121.79" y1="12.23" x2="122.43" y2="12.48"/><line class="cls-5" x1="122.68" y1="12.61" x2="123.19" y2="12.87"/><line class="cls-5" x1="123.45" y1="13.12" x2="123.83" y2="13.25"/><line class="cls-5" x1="120.39" y1="13.25" x2="120.77" y2="13.12"/><line class="cls-5" x1="121.03" y1="12.87" x2="121.54" y2="12.61"/><line class="cls-5" x1="121.79" y1="12.48" x2="122.43" y2="12.23"/><line class="cls-5" x1="122.68" y1="12.1" x2="123.19" y2="11.85"/><line class="cls-5" x1="123.45" y1="11.72" x2="123.83" y2="11.59"/><line class="cls-5" x1="112.12" y1="55.76" x2="123.83" y2="55.76"/><polyline class="cls-5" points="112.63 55 112.12 55.26 123.83 55.26"/><line class="cls-5" x1="112.88" y1="54.87" x2="113.39" y2="54.62"/><line class="cls-5" x1="113.65" y1="54.49" x2="114.15" y2="54.24"/><line class="cls-5" x1="114.54" y1="54.11" x2="115.05" y2="53.85"/><line class="cls-5" x1="115.3" y1="53.73" x2="115.81" y2="53.47"/><line class="cls-5" x1="112.12" y1="53.47" x2="112.63" y2="53.73"/><line class="cls-5" x1="112.88" y1="53.85" x2="113.39" y2="54.11"/><line class="cls-5" x1="113.65" y1="54.24" x2="114.15" y2="54.49"/><line class="cls-5" x1="114.54" y1="54.62" x2="115.05" y2="54.87"/><line class="cls-5" x1="115.3" y1="55" x2="115.81" y2="55.26"/><line class="cls-5" x1="120.39" y1="55.26" x2="120.77" y2="55"/><line class="cls-5" x1="121.03" y1="54.87" x2="121.54" y2="54.62"/><line class="cls-5" x1="121.79" y1="54.49" x2="122.43" y2="54.24"/><line class="cls-5" x1="122.68" y1="54.11" x2="123.19" y2="53.85"/><line class="cls-5" x1="123.45" y1="53.73" x2="123.83" y2="53.47"/><line class="cls-5" x1="120.39" y1="53.47" x2="120.77" y2="53.73"/><line class="cls-5" x1="121.03" y1="53.85" x2="121.54" y2="54.11"/><line class="cls-5" x1="121.79" y1="54.24" x2="122.43" y2="54.49"/><line class="cls-5" x1="122.68" y1="54.62" x2="123.19" y2="54.87"/><line class="cls-5" x1="123.45" y1="55" x2="123.83" y2="55.26"/><polyline class="cls-5" points="88.31 75.75 107.79 75.75 107.79 73.59 112.12 73.59 112.12 75.75 115.81 75.75 115.81 74.48 120.39 74.48 120.39 75.75 123.83 75.75 123.83 73.59 129.56 73.59 129.56 95.86 111.86 95.86 111.86 93.95 88.31 93.95 88.31 75.75"/><polyline class="cls-5" points="111.86 95.86 129.56 95.86 129.56 118.27 123.83 118.27 123.83 116.1 120.39 116.1 120.39 117.38 115.81 117.38 115.81 116.1 112.12 116.1 112.12 118.27 107.79 118.27 107.79 116.1 88.82 116.1 88.82 113.05 80.55 113.05 80.55 97.77 111.86 97.77 111.86 95.86"/><line class="cls-5" x1="112.12" y1="118.27" x2="123.83" y2="118.27"/><polyline class="cls-5" points="112.63 117.5 112.12 117.76 123.83 117.76"/><line class="cls-5" x1="112.88" y1="117.38" x2="113.39" y2="117.12"/><line class="cls-5" x1="113.65" y1="116.99" x2="114.15" y2="116.74"/><line class="cls-5" x1="114.54" y1="116.61" x2="115.05" y2="116.36"/><line class="cls-5" x1="115.3" y1="116.23" x2="115.81" y2="116.1"/><line class="cls-5" x1="112.12" y1="116.1" x2="112.63" y2="116.23"/><line class="cls-5" x1="112.88" y1="116.36" x2="113.39" y2="116.61"/><line class="cls-5" x1="113.65" y1="116.74" x2="114.15" y2="116.99"/><line class="cls-5" x1="114.54" y1="117.12" x2="115.05" y2="117.38"/><line class="cls-5" x1="115.3" y1="117.5" x2="115.81" y2="117.76"/><line class="cls-5" x1="120.39" y1="117.76" x2="120.77" y2="117.63"/><line class="cls-5" x1="121.03" y1="117.38" x2="121.54" y2="117.12"/><line class="cls-5" x1="121.79" y1="116.99" x2="122.43" y2="116.74"/><line class="cls-5" x1="122.68" y1="116.61" x2="123.19" y2="116.36"/><line class="cls-5" x1="123.45" y1="116.23" x2="123.83" y2="116.1"/><line class="cls-5" x1="120.39" y1="116.1" x2="120.77" y2="116.23"/><line class="cls-5" x1="121.03" y1="116.36" x2="121.54" y2="116.61"/><line class="cls-5" x1="121.79" y1="116.74" x2="122.43" y2="116.99"/><line class="cls-5" x1="122.68" y1="117.12" x2="123.19" y2="117.38"/><line class="cls-5" x1="123.45" y1="117.63" x2="123.83" y2="117.76"/><line class="cls-5" x1="112.12" y1="73.59" x2="123.83" y2="73.59"/><polyline class="cls-5" points="112.63 74.35 112.12 74.09 123.83 74.09"/><line class="cls-5" x1="112.88" y1="74.48" x2="113.39" y2="74.73"/><line class="cls-5" x1="113.65" y1="74.86" x2="114.15" y2="75.11"/><line class="cls-5" x1="114.54" y1="75.24" x2="115.05" y2="75.49"/><line class="cls-5" x1="115.3" y1="75.62" x2="115.81" y2="75.75"/><line class="cls-5" x1="112.12" y1="75.75" x2="112.63" y2="75.62"/><line class="cls-5" x1="112.88" y1="75.49" x2="113.39" y2="75.24"/><line class="cls-5" x1="113.65" y1="75.11" x2="114.15" y2="74.86"/><line class="cls-5" x1="114.54" y1="74.73" x2="115.05" y2="74.48"/><line class="cls-5" x1="115.3" y1="74.35" x2="115.81" y2="74.1"/><line class="cls-5" x1="120.39" y1="74.1" x2="120.77" y2="74.22"/><line class="cls-5" x1="121.03" y1="74.48" x2="121.54" y2="74.73"/><line class="cls-5" x1="121.79" y1="74.86" x2="122.43" y2="75.11"/><line class="cls-5" x1="122.68" y1="75.24" x2="123.19" y2="75.49"/><line class="cls-5" x1="123.45" y1="75.62" x2="123.83" y2="75.75"/><line class="cls-5" x1="120.39" y1="75.75" x2="120.77" y2="75.62"/><line class="cls-5" x1="121.03" y1="75.49" x2="121.54" y2="75.24"/><line class="cls-5" x1="121.79" y1="75.11" x2="122.43" y2="74.86"/><line class="cls-5" x1="122.68" y1="74.73" x2="123.19" y2="74.48"/><line class="cls-5" x1="123.45" y1="74.22" x2="123.83" y2="74.1"/></g></svg>