<svg id="Capa_1" data-name="Capa 1" xmlns="http://www.w3.org/2000/svg" xmlns:xlink="http://www.w3.org/1999/xlink" viewBox="0 0 168.43 120.93"><defs><style>.cls-1,.cls-4,.cls-5,.cls-7{fill:none;}.cls-2{clip-path:url(#clip-path);}.cls-3{fill:#ebebeb;}.cls-4{stroke:#ebebeb;}.cls-4,.cls-5,.cls-7{stroke-miterlimit:10;}.cls-4,.cls-7{stroke-width:0;}.cls-5,.cls-7{stroke:#63666b;stroke-linecap:round;}.cls-5{stroke-width:0.25px;}.cls-6{fill:#63666b;}.cls-8{clip-path:url(#clip-path-3);}</style><clipPath id="clip-path"><rect class="cls-1" x="-70.98" y="-530.41" width="1190.55" height="841.89"/></clipPath><clipPath id="clip-path-3"><rect class="cls-1" y="0.13" width="168.43" height="120.3"/></clipPath></defs><title>W206S</title><g class="cls-2"><g class="cls-2"><path class="cls-3" d="M111.86,95.69l17.7,1.91h-17.7Zm17.7,0h-17.7l17.7,1.91Z"/><path class="cls-4" d="M111.86,95.69l17.7,1.91h-17.7Zm17.7,0h-17.7l17.7,1.91Z"/><path class="cls-3" d="M80.55,97.6l49,15.28h-49Zm49,0h-49l49,15.28Z"/><path class="cls-4" d="M80.55,97.6l49,15.28h-49Zm49,0h-49l49,15.28Z"/><path class="cls-3" d="M88.82,112.88l40.74,3.05H88.82Zm40.74,0H88.82l40.74,3.05Z"/><path class="cls-4" d="M88.82,112.88l40.74,3.05H88.82Zm40.74,0H88.82l40.74,3.05Z"/><path class="cls-3" d="M115.81,115.93l4.58,1.28h-4.58Zm4.58,0h-4.58l4.58,1.28Z"/><path class="cls-4" d="M115.81,115.93l4.58,1.28h-4.58Zm4.58,0h-4.58l4.58,1.28Z"/><path class="cls-3" d="M123.83,115.93l5.73,2.17h-5.73Zm5.73,0h-5.73l5.73,2.17Z"/><path class="cls-4" d="M123.83,115.93l5.73,2.17h-5.73Zm5.73,0h-5.73l5.73,2.17Z"/><path class="cls-3" d="M107.79,115.93l4.33,2.17h-4.33Zm4.33,0h-4.33l4.33,2.17Z"/><path class="cls-4" d="M107.79,115.93l4.33,2.17h-4.33Zm4.33,0h-4.33l4.33,2.17Z"/><polyline class="cls-5" points="80.55 16.13 71 16.13 71 13.08 37.52 13.08 37.52 11.81 32.94 11.81 32.94 13.08 28.99 13.08 28.99 26.57 22.63 26.57 22.63 47.32 23.77 47.32 23.77 49.61 43.25 49.61 43.25 44.01 43.38 44.01 43.38 31.28 80.55 31.28 80.55 16.13"/><polyline class="cls-5" points="43.25 44.01 57.76 44.01 57.76 53.94 59.93 53.94 59.93 63.49 57.76 63.49 57.76 71.25 59.93 71.25 59.93 76.34 57.76 76.34 57.76 85 47.71 85 47.71 89.71 43.25 89.71 43.25 79.4 25.18 79.4 25.18 52.29 23.78 52.29 23.78 49.61 43.25 49.61 43.25 44.01"/><polyline class="cls-5" points="80.55 112.88 71 112.88 71 115.93 37.52 115.93 37.52 117.21 32.94 117.21 32.94 115.93 28.99 115.93 28.99 102.31 22.63 102.31 22.63 81.56 23.77 81.56 23.77 79.4 43.25 79.4 43.25 85 43.38 85 43.38 97.6 80.55 97.6 80.55 112.88"/><polyline class="cls-5" points="88.31 35.74 78.26 35.74 78.26 44.52 67.06 44.52 67.06 35.74 60.44 35.74 60.44 44.52 57.76 44.52"/><line class="cls-5" x1="60.44" y1="44.01" x2="67.06" y2="44.01"/><line class="cls-5" x1="67.06" y1="44.52" x2="60.44" y2="44.52"/><line class="cls-5" x1="78.26" y1="44.52" x2="88.31" y2="44.52"/><line class="cls-5" x1="88.31" y1="44.01" x2="78.26" y2="44.01"/><line class="cls-5" x1="59.93" y1="44.52" x2="59.93" y2="84.36"/><line class="cls-5" x1="60.44" y1="84.36" x2="60.44" y2="44.52"/><polyline class="cls-5" points="88.31 93.15 78.26 93.15 78.26 84.36 67.06 84.36 67.06 93.15 60.44 93.15 60.44 84.36 57.76 84.36"/><line class="cls-5" x1="60.44" y1="85" x2="67.06" y2="85"/><line class="cls-5" x1="67.06" y1="84.36" x2="60.44" y2="84.36"/><line class="cls-5" x1="78.26" y1="84.36" x2="88.31" y2="84.36"/><line class="cls-5" x1="88.31" y1="85" x2="78.26" y2="85"/><line class="cls-5" x1="60.44" y1="35.74" x2="60.82" y2="36.25"/><line class="cls-5" x1="61.07" y1="36.5" x2="61.46" y2="37.01"/><line class="cls-5" x1="61.58" y1="37.14" x2="61.96" y2="37.65"/><line class="cls-5" x1="62.09" y1="37.9" x2="62.47" y2="38.41"/><line class="cls-5" x1="62.73" y1="38.67" x2="63.11" y2="39.05"/><line class="cls-5" x1="63.24" y1="39.3" x2="63.62" y2="39.81"/><line class="cls-5" x1="63.87" y1="40.07" x2="64.26" y2="40.45"/><line class="cls-5" x1="64.38" y1="40.7" x2="64.76" y2="41.21"/><line class="cls-5" x1="65.02" y1="41.47" x2="65.27" y2="41.85"/><line class="cls-5" x1="65.53" y1="42.1" x2="65.91" y2="42.61"/><line class="cls-5" x1="66.04" y1="42.87" x2="66.42" y2="43.25"/><line class="cls-5" x1="66.67" y1="43.5" x2="67.06" y2="44.01"/><line class="cls-5" x1="60.44" y1="44.01" x2="60.82" y2="43.5"/><line class="cls-5" x1="61.07" y1="43.25" x2="61.46" y2="42.87"/><line class="cls-5" x1="61.58" y1="42.61" x2="61.96" y2="42.1"/><line class="cls-5" x1="62.09" y1="41.85" x2="62.47" y2="41.47"/><line class="cls-5" x1="62.73" y1="41.21" x2="63.11" y2="40.7"/><line class="cls-5" x1="63.24" y1="40.45" x2="63.62" y2="40.07"/><line class="cls-5" x1="63.87" y1="39.81" x2="64.26" y2="39.3"/><line class="cls-5" x1="64.38" y1="39.05" x2="64.76" y2="38.66"/><line class="cls-5" x1="65.02" y1="38.41" x2="65.27" y2="37.9"/><line class="cls-5" x1="65.53" y1="37.65" x2="65.91" y2="37.14"/><line class="cls-5" x1="66.04" y1="37.01" x2="66.42" y2="36.5"/><line class="cls-5" x1="66.67" y1="36.25" x2="67.06" y2="35.74"/><line class="cls-5" x1="78.26" y1="35.74" x2="78.64" y2="36.12"/><line class="cls-5" x1="78.89" y1="36.25" x2="79.4" y2="36.63"/><line class="cls-5" x1="79.53" y1="36.88" x2="80.04" y2="37.26"/><line class="cls-5" x1="80.29" y1="37.39" x2="80.8" y2="37.77"/><line class="cls-5" x1="80.93" y1="38.03" x2="81.44" y2="38.41"/><line class="cls-5" x1="81.7" y1="38.54" x2="82.2" y2="38.92"/><line class="cls-5" x1="82.33" y1="39.17" x2="82.84" y2="39.56"/><line class="cls-5" x1="83.1" y1="39.68" x2="83.6" y2="40.07"/><line class="cls-5" x1="83.73" y1="40.32" x2="84.24" y2="40.7"/><line class="cls-5" x1="84.5" y1="40.83" x2="85" y2="41.21"/><line class="cls-5" x1="85.13" y1="41.47" x2="85.64" y2="41.85"/><line class="cls-5" x1="85.9" y1="41.97" x2="86.28" y2="42.36"/><line class="cls-5" x1="86.53" y1="42.61" x2="87.04" y2="42.99"/><line class="cls-5" x1="87.3" y1="43.12" x2="87.68" y2="43.5"/><line class="cls-5" x1="87.93" y1="43.76" x2="88.31" y2="44.01"/><line class="cls-5" x1="88.31" y1="35.74" x2="87.93" y2="36.12"/><line class="cls-5" x1="87.68" y1="36.25" x2="87.3" y2="36.63"/><line class="cls-5" x1="87.04" y1="36.88" x2="86.53" y2="37.26"/><line class="cls-5" x1="86.28" y1="37.39" x2="85.9" y2="37.77"/><line class="cls-5" x1="85.64" y1="38.03" x2="85.13" y2="38.41"/><line class="cls-5" x1="85" y1="38.54" x2="84.5" y2="38.92"/><line class="cls-5" x1="84.24" y1="39.17" x2="83.73" y2="39.56"/><line class="cls-5" x1="83.6" y1="39.68" x2="83.1" y2="40.07"/><line class="cls-5" x1="82.84" y1="40.32" x2="82.33" y2="40.7"/><line class="cls-5" x1="82.2" y1="40.83" x2="81.7" y2="41.21"/><line class="cls-5" x1="81.44" y1="41.47" x2="80.93" y2="41.85"/><line class="cls-5" x1="80.8" y1="41.97" x2="80.3" y2="42.36"/><line class="cls-5" x1="80.04" y1="42.61" x2="79.53" y2="42.99"/><line class="cls-5" x1="79.4" y1="43.12" x2="78.9" y2="43.5"/><line class="cls-5" x1="78.64" y1="43.76" x2="78.26" y2="44.01"/><line class="cls-5" x1="57.76" y1="53.94" x2="59.93" y2="44.52"/><line class="cls-5" x1="57.76" y1="44.52" x2="59.93" y2="53.94"/><line class="cls-5" x1="57.76" y1="63.49" x2="58.02" y2="64.25"/><line class="cls-5" x1="58.15" y1="64.51" x2="58.27" y2="65.14"/><line class="cls-5" x1="58.27" y1="65.4" x2="58.53" y2="65.91"/><line class="cls-5" x1="58.53" y1="66.29" x2="58.65" y2="66.8"/><line class="cls-5" x1="58.78" y1="67.18" x2="58.91" y2="67.69"/><line class="cls-5" x1="59.04" y1="67.94" x2="59.16" y2="68.58"/><line class="cls-5" x1="59.29" y1="68.83" x2="59.42" y2="69.47"/><line class="cls-5" x1="59.55" y1="69.73" x2="59.67" y2="70.36"/><line class="cls-5" x1="59.67" y1="70.62" x2="59.93" y2="71.25"/><line class="cls-5" x1="57.76" y1="71.25" x2="58.02" y2="70.62"/><line class="cls-5" x1="58.15" y1="70.36" x2="58.27" y2="69.73"/><line class="cls-5" x1="58.27" y1="69.47" x2="58.53" y2="68.83"/><line class="cls-5" x1="58.53" y1="68.58" x2="58.65" y2="67.94"/><line class="cls-5" x1="58.78" y1="67.69" x2="58.91" y2="67.18"/><line class="cls-5" x1="59.04" y1="66.8" x2="59.16" y2="66.29"/><line class="cls-5" x1="59.29" y1="65.91" x2="59.42" y2="65.4"/><line class="cls-5" x1="59.55" y1="65.14" x2="59.67" y2="64.5"/><line class="cls-5" x1="59.67" y1="64.25" x2="59.93" y2="63.49"/><line class="cls-5" x1="60.44" y1="93.15" x2="60.82" y2="92.77"/><line class="cls-5" x1="61.07" y1="92.51" x2="61.46" y2="92"/><line class="cls-5" x1="61.58" y1="91.75" x2="61.96" y2="91.37"/><line class="cls-5" x1="62.09" y1="91.11" x2="62.47" y2="90.6"/><line class="cls-5" x1="62.73" y1="90.35" x2="63.11" y2="89.84"/><line class="cls-5" x1="63.24" y1="89.71" x2="63.62" y2="89.2"/><line class="cls-5" x1="63.87" y1="88.95" x2="64.26" y2="88.44"/><line class="cls-5" x1="64.38" y1="88.31" x2="64.76" y2="87.8"/><line class="cls-5" x1="65.02" y1="87.55" x2="65.27" y2="87.04"/><line class="cls-5" x1="65.53" y1="86.78" x2="65.91" y2="86.4"/><line class="cls-5" x1="66.04" y1="86.15" x2="66.42" y2="85.64"/><line class="cls-5" x1="66.67" y1="85.38" x2="67.06" y2="85"/><line class="cls-5" x1="60.44" y1="85" x2="60.82" y2="85.38"/><line class="cls-5" x1="61.07" y1="85.64" x2="61.46" y2="86.15"/><line class="cls-5" x1="61.58" y1="86.4" x2="61.96" y2="86.78"/><line class="cls-5" x1="62.09" y1="87.04" x2="62.47" y2="87.55"/><line class="cls-5" x1="62.73" y1="87.8" x2="63.11" y2="88.31"/><line class="cls-5" x1="63.24" y1="88.44" x2="63.62" y2="88.95"/><line class="cls-5" x1="63.87" y1="89.2" x2="64.26" y2="89.71"/><line class="cls-5" x1="64.38" y1="89.84" x2="64.76" y2="90.35"/><line class="cls-5" x1="65.02" y1="90.6" x2="65.27" y2="91.11"/><line class="cls-5" x1="65.53" y1="91.37" x2="65.91" y2="91.75"/><line class="cls-5" x1="66.04" y1="92" x2="66.42" y2="92.51"/><line class="cls-5" x1="66.67" y1="92.77" x2="67.06" y2="93.15"/><line class="cls-5" x1="78.26" y1="93.15" x2="78.64" y2="92.89"/><line class="cls-5" x1="78.89" y1="92.64" x2="79.4" y2="92.26"/><line class="cls-5" x1="79.53" y1="92.13" x2="80.04" y2="91.75"/><line class="cls-5" x1="80.29" y1="91.49" x2="80.8" y2="91.11"/><line class="cls-5" x1="80.93" y1="90.98" x2="81.44" y2="90.6"/><line class="cls-5" x1="81.7" y1="90.35" x2="82.2" y2="89.96"/><line class="cls-5" x1="82.33" y1="89.84" x2="82.84" y2="89.46"/><line class="cls-5" x1="83.1" y1="89.2" x2="83.6" y2="88.82"/><line class="cls-5" x1="83.73" y1="88.69" x2="84.24" y2="88.31"/><line class="cls-5" x1="84.5" y1="88.06" x2="85" y2="87.8"/><line class="cls-5" x1="85.13" y1="87.55" x2="85.64" y2="87.16"/><line class="cls-5" x1="85.9" y1="87.04" x2="86.28" y2="86.66"/><line class="cls-5" x1="86.53" y1="86.4" x2="87.04" y2="86.02"/><line class="cls-5" x1="87.3" y1="85.89" x2="87.68" y2="85.51"/><line class="cls-5" x1="87.93" y1="85.26" x2="88.31" y2="85"/><line class="cls-5" x1="78.26" y1="85" x2="78.64" y2="85.26"/><line class="cls-5" x1="78.89" y1="85.51" x2="79.4" y2="85.89"/><line class="cls-5" x1="79.53" y1="86.02" x2="80.04" y2="86.4"/><line class="cls-5" x1="80.29" y1="86.66" x2="80.8" y2="87.04"/><line class="cls-5" x1="80.93" y1="87.16" x2="81.44" y2="87.55"/><line class="cls-5" x1="81.7" y1="87.8" x2="82.2" y2="88.06"/><line class="cls-5" x1="82.33" y1="88.31" x2="82.84" y2="88.69"/><line class="cls-5" x1="83.1" y1="88.82" x2="83.6" y2="89.2"/><line class="cls-5" x1="83.73" y1="89.46" x2="84.24" y2="89.84"/><line class="cls-5" x1="84.5" y1="89.96" x2="85" y2="90.35"/><line class="cls-5" x1="85.13" y1="90.6" x2="85.64" y2="90.98"/><line class="cls-5" x1="85.9" y1="91.11" x2="86.28" y2="91.49"/><line class="cls-5" x1="86.53" y1="91.75" x2="87.04" y2="92.13"/><line class="cls-5" x1="87.3" y1="92.26" x2="87.68" y2="92.64"/><line class="cls-5" x1="87.93" y1="92.89" x2="88.31" y2="93.15"/><line class="cls-5" x1="57.76" y1="84.36" x2="57.89" y2="83.98"/><line class="cls-5" x1="58.02" y1="83.73" x2="58.15" y2="83.09"/><line class="cls-5" x1="58.27" y1="82.84" x2="58.4" y2="82.2"/><line class="cls-5" x1="58.4" y1="81.95" x2="58.65" y2="81.44"/><line class="cls-5" x1="58.65" y1="81.05" x2="58.78" y2="80.55"/><line class="cls-5" x1="58.91" y1="80.16" x2="59.04" y2="79.65"/><line class="cls-5" x1="59.16" y1="79.4" x2="59.29" y2="78.76"/><line class="cls-5" x1="59.42" y1="78.51" x2="59.54" y2="77.87"/><line class="cls-5" x1="59.55" y1="77.62" x2="59.67" y2="76.98"/><line class="cls-5" x1="59.8" y1="76.73" x2="59.93" y2="76.34"/><line class="cls-5" x1="57.76" y1="76.34" x2="57.89" y2="76.73"/><line class="cls-5" x1="58.02" y1="76.98" x2="58.15" y2="77.62"/><line class="cls-5" x1="58.27" y1="77.87" x2="58.4" y2="78.51"/><line class="cls-5" x1="58.4" y1="78.76" x2="58.65" y2="79.4"/><line class="cls-5" x1="58.65" y1="79.65" x2="58.78" y2="80.16"/><line class="cls-5" x1="58.91" y1="80.54" x2="59.04" y2="81.05"/><line class="cls-5" x1="59.16" y1="81.44" x2="59.29" y2="81.94"/><line class="cls-5" x1="59.42" y1="82.2" x2="59.54" y2="82.84"/><line class="cls-5" x1="59.55" y1="83.09" x2="59.67" y2="83.73"/><line class="cls-5" x1="59.8" y1="83.98" x2="59.93" y2="84.36"/><path class="cls-6" d="M44,25.43v-3h2.17v.36H44.36v.92H46v.35H44.36v1h1.85v.36Z"/><path class="cls-6" d="M49.17,25.43H48.8V23.08a2.12,2.12,0,0,1-.35.25,3.38,3.38,0,0,1-.39.19v-.36a1.86,1.86,0,0,0,.54-.35,1.27,1.27,0,0,0,.33-.4h.24Z"/><path class="cls-6" d="M50.11,24a2.81,2.81,0,0,1,.11-.86,1,1,0,0,1,.33-.5.8.8,0,0,1,.54-.18.85.85,0,0,1,.43.1.8.8,0,0,1,.3.28,1.56,1.56,0,0,1,.19.45,3.28,3.28,0,0,1,.06.71,2.54,2.54,0,0,1-.11.85,1.06,1.06,0,0,1-.32.5.85.85,0,0,1-.55.18.82.82,0,0,1-.68-.31A2,2,0,0,1,50.11,24Zm.38,0a1.8,1.8,0,0,0,.18,1,.5.5,0,0,0,.42.25.52.52,0,0,0,.43-.25,1.82,1.82,0,0,0,.17-1,1.84,1.84,0,0,0-.17-1,.51.51,0,0,0-.43-.24.48.48,0,0,0-.41.21A2,2,0,0,0,50.49,24Z"/><path class="cls-6" d="M52.45,24.63l.37,0A.77.77,0,0,0,53,25a.53.53,0,0,0,.37.14.6.6,0,0,0,.44-.18.61.61,0,0,0,.18-.45.58.58,0,0,0-.59-.59,1,1,0,0,0-.26.05l0-.33h.06a.75.75,0,0,0,.42-.13.41.41,0,0,0,.19-.38.42.42,0,0,0-.14-.33.48.48,0,0,0-.35-.14.52.52,0,0,0-.36.14.65.65,0,0,0-.18.4l-.37-.06a.94.94,0,0,1,.31-.58.88.88,0,0,1,.59-.2.94.94,0,0,1,.45.11.73.73,0,0,1,.32.28.68.68,0,0,1,.11.39.65.65,0,0,1-.1.36.78.78,0,0,1-.31.25.71.71,0,0,1,.41.26.74.74,0,0,1,.15.48.9.9,0,0,1-.29.67,1,1,0,0,1-.72.27,1,1,0,0,1-.66-.23A.9.9,0,0,1,52.45,24.63Z"/><path class="cls-6" d="M54.61,25.48l.87-3.11h.3l-.87,3.11Z"/><path class="cls-6" d="M57.89,25.07v.36h-2a.75.75,0,0,1,.05-.26,1.42,1.42,0,0,1,.24-.4,3.64,3.64,0,0,1,.48-.45,4.23,4.23,0,0,0,.67-.64.79.79,0,0,0,.17-.44.47.47,0,0,0-.16-.37.56.56,0,0,0-.41-.15.57.57,0,0,0-.42.15.61.61,0,0,0-.17.45l-.38,0a1,1,0,0,1,1.67-.63.82.82,0,0,1,.25.59.94.94,0,0,1-.08.36,1.45,1.45,0,0,1-.24.37c-.12.12-.31.3-.57.52l-.43.38a2.08,2.08,0,0,0-.15.2Z"/><path class="cls-6" d="M58.29,24a2.53,2.53,0,0,1,.11-.86,1,1,0,0,1,.32-.5.85.85,0,0,1,.55-.18.82.82,0,0,1,.42.1.8.8,0,0,1,.3.28,1.33,1.33,0,0,1,.19.45,2.68,2.68,0,0,1,.07.71,2.83,2.83,0,0,1-.11.85,1,1,0,0,1-.33.5.8.8,0,0,1-.54.18.84.84,0,0,1-.69-.31A2,2,0,0,1,58.29,24Zm.38,0a1.82,1.82,0,0,0,.17,1,.49.49,0,0,0,.86,0,1.93,1.93,0,0,0,.17-1,2,2,0,0,0-.17-1,.53.53,0,0,0-.44-.24.46.46,0,0,0-.4.21A1.88,1.88,0,0,0,58.67,24Z"/><path class="cls-6" d="M60.63,24.63l.36,0a.9.9,0,0,0,.22.45.55.55,0,0,0,.37.14A.59.59,0,0,0,62,25a.61.61,0,0,0,.18-.45.57.57,0,0,0-.16-.42.6.6,0,0,0-.43-.17,1.05,1.05,0,0,0-.26.05l0-.33h.06a.8.8,0,0,0,.43-.13.43.43,0,0,0,.19-.38.45.45,0,0,0-.14-.33.49.49,0,0,0-.36-.14.48.48,0,0,0-.35.14.66.66,0,0,0-.19.4l-.37-.06a1,1,0,0,1,.31-.58.92.92,0,0,1,.6-.2,1,1,0,0,1,.45.11.8.8,0,0,1,.32.28.77.77,0,0,1,.11.39.66.66,0,0,1-.11.36.72.72,0,0,1-.31.25.71.71,0,0,1,.42.26.8.8,0,0,1,.14.48.89.89,0,0,1-.28.67,1,1,0,0,1-.73.27,1,1,0,0,1-.66-.23A.93.93,0,0,1,60.63,24.63Z"/><path class="cls-6" d="M156,13.33,154.13,1.24h.38Zm-.26.13.26-.13L154.13,1.24Z"/><path class="cls-7" d="M156,13.33,154.13,1.24h.38Zm-.26.13.26-.13L154.13,1.24Z"/><line class="cls-5" x1="157.31" y1="24.28" x2="155.91" y2="13.33"/><path class="cls-6" d="M156.8,13.33l-1.27-7h.38Zm-.38,0h.38l-1.27-7Z"/><path class="cls-7" d="M156.8,13.33l-1.27-7h.38Zm-.38,0h.38l-1.27-7Z"/><path class="cls-6" d="M155.4,13.46l-1.27-6.87h.38Zm-.38,0h.38l-1.27-6.87Z"/><path class="cls-7" d="M155.4,13.46l-1.27-6.87h.38Zm-.38,0h.38l-1.27-6.87Z"/><line class="cls-5" x1="157.05" y1="24.41" x2="156.8" y2="23.01"/><line class="cls-5" x1="147.63" y1="14.86" x2="145.85" y2="15.12"/><line class="cls-5" x1="166.09" y1="12.44" x2="164.18" y2="12.7"/><line class="cls-5" x1="166.09" y1="12.06" x2="145.72" y2="14.73"/><g class="cls-8"><path class="cls-5" d="M163.35,12.28a7.57,7.57,0,1,0-6.52,8.5,7.57,7.57,0,0,0,6.52-8.5"/><path class="cls-5" d="M162.85,12.35a7.07,7.07,0,1,0-6.08,7.92,7.08,7.08,0,0,0,6.08-7.92"/></g><path class="cls-6" d="M97.81,46.43v-3H100v.35H98.21v.92h1.66v.35H98.21v1h1.85v.35Z"/><path class="cls-6" d="M103,46.43h-.37V44.08a1.51,1.51,0,0,1-.35.25,2.86,2.86,0,0,1-.38.2v-.36a3,3,0,0,0,.54-.35,1.65,1.65,0,0,0,.33-.41H103Z"/><path class="cls-6" d="M104,45a2.85,2.85,0,0,1,.11-.86,1.06,1.06,0,0,1,.32-.5.85.85,0,0,1,.55-.18.93.93,0,0,1,.42.1.84.84,0,0,1,.31.28,1.56,1.56,0,0,1,.18.45,2.68,2.68,0,0,1,.07.71,2.78,2.78,0,0,1-.11.85,1.09,1.09,0,0,1-.32.51.9.9,0,0,1-.55.17.81.81,0,0,1-.68-.31A2,2,0,0,1,104,45Zm.38,0a2,2,0,0,0,.17,1,.52.52,0,0,0,.43.24.51.51,0,0,0,.43-.25,1.93,1.93,0,0,0,.17-1,2,2,0,0,0-.17-1,.53.53,0,0,0-.44-.24.48.48,0,0,0-.4.21A1.93,1.93,0,0,0,104.34,45Z"/><path class="cls-6" d="M107.69,46.43h-.37V44.08a2.12,2.12,0,0,1-.35.25,3.66,3.66,0,0,1-.39.2v-.36a3,3,0,0,0,.54-.35,1.65,1.65,0,0,0,.33-.41h.24Z"/><path class="cls-6" d="M108.46,46.48l.87-3.11h.29l-.87,3.11Z"/><path class="cls-6" d="M111.74,46.08v.35h-2a.69.69,0,0,1,0-.25,1.33,1.33,0,0,1,.25-.4,3.62,3.62,0,0,1,.48-.46,3.67,3.67,0,0,0,.66-.64.7.7,0,0,0,.17-.44.5.5,0,0,0-.15-.37.65.65,0,0,0-.84,0,.62.62,0,0,0-.16.44l-.38,0a.92.92,0,0,1,.29-.64,1,1,0,0,1,.69-.23,1,1,0,0,1,.68.24.79.79,0,0,1,.25.6.84.84,0,0,1-.07.35,1.27,1.27,0,0,1-.25.37,5.11,5.11,0,0,1-.56.53,4.5,4.5,0,0,0-.43.38,1,1,0,0,0-.16.2Z"/><path class="cls-6" d="M112.13,45a2.85,2.85,0,0,1,.11-.86,1.15,1.15,0,0,1,.33-.5.82.82,0,0,1,.54-.18.94.94,0,0,1,.43.1.89.89,0,0,1,.3.28,1.56,1.56,0,0,1,.19.45,3.28,3.28,0,0,1,.06.71,2.82,2.82,0,0,1-.1.85,1.19,1.19,0,0,1-.33.51.88.88,0,0,1-.55.17.82.82,0,0,1-.68-.31A2,2,0,0,1,112.13,45Zm.38,0a1.87,1.87,0,0,0,.18,1,.49.49,0,0,0,.85,0,1.82,1.82,0,0,0,.17-1,1.87,1.87,0,0,0-.17-1,.51.51,0,0,0-.43-.24.48.48,0,0,0-.41.21A2,2,0,0,0,112.51,45Z"/><path class="cls-6" d="M115.86,46.43h-.37V44.08a1.76,1.76,0,0,1-.35.25,2.42,2.42,0,0,1-.39.2v-.36a2.39,2.39,0,0,0,.54-.35,1.29,1.29,0,0,0,.33-.41h.24Z"/><path class="cls-6" d="M98,85.64l-.8-3h.41l.45,2c0,.21.1.41.13.62.08-.33.12-.51.14-.56l.57-2h.48l.43,1.52a6.65,6.65,0,0,1,.23,1.07q.06-.28.15-.66l.48-1.93H101l-.82,3h-.38l-.64-2.29L99.08,83q0,.21-.09.36l-.64,2.29Z"/><path class="cls-6" d="M103.79,85.64h-.36V83.28a1.87,1.87,0,0,1-.36.26,2.68,2.68,0,0,1-.38.19v-.36a2.18,2.18,0,0,0,.54-.35,1.62,1.62,0,0,0,.33-.4h.23Z"/><path class="cls-6" d="M104.74,84.15a2.78,2.78,0,0,1,.11-.85,1,1,0,0,1,.33-.51.85.85,0,0,1,.54-.17.93.93,0,0,1,.42.09.78.78,0,0,1,.31.29,1.35,1.35,0,0,1,.18.44,2.78,2.78,0,0,1,.07.71,2.85,2.85,0,0,1-.11.86,1.11,1.11,0,0,1-.32.5.85.85,0,0,1-.55.18.83.83,0,0,1-.68-.31A2,2,0,0,1,104.74,84.15Zm.38,0a2,2,0,0,0,.17,1,.51.51,0,0,0,.86,0,2,2,0,0,0,.17-1,1.93,1.93,0,0,0-.17-1,.51.51,0,0,0-.43-.25.47.47,0,0,0-.41.22A1.86,1.86,0,0,0,105.12,84.15Z"/><path class="cls-6" d="M107.1,83v-.35h2V83a3.68,3.68,0,0,0-.57.81,4.7,4.7,0,0,0-.44,1,4.1,4.1,0,0,0-.14.83h-.38a3.39,3.39,0,0,1,.14-.86,4.77,4.77,0,0,1,.38-1,5.16,5.16,0,0,1,.53-.79Z"/><path class="cls-6" d="M109.24,85.69l.87-3.11h.29l-.87,3.11Z"/><path class="cls-6" d="M112.52,85.28v.36h-2a.75.75,0,0,1,0-.26,1.33,1.33,0,0,1,.25-.4,3.64,3.64,0,0,1,.48-.45,4.06,4.06,0,0,0,.66-.64.77.77,0,0,0,.18-.45.52.52,0,0,0-.16-.37.58.58,0,0,0-.41-.15.61.61,0,0,0-.43.16.65.65,0,0,0-.16.45l-.38,0a.94.94,0,0,1,.29-.65,1,1,0,0,1,.69-.22.94.94,0,0,1,.68.24.78.78,0,0,1,.25.59.92.92,0,0,1-.07.36,1.41,1.41,0,0,1-.24.36,6.7,6.7,0,0,1-.57.53c-.23.19-.37.32-.43.38a1.4,1.4,0,0,0-.16.2Z"/><path class="cls-6" d="M112.91,84.15a2.78,2.78,0,0,1,.11-.85,1.19,1.19,0,0,1,.33-.51.87.87,0,0,1,.54-.17.94.94,0,0,1,.43.09.83.83,0,0,1,.3.29,1.62,1.62,0,0,1,.19.44,3.41,3.41,0,0,1,.06.71,2.89,2.89,0,0,1-.1.86,1.13,1.13,0,0,1-.33.5.83.83,0,0,1-.55.18.85.85,0,0,1-.68-.31A2,2,0,0,1,112.91,84.15Zm.38,0a1.82,1.82,0,0,0,.18,1,.49.49,0,0,0,.42.24.51.51,0,0,0,.43-.24,1.85,1.85,0,0,0,.18-1,1.8,1.8,0,0,0-.18-1,.5.5,0,0,0-.43-.25.48.48,0,0,0-.41.22A2,2,0,0,0,113.29,84.15Z"/><path class="cls-6" d="M115.27,83v-.35h2V83a4,4,0,0,0-.57.81,4.67,4.67,0,0,0-.43,1,3.5,3.5,0,0,0-.15.83h-.37a3.82,3.82,0,0,1,.13-.86,4.28,4.28,0,0,1,.39-1,4,4,0,0,1,.53-.79Z"/><path class="cls-6" d="M31.87,66.29v-3h2.18v.36H32.27v.92h1.66v.35H32.27v1h1.85v.35Z"/><path class="cls-6" d="M37.07,66.29h-.36V63.94a2.12,2.12,0,0,1-.35.25,2.27,2.27,0,0,1-.39.19V64a2.54,2.54,0,0,0,.54-.36,1.46,1.46,0,0,0,.33-.4h.23Z"/><path class="cls-6" d="M38,64.81a2.85,2.85,0,0,1,.11-.86,1,1,0,0,1,.33-.5.8.8,0,0,1,.54-.18.82.82,0,0,1,.42.1.76.76,0,0,1,.31.28,1.32,1.32,0,0,1,.18.45,2.68,2.68,0,0,1,.07.71,2.78,2.78,0,0,1-.11.85,1,1,0,0,1-.32.5.85.85,0,0,1-.55.18.81.81,0,0,1-.68-.31A2,2,0,0,1,38,64.81Zm.38,0a1.93,1.93,0,0,0,.17,1,.49.49,0,0,0,.86,0,1.93,1.93,0,0,0,.17-1,2,2,0,0,0-.17-1,.52.52,0,0,0-.43-.24.48.48,0,0,0-.41.21A1.9,1.9,0,0,0,38.4,64.81Z"/><path class="cls-6" d="M41.54,66.29v-.72H40.23v-.34l1.38-2h.3v2h.4v.34h-.4v.72Zm0-1.06V63.88l-.94,1.35Z"/><path class="cls-6" d="M42.52,66.34l.87-3.11h.29l-.87,3.11Z"/><path class="cls-6" d="M45.8,65.94v.35h-2a.78.78,0,0,1,0-.26,2,2,0,0,1,.25-.4,3.64,3.64,0,0,1,.48-.45,3.67,3.67,0,0,0,.66-.64.72.72,0,0,0,.18-.44.51.51,0,0,0-.16-.37.65.65,0,0,0-.84,0,.61.61,0,0,0-.16.44l-.38,0a1,1,0,0,1,.29-.65,1.06,1.06,0,0,1,.69-.22.94.94,0,0,1,.68.24.79.79,0,0,1,.25.6.84.84,0,0,1-.07.35,1.45,1.45,0,0,1-.24.37c-.12.13-.31.3-.57.53a4.37,4.37,0,0,0-.43.38,1.56,1.56,0,0,0-.16.2Z"/><path class="cls-6" d="M46.19,64.81A2.85,2.85,0,0,1,46.3,64a1.15,1.15,0,0,1,.33-.5.83.83,0,0,1,.55-.18.82.82,0,0,1,.42.1.8.8,0,0,1,.3.28,1.56,1.56,0,0,1,.19.45,3.18,3.18,0,0,1,.07.71,2.78,2.78,0,0,1-.11.85,1,1,0,0,1-.33.5.82.82,0,0,1-.54.18.84.84,0,0,1-.69-.31A2,2,0,0,1,46.19,64.81Zm.38,0a1.8,1.8,0,0,0,.18,1,.49.49,0,0,0,.85,0,1.8,1.8,0,0,0,.18-1,1.82,1.82,0,0,0-.18-1,.51.51,0,0,0-.43-.24.49.49,0,0,0-.41.21A2,2,0,0,0,46.57,64.81Z"/><path class="cls-6" d="M49.71,66.29v-.72h-1.3v-.34l1.37-2h.3v2h.41v.34h-.41v.72Zm0-1.06V63.88l-.94,1.35Z"/><path class="cls-6" d="M44.48,106.64l-.8-3h.41l.46,2c.05.2.09.41.13.61.07-.32.12-.5.13-.55l.58-2h.48l.43,1.52a9.71,9.71,0,0,1,.23,1.06c0-.19.09-.41.15-.65l.47-1.93h.4l-.82,3h-.39l-.63-2.29c-.05-.19-.09-.31-.1-.35,0,.14-.06.25-.08.35l-.64,2.29Z"/><path class="cls-6" d="M50.33,106.64H50v-2.35a1.76,1.76,0,0,1-.35.25,2.42,2.42,0,0,1-.39.2v-.36a2.39,2.39,0,0,0,.54-.35,1.29,1.29,0,0,0,.33-.41h.24Z"/><path class="cls-6" d="M51.28,105.16a2.57,2.57,0,0,1,.11-.86,1.06,1.06,0,0,1,.32-.5.85.85,0,0,1,.55-.18.93.93,0,0,1,.42.1.89.89,0,0,1,.3.28,1.56,1.56,0,0,1,.19.45,3.18,3.18,0,0,1,.07.71,2.78,2.78,0,0,1-.11.85,1.11,1.11,0,0,1-.33.51.85.85,0,0,1-.54.17.84.84,0,0,1-.69-.31A2,2,0,0,1,51.28,105.16Zm.37,0a1.87,1.87,0,0,0,.18,1,.51.51,0,0,0,.43.24.48.48,0,0,0,.42-.25,1.8,1.8,0,0,0,.18-1,1.85,1.85,0,0,0-.18-1,.51.51,0,0,0-.43-.24.49.49,0,0,0-.41.21A2,2,0,0,0,51.65,105.16Z"/><path class="cls-6" d="M53.61,105.86l.39,0a.7.7,0,0,0,.2.43.56.56,0,0,0,.38.14.61.61,0,0,0,.45-.2.76.76,0,0,0,.18-.53.72.72,0,0,0-.17-.5.64.64,0,0,0-.47-.18.57.57,0,0,0-.32.08.58.58,0,0,0-.23.21l-.34,0,.29-1.54h1.49V104h-1.2l-.16.81a1,1,0,0,1,.57-.19.9.9,0,0,1,.66.27,1,1,0,0,1,.27.7,1.08,1.08,0,0,1-.23.71,1,1,0,0,1-.79.36.93.93,0,0,1-.67-.23A.87.87,0,0,1,53.61,105.86Z"/><path class="cls-6" d="M55.77,106.69l.87-3.11h.3l-.87,3.11Z"/><path class="cls-6" d="M59.05,106.29v.35h-2a.53.53,0,0,1,0-.25,1.29,1.29,0,0,1,.24-.4,3.79,3.79,0,0,1,.49-.46,4.54,4.54,0,0,0,.66-.64.76.76,0,0,0,.17-.44.47.47,0,0,0-.16-.37.56.56,0,0,0-.41-.15.55.55,0,0,0-.42.16.58.58,0,0,0-.16.44l-.38,0a.88.88,0,0,1,.29-.64,1,1,0,0,1,.68-.23,1,1,0,0,1,.69.24.79.79,0,0,1,.25.6.84.84,0,0,1-.07.35,1.51,1.51,0,0,1-.25.37,4.56,4.56,0,0,1-.57.53,5.42,5.42,0,0,0-.42.38.74.74,0,0,0-.16.2Z"/><path class="cls-6" d="M59.45,105.16a2.85,2.85,0,0,1,.11-.86,1,1,0,0,1,.33-.5.8.8,0,0,1,.54-.18.93.93,0,0,1,.42.1.84.84,0,0,1,.31.28,1.32,1.32,0,0,1,.18.45,2.68,2.68,0,0,1,.07.71,2.78,2.78,0,0,1-.11.85,1.09,1.09,0,0,1-.32.51.9.9,0,0,1-.55.17.81.81,0,0,1-.68-.31A2,2,0,0,1,59.45,105.16Zm.38,0a2,2,0,0,0,.17,1,.52.52,0,0,0,.43.24.51.51,0,0,0,.43-.25,1.93,1.93,0,0,0,.17-1,2,2,0,0,0-.17-1,.52.52,0,0,0-.43-.24.48.48,0,0,0-.41.21A1.93,1.93,0,0,0,59.83,105.16Z"/><path class="cls-6" d="M61.79,105.86l.38,0a.75.75,0,0,0,.2.43.57.57,0,0,0,.38.14.59.59,0,0,0,.45-.2.72.72,0,0,0,.19-.53.68.68,0,0,0-.18-.5.69.69,0,0,0-.79-.1.56.56,0,0,0-.22.21l-.35,0,.29-1.54h1.5V104h-1.2l-.16.81a1,1,0,0,1,.56-.19.9.9,0,0,1,.67.27,1,1,0,0,1,.27.7,1.09,1.09,0,0,1-.24.71,1,1,0,0,1-.79.36,1,1,0,0,1-.67-.23A.86.86,0,0,1,61.79,105.86Z"/><path class="cls-6" d="M5.06,68.27h-3v-.39H4.71V66.4h.35Z"/><path class="cls-6" d="M5.06,66.25l-3-1.15v-.43l3-1.23v.45l-.91.35V65.5l.91.33Zm-1.23-.87v-1L3,64.68c-.26.09-.47.17-.63.21a4.18,4.18,0,0,1,.58.16Z"/><path class="cls-6" d="M3.88,61.71H3.53V60.44H4.64A2.39,2.39,0,0,1,5,61a2.05,2.05,0,0,1,.11.64,1.67,1.67,0,0,1-.19.81,1.3,1.3,0,0,1-.54.55,1.79,1.79,0,0,1-.81.18A1.92,1.92,0,0,1,2.75,63a1.25,1.25,0,0,1-.56-.53A1.7,1.7,0,0,1,2,61.72a1.55,1.55,0,0,1,.1-.59,1,1,0,0,1,.29-.42,1.28,1.28,0,0,1,.5-.22l.1.35a1.43,1.43,0,0,0-.37.17.84.84,0,0,0-.21.29,1.07,1.07,0,0,0-.08.41,1.17,1.17,0,0,0,.09.48.91.91,0,0,0,.22.32,1.32,1.32,0,0,0,.29.19,1.74,1.74,0,0,0,.61.11,1.48,1.48,0,0,0,.67-.14.82.82,0,0,0,.4-.4,1.25,1.25,0,0,0,.14-.56,1.49,1.49,0,0,0-.1-.51,1.24,1.24,0,0,0-.22-.37H3.88Z"/><path class="cls-6" d="M3.6,60a1.61,1.61,0,0,1-1.17-.4,1.34,1.34,0,0,1-.43-1,1.5,1.5,0,0,1,.2-.75,1.32,1.32,0,0,1,.56-.51,1.85,1.85,0,0,1,.8-.17,1.8,1.8,0,0,1,.82.18,1.34,1.34,0,0,1,.55.53,1.52,1.52,0,0,1,.18.73,1.42,1.42,0,0,1-.2.76,1.29,1.29,0,0,1-.56.5A1.65,1.65,0,0,1,3.6,60Zm0-.41a1.18,1.18,0,0,0,.86-.29,1,1,0,0,0,0-1.47,1.3,1.3,0,0,0-.9-.29,1.59,1.59,0,0,0-.64.12A1,1,0,0,0,2.5,58a1,1,0,0,0-.16.53,1,1,0,0,0,.3.73A1.28,1.28,0,0,0,3.6,59.56Z"/><path class="cls-6" d="M153.62,91.25l-3-1.16v-.43l3-1.23v.46l-.91.35v1.25l.91.34Zm-1.24-.87v-1l-.83.31c-.25.1-.46.17-.62.22a4,4,0,0,1,.57.16Z"/><path class="cls-6" d="M153.62,87.56l-2.18.83V88l1.3-.47.44-.14-.41-.14-1.33-.48v-.38l2.18.82Z"/><path class="cls-6" d="M153.62,86h-.43v-.42h.43Z"/><path class="cls-6" d="M152.76,83.89l0-.36a.8.8,0,0,0,.47-.13.41.41,0,0,0,.13-.32.44.44,0,0,0-.07-.26.34.34,0,0,0-.18-.15,1.21,1.21,0,0,0-.38,0h-2.07v-.4h2a1.5,1.5,0,0,1,.58.09.65.65,0,0,1,.32.29,1,1,0,0,1,.11.47.78.78,0,0,1-.23.6A1,1,0,0,1,152.76,83.89Z"/><path class="cls-6" d="M152.15,81.7a1.61,1.61,0,0,1-1.17-.4,1.37,1.37,0,0,1-.42-1,1.49,1.49,0,0,1,.19-.75,1.38,1.38,0,0,1,.56-.51,1.92,1.92,0,0,1,.81-.17,1.79,1.79,0,0,1,.81.18,1.26,1.26,0,0,1,.55.52,1.57,1.57,0,0,1,.19.74,1.37,1.37,0,0,1-.21.75,1.21,1.21,0,0,1-.56.51A1.59,1.59,0,0,1,152.15,81.7Zm0-.41A1.17,1.17,0,0,0,153,81a1,1,0,0,0,0-1.47,1.25,1.25,0,0,0-.9-.29,1.62,1.62,0,0,0-.64.12,1,1,0,0,0-.42.37.94.94,0,0,0-.15.53,1,1,0,0,0,.29.73A1.29,1.29,0,0,0,152.16,81.29Z"/><path class="cls-6" d="M153.62,78.65l-3-1.16v-.43l3-1.23v.45l-.91.36v1.25l.91.33Zm-1.24-.87v-1l-.83.31c-.25.1-.46.17-.62.22a3,3,0,0,1,.57.16Z"/><path class="cls-6" d="M153.29,73.24a2.45,2.45,0,0,0,.28-.52l.28.12a2.39,2.39,0,0,1-.37.65,1.54,1.54,0,0,1,.19.74,1.47,1.47,0,0,1-.2.74,1.35,1.35,0,0,1-.55.51,1.79,1.79,0,0,1-.81.18,1.85,1.85,0,0,1-.81-.18,1.21,1.21,0,0,1-.55-.52,1.56,1.56,0,0,1,0-1.49,1.25,1.25,0,0,1,.56-.51,1.71,1.71,0,0,1,.8-.18,2,2,0,0,1,.67.11A1.37,1.37,0,0,1,153.29,73.24Zm-.51.87a1.53,1.53,0,0,1,.29-.57,1.24,1.24,0,0,0-1-.35,1.44,1.44,0,0,0-.64.13.93.93,0,0,0-.42.36,1,1,0,0,0-.15.54,1,1,0,0,0,.3.73,1.26,1.26,0,0,0,.91.3A1.3,1.3,0,0,0,153,75a1,1,0,0,0,.32-.74,1.11,1.11,0,0,0-.08-.41,1.59,1.59,0,0,0-.18.4Z"/><path class="cls-6" d="M150.61,70.27v-.39h1.74a2,2,0,0,1,.72.1.9.9,0,0,1,.43.37,1.32,1.32,0,0,1,.17.7,1.41,1.41,0,0,1-.15.69.88.88,0,0,1-.42.39,2.16,2.16,0,0,1-.75.11h-1.74v-.4h1.73a1.68,1.68,0,0,0,.58-.07.55.55,0,0,0,.29-.25.94.94,0,0,0,.1-.43.83.83,0,0,0-.2-.63,1.18,1.18,0,0,0-.77-.19Z"/><path class="cls-6" d="M153.62,69.15h-3v-.4h3Z"/><path class="cls-6" d="M153.62,68.05h-3v-.41L153,66.06h-2.36v-.38h3v.41l-2.37,1.58h2.37Z"/><path class="cls-6" d="M152.65,64l0-.37a.81.81,0,0,0,.37-.13.67.67,0,0,0,.23-.3,1.14,1.14,0,0,0,.09-.46,1,1,0,0,0-.07-.4.47.47,0,0,0-.18-.26.43.43,0,0,0-.26-.09.44.44,0,0,0-.25.08.71.71,0,0,0-.18.27,4.55,4.55,0,0,0-.14.54,2.75,2.75,0,0,1-.19.58.8.8,0,0,1-.28.32.7.7,0,0,1-.37.11.8.8,0,0,1-.43-.13.83.83,0,0,1-.3-.38,1.6,1.6,0,0,1,0-1.14.81.81,0,0,1,.31-.39.88.88,0,0,1,.48-.15l0,.38a.61.61,0,0,0-.43.21,1.09,1.09,0,0,0,0,1,.4.4,0,0,0,.32.16.37.37,0,0,0,.27-.11,1.59,1.59,0,0,0,.21-.6,4,4,0,0,1,.19-.67,1,1,0,0,1,.31-.39.81.81,0,0,1,.88,0,.91.91,0,0,1,.33.39,1.37,1.37,0,0,1,.12.58,1.69,1.69,0,0,1-.12.68,1,1,0,0,1-.36.44A1,1,0,0,1,152.65,64Z"/><path class="cls-6" d="M153.62,61h-3V58.86H151v1.78h.93V59h.35v1.66h1V58.79h.36Z"/><path class="cls-6" d="M152.56,56.1l.1-.4a1.29,1.29,0,0,1,.75.45,1.26,1.26,0,0,1,.26.8,1.47,1.47,0,0,1-.2.79,1.26,1.26,0,0,1-.57.46,2,2,0,0,1-.81.16,1.77,1.77,0,0,1-.82-.18,1.24,1.24,0,0,1-.53-.51,1.52,1.52,0,0,1-.18-.73,1.2,1.2,0,0,1,.23-.76,1.22,1.22,0,0,1,.64-.43l.1.39a.9.9,0,0,0-.48.31.8.8,0,0,0-.15.5,1,1,0,0,0,.16.58.91.91,0,0,0,.45.32,1.65,1.65,0,0,0,.58.1,2,2,0,0,0,.67-.11.82.82,0,0,0,.42-.35,1,1,0,0,0,.15-.51.86.86,0,0,0-.2-.57A1,1,0,0,0,152.56,56.1Z"/><path class="cls-6" d="M152.15,55.33a1.61,1.61,0,0,1-1.17-.4,1.37,1.37,0,0,1-.42-1,1.44,1.44,0,0,1,.19-.75,1.38,1.38,0,0,1,.56-.51,2,2,0,0,1,1.62,0,1.21,1.21,0,0,1,.55.52,1.56,1.56,0,0,1,.19.73,1.38,1.38,0,0,1-.21.76,1.32,1.32,0,0,1-.56.51A1.72,1.72,0,0,1,152.15,55.33Zm0-.41a1.22,1.22,0,0,0,.85-.29,1,1,0,0,0,0-1.47,1.25,1.25,0,0,0-.9-.29,1.62,1.62,0,0,0-.64.12.93.93,0,0,0-.42.36,1,1,0,0,0-.15.54,1,1,0,0,0,.29.73A1.29,1.29,0,0,0,152.16,54.92Z"/><path class="cls-6" d="M153.62,50.71h-3v-.4h3Z"/><path class="cls-6" d="M153.62,49.63h-3v-.4h2.65V47.75h.36Z"/><path class="cls-6" d="M153.62,47.29h-3v-.4h2.65V45.41h.36Z"/><path class="cls-6" d="M153.62,45.27l-3-1.16v-.43l3-1.23v.46l-.91.35v1.25l.91.34Zm-1.24-.87v-1l-.83.31c-.25.1-.46.17-.62.22a4,4,0,0,1,.57.16Z"/><path class="cls-6" d="M97.56,24.41v-3h2.17v.36H98v.92h1.66V23H98v1H99.8v.36Z"/><path class="cls-6" d="M102.76,24.41h-.37V22.06a2.12,2.12,0,0,1-.35.25,1.73,1.73,0,0,1-.39.19v-.36a1.86,1.86,0,0,0,.54-.35,1.27,1.27,0,0,0,.33-.4h.24Z"/><path class="cls-6" d="M103.7,22.93a2.81,2.81,0,0,1,.11-.86,1.1,1.1,0,0,1,.33-.5.82.82,0,0,1,.54-.18.83.83,0,0,1,.43.1.8.8,0,0,1,.3.28,1.56,1.56,0,0,1,.19.45,3.28,3.28,0,0,1,.06.71,2.87,2.87,0,0,1-.1.85,1.15,1.15,0,0,1-.33.5.83.83,0,0,1-.55.18.82.82,0,0,1-.68-.31A2,2,0,0,1,103.7,22.93Zm.38,0a1.8,1.8,0,0,0,.18,1,.5.5,0,0,0,.42.25.52.52,0,0,0,.43-.25,1.82,1.82,0,0,0,.17-1,1.84,1.84,0,0,0-.17-1,.51.51,0,0,0-.43-.24.49.49,0,0,0-.41.21A2,2,0,0,0,104.08,22.93Z"/><path class="cls-6" d="M108,24.05v.36h-2a.58.58,0,0,1,.05-.26,1.42,1.42,0,0,1,.24-.4,3.64,3.64,0,0,1,.48-.45,3.67,3.67,0,0,0,.66-.64.74.74,0,0,0,.18-.44.51.51,0,0,0-.16-.37.65.65,0,0,0-.84,0,.61.61,0,0,0-.16.44l-.38,0a.89.89,0,0,1,1-.87.92.92,0,0,1,.68.24.79.79,0,0,1,.26.59.9.9,0,0,1-.08.36,1.45,1.45,0,0,1-.24.37c-.12.12-.31.3-.57.53l-.43.37a2.08,2.08,0,0,0-.15.2Z"/><path class="cls-6" d="M108.2,24.46l.87-3.11h.3l-.87,3.11Z"/><path class="cls-6" d="M111.48,24.05v.36h-2a.57.57,0,0,1,0-.26,1.42,1.42,0,0,1,.24-.4,3.64,3.64,0,0,1,.48-.45,4.23,4.23,0,0,0,.67-.64.79.79,0,0,0,.17-.44.47.47,0,0,0-.16-.37.56.56,0,0,0-.41-.15.55.55,0,0,0-.42.16.61.61,0,0,0-.17.44l-.37,0a.92.92,0,0,1,.29-.65,1,1,0,0,1,.68-.22,1,1,0,0,1,.69.24.82.82,0,0,1,.25.59,1.1,1.1,0,0,1-.07.36,1.51,1.51,0,0,1-.25.37,6.87,6.87,0,0,1-.57.53l-.43.37a2.08,2.08,0,0,0-.15.2Z"/><path class="cls-6" d="M111.88,22.93a2.81,2.81,0,0,1,.11-.86,1,1,0,0,1,.32-.5.85.85,0,0,1,.55-.18.82.82,0,0,1,.42.1.76.76,0,0,1,.31.28,1.56,1.56,0,0,1,.18.45,2.68,2.68,0,0,1,.07.71,2.83,2.83,0,0,1-.11.85,1.06,1.06,0,0,1-.32.5.85.85,0,0,1-.55.18.81.81,0,0,1-.68-.31A2,2,0,0,1,111.88,22.93Zm.38,0a1.93,1.93,0,0,0,.17,1,.49.49,0,0,0,.86,0,1.93,1.93,0,0,0,.17-1,2,2,0,0,0-.17-1,.53.53,0,0,0-.44-.24.48.48,0,0,0-.4.21A1.88,1.88,0,0,0,112.26,22.93Z"/><path class="cls-6" d="M116.15,24.05v.36h-2a.57.57,0,0,1,0-.26,1.42,1.42,0,0,1,.24-.4,3.82,3.82,0,0,1,.49-.45,4.54,4.54,0,0,0,.66-.64.79.79,0,0,0,.17-.44.47.47,0,0,0-.16-.37.55.55,0,0,0-.4-.15.57.57,0,0,0-.43.16.57.57,0,0,0-.16.44l-.38,0a.92.92,0,0,1,.29-.65,1,1,0,0,1,.68-.22,1,1,0,0,1,.69.24.78.78,0,0,1,.25.59.89.89,0,0,1-.07.36,1.27,1.27,0,0,1-.25.37,6.87,6.87,0,0,1-.57.53c-.22.18-.36.31-.42.37a1.27,1.27,0,0,0-.16.2Z"/><path class="cls-6" d="M98,107.53l-.8-3h.41l.46,2c0,.21.09.42.12.62.08-.32.12-.51.14-.56l.57-2h.48l.43,1.53a6.55,6.55,0,0,1,.23,1.06c0-.19.09-.41.15-.65l.48-1.94h.4l-.83,3h-.38l-.64-2.29-.09-.35c0,.14-.06.25-.09.35l-.64,2.29Z"/><path class="cls-6" d="M103.8,107.53h-.37v-2.35a2.12,2.12,0,0,1-.35.25,2.27,2.27,0,0,1-.39.19v-.35a2.54,2.54,0,0,0,.54-.36,1.46,1.46,0,0,0,.33-.4h.24Z"/><path class="cls-6" d="M104.74,106.05a2.85,2.85,0,0,1,.11-.86,1,1,0,0,1,.33-.5.8.8,0,0,1,.54-.18.88.88,0,0,1,.43.1.8.8,0,0,1,.3.28,1.32,1.32,0,0,1,.18.45,2.68,2.68,0,0,1,.07.71,2.5,2.5,0,0,1-.11.85,1,1,0,0,1-.32.5.85.85,0,0,1-.55.18.81.81,0,0,1-.68-.31A2,2,0,0,1,104.74,106.05Zm.38,0a1.93,1.93,0,0,0,.17,1,.49.49,0,0,0,.86,0,1.93,1.93,0,0,0,.17-1,2,2,0,0,0-.17-1,.52.52,0,0,0-.43-.24.48.48,0,0,0-.41.21A1.9,1.9,0,0,0,105.12,106.05Z"/><path class="cls-6" d="M109,105.26l-.36,0a.8.8,0,0,0-.14-.32.51.51,0,0,0-.37-.15.54.54,0,0,0-.31.09.89.89,0,0,0-.28.37,2.12,2.12,0,0,0-.1.7.83.83,0,0,1,.32-.3.88.88,0,0,1,1,.17,1,1,0,0,1,.26.7,1.19,1.19,0,0,1-.13.53.85.85,0,0,1-.33.37.9.9,0,0,1-.49.13,1,1,0,0,1-.75-.34,1.73,1.73,0,0,1-.29-1.12,2,2,0,0,1,.32-1.26.94.94,0,0,1,.76-.35.8.8,0,0,1,.85.75Zm-1.51,1.3a.77.77,0,0,0,.09.36.6.6,0,0,0,.22.27.59.59,0,0,0,.31.09.51.51,0,0,0,.4-.19.77.77,0,0,0,.17-.51.69.69,0,0,0-.17-.49.54.54,0,0,0-.42-.18.58.58,0,0,0-.42.18A.63.63,0,0,0,107.48,106.56Z"/><path class="cls-6" d="M109.24,107.58l.87-3.11h.3l-.87,3.11Z"/><path class="cls-6" d="M112.52,107.18v.35h-2a.6.6,0,0,1,0-.26,1.57,1.57,0,0,1,.24-.4,3.64,3.64,0,0,1,.48-.45,3.67,3.67,0,0,0,.66-.64.72.72,0,0,0,.18-.44A.51.51,0,0,0,112,105a.65.65,0,0,0-.84,0,.61.61,0,0,0-.16.44l-.38,0a.93.93,0,0,1,.3-.64,1,1,0,0,1,.68-.23.94.94,0,0,1,.68.24.79.79,0,0,1,.26.6.85.85,0,0,1-.08.35,1.45,1.45,0,0,1-.24.37c-.12.13-.31.3-.57.53a4.37,4.37,0,0,0-.43.38,1,1,0,0,0-.15.2Z"/><path class="cls-6" d="M112.92,106.05a2.57,2.57,0,0,1,.11-.86,1.06,1.06,0,0,1,.32-.5.85.85,0,0,1,.55-.18.82.82,0,0,1,.42.1.8.8,0,0,1,.3.28,1.56,1.56,0,0,1,.19.45,3.18,3.18,0,0,1,.07.71,2.78,2.78,0,0,1-.11.85,1,1,0,0,1-.33.5.8.8,0,0,1-.54.18.84.84,0,0,1-.69-.31A2,2,0,0,1,112.92,106.05Zm.37,0a1.8,1.8,0,0,0,.18,1,.5.5,0,0,0,.43.25.48.48,0,0,0,.42-.25,1.8,1.8,0,0,0,.18-1,1.82,1.82,0,0,0-.18-1,.51.51,0,0,0-.43-.24.46.46,0,0,0-.4.21A1.88,1.88,0,0,0,113.29,106.05Z"/><path class="cls-6" d="M117.17,105.26l-.37,0a.68.68,0,0,0-.14-.32.5.5,0,0,0-.37-.15.54.54,0,0,0-.31.09.87.87,0,0,0-.27.37,1.86,1.86,0,0,0-.11.7.86.86,0,0,1,.33-.3.82.82,0,0,1,.4-.1.83.83,0,0,1,.63.27,1,1,0,0,1,.26.7,1.18,1.18,0,0,1-.12.53.82.82,0,0,1-.34.37.86.86,0,0,1-.48.13.92.92,0,0,1-.75-.34,1.67,1.67,0,0,1-.29-1.12,1.94,1.94,0,0,1,.32-1.26.92.92,0,0,1,.75-.35.9.9,0,0,1,.59.2A.85.85,0,0,1,117.17,105.26Zm-1.51,1.3a.9.9,0,0,0,.08.36.56.56,0,0,0,.23.27.55.55,0,0,0,.3.09.5.5,0,0,0,.4-.19.72.72,0,0,0,.17-.51.69.69,0,0,0-.16-.49.54.54,0,0,0-.42-.18.58.58,0,0,0-.43.18A.66.66,0,0,0,115.66,106.56Z"/><polyline class="cls-5" points="88.31 53.3 107.79 53.3 107.79 55.59 112.12 55.59 112.12 53.3 115.81 53.3 115.81 54.7 120.39 54.7 120.39 53.3 123.83 53.3 123.83 55.59 129.56 55.59 129.56 33.32 111.86 33.32 111.86 35.23 88.31 35.23 88.31 53.3"/><polyline class="cls-5" points="111.86 33.32 129.56 33.32 129.56 10.79 123.83 10.79 123.83 13.08 120.39 13.08 120.39 11.81 115.81 11.81 115.81 13.08 112.12 13.08 112.12 10.79 107.79 10.79 107.79 13.08 88.82 13.08 88.82 16.13 80.55 16.13 80.55 31.28 111.86 31.28 111.86 33.32"/><line class="cls-5" x1="112.12" y1="10.79" x2="123.83" y2="10.79"/><polyline class="cls-5" points="112.63 11.55 112.12 11.42 123.83 11.42"/><line class="cls-5" x1="112.88" y1="11.68" x2="113.39" y2="11.93"/><line class="cls-5" x1="113.65" y1="12.06" x2="114.15" y2="12.32"/><line class="cls-5" x1="114.54" y1="12.44" x2="115.05" y2="12.7"/><line class="cls-5" x1="115.3" y1="12.82" x2="115.81" y2="13.08"/><line class="cls-5" x1="112.12" y1="13.08" x2="112.63" y2="12.82"/><line class="cls-5" x1="112.88" y1="12.7" x2="113.39" y2="12.44"/><line class="cls-5" x1="113.65" y1="12.31" x2="114.15" y2="12.06"/><line class="cls-5" x1="114.54" y1="11.93" x2="115.05" y2="11.68"/><line class="cls-5" x1="115.3" y1="11.55" x2="115.81" y2="11.42"/><line class="cls-5" x1="120.39" y1="11.42" x2="120.77" y2="11.55"/><line class="cls-5" x1="121.03" y1="11.68" x2="121.54" y2="11.93"/><line class="cls-5" x1="121.79" y1="12.06" x2="122.43" y2="12.32"/><line class="cls-5" x1="122.68" y1="12.44" x2="123.19" y2="12.7"/><line class="cls-5" x1="123.45" y1="12.95" x2="123.83" y2="13.08"/><line class="cls-5" x1="120.39" y1="13.08" x2="120.77" y2="12.95"/><line class="cls-5" x1="121.03" y1="12.7" x2="121.54" y2="12.44"/><line class="cls-5" x1="121.79" y1="12.31" x2="122.43" y2="12.06"/><line class="cls-5" x1="122.68" y1="11.93" x2="123.19" y2="11.68"/><line class="cls-5" x1="123.45" y1="11.55" x2="123.83" y2="11.42"/><line class="cls-5" x1="112.12" y1="55.6" x2="123.83" y2="55.6"/><polyline class="cls-5" points="112.63 54.83 112.12 55.09 123.83 55.09"/><line class="cls-5" x1="112.88" y1="54.7" x2="113.39" y2="54.45"/><line class="cls-5" x1="113.65" y1="54.32" x2="114.15" y2="54.07"/><line class="cls-5" x1="114.54" y1="53.94" x2="115.05" y2="53.69"/><line class="cls-5" x1="115.3" y1="53.56" x2="115.81" y2="53.3"/><line class="cls-5" x1="112.12" y1="53.3" x2="112.63" y2="53.56"/><line class="cls-5" x1="112.88" y1="53.69" x2="113.39" y2="53.94"/><line class="cls-5" x1="113.65" y1="54.07" x2="114.15" y2="54.32"/><line class="cls-5" x1="114.54" y1="54.45" x2="115.05" y2="54.7"/><line class="cls-5" x1="115.3" y1="54.83" x2="115.81" y2="55.09"/><line class="cls-5" x1="120.39" y1="55.09" x2="120.77" y2="54.83"/><line class="cls-5" x1="121.03" y1="54.7" x2="121.54" y2="54.45"/><line class="cls-5" x1="121.79" y1="54.32" x2="122.43" y2="54.07"/><line class="cls-5" x1="122.68" y1="53.94" x2="123.19" y2="53.69"/><line class="cls-5" x1="123.45" y1="53.56" x2="123.83" y2="53.3"/><line class="cls-5" x1="120.39" y1="53.3" x2="120.77" y2="53.56"/><line class="cls-5" x1="121.03" y1="53.69" x2="121.54" y2="53.94"/><line class="cls-5" x1="121.79" y1="54.07" x2="122.43" y2="54.32"/><line class="cls-5" x1="122.68" y1="54.45" x2="123.19" y2="54.7"/><line class="cls-5" x1="123.45" y1="54.83" x2="123.83" y2="55.09"/><polyline class="cls-5" points="88.31 75.58 107.79 75.58 107.79 73.42 112.12 73.42 112.12 75.58 115.81 75.58 115.81 74.31 120.39 74.31 120.39 75.58 123.83 75.58 123.83 73.42 129.56 73.42 129.56 95.69 111.86 95.69 111.86 93.78 88.31 93.78 88.31 75.58"/><polyline class="cls-5" points="111.86 95.69 129.56 95.69 129.56 118.1 123.83 118.1 123.83 115.93 120.39 115.93 120.39 117.21 115.81 117.21 115.81 115.93 112.12 115.93 112.12 118.1 107.79 118.1 107.79 115.93 88.82 115.93 88.82 112.88 80.55 112.88 80.55 97.6 111.86 97.6 111.86 95.69"/><line class="cls-5" x1="112.12" y1="118.1" x2="123.83" y2="118.1"/><polyline class="cls-5" points="112.63 117.33 112.12 117.59 123.83 117.59"/><line class="cls-5" x1="112.88" y1="117.21" x2="113.39" y2="116.95"/><line class="cls-5" x1="113.65" y1="116.82" x2="114.15" y2="116.57"/><line class="cls-5" x1="114.54" y1="116.44" x2="115.05" y2="116.19"/><line class="cls-5" x1="115.3" y1="116.06" x2="115.81" y2="115.93"/><line class="cls-5" x1="112.12" y1="115.93" x2="112.63" y2="116.06"/><line class="cls-5" x1="112.88" y1="116.19" x2="113.39" y2="116.44"/><line class="cls-5" x1="113.65" y1="116.57" x2="114.15" y2="116.82"/><line class="cls-5" x1="114.54" y1="116.95" x2="115.05" y2="117.21"/><line class="cls-5" x1="115.3" y1="117.33" x2="115.81" y2="117.59"/><line class="cls-5" x1="120.39" y1="117.59" x2="120.77" y2="117.46"/><line class="cls-5" x1="121.03" y1="117.21" x2="121.54" y2="116.95"/><line class="cls-5" x1="121.79" y1="116.82" x2="122.43" y2="116.57"/><line class="cls-5" x1="122.68" y1="116.44" x2="123.19" y2="116.19"/><line class="cls-5" x1="123.45" y1="116.06" x2="123.83" y2="115.93"/><line class="cls-5" x1="120.39" y1="115.93" x2="120.77" y2="116.06"/><line class="cls-5" x1="121.03" y1="116.19" x2="121.54" y2="116.44"/><line class="cls-5" x1="121.79" y1="116.57" x2="122.43" y2="116.82"/><line class="cls-5" x1="122.68" y1="116.95" x2="123.19" y2="117.21"/><line class="cls-5" x1="123.45" y1="117.46" x2="123.83" y2="117.59"/><line class="cls-5" x1="112.12" y1="73.42" x2="123.83" y2="73.42"/><polyline class="cls-5" points="112.63 74.18 112.12 73.93 123.83 73.93"/><line class="cls-5" x1="112.88" y1="74.31" x2="113.39" y2="74.56"/><line class="cls-5" x1="113.65" y1="74.69" x2="114.15" y2="74.94"/><line class="cls-5" x1="114.54" y1="75.07" x2="115.05" y2="75.33"/><line class="cls-5" x1="115.3" y1="75.45" x2="115.81" y2="75.58"/><line class="cls-5" x1="112.12" y1="75.58" x2="112.63" y2="75.45"/><line class="cls-5" x1="112.88" y1="75.33" x2="113.39" y2="75.07"/><line class="cls-5" x1="113.65" y1="74.94" x2="114.15" y2="74.69"/><line class="cls-5" x1="114.54" y1="74.56" x2="115.05" y2="74.31"/><line class="cls-5" x1="115.3" y1="74.18" x2="115.81" y2="73.93"/><line class="cls-5" x1="120.39" y1="73.93" x2="120.77" y2="74.05"/><line class="cls-5" x1="121.03" y1="74.31" x2="121.54" y2="74.56"/><line class="cls-5" x1="121.79" y1="74.69" x2="122.43" y2="74.94"/><line class="cls-5" x1="122.68" y1="75.07" x2="123.19" y2="75.33"/><line class="cls-5" x1="123.45" y1="75.45" x2="123.83" y2="75.58"/><line class="cls-5" x1="120.39" y1="75.58" x2="120.77" y2="75.45"/><line class="cls-5" x1="121.03" y1="75.33" x2="121.54" y2="75.07"/><line class="cls-5" x1="121.79" y1="74.94" x2="122.43" y2="74.69"/><line class="cls-5" x1="122.68" y1="74.56" x2="123.19" y2="74.31"/><line class="cls-5" x1="123.45" y1="74.05" x2="123.83" y2="73.93"/></g></g></svg>