<svg id="Capa_1" data-name="Capa 1" xmlns="http://www.w3.org/2000/svg" xmlns:xlink="http://www.w3.org/1999/xlink" viewBox="0 0 168.71 120.52"><defs><style>.cls-1,.cls-11,.cls-5,.cls-8,.cls-9{fill:none;}.cls-2{clip-path:url(#clip-path);}.cls-3{clip-path:url(#clip-path-3);}.cls-4{clip-path:url(#clip-path-4);}.cls-5{stroke:#a28d5a;stroke-width:0.26px;}.cls-11,.cls-5,.cls-9{stroke-linecap:round;}.cls-11,.cls-5,.cls-8,.cls-9{stroke-miterlimit:10;}.cls-6{clip-path:url(#clip-path-5);}.cls-7{fill:#ebebeb;}.cls-8{stroke:#ebebeb;}.cls-11,.cls-8{stroke-width:0;}.cls-11,.cls-9{stroke:#63666b;}.cls-9{stroke-width:0.25px;}.cls-10{fill:#63666b;}.cls-12{clip-path:url(#clip-path-7);}</style><clipPath id="clip-path"><rect class="cls-1" x="-1403.58" y="-530.54" width="1190.55" height="841.89"/></clipPath><clipPath id="clip-path-3"><rect class="cls-1" x="-482.32" y="-9.61" width="198.43" height="250.87"/></clipPath><clipPath id="clip-path-4"><polygon class="cls-1" points="-281.8 -277.05 -281.8 -258.83 -313.35 -258.83 -313.35 -25.06 -102.15 -23.21 -102.15 -0.38 155.91 -0.38 155.91 -36.02 218.61 -36.02 218.61 -96.34 158.68 -96.34 158.68 -277.05 -281.8 -277.05"/></clipPath><clipPath id="clip-path-5"><rect class="cls-1" x="-71.3" y="-530.54" width="1190.55" height="841.89"/></clipPath><clipPath id="clip-path-7"><rect class="cls-1" x="-0.32" width="168.43" height="120.3"/></clipPath></defs><title>W207S</title><g class="cls-2"><g class="cls-2"><g class="cls-3"><g class="cls-4"><path class="cls-5" d="M32.23,18.43a.61.61,0,0,0,.26.5.59.59,0,0,0,.56.05"/><path class="cls-5" d="M44.34,19a.59.59,0,0,0,.56-.05.61.61,0,0,0,.26-.5"/><path class="cls-5" d="M10.32,18.43a.61.61,0,0,0,.26.5.59.59,0,0,0,.56.05"/><path class="cls-5" d="M22.56,19a.59.59,0,0,0,.56-.05.61.61,0,0,0,.26-.5"/><path class="cls-5" d="M.78,19a.59.59,0,0,0,.56-.05.61.61,0,0,0,.26-.5"/></g></g></g></g><g class="cls-6"><g class="cls-6"><path class="cls-7" d="M123.51,73.29l5.73,2.17h-5.73Zm5.73,0h-5.73l5.73,2.17Z"/><path class="cls-8" d="M123.51,73.29l5.73,2.17h-5.73Zm5.73,0h-5.73l5.73,2.17Z"/><path class="cls-7" d="M115.49,74.18l4.59,1.28h-4.59Zm4.59,0h-4.59l4.59,1.28Z"/><path class="cls-8" d="M115.49,74.18l4.59,1.28h-4.59Zm4.59,0h-4.59l4.59,1.28Z"/><path class="cls-7" d="M107.47,73.29l4.33,2.17h-4.33Zm4.33,0h-4.33l4.33,2.17Z"/><path class="cls-8" d="M107.47,73.29l4.33,2.17h-4.33Zm4.33,0h-4.33l4.33,2.17Z"/><path class="cls-7" d="M88,75.46l41.24,18.2H88Zm41.24,0H88l41.24,18.2Z"/><path class="cls-8" d="M88,75.46l41.24,18.2H88Zm41.24,0H88l41.24,18.2Z"/><path class="cls-7" d="M111.55,93.66l17.69,1.91H111.55Zm17.69,0H111.55l17.69,1.91Z"/><path class="cls-8" d="M111.55,93.66l17.69,1.91H111.55Zm17.69,0H111.55l17.69,1.91Z"/><polyline class="cls-9" points="80.23 16.01 70.69 16.01 70.69 12.95 37.21 12.95 37.21 11.68 32.62 11.68 32.62 12.95 28.68 12.95 28.68 26.45 22.31 26.45 22.31 47.2 23.46 47.2 23.46 49.49 42.93 49.49 42.93 43.89 43.06 43.89 43.06 31.16 80.23 31.16 80.23 16.01"/><polyline class="cls-9" points="42.93 43.89 57.45 43.89 57.45 53.81 59.61 53.81 59.61 63.36 57.45 63.36 57.45 71.13 59.61 71.13 59.61 76.22 57.45 76.22 57.45 84.88 47.39 84.88 47.39 89.58 42.93 89.58 42.93 79.27 24.86 79.27 24.86 52.16 23.46 52.16 23.46 49.49 42.93 49.49 42.93 43.89"/><polyline class="cls-9" points="80.23 112.75 70.69 112.75 70.69 115.81 37.21 115.81 37.21 117.08 32.62 117.08 32.62 115.81 28.68 115.81 28.68 102.19 22.31 102.19 22.31 81.44 23.46 81.44 23.46 79.27 42.93 79.27 42.93 84.88 43.06 84.88 43.06 97.48 80.23 97.48 80.23 112.75"/><polyline class="cls-9" points="88 35.61 77.94 35.61 77.94 44.4 66.74 44.4 66.74 35.61 60.12 35.61 60.12 44.4 57.45 44.4"/><line class="cls-9" x1="60.12" y1="43.89" x2="66.74" y2="43.89"/><line class="cls-9" x1="66.74" y1="44.4" x2="60.12" y2="44.4"/><line class="cls-9" x1="77.94" y1="44.4" x2="88" y2="44.4"/><line class="cls-9" x1="88" y1="43.89" x2="77.94" y2="43.89"/><line class="cls-9" x1="59.61" y1="44.4" x2="59.61" y2="84.24"/><line class="cls-9" x1="60.12" y1="84.24" x2="60.12" y2="44.4"/><polyline class="cls-9" points="88 93.02 77.94 93.02 77.94 84.24 66.74 84.24 66.74 93.02 60.12 93.02 60.12 84.24 57.45 84.24"/><line class="cls-9" x1="60.12" y1="84.87" x2="66.74" y2="84.87"/><line class="cls-9" x1="66.74" y1="84.24" x2="60.12" y2="84.24"/><line class="cls-9" x1="77.94" y1="84.24" x2="88" y2="84.24"/><line class="cls-9" x1="88" y1="84.87" x2="77.94" y2="84.87"/><line class="cls-9" x1="60.12" y1="35.61" x2="60.5" y2="36.12"/><line class="cls-9" x1="60.76" y1="36.38" x2="61.14" y2="36.88"/><line class="cls-9" x1="61.26" y1="37.01" x2="61.65" y2="37.52"/><line class="cls-9" x1="61.77" y1="37.78" x2="62.16" y2="38.28"/><line class="cls-9" x1="62.41" y1="38.54" x2="62.79" y2="38.92"/><line class="cls-9" x1="62.92" y1="39.18" x2="63.3" y2="39.68"/><line class="cls-9" x1="63.56" y1="39.94" x2="63.94" y2="40.32"/><line class="cls-9" x1="64.07" y1="40.58" x2="64.45" y2="41.09"/><line class="cls-9" x1="64.7" y1="41.34" x2="64.96" y2="41.72"/><line class="cls-9" x1="65.21" y1="41.98" x2="65.59" y2="42.49"/><line class="cls-9" x1="65.72" y1="42.74" x2="66.1" y2="43.12"/><line class="cls-9" x1="66.36" y1="43.38" x2="66.74" y2="43.89"/><line class="cls-9" x1="60.12" y1="43.89" x2="60.5" y2="43.38"/><line class="cls-9" x1="60.76" y1="43.12" x2="61.14" y2="42.74"/><line class="cls-9" x1="61.26" y1="42.49" x2="61.65" y2="41.98"/><line class="cls-9" x1="61.77" y1="41.72" x2="62.16" y2="41.34"/><line class="cls-9" x1="62.41" y1="41.09" x2="62.79" y2="40.58"/><line class="cls-9" x1="62.92" y1="40.32" x2="63.3" y2="39.94"/><line class="cls-9" x1="63.56" y1="39.68" x2="63.94" y2="39.18"/><line class="cls-9" x1="64.07" y1="38.92" x2="64.45" y2="38.54"/><line class="cls-9" x1="64.7" y1="38.28" x2="64.96" y2="37.78"/><line class="cls-9" x1="65.21" y1="37.52" x2="65.59" y2="37.01"/><line class="cls-9" x1="65.72" y1="36.88" x2="66.1" y2="36.38"/><line class="cls-9" x1="66.36" y1="36.12" x2="66.74" y2="35.61"/><line class="cls-9" x1="77.94" y1="35.61" x2="78.32" y2="35.99"/><line class="cls-9" x1="78.58" y1="36.12" x2="79.09" y2="36.5"/><line class="cls-9" x1="79.21" y1="36.76" x2="79.72" y2="37.14"/><line class="cls-9" x1="79.98" y1="37.27" x2="80.49" y2="37.65"/><line class="cls-9" x1="80.61" y1="37.9" x2="81.12" y2="38.29"/><line class="cls-9" x1="81.38" y1="38.41" x2="81.89" y2="38.79"/><line class="cls-9" x1="82.01" y1="39.05" x2="82.52" y2="39.43"/><line class="cls-9" x1="82.78" y1="39.56" x2="83.29" y2="39.94"/><line class="cls-9" x1="83.41" y1="40.19" x2="83.92" y2="40.58"/><line class="cls-9" x1="84.18" y1="40.7" x2="84.69" y2="41.09"/><line class="cls-9" x1="84.81" y1="41.34" x2="85.32" y2="41.72"/><line class="cls-9" x1="85.58" y1="41.85" x2="85.96" y2="42.23"/><line class="cls-9" x1="86.22" y1="42.49" x2="86.72" y2="42.87"/><line class="cls-9" x1="86.98" y1="42.99" x2="87.36" y2="43.38"/><line class="cls-9" x1="87.61" y1="43.63" x2="88" y2="43.89"/><line class="cls-9" x1="88" y1="35.61" x2="87.62" y2="35.99"/><line class="cls-9" x1="87.36" y1="36.12" x2="86.98" y2="36.5"/><line class="cls-9" x1="86.72" y1="36.76" x2="86.22" y2="37.14"/><line class="cls-9" x1="85.96" y1="37.27" x2="85.58" y2="37.65"/><line class="cls-9" x1="85.32" y1="37.9" x2="84.82" y2="38.29"/><line class="cls-9" x1="84.69" y1="38.41" x2="84.18" y2="38.79"/><line class="cls-9" x1="83.92" y1="39.05" x2="83.41" y2="39.43"/><line class="cls-9" x1="83.29" y1="39.56" x2="82.78" y2="39.94"/><line class="cls-9" x1="82.52" y1="40.19" x2="82.02" y2="40.58"/><line class="cls-9" x1="81.89" y1="40.7" x2="81.38" y2="41.09"/><line class="cls-9" x1="81.12" y1="41.34" x2="80.61" y2="41.72"/><line class="cls-9" x1="80.49" y1="41.85" x2="79.98" y2="42.23"/><line class="cls-9" x1="79.72" y1="42.49" x2="79.21" y2="42.87"/><line class="cls-9" x1="79.09" y1="42.99" x2="78.58" y2="43.38"/><line class="cls-9" x1="78.32" y1="43.63" x2="77.94" y2="43.89"/><line class="cls-9" x1="57.45" y1="53.82" x2="59.61" y2="44.4"/><line class="cls-9" x1="57.45" y1="44.4" x2="59.61" y2="53.82"/><line class="cls-9" x1="57.45" y1="63.36" x2="57.7" y2="64.13"/><line class="cls-9" x1="57.83" y1="64.38" x2="57.95" y2="65.02"/><line class="cls-9" x1="57.96" y1="65.27" x2="58.21" y2="65.78"/><line class="cls-9" x1="58.21" y1="66.16" x2="58.34" y2="66.67"/><line class="cls-9" x1="58.46" y1="67.05" x2="58.59" y2="67.56"/><line class="cls-9" x1="58.72" y1="67.82" x2="58.85" y2="68.46"/><line class="cls-9" x1="58.97" y1="68.71" x2="59.1" y2="69.35"/><line class="cls-9" x1="59.23" y1="69.6" x2="59.36" y2="70.24"/><line class="cls-9" x1="59.36" y1="70.49" x2="59.61" y2="71.13"/><line class="cls-9" x1="57.45" y1="71.13" x2="57.7" y2="70.49"/><line class="cls-9" x1="57.83" y1="70.24" x2="57.95" y2="69.6"/><line class="cls-9" x1="57.96" y1="69.35" x2="58.21" y2="68.71"/><line class="cls-9" x1="58.21" y1="68.45" x2="58.34" y2="67.82"/><line class="cls-9" x1="58.46" y1="67.56" x2="58.59" y2="67.05"/><line class="cls-9" x1="58.72" y1="66.67" x2="58.85" y2="66.16"/><line class="cls-9" x1="58.97" y1="65.78" x2="59.1" y2="65.27"/><line class="cls-9" x1="59.23" y1="65.02" x2="59.36" y2="64.38"/><line class="cls-9" x1="59.36" y1="64.13" x2="59.61" y2="63.36"/><line class="cls-9" x1="60.12" y1="93.02" x2="60.5" y2="92.64"/><line class="cls-9" x1="60.76" y1="92.39" x2="61.14" y2="91.88"/><line class="cls-9" x1="61.26" y1="91.62" x2="61.65" y2="91.24"/><line class="cls-9" x1="61.77" y1="90.98" x2="62.16" y2="90.48"/><line class="cls-9" x1="62.41" y1="90.22" x2="62.79" y2="89.71"/><line class="cls-9" x1="62.92" y1="89.59" x2="63.3" y2="89.08"/><line class="cls-9" x1="63.56" y1="88.82" x2="63.94" y2="88.31"/><line class="cls-9" x1="64.07" y1="88.18" x2="64.45" y2="87.68"/><line class="cls-9" x1="64.7" y1="87.42" x2="64.96" y2="86.91"/><line class="cls-9" x1="65.21" y1="86.66" x2="65.59" y2="86.28"/><line class="cls-9" x1="65.72" y1="86.02" x2="66.1" y2="85.51"/><line class="cls-9" x1="66.36" y1="85.26" x2="66.74" y2="84.88"/><line class="cls-9" x1="60.12" y1="84.87" x2="60.5" y2="85.26"/><line class="cls-9" x1="60.76" y1="85.51" x2="61.14" y2="86.02"/><line class="cls-9" x1="61.26" y1="86.28" x2="61.65" y2="86.66"/><line class="cls-9" x1="61.77" y1="86.91" x2="62.16" y2="87.42"/><line class="cls-9" x1="62.41" y1="87.67" x2="62.79" y2="88.18"/><line class="cls-9" x1="62.92" y1="88.31" x2="63.3" y2="88.82"/><line class="cls-9" x1="63.56" y1="89.08" x2="63.94" y2="89.58"/><line class="cls-9" x1="64.07" y1="89.71" x2="64.45" y2="90.22"/><line class="cls-9" x1="64.7" y1="90.48" x2="64.96" y2="90.98"/><line class="cls-9" x1="65.21" y1="91.24" x2="65.59" y2="91.62"/><line class="cls-9" x1="65.72" y1="91.88" x2="66.1" y2="92.38"/><line class="cls-9" x1="66.36" y1="92.64" x2="66.74" y2="93.02"/><line class="cls-9" x1="77.94" y1="93.02" x2="78.32" y2="92.77"/><line class="cls-9" x1="78.58" y1="92.51" x2="79.09" y2="92.13"/><line class="cls-9" x1="79.21" y1="92" x2="79.72" y2="91.62"/><line class="cls-9" x1="79.98" y1="91.37" x2="80.49" y2="90.99"/><line class="cls-9" x1="80.61" y1="90.86" x2="81.12" y2="90.48"/><line class="cls-9" x1="81.38" y1="90.22" x2="81.89" y2="89.84"/><line class="cls-9" x1="82.01" y1="89.71" x2="82.52" y2="89.33"/><line class="cls-9" x1="82.78" y1="89.08" x2="83.29" y2="88.69"/><line class="cls-9" x1="83.41" y1="88.57" x2="83.92" y2="88.19"/><line class="cls-9" x1="84.18" y1="87.93" x2="84.69" y2="87.67"/><line class="cls-9" x1="84.81" y1="87.42" x2="85.32" y2="87.04"/><line class="cls-9" x1="85.58" y1="86.91" x2="85.96" y2="86.53"/><line class="cls-9" x1="86.22" y1="86.28" x2="86.72" y2="85.89"/><line class="cls-9" x1="86.98" y1="85.77" x2="87.36" y2="85.38"/><line class="cls-9" x1="87.61" y1="85.13" x2="88" y2="84.87"/><line class="cls-9" x1="77.94" y1="84.87" x2="78.32" y2="85.13"/><line class="cls-9" x1="78.58" y1="85.38" x2="79.09" y2="85.77"/><line class="cls-9" x1="79.21" y1="85.89" x2="79.72" y2="86.28"/><line class="cls-9" x1="79.98" y1="86.53" x2="80.49" y2="86.91"/><line class="cls-9" x1="80.61" y1="87.04" x2="81.12" y2="87.42"/><line class="cls-9" x1="81.38" y1="87.67" x2="81.89" y2="87.93"/><line class="cls-9" x1="82.01" y1="88.18" x2="82.52" y2="88.57"/><line class="cls-9" x1="82.78" y1="88.69" x2="83.29" y2="89.08"/><line class="cls-9" x1="83.41" y1="89.33" x2="83.92" y2="89.71"/><line class="cls-9" x1="84.18" y1="89.84" x2="84.69" y2="90.22"/><line class="cls-9" x1="84.81" y1="90.48" x2="85.32" y2="90.86"/><line class="cls-9" x1="85.58" y1="90.98" x2="85.96" y2="91.37"/><line class="cls-9" x1="86.22" y1="91.62" x2="86.72" y2="92"/><line class="cls-9" x1="86.98" y1="92.13" x2="87.36" y2="92.51"/><line class="cls-9" x1="87.61" y1="92.77" x2="88" y2="93.02"/><line class="cls-9" x1="57.45" y1="84.24" x2="57.57" y2="83.86"/><line class="cls-9" x1="57.7" y1="83.6" x2="57.83" y2="82.97"/><line class="cls-9" x1="57.96" y1="82.71" x2="58.08" y2="82.07"/><line class="cls-9" x1="58.08" y1="81.82" x2="58.34" y2="81.31"/><line class="cls-9" x1="58.34" y1="80.93" x2="58.46" y2="80.42"/><line class="cls-9" x1="58.59" y1="80.04" x2="58.72" y2="79.53"/><line class="cls-9" x1="58.85" y1="79.27" x2="58.97" y2="78.64"/><line class="cls-9" x1="59.1" y1="78.38" x2="59.23" y2="77.75"/><line class="cls-9" x1="59.23" y1="77.49" x2="59.36" y2="76.86"/><line class="cls-9" x1="59.48" y1="76.6" x2="59.61" y2="76.22"/><line class="cls-9" x1="57.45" y1="76.22" x2="57.57" y2="76.6"/><line class="cls-9" x1="57.7" y1="76.86" x2="57.83" y2="77.49"/><line class="cls-9" x1="57.96" y1="77.75" x2="58.08" y2="78.38"/><line class="cls-9" x1="58.08" y1="78.64" x2="58.34" y2="79.27"/><line class="cls-9" x1="58.34" y1="79.53" x2="58.46" y2="80.04"/><line class="cls-9" x1="58.59" y1="80.42" x2="58.72" y2="80.93"/><line class="cls-9" x1="58.85" y1="81.31" x2="58.97" y2="81.82"/><line class="cls-9" x1="59.1" y1="82.07" x2="59.23" y2="82.71"/><line class="cls-9" x1="59.23" y1="82.97" x2="59.36" y2="83.6"/><line class="cls-9" x1="59.48" y1="83.86" x2="59.61" y2="84.24"/><path class="cls-10" d="M43.65,25.3v-3h2.17v.36H44.05v.92h1.66v.35H44.05v1h1.84v.35Z"/><path class="cls-10" d="M48.85,25.3h-.37V23a1.76,1.76,0,0,1-.35.25,1.73,1.73,0,0,1-.39.19V23a2.12,2.12,0,0,0,.54-.36,1.17,1.17,0,0,0,.33-.4h.24Z"/><path class="cls-10" d="M49.8,23.82a2.57,2.57,0,0,1,.11-.86,1.06,1.06,0,0,1,.32-.5.85.85,0,0,1,.55-.18.82.82,0,0,1,.42.1.8.8,0,0,1,.3.28,1.56,1.56,0,0,1,.19.45,3.18,3.18,0,0,1,.07.71,2.78,2.78,0,0,1-.11.85,1,1,0,0,1-.33.5.8.8,0,0,1-.54.18.84.84,0,0,1-.69-.31A2,2,0,0,1,49.8,23.82Zm.38,0a1.82,1.82,0,0,0,.17,1,.5.5,0,0,0,.43.25.48.48,0,0,0,.42-.25,1.8,1.8,0,0,0,.18-1,1.82,1.82,0,0,0-.18-1,.51.51,0,0,0-.43-.24.46.46,0,0,0-.4.21A1.9,1.9,0,0,0,50.18,23.82Z"/><path class="cls-10" d="M52.13,24.51l.37-.05a.86.86,0,0,0,.22.45.55.55,0,0,0,.37.14.59.59,0,0,0,.44-.18.61.61,0,0,0,.18-.45.54.54,0,0,0-.17-.42.57.57,0,0,0-.42-.16,1,1,0,0,0-.26,0l0-.33H53a.73.73,0,0,0,.43-.13.42.42,0,0,0,.19-.38.45.45,0,0,0-.14-.33.48.48,0,0,0-.36-.13.52.52,0,0,0-.36.13.74.74,0,0,0-.18.41l-.37-.07a.94.94,0,0,1,.31-.57.87.87,0,0,1,.59-.21,1,1,0,0,1,.46.11.72.72,0,0,1,.42.67.65.65,0,0,1-.1.36.72.72,0,0,1-.31.25.65.65,0,0,1,.41.26.76.76,0,0,1,.15.48.89.89,0,0,1-.28.67,1,1,0,0,1-.73.27,1,1,0,0,1-.66-.23A1,1,0,0,1,52.13,24.51Z"/><path class="cls-10" d="M54.29,25.35l.87-3.11h.3l-.87,3.11Z"/><path class="cls-10" d="M57.57,25v.35h-2a.59.59,0,0,1,0-.26,1.57,1.57,0,0,1,.24-.4,4.65,4.65,0,0,1,.49-.45,4.54,4.54,0,0,0,.66-.64.76.76,0,0,0,.17-.44.47.47,0,0,0-.16-.37.56.56,0,0,0-.41-.15.55.55,0,0,0-.58.6l-.38,0a.88.88,0,0,1,.29-.64,1,1,0,0,1,.68-.23,1,1,0,0,1,.69.24.79.79,0,0,1,.25.6.84.84,0,0,1-.07.35,1.27,1.27,0,0,1-.25.37,5.48,5.48,0,0,1-.57.53,3.88,3.88,0,0,0-.42.38.74.74,0,0,0-.16.2Z"/><path class="cls-10" d="M58,23.82a2.85,2.85,0,0,1,.11-.86,1,1,0,0,1,.33-.5.8.8,0,0,1,.54-.18.88.88,0,0,1,.43.1.8.8,0,0,1,.3.28,1.32,1.32,0,0,1,.18.45,2.68,2.68,0,0,1,.07.71,2.5,2.5,0,0,1-.11.85,1,1,0,0,1-.32.5.85.85,0,0,1-.55.18.81.81,0,0,1-.68-.31A2,2,0,0,1,58,23.82Zm.38,0a1.93,1.93,0,0,0,.17,1,.49.49,0,0,0,.86,0,1.93,1.93,0,0,0,.17-1,2,2,0,0,0-.17-1,.52.52,0,0,0-.43-.24.48.48,0,0,0-.41.21A1.9,1.9,0,0,0,58.35,23.82Z"/><path class="cls-10" d="M60.31,24.51l.37-.05a.79.79,0,0,0,.21.45.57.57,0,0,0,.38.14.6.6,0,0,0,.44-.18.61.61,0,0,0,.18-.45.57.57,0,0,0-.17-.42.57.57,0,0,0-.42-.16.92.92,0,0,0-.26,0l0-.33h.06a.7.7,0,0,0,.42-.13.4.4,0,0,0,.19-.38.45.45,0,0,0-.14-.33.48.48,0,0,0-.35-.13.48.48,0,0,0-.36.13.69.69,0,0,0-.19.41l-.36-.07a.87.87,0,0,1,.9-.78,1,1,0,0,1,.45.11.7.7,0,0,1,.32.29.76.76,0,0,1,.11.38.75.75,0,0,1-.1.36.78.78,0,0,1-.31.25.71.71,0,0,1,.41.26.76.76,0,0,1,.15.48.9.9,0,0,1-.29.67,1,1,0,0,1-.73.27.91.91,0,0,1-.65-.23A.87.87,0,0,1,60.31,24.51Z"/><path class="cls-10" d="M155.72,13.21l-1.91-12.1h.38Zm-.26.12.26-.12-1.91-12.1Z"/><path class="cls-11" d="M155.72,13.21l-1.91-12.1h.38Zm-.26.12.26-.12-1.91-12.1Z"/><line class="cls-9" x1="156.99" y1="24.16" x2="155.59" y2="13.21"/><path class="cls-10" d="M156.48,13.21l-1.27-7h.38Zm-.38,0h.38l-1.27-7Z"/><path class="cls-11" d="M156.48,13.21l-1.27-7h.38Zm-.38,0h.38l-1.27-7Z"/><path class="cls-10" d="M155.08,13.33l-1.27-6.87h.38Zm-.38,0h.38l-1.27-6.87Z"/><path class="cls-11" d="M155.08,13.33l-1.27-6.87h.38Zm-.38,0h.38l-1.27-6.87Z"/><line class="cls-9" x1="156.74" y1="24.28" x2="156.48" y2="22.88"/><line class="cls-9" x1="147.32" y1="14.74" x2="145.53" y2="14.99"/><line class="cls-9" x1="165.78" y1="12.32" x2="163.86" y2="12.57"/><line class="cls-9" x1="165.78" y1="11.93" x2="145.41" y2="14.61"/><g class="cls-12"><path class="cls-9" d="M163,12.15a7.57,7.57,0,1,0-6.52,8.5,7.57,7.57,0,0,0,6.52-8.5"/><path class="cls-9" d="M162.53,12.22a7.07,7.07,0,1,0-6.08,7.93,7.06,7.06,0,0,0,6.08-7.93"/></g><path class="cls-10" d="M97.5,46.3v-3h2.17v.35H97.89v.92h1.67v.36H97.89v1h1.85v.35Z"/><path class="cls-10" d="M102.7,46.3h-.37V44a2.12,2.12,0,0,1-.35.26,3.38,3.38,0,0,1-.39.19V44a2.1,2.1,0,0,0,.54-.35,1.62,1.62,0,0,0,.33-.4h.24Z"/><path class="cls-10" d="M103.64,44.82a2.9,2.9,0,0,1,.11-.86,1,1,0,0,1,.33-.5.8.8,0,0,1,.54-.17,1,1,0,0,1,.43.09.89.89,0,0,1,.3.28,1.51,1.51,0,0,1,.18.45,2.73,2.73,0,0,1,.07.71,2.6,2.6,0,0,1-.11.86,1.11,1.11,0,0,1-.32.5.9.9,0,0,1-1.23-.14A2,2,0,0,1,103.64,44.82Zm.38,0a1.85,1.85,0,0,0,.18,1,.49.49,0,0,0,.42.24.52.52,0,0,0,.43-.24,1.89,1.89,0,0,0,.17-1,1.82,1.82,0,0,0-.17-1,.51.51,0,0,0-.43-.25.47.47,0,0,0-.41.22A1.86,1.86,0,0,0,104,44.82Z"/><path class="cls-10" d="M107.37,46.3H107V44a2.12,2.12,0,0,1-.35.26,2.3,2.3,0,0,1-.39.19V44a2.1,2.1,0,0,0,.54-.35,1.27,1.27,0,0,0,.33-.4h.24Z"/><path class="cls-10" d="M108.14,46.36l.87-3.11h.3l-.87,3.11Z"/><path class="cls-10" d="M111.42,46v.35h-2a.74.74,0,0,1,0-.25,1.29,1.29,0,0,1,.24-.4,4.39,4.39,0,0,1,.48-.46,4.11,4.11,0,0,0,.66-.63.77.77,0,0,0,.18-.45.49.49,0,0,0-.16-.37.56.56,0,0,0-.41-.15.57.57,0,0,0-.43.16.64.64,0,0,0-.16.44l-.38,0a1,1,0,0,1,.3-.65,1,1,0,0,1,.68-.22.92.92,0,0,1,.68.24.77.77,0,0,1,.26.59.94.94,0,0,1-.08.36,1.6,1.6,0,0,1-.24.36,6.7,6.7,0,0,1-.57.53l-.43.38a1.3,1.3,0,0,0-.15.2Z"/><path class="cls-10" d="M111.82,44.82a2.6,2.6,0,0,1,.11-.86,1.11,1.11,0,0,1,.32-.5.84.84,0,0,1,.55-.17.93.93,0,0,1,.42.09.89.89,0,0,1,.3.28,1.85,1.85,0,0,1,.19.45,3.25,3.25,0,0,1,.07.71,2.9,2.9,0,0,1-.11.86,1,1,0,0,1-.33.5.8.8,0,0,1-.54.18.85.85,0,0,1-.69-.32A2,2,0,0,1,111.82,44.82Zm.38,0a1.87,1.87,0,0,0,.17,1,.52.52,0,0,0,.43.24.49.49,0,0,0,.42-.24,1.87,1.87,0,0,0,.18-1,1.8,1.8,0,0,0-.18-1,.49.49,0,0,0-.43-.25.45.45,0,0,0-.4.22A1.86,1.86,0,0,0,112.2,44.82Z"/><path class="cls-10" d="M115.54,46.3h-.37V44a1.51,1.51,0,0,1-.35.26,2.68,2.68,0,0,1-.38.19V44a2.5,2.5,0,0,0,.54-.35,1.62,1.62,0,0,0,.33-.4h.23Z"/><path class="cls-10" d="M97.63,85.51l-.8-3h.41l.46,2c0,.21.09.41.12.62.08-.32.13-.51.14-.56l.57-2H99L99.44,84a8.41,8.41,0,0,1,.24,1.07q.06-.28.15-.66l.47-1.93h.4l-.83,3h-.38l-.63-2.29c-.06-.19-.09-.31-.1-.35,0,.13-.06.25-.09.35L98,85.51Z"/><path class="cls-10" d="M103.48,85.51h-.37V83.16a2.12,2.12,0,0,1-.35.25,2,2,0,0,1-.39.19v-.36a1.86,1.86,0,0,0,.54-.35,1.27,1.27,0,0,0,.33-.4h.24Z"/><path class="cls-10" d="M104.42,84a2.81,2.81,0,0,1,.11-.86,1,1,0,0,1,.33-.5.8.8,0,0,1,.54-.18.85.85,0,0,1,.43.1.8.8,0,0,1,.3.28,1.56,1.56,0,0,1,.19.45,3.28,3.28,0,0,1,.06.71,2.87,2.87,0,0,1-.1.85,1.15,1.15,0,0,1-.33.5.83.83,0,0,1-.55.18.82.82,0,0,1-.68-.31A2,2,0,0,1,104.42,84Zm.38,0a1.8,1.8,0,0,0,.18,1,.5.5,0,0,0,.42.25.52.52,0,0,0,.43-.25,1.82,1.82,0,0,0,.17-1,1.84,1.84,0,0,0-.17-1,.51.51,0,0,0-.43-.24A.48.48,0,0,0,105,83,2,2,0,0,0,104.8,84Z"/><path class="cls-10" d="M106.78,82.9v-.36h2v.29a4,4,0,0,0-.57.81,5.49,5.49,0,0,0-.44,1,4.1,4.1,0,0,0-.14.83h-.38a4,4,0,0,1,.14-.86,4.48,4.48,0,0,1,.39-1,3.66,3.66,0,0,1,.53-.78Z"/><path class="cls-10" d="M108.92,85.56l.87-3.11h.3l-.87,3.11Z"/><path class="cls-10" d="M112.2,85.15v.36h-2a.75.75,0,0,1,.05-.26,1.42,1.42,0,0,1,.24-.4,3.64,3.64,0,0,1,.48-.45,4.23,4.23,0,0,0,.67-.64.79.79,0,0,0,.17-.44.47.47,0,0,0-.16-.37.56.56,0,0,0-.41-.15.54.54,0,0,0-.42.16.57.57,0,0,0-.17.44l-.38,0a1,1,0,0,1,1.67-.63.82.82,0,0,1,.25.59.9.9,0,0,1-.08.36,1.45,1.45,0,0,1-.24.37c-.12.12-.31.3-.57.53l-.43.37a2.08,2.08,0,0,0-.15.2Z"/><path class="cls-10" d="M112.6,84a2.53,2.53,0,0,1,.11-.86,1,1,0,0,1,.32-.5.85.85,0,0,1,.55-.18.82.82,0,0,1,.42.1.8.8,0,0,1,.3.28,1.33,1.33,0,0,1,.19.45,2.68,2.68,0,0,1,.07.71,2.83,2.83,0,0,1-.11.85,1,1,0,0,1-.33.5.9.9,0,0,1-1.22-.13A2,2,0,0,1,112.6,84Zm.38,0a1.82,1.82,0,0,0,.17,1,.49.49,0,0,0,.86,0,1.93,1.93,0,0,0,.17-1,2,2,0,0,0-.17-1,.53.53,0,0,0-.44-.24.46.46,0,0,0-.4.21A1.88,1.88,0,0,0,113,84Z"/><path class="cls-10" d="M115,82.9v-.36h1.94v.29a3.67,3.67,0,0,0-.56.81,4.91,4.91,0,0,0-.44,1,4.1,4.1,0,0,0-.14.83h-.38a3.46,3.46,0,0,1,.14-.86,4.44,4.44,0,0,1,.38-1,4.08,4.08,0,0,1,.53-.78Z"/><path class="cls-10" d="M31.56,66.16v-3h2.17v.35H32v.92h1.67v.36H32v1H33.8v.35Z"/><path class="cls-10" d="M36.76,66.16h-.37V63.81a2.12,2.12,0,0,1-.35.26l-.39.19V63.9a2.39,2.39,0,0,0,.54-.35,1.29,1.29,0,0,0,.33-.41h.24Z"/><path class="cls-10" d="M37.7,64.68a2.9,2.9,0,0,1,.11-.86,1.13,1.13,0,0,1,.33-.5.8.8,0,0,1,.54-.18,1,1,0,0,1,.43.1.89.89,0,0,1,.3.28,1.56,1.56,0,0,1,.19.45,3.35,3.35,0,0,1,.06.71,2.82,2.82,0,0,1-.1.85,1.19,1.19,0,0,1-.33.51A.93.93,0,0,1,38,65.9,2,2,0,0,1,37.7,64.68Zm.38,0a1.87,1.87,0,0,0,.18,1,.49.49,0,0,0,.42.24.51.51,0,0,0,.43-.24,3,3,0,0,0,0-2,.51.51,0,0,0-.43-.24.47.47,0,0,0-.41.22A2,2,0,0,0,38.08,64.68Z"/><path class="cls-10" d="M41.22,66.16v-.72h-1.3V65.1l1.37-1.94h.3V65.1H42v.34h-.41v.72Zm0-1.06V63.75l-.94,1.35Z"/><path class="cls-10" d="M42.2,66.21l.87-3.1h.3l-.87,3.1Z"/><path class="cls-10" d="M45.48,65.81v.35h-2a.7.7,0,0,1,0-.25,1.29,1.29,0,0,1,.24-.4,3.62,3.62,0,0,1,.48-.46,4.82,4.82,0,0,0,.67-.63A.82.82,0,0,0,45.1,64a.47.47,0,0,0-.16-.37.56.56,0,0,0-.41-.15.55.55,0,0,0-.42.16.63.63,0,0,0-.17.44l-.38,0a.93.93,0,0,1,.3-.64,1,1,0,0,1,.68-.23,1,1,0,0,1,.69.24.82.82,0,0,1,.25.6.85.85,0,0,1-.08.35,1.22,1.22,0,0,1-.24.37,5.43,5.43,0,0,1-.57.53l-.43.38a1,1,0,0,0-.15.2Z"/><path class="cls-10" d="M45.88,64.68a2.6,2.6,0,0,1,.11-.86,1.11,1.11,0,0,1,.32-.5.85.85,0,0,1,.55-.18.93.93,0,0,1,.42.1.89.89,0,0,1,.3.28,1.33,1.33,0,0,1,.19.45,2.73,2.73,0,0,1,.07.71,2.78,2.78,0,0,1-.11.85,1.09,1.09,0,0,1-.32.51.84.84,0,0,1-.55.17.81.81,0,0,1-.68-.31A2,2,0,0,1,45.88,64.68Zm.38,0a2,2,0,0,0,.17,1,.51.51,0,0,0,.86,0,3,3,0,0,0,0-2,.53.53,0,0,0-.44-.24.45.45,0,0,0-.4.22A1.86,1.86,0,0,0,46.26,64.68Z"/><path class="cls-10" d="M49.4,66.16v-.72H48.09V65.1l1.37-1.94h.31V65.1h.4v.34h-.4v.72Zm0-1.06V63.75l-.94,1.35Z"/><path class="cls-10" d="M44.17,106.51l-.8-3h.41l.45,2c.05.21.09.41.13.61.08-.32.12-.5.14-.55l.57-2h.48L46,105a8.16,8.16,0,0,1,.23,1.06c0-.19.09-.4.15-.65l.47-1.93h.4l-.82,3H46l-.64-2.29c0-.19-.08-.3-.09-.35a3.46,3.46,0,0,1-.09.35l-.64,2.29Z"/><path class="cls-10" d="M50,106.51h-.37v-2.35a1.51,1.51,0,0,1-.35.26,2.68,2.68,0,0,1-.38.19v-.36a2.5,2.5,0,0,0,.54-.35,1.62,1.62,0,0,0,.33-.4H50Z"/><path class="cls-10" d="M51,105a2.6,2.6,0,0,1,.11-.86,1.11,1.11,0,0,1,.32-.5.84.84,0,0,1,.55-.17.93.93,0,0,1,.42.09.74.74,0,0,1,.3.28,1.53,1.53,0,0,1,.19.45,2.73,2.73,0,0,1,.07.71,2.9,2.9,0,0,1-.11.86,1.11,1.11,0,0,1-.32.5.85.85,0,0,1-.55.18.81.81,0,0,1-.68-.32A2,2,0,0,1,51,105Zm.38,0a2,2,0,0,0,.17,1,.51.51,0,0,0,.86,0,2,2,0,0,0,.17-1,1.93,1.93,0,0,0-.17-1,.51.51,0,0,0-.44-.25.46.46,0,0,0-.4.22A1.86,1.86,0,0,0,51.34,105Z"/><path class="cls-10" d="M53.29,105.73l.39,0a.75.75,0,0,0,.2.43.57.57,0,0,0,.38.14.56.56,0,0,0,.45-.2.76.76,0,0,0,.19-.53.68.68,0,0,0-.18-.5.63.63,0,0,0-.47-.18.61.61,0,0,0-.32.08.56.56,0,0,0-.22.21l-.35,0,.29-1.54h1.5v.35H54l-.17.81a1,1,0,0,1,.57-.19.92.92,0,0,1,.67.27,1,1,0,0,1,.27.71,1.08,1.08,0,0,1-.24.7,1,1,0,0,1-.79.37,1,1,0,0,1-.67-.23A1,1,0,0,1,53.29,105.73Z"/><path class="cls-10" d="M55.46,106.57l.87-3.11h.29l-.87,3.11Z"/><path class="cls-10" d="M58.74,106.16v.35h-2a.73.73,0,0,1,0-.25,1.16,1.16,0,0,1,.25-.4,4.39,4.39,0,0,1,.48-.46,4.11,4.11,0,0,0,.66-.63.75.75,0,0,0,.17-.45.51.51,0,0,0-.15-.37.65.65,0,0,0-.84,0,.6.6,0,0,0-.16.44l-.38,0a.94.94,0,0,1,.29-.65,1,1,0,0,1,.69-.22,1,1,0,0,1,.68.24.76.76,0,0,1,.25.59.92.92,0,0,1-.07.36,1.39,1.39,0,0,1-.25.36,5.11,5.11,0,0,1-.56.53,4.5,4.5,0,0,0-.43.38,1.4,1.4,0,0,0-.16.2Z"/><path class="cls-10" d="M59.13,105a2.9,2.9,0,0,1,.11-.86,1.13,1.13,0,0,1,.33-.5.8.8,0,0,1,.54-.17.94.94,0,0,1,.43.09.89.89,0,0,1,.3.28,1.85,1.85,0,0,1,.19.45,3.35,3.35,0,0,1,.06.71,2.94,2.94,0,0,1-.1.86,1.22,1.22,0,0,1-.33.5.9.9,0,0,1-1.23-.14A2,2,0,0,1,59.13,105Zm.38,0a1.85,1.85,0,0,0,.18,1,.49.49,0,0,0,.42.24.51.51,0,0,0,.43-.24,1.89,1.89,0,0,0,.17-1,1.82,1.82,0,0,0-.17-1,.5.5,0,0,0-.43-.25.47.47,0,0,0-.41.22A2,2,0,0,0,59.51,105Z"/><path class="cls-10" d="M61.47,105.73l.39,0a.7.7,0,0,0,.2.43.56.56,0,0,0,.38.14.59.59,0,0,0,.45-.2.76.76,0,0,0,.18-.53.68.68,0,0,0-.18-.5.6.6,0,0,0-.46-.18.57.57,0,0,0-.32.08.58.58,0,0,0-.23.21l-.35,0,.3-1.54h1.49v.35h-1.2l-.16.81a1,1,0,0,1,.57-.19.9.9,0,0,1,.66.27,1,1,0,0,1,.27.71,1.08,1.08,0,0,1-.24.7,1,1,0,0,1-.78.37,1,1,0,0,1-.67-.23A.87.87,0,0,1,61.47,105.73Z"/><path class="cls-10" d="M4.75,68.15h-3v-.4H4.39V66.27h.36Z"/><path class="cls-10" d="M4.75,66.12,1.74,65v-.43l3-1.23v.45l-.91.35v1.26l.91.33Zm-1.24-.86v-1l-.83.31a5,5,0,0,1-.62.21,4.11,4.11,0,0,1,.57.17Z"/><path class="cls-10" d="M3.57,61.59H3.21V60.31H4.33a2.52,2.52,0,0,1,.35.61,1.73,1.73,0,0,1,.12.64,1.66,1.66,0,0,1-.19.8,1.27,1.27,0,0,1-.55.55,1.77,1.77,0,0,1-.8.18,1.89,1.89,0,0,1-.82-.18,1.27,1.27,0,0,1-.57-.53,1.67,1.67,0,0,1-.18-.79,1.55,1.55,0,0,1,.1-.59,1,1,0,0,1,.3-.42,1.24,1.24,0,0,1,.49-.22l.1.36a1.21,1.21,0,0,0-.36.16.7.7,0,0,0-.21.29,1.12,1.12,0,0,0-.08.42,1.36,1.36,0,0,0,.08.47,1,1,0,0,0,.22.32,1.17,1.17,0,0,0,.3.19,1.68,1.68,0,0,0,.6.11,1.4,1.4,0,0,0,.68-.14.86.86,0,0,0,.4-.4,1.21,1.21,0,0,0,.13-.56,1.32,1.32,0,0,0-.1-.51,1.73,1.73,0,0,0-.21-.37H3.57Z"/><path class="cls-10" d="M3.28,59.85a1.62,1.62,0,0,1-1.17-.41,1.49,1.49,0,0,1-.22-1.78,1.18,1.18,0,0,1,.55-.51A1.79,1.79,0,0,1,3.25,57a1.74,1.74,0,0,1,.82.19,1.18,1.18,0,0,1,.54.52,1.49,1.49,0,0,1,0,1.49,1.24,1.24,0,0,1-.56.5A1.6,1.6,0,0,1,3.28,59.85Zm0-.41a1.2,1.2,0,0,0,.86-.3,1,1,0,0,0,.31-.73,1,1,0,0,0-.32-.74,1.29,1.29,0,0,0-.89-.29,1.48,1.48,0,0,0-.65.13.93.93,0,0,0-.42.36A1,1,0,0,0,2,58.4a1,1,0,0,0,.29.73A1.27,1.27,0,0,0,3.29,59.44Z"/><path class="cls-10" d="M153.3,91.12l-3-1.15v-.43l3-1.23v.45l-.91.35v1.26l.91.33Zm-1.23-.87v-1l-.84.32-.62.21a4,4,0,0,1,.57.16Z"/><path class="cls-10" d="M153.3,87.43l-2.18.83v-.39l1.31-.47.43-.14-.41-.13-1.33-.49v-.38l2.18.83Z"/><path class="cls-10" d="M153.3,85.83h-.42v-.42h.42Z"/><path class="cls-10" d="M152.45,83.76l0-.36a.75.75,0,0,0,.47-.13A.43.43,0,0,0,153,83a.56.56,0,0,0-.07-.26.4.4,0,0,0-.19-.15,1.55,1.55,0,0,0-.38,0h-2.07v-.4h2.05a1.36,1.36,0,0,1,.59.1.62.62,0,0,1,.31.29,1,1,0,0,1,.11.46.77.77,0,0,1-.23.61A.94.94,0,0,1,152.45,83.76Z"/><path class="cls-10" d="M151.84,81.58a1.66,1.66,0,0,1-1.18-.41,1.35,1.35,0,0,1-.42-1,1.51,1.51,0,0,1,.2-.76,1.27,1.27,0,0,1,.55-.5,1.94,1.94,0,0,1,1.63,0,1.26,1.26,0,0,1,.54.53,1.42,1.42,0,0,1,.19.73,1.51,1.51,0,0,1-.2.76,1.35,1.35,0,0,1-.56.5A1.66,1.66,0,0,1,151.84,81.58Zm0-.41a1.2,1.2,0,0,0,.86-.3,1,1,0,0,0,.31-.73.93.93,0,0,0-.32-.74,1.27,1.27,0,0,0-.89-.29,1.56,1.56,0,0,0-.64.12,1,1,0,0,0-.43.37,1,1,0,0,0-.15.53,1,1,0,0,0,.29.73A1.33,1.33,0,0,0,151.84,81.17Z"/><path class="cls-10" d="M153.3,78.52l-3-1.16v-.43l3-1.23v.46l-.91.35v1.25l.91.33Zm-1.23-.87v-1l-.84.31c-.25.1-.46.17-.62.22a4,4,0,0,1,.57.16Z"/><path class="cls-10" d="M153,73.11a3.37,3.37,0,0,0,.28-.51l.27.11a2.16,2.16,0,0,1-.37.65,1.5,1.5,0,0,1,0,1.48,1.29,1.29,0,0,1-.55.51,1.89,1.89,0,0,1-1.61,0,1.26,1.26,0,0,1-.56-.51,1.49,1.49,0,0,1-.19-.75,1.45,1.45,0,0,1,.2-.75,1.29,1.29,0,0,1,.55-.51,1.9,1.9,0,0,1,1.47-.06A1.38,1.38,0,0,1,153,73.11Zm-.51.87a1.3,1.3,0,0,1,.29-.56,1.25,1.25,0,0,0-1-.36,1.54,1.54,0,0,0-.63.13.9.9,0,0,0-.43.36,1,1,0,0,0-.15.54,1,1,0,0,0,.31.74,1.27,1.27,0,0,0,.91.29,1.3,1.3,0,0,0,.9-.29,1,1,0,0,0,.31-.74,1.06,1.06,0,0,0-.08-.4,1.13,1.13,0,0,0-.17.39Z"/><path class="cls-10" d="M150.29,70.15v-.4H152a2,2,0,0,1,.72.1.85.85,0,0,1,.43.37,1.32,1.32,0,0,1,.17.7,1.38,1.38,0,0,1-.15.69.8.8,0,0,1-.42.39,2.12,2.12,0,0,1-.75.11h-1.74v-.4H152a1.71,1.71,0,0,0,.58-.07.57.57,0,0,0,.28-.25,1,1,0,0,0-.1-1.06,1.15,1.15,0,0,0-.76-.18Z"/><path class="cls-10" d="M153.3,69h-3v-.4h3Z"/><path class="cls-10" d="M153.3,67.92h-3v-.41l2.36-1.57h-2.36v-.39h3V66l-2.36,1.58h2.36Z"/><path class="cls-10" d="M152.33,63.85l0-.37a.81.81,0,0,0,.37-.13.62.62,0,0,0,.24-.3,1.3,1.3,0,0,0,.08-.46,1.2,1.2,0,0,0-.06-.4.59.59,0,0,0-.19-.26.41.41,0,0,0-.26-.09.36.36,0,0,0-.24.09.58.58,0,0,0-.18.27c0,.08-.08.26-.15.53a2.26,2.26,0,0,1-.19.58.68.68,0,0,1-.28.32.67.67,0,0,1-.37.11.77.77,0,0,1-.43-.13.83.83,0,0,1-.3-.38,1.58,1.58,0,0,1-.1-.55,1.55,1.55,0,0,1,.11-.59.83.83,0,0,1,.32-.39.93.93,0,0,1,.47-.15l0,.38a.59.59,0,0,0-.43.21.79.79,0,0,0-.15.52.89.89,0,0,0,.13.53.41.41,0,0,0,.32.17.34.34,0,0,0,.27-.12,1.59,1.59,0,0,0,.21-.6,4.1,4.1,0,0,1,.2-.67.91.91,0,0,1,.3-.38.73.73,0,0,1,.43-.13.82.82,0,0,1,.45.14.91.91,0,0,1,.33.39,1.37,1.37,0,0,1,.12.58,1.78,1.78,0,0,1-.12.69,1,1,0,0,1-.9.59Z"/><path class="cls-10" d="M153.3,60.91h-3V58.73h.36v1.78h.92V58.85h.35v1.66h1V58.67h.35Z"/><path class="cls-10" d="M152.25,56l.1-.4a1.42,1.42,0,0,1,.74.45,1.2,1.2,0,0,1,.26.8,1.44,1.44,0,0,1-.2.79,1.2,1.2,0,0,1-.57.46,2,2,0,0,1-.81.16,1.8,1.8,0,0,1-.82-.18,1.24,1.24,0,0,1-.53-.51,1.49,1.49,0,0,1-.18-.73,1.27,1.27,0,0,1,.23-.76,1.21,1.21,0,0,1,.65-.43l.09.4a1,1,0,0,0-.48.3.8.8,0,0,0-.15.5,1,1,0,0,0,.17.58,1,1,0,0,0,.44.33,2,2,0,0,0,1.25,0,.88.88,0,0,0,.43-.35,1,1,0,0,0,.14-.51.87.87,0,0,0-.19-.57A1,1,0,0,0,152.25,56Z"/><path class="cls-10" d="M151.84,55.2a1.66,1.66,0,0,1-1.18-.4,1.37,1.37,0,0,1-.42-1,1.5,1.5,0,0,1,.2-.75,1.35,1.35,0,0,1,.55-.51,1.92,1.92,0,0,1,.81-.17,1.8,1.8,0,0,1,.82.18,1.26,1.26,0,0,1,.54.53,1.42,1.42,0,0,1,.19.73,1.45,1.45,0,0,1-.2.75,1.31,1.31,0,0,1-.56.51A1.65,1.65,0,0,1,151.84,55.2Zm0-.41a1.2,1.2,0,0,0,.86-.29,1,1,0,0,0,.31-.73.93.93,0,0,0-.32-.74,1.27,1.27,0,0,0-.89-.29,1.56,1.56,0,0,0-.64.12,1,1,0,0,0-.43.37.94.94,0,0,0-.15.53,1,1,0,0,0,.29.73A1.33,1.33,0,0,0,151.84,54.79Z"/><path class="cls-10" d="M153.3,50.58h-3v-.4h3Z"/><path class="cls-10" d="M153.3,49.5h-3v-.4H153V47.62h.35Z"/><path class="cls-10" d="M153.3,47.16h-3v-.4H153V45.28h.35Z"/><path class="cls-10" d="M153.3,45.14l-3-1.15v-.43l3-1.23v.45l-.91.35v1.26l.91.33Zm-1.23-.87v-1l-.84.32-.62.21a4,4,0,0,1,.57.16Z"/><path class="cls-10" d="M97.24,24.28v-3h2.17v.36H97.64v.92H99.3v.35H97.64v1h1.84v.35Z"/><path class="cls-10" d="M102.44,24.28h-.37V21.93a1.76,1.76,0,0,1-.35.25,1.73,1.73,0,0,1-.39.19V22a2.38,2.38,0,0,0,.55-.36,1.25,1.25,0,0,0,.32-.4h.24Z"/><path class="cls-10" d="M103.39,22.8a2.57,2.57,0,0,1,.11-.86,1.06,1.06,0,0,1,.32-.5.85.85,0,0,1,.55-.18.93.93,0,0,1,.42.1.8.8,0,0,1,.3.28,1.33,1.33,0,0,1,.19.45,3.18,3.18,0,0,1,.07.71,2.78,2.78,0,0,1-.11.85,1,1,0,0,1-.33.51.85.85,0,0,1-.54.17.84.84,0,0,1-.69-.31A2,2,0,0,1,103.39,22.8Zm.38,0a1.82,1.82,0,0,0,.17,1,.51.51,0,0,0,.43.25.48.48,0,0,0,.42-.25,1.8,1.8,0,0,0,.18-1,1.82,1.82,0,0,0-.18-1,.5.5,0,0,0-.43-.24.46.46,0,0,0-.4.21A1.9,1.9,0,0,0,103.77,22.8Z"/><path class="cls-10" d="M107.66,23.93v.35h-2a.59.59,0,0,1,0-.26,1.37,1.37,0,0,1,.24-.39,2.79,2.79,0,0,1,.49-.46,4.54,4.54,0,0,0,.66-.64.76.76,0,0,0,.17-.44.47.47,0,0,0-.16-.37.56.56,0,0,0-.41-.15.55.55,0,0,0-.42.16.63.63,0,0,0-.17.44l-.37,0a.88.88,0,0,1,.29-.64,1,1,0,0,1,.68-.23,1,1,0,0,1,.69.24.82.82,0,0,1,.25.6,1,1,0,0,1-.07.35,1.51,1.51,0,0,1-.25.37,5.48,5.48,0,0,1-.57.53c-.22.18-.36.31-.43.38a1,1,0,0,0-.15.2Z"/><path class="cls-10" d="M107.88,24.33l.88-3.11h.29l-.87,3.11Z"/><path class="cls-10" d="M111.17,23.93v.35h-2a.78.78,0,0,1,0-.26,1.37,1.37,0,0,1,.24-.39,3.76,3.76,0,0,1,.49-.46,3.67,3.67,0,0,0,.66-.64.7.7,0,0,0,.17-.44.5.5,0,0,0-.15-.37.59.59,0,0,0-.41-.15.57.57,0,0,0-.43.16.58.58,0,0,0-.16.44l-.38,0a.92.92,0,0,1,.29-.64,1,1,0,0,1,.68-.23,1,1,0,0,1,.69.24.79.79,0,0,1,.25.6.84.84,0,0,1-.07.35,1.27,1.27,0,0,1-.25.37,5.48,5.48,0,0,1-.57.53,3.88,3.88,0,0,0-.42.38.74.74,0,0,0-.16.2Z"/><path class="cls-10" d="M111.56,22.8a2.85,2.85,0,0,1,.11-.86,1,1,0,0,1,.33-.5.8.8,0,0,1,.54-.18,1,1,0,0,1,.43.1.8.8,0,0,1,.3.28,1.32,1.32,0,0,1,.18.45,2.68,2.68,0,0,1,.07.71,2.5,2.5,0,0,1-.11.85,1.09,1.09,0,0,1-.32.51.88.88,0,0,1-.55.17.82.82,0,0,1-.68-.31A2,2,0,0,1,111.56,22.8Zm.38,0a1.93,1.93,0,0,0,.17,1,.49.49,0,0,0,.86,0,1.82,1.82,0,0,0,.17-1,1.84,1.84,0,0,0-.17-1,.52.52,0,0,0-.43-.24.48.48,0,0,0-.41.21A1.9,1.9,0,0,0,111.94,22.8Z"/><path class="cls-10" d="M115.84,23.93v.35h-2a.78.78,0,0,1,0-.26,1.42,1.42,0,0,1,.25-.39,3.07,3.07,0,0,1,.48-.46,3.67,3.67,0,0,0,.66-.64.7.7,0,0,0,.17-.44.5.5,0,0,0-.15-.37.65.65,0,0,0-.84,0,.62.62,0,0,0-.16.44l-.38,0a.92.92,0,0,1,.29-.64,1,1,0,0,1,.69-.23.94.94,0,0,1,.68.24.79.79,0,0,1,.25.6.84.84,0,0,1-.07.35,1.45,1.45,0,0,1-.24.37c-.12.13-.31.3-.57.53a3.4,3.4,0,0,0-.43.38,1,1,0,0,0-.16.2Z"/><path class="cls-10" d="M97.63,107.4l-.8-3h.41l.46,2c0,.2.09.41.13.61.07-.32.12-.5.13-.55l.57-2H99l.43,1.52a8.29,8.29,0,0,1,.24,1.06c0-.19.09-.4.15-.65l.47-1.93h.4l-.83,3h-.38l-.63-2.29c-.06-.19-.09-.31-.1-.35l-.08.35L98,107.4Z"/><path class="cls-10" d="M103.48,107.4h-.37v-2.35a2.12,2.12,0,0,1-.35.26l-.39.19v-.36a2.39,2.39,0,0,0,.54-.35,1.29,1.29,0,0,0,.33-.41h.24Z"/><path class="cls-10" d="M104.42,105.92a2.9,2.9,0,0,1,.11-.86,1.22,1.22,0,0,1,.33-.5.82.82,0,0,1,.54-.18.94.94,0,0,1,.43.1.89.89,0,0,1,.3.28,1.56,1.56,0,0,1,.19.45,3.35,3.35,0,0,1,.06.71,2.82,2.82,0,0,1-.1.85,1.11,1.11,0,0,1-.33.51.9.9,0,0,1-1.23-.14A2,2,0,0,1,104.42,105.92Zm.38,0a1.87,1.87,0,0,0,.18,1,.5.5,0,0,0,.85,0,2.81,2.81,0,0,0,0-2,.51.51,0,0,0-.43-.24.48.48,0,0,0-.41.22A2,2,0,0,0,104.8,105.92Z"/><path class="cls-10" d="M108.68,105.13l-.37,0a.64.64,0,0,0-.14-.31.47.47,0,0,0-.37-.16.48.48,0,0,0-.31.1.75.75,0,0,0-.27.37,1.77,1.77,0,0,0-.11.69.88.88,0,0,1,.73-.4.83.83,0,0,1,.63.27,1,1,0,0,1,.26.71,1.14,1.14,0,0,1-.12.52.9.9,0,0,1-.34.38,1,1,0,0,1-.48.13,1,1,0,0,1-.76-.34,1.75,1.75,0,0,1-.29-1.12,2,2,0,0,1,.33-1.27.92.92,0,0,1,.75-.35.85.85,0,0,1,.58.2A.89.89,0,0,1,108.68,105.13Zm-1.51,1.3a.86.86,0,0,0,.08.36.56.56,0,0,0,.23.27.53.53,0,0,0,.3.09.5.5,0,0,0,.4-.19.84.84,0,0,0,0-1,.56.56,0,0,0-.42-.18.58.58,0,0,0-.43.18A.68.68,0,0,0,107.17,106.43Z"/><path class="cls-10" d="M108.92,107.46l.87-3.11h.3l-.87,3.11Z"/><path class="cls-10" d="M112.2,107.05v.35h-2a.53.53,0,0,1,0-.25,1.29,1.29,0,0,1,.24-.4,3.23,3.23,0,0,1,.49-.46,5.23,5.23,0,0,0,.66-.63.82.82,0,0,0,.17-.45.47.47,0,0,0-.16-.37.56.56,0,0,0-.41-.15.55.55,0,0,0-.42.16.63.63,0,0,0-.17.44l-.38,0a1,1,0,0,1,.3-.64,1,1,0,0,1,.68-.23,1,1,0,0,1,.69.24.82.82,0,0,1,.25.6.85.85,0,0,1-.08.35,1.22,1.22,0,0,1-.24.37,4.56,4.56,0,0,1-.57.53l-.43.38a1.3,1.3,0,0,0-.15.2Z"/><path class="cls-10" d="M112.6,105.92a2.9,2.9,0,0,1,.11-.86,1.11,1.11,0,0,1,.32-.5.85.85,0,0,1,.55-.18.86.86,0,0,1,.73.38,1.56,1.56,0,0,1,.18.45,2.73,2.73,0,0,1,.07.71,2.78,2.78,0,0,1-.11.85,1.09,1.09,0,0,1-.32.51.85.85,0,0,1-.55.18.81.81,0,0,1-.68-.32A2,2,0,0,1,112.6,105.92Zm.38,0a2,2,0,0,0,.17,1,.51.51,0,0,0,.86,0,3,3,0,0,0,0-2,.53.53,0,0,0-.44-.24.46.46,0,0,0-.4.22A1.86,1.86,0,0,0,113,105.92Z"/><path class="cls-10" d="M116.85,105.13l-.37,0a.64.64,0,0,0-.14-.31.47.47,0,0,0-.37-.16.5.5,0,0,0-.31.1.89.89,0,0,0-.27.37,2,2,0,0,0-.11.69.94.94,0,0,1,.33-.3,1,1,0,0,1,.41-.1.83.83,0,0,1,.62.27,1,1,0,0,1,.26.71,1.14,1.14,0,0,1-.12.52.88.88,0,0,1-.33.38,1,1,0,0,1-.49.13,1,1,0,0,1-.75-.34,1.75,1.75,0,0,1-.29-1.12,2,2,0,0,1,.32-1.27.94.94,0,0,1,.76-.35.8.8,0,0,1,.85.75Zm-1.51,1.3a.86.86,0,0,0,.08.36.62.62,0,0,0,.23.27.59.59,0,0,0,.31.09.51.51,0,0,0,.4-.19.73.73,0,0,0,.17-.51.69.69,0,0,0-.17-.49.54.54,0,0,0-.42-.18.56.56,0,0,0-.42.18A.64.64,0,0,0,115.34,106.43Z"/><polyline class="cls-9" points="88 53.18 107.47 53.18 107.47 55.47 111.8 55.47 111.8 53.18 115.49 53.18 115.49 54.58 120.08 54.58 120.08 53.18 123.51 53.18 123.51 55.47 129.24 55.47 129.24 33.19 111.55 33.19 111.55 35.1 88 35.1 88 53.18"/><polyline class="cls-9" points="111.55 33.19 129.24 33.19 129.24 10.66 123.51 10.66 123.51 12.95 120.08 12.95 120.08 11.68 115.49 11.68 115.49 12.95 111.8 12.95 111.8 10.66 107.47 10.66 107.47 12.95 88.51 12.95 88.51 16.01 80.23 16.01 80.23 31.16 111.55 31.16 111.55 33.19"/><line class="cls-9" x1="111.8" y1="10.66" x2="123.51" y2="10.66"/><polyline class="cls-9" points="112.31 11.43 111.8 11.3 123.51 11.3"/><line class="cls-9" x1="112.57" y1="11.55" x2="113.07" y2="11.81"/><line class="cls-9" x1="113.33" y1="11.93" x2="113.84" y2="12.19"/><line class="cls-9" x1="114.22" y1="12.32" x2="114.73" y2="12.57"/><line class="cls-9" x1="114.98" y1="12.7" x2="115.49" y2="12.95"/><line class="cls-9" x1="111.8" y1="12.95" x2="112.31" y2="12.7"/><line class="cls-9" x1="112.57" y1="12.57" x2="113.07" y2="12.32"/><line class="cls-9" x1="113.33" y1="12.19" x2="113.84" y2="11.93"/><line class="cls-9" x1="114.22" y1="11.81" x2="114.73" y2="11.55"/><line class="cls-9" x1="114.98" y1="11.43" x2="115.49" y2="11.3"/><line class="cls-9" x1="120.08" y1="11.3" x2="120.46" y2="11.43"/><line class="cls-9" x1="120.71" y1="11.55" x2="121.22" y2="11.81"/><line class="cls-9" x1="121.48" y1="11.93" x2="122.11" y2="12.19"/><line class="cls-9" x1="122.37" y1="12.32" x2="122.88" y2="12.57"/><line class="cls-9" x1="123.13" y1="12.83" x2="123.51" y2="12.95"/><line class="cls-9" x1="120.08" y1="12.95" x2="120.46" y2="12.83"/><line class="cls-9" x1="120.71" y1="12.57" x2="121.22" y2="12.32"/><line class="cls-9" x1="121.48" y1="12.19" x2="122.11" y2="11.93"/><line class="cls-9" x1="122.37" y1="11.81" x2="122.88" y2="11.55"/><line class="cls-9" x1="123.13" y1="11.43" x2="123.51" y2="11.3"/><line class="cls-9" x1="111.8" y1="55.47" x2="123.51" y2="55.47"/><polyline class="cls-9" points="112.31 54.71 111.8 54.96 123.51 54.96"/><line class="cls-9" x1="112.57" y1="54.58" x2="113.07" y2="54.32"/><line class="cls-9" x1="113.33" y1="54.2" x2="113.84" y2="53.94"/><line class="cls-9" x1="114.22" y1="53.82" x2="114.73" y2="53.56"/><line class="cls-9" x1="114.98" y1="53.43" x2="115.49" y2="53.18"/><line class="cls-9" x1="111.8" y1="53.18" x2="112.31" y2="53.43"/><line class="cls-9" x1="112.57" y1="53.56" x2="113.07" y2="53.82"/><line class="cls-9" x1="113.33" y1="53.94" x2="113.84" y2="54.2"/><line class="cls-9" x1="114.22" y1="54.32" x2="114.73" y2="54.58"/><line class="cls-9" x1="114.98" y1="54.71" x2="115.49" y2="54.96"/><line class="cls-9" x1="120.08" y1="54.96" x2="120.46" y2="54.71"/><line class="cls-9" x1="120.71" y1="54.58" x2="121.22" y2="54.32"/><line class="cls-9" x1="121.48" y1="54.2" x2="122.11" y2="53.94"/><line class="cls-9" x1="122.37" y1="53.82" x2="122.88" y2="53.56"/><line class="cls-9" x1="123.13" y1="53.43" x2="123.51" y2="53.18"/><line class="cls-9" x1="120.08" y1="53.18" x2="120.46" y2="53.43"/><line class="cls-9" x1="120.71" y1="53.56" x2="121.22" y2="53.82"/><line class="cls-9" x1="121.48" y1="53.94" x2="122.11" y2="54.2"/><line class="cls-9" x1="122.37" y1="54.32" x2="122.88" y2="54.58"/><line class="cls-9" x1="123.13" y1="54.71" x2="123.51" y2="54.96"/><polyline class="cls-9" points="88 75.45 107.47 75.45 107.47 73.29 111.8 73.29 111.8 75.45 115.49 75.45 115.49 74.18 120.08 74.18 120.08 75.45 123.51 75.45 123.51 73.29 129.24 73.29 129.24 95.57 111.55 95.57 111.55 93.66 88 93.66 88 75.45"/><polyline class="cls-9" points="111.55 95.57 129.24 95.57 129.24 117.97 123.51 117.97 123.51 115.81 120.08 115.81 120.08 117.08 115.49 117.08 115.49 115.81 111.8 115.81 111.8 117.97 107.47 117.97 107.47 115.81 88.51 115.81 88.51 112.75 80.23 112.75 80.23 97.48 111.55 97.48 111.55 95.57"/><line class="cls-9" x1="111.8" y1="117.97" x2="123.51" y2="117.97"/><polyline class="cls-9" points="112.31 117.21 111.8 117.46 123.51 117.46"/><line class="cls-9" x1="112.57" y1="117.08" x2="113.07" y2="116.83"/><line class="cls-9" x1="113.33" y1="116.7" x2="113.84" y2="116.44"/><line class="cls-9" x1="114.22" y1="116.32" x2="114.73" y2="116.06"/><line class="cls-9" x1="114.98" y1="115.94" x2="115.49" y2="115.81"/><line class="cls-9" x1="111.8" y1="115.81" x2="112.31" y2="115.93"/><line class="cls-9" x1="112.57" y1="116.06" x2="113.07" y2="116.32"/><line class="cls-9" x1="113.33" y1="116.44" x2="113.84" y2="116.7"/><line class="cls-9" x1="114.22" y1="116.83" x2="114.73" y2="117.08"/><line class="cls-9" x1="114.98" y1="117.21" x2="115.49" y2="117.46"/><line class="cls-9" x1="120.08" y1="117.46" x2="120.46" y2="117.34"/><line class="cls-9" x1="120.71" y1="117.08" x2="121.22" y2="116.83"/><line class="cls-9" x1="121.48" y1="116.7" x2="122.11" y2="116.44"/><line class="cls-9" x1="122.37" y1="116.32" x2="122.88" y2="116.06"/><line class="cls-9" x1="123.13" y1="115.94" x2="123.51" y2="115.81"/><line class="cls-9" x1="120.08" y1="115.81" x2="120.46" y2="115.93"/><line class="cls-9" x1="120.71" y1="116.06" x2="121.22" y2="116.32"/><line class="cls-9" x1="121.48" y1="116.44" x2="122.11" y2="116.7"/><line class="cls-9" x1="122.37" y1="116.83" x2="122.88" y2="117.08"/><line class="cls-9" x1="123.13" y1="117.34" x2="123.51" y2="117.46"/><line class="cls-9" x1="111.8" y1="73.29" x2="123.51" y2="73.29"/><polyline class="cls-9" points="112.31 74.06 111.8 73.8 123.51 73.8"/><line class="cls-9" x1="112.57" y1="74.18" x2="113.07" y2="74.44"/><line class="cls-9" x1="113.33" y1="74.56" x2="113.84" y2="74.82"/><line class="cls-9" x1="114.22" y1="74.95" x2="114.73" y2="75.2"/><line class="cls-9" x1="114.98" y1="75.33" x2="115.49" y2="75.45"/><line class="cls-9" x1="111.8" y1="75.46" x2="112.31" y2="75.33"/><line class="cls-9" x1="112.57" y1="75.2" x2="113.07" y2="74.95"/><line class="cls-9" x1="113.33" y1="74.82" x2="113.84" y2="74.56"/><line class="cls-9" x1="114.22" y1="74.44" x2="114.73" y2="74.18"/><line class="cls-9" x1="114.98" y1="74.05" x2="115.49" y2="73.8"/><line class="cls-9" x1="120.08" y1="73.8" x2="120.46" y2="73.93"/><line class="cls-9" x1="120.71" y1="74.18" x2="121.22" y2="74.44"/><line class="cls-9" x1="121.48" y1="74.56" x2="122.11" y2="74.82"/><line class="cls-9" x1="122.37" y1="74.95" x2="122.88" y2="75.2"/><line class="cls-9" x1="123.13" y1="75.33" x2="123.51" y2="75.45"/><line class="cls-9" x1="120.08" y1="75.46" x2="120.46" y2="75.33"/><line class="cls-9" x1="120.71" y1="75.2" x2="121.22" y2="74.95"/><line class="cls-9" x1="121.48" y1="74.82" x2="122.11" y2="74.56"/><line class="cls-9" x1="122.37" y1="74.44" x2="122.88" y2="74.18"/><line class="cls-9" x1="123.13" y1="73.93" x2="123.51" y2="73.8"/></g></g></svg>