<svg id="Capa_1" data-name="Capa 1" xmlns="http://www.w3.org/2000/svg" xmlns:xlink="http://www.w3.org/1999/xlink" viewBox="0 0 168.43 120.02"><defs><style>.cls-1,.cls-4,.cls-5,.cls-7{fill:none;}.cls-2{clip-path:url(#clip-path);}.cls-3{fill:#ebebeb;}.cls-4{stroke:#ebebeb;}.cls-4,.cls-5,.cls-7{stroke-miterlimit:10;}.cls-4,.cls-7{stroke-width:0;}.cls-5,.cls-7{stroke:#63666b;stroke-linecap:round;}.cls-5{stroke-width:0.25px;}.cls-6{fill:#63666b;}.cls-8{clip-path:url(#clip-path-3);}</style><clipPath id="clip-path"><rect class="cls-1" x="-70.87" y="-530.54" width="1190.55" height="841.89"/></clipPath><clipPath id="clip-path-3"><rect class="cls-1" width="168.43" height="120.3"/></clipPath></defs><title>W305S</title><g class="cls-2"><g class="cls-2"><path class="cls-3" d="M38,64.38,59.93,76.6H38Zm21.9,0H38L59.93,76.6Z"/><path class="cls-4" d="M38,64.38,59.93,76.6H38Zm21.9,0H38L59.93,76.6Z"/><path class="cls-3" d="M23.78,76.6l36.15,4.84H23.78Zm36.15,0H23.78l36.15,4.84Z"/><path class="cls-4" d="M23.78,76.6l36.15,4.84H23.78Zm36.15,0H23.78l36.15,4.84Z"/><path class="cls-3" d="M22.63,81.44l37.3,3.43H22.63Zm37.3,0H22.63l37.3,3.43Z"/><path class="cls-4" d="M22.63,81.44l37.3,3.43H22.63Zm37.3,0H22.63l37.3,3.43Z"/><path class="cls-3" d="M22.63,84.87l25.2,12.61H22.63Zm25.2,0H22.63l25.2,12.61Z"/><path class="cls-4" d="M22.63,84.87l25.2,12.61H22.63Zm25.2,0H22.63l25.2,12.61Z"/><path class="cls-3" d="M22.63,97.48l57.92,4.71H22.63Zm57.92,0H22.63l57.92,4.71Z"/><path class="cls-4" d="M22.63,97.48l57.92,4.71H22.63Zm57.92,0H22.63l57.92,4.71Z"/><path class="cls-3" d="M29,102.19l51.56,10.56H29Zm51.56,0H29l51.56,10.56Z"/><path class="cls-4" d="M29,102.19l51.56,10.56H29Zm51.56,0H29l51.56,10.56Z"/><path class="cls-3" d="M29,112.75l42,3.06H29Zm42,0H29l42,3.06Z"/><path class="cls-4" d="M29,112.75l42,3.06H29Zm42,0H29l42,3.06Z"/><path class="cls-3" d="M37.52,117.08H32.94v-1.27Zm0,0Z"/><path class="cls-4" d="M37.52,117.08H32.94v-1.27Zm0,0Z"/><polygon class="cls-3" points="32.94 115.81 37.52 115.81 37.52 117.08 32.94 115.81"/><polygon class="cls-4" points="32.94 115.81 37.52 115.81 37.52 117.08 32.94 115.81"/><polyline class="cls-5" points="88.31 35.61 78.26 35.61 78.26 44.4 67.06 44.4 67.06 35.61 60.44 35.61 60.44 44.4"/><line class="cls-5" x1="60.44" y1="43.89" x2="67.05" y2="43.89"/><line class="cls-5" x1="67.06" y1="44.4" x2="60.44" y2="44.4"/><line class="cls-5" x1="78.26" y1="44.4" x2="88.31" y2="44.4"/><line class="cls-5" x1="88.31" y1="43.89" x2="78.26" y2="43.89"/><polyline class="cls-5" points="88.31 93.02 78.26 93.02 78.26 84.24 67.06 84.24 67.06 93.02 60.44 93.02 60.44 84.24 60.44 44.4"/><line class="cls-5" x1="60.44" y1="84.87" x2="67.05" y2="84.87"/><line class="cls-5" x1="67.06" y1="84.24" x2="60.44" y2="84.24"/><line class="cls-5" x1="78.26" y1="84.24" x2="88.31" y2="84.24"/><line class="cls-5" x1="88.31" y1="84.87" x2="78.26" y2="84.87"/><line class="cls-5" x1="60.44" y1="35.61" x2="60.82" y2="36.12"/><line class="cls-5" x1="61.07" y1="36.38" x2="61.45" y2="36.88"/><line class="cls-5" x1="61.58" y1="37.01" x2="61.96" y2="37.52"/><line class="cls-5" x1="62.09" y1="37.78" x2="62.47" y2="38.28"/><line class="cls-5" x1="62.73" y1="38.54" x2="63.11" y2="38.92"/><line class="cls-5" x1="63.24" y1="39.18" x2="63.62" y2="39.68"/><line class="cls-5" x1="63.87" y1="39.94" x2="64.26" y2="40.32"/><line class="cls-5" x1="64.38" y1="40.58" x2="64.76" y2="41.09"/><line class="cls-5" x1="65.02" y1="41.34" x2="65.27" y2="41.72"/><line class="cls-5" x1="65.53" y1="41.98" x2="65.91" y2="42.49"/><line class="cls-5" x1="66.04" y1="42.74" x2="66.42" y2="43.12"/><line class="cls-5" x1="66.67" y1="43.38" x2="67.06" y2="43.89"/><line class="cls-5" x1="60.44" y1="43.89" x2="60.82" y2="43.38"/><line class="cls-5" x1="61.07" y1="43.12" x2="61.45" y2="42.74"/><line class="cls-5" x1="61.58" y1="42.49" x2="61.96" y2="41.98"/><line class="cls-5" x1="62.09" y1="41.72" x2="62.47" y2="41.34"/><line class="cls-5" x1="62.73" y1="41.09" x2="63.11" y2="40.58"/><line class="cls-5" x1="63.24" y1="40.32" x2="63.62" y2="39.94"/><line class="cls-5" x1="63.87" y1="39.69" x2="64.26" y2="39.18"/><line class="cls-5" x1="64.38" y1="38.92" x2="64.76" y2="38.54"/><line class="cls-5" x1="65.02" y1="38.29" x2="65.27" y2="37.78"/><line class="cls-5" x1="65.53" y1="37.52" x2="65.91" y2="37.01"/><line class="cls-5" x1="66.04" y1="36.88" x2="66.42" y2="36.38"/><line class="cls-5" x1="66.67" y1="36.12" x2="67.06" y2="35.61"/><line class="cls-5" x1="78.26" y1="35.61" x2="78.64" y2="35.99"/><line class="cls-5" x1="78.89" y1="36.12" x2="79.4" y2="36.5"/><line class="cls-5" x1="79.53" y1="36.76" x2="80.04" y2="37.14"/><line class="cls-5" x1="80.29" y1="37.27" x2="80.8" y2="37.65"/><line class="cls-5" x1="80.93" y1="37.9" x2="81.44" y2="38.29"/><line class="cls-5" x1="81.69" y1="38.41" x2="82.2" y2="38.79"/><line class="cls-5" x1="82.33" y1="39.05" x2="82.84" y2="39.43"/><line class="cls-5" x1="83.09" y1="39.56" x2="83.6" y2="39.94"/><line class="cls-5" x1="83.73" y1="40.19" x2="84.24" y2="40.58"/><line class="cls-5" x1="84.5" y1="40.7" x2="85" y2="41.09"/><line class="cls-5" x1="85.13" y1="41.34" x2="85.64" y2="41.72"/><line class="cls-5" x1="85.89" y1="41.85" x2="86.28" y2="42.23"/><line class="cls-5" x1="86.53" y1="42.49" x2="87.04" y2="42.87"/><line class="cls-5" x1="87.3" y1="42.99" x2="87.68" y2="43.38"/><line class="cls-5" x1="87.93" y1="43.63" x2="88.31" y2="43.89"/><line class="cls-5" x1="88.31" y1="35.61" x2="87.93" y2="35.99"/><line class="cls-5" x1="87.68" y1="36.12" x2="87.3" y2="36.5"/><line class="cls-5" x1="87.04" y1="36.76" x2="86.53" y2="37.14"/><line class="cls-5" x1="86.28" y1="37.27" x2="85.9" y2="37.65"/><line class="cls-5" x1="85.64" y1="37.9" x2="85.13" y2="38.29"/><line class="cls-5" x1="85" y1="38.41" x2="84.5" y2="38.79"/><line class="cls-5" x1="84.24" y1="39.05" x2="83.73" y2="39.43"/><line class="cls-5" x1="83.6" y1="39.56" x2="83.1" y2="39.94"/><line class="cls-5" x1="82.84" y1="40.19" x2="82.33" y2="40.58"/><line class="cls-5" x1="82.2" y1="40.7" x2="81.69" y2="41.09"/><line class="cls-5" x1="81.44" y1="41.34" x2="80.93" y2="41.72"/><line class="cls-5" x1="80.8" y1="41.85" x2="80.29" y2="42.23"/><line class="cls-5" x1="80.04" y1="42.49" x2="79.53" y2="42.87"/><line class="cls-5" x1="79.4" y1="42.99" x2="78.89" y2="43.38"/><line class="cls-5" x1="78.64" y1="43.63" x2="78.26" y2="43.89"/><line class="cls-5" x1="60.44" y1="93.02" x2="60.82" y2="92.64"/><line class="cls-5" x1="61.07" y1="92.39" x2="61.45" y2="91.88"/><line class="cls-5" x1="61.58" y1="91.62" x2="61.96" y2="91.24"/><line class="cls-5" x1="62.09" y1="90.98" x2="62.47" y2="90.48"/><line class="cls-5" x1="62.73" y1="90.22" x2="63.11" y2="89.71"/><line class="cls-5" x1="63.24" y1="89.59" x2="63.62" y2="89.08"/><line class="cls-5" x1="63.87" y1="88.82" x2="64.26" y2="88.31"/><line class="cls-5" x1="64.38" y1="88.18" x2="64.76" y2="87.68"/><line class="cls-5" x1="65.02" y1="87.42" x2="65.27" y2="86.91"/><line class="cls-5" x1="65.53" y1="86.66" x2="65.91" y2="86.28"/><line class="cls-5" x1="66.04" y1="86.02" x2="66.42" y2="85.51"/><line class="cls-5" x1="66.67" y1="85.26" x2="67.06" y2="84.88"/><line class="cls-5" x1="60.44" y1="84.87" x2="60.82" y2="85.26"/><line class="cls-5" x1="61.07" y1="85.51" x2="61.45" y2="86.02"/><line class="cls-5" x1="61.58" y1="86.28" x2="61.96" y2="86.66"/><line class="cls-5" x1="62.09" y1="86.91" x2="62.47" y2="87.42"/><line class="cls-5" x1="62.73" y1="87.67" x2="63.11" y2="88.18"/><line class="cls-5" x1="63.24" y1="88.31" x2="63.62" y2="88.82"/><line class="cls-5" x1="63.87" y1="89.08" x2="64.26" y2="89.58"/><line class="cls-5" x1="64.38" y1="89.71" x2="64.76" y2="90.22"/><line class="cls-5" x1="65.02" y1="90.48" x2="65.27" y2="90.98"/><line class="cls-5" x1="65.53" y1="91.24" x2="65.91" y2="91.62"/><line class="cls-5" x1="66.04" y1="91.88" x2="66.42" y2="92.38"/><line class="cls-5" x1="66.67" y1="92.64" x2="67.06" y2="93.02"/><line class="cls-5" x1="78.26" y1="93.02" x2="78.64" y2="92.77"/><line class="cls-5" x1="78.89" y1="92.51" x2="79.4" y2="92.13"/><line class="cls-5" x1="79.53" y1="92" x2="80.04" y2="91.62"/><line class="cls-5" x1="80.29" y1="91.37" x2="80.8" y2="90.99"/><line class="cls-5" x1="80.93" y1="90.86" x2="81.44" y2="90.48"/><line class="cls-5" x1="81.69" y1="90.22" x2="82.2" y2="89.84"/><line class="cls-5" x1="82.33" y1="89.71" x2="82.84" y2="89.33"/><line class="cls-5" x1="83.09" y1="89.08" x2="83.6" y2="88.69"/><line class="cls-5" x1="83.73" y1="88.57" x2="84.24" y2="88.18"/><line class="cls-5" x1="84.5" y1="87.93" x2="85" y2="87.67"/><line class="cls-5" x1="85.13" y1="87.42" x2="85.64" y2="87.04"/><line class="cls-5" x1="85.89" y1="86.91" x2="86.28" y2="86.53"/><line class="cls-5" x1="86.53" y1="86.28" x2="87.04" y2="85.89"/><line class="cls-5" x1="87.3" y1="85.77" x2="87.68" y2="85.38"/><line class="cls-5" x1="87.93" y1="85.13" x2="88.31" y2="84.87"/><line class="cls-5" x1="78.26" y1="84.87" x2="78.64" y2="85.13"/><line class="cls-5" x1="78.89" y1="85.38" x2="79.4" y2="85.77"/><line class="cls-5" x1="79.53" y1="85.89" x2="80.04" y2="86.28"/><line class="cls-5" x1="80.29" y1="86.53" x2="80.8" y2="86.91"/><line class="cls-5" x1="80.93" y1="87.04" x2="81.44" y2="87.42"/><line class="cls-5" x1="81.69" y1="87.67" x2="82.2" y2="87.93"/><line class="cls-5" x1="82.33" y1="88.18" x2="82.84" y2="88.57"/><line class="cls-5" x1="83.09" y1="88.69" x2="83.6" y2="89.08"/><line class="cls-5" x1="83.73" y1="89.33" x2="84.24" y2="89.71"/><line class="cls-5" x1="84.5" y1="89.84" x2="85" y2="90.22"/><line class="cls-5" x1="85.13" y1="90.48" x2="85.64" y2="90.86"/><line class="cls-5" x1="85.89" y1="90.98" x2="86.28" y2="91.37"/><line class="cls-5" x1="86.53" y1="91.62" x2="87.04" y2="92"/><line class="cls-5" x1="87.3" y1="92.13" x2="87.68" y2="92.51"/><line class="cls-5" x1="87.93" y1="92.77" x2="88.31" y2="93.02"/><path class="cls-6" d="M156,13.21,154.12,1.12h.39Zm-.25.13.25-.13L154.12,1.12Z"/><path class="cls-7" d="M156,13.21,154.12,1.12h.39Zm-.25.13.25-.13L154.12,1.12Z"/><line class="cls-5" x1="157.31" y1="24.16" x2="155.91" y2="13.21"/><path class="cls-6" d="M156.8,13.21l-1.27-7h.38Zm-.38,0h.38l-1.27-7Z"/><path class="cls-7" d="M156.8,13.21l-1.27-7h.38Zm-.38,0h.38l-1.27-7Z"/><path class="cls-6" d="M155.4,13.34l-1.27-6.88h.38Zm-.38,0h.38l-1.27-6.88Z"/><path class="cls-7" d="M155.4,13.34l-1.27-6.88h.38Zm-.38,0h.38l-1.27-6.88Z"/><line class="cls-5" x1="157.05" y1="24.28" x2="156.8" y2="22.88"/><line class="cls-5" x1="147.63" y1="14.74" x2="145.85" y2="14.99"/><line class="cls-5" x1="166.09" y1="12.32" x2="164.18" y2="12.57"/><line class="cls-5" x1="166.09" y1="11.94" x2="145.72" y2="14.61"/><g class="cls-8"><path class="cls-5" d="M163.35,12.16a7.57,7.57,0,1,0-6.52,8.49,7.57,7.57,0,0,0,6.52-8.49"/><path class="cls-5" d="M162.85,12.22a7.07,7.07,0,1,0-6.08,7.93,7.06,7.06,0,0,0,6.08-7.93"/></g><path class="cls-6" d="M33.15,93.66l-.79-3h.4l.46,2c.05.21.09.41.13.62.08-.32.12-.51.13-.56l.58-2h.48L35,92.17a10.39,10.39,0,0,1,.23,1.07q.06-.28.15-.66l.47-1.93h.4l-.82,3H35l-.63-2.29q-.08-.28-.09-.36-.06.21-.09.36l-.64,2.29Z"/><path class="cls-6" d="M37.61,92.86l.37,0a.87.87,0,0,0,.22.45.53.53,0,0,0,.37.14.6.6,0,0,0,.44-.18.61.61,0,0,0,.18-.45.58.58,0,0,0-.59-.59,1,1,0,0,0-.26,0l0-.33h.06a.8.8,0,0,0,.43-.12.49.49,0,0,0,.05-.71.51.51,0,0,0-.36-.14.52.52,0,0,0-.36.14.71.71,0,0,0-.18.4l-.37-.06a.94.94,0,0,1,.31-.58.92.92,0,0,1,.59-.2.9.9,0,0,1,.46.11.77.77,0,0,1,.31.28.68.68,0,0,1,.11.39.65.65,0,0,1-.1.36A.72.72,0,0,1,39,92a.65.65,0,0,1,.41.26.74.74,0,0,1,.15.48.88.88,0,0,1-.29.67,1,1,0,0,1-.72.27.91.91,0,0,1-1-.85Z"/><path class="cls-6" d="M40,92.18a2.53,2.53,0,0,1,.11-.86,1,1,0,0,1,.32-.5.85.85,0,0,1,.55-.18.82.82,0,0,1,.42.1.8.8,0,0,1,.3.28,1.62,1.62,0,0,1,.19.44,3.35,3.35,0,0,1,.07.72,2.83,2.83,0,0,1-.11.85,1,1,0,0,1-.33.5.8.8,0,0,1-.54.18.84.84,0,0,1-.69-.31A2,2,0,0,1,40,92.18Zm.38,0a1.82,1.82,0,0,0,.17,1,.52.52,0,0,0,.43.25.5.5,0,0,0,.42-.25,1.8,1.8,0,0,0,.18-1,1.82,1.82,0,0,0-.18-1,.51.51,0,0,0-.43-.24.46.46,0,0,0-.4.21A1.88,1.88,0,0,0,40.33,92.18Z"/><path class="cls-6" d="M42.28,92.87l.39,0a.64.64,0,0,0,.2.42.52.52,0,0,0,.38.15.57.57,0,0,0,.45-.21.76.76,0,0,0,.18-.53.72.72,0,0,0-.17-.5.64.64,0,0,0-.47-.18.69.69,0,0,0-.32.08.78.78,0,0,0-.23.21l-.34,0,.29-1.55h1.49V91h-1.2l-.16.81a1,1,0,0,1,.57-.19,1,1,0,0,1,.94,1,1.06,1.06,0,0,1-.24.7,1,1,0,0,1-.79.37,1,1,0,0,1-.67-.23A.94.94,0,0,1,42.28,92.87Z"/><path class="cls-6" d="M5.06,68.15h-3v-.4H4.71V66.27h.35Z"/><path class="cls-6" d="M5.06,66.12,2.06,65v-.43l3-1.23v.45l-.91.35v1.26l.91.33Zm-1.23-.86v-1L3,64.55a5.1,5.1,0,0,1-.63.21,3.86,3.86,0,0,1,.58.17Z"/><path class="cls-6" d="M3.88,61.58H3.53V60.31H4.65a2.52,2.52,0,0,1,.35.61,1.73,1.73,0,0,1,.12.64,1.78,1.78,0,0,1-.19.8,1.27,1.27,0,0,1-.55.55,1.79,1.79,0,0,1-.81.18,1.85,1.85,0,0,1-.81-.18,1.18,1.18,0,0,1-.57-.53A1.67,1.67,0,0,1,2,61.59a1.55,1.55,0,0,1,.1-.59,1,1,0,0,1,.3-.42,1.39,1.39,0,0,1,.49-.22l.1.36a1.17,1.17,0,0,0-.37.16.79.79,0,0,0-.2.29.94.94,0,0,0-.08.41,1.18,1.18,0,0,0,.08.48.83.83,0,0,0,.22.32,1.17,1.17,0,0,0,.3.19,1.64,1.64,0,0,0,.6.11,1.36,1.36,0,0,0,.67-.14.88.88,0,0,0,.41-.4,1.35,1.35,0,0,0,.13-.56,1.44,1.44,0,0,0-.1-.5,1.31,1.31,0,0,0-.22-.38H3.88Z"/><path class="cls-6" d="M3.6,59.85a1.62,1.62,0,0,1-1.17-.41,1.32,1.32,0,0,1-.43-1,1.45,1.45,0,0,1,.2-.75,1.25,1.25,0,0,1,.56-.51,1.71,1.71,0,0,1,.8-.18,1.68,1.68,0,0,1,.82.19,1.21,1.21,0,0,1,.55.52,1.53,1.53,0,0,1,.19.73,1.43,1.43,0,0,1-.21.76,1.29,1.29,0,0,1-.56.5A1.66,1.66,0,0,1,3.6,59.85Zm0-.41a1.18,1.18,0,0,0,.85-.3,1,1,0,0,0,0-1.47,1.3,1.3,0,0,0-.9-.29,1.59,1.59,0,0,0-.64.12,1,1,0,0,0-.42.37,1,1,0,0,0,.14,1.26A1.29,1.29,0,0,0,3.61,59.44Z"/><path class="cls-6" d="M153.62,91.12l-3-1.15v-.43l3-1.23v.45l-.91.35v1.26l.91.33Zm-1.24-.87v-1l-.83.32-.62.21a4,4,0,0,1,.57.16Z"/><path class="cls-6" d="M153.62,87.43l-2.18.83v-.39l1.3-.47.44-.14-.41-.14-1.33-.48v-.38l2.18.83Z"/><path class="cls-6" d="M153.62,85.83h-.42v-.42h.42Z"/><path class="cls-6" d="M152.76,83.76l0-.36a.79.79,0,0,0,.48-.13.42.42,0,0,0,.12-.32.46.46,0,0,0-.07-.26.34.34,0,0,0-.18-.15,1.62,1.62,0,0,0-.38,0h-2.07v-.4h2a1.31,1.31,0,0,1,.58.1.6.6,0,0,1,.32.29,1,1,0,0,1,.11.46.82.82,0,0,1-.23.61A1,1,0,0,1,152.76,83.76Z"/><path class="cls-6" d="M152.15,81.58a1.62,1.62,0,0,1-1.17-.41,1.35,1.35,0,0,1-.42-1,1.42,1.42,0,0,1,.2-.76,1.29,1.29,0,0,1,.55-.51,1.92,1.92,0,0,1,.81-.17,1.86,1.86,0,0,1,.82.18,1.26,1.26,0,0,1,.54.53,1.49,1.49,0,0,1,0,1.49,1.24,1.24,0,0,1-.56.5A1.6,1.6,0,0,1,152.15,81.58Zm0-.42a1.16,1.16,0,0,0,.85-.29,1,1,0,0,0,0-1.47,1.29,1.29,0,0,0-.89-.29,1.64,1.64,0,0,0-.65.12,1,1,0,0,0-.42.37,1,1,0,0,0-.15.53,1,1,0,0,0,.29.73A1.31,1.31,0,0,0,152.16,81.16Z"/><path class="cls-6" d="M153.62,78.52l-3-1.16v-.43l3-1.23v.46l-.91.35v1.25l.91.33Zm-1.24-.87v-1l-.83.31c-.25.1-.46.17-.62.22a4,4,0,0,1,.57.16Z"/><path class="cls-6" d="M153.29,73.11a2.67,2.67,0,0,0,.28-.51l.28.11a2.25,2.25,0,0,1-.37.65,1.5,1.5,0,0,1,0,1.48,1.35,1.35,0,0,1-.55.51,1.79,1.79,0,0,1-.81.18,1.85,1.85,0,0,1-.81-.18,1.21,1.21,0,0,1-.55-.52,1.56,1.56,0,0,1,0-1.49,1.38,1.38,0,0,1,.56-.51,1.74,1.74,0,0,1,.8-.18,1.78,1.78,0,0,1,.67.12A1.27,1.27,0,0,1,153.29,73.11Zm-.5.87a1.52,1.52,0,0,1,.28-.57,1.24,1.24,0,0,0-1-.35,1.62,1.62,0,0,0-.64.13.93.93,0,0,0-.42.36,1,1,0,0,0-.15.54,1,1,0,0,0,.3.74,1.56,1.56,0,0,0,1.81,0,1,1,0,0,0,.32-.74,1.06,1.06,0,0,0-.08-.4,1.13,1.13,0,0,0-.17.39Z"/><path class="cls-6" d="M150.61,70.15v-.4h1.74a2,2,0,0,1,.72.1.9.9,0,0,1,.43.37,1.32,1.32,0,0,1,.17.7,1.38,1.38,0,0,1-.15.69.84.84,0,0,1-.42.39,2.12,2.12,0,0,1-.75.11h-1.74v-.4h1.73a1.64,1.64,0,0,0,.58-.07.55.55,0,0,0,.29-.25.83.83,0,0,0,.1-.43.85.85,0,0,0-.2-.63,1.18,1.18,0,0,0-.77-.18Z"/><path class="cls-6" d="M153.62,69h-3v-.4h3Z"/><path class="cls-6" d="M153.62,67.92h-3v-.41L153,65.94h-2.36v-.39h3V66l-2.37,1.58h2.37Z"/><path class="cls-6" d="M152.65,63.85l0-.37a.81.81,0,0,0,.37-.13.67.67,0,0,0,.23-.3,1.14,1.14,0,0,0,.09-.46,1,1,0,0,0-.07-.4.51.51,0,0,0-.18-.26.43.43,0,0,0-.26-.09.38.38,0,0,0-.25.09.5.5,0,0,0-.17.27,4.13,4.13,0,0,0-.15.53,2.75,2.75,0,0,1-.19.58.74.74,0,0,1-.28.32.67.67,0,0,1-.37.11.75.75,0,0,1-.43-.13.83.83,0,0,1-.3-.38,1.6,1.6,0,0,1,0-1.14.81.81,0,0,1,.31-.39,1,1,0,0,1,.48-.15l0,.38a.64.64,0,0,0-.44.21.85.85,0,0,0-.14.52.83.83,0,0,0,.13.53.41.41,0,0,0,.32.17.34.34,0,0,0,.27-.12,1.59,1.59,0,0,0,.21-.6A4.38,4.38,0,0,1,152,62a1,1,0,0,1,.31-.39.77.77,0,0,1,.43-.12.82.82,0,0,1,.45.14.91.91,0,0,1,.33.39,1.37,1.37,0,0,1,.12.58,1.78,1.78,0,0,1-.12.69,1,1,0,0,1-.9.59Z"/><path class="cls-6" d="M153.62,60.91h-3V58.74H151v1.77h.92V58.85h.35v1.66h1V58.66h.36Z"/><path class="cls-6" d="M152.56,56l.1-.4a1.41,1.41,0,0,1,.75.45,1.26,1.26,0,0,1,.26.8,1.44,1.44,0,0,1-.2.79,1.2,1.2,0,0,1-.57.46,2,2,0,0,1-.81.16,1.77,1.77,0,0,1-.82-.18,1.24,1.24,0,0,1-.53-.51,1.49,1.49,0,0,1-.18-.73,1.2,1.2,0,0,1,.23-.76,1.22,1.22,0,0,1,.64-.43l.1.4a.89.89,0,0,0-.48.3.8.8,0,0,0-.15.5,1,1,0,0,0,.16.58,1,1,0,0,0,.45.33,1.9,1.9,0,0,0,.58.09,2,2,0,0,0,.67-.11.88.88,0,0,0,.43-.35,1,1,0,0,0,.14-.51.88.88,0,0,0-.2-.57A.93.93,0,0,0,152.56,56Z"/><path class="cls-6" d="M152.15,55.2a1.61,1.61,0,0,1-1.17-.4,1.37,1.37,0,0,1-.42-1,1.41,1.41,0,0,1,.2-.75,1.29,1.29,0,0,1,.55-.51,1.92,1.92,0,0,1,.81-.17,1.86,1.86,0,0,1,.82.18,1.26,1.26,0,0,1,.54.53,1.4,1.4,0,0,1,.19.73,1.37,1.37,0,0,1-.21.75,1.21,1.21,0,0,1-.56.51A1.59,1.59,0,0,1,152.15,55.2Zm0-.41a1.16,1.16,0,0,0,.85-.29A1,1,0,0,0,153,53a1.24,1.24,0,0,0-.89-.29,1.64,1.64,0,0,0-.65.12,1,1,0,0,0-.57.9,1,1,0,0,0,.29.73A1.31,1.31,0,0,0,152.16,54.79Z"/><path class="cls-6" d="M153.62,50.58h-3v-.4h3Z"/><path class="cls-6" d="M153.62,49.5h-3v-.4h2.65V47.62h.36Z"/><path class="cls-6" d="M153.62,47.16h-3v-.4h2.65V45.28h.36Z"/><path class="cls-6" d="M153.62,45.14l-3-1.15v-.43l3-1.23v.45l-.91.35v1.26l.91.33Zm-1.24-.87v-1l-.83.32-.62.21a4,4,0,0,1,.57.16Z"/><polyline class="cls-5" points="88.31 35.61 88.31 53.18 107.79 53.18 107.79 55.47 112.12 55.47 112.12 53.18 115.81 53.18 115.81 54.58 120.39 54.58 120.39 53.18 123.83 53.18 123.83 55.47 129.56 55.47 129.56 10.66 123.83 10.66 123.83 12.95 120.39 12.95 120.39 11.68 115.81 11.68 115.81 12.95 112.12 12.95 112.12 10.66 107.79 10.66 107.79 12.95 88.82 12.95 88.82 16.01 80.55 16.01 80.55 31.16 67.06 31.16 67.06 35.61"/><line class="cls-5" x1="112.12" y1="10.66" x2="123.83" y2="10.66"/><polyline class="cls-5" points="112.63 11.43 112.12 11.3 123.83 11.3"/><line class="cls-5" x1="112.88" y1="11.55" x2="113.39" y2="11.81"/><line class="cls-5" x1="113.65" y1="11.94" x2="114.15" y2="12.19"/><line class="cls-5" x1="114.54" y1="12.32" x2="115.05" y2="12.57"/><line class="cls-5" x1="115.3" y1="12.7" x2="115.81" y2="12.95"/><line class="cls-5" x1="112.12" y1="12.95" x2="112.63" y2="12.7"/><line class="cls-5" x1="112.88" y1="12.57" x2="113.39" y2="12.32"/><line class="cls-5" x1="113.65" y1="12.19" x2="114.15" y2="11.93"/><line class="cls-5" x1="114.54" y1="11.81" x2="115.05" y2="11.55"/><line class="cls-5" x1="115.3" y1="11.43" x2="115.81" y2="11.3"/><line class="cls-5" x1="120.39" y1="11.3" x2="120.77" y2="11.43"/><line class="cls-5" x1="121.03" y1="11.55" x2="121.54" y2="11.81"/><line class="cls-5" x1="121.79" y1="11.94" x2="122.43" y2="12.19"/><line class="cls-5" x1="122.68" y1="12.32" x2="123.19" y2="12.57"/><line class="cls-5" x1="123.45" y1="12.83" x2="123.83" y2="12.95"/><line class="cls-5" x1="120.39" y1="12.95" x2="120.77" y2="12.83"/><line class="cls-5" x1="121.03" y1="12.57" x2="121.54" y2="12.32"/><line class="cls-5" x1="121.79" y1="12.19" x2="122.43" y2="11.93"/><line class="cls-5" x1="122.68" y1="11.81" x2="123.19" y2="11.55"/><line class="cls-5" x1="123.45" y1="11.43" x2="123.83" y2="11.3"/><line class="cls-5" x1="112.12" y1="55.47" x2="123.83" y2="55.47"/><polyline class="cls-5" points="112.63 54.71 112.12 54.96 123.83 54.96"/><line class="cls-5" x1="112.88" y1="54.58" x2="113.39" y2="54.32"/><line class="cls-5" x1="113.65" y1="54.2" x2="114.15" y2="53.94"/><line class="cls-5" x1="114.54" y1="53.82" x2="115.05" y2="53.56"/><line class="cls-5" x1="115.3" y1="53.43" x2="115.81" y2="53.18"/><line class="cls-5" x1="112.12" y1="53.18" x2="112.63" y2="53.43"/><line class="cls-5" x1="112.88" y1="53.56" x2="113.39" y2="53.82"/><line class="cls-5" x1="113.65" y1="53.94" x2="114.15" y2="54.2"/><line class="cls-5" x1="114.54" y1="54.32" x2="115.05" y2="54.58"/><line class="cls-5" x1="115.3" y1="54.71" x2="115.81" y2="54.96"/><line class="cls-5" x1="120.39" y1="54.96" x2="120.77" y2="54.71"/><line class="cls-5" x1="121.03" y1="54.58" x2="121.54" y2="54.32"/><line class="cls-5" x1="121.79" y1="54.2" x2="122.43" y2="53.94"/><line class="cls-5" x1="122.68" y1="53.82" x2="123.19" y2="53.56"/><line class="cls-5" x1="123.45" y1="53.43" x2="123.83" y2="53.18"/><line class="cls-5" x1="120.39" y1="53.18" x2="120.77" y2="53.43"/><line class="cls-5" x1="121.03" y1="53.56" x2="121.54" y2="53.82"/><line class="cls-5" x1="121.79" y1="53.94" x2="122.43" y2="54.2"/><line class="cls-5" x1="122.68" y1="54.32" x2="123.19" y2="54.58"/><line class="cls-5" x1="123.45" y1="54.71" x2="123.83" y2="54.96"/><polyline class="cls-5" points="80.55 16.01 71 16.01 71 12.95 37.52 12.95 37.52 11.68 32.94 11.68 32.94 12.95 29 12.95 29 26.45 22.63 26.45 22.63 47.2 23.78 47.2 23.78 52.16 38.03 52.16 38.03 64.38 59.93 64.38 59.93 54.07 59.93 43.89 47.83 43.89 47.83 31.16 80.55 31.16 80.55 16.01"/><polyline class="cls-5" points="80.55 112.75 71 112.75 71 115.81 37.52 115.81 37.52 117.08 32.94 117.08 32.94 115.81 29 115.81 29 102.19 22.63 102.19 22.63 81.44 23.78 81.44 23.78 76.6 38.03 76.6 38.03 64.38 59.93 64.38 59.93 84.88 47.83 84.88 47.83 97.48 80.55 97.48 80.55 112.75"/><line class="cls-5" x1="23.78" y1="76.6" x2="23.78" y2="52.16"/><line class="cls-5" x1="24.41" y1="76.6" x2="24.41" y2="52.16"/><path class="cls-6" d="M32.64,38.67v-3h2.17V36H33v.92H34.7v.35H33v1h1.85v.36Z"/><path class="cls-6" d="M36.45,37.87l.37,0a.86.86,0,0,0,.21.46.57.57,0,0,0,.38.13.61.61,0,0,0,.62-.62.58.58,0,0,0-.59-.59,1.51,1.51,0,0,0-.26,0l0-.32h.06a.76.76,0,0,0,.42-.12.41.41,0,0,0,.19-.38.48.48,0,0,0-.14-.34.53.53,0,0,0-.71,0,.6.6,0,0,0-.18.4l-.37-.06a.85.85,0,0,1,.9-.78,1,1,0,0,1,.45.1.75.75,0,0,1,.32.29.77.77,0,0,1,.11.39.6.6,0,0,1-.1.35.72.72,0,0,1-.31.26.7.7,0,0,1,.41.25.77.77,0,0,1,.15.49.92.92,0,0,1-.29.67,1,1,0,0,1-.73.27.92.92,0,0,1-.65-.24A.86.86,0,0,1,36.45,37.87Z"/><path class="cls-6" d="M38.78,37.18a2.78,2.78,0,0,1,.11-.85,1.11,1.11,0,0,1,.33-.51.85.85,0,0,1,.54-.17.83.83,0,0,1,.43.1.73.73,0,0,1,.3.28,1.62,1.62,0,0,1,.19.44,3.41,3.41,0,0,1,.06.71,2.57,2.57,0,0,1-.11.86,1.11,1.11,0,0,1-.32.5.83.83,0,0,1-.55.18.85.85,0,0,1-.68-.31A2,2,0,0,1,38.78,37.18Zm.38,0a1.82,1.82,0,0,0,.18,1,.49.49,0,0,0,.42.24.51.51,0,0,0,.43-.24,1.87,1.87,0,0,0,.17-1,1.82,1.82,0,0,0-.17-1,.52.52,0,0,0-.43-.25.49.49,0,0,0-.41.22A2,2,0,0,0,39.16,37.18Z"/><path class="cls-6" d="M41.12,37.87l.37,0a.8.8,0,0,0,.22.46.52.52,0,0,0,.37.13.61.61,0,0,0,.62-.62.58.58,0,0,0-.59-.59,1.51,1.51,0,0,0-.26,0l0-.32H42a.74.74,0,0,0,.42-.12.41.41,0,0,0,.19-.38.47.47,0,0,0-.13-.34.55.55,0,0,0-.36-.13.52.52,0,0,0-.36.14.65.65,0,0,0-.18.4l-.37-.06a.94.94,0,0,1,.31-.58.9.9,0,0,1,.59-.2,1,1,0,0,1,.46.1.79.79,0,0,1,.31.29.68.68,0,0,1,.11.39.6.6,0,0,1-.1.35.72.72,0,0,1-.31.26.67.67,0,0,1,.41.25.77.77,0,0,1,.15.49.92.92,0,0,1-.29.67,1,1,0,0,1-.72.27.92.92,0,0,1-.66-.24A.94.94,0,0,1,41.12,37.87Z"/><polyline class="cls-5" points="88.31 93.02 88.31 75.45 107.79 75.45 107.79 73.29 112.12 73.29 112.12 75.45 115.81 75.45 115.81 74.18 120.39 74.18 120.39 75.45 123.83 75.45 123.83 73.29 129.56 73.29 129.56 117.97 123.83 117.97 123.83 115.81 120.39 115.81 120.39 117.08 115.81 117.08 115.81 115.81 112.12 115.81 112.12 117.97 107.79 117.97 107.79 115.81 88.82 115.81 88.82 112.75 80.55 112.75 80.55 97.48 60.44 97.48 60.44 93.02"/><polyline class="cls-5" points="112.63 117.21 112.12 117.46 123.83 117.46"/><line class="cls-5" x1="112.88" y1="117.08" x2="113.39" y2="116.83"/><line class="cls-5" x1="113.65" y1="116.7" x2="114.15" y2="116.44"/><line class="cls-5" x1="114.54" y1="116.32" x2="115.05" y2="116.06"/><line class="cls-5" x1="115.3" y1="115.94" x2="115.81" y2="115.81"/><line class="cls-5" x1="112.12" y1="115.81" x2="112.63" y2="115.93"/><line class="cls-5" x1="112.88" y1="116.06" x2="113.39" y2="116.32"/><line class="cls-5" x1="113.65" y1="116.44" x2="114.15" y2="116.7"/><line class="cls-5" x1="114.54" y1="116.83" x2="115.05" y2="117.08"/><line class="cls-5" x1="115.3" y1="117.21" x2="115.81" y2="117.46"/><line class="cls-5" x1="120.39" y1="117.46" x2="120.77" y2="117.34"/><line class="cls-5" x1="121.03" y1="117.08" x2="121.54" y2="116.83"/><line class="cls-5" x1="121.79" y1="116.7" x2="122.43" y2="116.44"/><line class="cls-5" x1="122.68" y1="116.32" x2="123.19" y2="116.06"/><line class="cls-5" x1="123.45" y1="115.94" x2="123.83" y2="115.81"/><line class="cls-5" x1="120.39" y1="115.81" x2="120.77" y2="115.93"/><line class="cls-5" x1="121.03" y1="116.06" x2="121.54" y2="116.32"/><line class="cls-5" x1="121.79" y1="116.44" x2="122.43" y2="116.7"/><line class="cls-5" x1="122.68" y1="116.83" x2="123.19" y2="117.08"/><line class="cls-5" x1="123.45" y1="117.34" x2="123.83" y2="117.46"/><line class="cls-5" x1="112.12" y1="73.29" x2="123.83" y2="73.29"/><polyline class="cls-5" points="112.63 74.06 112.12 73.8 123.83 73.8"/><line class="cls-5" x1="112.88" y1="74.18" x2="113.39" y2="74.44"/><line class="cls-5" x1="113.65" y1="74.56" x2="114.15" y2="74.82"/><line class="cls-5" x1="114.54" y1="74.95" x2="115.05" y2="75.2"/><line class="cls-5" x1="115.3" y1="75.33" x2="115.81" y2="75.45"/><line class="cls-5" x1="112.12" y1="75.46" x2="112.63" y2="75.33"/><line class="cls-5" x1="112.88" y1="75.2" x2="113.39" y2="74.95"/><line class="cls-5" x1="113.65" y1="74.82" x2="114.15" y2="74.56"/><line class="cls-5" x1="114.54" y1="74.44" x2="115.05" y2="74.18"/><line class="cls-5" x1="115.3" y1="74.05" x2="115.81" y2="73.8"/><line class="cls-5" x1="120.39" y1="73.8" x2="120.77" y2="73.93"/><line class="cls-5" x1="121.03" y1="74.18" x2="121.54" y2="74.44"/><line class="cls-5" x1="121.79" y1="74.56" x2="122.43" y2="74.82"/><line class="cls-5" x1="122.68" y1="74.95" x2="123.19" y2="75.2"/><line class="cls-5" x1="123.45" y1="75.33" x2="123.83" y2="75.45"/><line class="cls-5" x1="120.39" y1="75.46" x2="120.77" y2="75.33"/><line class="cls-5" x1="121.03" y1="75.2" x2="121.54" y2="74.95"/><line class="cls-5" x1="121.79" y1="74.82" x2="122.43" y2="74.56"/><line class="cls-5" x1="122.68" y1="74.44" x2="123.19" y2="74.18"/><line class="cls-5" x1="123.45" y1="73.93" x2="123.83" y2="73.8"/><line class="cls-5" x1="37.78" y1="64.38" x2="37.78" y2="64.38"/><line class="cls-5" x1="37.4" y1="64.38" x2="37.4" y2="64.38"/><line class="cls-5" x1="37.14" y1="64.38" x2="37.14" y2="64.38"/><line class="cls-5" x1="36.89" y1="64.38" x2="36.89" y2="64.38"/><line class="cls-5" x1="36.51" y1="64.38" x2="36.51" y2="64.38"/><line class="cls-5" x1="36.25" y1="64.38" x2="36.25" y2="64.38"/><line class="cls-5" x1="35.87" y1="64.38" x2="35.87" y2="64.38"/><line class="cls-5" x1="35.61" y1="64.38" x2="35.61" y2="64.38"/><line class="cls-5" x1="35.36" y1="64.38" x2="35.36" y2="64.38"/><line class="cls-5" x1="34.98" y1="64.38" x2="34.98" y2="64.38"/><line class="cls-5" x1="34.72" y1="64.38" x2="34.72" y2="64.38"/><line class="cls-5" x1="34.34" y1="64.38" x2="34.34" y2="64.38"/><line class="cls-5" x1="34.09" y1="64.38" x2="34.09" y2="64.38"/><line class="cls-5" x1="33.83" y1="64.38" x2="33.83" y2="64.38"/><line class="cls-5" x1="33.45" y1="64.38" x2="33.45" y2="64.38"/><line class="cls-5" x1="33.2" y1="64.38" x2="33.2" y2="64.38"/><line class="cls-5" x1="32.81" y1="64.38" x2="32.81" y2="64.38"/><line class="cls-5" x1="32.56" y1="64.38" x2="32.56" y2="64.38"/><line class="cls-5" x1="32.3" y1="64.38" x2="32.3" y2="64.38"/><line class="cls-5" x1="31.92" y1="64.38" x2="31.92" y2="64.38"/><line class="cls-5" x1="31.67" y1="64.38" x2="31.67" y2="64.38"/><line class="cls-5" x1="31.29" y1="64.38" x2="31.29" y2="64.38"/><line class="cls-5" x1="31.03" y1="64.38" x2="31.03" y2="64.38"/><line class="cls-5" x1="30.78" y1="64.38" x2="30.78" y2="64.38"/><line class="cls-5" x1="30.4" y1="64.38" x2="30.4" y2="64.38"/><line class="cls-5" x1="30.14" y1="64.38" x2="30.14" y2="64.38"/><line class="cls-5" x1="29.76" y1="64.38" x2="29.76" y2="64.38"/><line class="cls-5" x1="29.5" y1="64.38" x2="29.5" y2="64.38"/><line class="cls-5" x1="29.12" y1="64.38" x2="29.12" y2="64.38"/><line class="cls-5" x1="28.87" y1="64.38" x2="28.87" y2="64.38"/><line class="cls-5" x1="28.61" y1="64.38" x2="28.61" y2="64.38"/><line class="cls-5" x1="28.23" y1="64.38" x2="28.23" y2="64.38"/><line class="cls-5" x1="27.98" y1="64.38" x2="27.98" y2="64.38"/><line class="cls-5" x1="27.59" y1="64.38" x2="27.59" y2="64.38"/><line class="cls-5" x1="27.34" y1="64.38" x2="27.34" y2="64.38"/><line class="cls-5" x1="27.09" y1="64.38" x2="27.09" y2="64.38"/><line class="cls-5" x1="26.7" y1="64.38" x2="26.7" y2="64.38"/><line class="cls-5" x1="26.45" y1="64.38" x2="26.45" y2="64.38"/><line class="cls-5" x1="26.07" y1="64.38" x2="26.07" y2="64.38"/><line class="cls-5" x1="25.81" y1="64.38" x2="25.81" y2="64.38"/><line class="cls-5" x1="25.56" y1="64.38" x2="25.56" y2="64.38"/><line class="cls-5" x1="25.18" y1="64.38" x2="25.18" y2="64.38"/><line class="cls-5" x1="24.92" y1="64.38" x2="24.92" y2="64.38"/><line class="cls-5" x1="24.54" y1="64.38" x2="24.54" y2="64.38"/></g></g></svg>